<?xml version="1.0" encoding="utf-8"?>
<!-- Generator: Adobe Illustrator 27.5.0, SVG Export Plug-In . SVG Version: 6.00 Build 0)  -->
<svg version="1.1" id="Calque_1" xmlns="http://www.w3.org/2000/svg" xmlns:xlink="http://www.w3.org/1999/xlink" x="0px" y="0px"
	 viewBox="0 0 130 150" style="enable-background:new 0 0 130 150;" xml:space="preserve">
<style type="text/css">
	.st0{fill:#26AD00;}
	.st1{fill:none;}
</style>
<g>
	<g>
		<g>
			<path class="st0" d="M65,149.3c-0.2,0-0.4-0.1-0.5-0.1L1,112.5c-0.3-0.2-0.5-0.5-0.5-0.9V38.3c0-0.3,0.2-0.7,0.5-0.9L64.5,0.8
				c0.1-0.1,0.3-0.1,0.5-0.1c0.2,0,0.4,0,0.5,0.1l63.7,36.8v0.1c0.2,0.2,0.2,0.4,0.2,0.7v73.3c0,0.3-0.2,0.7-0.5,0.9l-63.5,36.7
				C65.4,149.3,65.2,149.3,65,149.3z M65,146.1l61.5-35.5v-71L65,4L3.5,39.5v71.1L65,146.1z"/>
		</g>
		<g>
			<path class="st0" d="M65,1.2c0.1,0,0.2,0,0.2,0.1l63.5,36.7v0c0.1,0.1,0.2,0.2,0.2,0.4v73.3c0,0.2-0.1,0.3-0.2,0.4l-63.5,36.7
				c-0.1,0-0.2,0.1-0.2,0.1c-0.1,0-0.2,0-0.2-0.1L1.3,112.1C1.1,112,1,111.8,1,111.7V38.3c0-0.2,0.1-0.3,0.2-0.4L64.8,1.2
				C64.8,1.2,64.9,1.2,65,1.2 M65,146.7l62-35.8V39.2L65,3.4L3,39.2v71.6L65,146.7 M65,0.2c-0.3,0-0.5,0.1-0.8,0.2L0.8,37
				C0.3,37.3,0,37.8,0,38.3v73.3c0,0.5,0.3,1,0.7,1.3l63.5,36.7l0,0l0,0c0.2,0.1,0.5,0.2,0.7,0.2c0.3,0,0.5-0.1,0.8-0.2l63.5-36.6
				c0.5-0.3,0.8-0.8,0.8-1.3V38.3c0-0.3-0.1-0.6-0.2-0.8v-0.2l-0.5-0.3L65.8,0.4C65.5,0.2,65.3,0.2,65,0.2L65,0.2z M4,39.8L65,4.5
				l61,35.2v70.5l-61,35.2L4,110.2V39.8L4,39.8z"/>
		</g>
	</g>
	<g>
		<polygon class="st1" points="56.4,125.7 56.4,135.6 65,140.6 73.6,135.6 73.6,125.7 65,120.7 		"/>
	</g>
	<g>
		<path class="st0" d="M75.6,125.1c0-0.3-0.2-0.6-0.5-0.8l-9.7-5.6c-0.3-0.2-0.6-0.2-0.9,0l-9.7,5.6c-0.3,0.2-0.5,0.5-0.5,0.8v4.2
			l0,2.1v4.9c0,0.3,0.2,0.6,0.5,0.8l9.7,5.6c0.1,0.1,0.3,0.1,0.5,0.1c0.2,0,0.3,0,0.5-0.1l9.7-5.6c0.3-0.2,0.5-0.5,0.5-0.8v-4.9
			l0-2.1V125.1z M73.6,135.6l-8.6,5l-8.6-5v-10l8.6-5l8.6,5V135.6z"/>
	</g>
	<g>
		<path class="st0" d="M118.6,44.1L65.3,13.3c-0.1-0.1-0.3-0.1-0.5,0L11.5,44.1c-0.1,0.1-0.2,0.2-0.2,0.4v61.6
			c0,0.2,0.1,0.3,0.2,0.4l43,24.8l0-2.1L13,105.3v-60l52-30l52,30v60v0l-41.4,23.9l0,2.1l43-24.8c0.1-0.1,0.2-0.2,0.2-0.4V44.6
			C118.8,44.4,118.7,44.2,118.6,44.1z"/>
		<path class="st0" d="M74.6,133.1l0-4.4l41.4-23.9V45.9L65,16.4L14,45.9v58.9l41.4,23.9l0,4.4L11,107.4c-0.5-0.3-0.7-0.8-0.7-1.3
			V44.6c0-0.5,0.3-1,0.7-1.3l53.3-30.8c0.4-0.3,1-0.3,1.5,0l53.3,30.8c0.5,0.3,0.7,0.8,0.7,1.3v61.6c0,0.5-0.3,1-0.7,1.3L74.6,133.1
			z M64.8,14.2C64.8,14.2,64.8,14.2,64.8,14.2L64.8,14.2z M65.3,14.2L65.3,14.2C65.3,14.2,65.3,14.2,65.3,14.2z"/>
	</g>
	<g>
		<g>
			<path class="st0" d="M69.8,128.1c-0.2-0.8-0.5-1.4-0.8-2c-0.7-0.8-1.6-1.2-2.6-1.4h-0.1c-0.2,0.1-0.3,0.3-0.5,0.4l0,0
				c0.1-0.2,0.3-0.3,0.4-0.5c0,0,0.3-0.8,0.8-1.1c-0.7-0.3-1.3-0.6-2-0.8c0,0-0.1,0-0.2,0c-0.4,0.2-0.7,0.3-1,0.5
				c-0.3,0.2-0.7,0.3-0.9,0.5c-0.1,0,0.7,0.2,0.8,1c0,0.1,0,0.1-0.1,0.1c-0.3,0.1-0.7,0.2-0.9,0.3c-0.7,0.3-1.2,0.8-1.7,1.3
				c-0.5,0.7-0.8,1.4-0.8,2.3c-0.1,0.5-0.1,0.9-0.1,1.4c0,0.1,0,0.1,0.1,0.2c0.5,0.4,1.4,1,1.8,1.5c0.1,0,0.1,0.1,0.2,0.1l0,0
				c-0.1-0.5-0.7-1.1-0.8-1.6c0.1,0,0.1,0,0.1,0.1c0.2,0.1,0.4,0.2,0.5,0.3c0,0,0,0,0.1,0c0.2-0.8,0.4-1.5,0.8-2.2l-0.2,0.1
				c0,0,1-1.6,1.2-1.8c0,0-1.3,2.7-1.6,3.9c0.5,0.3,0.9,0.5,1.3,0.8c0.6,0.5,0.9,1,0.8,1.7c0,0.3-0.1,0.7-0.1,0.9
				c0,0.2,0,0.3,0.2,0.4c0.4,0.3,0.7,0.3,1,0c0.1-0.1,0.2-0.2,0.1-0.4c-0.1-0.4-0.1-0.8-0.1-1.1c0-0.5,0.2-0.8,0.5-1.1
				c0.2-0.2,0.4-0.4,0.7-0.6c0.2-0.1,0.3-0.2,0.5-0.3c-0.3-0.1-0.5-0.2-0.8-0.3c0.1-0.2,0.2-0.5,0.3-0.7c0-0.1,0-0.1,0-0.2
				c-0.2-0.1-0.4-0.3-0.7-0.5c0,0-0.1,0-0.1-0.1c0.1,0,0.2,0.1,0.4,0.1c0.2,0.1,0.4,0.2,0.6,0.3c0.1,0,0.1,0.1,0.1,0.1
				c-0.1,0.1-0.1,0.3-0.2,0.4c0,0.1,0,0.1,0.1,0.1c0.2,0.1,0.4,0.2,0.6,0.3c0.1,0,0.1,0,0.2,0c0.3-0.2,0.6-0.3,0.9-0.5
				c0,0,0,0,0.1,0c-0.1,0.5-0.6,0.9-0.7,1.3c0,0,0,0,0.1,0c0.5-0.5,1.4-0.9,1.9-1.4l0.1-0.1C69.9,129.3,69.9,128.7,69.8,128.1z"/>
		</g>
		<g>
			<path class="st0" d="M64,138.6c-0.3-1-0.4-2.2-0.5-3.2c0-0.5-0.1-0.9-0.2-1.4c-0.2-0.9-0.7-1.6-1.4-2.1l-0.1-0.1
				c-0.1,0.5-0.2,1-0.1,1.2c0,0,0-0.6,0-1.3c0.1,0.1-0.2-0.2-1.1-0.6c0,0-0.1,0-0.1-0.1c0,0.1,0.1,0.2,0.1,0.3
				c0,0.1,0.1,0.2,0.1,0.3c0.1,0.7,0.2,1.2,0.2,1.9c-0.2,0.8-0.4,0.9-0.4,0.9l0.6,0.8c0.8,1,1.7,2,2.6,3
				C63.8,138.4,63.9,138.5,64,138.6C64,138.7,64,138.7,64,138.6L64,138.6z"/>
		</g>
		<g>
			<path class="st0" d="M68.9,133.9c0-0.6,0.1-1,0.2-1.6c0.1-0.4,0.1-0.8,0.3-1.1l0,0c-0.3,0.2-0.7,0.3-0.9,0.5
				c-0.2,0.1-0.2,0.1-0.2,0.3c0.1,0.5,0.2,1,0.2,1.5c0,0.1,0,0.1,0,0.2c0,0.1,0,0.1,0,0.2c-0.1-0.7-0.3-1.3-0.6-1.9l0,0l0,0
				c-0.8,0.5-1.3,1.1-1.4,2.1c-0.1,0.6-0.2,1.2-0.2,1.9c-0.1,0.8-0.2,1.7-0.4,2.5c0,0.1,0,0.2-0.1,0.3l0,0c0.5-0.6,0.9-1,1.4-1.6
				l0.1-0.1c0-0.7-0.1-1.2-0.3-1.8c0-0.2-0.1-0.3-0.2-0.5c0.4,0.7,0.6,1.3,0.7,2.1l0,0c0.4-0.5,0.8-0.9,1.2-1.4l0,0l0.4-0.5
				C69.2,134.7,69,134.6,68.9,133.9z"/>
		</g>
	</g>
</g>
</svg>
