<?xml version="1.0" encoding="utf-8"?>
<!-- Generator: Adobe Illustrator 27.5.0, SVG Export Plug-In . SVG Version: 6.00 Build 0)  -->
<svg version="1.1" id="Calque_1" xmlns="http://www.w3.org/2000/svg" xmlns:xlink="http://www.w3.org/1999/xlink" x="0px" y="0px"
	 viewBox="0 0 130 150" style="enable-background:new 0 0 130 150;" xml:space="preserve">
<style type="text/css">
	.st0{fill:#0005FF;}
	.st1{fill:none;}
	.st2{fill:#0005FF;stroke:#0005FF;stroke-width:2;stroke-miterlimit:10;}
</style>
<g>
	<g>
		<path class="st0" d="M65,149.3c-0.2,0-0.4-0.1-0.5-0.1L1,112.5c-0.3-0.2-0.5-0.5-0.5-0.9V38.3c0-0.3,0.2-0.7,0.5-0.9L64.5,0.8
			c0.1-0.1,0.3-0.1,0.5-0.1c0.2,0,0.4,0,0.5,0.1l63.7,36.8v0.1c0.2,0.2,0.2,0.4,0.2,0.7v73.3c0,0.3-0.2,0.7-0.5,0.9l-63.5,36.7
			C65.4,149.3,65.2,149.3,65,149.3z M65,146.1l61.5-35.5v-71L65,4L3.5,39.5v71.1L65,146.1z"/>
		<path class="st0" d="M65,1.2c0.1,0,0.2,0,0.2,0.1l63.5,36.7v0c0.1,0.1,0.2,0.2,0.2,0.4v73.3c0,0.2-0.1,0.3-0.2,0.4l-63.5,36.7
			c-0.1,0-0.2,0.1-0.2,0.1c-0.1,0-0.2,0-0.2-0.1L1.3,112.1C1.1,112,1,111.8,1,111.7V38.3c0-0.2,0.1-0.3,0.2-0.4L64.8,1.2
			C64.8,1.2,64.9,1.2,65,1.2 M65,146.7l62-35.8V39.2L65,3.4L3,39.2v71.6L65,146.7 M65,0.2c-0.3,0-0.5,0.1-0.8,0.2L0.8,37
			C0.3,37.3,0,37.8,0,38.3v73.3c0,0.5,0.3,1,0.7,1.3l63.5,36.7l0,0l0,0c0.2,0.1,0.5,0.2,0.7,0.2c0.3,0,0.5-0.1,0.8-0.2l63.5-36.6
			c0.5-0.3,0.8-0.8,0.8-1.3V38.3c0-0.3-0.1-0.6-0.2-0.8v-0.2l-0.5-0.3L65.8,0.4C65.5,0.2,65.3,0.2,65,0.2L65,0.2z M4,39.8L65,4.5
			l61,35.2v70.5l-61,35.2L4,110.2V39.8L4,39.8z"/>
	</g>
	<path class="st0" d="M68,132.6c-0.2-0.4-0.4-0.8-0.4-1.3l0,0c-0.5-0.6-0.7-1.4-0.7-2.2c0-0.5,0.1-0.9,0.2-1.3c0,0,0,0-0.1-0.1
		c-0.3,0.1-0.6,0.1-0.8,0.1c-0.4,0-0.8-0.1-1.1-0.2c-0.4,0.1-0.8,0.2-1.1,0.2c-0.2,0-0.5,0-0.8-0.1c0,0,0,0.1-0.1,0.1
		c0.2,0.4,0.2,0.8,0.2,1.3c0,0.8-0.2,1.6-0.7,2.2c-0.1,0.5-0.2,0.9-0.4,1.3c-0.1,0.4-0.1,0.4,0.2,0.7c0.4,0.2,0.7,0.5,1.1,0.7l0,0
		c0.6,0.4,1.1,0.8,1.6,1.1c0.5-0.4,1-0.7,1.6-1.1c0.4-0.2,0.7-0.5,1.1-0.7C68.1,133,68.1,132.9,68,132.6L68,132.6z"/>
	<path class="st0" d="M69,135.1c2-1.4,1.2-3.1,1-3.6l0,0c-0.4-0.7-0.2-1.4-0.2-1.4s-0.7-0.2-0.7-1.1c0-0.9,0.6-1,0.8-1
		c0,0,0.1,0,0.1,0c0.3-1.7-0.6-2.9-0.6-2.9c0.1,0.6-0.3,0.9-0.5,0.9c-0.3,0-0.5-0.7-0.7-1c-0.5-0.7-0.8-1-1.6-1.4
		c0,0,0.3,0.6,0.2,0.9c-0.1,0.5-0.4,0.7-0.6,0.7c-0.5,0-1.1-0.6-1.1-0.6s-0.6,0.6-1.1,0.6c-0.3,0-0.5-0.2-0.6-0.7
		c-0.1-0.4,0.2-0.9,0.2-0.9c-0.8,0.4-1.2,0.6-1.6,1.4c-0.2,0.3-0.4,1-0.7,1c-0.2,0-0.7-0.3-0.5-0.9c0,0-0.8,1.1-0.6,2.9
		c0,0,0,0,0.1,0c0.2,0,0.8,0.1,0.8,1c0,0.9-0.7,1.1-0.7,1.1s0.2,0.7-0.2,1.4c-0.2,0.5-1,2.2,1,3.6c2,1.4,3.9,2.4,4,3.5
		C65.2,137.6,67,136.5,69,135.1L69,135.1z M62.7,135c-0.4-0.2-0.7-0.5-1.1-0.8c-1.1-0.8-0.9-1.5-0.7-2.3c0.3-0.5,0.3-0.9,0.3-1.3
		l0,0c0.4-0.4,0.7-1,0.7-1.7c0-0.8-0.4-1.4-0.9-1.8c0,0,0,0,0,0c0,0,0.1,0,0.1,0c0.9,0,1.3-0.9,1.5-1.3c0,0,0-0.1,0-0.1
		c0.4,0.6,1,0.6,1.3,0.6c0.4,0,0.8-0.2,1.1-0.4c0.3,0.2,0.7,0.4,1.1,0.4c0.2,0,0.8-0.1,1.3-0.6c0,0,0,0.1,0,0.1
		c0.2,0.4,0.6,1.3,1.5,1.3c0,0,0.1,0,0.1,0c0,0,0,0,0,0c-0.6,0.3-0.9,1-0.9,1.8c0,0.6,0.2,1.2,0.7,1.7c0,0.4,0.1,0.8,0.3,1.3l0,0
		c0.3,0.7,0.4,1.5-0.7,2.3c-0.4,0.3-0.8,0.5-1.1,0.8c-0.9,0.6-1.7,1.1-2.3,1.7C64.4,136.2,63.6,135.6,62.7,135L62.7,135z"/>
	<path class="st1" d="M54.9,124.3l9.7-5.6c0.3-0.2,0.6-0.2,0.9,0l9.7,5.6c0.3,0.2,0.5,0.5,0.5,0.8v4.2l41.4-23.9v0v-60l-52-30
		l-52,30v60l41.4,23.9v-4.2C54.4,124.7,54.6,124.4,54.9,124.3z"/>
	<polygon class="st1" points="56.4,125.7 56.4,135.6 65,140.6 73.6,135.6 73.6,125.7 65,120.7 	"/>
	<path class="st0" d="M75.6,125.1c0-0.3-0.2-0.6-0.5-0.8l-9.7-5.6c-0.3-0.2-0.6-0.2-0.9,0l-9.7,5.6c-0.3,0.2-0.5,0.5-0.5,0.8v4.2
		l0,2.1v4.9c0,0.3,0.2,0.6,0.5,0.8l9.7,5.6c0.1,0.1,0.3,0.1,0.5,0.1c0.2,0,0.3,0,0.5-0.1l9.7-5.6c0.3-0.2,0.5-0.5,0.5-0.8v-4.9
		l0-2.1V125.1z M73.6,135.6l-8.6,5l-8.6-5v-10l8.6-5l8.6,5V135.6z"/>
	<path class="st2" d="M118.6,44.1L65.3,13.3c-0.1-0.1-0.3-0.1-0.5,0L11.5,44.1c-0.1,0.1-0.2,0.2-0.2,0.4v61.6c0,0.2,0.1,0.3,0.2,0.4
		l43,24.8l0-2.1L13,105.3v-60l52-30l52,30v60v0l-41.4,23.9l0,2.1l43-24.8c0.1-0.1,0.2-0.2,0.2-0.4V44.6
		C118.8,44.4,118.7,44.2,118.6,44.1z"/>
</g>
</svg>
