<?xml version="1.0" encoding="utf-8"?>
<!-- Generator: Adobe Illustrator 27.5.0, SVG Export Plug-In . SVG Version: 6.00 Build 0)  -->
<svg version="1.1" id="Calque_1" xmlns="http://www.w3.org/2000/svg" xmlns:xlink="http://www.w3.org/1999/xlink" x="0px" y="0px"
	 viewBox="0 0 130 150" style="enable-background:new 0 0 130 150;" xml:space="preserve">
<style type="text/css">
	.st0{fill:#FF0000;}
	.st1{fill:none;}
</style>
<g>
	<g>
		<g>
			<path class="st0" d="M65,149.3c-0.2,0-0.4-0.1-0.5-0.1L1,112.5c-0.3-0.2-0.5-0.5-0.5-0.9V38.3c0-0.3,0.2-0.7,0.5-0.9L64.5,0.8
				c0.1-0.1,0.3-0.1,0.5-0.1c0.2,0,0.4,0,0.5,0.1l63.7,36.8v0.1c0.2,0.2,0.2,0.4,0.2,0.7v73.3c0,0.3-0.2,0.7-0.5,0.9l-63.5,36.7
				C65.4,149.3,65.2,149.3,65,149.3z M65,146.1l61.5-35.5v-71L65,4L3.5,39.5v71.1L65,146.1z"/>
		</g>
		<g>
			<path class="st0" d="M65,1.2c0.1,0,0.2,0,0.2,0.1l63.5,36.7v0c0.1,0.1,0.2,0.2,0.2,0.4v73.3c0,0.2-0.1,0.3-0.2,0.4l-63.5,36.7
				c-0.1,0-0.2,0.1-0.2,0.1c-0.1,0-0.2,0-0.2-0.1L1.3,112.1C1.1,112,1,111.8,1,111.7V38.3c0-0.2,0.1-0.3,0.2-0.4L64.8,1.2
				C64.8,1.2,64.9,1.2,65,1.2 M65,146.7l62-35.8V39.2L65,3.4L3,39.2v71.6L65,146.7 M65,0.2c-0.3,0-0.5,0.1-0.8,0.2L0.8,37
				C0.3,37.3,0,37.8,0,38.3v73.3c0,0.5,0.3,1,0.7,1.3l63.5,36.7l0,0l0,0c0.2,0.1,0.5,0.2,0.7,0.2c0.3,0,0.5-0.1,0.8-0.2l63.5-36.6
				c0.5-0.3,0.8-0.8,0.8-1.3V38.3c0-0.3-0.1-0.6-0.2-0.8v-0.2l-0.5-0.3L65.8,0.4C65.5,0.2,65.3,0.2,65,0.2L65,0.2z M4,39.8L65,4.5
				l61,35.2v70.5l-61,35.2L4,110.2V39.8L4,39.8z"/>
		</g>
	</g>
	<g>
		<polygon class="st1" points="56.4,125.7 56.4,135.6 65,140.6 73.6,135.6 73.6,125.7 65,120.7 		"/>
	</g>
	<g>
		<path class="st0" d="M75.6,125.1c0-0.3-0.2-0.6-0.5-0.8l-9.7-5.6c-0.3-0.2-0.6-0.2-0.9,0l-9.7,5.6c-0.3,0.2-0.5,0.5-0.5,0.8v4.2
			l0,2.1v4.9c0,0.3,0.2,0.6,0.5,0.8l9.7,5.6c0.1,0.1,0.3,0.1,0.5,0.1c0.2,0,0.3,0,0.5-0.1l9.7-5.6c0.3-0.2,0.5-0.5,0.5-0.8v-4.9
			l0-2.1V125.1z M73.6,135.6l-8.6,5l-8.6-5v-10l8.6-5l8.6,5V135.6z"/>
	</g>
	<g>
		<path class="st0" d="M118.6,44.1L65.3,13.3c-0.1-0.1-0.3-0.1-0.5,0L11.5,44.1c-0.1,0.1-0.2,0.2-0.2,0.4v61.6
			c0,0.2,0.1,0.3,0.2,0.4l43,24.8l0-2.1L13,105.3v-60l52-30l52,30v60v0l-41.4,23.9l0,2.1l43-24.8c0.1-0.1,0.2-0.2,0.2-0.4V44.6
			C118.8,44.4,118.7,44.2,118.6,44.1z"/>
		<path class="st0" d="M74.6,133.1l0-4.4l41.4-23.9V45.9L65,16.4L14,45.9v58.9l41.4,23.9l0,4.4L11,107.4c-0.5-0.3-0.7-0.8-0.7-1.3
			V44.6c0-0.5,0.3-1,0.7-1.3l53.3-30.8c0.4-0.3,1-0.3,1.5,0l53.3,30.8c0.5,0.3,0.7,0.8,0.7,1.3v61.6c0,0.5-0.3,1-0.7,1.3L74.6,133.1
			z M64.8,14.2C64.8,14.2,64.8,14.2,64.8,14.2L64.8,14.2z M65.3,14.2L65.3,14.2C65.3,14.2,65.3,14.2,65.3,14.2z"/>
	</g>
	<g>
		<g>
			<path class="st0" d="M69.6,131.7c-0.4,0.4-0.8,0.8-1.1,1.2c0.2-0.7,0.3-1.5,0.2-2.3c-0.1-0.8-0.4-1.4-0.9-2.1c0,0,0,0.1,0,0.1
				c0.1,0.4,0.1,0.9,0.1,1.3c-0.1,0.7-0.4,1.3-1,1.7c-0.5,0.3-0.8,0.8-1.1,1.3c-0.2,0.4-0.3,0.8-0.4,1.3c-0.1-0.2-0.2-0.4-0.3-0.5
				c-0.1-0.1-0.1-0.1-0.2-0.1c0.1,0.2,0.1,0.5,0,0.9c0,0.1-0.1,0.2-0.1,0.3c-0.2-0.5-0.3-1.1-0.4-1.6c-0.1-0.6-0.1-1.3,0-1.9
				c0.1-0.8,0.4-1.6,0.7-2.3c0.4-0.7,0.6-1.5,0.5-2.3c-0.1-1-0.6-1.8-1.4-2.3c0,0-0.1,0-0.1-0.1c0,0.1,0.1,0.2,0.1,0.3
				s0.1,0.2,0.1,0.3c0.2,0.9,0.1,1.6-0.7,2.2c-0.2,0.1-0.3,0.3-0.5,0.5c-0.6,0.7-1,1.6-1.2,2.5c-0.1,0.2-0.1,0.4-0.2,0.7
				c-0.2-0.5-0.4-0.9-0.7-1.4c0,0.1,0,0.1,0,0.1c-0.1,0.3-0.2,0.7-0.3,1c-0.2,0.6-0.3,1.2-0.3,1.8l0,0c0.3-0.2,0.7-0.3,1.2,0
				c0.2,0.1,0.4,0.4,0.6,0.7c0.1,0.2,0.1,0.3,0.2,0.5c0,0.1,0.1,0.3,0.1,0.4c0,0.3,0.1,0.6,0.2,1c0,0.2,0.1,0.4,0.3,0.5
				c0,0,0,0.1,0.1,0.1c0,0.1,0,0.1-0.1,0.1c-0.2,0-0.3-0.1-0.4-0.2c0,0,0,0,0-0.1c0,0,0,0-0.1-0.1l0,0c-0.1-0.1-0.2-0.3-0.2-0.5
				c-0.1,0.6,0.4,1.5,0.8,1.8l0,0c0,0,0,0,0.1,0.1c0.3,0.2,0.7,0.4,1.1,0.4c0.3,0,0.7-0.2,0.9-0.5c0.1-0.1,0.1-0.1,0.2-0.1
				c0.1,0,0.1,0.2,0.1,0.2c0,0.2-0.1,0.3-0.2,0.4l0,0c0.2,0,0.4,0,0.6,0c-0.1,0-0.2,0.1-0.2,0.1c1.6,0.3,2.1-0.3,2.4-0.7
				c0.1-0.1,0.1-0.2,0.2-0.3s0.1-0.1,0.2-0.2c0.3-0.3,0.6-0.7,0.9-1.2c0.3-0.7,0.5-1.4,0.6-2.1C69.6,132.2,69.6,132,69.6,131.7
				C69.6,131.7,69.6,131.7,69.6,131.7L69.6,131.7L69.6,131.7z"/>
		</g>
		<g>
			<path class="st0" d="M65.9,129c-0.5,0.9-0.7,1.8-0.7,2.8c0,0.2,0.1,0.4,0.1,0.6c0.5-0.9,1-1.7,1.6-2.6c0.1-0.2,0.2-0.4,0.2-0.6
				c0.3-1.2-0.1-2.1-0.8-3c0.1,0.4,0.2,0.8,0.1,1.2C66.5,128,66.2,128.5,65.9,129L65.9,129z"/>
		</g>
		<g>
			<path class="st0" d="M61.2,135c-0.1-0.2-0.2-0.5-0.2-0.8c0-0.5-0.1-0.9-0.4-1.2c0,0-0.1-0.1-0.1-0.1s-0.1-0.1-0.1-0.1
				c0,0.5,0,1,0,1.5c0,0.1,0,0.2,0,0.3c0.2,0.4,0.5,0.6,1,0.6c0.1,0,0.1,0,0.2,0C61.4,135.3,61.3,135.2,61.2,135L61.2,135L61.2,135z
				"/>
		</g>
		<g>
			<path class="st0" d="M62.3,127.2c0.1-0.2,0.3-0.4,0.5-0.6c0.4-0.3,0.6-0.6,0.7-1.1c0-0.1,0-0.2,0-0.2c-0.1,0.2-0.3,0.4-0.6,0.6
				c-0.1,0.1-0.3,0.1-0.5,0.2c-0.1,0.1-0.2,0.2-0.3,0.3c-0.3,0.4-0.1,0.9,0.3,1.3C62.2,127.5,62.2,127.4,62.3,127.2L62.3,127.2z"/>
		</g>
		<g>
			<path class="st0" d="M68.6,128.6c0.2,0.3,0.4,0.6,0.5,1c0.1,0.2,0.1,0.5,0,0.8c0.3-0.6,0.5-1.3,0.2-2c-0.1-0.1-0.2-0.4-0.3-0.5
				c-0.2-0.2-0.4-0.2-0.5-0.4c-0.3-0.3-0.5-0.6-0.7-1c0,0.1,0,0.2,0,0.4C67.9,127.5,68.2,128.1,68.6,128.6L68.6,128.6L68.6,128.6z"
				/>
		</g>
	</g>
</g>
</svg>
