<?xml version="1.0" encoding="utf-8"?>
<!-- Generator: Adobe Illustrator 27.5.0, SVG Export Plug-In . SVG Version: 6.00 Build 0)  -->
<svg version="1.1" id="Calque_1" xmlns="http://www.w3.org/2000/svg" xmlns:xlink="http://www.w3.org/1999/xlink" x="0px" y="0px"
	 viewBox="0 0 50.9 50.9" style="enable-background:new 0 0 50.9 50.9;" xml:space="preserve">
<style type="text/css">
	.st0{fill:#F2F2F2;stroke:#F2F2F2;stroke-width:0.5;stroke-miterlimit:10;}
</style>
<path class="st0" d="M47,13L25.5,0.6c-0.1,0-0.1,0-0.2,0L4,13c0,0-0.1,0.1-0.1,0.2v24.7c0,0.1,0,0.1,0.1,0.1l21.4,12.3
	c0,0,0.1,0,0.1,0s0.1,0,0.1,0L46.9,38c0,0,0.1-0.1,0.1-0.1V13.1C47.1,13.1,47,13,47,13z M46.4,37.5L25.5,49.6L4.6,37.5V13.4
	L25.5,1.3l20.9,12.1V37.5z"/>
</svg>
