<?xml version="1.0" encoding="utf-8"?>
<!-- Generator: Adobe Illustrator 27.5.0, SVG Export Plug-In . SVG Version: 6.00 Build 0)  -->
<svg version="1.1" id="Calque_1" xmlns="http://www.w3.org/2000/svg" xmlns:xlink="http://www.w3.org/1999/xlink" x="0px" y="0px"
	 viewBox="0 0 50.9 50.9" style="enable-background:new 0 0 50.9 50.9;" xml:space="preserve">
<style type="text/css">
	.st0{fill:none;}
	.st1{fill:#0005FF;stroke:#0005FF;stroke-width:0.5;stroke-miterlimit:10;}
	.st2{fill:#0005FF;}
</style>
<path class="st0" d="M22.6,42.6c0,0,0,3.4,0,3.4l2.9,1.7l2.9-1.7v-3.4l-2.9-1.7L22.6,42.6z"/>
<path class="st1" d="M47,13L25.5,0.6c-0.1,0-0.1,0-0.2,0L4,13c0,0-0.1,0.1-0.1,0.2v24.7c0,0.1,0,0.1,0.1,0.1l21.4,12.3
	c0,0,0.1,0,0.1,0s0.1,0,0.1,0L46.9,38c0,0,0.1-0.1,0.1-0.1V13.1C47.1,13.1,47,13,47,13z M46.4,37.5L25.5,49.6L4.6,37.5V13.4
	L25.5,1.3l20.9,12.1V37.5z"/>
<path class="st2" d="M29,42.2c0-0.1-0.1-0.2-0.2-0.3L25.6,40c-0.1-0.1-0.2-0.1-0.3,0l-3.3,1.9c-0.1,0.1-0.2,0.2-0.2,0.3v1.4l0,0.7
	v1.7c0,0.1,0.1,0.2,0.2,0.3l3.3,1.9c0,0,0.1,0,0.2,0c0.1,0,0.1,0,0.2,0l3.3-1.9c0.1-0.1,0.2-0.2,0.2-0.3v-1.7L29,43.6V42.2z
	 M28.4,45.7l-2.9,1.7l-2.9-1.7c0,0,0-3.4,0-3.4l2.9-1.7l2.9,1.7V45.7z"/>
<path class="st1" d="M43.6,15.1l-18-10.4c-0.1,0-0.1,0-0.2,0L7.4,15c0,0-0.1,0.1-0.1,0.1v20.7c0,0.1,0,0.1,0.1,0.2l13,7.5l1.5,0.9
	l0-0.7l-1.6-0.9L7.9,35.7V15.5L25.5,5.3L43,15.4v20.2l-12.5,7.2L29,43.7l0.1,0.7l1.3-0.8l13.2-7.6c0.1,0,0.1-0.1,0.1-0.1V15.2
	C43.7,15.1,43.6,15.1,43.6,15.1z"/>
<path class="st2" d="M26.4,44.5c-0.1-0.1-0.1-0.3-0.1-0.4l0,0c-0.1-0.2-0.2-0.4-0.2-0.7c0-0.1,0-0.3,0.1-0.4c0,0,0,0,0,0
	c-0.1,0-0.2,0-0.3,0c-0.1,0-0.2,0-0.4-0.1c-0.1,0-0.2,0.1-0.4,0.1c-0.1,0-0.2,0-0.3,0c0,0,0,0,0,0c0,0.1,0.1,0.3,0.1,0.4
	c0,0.3-0.1,0.5-0.2,0.7c0,0.1-0.1,0.3-0.1,0.4c0,0.1,0,0.1,0.1,0.2c0.1,0.1,0.2,0.2,0.3,0.2l0,0c0.2,0.1,0.4,0.2,0.5,0.4
	c0.1-0.1,0.3-0.2,0.5-0.3c0.1-0.1,0.2-0.2,0.3-0.2C26.5,44.6,26.5,44.6,26.4,44.5L26.4,44.5z"/>
<path class="st2" d="M26.8,45.3c0.6-0.4,0.4-1,0.3-1.1l0,0C27,43.9,27,43.7,27,43.7s-0.2-0.1-0.2-0.4c0-0.3,0.2-0.3,0.3-0.3
	c0,0,0,0,0,0c0.1-0.5-0.2-0.9-0.2-0.9c0,0.2-0.1,0.3-0.2,0.3c-0.1,0-0.2-0.2-0.2-0.3c-0.1-0.2-0.3-0.3-0.5-0.4c0,0,0.1,0.2,0.1,0.3
	c0,0.2-0.1,0.2-0.2,0.2c-0.2,0-0.4-0.2-0.4-0.2s-0.2,0.2-0.4,0.2c-0.1,0-0.2-0.1-0.2-0.2c0-0.1,0.1-0.3,0.1-0.3
	c-0.2,0.1-0.4,0.2-0.5,0.4c-0.1,0.1-0.1,0.3-0.2,0.3c-0.1,0-0.2-0.1-0.2-0.3c0,0-0.3,0.4-0.2,0.9c0,0,0,0,0,0c0.1,0,0.2,0,0.3,0.3
	c0,0.3-0.2,0.4-0.2,0.4s0.1,0.2-0.1,0.4c-0.1,0.2-0.3,0.7,0.3,1.1c0.6,0.4,1.2,0.8,1.3,1.1C25.5,46,26.1,45.7,26.8,45.3L26.8,45.3z
	 M24.8,45.2c-0.1-0.1-0.2-0.2-0.3-0.2c-0.3-0.2-0.3-0.5-0.2-0.7c0.1-0.1,0.1-0.3,0.1-0.4l0,0c0.1-0.1,0.2-0.3,0.2-0.5
	c0-0.3-0.1-0.4-0.3-0.6c0,0,0,0,0,0c0,0,0,0,0,0c0.3,0,0.4-0.3,0.5-0.4c0,0,0,0,0,0c0.1,0.2,0.3,0.2,0.4,0.2c0.1,0,0.3,0,0.4-0.1
	c0.1,0.1,0.2,0.1,0.4,0.1c0.1,0,0.3,0,0.4-0.2c0,0,0,0,0,0c0.1,0.1,0.2,0.4,0.5,0.4c0,0,0,0,0,0c0,0,0,0,0,0
	c-0.2,0.1-0.3,0.3-0.3,0.6c0,0.2,0.1,0.4,0.2,0.5c0,0.1,0,0.3,0.1,0.4l0,0c0.1,0.2,0.1,0.5-0.2,0.7c-0.1,0.1-0.2,0.2-0.4,0.2
	c-0.3,0.2-0.5,0.4-0.7,0.5C25.3,45.6,25.1,45.4,24.8,45.2L24.8,45.2z"/>
<path class="st2" d="M27.2,38.1"/>
</svg>
