<?xml version="1.0" encoding="utf-8"?>
<!-- Generator: Adobe Illustrator 27.5.0, SVG Export Plug-In . SVG Version: 6.00 Build 0)  -->
<svg version="1.1" id="Calque_1" xmlns="http://www.w3.org/2000/svg" xmlns:xlink="http://www.w3.org/1999/xlink" x="0px" y="0px"
	 viewBox="0 0 130 150" style="enable-background:new 0 0 130 150;" xml:space="preserve">
<style type="text/css">
	.st0{fill:#FFFFFF;}
</style>
<g>
	<g>
		<path class="st0" d="M65,149.3c-0.2,0-0.4-0.1-0.5-0.1L1,112.5c-0.3-0.2-0.5-0.5-0.5-0.9V38.3c0-0.3,0.2-0.7,0.5-0.9L64.5,0.8
			c0.1-0.1,0.3-0.1,0.5-0.1c0.2,0,0.4,0,0.5,0.1l63.7,36.8v0.1c0.2,0.2,0.2,0.4,0.2,0.7v73.3c0,0.3-0.2,0.7-0.5,0.9l-63.5,36.7
			C65.4,149.3,65.2,149.3,65,149.3z M65,146.1l61.5-35.5v-71L65,4L3.5,39.5v71.1L65,146.1z"/>
	</g>
	<g>
		<path class="st0" d="M65,1.2c0.1,0,0.2,0,0.2,0.1l63.5,36.7v0c0.1,0.1,0.2,0.2,0.2,0.4v73.3c0,0.2-0.1,0.3-0.2,0.4l-63.5,36.7
			c-0.1,0-0.2,0.1-0.2,0.1c-0.1,0-0.2,0-0.2-0.1L1.3,112.1C1.1,112,1,111.8,1,111.7V38.3c0-0.2,0.1-0.3,0.2-0.4L64.8,1.2
			C64.8,1.2,64.9,1.2,65,1.2 M65,146.7l62-35.8V39.2L65,3.4L3,39.2v71.6L65,146.7 M65,0.2c-0.3,0-0.5,0.1-0.8,0.2L0.8,37
			C0.3,37.3,0,37.8,0,38.3v73.3c0,0.5,0.3,1,0.7,1.3l63.5,36.7l0,0l0,0c0.2,0.1,0.5,0.2,0.7,0.2c0.3,0,0.5-0.1,0.8-0.2l63.5-36.6
			c0.5-0.3,0.8-0.8,0.8-1.3V38.3c0-0.3-0.1-0.6-0.2-0.8v-0.2l-0.5-0.3L65.8,0.4C65.5,0.2,65.3,0.2,65,0.2L65,0.2z M4,39.8L65,4.5
			l61,35.2v70.5l-61,35.2L4,110.2V39.8L4,39.8z"/>
	</g>
</g>
</svg>
