<?xml version="1.0" encoding="UTF-8"?>
<svg id="Calque_1" data-name="Calque 1" xmlns="http://www.w3.org/2000/svg" viewBox="0 0 50.9 50.9">
  <defs>
    <style>
      .cls-1 {
        fill: #0005ff;
      }
    </style>
  </defs>
  <g>
    <path class="cls-1" d="m47.15,12.82L25.54.35h-.33L3.85,12.78l-.05.04s-.17.19-.17.38v24.7c0,.21.09.32.28.35l21.35,12.27.06.03h.33l21.36-12.33.22-.21V13.24l.02-.06c.05-.12.01-.25-.1-.36Zm-1.03.72v23.81l-20.65,11.96-20.65-11.96V13.54L25.48,1.59l20.65,11.96Z"/>
    <path class="cls-1" d="m7.09,14.66l-.05.04s-.16.17-.16.35v20.97c0,.2.09.31.26.33l18.12,10.42.06.03h.3l18.14-10.48.21-.2V15.09l.02-.04c.05-.11.01-.24-.09-.34L25.54,4.1h-.3L7.09,14.66Zm.89,20.87V15.36L25.47,5.23l17.5,10.13v20.17l-17.5,10.13-17.5-10.13Z"/>
  </g>
  <g>
    <path class="cls-1" d="m29.99,27.8c-.31-.63-.63-1.25-.63-2.03h0c-.78-.94-1.1-2.19-1.1-3.44,0-.78.16-1.41.31-2.03l-.16-.16c-.47.16-.94.16-1.25.16-.63,0-1.25-.16-1.72-.31-.63.16-1.25.31-1.72.31-.31,0-.78,0-1.25-.16,0,0,0,.16-.16.16.31.63.31,1.25.31,2.03,0,1.25-.31,2.5-1.1,3.44-.16.78-.31,1.41-.63,2.03q-.16.63.31,1.1c.63.31,1.1.78,1.72,1.1h0c.94.63,1.72,1.25,2.5,1.72.78-.63,1.56-1.1,2.5-1.72.63-.31,1.1-.78,1.72-1.1.47-.47.47-.63.31-1.1h0Z"/>
    <path class="cls-1" d="m31.55,31.71c3.13-2.19,1.88-4.85,1.56-5.63h0c-.63-1.1-.31-2.19-.31-2.19,0,0-1.1-.31-1.1-1.72s.94-1.56,1.25-1.56h.16c.47-2.66-.94-4.54-.94-4.54.16.94-.47,1.41-.78,1.41-.47,0-.78-1.1-1.1-1.56-.78-1.1-1.25-1.56-2.5-2.19,0,0,.47.94.31,1.41-.16.78-.63,1.1-.94,1.1-.78,0-1.72-.94-1.72-.94,0,0-.94.94-1.72.94-.47,0-.78-.31-.94-1.1-.16-.63.31-1.41.31-1.41-1.25.63-1.88.94-2.5,2.19-.31.47-.63,1.56-1.1,1.56-.31,0-1.1-.47-.78-1.41,0,0-1.25,1.72-.94,4.54h.16c.31,0,1.25.16,1.25,1.56s-1.1,1.72-1.1,1.72c0,0,.31,1.1-.31,2.19-.31.78-1.56,3.44,1.56,5.63,3.13,2.19,6.1,3.76,6.26,5.48,0-1.56,2.82-3.29,5.95-5.48h0Zm-9.86-.16c-.63-.31-1.1-.78-1.72-1.25-1.72-1.25-1.41-2.35-1.1-3.6.47-.78.47-1.41.47-2.03h0c.63-.63,1.1-1.56,1.1-2.66,0-1.25-.63-2.19-1.41-2.82h.16c1.41,0,2.03-1.41,2.35-2.03v-.16c.63.94,1.56.94,2.03.94.63,0,1.25-.31,1.72-.63.47.31,1.1.63,1.72.63.31,0,1.25-.16,2.03-.94v.16c.31.63.94,2.03,2.35,2.03h.16c-.94.47-1.41,1.56-1.41,2.82,0,.94.31,1.88,1.1,2.66,0,.63.16,1.25.47,2.03h0c.47,1.1.63,2.35-1.1,3.6-.63.47-1.25.78-1.72,1.25-1.41.94-2.66,1.72-3.6,2.66-.94-.78-2.19-1.72-3.6-2.66h0Z"/>
  </g>
</svg>