<?xml version="1.0" encoding="UTF-8"?>
<svg id="Calque_1" data-name="Calque 1" xmlns="http://www.w3.org/2000/svg" viewBox="0 0 50.9 50.9">
  <defs>
    <style>
      .cls-1 {
        fill: red;
      }
    </style>
  </defs>
  <g>
    <path class="cls-1" d="m47.15,12.82L25.6.38l-.06-.03h-.33L3.85,12.78l-.05.04s-.17.19-.17.38v24.7c0,.21.09.32.28.35l21.41,12.3h.33l21.36-12.33.22-.21V13.24l.02-.06c.05-.12.01-.25-.1-.36Zm-1.03.72v23.81l-20.65,11.96-20.65-11.96V13.54L25.48,1.59l20.65,11.96Z"/>
    <path class="cls-1" d="m7.09,14.66l-.05.04s-.16.17-.16.35v20.97c0,.2.09.31.26.33l18.18,10.45h.3l18.14-10.48.21-.2V15.09l.02-.04c.05-.11.01-.24-.09-.34L25.6,4.13l-.06-.03h-.3L7.09,14.66Zm35.88.7v20.17l-17.5,10.13-17.5-10.13V15.36L25.47,5.23l17.5,10.13Z"/>
  </g>
  <g>
    <path class="cls-1" d="m30.37,19.03c-.02-.22-.02-.34-.02-.34-.02.11,0,.22.02.34Z"/>
    <path class="cls-1" d="m25.33,30.63l.02.04-.02-.04Z"/>
    <g>
      <path class="cls-1" d="m22.88,16.69c-.67,1.25-2.22,1.16-2.52,2.13-.3.97.54,1.92.54,1.92,0,0-.3-1.33.9-1.83,1.21-.49,1.08-2.22,1.08-2.22Z"/>
      <path class="cls-1" d="m19.22,33.11c-.19-.24-.37-.67-.34-1.44,0-1.85-1.08-2.22-1.08-2.22.13.75-.11.6-.04,2.39.06,1.81,2.07,1.59,2.07,1.59,0,0-.32.02-.6-.32Z"/>
      <path class="cls-1" d="m27.1,22.86s-.04.09-.06.13c-1.57,2.6-.9,5.53-.9,5.53,1.23-2.67,1.87-2.35,2.95-5.14,1.08-2.8-1.23-5.36-1.23-5.36,0,0,.9,2.22-.75,4.84Z"/>
      <path class="cls-1" d="m31.49,22.07s.04.04.09.06c1.01.95.86,2.97.86,2.97.49-.49,1.21-3.44-.28-4.37-1.51-.93-1.81-2.04-1.81-2.04,0,0,0,.13.02.34.06.69.28,2.32,1.12,3.03Z"/>
      <path class="cls-1" d="m33.23,27.4c-.28.47-1.87,2.02-1.87,2.02.32-.77.47-1.55.49-2.26.02-.71-.06-1.38-.22-2-.45-1.81-1.44-3.06-1.44-3.06,0,0,.02.15.04.41.11,1.05.22,3.92-1.46,4.8-2.07,1.1-2.63,4.41-2.63,4.41-.02-.24-.11-.43-.24-.58-.22-.3-.52-.45-.52-.45l-.06-.06s0,.02.02.04c.06.15.26.84-.19,1.94,0,0-.17-.32-.34-.93-.47-1.55-1.08-4.93.9-8.84.28-.56.47-1.08.62-1.57,1.27-4.35-2.24-6.5-2.24-6.5,0,0,1.21,2.78-1.23,4.97-.47.43-.88.93-1.23,1.44-.04.09-.11.17-.15.24-.56.9-.9,1.85-1.14,2.63-.28.95-.34,1.61-.34,1.61-.93-.43-1.1-2.35-1.1-2.35-1.79,1.83-1.16,4.95-1.16,4.95,1.46-1.25,3.59.52,3.36,2.43-.04.41-.04.75.02,1.08.04.19.09.37.13.54.3.88.86,1.36.86,1.36-.73.11-1.12-.43-1.31-.84h0l-.17-.45c-.09.24-.8,2.19,1.33,3.29,1.64.84,2.97.11,3.57-.37.24-.19.37-.34.37-.34.24.56-.3,1.16-.3,1.16,8.35.37,7.62-8.71,7.62-8.71Z"/>
    </g>
  </g>
</svg>