<?xml version="1.0" encoding="UTF-8"?>
<svg id="Calque_1" data-name="Calque 1" xmlns="http://www.w3.org/2000/svg" viewBox="0 0 50.9 50.9">
  <defs>
    <style>
      .cls-1 {
        fill: #fff;
      }
    </style>
  </defs>
  <path class="cls-1" d="m47.15,12.82L25.54.35h-.33L3.85,12.78l-.05.04s-.17.19-.17.38v24.7c0,.21.09.32.28.35l21.35,12.27.06.03h.33l21.36-12.33.22-.21V13.24l.02-.06c.05-.12.01-.25-.1-.36Zm-1.03.72v23.81l-20.65,11.96-20.65-11.96V13.54L25.48,1.59l20.65,11.96Z"/>
  <path class="cls-1" d="m7.09,14.66l-.05.04s-.16.17-.16.35v20.97c0,.2.09.31.26.33l18.12,10.42.06.03h.3l18.14-10.48.21-.2V15.09l.02-.04c.05-.11.01-.24-.09-.34L25.54,4.1h-.3L7.09,14.66Zm35.88.7v20.17l-17.5,10.13-17.5-10.13V15.36L25.47,5.23l17.5,10.13Z"/>
</svg>