<?xml version="1.0" encoding="UTF-8"?>
<svg id="Calque_1" data-name="Calque 1" xmlns="http://www.w3.org/2000/svg" viewBox="0 0 50.9 50.9">
  <defs>
    <style>
      .cls-1 {
        fill: #219600;
      }

      .cls-2 {
        fill: #26ad00;
      }
    </style>
  </defs>
  <g>
    <path class="cls-2" d="m47.16,12.82L25.6.38l-.06-.03h-.33L3.85,12.78l-.05.04s-.17.19-.17.38v24.7c0,.21.09.32.28.35l21.41,12.3h.33l21.36-12.33.23-.21V13.24l.02-.06c.05-.12.01-.25-.1-.36Zm-1.03.72v23.81l-20.65,11.96-20.65-11.96V13.54L25.48,1.59l20.65,11.96Z"/>
    <path class="cls-2" d="m7.14,36.35l18.18,10.45h.3l18.14-10.48.21-.2V15.09l.02-.04c.05-.11.01-.24-.09-.34L25.6,4.13l-.06-.03h-.3L7.09,14.66l-.05.04s-.16.17-.16.35v20.97c0,.2.09.31.26.33Zm35.83-.81l-17.5,10.13-17.5-10.13V15.36L25.47,5.23l17.5,10.13v20.17Z"/>
  </g>
  <g>
    <path class="cls-1" d="m32.45,21.72c-.24-1.07-.62-2.05-1.31-2.91-.98-1.22-2.29-1.84-3.79-2.12-.07,0-.14.02-.19.05-.24.19-.45.41-.67.6,0,0,0-.02.02-.02.19-.21.38-.43.57-.64.05-.07.48-1.26,1.26-1.64-.95-.43-1.91-.86-2.86-1.29-.07-.02-.14-.02-.21,0-.5.21-.98.43-1.48.67-.48.21-.95.43-1.43.64-.07.02.95.31,1.17,1.55.02.07-.02.1-.1.12-.48.14-.95.26-1.41.43-1,.41-1.81,1.05-2.46,1.95-.69.98-1.05,2.1-1.19,3.27-.1.67-.12,1.33-.17,2,0,.07.05.19.12.24.64.6,2,1.55,2.62,2.15.07.07.14.14.21.19l.02-.02c-.12-.62-.95-1.62-1.05-2.26.07.02.12.05.14.07.24.12.48.24.72.38.02.02.07.02.1.05.21-1.05.57-2.17,1.19-3.15l-.26.17s1.55-2.36,1.76-2.55c0,0-1.91,4.05-2.38,5.7.67.36,1.31.72,1.93,1.14.86.62,1.31,1.45,1.24,2.53-.02.45-.07.88-.14,1.33-.02.24.02.43.21.57.52.36,1.02.36,1.55-.02.17-.12.24-.31.19-.52-.1-.55-.17-1.12-.12-1.67.02-.62.21-1.22.67-1.67.29-.29.62-.52.93-.76.21-.17.45-.29.72-.45-.36-.12-.69-.24-1.02-.36.14-.33.26-.62.41-.93.05-.1.02-.17-.07-.21-.31-.21-.6-.41-.91-.62-.05-.02-.07-.07-.12-.1.19.05.33.12.5.19.29.12.6.24.88.38.07.02.14.07.1.19-.07.19-.14.38-.21.57-.02.1-.02.14.07.17.29.12.55.24.83.38.1.05.17.05.26,0,.43-.24.88-.45,1.31-.69.02-.02.05-.02.12-.05-.12.64-.88,1.33-.98,1.98.05-.02.07-.02.07-.05.72-.67,2.07-1.38,2.76-2.03.05-.05.07-.14.07-.19.02-.95-.02-1.84-.21-2.72Z"/>
    <path class="cls-1" d="m24.14,37.09c-.36-1.53-.5-3.1-.64-4.67-.05-.67-.12-1.36-.24-2.03-.21-1.31-.91-2.31-2-3.03-.07-.05-.14-.1-.21-.12-.1.64-.21,1.53-.21,1.84,0,0-.07-.79.02-1.93.17.1-.31-.26-1.64-.79-.05-.02-.12-.05-.19-.07.07.14.12.26.17.36.05.12.07.24.1.38.19.91.26,1.84.33,2.74-.21,1.05-.6,1.38-.6,1.38l.81,1.1c1.26,1.45,2.53,2.93,3.79,4.39.14.19.31.36.48.52l.02-.02s.02-.02.02-.05Z"/>
    <path class="cls-1" d="m31.19,30.23c.05-.76.12-1.53.21-2.29.07-.55.12-1.12.38-1.62,0,0,0-.02-.02-.05-.45.21-.91.41-1.33.62q-.29.14-.21.43c.17.72.24,1.45.31,2.17v.55c-.19-.95-.43-1.88-.76-2.76h-.05s-.02,0-.05.02c-1.14.72-1.88,1.72-2.1,3.05-.14.88-.21,1.79-.29,2.69-.1,1.24-.26,2.48-.5,3.72-.02.14-.05.26-.1.43.02-.02.05-.02.05-.05.67-.79,1.36-1.55,2.03-2.34.05-.05.07-.14.07-.21,0-.91-.12-1.79-.36-2.65-.07-.24-.14-.48-.21-.72.5.93.81,1.95.95,3.03.02-.02.05-.05.07-.05.57-.67,1.17-1.33,1.74-2t.02-.05l.6-.69s-.29-.33-.45-1.24Z"/>
  </g>
</svg>