<?xml version="1.0" encoding="UTF-8"?>
<svg id="Calque_1" data-name="Calque 1" xmlns="http://www.w3.org/2000/svg" viewBox="0 0 137 158.08">
  <defs>
    <style>
      .cls-1 {
        fill: #fff;
      }
    </style>
  </defs>
  <path class="cls-1" d="m119.18,75.41c-5.06-6.24-10.9-11.64-17.6-16.08-5.7-3.78-11.81-6.69-18.41-8.53-4.82-1.34-9.73-2.01-14.2-1.94-4.26-.04-7.95.33-11.59,1.08-3.04.63-6,1.53-8.91,2.64-4.73,1.81-9.17,4.16-13.37,6.96-3.86,2.58-7.42,5.52-10.75,8.76-3.31,3.21-6.31,6.68-9.06,10.37-.18.24-.21.42-.01.69,5.99,8.11,13.14,15,21.71,20.36,7.14,4.47,14.8,7.6,23.17,8.88,5.28.8,10.57.81,15.85.13,4.56-.58,8.97-1.81,13.23-3.51,7.78-3.1,14.72-7.57,20.96-13.13,4.3-3.84,8.14-8.1,11.53-12.77.18-.25.16-.43-.02-.65-.85-1.09-1.67-2.19-2.54-3.27Zm-66.26,24.41c-2.4-.99-4.85-1.89-7.2-3-6.75-3.18-12.69-7.52-17.95-12.79-1.48-1.49-2.84-3.09-4.27-4.64-.23-.25-.23-.44,0-.71,5.47-6.47,11.83-11.87,19.28-15.94,3.01-1.65,6.15-3.02,9.41-4.1.26-.09.51-.19.81-.25-6.47,5.4-10.15,12.14-10.12,20.68.02,8.51,3.62,15.28,10.17,20.59-.04.06-.08.12-.12.17Zm15.3-1.27c-10.49-.08-19.33-8.75-19.2-19.76.13-10.87,9.16-19.62,20.14-19.27,10.33.33,18.84,8.82,18.86,19.51-.06,10.97-8.79,19.6-19.8,19.51Zm45.32-19.17c-3.04,3.59-6.36,6.9-10.06,9.82-4.69,3.7-9.75,6.77-15.29,9.02-1.3.53-2.64.98-3.97,1.46-.07.03-.15.02-.34.05,6.7-5.36,10.3-12.18,10.3-20.69,0-8.5-3.62-15.32-10.17-20.7,1.15.41,2.31.8,3.45,1.24,5.67,2.2,10.86,5.25,15.65,8.99,3.85,3.01,7.33,6.42,10.47,10.18.2.24.16.42-.03.64Z"/>
  <path class="cls-1" d="m67.05,68.54c1.26,3.19.89,5.4-1.22,7.09-.88.71-1.9,1.1-3.03,1.15-1.63.08-3.02-.48-4.17-1.64-1.38,2.86-1.33,8.31,2.78,11.94,4.1,3.62,10.26,3.58,14.28-.09,4.09-3.74,4.64-9.88,1.35-14.37-2.78-3.79-7.7-4.76-9.99-4.07Z"/>
  <path class="cls-1" d="m68.5,0L0,39.52v79.04l68.5,39.52,68.5-39.52V39.52L68.5,0ZM8,44.16L68.5,9.28l60.5,34.88v69.75l-60.5,34.88L8,113.92V44.16Z"/>
</svg>