<?xml version="1.0" encoding="UTF-8"?>
<svg id="Calque_1" data-name="Calque 1" xmlns="http://www.w3.org/2000/svg" viewBox="0 0 137 158.08">
  <defs>
    <style>
      .cls-1 {
        fill: #fff;
      }

      .cls-2 {
        fill: none;
      }
    </style>
  </defs>
  <path class="cls-1" d="m68.5,0L0,39.52v79.04l68.5,39.52,68.5-39.52V39.52L68.5,0ZM8,44.16L68.5,9.28l60.5,34.88v69.75l-60.5,34.88L8,113.92V44.16Z"/>
  <g>
    <path class="cls-2" d="m42.87,79.06c-.02-8.54,3.66-15.28,10.12-20.68-.3.06-.55.17-.81.25-3.26,1.09-6.39,2.46-9.41,4.1-7.45,4.08-13.81,9.47-19.28,15.94-.23.27-.23.46,0,.71,1.42,1.54,2.78,3.15,4.27,4.64,3.42,3.43,7.13,6.45,11.16,9.03l5.37-5.37c-.93-2.66-1.42-5.53-1.43-8.63Z"/>
    <path class="cls-2" d="m94.17,79.03c0,8.5-3.61,15.33-10.3,20.69.19-.03.27-.03.34-.05,1.32-.48,2.66-.93,3.97-1.46,5.54-2.25,10.6-5.32,15.29-9.02,3.7-2.92,7.02-6.22,10.06-9.82.19-.22.23-.39.03-.64-3.14-3.75-6.62-7.16-10.47-10.18-1.62-1.27-3.29-2.45-5.01-3.55l-5.34,5.34c.94,2.68,1.43,5.56,1.43,8.68Z"/>
    <path class="cls-1" d="m121.72,78.67c-.85-1.09-1.67-2.19-2.54-3.27-4.73-5.83-10.15-10.92-16.31-15.19l-4.79,4.79c1.72,1.1,3.39,2.28,5.01,3.55,3.85,3.01,7.33,6.42,10.47,10.18.2.25.16.42-.03.64-3.04,3.59-6.36,6.9-10.06,9.82-4.69,3.7-9.75,6.77-15.29,9.02-1.3.53-2.64.98-3.97,1.46-.07.03-.15.02-.34.05,6.7-5.36,10.3-12.18,10.3-20.69,0-3.12-.49-6-1.43-8.68l-5.08,5.08c.22,1.17.35,2.37.35,3.6-.06,10.97-8.79,19.6-19.8,19.51-1.13,0-2.24-.14-3.33-.34l-9.45,9.45c1.55.38,3.12.71,4.71.95,5.28.8,10.57.81,15.85.13,4.56-.58,8.97-1.81,13.23-3.51,7.78-3.1,14.72-7.57,20.96-13.13,4.3-3.84,8.14-8.1,11.53-12.77.18-.25.16-.43-.02-.65Z"/>
    <path class="cls-1" d="m27.77,84.03c-1.48-1.49-2.84-3.09-4.27-4.64-.23-.25-.23-.44,0-.71,5.47-6.47,11.83-11.87,19.28-15.94,3.01-1.65,6.15-3.02,9.41-4.1.26-.09.51-.19.81-.25-6.47,5.4-10.15,12.14-10.12,20.68,0,3.11.5,5.98,1.43,8.63l5.05-5.05c-.23-1.24-.35-2.53-.33-3.85.13-10.87,9.16-19.62,20.14-19.27,1.01.03,2,.17,2.97.35l9.47-9.47c-4.31-1.07-8.64-1.59-12.63-1.53-4.26-.04-7.95.33-11.59,1.08-3.04.63-6,1.53-8.91,2.64-4.73,1.81-9.17,4.16-13.37,6.96-3.86,2.58-7.42,5.52-10.75,8.76-3.31,3.21-6.31,6.68-9.06,10.37-.18.24-.21.42-.01.69,5.32,7.2,11.54,13.42,18.86,18.48l4.79-4.79c-4.03-2.58-7.74-5.6-11.16-9.03Z"/>
    <path class="cls-1" d="m105.17,42.37c-.98-.98-2.26-1.46-3.54-1.46s-2.56.49-3.54,1.46l-10.03,10.03-9.77,9.77-26.66,26.66-4.5,4.5-2.81,2.81-5,5-7.51,7.51c-1.95,1.95-1.95,5.12,0,7.07.98.98,2.26,1.46,3.54,1.46s2.56-.49,3.54-1.46l10.05-10.05,9.76-9.76,26.65-26.65,4.54-4.54,2.79-2.79,4.99-4.99,7.49-7.49c1.95-1.95,1.95-5.12,0-7.07Z"/>
  </g>
</svg>