<?xml version="1.0" encoding="UTF-8"?>
<svg id="Calque_2" data-name="Calque 2" xmlns="http://www.w3.org/2000/svg" viewBox="0 0 367.35 358.23">
  <defs>
    <style>
      .cls-1 {
        fill: #a200ff;
      }
    </style>
  </defs>
  <path class="cls-1" d="m282.58,178.72c-1.74-.2-3.95-1.13-4.93-2.46-.44-.59-.83-1.19-1.21-1.79-4.2,2.85-7.4,4.94-9.03,5.97-7.79,4.74-15.84,9.39-24.06,13.96.43.15.86.29,1.28.46,6.35,2.47,7.73,5.11,5.26,11.34-2.64,6.66-5.9,13.07-8.94,19.57-2.05,4.37-5.2,4.66-9.08,2.38-2.61-1.54-5.32-2.91-8.73-4.75,1.57,8.87,6.56,17.72-2.99,23.27-8.15,4.74-16.98,12.24-26.29.06-2.69,7.36-5.78,12.79-14.3,11.96-10.61-1.04-20.92-1.88-21.4-16.91-6.87,5.6-10.58,7.22-15.7,4.95-9.3,4.78-19.63,9.59-30.12,14.33-.06.9-.17,1.81-.41,2.74-1.28,5.08-2.82,10.09-4.66,16.61,3-2.04,4.67-3.21,6.38-4.33,5.28-3.44,10.68-8,17.32-4.86,6.81,3.22,7.37,10.13,7.38,16.82.02,8.85,0,17.7,0,26.54,2.14-1.52,3.24-3.38,4.16-5.33,3.38-7.12,6.52-14.36,10.09-21.38,3.14-6.15,5.11-6.79,11.89-5.29,10.46,2.33,20.89,2.49,31.25-.62,6.95-2.09,9.45-1.16,12.9,5.22,3.25,6.01,6.15,12.21,9.35,18.24,1.04,1.95,2.55,3.66,3.84,5.48l1.23-.62c-1.08-9.55-2.03-19.12-3.3-28.64-.76-5.69,1.46-9.59,6.39-12.01,6.71-3.29,13.49-3.57,20.21.11.95.52,1.97.89,3.59,1.61-1.14-6.16-5.21-11.4-.77-18.34,15.36,8.55,30.65,17.06,45.94,25.57.26-.37.51-.75.77-1.12-.67-.95-1.29-1.95-2.03-2.84-8.45-10.3-16.9-20.6-25.38-30.88-5.32-6.45-4.55-12.83-.92-19.98,3.52-6.93,8.86-6.32,14.78-5.38.39.06.85-.36,1.25-.54-.07-.51.02-.97-.17-1.15-1.93-1.78-3.91-3.51-5.85-5.27-3.9-3.55-4.04-7.29,0-10.71,2.11-1.78,4.61-3.42,7.21-4.23,8.53-2.63,17.12-5.1,25.8-7.15,7.36-1.74,14.87-2.8,22.32-4.16.03-.5.07-1,.1-1.5-6.15-.58-12.3-1.14-18.45-1.74-10.66-1.04-21.33-2-31.97-3.23Z"/>
  <path class="cls-1" d="m61.78,189.84c-4.14-3.94-18.08-3.64-25.79.82,8.25,4.75,19.81,4.27,25.79-.82Z"/>
  <path class="cls-1" d="m92.26,107.43c-.44-1.18-.52-2.87-1.37-3.45-3.6-2.46-7.42-4.58-11.16-6.83-.53.73-1.07,1.47-1.6,2.2,3.28,2.89,6.44,5.94,9.93,8.54.82.62,2.78-.27,4.21-.47Z"/>
  <path class="cls-1" d="m204.52,230.94c.58-.22,1.16-.44,1.73-.66-.5-3.14-.18-6.48-1.69-9.38-1.29-2.47-2.87-3.49-4.33-3.61-.92-.07-1.8.22-2.5.75-.36.27-.63.6-.85.97-.96,1.59-.51,4.02,1.99,7.01,1.65,1.97,3.74,3.3,5.64,4.93Z"/>
  <path class="cls-1" d="m173.77,141.82c1.28.41,3.44-1.9,6.48-3.78-2.9-3.14-4.73-5.13-6.56-7.11-1.59,2.01-4.18,3.9-4.43,6.07-.18,1.51,2.57,4.2,4.52,4.82Z"/>
  <path class="cls-1" d="m152.01,180.23c-1.14-2.13-3.4-5.13-5.16-5.1-2.08.05-4.09,2.92-6.14,4.57,2.17,1.68,4.33,3.37,7.4,5.75,1.8-2.32,4.27-4.52,3.9-5.22Z"/>
  <path class="cls-1" d="m207.93,165.12c1.55-.16,2.99-1.41,5.72-2.87-2.25-1.43-3.47-2.78-4.2-2.55-1.57.49-2.89,1.78-4.31,2.75.93.96,1.95,2.77,2.78,2.68Z"/>
  <path class="cls-1" d="m349.01,98.2c-9.85-4.93-31.92,2.23-42.48,5.51l.19.7c4.39-1.02,46.69-9.41,39.96,1.36-.4.72-.86,1.41-1.35,2.09-1.57,2.14-3.51,4.06-5.46,5.95-4.36,4.05-9.07,7.79-13.9,11.38-3.24,2.41-6.54,4.75-9.83,7.06-13.96,9.64-28.31,18.77-42.71,27.78,1.09-5.16,4.63-9.8,10.39-13.08.46-.26.92-.51,1.37-.78,8.27-4.89,16.53-9.78,24.8-14.66-.18-.41-.35-.82-.53-1.23-2.17.56-4.37,1.03-6.5,1.71-9.69,3.1-19.3,6.5-29.1,9.2-2.21.61-5.84-.32-7.49-1.91-7.39-7.15-10.24-15.88-6.38-25.84,1.57-4.05,3.65-8.02,6.14-11.57,8.85-12.64,17.97-25.1,27.01-37.62,4.25-5.89,8.54-11.76,12.81-17.64-.36-.34-.72-.68-1.08-1.02-3.55,3.01-7.21,5.9-10.64,9.03-15.41,14.08-30.65,28.35-46.23,42.25-3.31,2.96-7.53,5.32-11.74,6.79-9.72,3.41-22.01-4.98-18.27-15.47,1.37-3.84.97-8.31,1.38-12.49-.49-.1-.99-.19-1.48-.29-1.22,2.79-2.4,5.6-3.68,8.36-3.04,6.59-7.06,9.19-13.5,8.82-6.49-.37-10.15-3.2-12.02-10.53-2.68-10.51-4.87-21.16-7.27-31.74-.5-2.23-1.01-4.45-1.52-6.68-.45.04-.9.08-1.35.12-1.07,8.26-2,16.53-3.24,24.76-2.81,18.5-3.91,20.12-25,22.92-4.96.66-8.93-.9-12.2-4.65-1.64-1.87-3.55-3.5-6.13-6.02-.32,3.24-.79,5.16-.64,7.03.86,10.78-3.95,17.55-13.98,21.43-2.34.9-4.44,3.81-5.52,6.29-4.47,10.21-9.94,13.79-20.68,11.1-10.17-2.55-20.07-6.21-30.05-9.47-5.39-1.76-10.72-3.73-16.07-5.6-.29.48-.59.95-.88,1.43,1.51,1.28,3.09,2.5,4.53,3.85,10.76,10.07,21.74,19.91,32.13,30.34,6.79,6.81,5.23,12.27-3.83,15.78-3.14,1.22-6.55,1.75-11.03,2.91,8.82,5.39,12.85,12.97,15.05,21.69,2.1,8.33-.38,13.39-8.22,16.95-2.43,1.1-4.85,2.22-7.28,3.33,2.44,1.67,4.75,2.18,7.06,2.64,5.48,1.1,11.88,1.27,14.06,7.53,2.11,6.06-1.96,10.83-5.78,14.88-6.62,7.02-13.63,13.67-20.61,20.34-6.25,5.98-12.68,11.77-19.04,17.64.25.37.49.73.74,1.1,1.91-.7,3.89-1.28,5.73-2.13,14.48-6.73,28.93-13.52,43.4-20.27,1.43-.67,2.88-1.35,4.39-1.78,6.64-1.88,12.66,1.08,15.37,6.21-15.41,6.99-31.11,13.32-46.92,19.27-9.31,3.4-18.86,6.85-28.58,8.46-10.43,1.54-17.95.8-13.72-11.69,5.22-14.13,14.56-26.26,23.52-38.36l-.54-.49c-3.3,3.25-6.47,6.63-9.52,10.12-3.69,4.23-7.2,8.64-10.43,13.29-4.55,6.29-8,12.99-9.1,18.75-1.3,6.8.69,12.28,8.04,14.2,3.17.82,7.32.99,12.64.31,15.49-2.37,30.06-8.28,44.15-14.63,10.04-4.67,20.84-10.27,31.64-16.03,8.53-4.55,17.07-9.19,25.26-13.55,3.75-2,7.44-3.95,11.01-5.79,28.64-14.89,58.01-30.08,86.52-46.09,11.59-6.51,23.05-13.13,34.25-19.94,1.01-.63,2.66-1.65,4.81-2.97,13.46-8.3,46.59-28.92,65.15-46.23,11.29-10.53,17.19-19.84,9.98-24.4Zm-243.83,95.09c-.88-7.82.3-16.02,1.55-23.89,1.15-7.29,3.11-8.46,10.52-9.39,2.75-.35,5.53-.38,9.61-.64-2.06-2.06-3.4-3.47-4.81-4.8-5.08-4.79-5.4-6.7-1.06-12.56,8.75-11.83,20.68-19.34,34.38-24.16,15.53-5.47,31.25-6.37,47-.88,7.83,2.73,8.67,4.47,6.79,12.45-.19.8-.03,1.69-.03,2.99,1.22-.53,2.15-.85,2.99-1.32,5.44-3.05,10.85-2.78,15.66,1.05,11.82,9.4,19.12,21.69,23.26,36.08.55,1.91.74,3.71.61,5.39-20.41,12.52-50.34,30.41-64.82,39.24-16.92,10.21-33.92,20.3-51.52,29.32-5.16-4.02-9.79-8.79-14.47-13.38-3.13-3.08-2.4-6.29.92-8.98,3.51-2.85,7.01-5.71,10.45-9.87-2.4-.12-4.81-.45-7.21-.34-16.16.72-18.03-.24-19.83-16.28Z"/>
</svg>