<?xml version="1.0" encoding="UTF-8"?>
<svg id="Calque_1" data-name="Calque 1" xmlns="http://www.w3.org/2000/svg" viewBox="0 0 367.35 358.23">
  <defs>
    <style>
      .cls-1 {
        fill: #ff7600;
      }
    </style>
  </defs>
  <path class="cls-1" d="m136.67,130.46h-12.86v28.99h5.43c28.41,0,56.82,0,85.23,0q6.01,0,6.01,6.19c0,9.76,0,19.52,0,30.42,25.54-22.12,50.21-43.49,75.23-65.17-24.98-21.64-49.77-43.11-75.23-65.17,0,11.04,0,20.97,0,30.9q0,5.83-6.02,5.84c-28.55,0-57.11,0-85.66,0h-5.42v9.37H45.72v9.34h90.95v9.3Z"/>
  <path class="cls-1" d="m172.17,223.32c.18,4.09-1.24,5.41-5.36,5.37-18.89-.18-37.77-.08-56.66-.08h-4.65v38.71h5.19c18.6,0,37.21,0,55.81,0,5.4,0,5.58.19,5.6,5.43.02,6.19,0,12.38,0,19.76,17.63-15.27,34.39-29.79,51.41-44.53-17.1-14.81-33.86-29.32-51.41-44.52,0,7.44-.2,13.66.07,19.86Z"/>
  <path class="cls-1" d="m313.58,166.24c.19,4.08-1.17,5.43-5.31,5.38-16.47-.2-32.94-.02-49.41-.13-3.62-.02-5.19,1.25-5.04,4.97.19,4.68.05,9.37.05,14.05v19.86h5.59c16.47,0,32.94.07,49.41-.05,3.45-.02,4.84,1.07,4.71,4.66-.23,6.37-.06,12.75-.06,20.48,17.66-15.3,34.43-29.83,51.42-44.55-17.13-14.82-33.89-29.33-51.42-44.5,0,7.39-.21,13.61.07,19.81Z"/>
  <path class="cls-1" d="m179.9,76.28h-91.19v8.79h91.19v-8.79Z"/>
  <path class="cls-1" d="m145.89,213.6v-8.75H54.68c-.08,1.15-.17,1.98-.19,2.81q-.15,6.22,6.07,6.23c26.84,0,53.67,0,80.51-.01,1.62,0,3.24-.18,4.82-.27Z"/>
  <path class="cls-1" d="m109.75,182.5h90.99v-8.79h-90.99v8.79Z"/>
  <path class="cls-1" d="m97.99,182.5v-8.87h-14.27v8.87h14.27Z"/>
  <path class="cls-1" d="m50.78,76.3h-14.31v8.76h14.31v-8.76Z"/>
  <path class="cls-1" d="m76.82,76.15h-14.21v8.91h14.21v-8.91Z"/>
  <path class="cls-1" d="m33.65,111.95h-14.2v8.85h14.2v-8.85Z"/>
  <path class="cls-1" d="m71.95,182.49v-8.75h-14.22v8.75h14.22Z"/>
  <path class="cls-1" d="m16.33,204.76H2.43v9.12h6.78q8.34,0,7.64-8.26c-.02-.24-.27-.46-.51-.86Z"/>
  <path class="cls-1" d="m28.78,213.55h14.08v-8.84h-14.08v8.84Z"/>
</svg>