<?xml version="1.0" encoding="UTF-8"?>
<svg id="Calque_1" data-name="Calque 1" xmlns="http://www.w3.org/2000/svg" viewBox="0 0 226.26 226.26">
  <defs>
    <style>
      .cls-1 {
        fill: #94abff;
      }

      .cls-2 {
        fill: #2844ce;
      }
    </style>
  </defs>
  <g>
    <path class="cls-2" d="m134.85,30.49s-21.56-10.75-21.56-30.49v.03c-.01,19.74-21.56,30.48-21.56,30.48,20.37,0,21.54,70.25,21.56,71.6h0s0,0,0,0c0,0,0,.03,0,.03v-.05c.02-1.35,1.19-71.6,21.56-71.6Z"/>
    <path class="cls-1" d="m113.29,12.62v59.88s-.58-42-12.64-42c0,0,12.64-6.3,12.64-17.88Z"/>
  </g>
  <g>
    <path class="cls-2" d="m195.77,134.85s10.75-21.56,30.49-21.56h-.03c-19.74-.01-30.48-21.56-30.48-21.56,0,20.37-70.25,21.54-71.6,21.56h-.01s0,0,0,0c0,0-.03,0-.03,0h.05c1.35.02,71.6,1.19,71.6,21.56Z"/>
    <path class="cls-1" d="m213.64,113.29h-59.88s42-.58,42-12.64c0,0,6.3,12.64,17.88,12.64Z"/>
  </g>
  <g>
    <path class="cls-2" d="m91.42,195.77s21.56,10.75,21.56,30.49v-.03c.01-19.74,21.56-30.48,21.56-30.48-20.37,0-21.54-70.25-21.56-71.6h0s0,0,0,0c0,0,0-.03,0-.03v.05c-.02,1.35-1.19,71.6-21.56,71.6Z"/>
    <path class="cls-1" d="m112.98,213.64v-59.88s.58,42,12.64,42c0,0-12.64,6.3-12.64,17.88Z"/>
  </g>
  <g>
    <path class="cls-2" d="m30.49,91.42s-10.75,21.56-30.49,21.56h.03c19.74.01,30.48,21.56,30.48,21.56,0-20.37,70.25-21.54,71.6-21.56h.01s0,0,0,0c0,0,.03,0,.03,0h-.05c-1.35-.02-71.6-1.19-71.6-21.56Z"/>
    <path class="cls-1" d="m12.62,112.98h59.88s-42,.58-42,12.64c0,0-6.3-12.64-17.88-12.64Z"/>
  </g>
  <g>
    <path class="cls-2" d="m155.58,174.44s12.38-5.43,18.77.96h-.01c-6.38-6.4-.96-18.78-.96-18.78-8.41,8.41-31.62-13.83-32.07-14.26h0s0,0,0,0c0,0,0,0,0,0l.02.02c.43.45,22.67,23.66,14.26,32.07Z"/>
    <path class="cls-1" d="m170.27,171.32l-19.37-19.37s13.83,13.35,18.81,8.37c0,0-3.18,7.26.56,11.01Z"/>
  </g>
  <g>
    <path class="cls-2" d="m51.82,155.58s5.43,12.38-.96,18.77h.01c6.39-6.39,18.77-.97,18.77-.97-8.41-8.41,13.83-31.62,14.26-32.07h0s0,0,0,0c0,0,0,0,0,0l-.02.02c-.45.43-23.66,22.67-32.07,14.26Z"/>
    <path class="cls-1" d="m54.94,170.27l19.37-19.37s-13.35,13.83-8.37,18.81c0,0-7.26-3.18-11.01.56Z"/>
  </g>
  <g>
    <path class="cls-2" d="m70.68,51.82s-12.38,5.43-18.77-.96h.01c6.38,6.4.96,18.78.96,18.78,8.41-8.41,31.62,13.83,32.07,14.26h0s0,0,0,0c0,0,0,0,0,0l-.02-.02c-.43-.45-22.67-23.66-14.26-32.07Z"/>
    <path class="cls-1" d="m55.99,54.94l19.37,19.37s-13.83-13.35-18.81-8.37c0,0,3.18-7.26-.56-11.01Z"/>
  </g>
  <g>
    <path class="cls-2" d="m174.44,70.68s-5.43-12.38.96-18.77h-.01c-6.39,6.39-18.77.97-18.77.97,8.41,8.41-13.83,31.62-14.26,32.07h0s0,0,0,0c0,0,0,0,0,0l.02-.02c.45-.43,23.66-22.67,32.07-14.26Z"/>
    <path class="cls-1" d="m171.32,55.99l-19.37,19.37s13.35-13.83,8.37-18.81c0,0,7.26,3.18,11.01-.56Z"/>
  </g>
</svg>