<?xml version="1.0" encoding="UTF-8"?>
<svg id="Calque_1" data-name="Calque 1" xmlns="http://www.w3.org/2000/svg" viewBox="0 0 367.35 358.23">
  <defs>
    <style>
      .cls-1 {
        fill: #7300ff;
      }

      .cls-2 {
        fill: #d60000;
      }

      .cls-3 {
        fill: none;
      }
    </style>
  </defs>
  <path class="cls-3" d="m325.64,122.66s-.02,0-.02,0h0s.02,0,.02,0Z"/>
  <path class="cls-3" d="m214.47,51.24c-.1.35-.2.71-.3,1.07.02-.03.05-.07.07-.1.14-.6.23-.95.23-.97Z"/>
  <g>
    <path class="cls-2" d="m297.65,172.19s-.24-.14-.67-.42l-8.71,5.15-7.95,1.64-16.94,3.5-1.58.33c-3.07,2.97.87,6.83.87,6.83l1.67.27,11.16,1.77,13.84,2.2.96.15s27.7-12.73,28.67-13.29c0,0,.01,0,.02,0-3.97-.92-8.46-2.39-13.54-4.54-2.46-1.04-5.05-2.22-7.8-3.59Z"/>
    <path class="cls-2" d="m266.83,108.41c-.18-.15-.36-.3-.54-.44-.03.03-.06.06-.09.09l.62.35Z"/>
    <path class="cls-2" d="m298.09,114.89c.23.08.45.15.68.23,2.67-2.27,5.24-4.35,7.12-5.69,1.57-1.12,2.05-3.29,1.09-4.96l-9.23-10.17-3.67-4.04c-1.2-2.08-3.9-2.57-5.76-1.03-4.35,3.59-11.58,8.52-18.34,15,7.43,3.1,17.41,7.05,28.12,10.67Z"/>
    <path class="cls-2" d="m254.34,89.62c1.73,2.5,3.51,5.06,5.35,7.64l20.14-12.54c1.5-.93,1.64-2.82.3-4.13l-9.78-9.64c-1.25-1.23-3.32-1.5-4.71-.62l-14.69,9.34-2.5,1.59c1.05,1.43,2.13,2.94,3.22,4.51.87,1.25,1.76,2.53,2.67,3.85Z"/>
    <path class="cls-2" d="m319.84,136.46s-8.42-2.99-19.33-8.05l-5.99,4.8-2.14,1.71,1.37.88,1.07.69c-.23.54-1.17,2.28-2.76,4.39-1.84,2.45-4.57,5.39-8.13,7.62,1.35.77,2.7,1.54,4.07,2.29,3.65,2.02,7.35,3.97,11.04,5.77,8.54-6.57,20.55-15.82,21.34-16.48.6-.5,1.91-1.57,3.08-2.52.06-.05.11-.11.17-.17-1.23-.29-2.48-.59-3.77-.93Z"/>
    <path class="cls-2" d="m260.28,152.58l-.56.22-13.05,5.24c.09,1.88.45,3.82,1.03,5.77.46,1.58,1.56,2.92,3.07,3.66h.02s10.59-1.16,10.59-1.16l22.41-2.47,1.16-.13c-.32-.23-.64-.46-.96-.69-4.06-2.91-8.67-6.39-13.33-10.25-4.4.61-7.86.33-10.38-.19Z"/>
    <path class="cls-2" d="m183.26,196.37c-5.53-1.04-11.85-3.4-18.06-6.25-2.49-.8-4.03-1.26-4.03-1.26l-37.2,34.58c14.42,9.69,32.21,18.55,44.24,24.12,8.18,3.79,13.7,6.07,13.7,6.07-6.02,1.01-14.31-.5-22.71-2.97-16.99-5.01-34.43-13.97-34.43-13.97-3.26-1.98-6.19-3.9-8.84-5.77l-44.88,41.73c1.5,3.31,3.47,6.48,5.76,9.48,3.72,4.87,8.32,9.33,13.29,13.33,1.99,1.61,4.04,3.14,6.12,4.59,4.87,3.42,9.87,6.42,14.57,8.99,1.73-2.52,3.79-4.68,6.21-5.99,4.5-2.44,7.36-1.93,8.68,0,.1.15.2.31.28.48,1.33,2.63.35,7.23-2.78,11.02,0,0-.15.17-.43.47,6.66,3.04,11.16,4.63,11.16,4.63,8.53-9.85,16.38-18.89,23.58-27.15-1.04-.45-2.11-.92-3.23-1.42-4.17-1.87-8.83-4.09-13.59-6.6-6.71-3.53-13.63-7.63-19.7-12.13-2.85-2.11-5.5-4.31-7.86-6.59-1.88-1.82-3.57-3.68-5.02-5.58-.06-.08-.13-.16-.19-.24,0,0,.11.05.32.15.79.36,3.01,1.37,6.29,2.8,4.2,1.82,10.13,4.32,17.05,7.01,5.1,1.98,10.73,4.07,16.59,6.07,6.02,2.05,12.28,4.01,18.46,5.65.1.03.2.05.3.08,9.57-10.94,17.76-20.24,24.6-27.98,17.89-20.23,26.59-29.78,26.59-29.78,0,0-7.89-9.21-12.94-16.25-2.37-3.3-12.17-7.64-21.92-11.32Z"/>
    <path class="cls-2" d="m246.68,191.22c4.12,3.2,8.15,5.79,12.05,7.87-9.12-8.77-16.93-22.76-16.45-34.45.42-10.19-16.32-24.03-26.19-30.89-1.4-.98-2.66-1.81-3.72-2.47l-14.13-8.89,16.34,3.42c1.01.21,1.96.26,2.86.18,4.27-.37,7.26-3.64,9.12-6.63l2.72-4.36,2.45,4.52c.29.54,1.19,1.13,2.42,1.94,3.57,2.36,9.55,6.31,16.98,19.29,2.37,4.15,5.16,6.47,7.99,7.8.03.01.05.02.08.04,2.34,1.08,4.72,1.49,6.91,1.67.57.05,1.13.08,1.67.11-3.23-2.78-6.43-5.71-9.43-8.75-6.1-6.17-11.37-12.75-14.38-19.19,0,0,5.16,3.85,13.18,9.28,6.51,4.41,14.9,9.87,23.94,15.17,3.53-2.33,6.47-5.46,8.69-8.33.48-.62.71-1.01.82-1.23-.12-.11-.31-.27-.6-.47-.21-.15-.46-.32-.8-.52-.96-.58-1.91-1.18-2.84-1.81-14.12-9.51-24.65-24.26-33.22-36.27,0-.01-.02-.02-.03-.04-7.69-10.78-14.33-20.08-20.08-20.94-1.72-.26-3.38.28-5.21,1.69-5.46,4.2-11.66,6.7-18.12,8.44-.12,6.95.12,13.23.42,18.05.19,3.14.41,5.65.58,7.33.15,1.52.25,2.37.25,2.37-.32-.92-.63-1.83-.94-2.73-2.9-8.53-5.25-16.33-7.1-23.46-3.03.6-6.08,1.11-9.1,1.62-.53.09-1.07.18-1.6.27-11.63,1.95-22.55,4.03-30.49,11.35-.46.42-.88.86-1.26,1.31-2.56,2.95-3.55,6.35-3.55,10.11,0,5.89,2.44,12.66,5.09,20.02,5.24,14.55,11.09,30.88.21,46.09,2.77,1.89,5.46,3.67,8,5.32,8.85,3.06,17.96,5.62,26.97,8.71,15.4,5.36,23.88,17.39,29.02,31.3.16-.16.27-.26.33-.33.07-.12.15-.16,0,0-.1.16-.19.46.24.59,7.84,2.33,15.44,1.82,22.08-.13,7.87-2.31,14.39-6.64,18.33-10.65-1.46-.67-2.84-1.44-4.13-2.28-11.63-7.57-16.39-20.99-16.39-20.99Z"/>
  </g>
  <g>
    <path class="cls-1" d="m155.81,95.6c3.21,2.31,4.54,5.02,4.66,7.87.39-.45.8-.88,1.26-1.31,7.94-7.32,18.86-9.4,30.49-11.35-12.18-25-16.04-50.25-12.25-53.89-45.53,8.57-46.89,40.23-48.5,55.95,0,0-3.16,14.62-2.27,18.58,0,0,13.01-25.61,26.61-15.85Z"/>
    <path class="cls-1" d="m71.05,272.65l44.88-41.73c2.65,1.87,5.58,3.79,8.84,5.77,0,0,17.44,8.96,34.43,13.97,8.4,2.48,16.69,3.99,22.71,2.97,0,0-5.52-2.28-13.7-6.07-12.03-5.58-29.82-14.43-44.24-24.12l37.2-34.58s1.53.46,4.03,1.26c6.21,2.85,12.53,5.21,18.06,6.25,9.75,3.68,19.55,8.02,21.92,11.32,5.06,7.05,12.94,16.25,12.94,16.25,0,0-8.7,9.55-26.59,29.78,21.03-3.74,40.59-13.34,56.4-27.74l.92-.84c-6.64,1.95-14.24,2.47-22.08.13-.44-.13-.34-.43-.24-.59-.06.07-.17.18-.33.33-5.14-13.91-13.62-25.94-29.02-31.3-9.01-3.09-18.13-5.66-26.97-8.71-2.54-1.65-5.23-3.43-8-5.32,10.88-15.21,5.03-31.54-.21-46.09-2.65-7.36-5.08-14.14-5.09-20.02-3.77,5.72-9.39,10.62-11.07,12.29-2.16,2.14-10.26,5.89-19.07,11.93,3.59,9.49,19.54,30.41,19.54,30.41,0,0,0,0,0,0-16.8-10.16-26.28-25.36-26.29-25.37h0c-6.36-9.26-7.16-17.55,2.88-22.73,0,0-22.72,7.64-10.06,29.46-.54.58-1.07,1.17-1.59,1.77-9.71,11.33-18.97,24.38-22.97,30.66-.48.75.44,1.6,1.15,1.08,5.24-3.85,15.66-10.87,20.84-10.01,7.1,1.18,13.9,7.39,6.5,18.63-1.01,1.54-3.94,5.37-8.23,10.81,2.16,6.47,8.76,16.17,8.8,16.22,0,0,0,0,0,0-.02-.01-.04-.03-.06-.04-.35-.25-.72-.54-1.11-.85-4.64-3.69-11.34-10.65-11.34-10.65h0s0,0,0,0c-6.36-7.85-7.46-15.39,1.29-21.41,0,0-20.54,9.91-7.36,29.02C65.78,255.97,0,335.97,0,335.97l76.81-53.84c-2.3-3-4.26-6.17-5.76-9.48Z"/>
    <path class="cls-1" d="m85.79,305.44c3.15-1.04,7.17-3.33,10.43-5.39-2.08-1.46-4.13-2.99-6.12-4.59-2.94,4.65-4.31,9.98-4.31,9.98Z"/>
    <path class="cls-1" d="m65.26,302.74c-3.9,3.06-6.19,10.05-6.19,10.05,4.31-1.23,11.28-6.05,11.28-6.05,2.22-4.53-1.19-7.06-5.09-4Z"/>
    <path class="cls-1" d="m75.37,223.65c5.89-7.12,4.17-17.12-6.18-11.5-10.35,5.62-14.09,26.49-14.09,26.49,14.3-8.1,20.27-14.99,20.27-14.99Z"/>
    <path class="cls-1" d="m226.54,224.68c.15-.16.07-.12,0,0h0Z"/>
    <path class="cls-1" d="m362.54,99.89c9.25,25.93-11.46,28.13-36.9,22.77h0s-.02,0-.02,0h0c-.48-.13-17.01-4.42-20.78-5.57-.13-.04-.24-.07-.34-.11,0,0,0,0,0,0,0,0,11.45,1.3,21.06.81-.15-3.33-.51-6.73-1.13-10.2-7.12-39.85-37.12-55.04-57.7-60.81-10.63-4.8-23.51-6.57-35.29-4.94-2.25.31-4.42.93-6.47,1.79-8.53,8.37-13.91,24.73-13.97,24.91,0,0,0,.01,0,.01.04-.35.09-.74.15-1.15.65-4.55,2.48-12.46,3.12-15.2-.02.03-.05.06-.07.1.1-.36.2-.71.3-1.07,0,0,0,0,0,0,0,0,0,0,0,0,5.9-19.78,18.53-34.38,44.61-25.69,0,0-10.72-7.97-23.38-9.42,0,0-56.48-18.29-32.78,72.8,1.86,7.13,4.2,14.93,7.1,23.46.31.9.62,1.81.94,2.73,0,0-.11-.85-.25-2.37-.17-1.68-.38-4.2-.58-7.33-.3-4.82-.54-11.1-.42-18.05,6.46-1.73,12.66-4.23,18.12-8.44,1.83-1.41,3.48-1.94,5.21-1.69,5.75.86,12.39,10.16,20.08,20.94,0,.01.02.02.03.04,8.57,12.01,19.1,26.77,33.22,36.27.93.63,1.88,1.23,2.84,1.81.34.2.59.37.8.52.29.2.49.36.6.47-.11.22-.34.61-.82,1.23-2.23,2.87-5.16,6-8.69,8.33-9.04-5.3-17.43-10.76-23.94-15.17-8.01-5.43-13.18-9.28-13.18-9.28,3.01,6.44,8.28,13.02,14.38,19.19,3,3.04,6.2,5.97,9.43,8.75-.54-.03-1.1-.06-1.67-.11-2.19-.18-4.56-.59-6.91-1.67-.03-.01-.05-.02-.08-.04-2.83-1.33-5.62-3.65-7.99-7.8-7.42-12.98-13.4-16.93-16.98-19.29-1.23-.81-2.12-1.4-2.42-1.94l-2.45-4.52-2.72,4.36c-1.86,2.99-4.86,6.26-9.12,6.63-.9.08-1.85.03-2.86-.18l-16.34-3.42,14.13,8.89c1.05.66,2.32,1.5,3.72,2.47,9.87,6.87,26.61,20.71,26.19,30.89-.48,11.7,7.33,25.69,16.45,34.45-3.9-2.08-7.93-4.67-12.05-7.87,0,0,4.76,13.42,16.39,20.99,1.29.84,2.67,1.61,4.13,2.28,9.04,4.14,21.42,4.52,37.83-5.09,0,0,6.5-5.35,6.68-8.81,0,0-14.87,9.61-36.59,4.7h0s0,0,0,0h0s-6.17-1.9-6.17-1.9l-2.83-.88h0s0,0,0,0c0,0,1.34.07,3.31.09,2.76.02,6.76-.07,10.02-.61,3-2.38,6.37-5.22,9.89-8.52l-13.84-2.2-11.16-1.77-1.67-.27s-3.94-3.86-.87-6.83l1.58-.33,16.94-3.5,7.95-1.64,8.71-5.15c.43.27.67.42.67.42,2.74,1.36,5.33,2.55,7.8,3.59,5.08,2.14,9.57,3.62,13.54,4.54,38.7,8.95,27.91-35.25,27.91-35.25,3.36,24.23-12.63,25.3-32.96,17.93,4.4-7.73,7.97-16.28,9.96-25.54,63.55,14.78,38.64-37.57,38.64-37.57Zm-55.57,4.58c.96,1.67.48,3.84-1.09,4.96-1.88,1.34-4.44,3.43-7.12,5.69-.23-.08-.45-.15-.68-.23-10.71-3.62-20.7-7.57-28.12-10.67,6.76-6.48,13.99-11.42,18.34-15,1.86-1.54,4.57-1.05,5.76,1.03l3.67,4.04,9.23,10.17Zm-40.68,3.5c.18.15.36.3.54.44l-.62-.35s.06-.06.09-.09Zm-14.62-22.18c-1.1-1.57-2.17-3.08-3.22-4.51l2.5-1.59,14.69-9.34c1.39-.88,3.46-.61,4.71.62l9.78,9.64c1.33,1.31,1.2,3.2-.3,4.13l-20.14,12.54c-1.85-2.58-3.63-5.14-5.35-7.64-.91-1.32-1.8-2.6-2.67-3.85Zm32.14,78.07l-22.41,2.47-10.59,1.17h-.02c-1.51-.74-2.61-2.09-3.07-3.67-.57-1.95-.93-3.89-1.03-5.77l13.05-5.24.56-.22c2.52.53,5.98.8,10.38.19,4.66,3.86,9.27,7.34,13.33,10.25.33.23.65.46.96.69l-1.16.13Zm39.64-26.29c-1.17.95-2.47,2.02-3.08,2.52-.79.66-12.8,9.9-21.34,16.48-3.68-1.8-7.38-3.75-11.04-5.77-1.36-.75-2.72-1.52-4.07-2.29,3.56-2.23,6.29-5.17,8.13-7.62,1.6-2.12,2.54-3.86,2.76-4.39l-1.07-.69-1.37-.88,2.14-1.71,5.99-4.8c10.91,5.06,19.33,8.05,19.33,8.05,1.29.34,2.54.64,3.77.93-.06.05-.1.11-.17.17Z"/>
    <path class="cls-1" d="m166.94,281.7c-.1-.03-.2-.05-.3-.08-6.18-1.65-12.44-3.6-18.46-5.65-5.86-2-11.49-4.08-16.59-6.07-6.92-2.69-12.85-5.19-17.05-7.01-3.28-1.43-5.5-2.44-6.29-2.8-.21-.1-.32-.15-.32-.15.06.08.12.16.19.24,1.44,1.9,3.13,3.77,5.02,5.58,2.36,2.27,5.01,4.47,7.86,6.59,6.06,4.5,12.98,8.6,19.7,12.13,4.77,2.51,9.42,4.72,13.59,6.6,1.11.5,2.19.98,3.23,1.42,7.72,3.35,13.1,5.26,13.1,5.26,68.68,17.99,42.7-36.57,42.7-36.57,10.37,29.09-16.95,28.31-46.37,20.51Z"/>
    <path class="cls-1" d="m125.69,303.05c-1.32-1.94-4.19-2.45-8.68,0-2.42,1.31-4.48,3.47-6.21,5.99-5.68,8.26-7.87,20.5-7.87,20.5,12.14-6.88,18.26-12.87,19.84-14.52.28-.29.43-.47.43-.47,3.13-3.79,4.11-8.39,2.78-11.02-.08-.17-.18-.32-.28-.48Z"/>
    <path class="cls-1" d="m161.13,308.7c-8.24,4.47-11.22,21.1-11.22,21.1,11.38-6.45,16.14-11.94,16.14-11.94,4.69-5.67,3.32-13.63-4.92-9.16Z"/>
    <path class="cls-1" d="m248.49,239.95c-8.24,4.47-11.22,21.1-11.22,21.1,11.38-6.45,16.14-11.94,16.14-11.94,4.69-5.67,3.32-13.63-4.92-9.16Z"/>
    <path class="cls-1" d="m76.25,317.12c-10.35,5.62-14.09,26.49-14.09,26.49,14.3-8.1,20.27-14.99,20.27-14.99,5.89-7.12,4.17-17.12-6.18-11.5Z"/>
    <path class="cls-1" d="m355.16,90.29s-6.08-44.35-90.41-59.43c0,0,65.3,18.53,90.41,59.43Z"/>
  </g>
</svg>