<?xml version="1.0" encoding="utf-8"?>
<!-- Generator: Adobe Illustrator 27.5.0, SVG Export Plug-In . SVG Version: 6.00 Build 0)  -->
<svg version="1.1" id="Calque_1" xmlns="http://www.w3.org/2000/svg" xmlns:xlink="http://www.w3.org/1999/xlink" x="0px" y="0px"
	 viewBox="0 0 150 150" style="enable-background:new 0 0 150 150;" xml:space="preserve">
<style type="text/css">
	.st0{fill:#E00000;}
</style>
<g>
	<g>
		<g>
			<path class="st0" d="M79.5,125.3c0.3,0.7,1,1.1,1.9,1.1c0.1,0,0.3,0,0.4,0c-0.1,0-0.3,0-0.4,0C80.5,126.4,79.8,126,79.5,125.3z"
				/>
		</g>
		<g>
			<path class="st0" d="M73.2,21.4c0,6,0,12,0,18c0,0.5,0,1,0,1.5c0.1,1,0.8,1.6,1.7,1.6c0.9,0,1.6-0.7,1.7-1.6c0-0.3,0-0.6,0-0.9
				c0-6.2,0-12.4,0-18.6c0-1.1-0.2-1.9-1.1-2.5c-0.4,0-0.9,0-1.3,0C73.4,19.4,73.2,20.3,73.2,21.4z"/>
		</g>
		<g>
			<path class="st0" d="M21.4,76.8c6.1,0,12.1,0,18.2,0c0.5,0,1,0,1.4,0c0.9-0.2,1.5-0.8,1.5-1.7c0-1-0.6-1.6-1.5-1.7
				c-0.3-0.1-0.7,0-1,0c-6.2,0-12.4,0-18.6,0c-1.1,0-1.9,0.2-2.5,1.1c0,0.4,0,0.9,0,1.3C19.5,76.5,20.3,76.8,21.4,76.8z"/>
		</g>
		<g>
			<path class="st0" d="M128.6,73.2c-6,0-12,0-18,0c-0.5,0-1,0-1.5,0c-1,0.1-1.6,0.8-1.6,1.7c0,0.9,0.7,1.6,1.6,1.7
				c0.3,0,0.6,0,0.9,0c6.2,0,12.4,0,18.6,0c1.1,0,1.9-0.2,2.5-1.1c0-0.4,0-0.9,0-1.3C130.6,73.5,129.7,73.2,128.6,73.2z"/>
		</g>
		<g>
			<path class="st0" d="M76.8,128.6c0-6.1,0-12.1,0-18.2c0-0.5,0-1,0-1.4c-0.2-0.9-0.8-1.5-1.7-1.5c-1,0-1.6,0.6-1.7,1.5
				c-0.1,0.3,0,0.7,0,1c0,6.2,0,12.4,0,18.6c0,1.1,0.2,1.9,1.1,2.5c0.4,0,0.9,0,1.3,0C76.5,130.5,76.8,129.7,76.8,128.6z"/>
		</g>
		<g>
			<path class="st0" d="M101.6,30.6c-6-3.7-12.7-6-19.7-6.9c-1.5-0.2-2.4,0.3-2.6,1.5c-0.1,1.1,0.7,1.8,2.1,2
				c0.8,0.1,1.7,0.2,2.5,0.4c16.5,3.5,28.3,12.9,35.3,28.3c1.9,4.1,3,8.4,3.5,12.8c0.2,1.3,0.9,2,2,1.9c1-0.1,1.6-0.9,1.5-2.2
				c-0.1-0.6-0.2-1.3-0.3-2C123.2,50.9,115.1,38.9,101.6,30.6z"/>
		</g>
		<g>
			<path class="st0" d="M69,122.9c-0.8-0.1-1.5-0.2-2.3-0.3c-19.2-3.3-34.3-17.6-38.7-36.6c-0.4-1.6-0.6-3.3-0.9-5
				c-0.2-1.1-1.1-1.7-2-1.6c-0.9,0.1-1.5,0.9-1.4,2c0.1,0.8,0.2,1.5,0.3,2.3c3.7,18.6,14.2,31.7,31.5,39.2c4.2,1.8,8.6,2.9,12.9,3.4
				c1.3,0,2-0.5,2.2-1.4C70.7,124,70.1,123.1,69,122.9z"/>
		</g>
		<g>
			<path class="st0" d="M92.1,120.2c-3.5,1.4-7.1,2.2-10.8,2.7c-1.2,0.2-1.9,0.9-1.8,1.9c0,0.2,0,0.4,0.1,0.5c0.3,0.7,1,1.1,1.9,1.1
				c0.1,0,0.3,0,0.4,0c0.6-0.1,1.2-0.2,1.8-0.3c16.2-3.1,28.5-11.7,36.7-26.1c3.2-5.6,5.1-11.6,6-18c0.2-1.5-0.3-2.5-1.5-2.6
				c-1.1-0.1-1.8,0.6-2,2.2c-0.1,0.8-0.2,1.6-0.4,2.4C118.7,101.4,108.6,113.5,92.1,120.2z"/>
		</g>
		<g>
			<path class="st0" d="M66.2,27.5c1-0.2,2-0.3,3-0.5c1-0.2,1.5-1.1,1.3-2c-0.2-0.9-0.8-1.5-1.8-1.4c-0.3,0-0.5,0-0.8,0.1
				c-2,0.4-4.1,0.7-6.1,1.2C45.2,29.6,33.5,40,26.8,56c-1.7,4-2.7,8.3-3.2,12.4c0,1.2,0.7,2,1.7,2.1c0.9,0.1,1.6-0.5,1.8-1.6
				c0.2-1.3,0.4-2.5,0.6-3.8C31.9,45.7,46.5,31.4,66.2,27.5z"/>
		</g>
		<g>
			<path class="st0" d="M69.3,112.3c-0.3-0.1-0.7-0.2-1.1-0.2c-9.7-1.8-17.6-6.7-23.5-14.6c-3.7-4.9-5.9-10.4-7-16.5
				c-0.2-1.2-1-1.8-2-1.6c-1,0.2-1.6,1.1-1.4,2.2c3,15.6,11.9,26.3,26.6,32.1c2.5,1,5.2,1.5,7.9,2.2c1-0.3,1.7-0.7,1.8-1.7
				C70.7,113.3,70.2,112.7,69.3,112.3z"/>
		</g>
		<g>
			<path class="st0" d="M88.9,110.1c-2.5,1-5.3,1.5-8,2.2c-1,0.3-1.6,1-1.5,2c0.1,0.9,1,1.5,1.9,1.5c0.1,0,0.2,0,0.4-0.1
				c12.9-2.3,22.6-9.2,29.2-20.5c2.5-4.2,4-8.8,4.8-13.6c0.2-1.1-0.4-2.1-1.4-2.3c-1-0.2-1.8,0.4-2,1.5c-0.1,0.3-0.1,0.6-0.2,0.9
				C109.3,95.3,101.6,104.8,88.9,110.1z"/>
		</g>
		<g>
			<path class="st0" d="M68.8,37.8c1.3-0.2,2-1,1.8-2c-0.2-1.1-1.1-1.6-2.4-1.4c-10.3,1.8-18.8,6.8-25.4,14.9
				c-4.5,5.6-7.3,12-8.5,19.1c-0.2,1.2,0.5,2.2,2.1,2.3c0.3-0.3,0.9-0.7,1.3-1.3c0.2-0.3,0.2-0.8,0.3-1.2c1.2-6.3,3.7-12,7.8-17
				C51.7,43.8,59.5,39.4,68.8,37.8z"/>
		</g>
		<g>
			<path class="st0" d="M82.3,34.4c-1.8-0.4-2.7,0.1-2.9,1.3c-0.2,1.1,0.6,1.8,2.3,2.2c13.6,2.7,23.2,10.5,28.4,23.4
				c1,2.5,1.5,5.2,2.2,7.8c0.3,1,1,1.6,1.9,1.5c0.9-0.1,1.6-0.9,1.6-2.1c-0.2-1.1-0.5-2.6-0.9-3.9C110,48.1,99.2,38,82.3,34.4z"/>
		</g>
	</g>
	<g>
		<g>
			<path class="st0" d="M26.5,125.3c-0.5,0-0.9-0.2-1.3-0.5c-0.7-0.7-0.7-1.9,0-2.6l97-97c0.7-0.7,1.9-0.7,2.6,0
				c0.7,0.7,0.7,1.9,0,2.6l-97,97C27.4,125.1,27,125.3,26.5,125.3z"/>
			<path class="st0" d="M26.5,128.3c-1.3,0-2.5-0.5-3.4-1.4c-0.9-0.9-1.4-2.1-1.4-3.4c0-1.3,0.5-2.5,1.4-3.4l97-97
				c1.9-1.9,4.9-1.9,6.8,0c0.9,0.9,1.4,2.1,1.4,3.4c0,1.3-0.5,2.5-1.4,3.4l-97,97C29,127.8,27.8,128.3,26.5,128.3z"/>
		</g>
	</g>
	<g>
		<g>
			<path class="st0" d="M75,145.5c-38.9,0-70.5-31.6-70.5-70.5C4.5,36.1,36.1,4.5,75,4.5c38.9,0,70.5,31.6,70.5,70.5
				C145.5,113.9,113.9,145.5,75,145.5z M75,8.4C38.3,8.4,8.4,38.3,8.4,75s29.9,66.6,66.6,66.6s66.6-29.9,66.6-66.6S111.7,8.4,75,8.4
				z"/>
			<path class="st0" d="M75,148.5c-40.5,0-73.5-33-73.5-73.5S34.5,1.5,75,1.5s73.5,33,73.5,73.5S115.5,148.5,75,148.5z M75,11.4
				c-35.1,0-63.6,28.5-63.6,63.6s28.5,63.6,63.6,63.6s63.6-28.5,63.6-63.6S110.1,11.4,75,11.4z"/>
		</g>
	</g>
	<g>
		<path class="st0" d="M75.1,59.5c-8.5-0.1-15.5,6.8-15.6,15.3c-0.1,8.6,6.7,15.5,15.2,15.7c8.7,0.1,15.7-6.6,15.8-15.2
			C90.6,66.6,83.8,59.6,75.1,59.5z M74.9,87.3c-6.7,0-12.2-5.6-12.2-12.3c0-6.7,5.5-12.2,12.3-12.2c6.7,0,12.3,5.5,12.3,12.2
			C87.3,81.7,81.7,87.3,74.9,87.3z"/>
	</g>
</g>
</svg>
