<?xml version="1.0" encoding="UTF-8"?>
<svg id="Calque_2" data-name="Calque 2" xmlns="http://www.w3.org/2000/svg" viewBox="0 0 367.35 358.23">
  <defs>
    <style>
      .cls-1 {
        fill: #fff;
        opacity: .38;
      }

      .cls-2 {
        fill: #ffff5e;
        opacity: .96;
      }
    </style>
  </defs>
  <polygon class="cls-2" points="362.79 179.11 362.58 179.11 207.11 167.75 257.96 104.84 258.05 104.75 258 104.79 258.04 104.74 257.95 104.83 194.64 156.01 183.68 .22 183.68 0 183.68 .11 183.67 0 183.67 .22 172.72 156.01 109.4 104.83 109.31 104.74 109.35 104.79 109.3 104.75 109.39 104.84 160.24 167.75 4.78 179.11 4.56 179.11 4.67 179.12 4.56 179.13 4.78 179.13 160.24 190.49 109.39 253.39 109.3 253.48 109.35 253.44 109.31 253.49 109.4 253.4 172.72 202.22 183.67 358.02 183.67 358.23 183.68 358.13 183.68 358.23 183.68 358.02 194.64 202.22 257.95 253.4 258.04 253.49 258 253.44 258.05 253.48 257.96 253.39 207.11 190.49 362.58 179.13 362.79 179.13 362.68 179.12 362.79 179.11"/>
  <polygon class="cls-1" points="71.59 67.02 71.73 67.16 176.13 157.33 183.67 86.15 183.67 86.03 183.68 86.09 183.68 86.03 183.68 86.15 191.28 157.8 295.63 67.16 295.76 67.02 295.7 67.09 295.77 67.03 295.64 67.17 204.99 171.52 276.65 179.11 276.76 179.11 276.7 179.12 276.76 179.12 276.65 179.12 205.46 186.67 295.64 291.07 295.77 291.2 295.7 291.14 295.76 291.21 295.63 291.08 191.23 200.9 183.68 272.09 183.68 272.2 183.68 272.14 183.67 272.2 183.67 272.09 176.08 200.43 71.73 291.08 71.59 291.21 71.65 291.14 71.58 291.2 71.72 291.07 162.36 186.72 90.71 179.12 90.59 179.12 90.65 179.12 90.59 179.11 90.71 179.11 161.89 171.57 71.72 67.17 71.58 67.03 71.65 67.09 71.59 67.02"/>
</svg>