<?xml version="1.0" encoding="utf-8"?>
<!-- Generator: Adobe Illustrator 27.5.0, SVG Export Plug-In . SVG Version: 6.00 Build 0)  -->
<svg version="1.1" id="Calque_1" xmlns="http://www.w3.org/2000/svg" xmlns:xlink="http://www.w3.org/1999/xlink" x="0px" y="0px"
	 viewBox="0 0 104.9 100" style="enable-background:new 0 0 104.9 100;" xml:space="preserve">
<style type="text/css">
	.st0{enable-background:new    ;}
	.st1{clip-path:url(#SVGID_00000080197791231144217070000007609431013029760924_);enable-background:new    ;}
	.st2{fill:#000385;}
	.st3{clip-path:url(#SVGID_00000174580070633968016990000015476093064280142783_);enable-background:new    ;}
	.st4{clip-path:url(#SVGID_00000127760872594263675490000009156215066385076664_);enable-background:new    ;}
	.st5{fill:#00038A;}
	.st6{fill:#00038F;}
	.st7{fill:#000394;}
	.st8{fill:#000399;}
	.st9{fill:#00039E;}
	.st10{fill:#0003A3;}
	.st11{clip-path:url(#SVGID_00000039815621577645827070000000082927527273667735_);enable-background:new    ;}
	.st12{clip-path:url(#SVGID_00000051343776347509621380000011343731499912810383_);enable-background:new    ;}
	.st13{clip-path:url(#SVGID_00000130608615101891764740000018077376402351755904_);enable-background:new    ;}
	.st14{clip-path:url(#SVGID_00000031904616393278208060000013389169342880088760_);enable-background:new    ;}
	.st15{clip-path:url(#SVGID_00000139973079976291685670000016862073735883390392_);enable-background:new    ;}
	.st16{clip-path:url(#SVGID_00000133500861453199973100000016067123500634793658_);enable-background:new    ;}
	.st17{clip-path:url(#SVGID_00000026850041567004987960000017747952986415463301_);enable-background:new    ;}
	.st18{fill:#0004DD;}
	.st19{clip-path:url(#SVGID_00000064324193229506892260000006135198643802293899_);enable-background:new    ;}
	.st20{clip-path:url(#SVGID_00000103965021819671891820000014689948011744170654_);enable-background:new    ;}
	.st21{clip-path:url(#SVGID_00000106110287864149993610000017347574253034967196_);enable-background:new    ;}
	.st22{clip-path:url(#SVGID_00000029011959690127703410000016335018151405131150_);enable-background:new    ;}
	.st23{clip-path:url(#SVGID_00000051379157381061886730000012842363456340647302_);enable-background:new    ;}
	.st24{clip-path:url(#SVGID_00000149379992533336919030000004341182716788101766_);enable-background:new    ;}
	.st25{clip-path:url(#SVGID_00000060021831234992667850000015855303798616683939_);enable-background:new    ;}
	.st26{clip-path:url(#SVGID_00000075880376725765786860000016879363248545910426_);enable-background:new    ;}
	.st27{clip-path:url(#SVGID_00000005962165662347903410000001896732378099674797_);enable-background:new    ;}
	.st28{clip-path:url(#SVGID_00000002362503050875318670000004304764154180493218_);enable-background:new    ;}
	.st29{clip-path:url(#SVGID_00000176011427294542043780000010416826025347825549_);enable-background:new    ;}
	.st30{clip-path:url(#SVGID_00000062169602943296852630000011001027571879715754_);enable-background:new    ;}
	.st31{clip-path:url(#SVGID_00000150073582025845906590000017743239385158269318_);enable-background:new    ;}
	.st32{clip-path:url(#SVGID_00000075161426378177210100000001784577415748142752_);enable-background:new    ;}
	.st33{clip-path:url(#SVGID_00000135664819442022806320000005242980779740434049_);enable-background:new    ;}
</style>
<g>
	<g>
		<g class="st0">
			<g class="st0">
				<defs>
					<path id="SVGID_1_" class="st0" d="M52.5,85.1l0-6.1c0.8-0.7,1.6-1.5,2.6-2.2c0.9-0.7,1.9-1.5,2.9-2.2c1-0.7,2.1-1.5,3.2-2.3
						c1.1-0.8,2.3-1.5,3.5-2.3c0.5-0.3,1-0.6,1.5-1s1-0.7,1.5-1c0.5-0.3,1-0.7,1.5-1c0.5-0.3,1-0.7,1.5-1l3.8,3.4
						c-0.6,0.4-1.2,0.8-1.8,1.3c-0.6,0.4-1.2,0.8-1.8,1.2c-0.6,0.4-1.2,0.8-1.8,1.2c-0.6,0.4-1.2,0.8-1.8,1.2
						c-1.4,1-2.8,1.9-4.2,2.8c-1.3,0.9-2.6,1.8-3.9,2.7s-2.4,1.8-3.5,2.7S53.4,84.2,52.5,85.1z"/>
				</defs>
				<clipPath id="SVGID_00000157271926840838863100000003182419673506616729_">
					<use xlink:href="#SVGID_1_"  style="overflow:visible;"/>
				</clipPath>
				<g style="clip-path:url(#SVGID_00000157271926840838863100000003182419673506616729_);enable-background:new    ;">
					<path class="st2" d="M52.5,85.1l0-6.1c0.8-0.7,1.6-1.5,2.6-2.2c0.9-0.7,1.9-1.5,2.9-2.2c1-0.7,2.1-1.5,3.2-2.3
						c1.1-0.8,2.3-1.5,3.5-2.3c0.5-0.3,1-0.6,1.5-1s1-0.7,1.5-1c0.5-0.3,1-0.7,1.5-1c0.5-0.3,1-0.7,1.5-1l3.8,3.4
						c-0.6,0.4-1.2,0.8-1.8,1.3c-0.6,0.4-1.2,0.8-1.8,1.2c-0.6,0.4-1.2,0.8-1.8,1.2c-0.6,0.4-1.2,0.8-1.8,1.2
						c-1.4,1-2.8,1.9-4.2,2.8c-1.3,0.9-2.6,1.8-3.9,2.7s-2.4,1.8-3.5,2.7S53.4,84.2,52.5,85.1"/>
				</g>
			</g>
			<g class="st0">
				<defs>
					<path id="SVGID_00000134227252438098435950000003738572040047790753_" class="st0" d="M74.3,69.3L70.5,66
						c1.5-1,2.5-2.1,3.2-3.1c0.7-1,1.1-2,1.3-3c0.2-1,0.1-2-0.1-2.9s-0.5-1.9-0.9-2.8l4.5,0.9c0.4,1.1,0.8,2.3,1,3.4
						c0.2,1.2,0.3,2.3,0.1,3.5c-0.2,1.2-0.7,2.4-1.6,3.6C77.3,66.9,76.1,68.1,74.3,69.3z"/>
				</defs>
				<clipPath id="SVGID_00000008111413386718120110000006608753395377058688_">
					<use xlink:href="#SVGID_00000134227252438098435950000003738572040047790753_"  style="overflow:visible;"/>
				</clipPath>
				<g style="clip-path:url(#SVGID_00000008111413386718120110000006608753395377058688_);enable-background:new    ;">
					<path class="st2" d="M74.3,69.3L70.5,66c1.5-1,2.5-2.1,3.2-3.1c0.7-1,1.1-2,1.3-3c0.2-1,0.1-2-0.1-2.9s-0.5-1.9-0.9-2.8
						l4.5,0.9c0.4,1.1,0.8,2.3,1,3.4c0.2,1.2,0.3,2.3,0.1,3.5c-0.2,1.2-0.7,2.4-1.6,3.6C77.3,66.9,76.1,68.1,74.3,69.3"/>
				</g>
			</g>
			<g class="st0">
				<defs>
					<path id="SVGID_00000111898806160848799490000009139582454006512512_" class="st0" d="M26.3,55l4.5-0.9
						C30.5,55.1,30.2,56,30,57c-0.2,1-0.2,1.9-0.1,2.9c0.2,1,0.6,2,1.3,3c0.7,1,1.8,2,3.2,3.1c0.5,0.3,1,0.7,1.5,1
						c0.5,0.3,1,0.7,1.5,1c0.5,0.3,1,0.7,1.5,1c0.5,0.3,1,0.6,1.4,1c1.2,0.8,2.3,1.6,3.5,2.3s2.2,1.5,3.2,2.3c1,0.7,2,1.5,2.9,2.2
						c0.9,0.7,1.8,1.5,2.6,2.2l0,6.1c-0.9-0.9-2-1.8-3.1-2.7c-1.1-0.9-2.3-1.8-3.5-2.7C44.6,78.9,43.3,78,42,77
						c-1.4-0.9-2.8-1.9-4.2-2.8c-0.6-0.4-1.2-0.8-1.7-1.2c-0.6-0.4-1.2-0.8-1.8-1.2c-0.6-0.4-1.2-0.8-1.8-1.2
						c-0.6-0.4-1.2-0.8-1.8-1.3c-1.8-1.2-3-2.5-3.9-3.7c-0.9-1.2-1.4-2.4-1.6-3.6s-0.1-2.4,0.1-3.6C25.5,57.3,25.9,56.1,26.3,55z"/>
				</defs>
				<clipPath id="SVGID_00000150806936371821653150000004157851068036999606_">
					<use xlink:href="#SVGID_00000111898806160848799490000009139582454006512512_"  style="overflow:visible;"/>
				</clipPath>
				<g style="clip-path:url(#SVGID_00000150806936371821653150000004157851068036999606_);enable-background:new    ;">
					<path class="st5" d="M26.3,55l4.5-0.9c-0.1,0.1-0.1,0.3-0.2,0.4c0,0.1-0.1,0.3-0.1,0.4s-0.1,0.3-0.1,0.4s-0.1,0.3-0.1,0.4
						L25.6,57c0-0.2,0.1-0.3,0.2-0.5s0.1-0.3,0.2-0.5c0.1-0.2,0.1-0.3,0.2-0.5C26.2,55.3,26.2,55.1,26.3,55"/>
					<path class="st6" d="M25.6,57l4.7-1.2c0,0.2-0.1,0.3-0.1,0.5c0,0.2-0.1,0.3-0.1,0.5c0,0.2-0.1,0.3-0.1,0.5
						c0,0.2-0.1,0.3-0.1,0.5l-4.7,1.6c0-0.2,0.1-0.4,0.1-0.6s0.1-0.4,0.1-0.6s0.1-0.4,0.1-0.6C25.5,57.3,25.6,57.2,25.6,57"/>
					<path class="st7" d="M25.1,59.2l4.7-1.6c0,0.1,0,0.2,0,0.3c0,0.1,0,0.2,0,0.3s0,0.2,0,0.3c0,0.1,0,0.2,0,0.3L25,60.7
						c0-0.1,0-0.3,0-0.4c0-0.1,0-0.3,0-0.4c0-0.1,0-0.3,0-0.4S25.1,59.3,25.1,59.2"/>
					<path class="st8" d="M25,60.7l4.8-1.9c0,0.1,0,0.2,0,0.3c0,0.1,0,0.2,0,0.3c0,0.1,0,0.2,0,0.3c0,0.1,0,0.2,0,0.3l-4.7,2.1
						c0-0.1,0-0.2-0.1-0.3c0-0.1,0-0.2,0-0.3c0-0.1,0-0.2,0-0.3C25,61,25,60.9,25,60.7"/>
					<path class="st9" d="M25.2,62.1l4.7-2.1c0,0.1,0,0.2,0.1,0.3c0,0.1,0.1,0.2,0.1,0.3s0.1,0.2,0.1,0.3c0,0.1,0.1,0.2,0.1,0.3
						l-4.6,2.4c-0.1-0.1-0.1-0.3-0.2-0.4s-0.1-0.3-0.1-0.4c0-0.1-0.1-0.3-0.1-0.4C25.2,62.4,25.2,62.3,25.2,62.1"/>
					<path class="st10" d="M25.7,63.8l4.6-2.4c0.2,0.4,0.4,0.8,0.6,1.1c0.2,0.4,0.5,0.8,0.9,1.2c0.3,0.4,0.7,0.8,1.2,1.2
						c0.4,0.4,0.9,0.8,1.5,1.2c0.5,0.3,1,0.7,1.5,1c0.5,0.3,1,0.7,1.5,1c0.5,0.3,1,0.7,1.5,1c0.5,0.3,1,0.6,1.4,1
						c1.2,0.8,2.3,1.6,3.5,2.3s2.2,1.5,3.2,2.3c1,0.7,2,1.5,2.9,2.2c0.9,0.7,1.8,1.5,2.6,2.2l0,6.1c-0.9-0.9-2-1.8-3.1-2.7
						c-1.1-0.9-2.3-1.8-3.5-2.7C44.6,78.9,43.3,78,42,77c-1.4-0.9-2.8-1.9-4.2-2.8c-0.6-0.4-1.2-0.8-1.7-1.2
						c-0.6-0.4-1.2-0.8-1.8-1.2c-0.6-0.4-1.2-0.8-1.8-1.2c-0.6-0.4-1.2-0.8-1.8-1.3c-0.7-0.5-1.3-0.9-1.8-1.4
						c-0.5-0.5-1-0.9-1.4-1.4c-0.4-0.5-0.8-0.9-1-1.4S25.9,64.2,25.7,63.8"/>
				</g>
			</g>
			<g class="st0">
				<defs>
					<path id="SVGID_00000057856352493455246690000012751330408563303564_" class="st0" d="M78.6,55l-4.5-0.9
						c-0.3-0.6-0.6-1.2-0.8-1.8c-0.2-0.6-0.4-1.2-0.6-1.8c-0.1-0.6-0.2-1.2-0.3-1.7s-0.1-1.1-0.1-1.6l4.2-0.6c0,0.6,0.1,1.2,0.1,1.9
						c0.1,0.7,0.2,1.3,0.4,2.1c0.2,0.7,0.4,1.4,0.7,2.2C77.9,53.5,78.2,54.3,78.6,55z"/>
				</defs>
				<clipPath id="SVGID_00000057828436738301281270000009716919786271164040_">
					<use xlink:href="#SVGID_00000057856352493455246690000012751330408563303564_"  style="overflow:visible;"/>
				</clipPath>
				<g style="clip-path:url(#SVGID_00000057828436738301281270000009716919786271164040_);enable-background:new    ;">
					<path class="st2" d="M78.6,55l-4.5-0.9c-0.3-0.6-0.6-1.2-0.8-1.8c-0.2-0.6-0.4-1.2-0.6-1.8c-0.1-0.6-0.2-1.2-0.3-1.7
						s-0.1-1.1-0.1-1.6l4.2-0.6c0,0.6,0.1,1.2,0.1,1.9c0.1,0.7,0.2,1.3,0.4,2.1c0.2,0.7,0.4,1.4,0.7,2.2
						C77.9,53.5,78.2,54.3,78.6,55"/>
				</g>
			</g>
			<g class="st0">
				<defs>
					<path id="SVGID_00000013900411558437222780000006694741368421765250_" class="st0" d="M28.5,46.7l4.2,0.6c0,0.5,0,1-0.1,1.6
						c-0.1,0.5-0.2,1.1-0.3,1.7s-0.3,1.2-0.6,1.8c-0.2,0.6-0.5,1.2-0.8,1.8L26.3,55c0.4-0.7,0.7-1.5,1-2.2c0.3-0.7,0.5-1.4,0.7-2.2
						s0.3-1.4,0.4-2.1S28.5,47.3,28.5,46.7z"/>
				</defs>
				<clipPath id="SVGID_00000136382371064334812260000008820237170445813655_">
					<use xlink:href="#SVGID_00000013900411558437222780000006694741368421765250_"  style="overflow:visible;"/>
				</clipPath>
				<g style="clip-path:url(#SVGID_00000136382371064334812260000008820237170445813655_);enable-background:new    ;">
					<path class="st7" d="M28.5,46.7l4.2,0.6c0,0.1,0,0.3,0,0.4s0,0.3,0,0.4c0,0.1,0,0.3,0,0.4s0,0.3-0.1,0.5l-4.2-0.2
						c0-0.2,0-0.4,0.1-0.6c0-0.2,0-0.4,0-0.5c0-0.2,0-0.4,0-0.5C28.5,47,28.5,46.8,28.5,46.7"/>
					<path class="st6" d="M28.3,48.8l4.2,0.2c0,0.2-0.1,0.4-0.1,0.5c0,0.2-0.1,0.4-0.1,0.6s-0.1,0.4-0.1,0.6c0,0.2-0.1,0.4-0.2,0.6
						l-4.3,0.3c0.1-0.2,0.1-0.5,0.2-0.7c0.1-0.2,0.1-0.5,0.2-0.7s0.1-0.4,0.1-0.7S28.3,49,28.3,48.8"/>
					<path class="st5" d="M27.8,51.5l4.3-0.3c-0.1,0.2-0.1,0.4-0.2,0.6c-0.1,0.2-0.1,0.4-0.2,0.6c-0.1,0.2-0.2,0.4-0.3,0.6
						s-0.2,0.4-0.3,0.6l-4.5,0.8c0.1-0.2,0.2-0.5,0.3-0.7s0.2-0.5,0.3-0.7c0.1-0.2,0.2-0.5,0.3-0.7C27.6,52,27.7,51.7,27.8,51.5"/>
					<path class="st2" d="M26.6,54.4l4.5-0.8c0,0,0,0.1-0.1,0.1s0,0.1-0.1,0.1c0,0,0,0.1-0.1,0.1c0,0,0,0.1-0.1,0.1L26.3,55
						c0,0,0.1-0.1,0.1-0.1c0,0,0.1-0.1,0.1-0.1c0,0,0.1-0.1,0.1-0.1C26.6,54.5,26.6,54.4,26.6,54.4"/>
				</g>
			</g>
			<g class="st0">
				<defs>
					<path id="SVGID_00000049918476366961424170000013562687698158870195_" class="st0" d="M76.4,46.7l-4.2,0.6
						c-0.6-0.6-1.1-1.2-1.5-1.8c-0.4-0.7-0.8-1.4-1.1-2.1c-0.3-0.7-0.5-1.5-0.7-2.3s-0.2-1.6-0.2-2.5l3.4-2.4c0,1,0.1,2,0.3,3
						s0.5,1.9,0.8,2.8c0.4,0.9,0.8,1.7,1.4,2.5C75.1,45.3,75.7,46,76.4,46.7z"/>
				</defs>
				<clipPath id="SVGID_00000068662801390667848700000015517036148520201137_">
					<use xlink:href="#SVGID_00000049918476366961424170000013562687698158870195_"  style="overflow:visible;"/>
				</clipPath>
				<g style="clip-path:url(#SVGID_00000068662801390667848700000015517036148520201137_);enable-background:new    ;">
					<path class="st2" d="M76.4,46.7l-4.2,0.6c-0.6-0.6-1.1-1.2-1.5-1.8c-0.4-0.7-0.8-1.4-1.1-2.1c-0.3-0.7-0.5-1.5-0.7-2.3
						s-0.2-1.6-0.2-2.5l3.4-2.4c0,1,0.1,2,0.3,3s0.5,1.9,0.8,2.8c0.4,0.9,0.8,1.7,1.4,2.5C75.1,45.3,75.7,46,76.4,46.7"/>
				</g>
			</g>
			<g class="st0">
				<defs>
					<path id="SVGID_00000143619271713885805710000002271734933937851265_" class="st0" d="M32.9,35.9l3.4,2.4
						c0,0.9-0.1,1.7-0.2,2.6s-0.4,1.6-0.7,2.4c-0.3,0.7-0.7,1.5-1.1,2.1c-0.4,0.7-1,1.3-1.5,1.8l-4.2-0.6c0.7-0.7,1.3-1.4,1.9-2.2
						c0.5-0.8,1-1.7,1.4-2.6s0.7-1.9,0.8-2.9S32.9,37,32.9,35.9z"/>
				</defs>
				<clipPath id="SVGID_00000067940743557135579820000012716608144154267796_">
					<use xlink:href="#SVGID_00000143619271713885805710000002271734933937851265_"  style="overflow:visible;"/>
				</clipPath>
				<g style="clip-path:url(#SVGID_00000067940743557135579820000012716608144154267796_);enable-background:new    ;">
					<path class="st7" d="M32.9,35.9l3.4,2.4c0,0.2,0,0.3,0,0.5c0,0.2,0,0.3,0,0.5c0,0.2,0,0.3,0,0.4c0,0.1,0,0.3-0.1,0.4l-3.4-2.1
						c0-0.2,0-0.4,0.1-0.5c0-0.2,0-0.4,0-0.5c0-0.2,0-0.4,0-0.6C32.9,36.3,32.9,36.1,32.9,35.9"/>
					<path class="st6" d="M32.7,38.1l3.4,2.1c0,0.2,0,0.3-0.1,0.5c0,0.2-0.1,0.3-0.1,0.5s-0.1,0.3-0.1,0.5s-0.1,0.3-0.1,0.5
						l-3.5-1.6c0.1-0.2,0.1-0.4,0.2-0.6c0-0.2,0.1-0.4,0.1-0.6c0-0.2,0.1-0.4,0.1-0.6C32.7,38.5,32.7,38.3,32.7,38.1"/>
					<path class="st5" d="M32.2,40.5l3.5,1.6c-0.1,0.2-0.1,0.4-0.2,0.5c-0.1,0.2-0.1,0.3-0.2,0.5c-0.1,0.2-0.1,0.3-0.2,0.5
						c-0.1,0.2-0.2,0.3-0.2,0.5L31.2,43c0.1-0.2,0.2-0.4,0.3-0.6s0.2-0.4,0.3-0.6c0.1-0.2,0.2-0.4,0.2-0.6
						C32.1,40.9,32.2,40.7,32.2,40.5"/>
					<path class="st2" d="M31.2,43l3.7,1.2c-0.1,0.3-0.3,0.6-0.5,0.8c-0.2,0.3-0.3,0.5-0.5,0.8c-0.2,0.3-0.4,0.5-0.6,0.7
						c-0.2,0.2-0.4,0.5-0.7,0.7l-4.2-0.6c0.3-0.3,0.5-0.6,0.8-0.8c0.3-0.3,0.5-0.6,0.7-0.9s0.4-0.6,0.6-1
						C30.9,43.6,31.1,43.3,31.2,43"/>
				</g>
			</g>
			<g class="st0">
				<defs>
					<path id="SVGID_00000065041451476307556480000009890383492585726115_" class="st0" d="M23.9,30.8l5,3.3
						c-0.2-0.1-0.4-0.3-0.7-0.4c-0.2-0.1-0.4-0.2-0.6-0.2s-0.4-0.1-0.6-0.1c-0.2,0-0.3,0-0.5,0L21,29.9c0.2,0,0.3,0,0.6,0
						c0.2,0,0.4,0.1,0.7,0.1c0.2,0.1,0.5,0.1,0.8,0.2S23.6,30.6,23.9,30.8z"/>
				</defs>
				<clipPath id="SVGID_00000149373261672900203750000017166313391984424355_">
					<use xlink:href="#SVGID_00000065041451476307556480000009890383492585726115_"  style="overflow:visible;"/>
				</clipPath>
				<g style="clip-path:url(#SVGID_00000149373261672900203750000017166313391984424355_);enable-background:new    ;">
					<path class="st2" d="M23.9,30.8l5,3.3c-0.2-0.1-0.4-0.3-0.7-0.4c-0.2-0.1-0.4-0.2-0.6-0.2s-0.4-0.1-0.6-0.1c-0.2,0-0.3,0-0.5,0
						L21,29.9c0.2,0,0.3,0,0.6,0c0.2,0,0.4,0.1,0.7,0.1c0.2,0.1,0.5,0.1,0.8,0.2S23.6,30.6,23.9,30.8"/>
				</g>
			</g>
			<g class="st0">
				<defs>
					<path id="SVGID_00000145030716605471182950000017703116985753425049_" class="st0" d="M21,29.9l5.5,3.5c-0.1,0-0.1,0-0.2,0
						s-0.1,0-0.1,0c0,0-0.1,0-0.1,0c0,0,0,0,0,0L20.5,30c0,0,0,0,0,0c0,0,0.1,0,0.1,0c0,0,0.1,0,0.1,0C20.9,29.9,20.9,29.9,21,29.9z
						"/>
				</defs>
				<clipPath id="SVGID_00000142169105323169078250000002254307701072722604_">
					<use xlink:href="#SVGID_00000145030716605471182950000017703116985753425049_"  style="overflow:visible;"/>
				</clipPath>
				<g style="clip-path:url(#SVGID_00000142169105323169078250000002254307701072722604_);enable-background:new    ;">
					<path class="st2" d="M21,29.9l5.5,3.5c-0.1,0-0.1,0-0.2,0s-0.1,0-0.1,0c0,0-0.1,0-0.1,0c0,0,0,0,0,0L20.5,30c0,0,0,0,0,0
						c0,0,0.1,0,0.1,0c0,0,0.1,0,0.1,0C20.9,29.9,20.9,29.9,21,29.9"/>
				</g>
			</g>
			<g class="st0">
				<defs>
					<path id="SVGID_00000102528307702886063600000006729161447402026124_" class="st0" d="M76.1,34.1l5-3.3
						c0.3-0.2,0.5-0.3,0.8-0.4c0.3-0.1,0.5-0.2,0.8-0.2c0.2-0.1,0.5-0.1,0.7-0.1c0.2,0,0.4,0,0.6,0c0.1,0,0.1,0,0.2,0s0.1,0,0.1,0
						c0,0,0.1,0,0.1,0c0,0,0,0,0,0l-5.5,3.5c0,0,0,0,0,0c0,0,0,0-0.1,0c0,0-0.1,0-0.1,0c0,0-0.1,0-0.2,0c-0.1,0-0.3,0-0.5,0
						s-0.4,0-0.6,0.1s-0.4,0.1-0.6,0.2C76.5,33.8,76.3,34,76.1,34.1z"/>
				</defs>
				<clipPath id="SVGID_00000087390219465046771180000013135020325161394081_">
					<use xlink:href="#SVGID_00000102528307702886063600000006729161447402026124_"  style="overflow:visible;"/>
				</clipPath>
				<g style="clip-path:url(#SVGID_00000087390219465046771180000013135020325161394081_);enable-background:new    ;">
					<path class="st2" d="M84.4,30l-5.5,3.5c0,0,0,0,0,0c0,0,0,0-0.1,0c0,0-0.1,0-0.1,0c0,0-0.1,0-0.2,0c-0.1,0-0.3,0-0.5,0
						s-0.4,0-0.6,0.1s-0.4,0.1-0.6,0.2c-0.2,0.1-0.4,0.2-0.7,0.4l5-3.3c0.3-0.2,0.5-0.3,0.8-0.4c0.3-0.1,0.5-0.2,0.8-0.2
						c0.2-0.1,0.5-0.1,0.7-0.1c0.2,0,0.4,0,0.6,0c0.1,0,0.1,0,0.2,0s0.1,0,0.1,0C84.3,30,84.3,30,84.4,30C84.4,30,84.4,30,84.4,30"
						/>
				</g>
			</g>
			<g>
				<path class="st18" d="M52.5,26.5c0.6,0.2,1.2,0.4,1.8,0.6c0.6,0.2,1.2,0.3,1.8,0.4s1.2,0.2,1.8,0.3c0.6,0.1,1.2,0.1,1.8,0.1
					c0.3,0,0.7,0,1.1,0s0.8-0.1,1.3-0.1c0.5-0.1,0.9-0.1,1.5-0.3c0.5-0.1,1-0.2,1.6-0.4c0,0,0.1,0.1,0.1,0.1c0,0,0.1,0.1,0.1,0.1
					c0,0,0.1,0.1,0.1,0.1s0.1,0.1,0.1,0.1c-0.2,0.6-0.5,1.3-0.7,2s-0.4,1.4-0.5,2c-0.1,0.7-0.2,1.4-0.3,2.1C64,34.4,64,35.2,64,35.9
					c0,1.3,0.1,2.6,0.3,3.9s0.5,2.5,0.9,3.7c0.4,1.2,0.9,2.3,1.5,3.4c0.6,1.1,1.2,2.2,2,3.1c0.1,0.7,0.2,1.5,0.4,2.2
					s0.4,1.5,0.6,2.2c0.2,0.7,0.5,1.4,0.8,2.1c0.3,0.7,0.6,1.3,0.9,1.9c0.2,0.6,0.4,1,0.5,1.4s0.1,0.6,0,0.9
					c-0.1,0.3-0.3,0.5-0.6,0.8c-0.3,0.3-0.8,0.6-1.4,1.1c-0.6,0.4-1.2,0.8-1.8,1.2c-0.6,0.4-1.2,0.8-1.8,1.2
					c-0.6,0.4-1.2,0.8-1.8,1.2c-0.6,0.4-1.2,0.8-1.8,1.2c-1,0.6-1.9,1.3-2.8,1.9c-0.9,0.6-1.8,1.2-2.6,1.8c-0.8,0.6-1.7,1.2-2.5,1.7
					s-1.6,1.1-2.3,1.7c-0.8-0.6-1.5-1.1-2.3-1.7c-0.8-0.6-1.6-1.2-2.5-1.7c-0.8-0.6-1.7-1.2-2.6-1.8c-0.9-0.6-1.8-1.2-2.8-1.9
					L42,67.2c-0.6-0.4-1.1-0.7-1.7-1.1c-0.6-0.4-1.1-0.8-1.7-1.1c-0.6-0.4-1.1-0.8-1.7-1.2c-0.6-0.4-1.1-0.8-1.7-1.2
					c-0.6-0.4-1.1-0.8-1.4-1.1c-0.3-0.3-0.5-0.5-0.6-0.8c-0.1-0.3-0.1-0.6,0-0.9c0.1-0.4,0.3-0.8,0.5-1.4c0.3-0.6,0.6-1.3,0.9-1.9
					c0.3-0.7,0.5-1.3,0.8-2.1c0.2-0.7,0.4-1.4,0.6-2.1c0.2-0.7,0.3-1.5,0.4-2.2c0.8-1,1.4-2,2-3.1c0.6-1.1,1.1-2.2,1.5-3.4
					s0.7-2.4,0.9-3.7s0.3-2.5,0.3-3.9c0-0.8-0.1-1.5-0.1-2.2c-0.1-0.7-0.2-1.4-0.3-2.1c-0.1-0.7-0.3-1.4-0.5-2.1
					c-0.2-0.7-0.4-1.3-0.7-2c0,0,0.1-0.1,0.1-0.1s0.1-0.1,0.1-0.1c0,0,0.1-0.1,0.1-0.1c0,0,0.1-0.1,0.1-0.1c0.5,0.2,1.1,0.3,1.6,0.4
					c0.5,0.1,1,0.2,1.5,0.3c0.5,0.1,0.9,0.1,1.3,0.1c0.4,0,0.8,0,1.1,0c0.6,0,1.2,0,1.8-0.1c0.6-0.1,1.2-0.1,1.8-0.3
					s1.2-0.3,1.8-0.4C51.3,26.9,51.9,26.7,52.5,26.5z"/>
			</g>
			<g class="st0">
				<defs>
					<path id="SVGID_00000124154997926577331450000010617511558799195812_" class="st0" d="M77.9,24.7l-4.4,4.4c0,0,0,0,0-0.1
						s0,0,0-0.1s0,0,0-0.1c0,0,0,0,0-0.1l4.4-4.4c0,0,0,0.1,0,0.1c0,0,0,0.1,0,0.1C77.9,24.6,77.9,24.6,77.9,24.7
						C77.9,24.7,77.9,24.7,77.9,24.7z"/>
				</defs>
				<clipPath id="SVGID_00000001626562251128838670000004559322788445405849_">
					<use xlink:href="#SVGID_00000124154997926577331450000010617511558799195812_"  style="overflow:visible;"/>
				</clipPath>
				<g style="clip-path:url(#SVGID_00000001626562251128838670000004559322788445405849_);enable-background:new    ;">
					<path class="st2" d="M77.9,24.7l-4.4,4.4c0,0,0,0,0-0.1s0,0,0-0.1s0,0,0-0.1c0,0,0,0,0-0.1l4.4-4.4c0,0,0,0.1,0,0.1
						c0,0,0,0.1,0,0.1C77.9,24.6,77.9,24.6,77.9,24.7C77.9,24.7,77.9,24.7,77.9,24.7"/>
				</g>
			</g>
			<g class="st0">
				<defs>
					<path id="SVGID_00000013871377957008143140000001034355481335921292_" class="st0" d="M77.9,24.4l-4.4,4.4c0,0-0.1,0-0.1,0
						c0,0-0.1,0-0.1,0s-0.1,0-0.1,0c0,0-0.1,0-0.1,0c-1.2,0-2.3-0.3-3.1-0.7c-0.9-0.5-1.6-1.1-2.2-1.8s-1.1-1.5-1.5-2.2
						c-0.4-0.7-0.7-1.4-0.9-2l2.7-5.8c0.3,0.7,0.7,1.5,1.1,2.4s1.1,1.8,1.8,2.7s1.6,1.6,2.7,2.2c1.1,0.6,2.3,0.9,3.8,0.9
						c0,0,0.1,0,0.1,0c0,0,0.1,0,0.1,0c0,0,0.1,0,0.1,0C77.8,24.4,77.9,24.4,77.9,24.4z"/>
				</defs>
				<clipPath id="SVGID_00000115490253007365036020000015567846613141257633_">
					<use xlink:href="#SVGID_00000013871377957008143140000001034355481335921292_"  style="overflow:visible;"/>
				</clipPath>
				<g style="clip-path:url(#SVGID_00000115490253007365036020000015567846613141257633_);enable-background:new    ;">
					<path class="st2" d="M77.9,24.4l-4.4,4.4c0,0-0.1,0-0.1,0c0,0-0.1,0-0.1,0s-0.1,0-0.1,0c0,0-0.1,0-0.1,0
						c-1.2,0-2.3-0.3-3.1-0.7c-0.9-0.5-1.6-1.1-2.2-1.8s-1.1-1.5-1.5-2.2c-0.4-0.7-0.7-1.4-0.9-2l2.7-5.8c0.3,0.7,0.7,1.5,1.1,2.4
						s1.1,1.8,1.8,2.7s1.6,1.6,2.7,2.2c1.1,0.6,2.3,0.9,3.8,0.9c0,0,0.1,0,0.1,0c0,0,0.1,0,0.1,0c0,0,0.1,0,0.1,0
						C77.8,24.4,77.9,24.4,77.9,24.4"/>
				</g>
			</g>
			<g class="st0">
				<defs>
					<path id="SVGID_00000008837672187757368760000000054892601372226461_" class="st0" d="M71.6,30.6l4-4.1
						c-0.6,0.6-1.1,1.2-1.5,1.9c-0.4,0.7-0.8,1.4-1.1,2.3s-0.5,1.7-0.7,2.6S72,35.1,72,36.1l-3.4,2.4c0-0.8,0.1-1.6,0.2-2.4
						c0.1-0.8,0.3-1.5,0.6-2.1c0.3-0.7,0.6-1.3,0.9-1.9C70.8,31.5,71.2,31,71.6,30.6z"/>
				</defs>
				<clipPath id="SVGID_00000016041497510286632050000017281861709750068874_">
					<use xlink:href="#SVGID_00000008837672187757368760000000054892601372226461_"  style="overflow:visible;"/>
				</clipPath>
				<g style="clip-path:url(#SVGID_00000016041497510286632050000017281861709750068874_);enable-background:new    ;">
					<path class="st2" d="M72,36.1l-3.4,2.4c0-0.8,0.1-1.6,0.2-2.4c0.1-0.8,0.3-1.5,0.6-2.1c0.3-0.7,0.6-1.3,0.9-1.9
						c0.4-0.6,0.8-1.1,1.2-1.6l4-4.1c-0.6,0.6-1.1,1.2-1.5,1.9c-0.4,0.7-0.8,1.4-1.1,2.3s-0.5,1.7-0.7,2.6S72,35.1,72,36.1"/>
				</g>
			</g>
			<g class="st0">
				<defs>
					<path id="SVGID_00000150785101056180078620000004618694965896767164_" class="st0" d="M27,24.4l4.4,4.4c0,0,0,0,0,0.1
						c0,0,0,0,0,0.1c0,0,0,0,0,0.1s0,0,0,0.1L27,24.7c0,0,0-0.1,0-0.1c0,0,0-0.1,0-0.1C27,24.5,27,24.5,27,24.4
						C27,24.4,27,24.4,27,24.4z"/>
				</defs>
				<clipPath id="SVGID_00000091731377441296428530000017793913236600080029_">
					<use xlink:href="#SVGID_00000150785101056180078620000004618694965896767164_"  style="overflow:visible;"/>
				</clipPath>
				<g style="clip-path:url(#SVGID_00000091731377441296428530000017793913236600080029_);enable-background:new    ;">
					<path class="st7" d="M27,24.4l4.4,4.4c0,0,0,0,0,0.1c0,0,0,0,0,0.1c0,0,0,0,0,0.1s0,0,0,0.1L27,24.7c0,0,0-0.1,0-0.1
						c0,0,0-0.1,0-0.1C27,24.5,27,24.5,27,24.4C27,24.4,27,24.4,27,24.4"/>
				</g>
			</g>
			<g class="st0">
				<defs>
					<path id="SVGID_00000134219372237110699920000007921278479719156666_" class="st0" d="M37,16.3l2.7,5.8c-0.2,0.5-0.6,1.2-1,2
						c-0.4,0.7-0.9,1.5-1.5,2.2s-1.4,1.3-2.2,1.8s-1.9,0.7-3.1,0.7c0,0-0.1,0-0.1,0c0,0-0.1,0-0.1,0c0,0-0.1,0-0.1,0
						c0,0-0.1,0-0.1,0L27,24.4c0,0,0.1,0,0.1,0s0.1,0,0.1,0c0,0,0.1,0,0.1,0c0,0,0.1,0,0.1,0c1.5,0,2.7-0.3,3.8-0.9
						c1.1-0.6,2-1.3,2.7-2.2c0.7-0.8,1.3-1.8,1.8-2.7S36.7,17,37,16.3z"/>
				</defs>
				<clipPath id="SVGID_00000080206857814331010400000007079278524905708191_">
					<use xlink:href="#SVGID_00000134219372237110699920000007921278479719156666_"  style="overflow:visible;"/>
				</clipPath>
				<g style="clip-path:url(#SVGID_00000080206857814331010400000007079278524905708191_);enable-background:new    ;">
					<path class="st5" d="M37,16.3l2.7,5.8c0,0.1-0.1,0.2-0.1,0.3c-0.1,0.1-0.1,0.2-0.2,0.3c-0.1,0.1-0.1,0.2-0.2,0.4
						c-0.1,0.1-0.1,0.3-0.2,0.4L36.2,18c0.1-0.2,0.2-0.3,0.2-0.5c0.1-0.2,0.1-0.3,0.2-0.4c0.1-0.1,0.1-0.3,0.2-0.4
						C36.9,16.6,37,16.4,37,16.3"/>
					<path class="st2" d="M36.2,18l2.8,5.5c-0.3,0.6-0.6,1.2-1.1,1.8c-0.4,0.6-0.9,1.2-1.5,1.7s-1.2,1-2,1.3
						c-0.8,0.3-1.6,0.5-2.6,0.5c0,0-0.1,0-0.1,0c0,0-0.1,0-0.1,0c0,0-0.1,0-0.1,0c0,0-0.1,0-0.1,0L27,24.4c0,0,0.1,0,0.1,0
						s0.1,0,0.1,0c0,0,0.1,0,0.1,0c0,0,0.1,0,0.1,0c1.2,0,2.2-0.2,3.2-0.6s1.7-0.9,2.4-1.5s1.3-1.3,1.8-2.1
						C35.4,19.5,35.9,18.7,36.2,18"/>
				</g>
			</g>
			<g class="st0">
				<defs>
					<path id="SVGID_00000094610579168143346630000009166288258391543991_" class="st0" d="M29.3,26.5l4,4.1c0.5,0.5,0.9,1,1.2,1.6
						c0.4,0.6,0.7,1.2,0.9,1.8c0.3,0.7,0.4,1.4,0.6,2.1c0.1,0.7,0.2,1.5,0.2,2.3l-3.4-2.4c0-1-0.1-1.9-0.3-2.8s-0.4-1.7-0.7-2.5
						c-0.3-0.8-0.7-1.5-1.1-2.2C30.3,27.7,29.8,27.1,29.3,26.5z"/>
				</defs>
				<clipPath id="SVGID_00000065064010491735343820000017801884914995416746_">
					<use xlink:href="#SVGID_00000094610579168143346630000009166288258391543991_"  style="overflow:visible;"/>
				</clipPath>
				<g style="clip-path:url(#SVGID_00000065064010491735343820000017801884914995416746_);enable-background:new    ;">
					<path class="st10" d="M29.3,26.5l4,4.1c0.2,0.2,0.4,0.5,0.6,0.7c0.2,0.2,0.4,0.5,0.6,0.8c0.2,0.3,0.3,0.5,0.5,0.8
						c0.1,0.3,0.3,0.6,0.4,0.9l-3.6-3.4c-0.2-0.4-0.3-0.7-0.5-1.1c-0.2-0.3-0.4-0.7-0.6-1c-0.2-0.3-0.4-0.6-0.7-0.9
						C29.8,27,29.5,26.8,29.3,26.5"/>
					<path class="st9" d="M31.8,30.3l3.6,3.4c0.1,0.2,0.1,0.4,0.2,0.6c0.1,0.2,0.1,0.4,0.2,0.6c0.1,0.2,0.1,0.4,0.2,0.6
						c0,0.2,0.1,0.4,0.1,0.6l-3.4-2.9c0-0.3-0.1-0.5-0.2-0.7c-0.1-0.2-0.1-0.5-0.2-0.7c-0.1-0.2-0.1-0.5-0.2-0.7
						C31.9,30.8,31.8,30.5,31.8,30.3"/>
					<path class="st8" d="M32.6,33.2l3.4,2.9c0,0.2,0.1,0.4,0.1,0.6c0,0.2,0,0.4,0.1,0.6c0,0.2,0,0.4,0,0.6c0,0.2,0,0.4,0,0.6
						l-3.4-2.4c0-0.2,0-0.5,0-0.7c0-0.2,0-0.5-0.1-0.7c0-0.2-0.1-0.5-0.1-0.7C32.7,33.6,32.6,33.4,32.6,33.2"/>
				</g>
			</g>
			<g class="st0">
				<defs>
					<path id="SVGID_00000022541156190492383380000013282536577471326890_" class="st0" d="M52.5,17.4l0,5.6
						c-0.4,0.3-0.9,0.5-1.3,0.7c-0.5,0.2-0.9,0.4-1.5,0.6s-1,0.3-1.6,0.4c-0.5,0.1-1.1,0.1-1.6,0.1c-0.3,0-0.7,0-1.2-0.1
						c-0.5-0.1-1.1-0.2-1.7-0.4c-0.6-0.2-1.3-0.5-1.9-1c-0.6-0.4-1.3-1-1.9-1.7l-2.6-5.9c0.7,0.9,1.5,1.6,2.2,2.1s1.6,0.9,2.3,1.2
						c0.7,0.3,1.4,0.4,2,0.5c0.6,0.1,1.1,0.1,1.4,0.1c0.7,0,1.3-0.1,2-0.2c0.6-0.1,1.3-0.3,1.9-0.5c0.6-0.2,1.2-0.4,1.8-0.7
						S51.9,17.7,52.5,17.4z"/>
				</defs>
				<clipPath id="SVGID_00000111182438291563417950000003745807261132090502_">
					<use xlink:href="#SVGID_00000022541156190492383380000013282536577471326890_"  style="overflow:visible;"/>
				</clipPath>
				<g style="clip-path:url(#SVGID_00000111182438291563417950000003745807261132090502_);enable-background:new    ;">
					<path class="st2" d="M52.5,17.4l0,5.6c-0.4,0.3-0.9,0.5-1.3,0.7c-0.5,0.2-0.9,0.4-1.5,0.6s-1,0.3-1.6,0.4
						c-0.5,0.1-1.1,0.1-1.6,0.1c-0.3,0-0.7,0-1.2-0.1c-0.5-0.1-1.1-0.2-1.7-0.4c-0.6-0.2-1.3-0.5-1.9-1c-0.6-0.4-1.3-1-1.9-1.7
						l-2.6-5.9c0.7,0.9,1.5,1.6,2.2,2.1s1.6,0.9,2.3,1.2c0.7,0.3,1.4,0.4,2,0.5c0.6,0.1,1.1,0.1,1.4,0.1c0.7,0,1.3-0.1,2-0.2
						c0.6-0.1,1.3-0.3,1.9-0.5c0.6-0.2,1.2-0.4,1.8-0.7S51.9,17.7,52.5,17.4"/>
				</g>
			</g>
			<g class="st0">
				<defs>
					<path id="SVGID_00000072264213768340940390000004939188413011784837_" class="st0" d="M37.2,15.8l2.6,5.9c0,0,0,0.1,0,0.1
						s0,0.1,0,0.1c0,0,0,0.1,0,0.1s0,0.1,0,0.1L37,16.3c0,0,0-0.1,0.1-0.1c0,0,0-0.1,0.1-0.1c0,0,0-0.1,0.1-0.1
						C37.2,15.9,37.2,15.8,37.2,15.8z"/>
				</defs>
				<clipPath id="SVGID_00000091703658743343103310000000951888799246770851_">
					<use xlink:href="#SVGID_00000072264213768340940390000004939188413011784837_"  style="overflow:visible;"/>
				</clipPath>
				<g style="clip-path:url(#SVGID_00000091703658743343103310000000951888799246770851_);enable-background:new    ;">
					<path class="st5" d="M37.2,15.8l2.6,5.9c0,0,0,0.1,0,0.1s0,0.1,0,0.1c0,0,0,0.1,0,0.1s0,0.1,0,0.1L37,16.3c0,0,0-0.1,0.1-0.1
						c0,0,0-0.1,0.1-0.1c0,0,0-0.1,0.1-0.1C37.2,15.9,37.2,15.8,37.2,15.8"/>
				</g>
			</g>
			<g class="st0">
				<defs>
					<path id="SVGID_00000008140165056289743350000017703267317070588575_" class="st0" d="M67.9,16.3l-2.7,5.8c0,0,0-0.1-0.1-0.1
						c0,0,0-0.1-0.1-0.1c0,0,0-0.1-0.1-0.1c0,0,0-0.1-0.1-0.1l2.6-5.9c0,0,0,0.1,0.1,0.1c0,0,0,0.1,0.1,0.1s0,0.1,0.1,0.1
						S67.9,16.3,67.9,16.3z"/>
				</defs>
				<clipPath id="SVGID_00000083089521571018284610000010776059153162707865_">
					<use xlink:href="#SVGID_00000008140165056289743350000017703267317070588575_"  style="overflow:visible;"/>
				</clipPath>
				<g style="clip-path:url(#SVGID_00000083089521571018284610000010776059153162707865_);enable-background:new    ;">
					<path class="st2" d="M67.9,16.3l-2.7,5.8c0,0,0-0.1-0.1-0.1c0,0,0-0.1-0.1-0.1c0,0,0-0.1-0.1-0.1c0,0,0-0.1-0.1-0.1l2.6-5.9
						c0,0,0,0.1,0.1,0.1c0,0,0,0.1,0.1,0.1s0,0.1,0.1,0.1S67.9,16.3,67.9,16.3"/>
				</g>
			</g>
			<g class="st0">
				<defs>
					<path id="SVGID_00000041271007010818416110000010540526974355232667_" class="st0" d="M67.6,15.8L65,21.7
						c-0.6,0.7-1.2,1.3-1.8,1.7s-1.3,0.7-1.9,1c-0.6,0.2-1.2,0.3-1.7,0.4c-0.5,0.1-0.9,0.1-1.2,0.1c-0.6,0-1.1-0.1-1.6-0.1
						c-0.5-0.1-1-0.2-1.5-0.4c-0.5-0.2-1-0.4-1.5-0.6c-0.5-0.2-0.9-0.5-1.3-0.7l0-5.6c0.5,0.3,1,0.6,1.6,0.9
						c0.6,0.3,1.1,0.5,1.8,0.7c0.6,0.2,1.2,0.4,1.9,0.5c0.6,0.1,1.3,0.2,2,0.2c0.4,0,0.9,0,1.4-0.1c0.6-0.1,1.3-0.2,2-0.5
						c0.7-0.3,1.5-0.6,2.3-1.2C66.2,17.4,66.9,16.7,67.6,15.8z"/>
				</defs>
				<clipPath id="SVGID_00000133518493663576793840000015437240953986025148_">
					<use xlink:href="#SVGID_00000041271007010818416110000010540526974355232667_"  style="overflow:visible;"/>
				</clipPath>
				<g style="clip-path:url(#SVGID_00000133518493663576793840000015437240953986025148_);enable-background:new    ;">
					<path class="st2" d="M67.6,15.8L65,21.7c-0.6,0.7-1.2,1.3-1.8,1.7s-1.3,0.7-1.9,1c-0.6,0.2-1.2,0.3-1.7,0.4
						c-0.5,0.1-0.9,0.1-1.2,0.1c-0.6,0-1.1-0.1-1.6-0.1c-0.5-0.1-1-0.2-1.5-0.4c-0.5-0.2-1-0.4-1.5-0.6c-0.5-0.2-0.9-0.5-1.3-0.7
						l0-5.6c0.5,0.3,1,0.6,1.6,0.9c0.6,0.3,1.1,0.5,1.8,0.7c0.6,0.2,1.2,0.4,1.9,0.5c0.6,0.1,1.3,0.2,2,0.2c0.4,0,0.9,0,1.4-0.1
						c0.6-0.1,1.3-0.2,2-0.5c0.7-0.3,1.5-0.6,2.3-1.2C66.2,17.4,66.9,16.7,67.6,15.8"/>
				</g>
			</g>
			<g class="st0">
				<defs>
					<path id="SVGID_00000127757082398612941690000004735991181328941489_" class="st0" d="M79.9,16.1L75.2,22
						c0.2-0.2,0.3-0.4,0.4-0.7c0.1-0.3,0.2-0.5,0.3-0.8c0.1-0.3,0.1-0.6,0.1-1s0-0.7-0.1-1.1l4.9-6.6c0.1,0.5,0.2,0.9,0.2,1.3
						c0,0.4,0,0.8-0.1,1.2c-0.1,0.4-0.2,0.7-0.4,1S80.1,15.9,79.9,16.1z"/>
				</defs>
				<clipPath id="SVGID_00000111150908538566317700000004284254353004836759_">
					<use xlink:href="#SVGID_00000127757082398612941690000004735991181328941489_"  style="overflow:visible;"/>
				</clipPath>
				<g style="clip-path:url(#SVGID_00000111150908538566317700000004284254353004836759_);enable-background:new    ;">
					<path class="st2" d="M79.9,16.1L75.2,22c0.2-0.2,0.3-0.4,0.4-0.7c0.1-0.3,0.2-0.5,0.3-0.8c0.1-0.3,0.1-0.6,0.1-1s0-0.7-0.1-1.1
						l4.9-6.6c0.1,0.5,0.2,0.9,0.2,1.3c0,0.4,0,0.8-0.1,1.2c-0.1,0.4-0.2,0.7-0.4,1S80.1,15.9,79.9,16.1"/>
				</g>
			</g>
			<g class="st0">
				<defs>
					<path id="SVGID_00000171710803304861109630000002614632522634442886_" class="st0" d="M29.8,22L25,16.1
						c-0.2-0.2-0.4-0.5-0.5-0.8c-0.2-0.3-0.3-0.6-0.4-1C24,13.9,24,13.5,24,13.1c0-0.4,0.1-0.9,0.2-1.3l4.9,6.6
						c-0.1,0.4-0.1,0.8-0.1,1.1c0,0.3,0,0.7,0.1,1c0.1,0.3,0.2,0.6,0.3,0.8C29.4,21.5,29.6,21.8,29.8,22z"/>
				</defs>
				<clipPath id="SVGID_00000167395937259580267310000011393999695937629368_">
					<use xlink:href="#SVGID_00000171710803304861109630000002614632522634442886_"  style="overflow:visible;"/>
				</clipPath>
				<g style="clip-path:url(#SVGID_00000167395937259580267310000011393999695937629368_);enable-background:new    ;">
					<path class="st6" d="M24.1,11.8l4.9,6.6c0,0,0,0.1,0,0.1c0,0,0,0.1,0,0.1c0,0,0,0.1,0,0.1s0,0.1,0,0.1L24,12.4
						c0-0.1,0-0.1,0-0.2c0-0.1,0-0.1,0-0.2s0-0.1,0-0.2C24.1,11.9,24.1,11.8,24.1,11.8"/>
					<path class="st7" d="M24,12.4l4.9,6.5c0,0.1,0,0.1,0,0.2c0,0.1,0,0.1,0,0.2c0,0.1,0,0.1,0,0.2c0,0.1,0,0.1,0,0.2L24,13.2
						c0-0.1,0-0.1,0-0.2c0-0.1,0-0.1,0-0.2s0-0.1,0-0.2S24,12.5,24,12.4"/>
					<path class="st8" d="M24,13.2l4.9,6.4c0,0.1,0,0.1,0,0.2c0,0.1,0,0.1,0,0.2c0,0.1,0,0.1,0,0.2s0,0.1,0,0.2L24,14.1
						c0-0.1,0-0.1,0-0.2c0-0.1,0-0.1,0-0.2s0-0.1,0-0.2S24,13.3,24,13.2"/>
					<path class="st9" d="M24,14.1l4.9,6.2c0,0.1,0,0.1,0,0.2c0,0.1,0,0.1,0.1,0.2s0,0.1,0.1,0.2c0,0.1,0,0.1,0.1,0.2L24.3,15
						c0-0.1-0.1-0.1-0.1-0.2s-0.1-0.1-0.1-0.2c0-0.1,0-0.2-0.1-0.2C24.1,14.2,24.1,14.1,24,14.1"/>
					<path class="st10" d="M24.3,15l4.9,6.1c0,0.1,0.1,0.2,0.1,0.3c0,0.1,0.1,0.2,0.1,0.2c0,0.1,0.1,0.2,0.1,0.2
						c0.1,0.1,0.1,0.1,0.2,0.2L25,16.1c-0.1-0.1-0.1-0.2-0.2-0.3c-0.1-0.1-0.1-0.2-0.2-0.3c-0.1-0.1-0.1-0.2-0.2-0.3
						C24.4,15.2,24.4,15.1,24.3,15"/>
				</g>
			</g>
			<g class="st0">
				<defs>
					<path id="SVGID_00000013895749545944123660000010311391404308267671_" class="st0" d="M63.7,8.8L61.7,16c0,0,0,0,0-0.1
						c0,0,0,0,0-0.1c0,0,0,0,0-0.1s0,0,0-0.1l2-7.2c0,0,0,0,0,0.1c0,0,0,0,0,0.1C63.7,8.7,63.7,8.7,63.7,8.8
						C63.7,8.8,63.7,8.8,63.7,8.8z"/>
				</defs>
				<clipPath id="SVGID_00000086653070575738745550000010901852368871310492_">
					<use xlink:href="#SVGID_00000013895749545944123660000010311391404308267671_"  style="overflow:visible;"/>
				</clipPath>
				<g style="clip-path:url(#SVGID_00000086653070575738745550000010901852368871310492_);enable-background:new    ;">
					<path class="st2" d="M63.7,8.8L61.7,16c0,0,0,0,0-0.1c0,0,0,0,0-0.1c0,0,0,0,0-0.1s0,0,0-0.1l2-7.2c0,0,0,0,0,0.1
						c0,0,0,0,0,0.1C63.7,8.7,63.7,8.7,63.7,8.8C63.7,8.8,63.7,8.8,63.7,8.8"/>
				</g>
			</g>
			<g class="st0">
				<defs>
					<path id="SVGID_00000103226462588223263560000011113416108988564608_" class="st0" d="M43.2,16l-1.9-7.1c0,0,0,0,0-0.1
						c0,0,0,0,0-0.1c0,0,0,0,0-0.1c0,0,0,0,0-0.1C41,8,41,7.3,41.1,6.7s0.3-1.3,0.4-1.9s0.4-1.1,0.6-1.5c0.2-0.4,0.3-0.6,0.3-0.7
						l1.7,8.2c0,0-0.1,0.2-0.3,0.5c-0.1,0.3-0.3,0.7-0.5,1.2c-0.2,0.5-0.3,1-0.4,1.6c-0.1,0.5-0.1,1.1,0.1,1.6c0,0,0,0,0,0.1
						c0,0,0,0,0,0.1C43.2,15.9,43.2,15.9,43.2,16C43.2,15.9,43.2,16,43.2,16z"/>
				</defs>
				<clipPath id="SVGID_00000082347662328184523640000013952909038753985458_">
					<use xlink:href="#SVGID_00000103226462588223263560000011113416108988564608_"  style="overflow:visible;"/>
				</clipPath>
				<g style="clip-path:url(#SVGID_00000082347662328184523640000013952909038753985458_);enable-background:new    ;">
					<path class="st2" d="M42.4,2.7l1.7,8.2c0,0,0,0,0,0c0,0,0,0,0,0c0,0,0,0,0,0c0,0,0,0,0,0l-1.8-8.2C42.4,2.8,42.4,2.7,42.4,2.7
						C42.4,2.7,42.4,2.7,42.4,2.7C42.4,2.7,42.4,2.7,42.4,2.7C42.4,2.7,42.4,2.7,42.4,2.7"/>
					<path class="st5" d="M42.4,2.8l1.8,8.2c0,0.1-0.1,0.2-0.1,0.3c-0.1,0.1-0.1,0.3-0.2,0.4c-0.1,0.2-0.1,0.4-0.2,0.6
						c-0.1,0.2-0.1,0.4-0.2,0.7l-1.9-7.8c0.1-0.3,0.2-0.5,0.3-0.8c0.1-0.2,0.2-0.5,0.3-0.7c0.1-0.2,0.2-0.4,0.2-0.5
						C42.3,3,42.3,2.9,42.4,2.8"/>
					<path class="st6" d="M41.4,5.1l1.9,7.8c0,0.1-0.1,0.2-0.1,0.3c0,0.1-0.1,0.2-0.1,0.3c0,0.1,0,0.2-0.1,0.3s0,0.2,0,0.3l-2-7.5
						c0-0.1,0-0.3,0.1-0.4s0-0.3,0.1-0.4s0.1-0.2,0.1-0.4S41.4,5.2,41.4,5.1"/>
					<path class="st7" d="M41.1,6.6l2,7.5c0,0.1,0,0.1,0,0.2s0,0.1,0,0.2c0,0.1,0,0.1,0,0.2c0,0.1,0,0.1,0,0.2l-2-7.4
						c0-0.1,0-0.2,0-0.2c0-0.1,0-0.2,0-0.2s0-0.2,0-0.2C41.1,6.8,41.1,6.7,41.1,6.6"/>
					<path class="st8" d="M41,7.6l2,7.4c0,0.1,0,0.1,0,0.2c0,0.1,0,0.1,0,0.2c0,0.1,0,0.1,0,0.2c0,0.1,0,0.1,0,0.2l-2-7.2
						c0-0.1,0-0.1,0-0.2c0-0.1,0-0.1,0-0.2c0-0.1,0-0.1,0-0.2C41,7.7,41,7.7,41,7.6"/>
					<path class="st9" d="M41.1,8.3l2,7.2c0,0,0,0,0,0c0,0,0,0,0,0c0,0,0,0,0,0s0,0,0,0c0,0,0,0,0,0.1c0,0,0,0,0,0.1c0,0,0,0,0,0.1
						c0,0,0,0,0,0.1l-1.9-7.1c0,0,0,0,0-0.1c0,0,0,0,0-0.1c0,0,0,0,0-0.1c0,0,0,0,0-0.1c0,0,0,0,0-0.1c0,0,0,0,0-0.1
						C41.1,8.4,41.1,8.4,41.1,8.3C41.1,8.4,41.1,8.4,41.1,8.3"/>
				</g>
			</g>
			<g class="st0">
				<defs>
					<path id="SVGID_00000142148426016657602670000018440439179699971460_" class="st0" d="M63.8,8.6l-2,7.2c0.1-0.5,0.1-1,0.1-1.6
						c-0.1-0.5-0.2-1.1-0.4-1.6s-0.3-0.9-0.5-1.2c-0.1-0.3-0.2-0.5-0.3-0.5l1.7-8.2c0,0,0.2,0.3,0.3,0.7c0.2,0.4,0.4,0.9,0.6,1.5
						s0.4,1.2,0.4,1.9C63.9,7.3,63.9,8,63.8,8.6z"/>
				</defs>
				<clipPath id="SVGID_00000059273645093882422430000014957434545812189329_">
					<use xlink:href="#SVGID_00000142148426016657602670000018440439179699971460_"  style="overflow:visible;"/>
				</clipPath>
				<g style="clip-path:url(#SVGID_00000059273645093882422430000014957434545812189329_);enable-background:new    ;">
					<path class="st2" d="M63.8,8.6l-2,7.2c0.1-0.5,0.1-1,0.1-1.6c-0.1-0.5-0.2-1.1-0.4-1.6s-0.3-0.9-0.5-1.2
						c-0.1-0.3-0.2-0.5-0.3-0.5l1.7-8.2c0,0,0.2,0.3,0.3,0.7c0.2,0.4,0.4,0.9,0.6,1.5s0.4,1.2,0.4,1.9C63.9,7.3,63.9,8,63.8,8.6"/>
				</g>
			</g>
			<g>
				<path class="st18" d="M84.7,52c0.3,0.8,0.8,2,1.2,3.6c0.4,1.6,0.8,3.5,0.7,5.7c-0.1,2.1-0.6,4.4-1.9,6.7s-3.4,4.7-6.6,6.9
					c-3.2,2.2-6.3,4.3-9.2,6.3c-2.9,2-5.7,3.8-8,5.7s-4.3,3.6-5.8,5.3c-1.5,1.7-2.4,3.4-2.6,5.2c-0.2-1.7-1.1-3.4-2.6-5.2
					c-1.5-1.7-3.4-3.5-5.8-5.3c-2.4-1.8-5.1-3.7-8-5.7c-2.9-2-6.1-4.1-9.3-6.3c-3.2-2.2-5.3-4.6-6.6-6.9c-1.3-2.3-1.8-4.6-1.9-6.7
					c-0.1-2.1,0.2-4.1,0.7-5.7c0.4-1.6,1-2.9,1.2-3.6c0.6-1,1-2.1,1.3-3.1c0.2-1,0.3-1.9,0.3-2.8c0-0.8-0.1-1.5-0.2-2
					s-0.2-0.8-0.2-0.9c0.1,0,0.4-0.1,0.8-0.4c0.5-0.2,1-0.6,1.6-1.1c0.6-0.5,1.1-1.3,1.6-2.2c0.4-0.9,0.7-2.1,0.7-3.5
					c0-1.4-0.3-2.5-0.7-3.3c-0.4-0.8-0.9-1.4-1.5-1.9c-0.6-0.4-1.1-0.7-1.7-0.8c-0.5-0.1-1-0.2-1.4-0.2c-0.1,0-0.1,0-0.2,0
					c-0.1,0-0.1,0-0.1,0c0,0-0.1,0-0.1,0c0,0,0,0,0,0c-0.4-2.7-0.4-5.2-0.2-7.4s0.7-4.1,1.2-5.7c0.5-1.6,1.1-2.8,1.6-3.7
					c0.5-0.9,0.8-1.4,0.9-1.5c-0.2,1-0.2,1.8,0,2.5c0.2,0.7,0.5,1.3,0.9,1.8c0.4,0.5,0.9,0.9,1.3,1.1c0.5,0.2,0.9,0.4,1.2,0.4
					c0.5,0,1-0.3,1.4-0.7c0.4-0.4,0.8-1,1.1-1.7s0.6-1.4,1-2c0.3-0.7,0.6-1.3,0.9-1.8c0.7-1.2,1.5-2.2,2.2-3
					c0.7-0.8,1.5-1.5,2.3-2.2s1.7-1.2,2.7-1.8c1-0.6,2.1-1.1,3.3-1.8c0,0-0.2,0.3-0.3,0.7c-0.2,0.4-0.4,0.9-0.6,1.5S41.2,6,41.1,6.7
					S41,8,41.2,8.6c0.2,0.8,0.5,1.5,0.7,2c0.3,0.6,0.6,1,1,1.3c0.4,0.3,0.7,0.6,1.1,0.7c0.4,0.1,0.8,0.2,1.2,0.2
					c0.8,0,1.7-0.2,2.5-0.6c0.8-0.4,1.6-0.8,2.3-1.3c0.7-0.5,1.3-1,1.7-1.4s0.7-0.7,0.7-0.7c0,0.1,0.3,0.3,0.7,0.7s1,0.9,1.7,1.4
					c0.7,0.5,1.5,1,2.3,1.3c0.8,0.4,1.7,0.6,2.5,0.6c0.4,0,0.8-0.1,1.2-0.2c0.4-0.1,0.8-0.4,1.1-0.7c0.4-0.3,0.7-0.8,1-1.3
					c0.3-0.6,0.5-1.2,0.7-2c0.1-0.6,0.1-1.3,0.1-1.9c-0.1-0.7-0.3-1.3-0.4-1.9S63,3.7,62.8,3.3c-0.2-0.4-0.3-0.6-0.3-0.7
					c1.3,0.6,2.4,1.2,3.4,1.8s1.9,1.1,2.7,1.8c0.8,0.6,1.5,1.3,2.3,2.2c0.7,0.8,1.4,1.8,2.2,3c0.3,0.5,0.6,1.1,0.9,1.8
					c0.3,0.7,0.6,1.4,1,2s0.7,1.2,1.1,1.7c0.4,0.4,0.9,0.7,1.4,0.7c0.3,0,0.8-0.1,1.2-0.4c0.5-0.2,0.9-0.6,1.3-1.1
					c0.4-0.5,0.7-1.1,0.9-1.8c0.2-0.7,0.2-1.6,0-2.5c0.1,0.1,0.4,0.6,0.9,1.5c0.5,0.9,1.1,2.1,1.6,3.7s1,3.5,1.2,5.7
					c0.2,2.2,0.2,4.7-0.2,7.4c0,0,0,0,0,0c0,0-0.1,0-0.1,0c0,0-0.1,0-0.1,0s-0.1,0-0.2,0c-0.3,0-0.8,0-1.4,0.2
					c-0.5,0.1-1.1,0.4-1.7,0.8s-1.1,1-1.5,1.9c-0.4,0.8-0.6,1.9-0.7,3.3c0,1.4,0.3,2.5,0.7,3.5c0.4,0.9,1,1.6,1.6,2.2
					c0.6,0.5,1.2,0.9,1.6,1.1c0.5,0.2,0.8,0.3,0.8,0.4c0,0.1-0.1,0.4-0.2,0.9c-0.1,0.5-0.2,1.2-0.2,2s0.1,1.8,0.3,2.8
					C83.6,49.9,84,50.9,84.7,52z M74.3,69.3c1.8-1.2,3-2.5,3.9-3.7c0.9-1.2,1.4-2.4,1.6-3.6c0.2-1.2,0.1-2.4-0.1-3.5
					c-0.2-1.2-0.6-2.3-1-3.4c-0.4-0.7-0.7-1.5-1-2.2c-0.3-0.7-0.5-1.5-0.7-2.2c-0.2-0.7-0.3-1.4-0.4-2.1c-0.1-0.7-0.1-1.3-0.1-1.9
					c-0.7-0.7-1.3-1.4-1.9-2.2c-0.5-0.8-1-1.6-1.4-2.5c-0.4-0.9-0.7-1.8-0.8-2.8s-0.3-2-0.3-3c0-1.3,0.2-2.5,0.5-3.7
					c0.3-1.1,0.7-2.2,1.2-3.2c0.5-1,1.1-1.8,1.8-2.6c0.7-0.8,1.5-1.4,2.4-1.9c0,0,0-0.1,0-0.1c0,0,0-0.1,0-0.1c0,0,0-0.1,0-0.1
					c0,0,0-0.1,0-0.1c0,0-0.1,0-0.1,0c0,0-0.1,0-0.1,0c0,0-0.1,0-0.1,0c0,0-0.1,0-0.1,0c-1.5,0-2.7-0.3-3.8-0.9
					c-1.1-0.6-2-1.3-2.7-2.2s-1.3-1.8-1.8-2.7s-0.9-1.7-1.1-2.4c0,0,0-0.1-0.1-0.1s0-0.1-0.1-0.1s0-0.1-0.1-0.1c0,0,0-0.1-0.1-0.1
					c-0.7,0.9-1.5,1.6-2.2,2.1c-0.8,0.5-1.6,0.9-2.3,1.2c-0.7,0.3-1.4,0.4-2,0.5c-0.6,0.1-1.1,0.1-1.4,0.1c-0.7,0-1.3-0.1-2-0.2
					c-0.6-0.1-1.3-0.3-1.9-0.5c-0.6-0.2-1.2-0.4-1.8-0.7c-0.6-0.3-1.1-0.6-1.6-0.9c-0.5,0.3-1,0.6-1.6,0.9s-1.1,0.5-1.8,0.7
					c-0.6,0.2-1.2,0.4-1.9,0.5c-0.6,0.1-1.3,0.2-2,0.2c-0.3,0-0.8,0-1.4-0.1c-0.6-0.1-1.3-0.2-2-0.5c-0.7-0.3-1.5-0.6-2.3-1.2
					s-1.5-1.2-2.2-2.1c0,0,0,0.1-0.1,0.1c0,0,0,0.1-0.1,0.1c0,0,0,0.1-0.1,0.1c0,0,0,0.1-0.1,0.1c-0.3,0.7-0.7,1.5-1.2,2.4
					s-1.1,1.8-1.8,2.7c-0.7,0.8-1.6,1.6-2.7,2.2c-1.1,0.6-2.3,0.9-3.8,0.9c0,0-0.1,0-0.1,0c0,0-0.1,0-0.1,0c0,0-0.1,0-0.1,0
					s-0.1,0-0.1,0c0,0,0,0.1,0,0.1c0,0,0,0.1,0,0.1c0,0,0,0.1,0,0.1c0,0,0,0.1,0,0.1c0.9,0.5,1.7,1.2,2.4,1.9
					c0.7,0.8,1.3,1.6,1.8,2.6c0.5,1,0.9,2,1.2,3.1c0.3,1.1,0.4,2.3,0.5,3.6c0,1.1-0.1,2.1-0.3,3.1s-0.5,1.9-0.8,2.9
					s-0.8,1.8-1.4,2.6c-0.5,0.8-1.2,1.5-1.9,2.2c0,0.6,0,1.2-0.1,1.9s-0.2,1.4-0.4,2.1s-0.4,1.4-0.7,2.2c-0.3,0.7-0.6,1.5-1,2.2
					c-0.4,1.1-0.8,2.3-1,3.5C25,59.6,25,60.8,25.2,62s0.7,2.4,1.6,3.6c0.9,1.2,2.1,2.5,3.9,3.7c0.6,0.4,1.2,0.8,1.8,1.3
					c0.6,0.4,1.2,0.8,1.8,1.2c0.6,0.4,1.2,0.8,1.8,1.2c0.6,0.4,1.2,0.8,1.7,1.2c1.4,1,2.8,1.9,4.2,2.8c1.4,0.9,2.7,1.8,3.9,2.7
					c1.2,0.9,2.4,1.8,3.5,2.7c1.1,0.9,2.1,1.8,3.1,2.7c0.9-0.9,2-1.8,3.1-2.7s2.3-1.8,3.5-2.7S61.6,78,63,77
					c1.3-0.9,2.7-1.9,4.2-2.8c0.6-0.4,1.2-0.8,1.8-1.2c0.6-0.4,1.2-0.8,1.8-1.2c0.6-0.4,1.2-0.8,1.8-1.2
					C73.1,70.2,73.7,69.8,74.3,69.3"/>
			</g>
		</g>
	</g>
</g>
</svg>
