<?xml version="1.0" encoding="UTF-8"?>
<svg id="Calque_2" data-name="Calque 2" xmlns="http://www.w3.org/2000/svg" viewBox="0 0 367.35 358.23">
  <defs>
    <style>
      .cls-1 {
        fill: #e8b200;
      }

      .cls-2 {
        fill: #2200d0;
      }

      .cls-3 {
        fill: #1f0095;
      }
    </style>
  </defs>
  <path class="cls-3" d="m200.19,191.16c.37.12.73.26,1.1.39-.37-.13-.73-.27-1.1-.39Z"/>
  <path class="cls-3" d="m213.92,197.71c1.11.69,2.22,1.4,3.31,2.15-1.09-.75-2.2-1.46-3.31-2.15Z"/>
  <path class="cls-3" d="m202.43,191.96c3.16,1.21,6.22,2.69,9.2,4.39-2.98-1.7-6.04-3.19-9.2-4.39Z"/>
  <path class="cls-2" d="m304.71,254.67c-.54-.93-1.11-1.83-1.88-3.1-12.43,21.95-24.66,43.55-37.11,65.53h74.96v-.61c-.63-.9-1.33-1.75-1.88-2.69-11.37-19.7-22.73-39.42-34.09-59.13Z"/>
  <path class="cls-2" d="m63.88,251.53c-.81,1.39-1.32,2.27-1.82,3.15-11.17,19.7-22.33,39.4-33.52,59.1-.54.95-1.24,1.81-1.86,2.71v.61h74.36c-12.54-22.12-24.76-43.68-37.16-65.57Z"/>
  <path class="cls-3" d="m237.22,135.47c-1.08-1.92-2.27-2.43-4.32-2.43-32.81.06-65.62.07-98.43-.02-2.28,0-3.4.79-4.47,2.7-17.81,31.57-35.69,63.1-53.62,94.61-1.03,1.82-1,3.16.02,4.95,15.06,26.44,30.07,52.91,44.99,79.42,1.07,1.9,2.26,2.44,4.32,2.43,19.32-.07,38.63-.04,57.95-.04s38.84-.02,58.26.04c1.83,0,2.91-.46,3.86-2.15,15.04-26.68,30.15-53.33,45.3-79.95.92-1.62.96-2.76.02-4.41-18.03-31.68-36-63.39-53.89-95.15Zm11.88,99.95c-10.94,16.39-24.15,30.42-42.12,39.19-18.66,9.11-36.66,6.82-53.89-3.98-14.18-8.89-25.33-20.86-34.51-34.74-.5-.75-.54-2.38-.06-3.11,10.36-15.5,22.91-28.74,39.53-37.66.99-.53,2-1.04,3.01-1.51,7.07-3.32,14.56-5.17,22.49-5.3,5.87.07,11.4,1.08,16.65,2.85.37.12.73.26,1.1.39.38.14.76.26,1.14.41,3.16,1.21,6.22,2.69,9.2,4.39.77.44,1.53.89,2.28,1.36,1.11.69,2.22,1.4,3.31,2.15.67.46,1.34.93,2.01,1.41,11.8,8.54,21.48,19.14,29.48,31.29.49.75.79,2.25.38,2.86Z"/>
  <path class="cls-2" d="m183.67,41.09c-14.04,24.78-27.74,48.97-41.53,73.31h83.08c-13.9-24.52-27.59-48.69-41.55-73.31Z"/>
  <path class="cls-3" d="m200.19,191.16c-5.25-1.77-10.78-2.78-16.65-2.85-7.93.13-15.42,1.98-22.49,5.3,7.07-3.32,14.56-5.17,22.5-5.3,5.86.06,11.39,1.08,16.64,2.84Z"/>
  <path class="cls-3" d="m201.29,191.55c.38.14.76.26,1.14.41-.38-.14-.76-.27-1.14-.41Z"/>
  <path class="cls-3" d="m211.63,196.35c.77.44,1.53.89,2.28,1.36-.76-.47-1.52-.92-2.28-1.36Z"/>
  <path class="cls-1" d="m203.16,212.65c-13.8-8.31-27.28-7.55-40.65,1.01-8.62,5.52-15.78,12.58-22.37,20.63,6.63,8.14,13.85,15.31,22.61,20.78,10.93,6.82,22.38,9.28,34.64,3.78,12.13-5.44,21.45-14.32,29.8-24.55-6.93-8.53-14.64-15.99-24.04-21.65Zm-19.49,33.92c-4.01-4.01-8.23-8.24-12.27-12.28,4.01-4.01,8.24-8.23,12.29-12.28,4.01,4.02,8.22,8.24,12.26,12.29-4.01,4.01-8.23,8.23-12.27,12.27Z"/>
</svg>