<?xml version="1.0" encoding="UTF-8"?>
<svg id="Calque_2" data-name="Calque 2" xmlns="http://www.w3.org/2000/svg" viewBox="0 0 367.35 358.23">
  <defs>
    <style>
      .cls-1 {
        fill: none;
      }

      .cls-2 {
        fill: #00b000;
      }

      .cls-3 {
        fill: #00d200;
      }
    </style>
  </defs>
  <path class="cls-1" d="m286.44,154.63c1.92-1.65,3.12-3.62,3.87-5.63-.7-1.9-1.76-3.76-3.41-5.4-4.67-4.9-12.14-5.6-17.28-5.6h-13.78v21.54h13.54c4.2,0,12.14-.47,17.05-4.9Z"/>
  <rect class="cls-2" x="83.74" y="180.78" width="58.38" height="17.22"/>
  <rect class="cls-2" x="43.34" y="243.83" width="40.4" height="17.22"/>
  <rect class="cls-2" x="142.12" y="243.83" width="40.63" height="17.22"/>
  <rect class="cls-2" x="215.45" y="243.83" width="40.4" height="17.22"/>
  <path class="cls-2" d="m286.91,143.59c1.64,1.64,2.71,3.5,3.41,5.4,1.17-3.12,1.26-6.34,1.26-8.62,0-4.2-.47-9.81-4.67-14.01-4.67-4.9-12.14-5.6-17.28-5.6h-13.78v17.22h13.78c5.14,0,12.61.7,17.28,5.6Z"/>
  <path class="cls-2" d="m320.07,178.68c-12.14,11.91-26.62,13.54-38.76,13.54h-25.45v17.22h25.45c12.14,0,26.62-1.64,38.76-13.54,12.14-11.91,13.78-26.39,13.78-38.77,0-2.75-.11-5.5-.39-8.24-.96,10.04-4.09,20.66-13.39,29.78Z"/>
  <polygon class="cls-3" points="142.12 88.07 142.12 105.3 142.12 146.22 83.74 146.22 83.74 105.3 83.74 88.07 43.34 88.07 43.34 105.3 43.34 243.83 83.74 243.83 83.74 198.01 83.74 180.78 142.12 180.78 142.12 198.01 142.12 243.83 182.75 243.83 182.75 105.3 182.75 88.07 142.12 88.07"/>
  <path class="cls-3" d="m319.37,102.08c-11.91-11.44-25.92-14.01-39.47-14.01h-64.45v155.76h40.4v-51.61h25.45c12.14,0,26.62-1.64,38.76-13.54,9.3-9.12,12.43-19.75,13.39-29.78.29-3.07.39-6.08.39-8.98,0-13.08-2.34-26.15-14.48-37.83Zm-29.05,46.92c-.75,2.01-1.95,3.98-3.87,5.63-4.9,4.44-12.84,4.9-17.05,4.9h-13.54v-38.76h13.78c5.14,0,12.61.7,17.28,5.6,4.2,4.2,4.67,9.81,4.67,14.01,0,2.27-.09,5.49-1.26,8.62Z"/>
</svg>