<?xml version="1.0" encoding="UTF-8"?>
<svg id="Calque_1" data-name="Calque 1" xmlns="http://www.w3.org/2000/svg" viewBox="0 0 368.06 352.66">
  <defs>
    <style>
      .cls-1 {
        fill: #d60000;
      }

      .cls-2 {
        fill: #606060;
      }
    </style>
  </defs>
  <path class="cls-1" d="m366.43,100.32c-4.88-4.51-12.39-13.77-13.85-14.46-1.88-.88-4.45,1.17-4.45,1.17l-25.37,30.21-34.03,20.46c-2.83,5.64,4.47,9.13,4.47,9.13l40.36-7.22s32.26-31.22,33.33-32.48c.02-.02.04-.04.05-.06,1.68-2.01,1.41-4.98-.51-6.75Z"/>
  <path class="cls-1" d="m296.67,64.29c.13.03.26.07.38.09,0,0,12.78-18.57,18.9-25.45,1.52-1.71,1.45-4.3-.15-5.92l-19.25-12.51c-2.01-2.03-5.32-1.83-7.06.44-4.84,6.28-13.92,15.84-20.5,27.51,0,0,14.02,9.9,23.22,14.17,1.17.48,2.35.93,3.54,1.34.3.11.61.22.91.34Z"/>
  <path class="cls-1" d="m256.63,38.5l19.95-23.29c1.48-1.73,1.04-4.23-.97-5.46l-14.74-9.07c-1.88-1.15-4.43-.78-5.8.85l-16.96,20.18c3.07,2.66,6.29,5.63,9.7,8.77,2.86,2.63,5.8,5.34,8.82,8.03Z"/>
  <path class="cls-1" d="m209.66,20.58c-9.47,11.05-23.01,16.32-36.11,21.43-13.5,5.26-26.24,10.23-33.91,20.97-7.65,10.72-.47,22.38,7.85,35.88,10.28,16.7,21.93,35.62,8.6,57.84C133.69,194.01,11.92,298.26.36,308.11c-.35,1.13,7.42,20.66,25.43,31.68,15.28,9.35,40.28,10.28,49.34,12.86,7.42-7.94,42.06-44.91,77.49-81.35,81.58-83.91,87.64-83.4,90.89-83.13,22.28,1.85,39.35-13.8,44.87-24.1,2.35-4.38,2.22-6.84,1.9-7.23h0s-.15-.1-.59-.13c-15.63-1.32-39.74-22.12-42.99-41.57-2.24-13.42-31.21-26.92-42.19-31l-18.28-6.78h19.5c6.95,0,10.45-5.57,12.16-10.25l2.07-5.64,3.89,4.58c.47.55,1.63,1.01,3.23,1.65,4.65,1.84,12.43,4.93,24.03,17.99,8.19,9.22,16.56,7.82,22.67,6.79l.53-.09c10.33-1.72,16.84-11.01,20.48-18.49.4-.82.57-1.32.64-1.6-.27-.17-.81-.44-1.84-.79-20.06-6.98-36.88-22.49-50.39-34.95-11.37-10.48-21.19-19.53-27.98-19.14-2.03.12-3.79,1.13-5.55,3.18Z"/>
  <path class="cls-1" d="m351.06,59.07c-6.5-4.96-15.51-13.57-17.44-14.46-2.32-1.08-5.38,1.95-5.38,1.95l-25.04,34.5-5.63,7.76-14.68,11.15-25.11,19.06c.77,2.51,1.91,5,3.33,7.43,1.15,1.97,3.07,3.4,5.3,3.86h.03s50.81-19.91,50.81-19.91c0,0,30.15-39.84,31.42-41.66.62-.89,1.97-2.79,3.18-4.49s.82-3.95-.8-5.19Z"/>
  <path class="cls-2" d="m295.88,64.88c-1.19-.42-2.37-.86-3.54-1.34,1.69.78,3.21,1.37,4.45,1.68-.31-.12-.61-.23-.91-.34Z"/>
</svg>