<?xml version="1.0" encoding="utf-8"?>
<!-- Generator: Adobe Illustrator 27.5.0, SVG Export Plug-In . SVG Version: 6.00 Build 0)  -->
<svg version="1.1" id="Calque_1" xmlns="http://www.w3.org/2000/svg" xmlns:xlink="http://www.w3.org/1999/xlink" x="0px" y="0px"
	 viewBox="0 0 74.5 74.5" style="enable-background:new 0 0 74.5 74.5;" xml:space="preserve">
<style type="text/css">
	.st0{fill:#FFFFFF;}
</style>
<path class="st0" d="M3,39.6c1.1-0.1,2.2,0,3.3,0c0.7,7.7,3.6,14.2,9,19.6c5.4,5.4,12,8.4,19.6,9.1c0,1.3,0,2.5,0,3.7
	c0,1.5,1,2.5,2.3,2.5c1.3,0,2.3-1,2.3-2.5c0-1.2,0-2.5,0-3.8c7.6-0.7,14.2-3.6,19.6-9c5.4-5.4,8.4-12,9-19.6c1.3,0,2.5,0,3.7,0
	c1.5,0,2.6-1,2.6-2.3c0-1.4-1.1-2.3-2.6-2.3c-1.2,0-2.4,0-3.7,0c-0.7-7.7-3.7-14.2-9.1-19.6c-5.4-5.4-12-8.4-19.6-9
	c0-1.1-0.1-2.2,0-3.3c0.1-1.4-0.4-2.4-1.8-3c-0.4,0-0.8,0-1.2,0c-1.3,0.6-1.9,1.6-1.8,3c0.1,1.1,0,2.1,0,3.3
	c-7.6,0.7-14.2,3.6-19.6,9c-5.4,5.4-8.4,12-9.1,19.6c-1.1,0-2.2,0.1-3.3,0c-1.4-0.1-2.4,0.4-3,1.8c0,0.4,0,0.8,0,1.2
	C0.6,39.2,1.6,39.7,3,39.6z M13.1,34.9c-0.7,0-1.3,0-2,0C11.8,23,21.9,12,34.9,11c0,0.7,0,1.3,0,2c0,1.4,1,2.5,2.3,2.5
	c1.3,0,2.3-1,2.4-2.5c0-0.7,0-1.3,0-2C51,11.6,62.5,21.4,63.5,34.9c-0.7,0-1.3,0-2,0C60,35,59,36,59,37.3c0,1.3,1.1,2.3,2.5,2.3
	c0.7,0,1.3,0,2,0c-1,13.2-12.2,23.2-23.9,23.9c0-0.7,0-1.4,0-2c0-1.4-1-2.5-2.3-2.5c-1.3,0-2.3,1-2.3,2.5c0,0.7,0,1.3,0,2
	C22.5,62.7,11.9,52.1,11,39.6c0.7,0,1.4,0,2,0c1.4,0,2.5-1,2.5-2.3C15.5,36,14.5,35,13.1,34.9z"/>
<path class="st0" d="M37.2,46.6c5.1,0,9.3-4.1,9.4-9.2c0-5.1-4.1-9.4-9.2-9.4c-5.2,0-9.4,4.1-9.4,9.3C27.9,42.4,32.1,46.6,37.2,46.6
	z M37.4,32.6c2.6,0.1,4.6,2.2,4.5,4.8c-0.1,2.5-2.2,4.6-4.7,4.5c-2.6,0-4.6-2.2-4.6-4.8C32.7,34.6,34.8,32.6,37.4,32.6z"/>
</svg>
