<?xml version="1.0" encoding="UTF-8"?>
<svg id="Calque_2" data-name="Calque 2" xmlns="http://www.w3.org/2000/svg" viewBox="0 0 367.35 358.23">
  <defs>
    <style>
      .cls-1 {
        fill: #888662;
      }

      .cls-2 {
        fill: #83815e;
      }

      .cls-3 {
        fill: #f7f3aa;
      }

      .cls-4 {
        fill: #f3efaf;
      }

      .cls-5 {
        fill: none;
      }
    </style>
  </defs>
  <path class="cls-3" d="m77.05,142.79c0-7.01-5.69-12.7-12.7-12.7h-10.36c-7.01,0-12.7,5.69-12.7,12.7s5.69,12.7,12.7,12.7h10.36c7.01,0,12.7-5.69,12.7-12.7Z"/>
  <path class="cls-3" d="m46.06,194.24c0-7.01-5.69-12.7-12.7-12.7h-10.36c-7.01,0-12.7,5.69-12.7,12.7s5.69,12.7,12.7,12.7h10.36c7.01,0,12.7-5.69,12.7-12.7Z"/>
  <path class="cls-3" d="m164.12,193.29c-10.47-8.37-28.92-15.63-38.7-24.47h-34.31c-7.01,0-12.7,5.69-12.7,12.7s5.69,12.7,12.7,12.7h43.82s0,.02,0,.02h29.95c-.12-.34-.37-.66-.76-.95Z"/>
  <path class="cls-3" d="m186.02,114.97c-26.42-.11-76.53-.04-76.53-.04-7.01,0-12.7,5.69-12.7,12.7s5.69,12.7,12.7,12.7h80.88c-1.22-8.63-4.88-16.75-4.35-25.37Z"/>
  <path class="cls-3" d="m122.65,221.43h-56.46c-7.01,0-12.7,5.69-12.7,12.7,0,3.48,1.4,6.64,3.68,8.93,2.3,2.33,5.49,3.77,9.03,3.77h72c1.62-9.39,9.09-18.26,15.6-25.4h-31.15Z"/>
  <path class="cls-5" d="m204.77,192.34c-.07.21-.16.42-.26.64.1-.22.18-.43.26-.64Z"/>
  <path class="cls-5" d="m204.43,193.16c-.08.16-.15.33-.24.5.09-.17.17-.33.24-.5Z"/>
  <path class="cls-5" d="m203.18,195.38c-.17.26-.34.52-.52.78.18-.27.36-.53.52-.78Z"/>
  <path class="cls-5" d="m144.64,154.98c-.08.14-.15.27-.22.42.05-.11.11-.22.18-.33.02-.03.03-.07.05-.1.03-.05.06-.09.09-.13-.03.04-.06.08-.08.12l-.02.03Z"/>
  <path class="cls-5" d="m203.65,194.63c-.11.18-.22.37-.34.56.12-.19.24-.37.34-.56Z"/>
  <path class="cls-5" d="m202.6,196.24c-.21.3-.43.61-.66.92.23-.31.45-.62.66-.92Z"/>
  <path class="cls-5" d="m198.02,201.92c.31-.35.61-.69.9-1.03-.55.64-1.14,1.3-1.74,1.97.29-.32.57-.63.84-.94Z"/>
  <path class="cls-5" d="m199.77,199.89c.04-.05.08-.1.13-.15-.32.38-.64.76-.98,1.15.29-.34.58-.67.85-1Z"/>
  <path class="cls-5" d="m200.86,198.57c-.25.31-.5.62-.76.94.26-.32.52-.63.76-.94Z"/>
  <path class="cls-5" d="m201.77,197.39c-.25.33-.51.67-.78,1.01.27-.34.53-.68.78-1.01Z"/>
  <path class="cls-5" d="m146.12,153.47s-.03.02-.05.03c.05-.04.1-.07.15-.11-.02.01-.04.02-.06.04-.02.01-.03.02-.05.03Z"/>
  <path class="cls-5" d="m146.96,152.98c-.09.04-.18.09-.27.13.08-.04.16-.08.25-.12.05-.03.1-.05.16-.08.04-.02.07-.04.11-.05-.05.02-.09.04-.14.06-.04.02-.07.04-.11.05Z"/>
  <path class="cls-5" d="m190.72,209.67c.38-.39.76-.77,1.13-1.16-.56.58-1.13,1.16-1.71,1.74.19-.2.39-.39.58-.59Z"/>
  <path class="cls-5" d="m145.41,154.02s-.03.03-.04.04c-.04.04-.08.08-.12.12.05-.05.09-.09.14-.14.03-.03.06-.05.08-.07.05-.05.1-.09.15-.13-.07.05-.13.11-.19.17,0,0-.02.01-.03.02Z"/>
  <path class="cls-5" d="m144.98,154.49s-.04.05-.05.07c.04-.05.08-.1.12-.15.01-.01.02-.02.03-.04.06-.07.11-.13.17-.19-.07.07-.13.14-.2.22-.03.03-.05.06-.08.09Z"/>
  <path class="cls-5" d="m205.06,190c.03.15.05.3.06.47,0-.16-.02-.32-.06-.47Z"/>
  <path class="cls-5" d="m147.95,152.57c-.07.02-.13.05-.2.07.07-.03.15-.05.22-.08.05-.02.1-.03.15-.05.07-.02.15-.05.22-.07-.09.03-.18.06-.28.09-.04.01-.08.03-.12.04Z"/>
  <path class="cls-5" d="m205.12,190.63c0,.12,0,.23-.02.35.01-.12.02-.24.02-.35Z"/>
  <path class="cls-5" d="m205.07,191.18c-.02.12-.04.25-.07.38.03-.13.05-.25.07-.38Z"/>
  <path class="cls-5" d="m204.96,191.74c-.04.16-.09.32-.15.48.06-.16.11-.33.15-.48Z"/>
  <path class="cls-5" d="m204.06,193.9c-.08.16-.17.32-.27.48.09-.16.18-.32.27-.48Z"/>
  <path class="cls-5" d="m289.66,129.32c-.97,3.05-2.44,7.08-4.49,12.3,2.04-5.22,3.51-9.25,4.49-12.3Z"/>
  <path class="cls-5" d="m317.85,151.76c-.06-.04-.1-.08-.17-.11.06.03.11.07.17.11h0Z"/>
  <path class="cls-5" d="m239.32,124.64c6.03,5.5,11.83,11.07,18.04,16.48-6.21-5.42-12.01-10.98-18.04-16.48Z"/>
  <path class="cls-5" d="m318.42,152.8c0-.05,0-.11,0-.16,0,.05,0,.1,0,.16h0Z"/>
  <path class="cls-5" d="m317.66,154.67h0s-.07.1-.1.15c.04-.05.07-.1.1-.15Z"/>
  <path class="cls-5" d="m318.34,153.33s.01-.04.02-.07c-.01.06-.03.11-.05.17.01-.03.02-.07.03-.1Z"/>
  <path class="cls-5" d="m314.78,158.01c-.14.14-.27.28-.42.42.14-.14.28-.28.42-.42Z"/>
  <path class="cls-5" d="m315.41,157.37s.05-.05.07-.07c.04-.04.08-.09.12-.13-.13.13-.25.27-.39.41.06-.07.14-.14.2-.2Z"/>
  <path class="cls-5" d="m280.61,227.1c0-.05.02-.11.03-.16,0-.06.02-.13.03-.19,0-.01,0-.03,0-.04-.02.21-.06.39-.09.56.01-.05.02-.1.03-.16Z"/>
  <path class="cls-5" d="m298.94,227.03s-.08.01-.12.02c.07,0,.15-.02.22-.02-.03,0-.07,0-.11,0Z"/>
  <path class="cls-5" d="m280.68,226.55c0-.07.02-.14.02-.22,0-.07.01-.14.02-.21,0-.08.01-.16.02-.24-.01.26-.03.5-.06.71,0-.02,0-.03,0-.05Z"/>
  <path class="cls-5" d="m169.92,246.23c-.71.03-1.35.03-1.94,0-2.11-.11-3.49-.6-4.24-1.42.75.81,2.12,1.3,4.24,1.42.59.03,1.24.03,1.94,0Z"/>
  <path class="cls-5" d="m313.69,159.08c.06-.06.12-.12.18-.18-.14.14-.29.28-.43.42.08-.08.17-.16.25-.24Z"/>
  <path class="cls-5" d="m169.92,246.23c.82-.03,1.72-.11,2.7-.23-.98.12-1.88.2-2.7.23Z"/>
  <path class="cls-5" d="m163.22,241.49c.06-.23.14-.47.22-.71-.1.27-.18.54-.24.79,0-.03,0-.05.02-.08Z"/>
  <path class="cls-5" d="m178.27,245.02c4.52-.82,8.67-1.61,12.49-2.37-3.82.76-7.98,1.56-12.49,2.37-1.99.42-3.75.73-5.31.93,1.56-.2,3.32-.51,5.31-.93,0,0,0,0,0,0Z"/>
  <path class="cls-5" d="m280.79,221.29v-.05c0,.13,0,.25,0,.38,0-.11,0-.21,0-.32Z"/>
  <path class="cls-5" d="m184.86,215.58c.4-.4.79-.8,1.19-1.19-.79.79-1.59,1.59-2.38,2.39.4-.4.8-.8,1.19-1.2Z"/>
  <path class="cls-5" d="m300.45,227.08c.53.06,1.1.15,1.72.31-.62-.16-1.18-.26-1.72-.31Z"/>
  <path class="cls-5" d="m233.53,234.33c-.35-.36-.87-.55-1.63-.59-.14,0-.29,0-.45,0,.16,0,.31,0,.45,0,.76.04,1.28.23,1.63.59Z"/>
  <path class="cls-5" d="m214.72,146.73c-.09.22-.2.44-.3.64,0,0,.01-.02.01-.03.03-.06.06-.12.09-.19.06-.12.12-.25.18-.38.02-.04.04-.08.06-.12,0-.01.01-.03.02-.04,0,0,0-.02.01-.03.06-.15.12-.31.17-.47.02-.05.03-.09.05-.14.01-.04.02-.08.03-.12-.08.25-.16.5-.25.73-.02.05-.04.09-.06.14Z"/>
  <path class="cls-5" d="m215.18,145.32c.01-.06.03-.12.04-.18.01-.06.02-.12.04-.18-.05.22-.1.43-.16.64.03-.09.05-.18.08-.28Z"/>
  <path class="cls-5" d="m213.7,148.45s.06-.07.09-.11c.03-.03.05-.07.07-.1-.13.17-.26.33-.4.48.08-.09.16-.18.24-.27Z"/>
  <path class="cls-5" d="m215.45,143.84c-.04.29-.08.57-.13.84,0-.02,0-.04.01-.06.02-.08.03-.17.04-.25.03-.17.05-.34.07-.52,0-.01,0-.02,0-.03,0-.03.01-.07.01-.1,0-.04,0-.08.01-.12.02-.21.04-.43.06-.65,0-.05,0-.1.01-.15,0-.04,0-.08,0-.12-.02.34-.05.66-.08.98,0,.07-.02.13-.02.2Z"/>
  <path class="cls-5" d="m214.13,147.87s.05-.08.07-.12c.03-.06.07-.12.1-.17-.09.16-.19.32-.3.47.04-.06.09-.12.13-.18Z"/>
  <path class="cls-5" d="m214.22,129.15s0-.04-.01-.06c-.02-.13-.05-.26-.07-.39-.09-.48-.18-.97-.27-1.47,0-.02,0-.05-.01-.07,0-.02,0-.04-.01-.05.12.66.24,1.31.35,1.94,0,.04.01.07.02.11Z"/>
  <path class="cls-5" d="m212.36,119.55c.01.06.02.11.03.17-.01-.06-.02-.11-.03-.17-.17-.92-.34-1.82-.5-2.7.01.08.03.16.04.24.15.81.3,1.62.45,2.46Z"/>
  <path class="cls-5" d="m215.58,140.01s0,.07,0,.1c0-.08,0-.16,0-.24,0-.06,0-.13,0-.19-.01-.28-.03-.57-.05-.86,0-.06,0-.11-.01-.17,0-.04,0-.08,0-.11.03.43.06.85.07,1.26,0,.07,0,.14,0,.21Z"/>
  <path class="cls-5" d="m215.15,135.16c.01.09.02.18.03.27-.02-.13-.03-.26-.05-.4-.01-.09-.02-.18-.04-.27-.05-.37-.1-.74-.16-1.13,0-.05-.01-.1-.02-.16,0-.03,0-.06-.01-.09.08.54.15,1.07.22,1.58,0,.06.02.13.02.19Z"/>
  <path class="cls-5" d="m212.84,121.93c.05.24.09.47.14.71-.05-.25-.1-.5-.15-.75-.03-.16-.07-.33-.1-.49-.11-.55-.22-1.11-.34-1.68.15.73.29,1.45.43,2.15,0,.02,0,.04.01.06Z"/>
  <path class="cls-5" d="m214.49,130.71c-.03-.16-.06-.33-.08-.5-.03-.19-.07-.39-.1-.59.08.47.16.93.24,1.39-.02-.1-.03-.2-.05-.3Z"/>
  <path class="cls-5" d="m213.21,123.8c-.04-.2-.08-.4-.12-.6-.04-.18-.07-.37-.11-.56.11.54.21,1.06.31,1.58-.03-.14-.05-.28-.08-.42Z"/>
  <path class="cls-5" d="m213.55,125.52c-.03-.16-.06-.33-.1-.5,0-.02,0-.03,0-.05.12.6.23,1.19.34,1.77-.08-.4-.15-.81-.23-1.22Z"/>
  <path class="cls-5" d="m256.73,118.23c.57-.13,1.14-.3,1.72-.48-.58.18-1.16.34-1.72.47h0Z"/>
  <path class="cls-5" d="m215.42,137.57c0-.11-.02-.22-.03-.33,0-.05-.01-.1-.02-.15.04.37.07.73.1,1.09-.02-.2-.03-.4-.05-.6Z"/>
  <path class="cls-5" d="m214.72,132.14c-.02-.14-.04-.28-.07-.41,0-.04-.01-.08-.02-.11.08.48.15.94.22,1.4-.04-.29-.09-.57-.13-.87Z"/>
  <path class="cls-5" d="m215.59,141.93c0-.08,0-.17,0-.25,0-.06,0-.12,0-.18,0,.29-.01.57-.02.84,0-.14.02-.27.02-.42Z"/>
  <path class="cls-5" d="m215.6,141.01c0-.11,0-.22,0-.33,0-.18,0-.37-.02-.56.01.35.02.68.02,1.01,0-.04,0-.08,0-.12Z"/>
  <path class="cls-5" d="m215.3,136.41c-.02-.14-.03-.27-.05-.41-.02-.19-.05-.38-.07-.57.05.4.1.79.14,1.17,0-.07-.01-.13-.02-.19Z"/>
  <path class="cls-5" d="m210.04,81.53c-.03.06-.07.12-.1.19-.01.02-.02.05-.04.07-.02.03-.03.07-.05.11-.03.06-.06.13-.08.2-.02.05-.05.1-.07.16-.01.04-.03.08-.04.11-.03.07-.05.15-.08.22-.03.09-.06.18-.09.27-.01.04-.02.08-.03.11,0,.02-.01.04-.02.05-.03.09-.05.17-.07.26-.02.08-.04.16-.07.24-.02.08-.04.16-.06.25.03-.15.07-.29.11-.42.03-.11.06-.23.09-.33.04-.13.08-.26.12-.38.03-.1.07-.2.1-.29.05-.12.09-.24.14-.35.04-.09.07-.17.11-.26.05-.11.11-.21.16-.32.03-.06.07-.13.1-.19,0,0,0-.02.01-.02-.01.02-.03.05-.04.07-.05.08-.09.17-.13.25Z"/>
  <path class="cls-5" d="m211.75,116.23c.04.21.07.41.11.62-.03-.17-.06-.33-.09-.5-.02-.1-.04-.2-.05-.3-.11-.6-.21-1.19-.31-1.77.03.15.05.3.08.44.09.49.18,1,.27,1.51Z"/>
  <path class="cls-5" d="m210.31,81.05c-.03.05-.07.1-.1.15.06-.1.13-.2.19-.29.03-.04.05-.08.08-.11.01-.02.03-.04.04-.06-.02.03-.04.05-.06.08-.05.07-.1.15-.15.23Z"/>
  <path class="cls-5" d="m144.34,155.61c-.03.09-.07.17-.1.26.02-.07.05-.14.08-.21.02-.07.05-.13.07-.2,0,0,0-.01,0-.02,0,0,0,.02,0,.02-.02.05-.04.1-.06.15Z"/>
  <path class="cls-5" d="m211.26,79.99s-.03.02-.04.03c.01,0,.02-.02.04-.02.02-.02.05-.03.07-.05.09-.06.18-.13.28-.18-.05.03-.09.06-.13.09-.07.05-.14.09-.21.14Z"/>
  <path class="cls-5" d="m209.15,84.27c-.02.1-.04.21-.06.31,0,.03-.01.07-.02.1-.01.06-.02.12-.03.18-.01.07-.02.14-.03.21-.02.11-.03.23-.05.35-.01.11-.03.21-.04.32,0,.07-.02.15-.02.22,0,0,0-.01,0-.02.02-.14.03-.27.05-.41.02-.17.05-.35.07-.51.02-.14.04-.27.07-.4.03-.16.06-.31.09-.46.03-.12.05-.24.08-.36,0,0,0,0,0,0-.02.09-.04.17-.06.26-.02.07-.03.15-.05.23Z"/>
  <path class="cls-5" d="m208.81,86.7c0,.09-.02.19-.02.28,0-.03,0-.07,0-.1.01-.12.02-.24.03-.36.02-.19.04-.38.06-.56-.01.12-.03.23-.04.35-.01.13-.03.26-.04.39Z"/>
  <path class="cls-5" d="m144.06,156.76c0,.05,0,.11-.01.16,0-.01,0-.03,0-.04,0-.09.02-.17.03-.25,0-.01,0-.03,0-.04,0,.04-.02.09-.02.13,0,.02,0,.03,0,.05Z"/>
  <path class="cls-5" d="m144.16,156.17c-.02.06-.03.13-.04.2,0-.04.02-.08.03-.13.02-.07.03-.14.05-.21.02-.06.03-.11.05-.17-.02.05-.03.1-.04.15-.01.05-.03.11-.04.16Z"/>
  <path class="cls-5" d="m144.08,158.26s0,.07.01.1c0-.07-.01-.14-.02-.21,0-.04,0-.09-.01-.13,0-.1-.02-.2-.03-.29,0,.11.02.23.03.35,0,.06,0,.11.02.17Z"/>
  <path class="cls-5" d="m144.03,157.54c0,.06,0,.13,0,.19,0-.08,0-.15,0-.23s0-.15,0-.22c0-.05,0-.1,0-.14,0,.08,0,.16,0,.25,0,.05,0,.1,0,.16Z"/>
  <path class="cls-5" d="m210.6,80.64s-.06.06-.08.1c.08-.11.17-.21.25-.3,0,0,0,0,.01-.01.02-.03.05-.06.07-.08-.02.03-.05.06-.07.08-.06.07-.12.14-.18.21Z"/>
  <path class="cls-5" d="m208.93,96c.01.18.03.36.04.55-.03-.33-.05-.64-.07-.95-.01-.16-.02-.33-.04-.49,0-.07-.01-.13-.01-.2,0,.11.02.23.02.35.02.24.04.49.06.74Z"/>
  <path class="cls-5" d="m209.07,97.57c.02.21.04.41.06.62,0,.1.02.19.03.29.01.12.03.24.04.35.01.14.03.29.04.43.02.19.04.38.06.58.01.13.03.26.04.39.02.21.05.43.07.64.02.15.03.3.05.45.01.08.02.16.03.25.02.17.04.35.06.52.03.24.06.47.09.71.03.2.05.39.08.59.02.18.05.36.07.54,0,.05.01.1.02.15.03.23.06.46.09.69.02.17.05.34.07.51.03.25.07.5.11.75.02.13.04.26.06.39.02.14.04.27.06.41.02.15.05.3.07.45.04.27.08.55.13.83.04.29.09.58.13.87.02.15.05.3.07.44,0-.02,0-.04-.01-.07-.05-.31-.1-.62-.14-.93-.07-.43-.13-.85-.19-1.27-.05-.33-.1-.65-.14-.97-.06-.4-.11-.8-.17-1.19-.04-.32-.09-.63-.13-.95-.05-.38-.1-.75-.15-1.11-.04-.31-.08-.61-.12-.92-.04-.36-.09-.71-.13-1.06-.03-.29-.07-.58-.1-.87-.04-.35-.07-.68-.11-1.02-.03-.27-.06-.54-.08-.8-.03-.34-.06-.66-.09-.99-.02-.23-.04-.46-.06-.68,0-.02,0-.04,0-.07,0,.09.02.19.02.28.02.24.04.49.07.74Z"/>
  <path class="cls-5" d="m210.9,111.25c.03.18.06.37.09.55-.01-.08-.03-.16-.04-.25-.04-.25-.08-.5-.12-.75-.08-.46-.15-.92-.22-1.37.04.27.09.54.13.81.05.33.11.67.16,1.01Z"/>
  <path class="cls-5" d="m211.3,113.63c.04.22.07.43.11.65-.02-.14-.05-.28-.07-.42-.03-.19-.06-.38-.1-.57-.09-.5-.17-1.01-.25-1.49.03.21.07.42.11.63.07.39.13.8.2,1.2Z"/>
  <path class="cls-5" d="m208.68,90.49s0,.02,0,.03c0,.01,0,.03,0,.04,0,.1,0,.2,0,.31,0,.31,0,.62.02.94,0,.04,0,.07,0,.11-.01-.47-.02-.92-.03-1.36,0-.14,0-.28,0-.42,0-.29,0-.58,0-.85,0,.04,0,.07,0,.11,0,.36,0,.72,0,1.1Z"/>
  <path class="cls-5" d="m208.69,88.92c0,.12,0,.24,0,.36,0-.05,0-.1,0-.15,0-.12,0-.23.01-.34,0-.24.01-.47.02-.7,0,.07,0,.14,0,.21,0,.2-.01.42-.02.63Z"/>
  <path class="cls-5" d="m208.74,87.75c0,.11-.01.22-.02.34,0-.06,0-.11,0-.17,0-.11.01-.21.02-.32.01-.21.02-.42.04-.62,0,.09-.01.19-.02.28-.01.16-.02.32-.03.49Z"/>
  <path class="cls-5" d="m208.83,94.52c0,.13.02.26.02.39-.02-.33-.04-.66-.06-.98,0-.09-.01-.18-.01-.26,0-.1-.01-.2-.02-.3,0,.12.01.25.02.37.01.26.03.51.05.78Z"/>
  <path class="cls-5" d="m208.75,93.12c0,.08,0,.17.01.25-.02-.4-.03-.79-.05-1.17,0,.02,0,.05,0,.07,0,.28.02.56.03.84Z"/>
  <path class="cls-5" d="m210.98,80.23s-.04.05-.06.07c-.02.02-.04.03-.06.05.12-.12.24-.23.36-.32-.04.03-.07.06-.11.09-.04.04-.09.07-.13.11Z"/>
  <path class="cls-5" d="m283.96,144.67c.36-1.06.78-2.09,1.21-3.05,0,0,0,0,0,0-.43.96-.84,1.99-1.21,3.05Z"/>
  <path class="cls-5" d="m280.83,217.99c0,.08,0,.15,0,.23,0-.04,0-.08,0-.12,0-.08,0-.16,0-.23,0-.03,0-.06,0-.09,0,.06,0,.12,0,.18,0,.01,0,.03,0,.04Z"/>
  <path class="cls-5" d="m280.88,216.29c0-.08,0-.16,0-.24,0-.07,0-.14,0-.22,0,.09,0,.18-.01.28,0,.06,0,.12,0,.18Z"/>
  <path class="cls-5" d="m316.49,151.31c-.25-.04-.52-.06-.82-.08,0,0,0,0,0,0,.3.02.57.04.81.08Z"/>
  <path class="cls-5" d="m280.97,214.4c0,.14-.02.29-.02.43,0-.18.02-.37.03-.56,0-.04,0-.09,0-.13,0-.12.01-.24.02-.36,0,.13-.02.26-.02.39,0,.08,0,.15-.01.23Z"/>
  <path class="cls-5" d="m224.74,214.13c.1-.03.2-.06.3-.09-.04.01-.09.02-.13.03-.06.02-.11.03-.17.05Z"/>
  <path class="cls-5" d="m317.16,151.45c.08.02.14.05.21.08h0c-.07-.03-.13-.06-.21-.08-.13-.04-.29-.07-.44-.09-.08-.01-.14-.03-.23-.05.08.01.15.03.23.05.15.03.31.06.44.09Z"/>
  <path class="cls-5" d="m220.01,215.54c.42-.13.85-.26,1.28-.39h.02s-.01,0-.02,0c-.43.13-.86.26-1.28.4Z"/>
  <polygon class="cls-5" points="242.86 144.78 257.37 141.12 250.11 142.95 242.86 144.78"/>
  <path class="cls-5" d="m280.8,219.65c0,.11,0,.21,0,.32,0-.07,0-.15,0-.23,0-.06,0-.13,0-.19,0-.15,0-.29,0-.44,0,.15,0,.29,0,.43,0,.03,0,.07,0,.1Z"/>
  <path class="cls-5" d="m318.38,153.15s.02-.08.03-.11c0-.02,0-.03,0-.05,0,.02,0,.03,0,.05,0,.04-.02.07-.03.11Z"/>
  <path class="cls-5" d="m317.68,154.64c.07-.1.13-.2.19-.3.06-.09.11-.19.16-.28-.05.09-.1.18-.16.28-.06.1-.12.2-.19.3Z"/>
  <path class="cls-5" d="m318.02,154.07s.04-.07.06-.1c.07-.14.13-.27.17-.4-.03.07-.06.14-.09.21-.04.1-.09.19-.14.29Z"/>
  <path class="cls-5" d="m316.93,155.64c-.1.12-.2.25-.31.38-.1.11-.2.23-.3.35-.11.12-.22.24-.33.37.28-.31.55-.61.79-.9.06-.07.1-.13.16-.2.09-.11.18-.22.26-.32.07-.09.14-.18.2-.27-.07.09-.13.18-.2.27-.08.11-.17.21-.26.32Z"/>
  <path class="cls-5" d="m281.12,212.37c0,.12-.02.23-.03.34.02-.21.03-.43.05-.64v.06c-.01.08-.02.16-.03.24Z"/>
  <path class="cls-5" d="m281.32,210.23c0,.08-.02.16-.03.24.02-.24.05-.49.08-.73-.01.09-.02.19-.03.28,0,.07-.02.14-.02.21Z"/>
  <path class="cls-5" d="m256.39,228.93c-.14.24-.28.47-.42.69-.03.05-.06.09-.09.14-.15.23-.3.46-.46.67-.04.06-.08.11-.12.16-.17.22-.34.44-.51.64,0,0,0,0,0,0,.12-.14.25-.29.37-.44.04-.05.07-.1.11-.15.02-.02.03-.04.05-.06.03-.04.06-.08.1-.13.03-.05.07-.09.1-.14.04-.06.09-.13.13-.19.07-.11.15-.21.22-.32.05-.07.09-.14.14-.22.07-.11.13-.21.2-.32.05-.08.09-.16.14-.24.04-.06.07-.12.11-.19,0,0,0,0,0-.01.02-.04.05-.09.07-.13.05-.08.09-.17.14-.25.06-.11.12-.23.19-.34.02-.04.04-.08.06-.12-.14.26-.27.51-.41.75-.04.06-.07.13-.11.19Z"/>
  <path class="cls-5" d="m312.92,159.81s-.02.02-.04.03c.01-.01.03-.02.04-.04.08-.07.15-.14.22-.21.05-.05.1-.09.14-.14-.05.05-.1.09-.14.14-.07.07-.15.14-.22.21Z"/>
  <path class="cls-5" d="m281.59,207.97s-.01.09-.02.13c.04-.31.09-.62.13-.94-.03.23-.07.46-.1.68,0,.04-.01.09-.02.13Z"/>
  <path class="cls-5" d="m318.18,152.05c.05.06.1.11.13.18.03.05.04.11.06.17.02.05.03.1.04.16-.01-.05-.02-.11-.04-.16-.02-.06-.03-.12-.06-.17-.03-.06-.08-.12-.13-.18-.04-.05-.07-.1-.11-.14-.04-.04-.09-.06-.14-.1.05.03.1.06.14.1.05.04.08.09.12.14Z"/>
  <path class="cls-5" d="m262.66,217.19c-.05.06-.1.12-.15.18.04-.05.09-.11.13-.16,0-.01.02-.02.03-.03.08-.1.16-.19.25-.28-.08.08-.16.17-.23.26,0,0-.02.02-.02.03Z"/>
  <path class="cls-5" d="m264.92,215.39c-.05.02-.11.05-.16.07.05-.02.09-.04.14-.06.02,0,.04-.02.05-.02.09-.04.18-.08.28-.11-.06.02-.11.04-.17.07-.05.02-.1.04-.14.06Z"/>
  <path class="cls-5" d="m263.79,216.09c-.11.09-.22.18-.33.28.14-.12.28-.24.42-.35,0,0-.02.01-.03.02-.02.02-.04.03-.06.05Z"/>
  <path class="cls-5" d="m263.3,216.51s-.04.05-.06.07c-.06.06-.12.12-.18.18.11-.11.22-.22.34-.33-.01,0-.02.02-.03.03-.02.02-.04.03-.06.05Z"/>
  <path class="cls-5" d="m264.38,215.68s-.04.03-.07.04c.01,0,.03-.02.04-.02.04-.03.09-.05.13-.07.09-.05.18-.11.28-.15-.09.04-.18.09-.26.14-.04.02-.08.04-.12.07Z"/>
  <path class="cls-5" d="m257.03,227.78s-.02.04-.03.07c0,0,.01-.02.02-.03.06-.11.11-.22.17-.33.04-.09.09-.18.13-.26.05-.09.09-.18.14-.27.02-.03.03-.07.05-.1-.03.05-.05.1-.08.16-.13.26-.26.52-.39.77Z"/>
  <path class="cls-5" d="m280.74,225.79s0,.07,0,.1c0-.08,0-.15.01-.23,0-.09,0-.17.01-.26,0-.08,0-.17,0-.26,0-.07,0-.15,0-.22,0-.02,0-.04,0-.06,0,.04,0,.07,0,.11,0,.29-.02.57-.03.83Z"/>
  <path class="cls-5" d="m280.79,223.85c0,.34,0,.67-.01.98v.02c0-.09,0-.18,0-.28,0-.1,0-.2,0-.3,0-.1,0-.21,0-.31,0-.06,0-.11,0-.17v-.02s0-.08,0-.12c0-.11,0-.21,0-.32,0-.12,0-.25,0-.38v-.37h0c0,.39,0,.75,0,1.11,0,.06,0,.12,0,.18Z"/>
  <path class="cls-5" d="m280.42,227.76s-.01.03-.02.04c0-.01.01-.02.02-.03.01-.03.03-.06.04-.09.01-.04.03-.08.04-.12.02-.05.03-.09.05-.15.01-.04.02-.09.03-.14,0,.02-.01.05-.02.07-.04.16-.08.3-.14.42Z"/>
  <path class="cls-5" d="m280.2,228.1s-.02.02-.03.02l-.5.13s.06.02.09.02c.07,0,.13,0,.18-.02h0c.06-.01.11-.04.16-.07.02,0,.03-.03.04-.04,0,0,.01,0,.02-.01,0,0,0,0,.01-.01,0,0,.02-.01.03-.02.01-.01.03-.02.04-.04.02-.02.03-.05.05-.07.02-.03.05-.06.07-.1.02-.03.03-.06.04-.09,0,0,0,.02-.01.02-.06.11-.12.2-.19.27Z"/>
  <path class="cls-5" d="m258.91,223.82c.08-.17.16-.34.23-.51-.06.13-.12.25-.17.38-.02.04-.04.09-.06.13Z"/>
  <path class="cls-5" d="m259.26,223.07c.05-.11.11-.23.16-.34,0,.01-.01.03-.02.04-.05.1-.1.2-.14.31Z"/>
  <path class="cls-5" d="m261.92,218.16c.07-.1.13-.19.2-.28-.03.04-.05.07-.08.11-.04.06-.08.11-.12.17Z"/>
  <path class="cls-5" d="m257.49,226.85c.04-.09.09-.18.13-.26.06-.13.13-.26.19-.4.04-.08.07-.16.11-.24-.13.28-.26.56-.4.83l-.03.07Z"/>
  <path class="cls-5" d="m258.04,225.7c-.03.07-.07.15-.1.22,0,0,0,0,0,0,0-.01.01-.03.02-.04,0,0,0-.01,0-.02.06-.12.11-.24.17-.36.03-.07.07-.14.1-.21.06-.13.12-.27.18-.4.02-.03.03-.07.05-.1-.02.04-.04.09-.06.13-.12.26-.24.52-.37.79Z"/>
  <path class="cls-5" d="m260.94,219.74s-.04.07-.06.1c.06-.11.12-.22.18-.32-.03.06-.06.11-.1.17-.01.02-.02.04-.03.06Z"/>
  <path class="cls-5" d="m261.5,218.78c-.03.05-.06.11-.1.16.01-.02.03-.04.04-.06.03-.05.07-.1.1-.16,0,0,.01-.02.02-.03-.02.03-.04.05-.05.08,0,0,0,0,0,0Z"/>
  <path class="cls-5" d="m259.93,221.67c.05-.11.11-.21.16-.32-.04.08-.08.17-.12.25-.01.02-.02.05-.04.07Z"/>
  <path class="cls-5" d="m260.4,220.72c-.06.12-.12.24-.18.36.06-.12.12-.24.18-.36.03-.05.05-.1.08-.15.02-.04.04-.08.06-.12-.03.07-.07.13-.1.19-.01.03-.03.05-.04.08Z"/>
  <path class="cls-5" d="m295.59,175.59c-1.01.96-2.03,1.94-3.04,2.95,1.02-1,2.03-1.98,3.04-2.94.31-.3.62-.59.93-.88-.29.27-.57.54-.86.81-.02.02-.04.04-.07.06Z"/>
  <path class="cls-5" d="m304.26,167.64c-.2.18-.4.36-.59.53.2-.18.41-.37.61-.55.15-.13.29-.26.44-.4.24-.21.47-.42.71-.63-.22.19-.43.39-.66.58-.17.15-.34.3-.51.46Z"/>
  <path class="cls-5" d="m301.22,170.37c.1-.09.21-.19.31-.28-.1.09-.21.19-.32.29,0,0,0,0,0,0Z"/>
  <path class="cls-5" d="m310.74,161.83h.01s-.07.05-.1.08c.03-.03.06-.06.09-.08Z"/>
  <path class="cls-5" d="m280.79,221.2c0-.14,0-.27,0-.41,0,.1,0,.21,0,.31v.1Z"/>
  <path class="cls-5" d="m302.8,168.94c-.37.34-.75.67-1.13,1.02.47-.43.94-.85,1.4-1.26-.03.03-.07.06-.1.09-.06.05-.12.1-.17.16Z"/>
  <path class="cls-5" d="m299.8,171.67c-.17.16-.34.31-.51.47.17-.16.35-.32.52-.48.17-.15.33-.3.5-.45.3-.28.61-.55.91-.83-.3.27-.6.54-.9.82-.17.16-.34.31-.51.47Z"/>
  <path class="cls-5" d="m309.33,163.11c-.3.27-.61.55-.92.83.29-.26.58-.52.87-.78.08-.07.16-.15.24-.22.35-.31.69-.62,1.02-.93-.34.31-.68.61-1.03.93-.06.05-.12.11-.18.16Z"/>
  <path class="cls-5" d="m313.04,205.38c-5.59-4.86-13.33-10.24-17.77-15.69,4.44,5.45,12.18,10.83,17.77,15.69Z"/>
  <path class="cls-5" d="m311.6,161.05c-.06.06-.13.12-.2.18.06-.06.13-.12.19-.18.12-.11.24-.22.36-.34.18-.17.36-.34.54-.5-.18.17-.36.34-.55.51-.12.11-.23.22-.35.33Z"/>
  <path class="cls-2" d="m285.17,141.62s0,0,0,0c2.04-5.22,3.51-9.25,4.49-12.3.44-1.39.78-2.57,1.03-3.57.1-.4.18-.77.25-1.11.03-.17.07-.33.09-.49.27-1.57.18-2.45-.22-2.79-.02-.02-.04-.03-.06-.04-.02-.01-.04-.03-.07-.04-.09-.05-.19-.07-.31-.08,0,0,0,0-.01,0-.12,0-.25.01-.39.04-2.11.52-6.78,5.38-12.32,10.19-.9.78-1.82,1.56-2.76,2.32-.97,2.95-2.36,6.73-4.23,11.52l14.51-3.65Z"/>
  <path class="cls-2" d="m281.08,179.24s0,0-.01.01c-1.01.96-2.02,1.94-3.03,2.94l14.51-3.65c1.02-1,2.03-1.99,3.04-2.95l-14.51,3.65Z"/>
  <path class="cls-1" d="m313.15,159.6l-14.5,3.65c-.07.07-.15.14-.23.21-.12.11-.23.22-.35.33-.2.19-.41.38-.62.57-.12.11-.24.22-.36.33-.24.22-.48.44-.72.66-.1.09-.2.18-.3.28-.35.31-.7.63-1.06.96-.08.08-.17.16-.26.23-.29.26-.58.52-.87.78-.16.15-.33.3-.5.44-.24.21-.48.43-.72.65-.29.26-.58.52-.87.78-.22.19-.44.39-.66.59-.31.28-.62.56-.94.84-.14.12-.28.25-.42.37-.43.39-.87.78-1.31,1.17-.03.03-.06.05-.09.08-.41.36-.82.73-1.23,1.11-.13.12-.27.25-.41.37-.31.29-.63.57-.95.86-.16.14-.32.29-.48.44-.3.28-.6.55-.91.83-.17.16-.34.31-.51.47-.32.29-.64.59-.96.89-.15.14-.3.28-.44.41-.47.44-.94.88-1.41,1.33l14.51-3.65s.05-.04.07-.06c.29-.27.57-.54.86-.81.16-.15.32-.3.48-.45.04-.03.07-.07.11-.1.12-.11.24-.22.35-.33.32-.29.63-.59.94-.88.07-.06.13-.12.2-.18.1-.1.21-.19.31-.29.12-.11.25-.23.37-.34.17-.16.34-.32.51-.47.17-.16.34-.31.51-.47.3-.28.6-.55.9-.82,0,0,0,0,0,0,.1-.09.21-.19.32-.29.05-.04.1-.09.15-.13.38-.34.76-.68,1.13-1.02.06-.05.12-.1.17-.16.03-.03.07-.06.1-.09,0,0,.01-.01.02-.02.19-.17.38-.34.57-.51.2-.18.4-.36.59-.53.17-.15.34-.31.51-.46.22-.2.44-.39.66-.58.04-.04.09-.08.13-.11.99-.88,1.94-1.73,2.85-2.54.31-.28.62-.56.92-.83.06-.05.12-.11.18-.16.35-.32.69-.63,1.03-.93.04-.03.07-.07.11-.1.03-.03.07-.06.1-.09.04-.04.09-.08.13-.12.18-.16.35-.32.52-.48.07-.06.13-.12.2-.18.12-.11.24-.22.35-.33.19-.17.37-.34.55-.51.02-.02.05-.05.07-.07.11-.1.21-.2.32-.3.01-.01.02-.02.04-.03.08-.07.15-.14.22-.21Z"/>
  <path class="cls-2" d="m349.71,234.83c-.11.02-.23.04-.34.06-.16.02-.32.05-.48.07-.12.02-.25.03-.37.04-.17.02-.34.03-.51.05-.13.01-.26.02-.39.03-.18.01-.36.02-.55.03-.13,0-.27.01-.4.02-.19,0-.4,0-.6.01-.13,0-.27,0-.4,0-.22,0-.45,0-.68,0-.12,0-.24,0-.36,0-.34,0-.68-.02-1.03-.04-.02,0-.03,0-.04,0-2.69-.14-5.73-.52-8.93-1.04-2.29-.37-4.66-.81-7.06-1.29-1.44-.29-2.88-.59-4.31-.9-8.13-1.74-16.02-3.68-21.08-4.46l-6.7,1.69c-.54.86-.89,1.96-1.08,3.25,10.28,2.19,24.8,5.88,34.66,6.4,2.08.11,3.95.08,5.54-.14.53-.07,1.02-.17,1.48-.28l14.51-3.65s-.06.01-.09.02c-.1.02-.2.04-.3.07-.15.03-.3.07-.46.09Z"/>
  <path class="cls-2" d="m300.45,227.08c-.18-.02-.36-.05-.53-.06h0c-.31-.02-.59,0-.87.01-.08,0-.15.01-.22.02-.23.02-.45.06-.66.11-1.2.28-2.08.94-2.7,1.92l6.7-1.69c-.62-.16-1.18-.26-1.72-.31Z"/>
  <path class="cls-2" d="m316.74,208.92c-1.04-1.14-2.31-2.33-3.7-3.54-5.59-4.86-13.33-10.24-17.77-15.69-.37-.45-.72-.91-1.04-1.36-.16-.23-.31-.46-.46-.68-.67-1.04-1.19-2.08-1.54-3.12-.31-.93-.48-1.86-.47-2.79,0-.02,0-.03,0-.05.02-1.05.27-2.1.78-3.14l-14.51,3.65c-4.52,9.15,11.59,18.97,20.94,27.24,4.19,1.32,8.35,2.61,11.74,3.23,1,.18,1.94.31,2.78.36.1,0,.19,0,.28,0,.86.03,1.63-.03,2.27-.19,0,0,0,0-.01,0,.21-.05.4-.12.59-.2.04-.02.08-.03.12-.05.04-.02.08-.03.12-.05,0,0,.02,0,.02-.01.12-.06.24-.13.34-.21.02-.02.04-.04.07-.05.08-.06.15-.11.22-.18,0,0,0,0,0,0,0,0,.02-.02.03-.03.04-.04.07-.08.11-.11.02-.02.04-.04.06-.06.09-.11.18-.23.25-.37,0,0,0-.02.01-.03,0-.02.02-.04.02-.05.02-.03.03-.07.05-.11.08-.17.14-.35.19-.55-.42-.6-.93-1.22-1.5-1.84Z"/>
  <path class="cls-1" d="m258.46,117.75s.07-.02.1-.03c.56-.18,1.12-.37,1.69-.59.06-.02.11-.04.17-.06.55-.21,1.11-.45,1.67-.69.07-.03.15-.06.22-.1.55-.25,1.1-.51,1.66-.79.08-.04.17-.08.25-.12.55-.28,1.11-.58,1.67-.89.09-.05.17-.1.26-.14.56-.31,1.12-.64,1.68-.98.08-.05.17-.1.25-.15.57-.35,1.14-.7,1.71-1.07.07-.05.15-.1.22-.14.58-.38,1.17-.77,1.76-1.17.06-.04.11-.08.17-.12.6-.41,1.21-.84,1.82-1.27.03-.02.06-.04.09-.07.62-.45,1.25-.91,1.87-1.37,0,0,.02-.01.03-.02.62-.46,1.24-.94,1.86-1.42.05-.03.09-.07.14-.1.6-.46,1.19-.93,1.79-1.4.07-.05.13-.1.2-.16.58-.46,1.16-.93,1.74-1.4.08-.07.16-.13.24-.2.57-.46,1.13-.93,1.7-1.4.09-.07.18-.15.27-.22.56-.47,1.12-.93,1.67-1.4.09-.07.18-.15.27-.22.56-.47,1.11-.94,1.66-1.41.08-.07.17-.14.25-.21.55-.47,1.1-.95,1.65-1.42.09-.07.17-.15.25-.22.55-.47,1.1-.95,1.64-1.41.6-.52,1.2-1.03,1.79-1.54.03-.03.07-.06.1-.09.56-.48,1.12-.96,1.67-1.44.03-.02.05-.04.08-.07.54-.46,1.08-.92,1.61-1.37.05-.05.11-.09.17-.14.51-.44,1.02-.86,1.52-1.28.07-.06.13-.11.2-.17.49-.41.97-.81,1.45-1.2.08-.06.15-.12.23-.19.47-.39.93-.76,1.39-1.12.07-.06.15-.12.22-.18.45-.36.9-.71,1.34-1.05.07-.05.14-.11.21-.16.44-.34.87-.66,1.3-.97.06-.05.13-.09.19-.14.43-.31.85-.61,1.26-.9.05-.03.1-.07.15-.1.42-.29.84-.56,1.24-.82.03-.02.06-.04.09-.06.42-.26.83-.51,1.22-.73,0,0,.01,0,.02,0,.4-.22.78-.42,1.15-.6.02-.01.05-.02.07-.03.36-.17.71-.32,1.04-.45.04-.01.07-.03.11-.04.33-.12.64-.22.94-.3.03,0,.05-.02.08-.03l-14.51,3.65c-8.61,2.17-26.43,22.1-42.89,32.42.75.66,1.49,1.32,2.24,1.95.57-.13,1.14-.29,1.72-.47Z"/>
  <path class="cls-2" d="m267.1,211.49s-.01.09-.02.14c-.09.7-.17,1.37-.25,2.04,0,.07-.02.14-.02.22-.04.39-.07.76-.11,1.14.06,0,.12,0,.18,0,.3.02.61.06.93.14,7.25,8.9,10.45,12.86,11.86,13.08l.5-.13s.02-.02.03-.02c.07-.07.13-.16.19-.27,0,0,0-.02.01-.02,0-.01.01-.03.02-.04.05-.12.1-.26.14-.42,0-.02.01-.05.02-.07,0,0,0,0,0,0,0,0,0,0,0,0,.04-.17.07-.35.09-.56,0-.03,0-.07.01-.1.02-.22.04-.45.06-.71,0-.03,0-.07,0-.1.01-.26.02-.53.03-.83,0-.04,0-.07,0-.11v-.02c0-.31.01-.63.01-.98,0-.06,0-.12,0-.18,0-.35,0-.72,0-1.11h0c0-.18,0-.36,0-.54,0-.14,0-.28,0-.42,0-.12,0-.25,0-.38v-.13c0-.1,0-.21,0-.31,0-.13,0-.26,0-.4,0-.14,0-.28,0-.43,0-.11,0-.21,0-.32,0-.03,0-.07,0-.1,0-.14,0-.29,0-.43,0-.14,0-.29,0-.43,0-.15,0-.31,0-.46,0-.08,0-.15,0-.23,0-.01,0-.03,0-.04,0-.06,0-.12,0-.18,0-.16,0-.33.01-.5,0-.15,0-.29.01-.44,0-.17.01-.35.02-.52,0,0,0-.01,0-.02,0-.06,0-.12,0-.18,0-.09,0-.18.01-.28,0-.17.02-.35.02-.53,0-.16.02-.32.02-.48,0-.14.02-.29.02-.43,0-.08,0-.15.01-.23,0-.13.02-.26.02-.39.01-.19.03-.39.04-.59.01-.16.02-.32.03-.48,0-.11.02-.23.03-.34,0-.08.01-.16.02-.24v-.06c.02-.15.03-.31.04-.46.02-.23.04-.46.07-.69.01-.15.03-.3.04-.45,0-.08.02-.16.03-.24,0-.07.02-.14.02-.21.01-.09.02-.19.03-.28.02-.15.03-.29.05-.44.03-.26.07-.53.1-.8.02-.13.03-.26.05-.4,0-.04.01-.09.02-.13,0-.04.01-.09.02-.13.03-.23.06-.45.1-.68.01-.1.03-.19.04-.29.06-.42.13-.83.2-1.26l-14.51,3.65c-.12.76-.23,1.5-.33,2.22Z"/>
  <path class="cls-2" d="m244.5,145.02c.83.04,1.68-.02,2.55-.18.29-.05.58-.12.87-.19l14.51-3.65s-.02,0-.03,0c-.04,0-.08.02-.11.02-.31.07-.62.14-.92.19-.11.02-.21.03-.31.05-.25.04-.5.06-.74.08-.1,0-.2.02-.3.02-.34.02-.67.02-1,0-.56-.03-1.1-.11-1.64-.24l-14.51,3.65c.54.13,1.08.21,1.64.24Z"/>
  <path class="cls-2" d="m278.53,260.52c-.31-.49-.62-.99-.92-1.49-3.54-5.77-6.85-11.9-10.8-16.58-3.41,2.54-6.19,6.89-8.97,11.52,6.09,9.8,11.57,21.21,20.89,24.92l14.51-3.65c-3.52-1.4-6.49-3.9-9.16-7-1.6-1.86-3.09-3.93-4.51-6.11-.35-.53-.69-1.07-1.03-1.61Z"/>
  <path class="cls-2" d="m242.86,144.78l7.25-1.83,7.25-1.83c-6.21-5.42-12.01-10.98-18.04-16.48-.86-.79-1.73-1.57-2.6-2.35-1.82-1.63-3.67-3.26-5.56-4.87.61,6.34,1.44,12.55,2.15,18.71,2.06,1.91,4.13,3.82,6.23,5.71,1.09.98,2.2,1.96,3.32,2.94Z"/>
  <path class="cls-2" d="m248.8,220.16s-.05.05-.07.07c-.18.18-.36.36-.53.56.36,4.35,1.1,8.7,2,11.6.34,1.09.7,1.98,1.07,2.58.04.06.08.13.12.19.08.01.17,0,.26-.03-.01,0-.02.01-.04.02.04,0,.08-.03.12-.05.02,0,.04-.01.06-.02.03-.02.07-.04.11-.07.02-.01.04-.02.06-.04.09-.06.18-.13.27-.21.02-.02.04-.04.06-.06,0,0,.02-.02.03-.03.04-.04.09-.09.13-.14.03-.03.06-.06.08-.09.02-.02.04-.05.06-.07.01-.01.02-.03.04-.04.02-.02.03-.04.05-.06.03-.04.06-.07.09-.11.05-.06.1-.12.14-.18.03-.04.06-.08.09-.12,0,0,0,0,0-.01.04-.06.09-.12.13-.18.03-.04.06-.09.09-.13.03-.04.06-.08.09-.12,0,0,.01-.02.02-.03.01-.02.02-.04.04-.05.03-.04.06-.09.09-.13.05-.07.09-.14.14-.2.03-.04.06-.08.09-.13,0,0,0-.01.01-.02.05-.07.09-.14.13-.21.02-.03.04-.07.06-.1.03-.04.06-.09.09-.13.07-.1.13-.2.19-.3.04-.06.08-.12.12-.18,0,0,0-.02.01-.02.01-.02.03-.04.04-.06.04-.07.09-.13.13-.19.03-.04.05-.07.07-.11,0-.01.02-.02.02-.03.02-.03.04-.06.06-.09.03-.05.06-.09.09-.13.02-.02.03-.05.05-.07,0,0,0,0,0,0,.18-.2.34-.41.51-.64.04-.05.08-.11.12-.16.16-.21.31-.44.46-.67.03-.05.06-.09.09-.14.14-.22.28-.45.42-.69.04-.06.07-.12.11-.19.14-.24.28-.5.41-.75.03-.05.05-.1.08-.15.01-.02.02-.04.03-.07.13-.25.26-.51.39-.77.03-.05.05-.1.08-.16l.03-.07c.13-.27.27-.55.4-.83,0,0,0,0,0,0,0,0,0-.01,0-.02,0,0,0,0,0,0,.03-.07.07-.15.1-.22.12-.26.24-.52.37-.79.02-.04.04-.09.06-.13.03-.06.05-.11.08-.17.07-.15.14-.3.2-.44l.1-.21s.05-.1.07-.15c.02-.04.04-.09.06-.13.06-.13.12-.25.17-.38.04-.08.07-.16.11-.24.05-.1.1-.2.14-.31,0-.01.01-.03.02-.04.01-.02.02-.05.04-.07.04-.09.09-.18.13-.27.06-.13.12-.26.19-.39.03-.07.07-.14.1-.21,0-.02.02-.04.03-.05,0-.02.02-.04.03-.06.01-.02.02-.05.04-.07.04-.08.08-.17.12-.25.05-.09.09-.18.14-.27.06-.12.12-.24.18-.36.01-.03.03-.05.04-.08.03-.07.07-.13.1-.19.06-.11.12-.23.18-.34.05-.09.1-.18.15-.27.02-.03.04-.07.06-.1.01-.02.02-.04.03-.06.03-.06.06-.11.1-.17.05-.09.1-.18.15-.26.06-.11.13-.21.19-.31.03-.05.06-.11.1-.16,0,0,0,0,0,0,.02-.03.04-.06.05-.08.06-.1.13-.2.2-.3.05-.08.11-.16.16-.24.04-.06.08-.11.12-.17.03-.04.05-.07.08-.11,0,0,0,0,0,0s0,0,0,0c.05-.07.1-.14.16-.21.07-.09.15-.19.22-.28.05-.06.1-.12.15-.18,0,0,.02-.02.02-.03.08-.09.16-.17.23-.26.05-.05.09-.11.14-.15.06-.06.12-.12.18-.18.02-.02.04-.05.06-.07l-14.5,3.65Z"/>
  <path class="cls-1" d="m251.12,218.8c-.19.05-.38.11-.56.19-.05.02-.11.05-.16.07-.14.06-.27.13-.4.21-.05.03-.1.05-.14.08-.17.11-.34.22-.5.35-.02.02-.04.03-.06.05-.15.12-.29.24-.43.37-.02.02-.04.03-.05.05l14.5-3.65s.04-.03.06-.05c.01,0,.02-.02.03-.03.02-.02.04-.04.07-.06.11-.1.22-.19.33-.28.02-.02.04-.03.06-.05,0,0,.02-.01.03-.02.04-.03.09-.06.13-.09.1-.07.2-.14.3-.21.02-.01.04-.03.07-.04.04-.02.08-.04.12-.07.09-.05.17-.1.26-.14.05-.03.1-.05.16-.07.05-.02.09-.04.14-.06.06-.02.11-.05.17-.07.07-.02.14-.04.21-.07.06-.02.12-.04.18-.06l-14.51,3.65Z"/>
  <path class="cls-1" d="m211.11,80.11s.07-.07.11-.09c.01-.01.03-.02.04-.03.07-.05.14-.1.21-.14.04-.03.09-.06.13-.09.01,0,.02-.01.03-.02.07-.04.15-.07.23-.11.04-.02.08-.04.12-.06.01,0,.03-.01.04-.02.04-.02.08-.03.12-.04.08-.03.15-.05.23-.07l-14.51,3.65c-.14.03-.27.08-.4.13-.04.02-.08.04-.12.06-.09.04-.17.08-.25.13-.05.03-.09.06-.14.09-.07.05-.15.09-.22.15-.05.04-.1.08-.14.12-.04.03-.08.07-.12.11l14.49-3.65s.09-.07.13-.11Z"/>
  <path class="cls-2" d="m215.58,140.11s0-.07,0-.1c0-.07,0-.14,0-.21-.02-.41-.04-.82-.07-1.26,0-.12-.02-.25-.03-.37-.03-.35-.06-.71-.1-1.09-.02-.16-.03-.32-.05-.48-.04-.38-.09-.77-.14-1.17-.01-.09-.02-.18-.03-.27,0-.06-.02-.13-.02-.19-.07-.51-.14-1.04-.22-1.58-.02-.12-.04-.25-.06-.38-.07-.46-.14-.92-.22-1.4-.03-.2-.06-.4-.1-.6-.07-.45-.15-.91-.24-1.39-.03-.16-.06-.32-.08-.48,0-.04-.01-.07-.02-.11-.11-.63-.23-1.27-.35-1.94-.02-.12-.05-.24-.07-.36-.11-.58-.22-1.17-.34-1.77-.05-.24-.1-.49-.14-.74-.1-.52-.21-1.04-.31-1.58-.05-.24-.09-.47-.14-.71,0-.02,0-.04-.01-.06-.14-.7-.28-1.41-.43-2.15-.01-.06-.02-.11-.03-.17-.16-.84-.31-1.65-.45-2.46-.01-.08-.03-.16-.04-.24-.04-.21-.07-.41-.11-.62-.09-.51-.18-1.01-.27-1.51-.03-.15-.05-.3-.08-.44-.04-.22-.07-.43-.11-.65-.07-.4-.14-.8-.2-1.2-.04-.21-.07-.42-.11-.63-.03-.18-.06-.37-.09-.55-.06-.34-.11-.68-.16-1.01-.04-.27-.09-.54-.13-.81-.02-.15-.05-.3-.07-.44-.05-.3-.09-.58-.13-.87-.04-.28-.09-.55-.13-.83-.02-.15-.05-.3-.07-.45-.02-.14-.04-.27-.06-.41-.02-.13-.04-.26-.06-.39-.04-.25-.07-.5-.11-.75-.02-.17-.05-.34-.07-.51-.03-.23-.06-.46-.09-.69,0-.05-.01-.1-.02-.15-.02-.18-.05-.37-.07-.54-.03-.2-.05-.39-.08-.59-.03-.24-.06-.48-.09-.71-.02-.17-.04-.35-.06-.52-.01-.08-.02-.16-.03-.25-.02-.15-.03-.3-.05-.45-.02-.21-.05-.43-.07-.64-.01-.13-.03-.26-.04-.39-.02-.2-.04-.39-.06-.58-.01-.14-.03-.29-.04-.43-.01-.12-.03-.24-.04-.35,0-.1-.02-.19-.03-.29-.02-.21-.04-.42-.06-.62-.02-.25-.05-.5-.07-.74,0-.1-.02-.19-.02-.28-.02-.19-.03-.37-.04-.55-.02-.25-.04-.5-.06-.74,0-.12-.02-.23-.02-.35,0-.13-.02-.26-.02-.39-.02-.26-.03-.52-.05-.78,0-.12-.01-.25-.02-.37,0-.09,0-.17-.01-.25-.01-.29-.02-.57-.03-.84,0-.02,0-.05,0-.07,0-.09,0-.19-.01-.29,0-.04,0-.07,0-.11,0-.32-.01-.63-.02-.94,0-.1,0-.21,0-.31,0-.01,0-.03,0-.04,0-.01,0-.02,0-.03,0-.38,0-.74,0-1.1,0-.04,0-.07,0-.11,0-.12,0-.24,0-.36,0-.21.01-.42.02-.63,0-.07,0-.14,0-.21,0-.12.01-.23.02-.34,0-.16.02-.33.03-.49,0-.1.01-.19.02-.28,0-.1.02-.19.02-.28.01-.13.02-.26.04-.39.01-.12.02-.24.04-.35,0-.07.02-.15.02-.22.01-.11.03-.22.04-.32.02-.12.03-.23.05-.35.01-.07.02-.14.03-.21,0-.06.02-.12.03-.18,0-.03.01-.07.02-.1.02-.1.04-.21.06-.31.02-.08.03-.15.05-.23.02-.09.04-.18.06-.26.02-.08.04-.17.06-.25.02-.08.04-.16.07-.24.02-.09.05-.18.07-.26,0-.02.01-.04.02-.05.01-.04.02-.08.03-.11.03-.09.06-.18.09-.27.03-.07.05-.15.08-.22.01-.04.03-.08.04-.11.02-.06.05-.11.07-.16.03-.07.06-.13.08-.2.02-.04.03-.08.05-.11.01-.03.02-.05.04-.07.03-.06.06-.12.1-.19.04-.09.09-.17.13-.25.01-.02.03-.05.04-.07.03-.05.07-.1.1-.15.05-.08.1-.15.15-.23.02-.03.04-.06.06-.08.03-.04.05-.07.08-.1.06-.07.12-.14.18-.21.02-.03.05-.06.07-.08.02-.02.04-.04.06-.05.02-.02.04-.05.06-.07l-14.49,3.65s-.05.05-.08.07c-.04.04-.09.09-.13.14-.06.07-.12.14-.18.21-.04.05-.08.1-.12.16-.06.08-.11.16-.17.25-.04.06-.08.12-.11.18-.06.1-.11.2-.16.3-.03.06-.06.12-.1.19-.06.12-.11.25-.17.38-.02.05-.05.1-.07.16-.07.19-.15.39-.21.61-.01.04-.02.07-.03.11-.05.18-.11.36-.16.56-.02.08-.04.17-.06.26-.04.16-.07.31-.1.48-.02.1-.04.21-.06.31-.03.16-.06.32-.08.49-.02.11-.03.23-.05.35-.02.17-.05.34-.07.52-.01.12-.03.25-.04.38-.02.19-.04.38-.05.57-.01.13-.02.26-.03.39-.01.21-.03.43-.04.65,0,.13-.01.25-.02.38-.01.27-.02.55-.02.84,0,.09,0,.17,0,.25,0,.38,0,.77,0,1.17,0,.1,0,.21,0,.31,0,.3,0,.61.02.93,0,.16.01.32.02.48,0,.27.02.55.03.84,0,.18.02.37.03.55.01.28.03.56.05.84.01.19.03.39.04.59.02.29.04.59.07.89.02.21.03.41.05.62.03.31.05.63.08.95.02.21.04.42.06.63.03.35.07.71.11,1.07.02.19.04.38.06.58.05.48.11.98.17,1.48.01.08.02.16.03.25.07.59.15,1.2.23,1.82.02.18.05.36.07.54.06.44.12.89.18,1.35.04.25.07.51.11.76.06.4.12.81.18,1.22.04.28.08.56.13.84.06.41.13.82.19,1.24.05.29.09.59.14.89.07.42.14.85.21,1.29.05.3.1.6.15.91.08.46.16.93.24,1.4.05.29.1.58.15.88.09.52.19,1.05.28,1.59.05.26.09.52.14.79.15.8.3,1.62.45,2.45.13.63.25,1.24.38,1.85.04.18.07.35.11.53.09.43.17.85.25,1.27.04.2.08.4.12.6.08.41.16.82.24,1.22.03.16.06.33.09.49.11.56.21,1.11.31,1.64,0,.02,0,.05.01.07.09.5.18.99.27,1.47.03.16.06.32.08.48.06.35.12.7.18,1.04.03.17.06.34.09.5.06.34.11.68.17,1.01.02.14.05.28.07.41.07.46.14.91.21,1.34,0,.05.01.1.02.16.06.38.11.76.16,1.13.02.13.03.26.05.4.04.29.07.57.1.84.02.14.03.28.05.41.03.28.06.56.09.83.01.11.02.22.03.33.03.37.06.73.09,1.09,0,.06,0,.11.01.17.02.3.04.58.05.87,0,.11,0,.22.01.32,0,.23.01.45.02.67,0,.11,0,.22,0,.33,0,.23,0,.45,0,.67,0,.08,0,.16,0,.24,0,.29-.02.58-.04.86,0,.05,0,.1-.01.15-.02.22-.04.44-.06.65,0,.09-.02.17-.03.26-.02.18-.05.35-.07.52-.01.09-.03.17-.04.25-.03.18-.07.35-.11.52-.01.06-.03.12-.04.18-.05.22-.12.44-.18.65-.01.05-.03.09-.05.13-.05.16-.11.32-.17.48-.03.07-.05.13-.08.2-.06.13-.12.26-.18.39-.03.06-.06.12-.09.18-.07.14-.15.27-.23.4-.02.04-.05.08-.07.12-.06.09-.12.18-.19.27,1.02.01,1.98,0,2.89,0,2.81-.06,5.12-.28,6.97-.77-.06.01-.1.03-.16.05.09-.02.16-.05.25-.07.1-.03.19-.05.29-.08.18-.05.36-.11.54-.17.04-.01.08-.03.12-.04.06-.02.13-.04.19-.07.27-.1.52-.21.77-.33.06-.03.11-.06.17-.09.01,0,.02-.01.03-.02.17-.09.34-.18.51-.28.07-.04.14-.09.21-.13.02-.01.04-.02.05-.03.03-.02.06-.04.09-.06.11-.08.21-.16.32-.24.05-.04.11-.08.16-.13.08-.07.15-.14.23-.2.02-.02.04-.04.06-.06.05-.05.1-.09.15-.14.04-.04.07-.07.11-.1.01-.01.02-.02.03-.04.02-.02.03-.04.05-.06.14-.15.27-.31.4-.48.05-.06.09-.13.14-.19.11-.15.21-.31.3-.47.04-.07.08-.13.11-.2.11-.21.21-.42.3-.64.02-.05.04-.09.06-.14.09-.23.18-.48.25-.73.03-.08.05-.17.07-.26.06-.21.11-.42.16-.64.02-.09.04-.18.06-.28.05-.27.1-.55.13-.84,0-.07.02-.13.02-.2.04-.31.06-.64.08-.98,0-.1.01-.21.01-.32.01-.27.02-.55.02-.84,0-.12,0-.25,0-.37,0-.33,0-.66-.02-1.01Z"/>
  <path class="cls-2" d="m234.12,166.07s0,0,0,0c-.17.04-.35.08-.55.12-.07.01-.14.02-.2.04-.14.03-.29.05-.44.07-.08.01-.16.02-.25.03-.16.02-.32.04-.49.06-.08,0-.16.02-.25.03-.22.02-.44.04-.68.06-.04,0-.08,0-.12.01-.27.02-.56.04-.85.06-.1,0-.2.01-.31.02-.2.01-.41.02-.62.03-.12,0-.24.01-.36.02-.21,0-.42.02-.63.02-.12,0-.24,0-.36.01-.25,0-.5.02-.76.02-.08,0-.17,0-.25,0-.34,0-.68.02-1.02.02-.14,0-.28,0-.42,0-.23,0-.46,0-.69.01-.16,0-.32,0-.47,0-.21,0-.42,0-.63,0-.9.01-1.81.02-2.74.04-.03,0-.07,0-.1,0-.35,0-.7.01-1.04.02-.11,0-.22,0-.33,0-.28,0-.57.01-.85.02-.12,0-.25,0-.37,0-.31,0-.63.01-.94.02-.08,0-.15,0-.23,0-.39.01-.78.02-1.17.04-.07,0-.14,0-.2,0-.31.01-.62.02-.92.04-.12,0-.25.01-.37.02-.26.01-.51.02-.76.04-.12,0-.25.01-.37.02-.27.02-.54.03-.8.05-.09,0-.19.01-.28.02-.35.03-.7.05-1.05.08-.06,0-.12.01-.17.02-.28.03-.56.05-.83.08-.11.01-.21.02-.32.04-.22.03-.44.05-.65.08-.11.01-.22.03-.33.04-.22.03-.43.06-.64.1-.09.01-.18.03-.27.04-.29.05-.57.1-.84.16-.03,0-.05.01-.08.02-2.02.44-3.46,1.07-3.94,2.02.03.19.21.43.49.71,6.42-.15,13.07-.03,15.95-.77l14.5-3.65Z"/>
  <path class="cls-1" d="m228.62,213.09l-14.5,3.65c-2.5.63-4.98,1.34-7.34,2.06-.06.02-.13.04-.19.06-.1.24-.21.47-.3.72.36.04,1-.07,1.87-.3.06-.02.12-.03.18-.05.15-.04.31-.08.47-.13.07-.02.15-.04.22-.06.19-.05.38-.11.58-.17.05-.02.1-.03.15-.04.25-.08.52-.16.8-.24.07-.02.15-.05.22-.07.21-.07.43-.13.65-.21.1-.03.2-.06.3-.1.22-.07.44-.14.67-.21.1-.03.19-.06.28-.09.3-.1.61-.2.92-.3.36-.12.74-.24,1.13-.37.04-.01.07-.02.11-.04.33-.11.67-.22,1.01-.33.08-.02.15-.05.23-.07.39-.13.79-.26,1.19-.39.02,0,.04-.01.06-.02.37-.12.74-.24,1.11-.36.1-.03.2-.06.31-.1.32-.1.65-.21.98-.31.09-.03.19-.06.28-.09.42-.13.85-.26,1.28-.4,0,0,.01,0,.02,0,1.12-.34,2.27-.68,3.43-1.01.06-.02.11-.03.17-.05.04-.01.09-.02.13-.03,1.17-.33,2.36-.65,3.55-.95.01,0,.03,0,.04-.01Z"/>
  <path class="cls-2" d="m233.76,234.63c-.07-.11-.14-.21-.23-.3-.35-.36-.87-.55-1.63-.59-.14,0-.29,0-.45,0-.01,0-.03,0-.05,0-.26,0-.54.03-.85.06-.12.01-.24.03-.37.04-.42.05-.89.13-1.4.22-4.78.87-13.65,3.46-29.97,6.93-2.5.53-5.18,1.09-8.05,1.66-3.82.76-7.98,1.56-12.49,2.37,0,0,0,0,0,0l-14.51,3.65c36.13-6.55,49.13-11.52,53.63-11.28,2.67.14,2.35,2.11,2.11,6.68-.04.65-.07,1.36-.09,2.12-.05,1.52-.05,3.26.06,5.24.05.99.14,2.04.26,3.15.24,2.22.63,4.69,1.24,7.42s1.44,5.73,2.56,9.01c.56,1.64,1.2,3.35,1.91,5.13l7.25-1.83,7.25-1.83h0c-9.67-24.07-4.4-34.88-6.19-37.86Z"/>
  <path class="cls-2" d="m201.51,188.36c-1.19-.56-2.4-1.13-3.61-1.72-1.82-.88-3.68-1.79-5.54-2.72-2.64-1.31-5.31-2.66-8-4.04-8.09-4.15-16.42-8.56-24.69-12.89-1.3-.68-2.6-1.36-3.89-2.03-3.89-2.02-7.75-4.02-11.56-5.94l-14.51,3.65c8.89,4.49,18.07,9.35,27.15,14.11,2.59,1.36,5.18,2.71,7.75,4.05,2.57,1.33,5.12,2.65,7.64,3.93,6.31,3.21,12.46,6.23,18.31,8.9l14.51-3.65c-1.17-.53-2.35-1.08-3.54-1.64Z"/>
  <path class="cls-2" d="m144.09,158.36s0-.07-.01-.1c0-.06-.01-.12-.02-.17-.01-.12-.02-.24-.03-.35,0-.06,0-.13,0-.19,0-.05,0-.1,0-.16,0-.08,0-.16,0-.25,0-.08,0-.15.01-.22,0-.05,0-.11.01-.16,0-.02,0-.03,0-.05,0-.04.01-.09.02-.13.01-.07.02-.14.03-.2.01-.07.03-.13.04-.2.01-.05.03-.11.04-.16.01-.05.03-.1.04-.15.03-.09.06-.17.1-.26.02-.05.04-.1.06-.15,0,0,0-.02,0-.02,0-.01.01-.03.02-.04.07-.15.14-.28.22-.42l.02-.03s.06-.08.08-.12c.06-.09.12-.19.19-.27.02-.02.03-.05.05-.07.02-.03.05-.06.08-.09.06-.07.13-.15.2-.22.04-.04.08-.08.12-.12.01-.01.02-.03.04-.04l-14.5,3.65s-.03.03-.05.04c-.1.1-.2.21-.29.31-.03.04-.07.07-.1.11-.12.15-.23.3-.33.47-.02.04-.04.08-.06.11-.07.13-.14.26-.2.4-.03.06-.05.13-.07.2-.04.12-.09.24-.12.36-.02.08-.04.15-.06.23-.03.12-.05.25-.07.37-.01.08-.02.17-.03.25-.01.13-.02.27-.02.41,0,.09,0,.17,0,.26,0,.16.02.32.03.48,0,.08.01.15.02.23.03.25.07.5.13.76l14.51-3.65c-.05-.23-.09-.45-.12-.66Z"/>
  <path class="cls-1" d="m145.44,154c.06-.06.13-.11.19-.17.05-.04.1-.09.16-.13.09-.07.18-.14.28-.2.02-.01.03-.02.05-.03.02-.01.03-.02.05-.03.02-.01.04-.03.06-.04.13-.08.26-.16.39-.23.03-.01.05-.03.08-.04.09-.05.18-.09.27-.13.04-.02.07-.04.11-.05.05-.02.09-.04.14-.06.05-.02.11-.05.17-.07.13-.05.25-.11.38-.16.07-.02.13-.05.2-.07.04-.01.08-.03.12-.04.09-.03.18-.06.28-.09.08-.02.16-.05.24-.07.13-.04.26-.07.39-.11.05-.01.09-.03.14-.04l-14.5,3.65c-.35.09-.68.19-1,.3-.06.02-.11.04-.17.06-.3.11-.59.23-.86.35-.05.02-.1.05-.16.08-.27.14-.54.28-.77.44-.02.01-.03.02-.05.03-.23.15-.44.32-.63.5-.02.02-.04.03-.06.05l14.5-3.65s.02-.01.03-.02Z"/>
  <polygon class="cls-1" points="149.12 152.21 149.12 152.21 149.13 152.21 149.12 152.21"/>
  <path class="cls-4" d="m305.43,166.59c.05-.05.1-.09.16-.14.32-.29.64-.57.95-.85.21-.18.41-.37.61-.55.26-.23.51-.46.76-.68.15-.14.31-.28.46-.41.01-.01.02-.02.03-.03-.91.81-1.86,1.66-2.85,2.54-.04.04-.09.08-.13.11Z"/>
  <path class="cls-4" d="m310.75,161.82s.08-.08.13-.12c.18-.16.35-.32.52-.48-.17.16-.34.32-.52.48-.04.04-.09.08-.13.12Z"/>
  <path class="cls-4" d="m298.6,172.77c.11-.1.21-.19.32-.29.12-.11.25-.23.37-.34-.12.11-.25.23-.37.34-.1.1-.21.19-.31.29Z"/>
  <path class="cls-4" d="m301.66,169.97h.02s-.1.07-.15.12c.04-.04.09-.08.13-.12Z"/>
  <path class="cls-4" d="m310.57,161.98s.05-.05.08-.07c-.04.03-.07.07-.11.1.01-.01.02-.02.04-.03Z"/>
  <polygon class="cls-4" points="301.21 170.38 301.21 170.38 301.21 170.38 301.21 170.38"/>
  <path class="cls-4" d="m303.08,168.7c.2-.18.39-.35.59-.53-.19.17-.38.34-.57.51,0,0-.01.01-.02.02Z"/>
  <path class="cls-4" d="m312.5,160.21s.05-.05.08-.07c.11-.1.21-.2.31-.29-.1.1-.21.2-.32.3-.02.02-.05.05-.07.07Z"/>
  <path class="cls-4" d="m296.52,174.72c.16-.15.32-.3.48-.45.04-.03.07-.07.11-.1-.04.03-.07.07-.11.1-.16.15-.32.3-.48.45Z"/>
  <path class="cls-4" d="m317.39,155.05s.04-.05.06-.08c.04-.05.07-.1.1-.15-.04.05-.07.1-.1.15-.02.03-.04.05-.06.08Z"/>
  <path class="cls-4" d="m317.37,151.53s0,0,0,0c.11.04.22.08.31.12-.09-.05-.2-.08-.31-.12Z"/>
  <path class="cls-4" d="m318.27,153.53s.02-.06.03-.1c-.01.05-.03.09-.05.14,0-.01.01-.03.02-.04Z"/>
  <path class="cls-4" d="m313.29,159.46s.08-.08.12-.12c0,0,.02-.02.03-.03,0,0-.02.02-.03.03-.04.04-.08.08-.12.12Z"/>
  <path class="cls-4" d="m317.85,151.76h0s.05.04.08.05c-.03-.02-.05-.04-.08-.05Z"/>
  <path class="cls-4" d="m318.42,152.8h0c0,.06,0,.12-.01.19,0-.06.01-.13.01-.19Z"/>
  <path class="cls-4" d="m318.42,152.64s0-.03,0-.04c0-.02-.01-.03-.01-.05,0,.02.01.03.01.05,0,.01,0,.03,0,.04Z"/>
  <path class="cls-4" d="m314.8,157.98c.13-.13.26-.27.39-.4,0,0,0-.01.01-.02-.14.15-.28.29-.43.44,0,0,.02-.02.03-.03Z"/>
  <path class="cls-4" d="m317.66,154.67s0-.02.01-.02c0,0,0,.02-.02.02h0Z"/>
  <path class="cls-4" d="m318.35,153.26s0,0,0,0c0-.04.02-.07.03-.11,0,.04-.02.07-.03.11,0,0,0,0,0,0Z"/>
  <path class="cls-4" d="m313.92,158.86c.15-.14.29-.28.43-.42,0,0,0,0,.01-.01-.16.16-.32.31-.48.47.01-.01.03-.03.05-.04Z"/>
  <path class="cls-4" d="m315.61,157.15c.12-.13.24-.25.35-.37.01-.01.02-.02.03-.04-.13.14-.26.28-.39.42,0,0,0,0,0,0Z"/>
  <polygon class="cls-4" points="280.57 227.27 280.57 227.26 280.57 227.26 280.57 227.27 280.57 227.27"/>
  <path class="cls-4" d="m280.79,222.57c0-.18,0-.35,0-.54,0,.18,0,.36,0,.54h0Z"/>
  <path class="cls-4" d="m281.94,205.61h0c-.07.42-.13.84-.2,1.26.06-.42.13-.83.2-1.26Z"/>
  <path class="cls-4" d="m280.67,226.7s0-.06.01-.09c0,0,0,0,0,0,0,.03,0,.07-.01.1,0,0,0,0,0,0Z"/>
  <path class="cls-4" d="m280.86,216.83c0-.17.01-.35.02-.52,0,0,0-.01,0-.02,0,0,0,0,0,.02,0,.18-.01.35-.02.52Z"/>
  <path class="cls-4" d="m258.18,141.28c-.27-.04-.54-.09-.81-.16.53.13,1.08.21,1.64.24-.28-.01-.55-.04-.83-.08Z"/>
  <path class="cls-4" d="m258.87,223.91s.03-.06.04-.1c-.02.05-.05.1-.07.15,0-.02.02-.03.02-.05Z"/>
  <path class="cls-4" d="m259.43,222.7s.01-.03.02-.04c-.01.02-.02.05-.04.07l.02-.03Z"/>
  <path class="cls-4" d="m258.54,224.62c-.03.06-.05.11-.08.17.02-.04.04-.09.06-.13.05-.1.09-.2.14-.3.06-.13.12-.26.18-.39l-.1.21c-.07.15-.14.3-.2.44Z"/>
  <path class="cls-4" d="m262.13,217.87s0,0,0,0c0,0,0,0,0,0,.05-.07.1-.14.16-.21-.05.07-.11.14-.16.21,0,0,0,0,0,0Z"/>
  <path class="cls-4" d="m259.87,221.79c-.03.07-.07.14-.1.21.04-.08.07-.15.11-.23.02-.03.03-.07.05-.1,0,.02-.02.04-.03.06,0,.02-.02.04-.03.05Z"/>
  <path class="cls-4" d="m256.92,227.97s.05-.09.07-.13c-.03.05-.05.1-.08.15,0,0,0,0,0-.01Z"/>
  <path class="cls-4" d="m257.92,225.95s0-.02.01-.02c0,0,0,.01,0,.02,0,0,0,0,0,0Z"/>
  <path class="cls-4" d="m214.22,129.18s0-.02,0-.03c.03.16.06.32.08.48-.03-.15-.05-.3-.08-.45Z"/>
  <path class="cls-4" d="m213.42,148.78s.03-.04.05-.06c-.02.02-.03.04-.05.06,0,0,0,0,0,0Z"/>
  <path class="cls-4" d="m159.66,166.99c8.28,4.33,16.6,8.75,24.69,12.89-8.09-4.15-16.42-8.56-24.69-12.89Z"/>
  <path class="cls-2" d="m172.95,245.96c-.11.01-.23.03-.33.04-.98.12-1.88.2-2.7.23-.71.03-1.35.03-1.94,0-2.11-.11-3.49-.6-4.24-1.42-.25-.27-.43-.58-.55-.92s-.17-.71-.16-1.11c0-.38.07-.79.18-1.22.07-.26.14-.52.24-.79.71-1.96,2.26-4.35,4.37-7.02.53-.67,1.09-1.35,1.68-2.05.59-.7,1.22-1.42,1.87-2.14.97-1.09,2.01-2.21,3.08-3.36.72-.76,1.45-1.53,2.2-2.31.75-.78,1.51-1.56,2.29-2.35.77-.79,1.56-1.58,2.35-2.38.39-.4.79-.8,1.19-1.19s.79-.8,1.19-1.2c.8-.8,1.59-1.59,2.38-2.39.79-.79,1.58-1.59,2.36-2.37.58-.59,1.16-1.17,1.73-1.75.58-.58,1.15-1.17,1.71-1.74.37-.38.74-.76,1.11-1.14.73-.76,1.44-1.5,2.13-2.24.73-.77,1.42-1.53,2.1-2.27.61-.67,1.19-1.33,1.74-1.97.34-.39.66-.78.98-1.15.07-.08.13-.16.19-.24.26-.32.52-.63.76-.94.04-.05.09-.11.13-.16.27-.34.53-.68.78-1.01.06-.08.11-.15.17-.22.23-.31.45-.62.66-.92.02-.03.04-.06.06-.09.18-.27.36-.53.52-.78.04-.06.08-.13.12-.19.12-.19.24-.37.34-.56.05-.08.1-.17.15-.25.09-.16.18-.32.27-.48.04-.08.09-.16.13-.24.09-.17.17-.33.24-.5.03-.06.06-.12.08-.18.1-.22.18-.43.26-.64.01-.04.02-.08.04-.12.06-.16.11-.33.15-.48.02-.07.03-.13.04-.19.03-.13.05-.25.07-.38,0-.06.02-.13.02-.19.01-.12.02-.24.02-.35,0-.05,0-.11,0-.16,0-.16-.02-.32-.06-.47h0s-7.25,1.83-7.25,1.83l-7.25,1.83c2.35,10.31-59.64,55.05-37.08,56.23,2.41.13,5.78-.24,10.29-1.21l14.51-3.65c-1.99.42-3.75.73-5.31.93Z"/>
  <polygon class="cls-2" points="205.06 190 190.55 193.66 197.8 191.83 205.06 190"/>
  <path class="cls-2" d="m200.09,199.51c-.06.08-.13.16-.19.24.07-.08.13-.16.19-.24Z"/>
  <path class="cls-2" d="m200.99,198.4c-.04.05-.09.11-.13.16.04-.05.09-.11.13-.16Z"/>
  <path class="cls-2" d="m196.1,204.05c.37-.4.73-.79,1.08-1.18-.67.74-1.37,1.5-2.1,2.27.34-.37.68-.73,1.02-1.09Z"/>
  <path class="cls-2" d="m205.12,190.47c0,.05,0,.11,0,.16,0-.05,0-.11,0-.16Z"/>
  <path class="cls-2" d="m201.94,197.16c-.06.07-.11.15-.17.22.06-.08.11-.15.17-.22Z"/>
  <path class="cls-2" d="m163.08,242.16c.03-.19.07-.39.12-.59-.11.43-.17.84-.18,1.22,0-.2.02-.41.06-.63Z"/>
  <path class="cls-2" d="m172.62,246c.11-.01.22-.03.33-.04-.11.01-.23.03-.33.04Z"/>
  <path class="cls-2" d="m205,191.55c-.01.06-.03.13-.04.19.02-.07.03-.13.04-.19Z"/>
  <path class="cls-2" d="m204.52,192.98c-.03.06-.06.12-.08.18.03-.06.06-.12.08-.18Z"/>
  <path class="cls-2" d="m204.81,192.22s-.02.08-.04.12c.01-.04.02-.08.04-.12Z"/>
  <path class="cls-2" d="m205.1,190.98c0,.06-.01.13-.02.19,0-.06.02-.13.02-.19Z"/>
  <path class="cls-2" d="m202.65,196.18s0-.01.01-.02c-.02.03-.04.06-.06.09.02-.02.03-.04.05-.07Z"/>
  <path class="cls-2" d="m204.19,193.65c-.04.08-.09.16-.13.24.04-.08.09-.16.13-.24Z"/>
  <path class="cls-2" d="m203.21,195.33c.03-.05.06-.1.09-.15-.04.06-.08.13-.12.19,0-.01.02-.03.03-.04Z"/>
  <path class="cls-2" d="m203.8,194.38c-.05.08-.1.17-.15.25.05-.08.1-.17.15-.25Z"/>
  <path class="cls-5" d="m313.29,159.46s.08-.08.12-.12c0,0,.02-.02.03-.03,0,0-.02.02-.03.03-.04.04-.08.08-.12.12Z"/>
  <path class="cls-5" d="m313.92,158.86c.15-.14.29-.28.43-.42,0,0,0,0,.01-.01-.16.16-.32.31-.48.47.01-.01.03-.03.05-.04Z"/>
  <path class="cls-5" d="m315.61,157.15c.12-.13.24-.25.35-.37.01-.01.02-.02.03-.04-.13.14-.26.28-.39.42,0,0,0,0,0,0Z"/>
  <path class="cls-5" d="m315.41,157.37s.05-.05.07-.07c.04-.04.08-.09.12-.13-.13.13-.25.27-.39.41.06-.07.14-.14.2-.2Z"/>
  <path class="cls-5" d="m318.38,153.15s.02-.08.03-.11c0-.02,0-.03,0-.05,0,.02,0,.03,0,.05,0,.04-.02.07-.03.11Z"/>
  <path class="cls-5" d="m313.69,159.08c.06-.06.12-.12.18-.18-.14.14-.29.28-.43.42.08-.08.17-.16.25-.24Z"/>
  <path class="cls-5" d="m318.35,153.26s0,0,0,0c0-.04.02-.07.03-.11,0,.04-.02.07-.03.11,0,0,0,0,0,0Z"/>
  <path class="cls-5" d="m317.68,154.64c.07-.1.13-.2.19-.3.06-.09.11-.19.16-.28-.05.09-.1.18-.16.28-.06.1-.12.2-.19.3Z"/>
  <path class="cls-5" d="m317.39,155.05s.04-.05.06-.08c.04-.05.07-.1.1-.15-.04.05-.07.1-.1.15-.02.03-.04.05-.06.08Z"/>
  <path class="cls-5" d="m316.93,155.64c-.09.11-.18.22-.28.34.04-.04.09-.09.12-.14.06-.07.1-.13.16-.2.09-.11.18-.22.26-.32.07-.09.14-.18.2-.27-.07.09-.13.18-.2.27-.08.11-.17.21-.26.32Z"/>
  <path class="cls-5" d="m314.8,157.98c.13-.13.26-.27.39-.4,0,0,0-.01.01-.02-.14.15-.28.29-.43.44,0,0,.02-.02.03-.03Z"/>
  <path class="cls-5" d="m317.85,151.76h0s.05.04.08.05c-.03-.02-.05-.04-.08-.05Z"/>
  <path class="cls-5" d="m317.85,151.76c-.06-.04-.1-.08-.17-.11.06.03.11.07.17.11h0Z"/>
  <path class="cls-5" d="m318.42,152.8h0c0,.06,0,.12-.01.19,0-.06.01-.13.01-.19Z"/>
  <path class="cls-5" d="m317.66,154.67h0s-.07.1-.1.15c.04-.05.07-.1.1-.15Z"/>
  <path class="cls-5" d="m317.37,151.53s0,0,0,0c.11.04.22.08.31.12-.09-.05-.2-.08-.31-.12Z"/>
  <path class="cls-5" d="m317.66,154.67s0-.02.01-.02c0,0,0,.02-.02.02h0Z"/>
  <path class="cls-5" d="m318.08,153.97c.03-.07.05-.13.08-.19-.04.1-.09.19-.14.29.02-.03.04-.07.06-.1Z"/>
  <path class="cls-5" d="m318.34,153.33s.01-.04.02-.07c-.01.06-.03.11-.05.17.01-.03.02-.07.03-.1Z"/>
  <path class="cls-5" d="m318.27,153.53s.02-.06.03-.1c-.01.05-.03.09-.05.14,0-.01.01-.03.02-.04Z"/>
  <path class="cls-5" d="m228.62,213.09l-14.5,3.65c-2.5.63-4.98,1.34-7.34,2.06-.06.02-.13.04-.19.06-.1.24-.21.47-.3.72.36.04,1-.07,1.87-.3.06-.02.12-.03.18-.05.15-.04.31-.08.47-.13.07-.02.15-.04.22-.06.19-.05.38-.11.58-.17.05-.02.1-.03.15-.04.25-.08.52-.16.8-.24.07-.02.15-.05.22-.07.21-.07.43-.13.65-.21.1-.03.2-.06.3-.1.22-.07.44-.14.67-.21.1-.03.19-.06.28-.09.3-.1.61-.2.92-.3.36-.12.74-.24,1.13-.37.04-.01.07-.02.11-.04.33-.11.67-.22,1.01-.33.08-.02.15-.05.23-.07.39-.13.79-.26,1.19-.39.02,0,.04-.01.06-.02.37-.12.74-.24,1.11-.36.1-.03.2-.06.31-.1.32-.1.65-.21.98-.31.09-.03.19-.06.28-.09.42-.13.85-.26,1.28-.39h.02c1.12-.35,2.27-.69,3.43-1.02.1-.03.2-.06.3-.09,1.17-.33,2.36-.65,3.55-.95.01,0,.03,0,.04-.01Z"/>
  <path class="cls-5" d="m285.17,141.62c-.43.96-.84,1.99-1.21,3.05.36-1.06.78-2.09,1.21-3.05,2.04-5.22,3.51-9.25,4.49-12.3.44-1.39.78-2.57,1.03-3.57.1-.4.18-.77.25-1.11.03-.17.07-.33.09-.49.27-1.57.18-2.45-.22-2.79-.02-.02-.04-.03-.06-.04-.02-.01-.04-.03-.07-.04-.09-.05-.19-.07-.31-.08,0,0,0,0-.01,0-.12,0-.25.01-.39.04-2.11.52-6.78,5.38-12.32,10.19-.9.78-1.82,1.56-2.76,2.32-.97,2.95-2.36,6.73-4.23,11.52l14.51-3.65Z"/>
  <path class="cls-5" d="m251.12,218.8c-.19.05-.38.11-.56.19-.05.02-.11.05-.16.07-.14.06-.27.13-.4.21-.05.03-.1.05-.14.08-.17.11-.34.22-.5.35-.02.02-.04.03-.06.05-.15.12-.29.24-.43.37-.02.02-.04.03-.05.05-.02.02-.05.05-.07.07-.18.18-.36.36-.53.56.36,4.35,1.1,8.7,2,11.6.34,1.09.7,1.98,1.07,2.58.04.06.08.13.12.19.08.01.17,0,.26-.03-.01,0-.02.01-.04.02.04,0,.08-.03.12-.05.02,0,.04-.01.06-.02.03-.02.07-.04.11-.07.02-.01.04-.02.06-.04.09-.06.18-.13.27-.21.02-.02.04-.04.06-.06,0,0,.02-.02.03-.03.04-.04.09-.09.13-.14.03-.03.06-.06.08-.09.02-.02.04-.05.06-.07.01-.01.02-.03.04-.04.02-.02.03-.04.05-.06.03-.04.06-.07.09-.11.05-.06.1-.12.14-.18.03-.04.06-.08.09-.12,0,0,0,0,0-.01.04-.06.09-.12.13-.18.03-.04.06-.09.09-.13.03-.04.06-.08.09-.12,0,0,.01-.02.02-.03.01-.02.02-.04.04-.05.03-.04.06-.09.09-.13.05-.07.09-.14.14-.2.03-.04.06-.08.09-.13,0,0,0-.01.01-.02.05-.07.09-.14.13-.21.02-.03.04-.07.06-.1.03-.04.06-.09.09-.13.07-.1.13-.2.19-.3.04-.06.08-.12.12-.18,0,0,0-.02.01-.02.01-.02.03-.04.04-.06.04-.07.09-.13.13-.19.03-.04.05-.07.07-.11,0-.01.02-.02.02-.03.02-.03.04-.06.06-.09.03-.05.06-.09.09-.13.02-.02.03-.05.05-.07.12-.14.25-.29.37-.44.04-.05.07-.1.11-.15.02-.02.03-.04.05-.06.03-.04.06-.08.1-.13.03-.05.07-.09.1-.14.04-.06.09-.13.13-.19.07-.11.15-.21.22-.32.05-.07.09-.14.14-.22.07-.11.13-.21.2-.32.05-.08.09-.16.14-.24.04-.06.07-.12.11-.19,0,0,0,0,0-.01.02-.04.05-.09.07-.13.05-.08.09-.17.14-.25.06-.11.12-.23.19-.34.02-.04.04-.08.06-.12,0,0,0,0,0-.01.02-.04.05-.09.07-.13,0,0,.01-.02.02-.03.06-.11.11-.22.17-.33.04-.09.09-.18.13-.26.05-.09.09-.18.14-.27.02-.03.03-.07.05-.1.04-.09.09-.18.13-.26.06-.13.13-.26.19-.4.04-.08.07-.16.11-.24,0,0,0-.02.01-.02,0-.01.01-.03.02-.04,0,0,0-.01,0-.02.06-.12.11-.24.17-.36.03-.07.07-.14.1-.21.06-.13.12-.27.18-.4.02-.03.03-.07.05-.1.02-.04.04-.09.06-.13.05-.1.09-.2.14-.3.06-.13.12-.26.18-.39,0-.02.02-.03.02-.05.01-.03.03-.06.04-.1.08-.17.16-.34.23-.51.04-.08.07-.16.11-.24.05-.11.11-.23.16-.34l.02-.03s.01-.03.02-.04c.04-.09.09-.18.13-.27.06-.13.12-.26.19-.39.04-.08.07-.15.11-.23.02-.03.03-.07.05-.1.05-.11.11-.21.16-.32.05-.09.09-.18.14-.27.06-.12.12-.24.18-.36.03-.05.05-.1.08-.15.02-.04.04-.08.06-.12.06-.11.12-.23.18-.34.05-.09.1-.18.15-.27.06-.11.12-.22.18-.32.05-.09.1-.18.15-.26.06-.11.13-.21.19-.31.01-.02.03-.04.04-.06.03-.05.07-.1.1-.16,0,0,.01-.02.02-.03.06-.1.13-.2.2-.3.05-.08.11-.16.16-.24.07-.1.13-.19.2-.28,0,0,0,0,0,0,.05-.07.1-.14.16-.21.07-.09.15-.19.22-.28.04-.05.09-.11.13-.16,0-.01.02-.02.03-.03.08-.1.16-.19.25-.28.05-.05.09-.11.14-.15.11-.11.22-.22.34-.33.02-.02.04-.04.07-.06.14-.12.28-.24.42-.35.04-.03.09-.06.13-.09.1-.07.2-.14.3-.21.01,0,.03-.02.04-.02.04-.03.09-.05.13-.07.09-.05.18-.11.28-.15.05-.02.09-.04.14-.06.02,0,.04-.02.05-.02.09-.04.18-.08.28-.11.07-.02.14-.04.21-.07.06-.02.12-.04.18-.06l-14.51,3.65Z"/>
  <path class="cls-5" d="m242.86,144.78c.54.13,1.08.21,1.64.24.83.04,1.68-.02,2.55-.18.29-.05.58-.12.87-.19l14.51-3.65s-.02,0-.03,0c-.04,0-.08.02-.11.02-.31.07-.62.14-.92.19-.11.02-.21.03-.31.05-.25.04-.5.06-.74.08-.1,0-.2.02-.3.02-.34.02-.67.02-1,0-.28-.01-.55-.04-.83-.08s-.54-.09-.81-.16c-6.21-5.42-12.01-10.98-18.04-16.48-.86-.79-1.73-1.57-2.6-2.35-1.82-1.63-3.67-3.26-5.56-4.87.61,6.34,1.44,12.55,2.15,18.71,2.06,1.91,4.13,3.82,6.23,5.71,1.09.98,2.2,1.96,3.32,2.94Z"/>
  <path class="cls-5" d="m234.12,166.07s0,0,0,0c-.17.04-.35.08-.55.12-.07.01-.14.02-.2.04-.14.03-.29.05-.44.07-.08.01-.16.02-.25.03-.16.02-.32.04-.49.06-.08,0-.16.02-.25.03-.22.02-.44.04-.68.06-.04,0-.08,0-.12.01-.27.02-.56.04-.85.06-.1,0-.2.01-.31.02-.2.01-.41.02-.62.03-.12,0-.24.01-.36.02-.21,0-.42.02-.63.02-.12,0-.24,0-.36.01-.25,0-.5.02-.76.02-.08,0-.17,0-.25,0-.34,0-.68.02-1.02.02-.14,0-.28,0-.42,0-.23,0-.46,0-.69.01-.16,0-.32,0-.47,0-.21,0-.42,0-.63,0-.9.01-1.81.02-2.74.04-.03,0-.07,0-.1,0-.35,0-.7.01-1.04.02-.11,0-.22,0-.33,0-.28,0-.57.01-.85.02-.12,0-.25,0-.37,0-.31,0-.63.01-.94.02-.08,0-.15,0-.23,0-.39.01-.78.02-1.17.04-.07,0-.14,0-.2,0-.31.01-.62.02-.92.04-.12,0-.25.01-.37.02-.26.01-.51.02-.76.04-.12,0-.25.01-.37.02-.27.02-.54.03-.8.05-.09,0-.19.01-.28.02-.35.03-.7.05-1.05.08-.06,0-.12.01-.17.02-.28.03-.56.05-.83.08-.11.01-.21.02-.32.04-.22.03-.44.05-.65.08-.11.01-.22.03-.33.04-.22.03-.43.06-.64.1-.09.01-.18.03-.27.04-.29.05-.57.1-.84.16-.03,0-.05.01-.08.02-2.02.44-3.46,1.07-3.94,2.02.03.19.21.43.49.71,6.42-.15,13.07-.03,15.95-.77l14.5-3.65Z"/>
  <path class="cls-5" d="m267.1,211.49s-.01.09-.02.14c-.09.7-.17,1.37-.25,2.04,0,.07-.02.14-.02.22-.04.39-.07.76-.11,1.14.06,0,.12,0,.18,0,.3.02.61.06.93.14,7.25,8.9,10.45,12.86,11.86,13.08.03,0,.06.02.09.02.07,0,.13,0,.18-.02h0c.06-.01.11-.04.16-.07.02,0,.03-.03.04-.04,0,0,.01,0,.02-.01,0,0,0,0,.01-.01,0,0,.02-.01.03-.02.01-.01.03-.02.04-.04.02-.02.03-.05.05-.07.02-.03.05-.06.07-.1.02-.03.03-.06.04-.09,0-.01.01-.02.02-.03.01-.03.03-.06.04-.09.01-.04.03-.08.04-.12.02-.05.03-.09.05-.15.01-.04.02-.09.03-.14h0s0,0,0,0c.01-.05.02-.1.03-.16,0-.05.02-.11.03-.16,0-.06.02-.13.03-.19,0-.01,0-.03,0-.04,0,0,0,0,0,0,0-.03,0-.06.01-.09,0,0,0,0,0,0,0-.02,0-.03,0-.05,0-.07.02-.14.02-.22,0-.07.01-.14.02-.21,0-.08.01-.16.02-.24,0-.08,0-.15.01-.23,0-.09,0-.17.01-.26,0-.08,0-.17,0-.26,0-.07,0-.15,0-.22,0-.02,0-.04,0-.06,0-.09,0-.18,0-.28,0-.1,0-.2,0-.3,0-.1,0-.21,0-.31,0-.06,0-.11,0-.17v-.02s0-.08,0-.12c0-.11,0-.21,0-.32,0-.12,0-.25,0-.38v-.37h0c0-.18,0-.36,0-.54,0-.14,0-.28,0-.42,0-.11,0-.21,0-.32v-.09c0-.14,0-.27,0-.41,0-.13,0-.26,0-.4,0-.14,0-.28,0-.43,0-.07,0-.15,0-.23,0-.06,0-.13,0-.19,0-.15,0-.29,0-.44,0-.14,0-.29,0-.43,0-.15,0-.31,0-.46,0-.04,0-.08,0-.12,0-.08,0-.16,0-.23,0-.03,0-.06,0-.09,0-.16,0-.33.01-.5,0-.15,0-.29.01-.44,0-.17.01-.35.02-.52,0,0,0-.01,0-.02,0-.08,0-.16,0-.24,0-.07,0-.14,0-.22,0-.17.02-.35.02-.53,0-.16.02-.32.02-.48,0-.18.02-.37.03-.56,0-.04,0-.09,0-.13,0-.12.01-.24.02-.36.01-.19.03-.39.04-.59.01-.16.02-.32.03-.48.02-.21.03-.43.05-.64.01-.15.02-.31.04-.46.02-.23.04-.46.07-.69.01-.15.03-.3.04-.45.02-.24.05-.49.08-.73.02-.15.03-.29.05-.44.03-.26.07-.53.1-.8.02-.13.03-.26.05-.4.04-.31.09-.62.13-.94.01-.1.03-.19.04-.29.06-.42.13-.83.2-1.26l-14.51,3.65c-.12.76-.23,1.5-.33,2.22Z"/>
  <path class="cls-5" d="m317.16,151.45c.08.02.14.05.21.08-.07-.03-.13-.06-.21-.08-.13-.04-.29-.07-.44-.09-.08-.01-.14-.03-.23-.05.08.01.15.03.23.05.15.03.31.06.44.09Z"/>
  <path class="cls-5" d="m318.18,152.05c.05.06.1.11.13.18.03.05.04.11.06.17.02.05.03.1.04.16-.01-.05-.02-.11-.04-.16-.02-.06-.03-.12-.06-.17-.03-.06-.08-.12-.13-.18-.04-.05-.07-.1-.11-.14-.04-.04-.09-.06-.14-.1.05.03.1.06.14.1.05.04.08.09.12.14Z"/>
  <path class="cls-5" d="m316.49,151.31c-.25-.04-.52-.06-.82-.08,0,0,0,0,0,0,.3.02.57.04.81.08Z"/>
  <path class="cls-5" d="m313.04,205.38c-5.59-4.86-13.33-10.24-17.77-15.69-.37-.45-.72-.91-1.04-1.36-.16-.23-.31-.46-.46-.68-.67-1.04-1.19-2.08-1.54-3.12-.31-.93-.48-1.86-.47-2.79,0-.02,0-.03,0-.05.02-1.05.27-2.1.78-3.14,1.02-1,2.03-1.98,3.04-2.94.31-.3.62-.59.93-.88.16-.15.32-.3.48-.45.04-.03.07-.07.11-.1.12-.11.24-.22.35-.33.32-.29.63-.59.94-.88.07-.06.13-.12.2-.18.11-.1.21-.19.32-.29.12-.11.25-.23.37-.34.17-.16.35-.32.52-.48.17-.15.33-.3.5-.45.3-.28.61-.55.91-.83,0,0,0,0,0,0h0s0,0,0,0c.1-.09.21-.19.31-.28.04-.04.09-.08.13-.12h.02c.47-.44.94-.86,1.4-1.28.2-.18.39-.35.59-.53.2-.18.41-.37.61-.55.15-.13.29-.26.44-.4.24-.21.47-.42.71-.63.05-.05.1-.09.16-.14.32-.29.64-.57.95-.85.21-.18.41-.37.61-.55.26-.23.51-.46.76-.68.15-.14.31-.28.46-.41.01-.01.02-.02.03-.03.29-.26.58-.52.87-.78.08-.07.16-.15.24-.22.35-.31.69-.62,1.02-.93.01-.01.02-.02.04-.03.03-.02.05-.05.08-.07.03-.03.06-.06.09-.08h.01s.08-.09.13-.12c.18-.16.35-.32.52-.48.06-.06.13-.12.19-.18.12-.11.24-.22.36-.34.18-.17.36-.34.54-.5.03-.02.05-.05.08-.07.11-.1.21-.2.31-.29.01-.01.03-.02.04-.04.08-.07.15-.14.22-.21.05-.05.1-.09.14-.14-.05.05-.1.09-.14.14l-14.5,3.65c-.07.07-.15.14-.23.21-.12.11-.23.22-.35.33-.2.19-.41.38-.62.57-.12.11-.24.22-.36.33-.24.22-.48.44-.72.66-.1.09-.2.18-.3.28-.35.31-.7.63-1.06.96-.08.08-.17.16-.26.23-.29.26-.58.52-.87.78-.16.15-.33.3-.5.44-.24.21-.48.43-.72.65-.29.26-.58.52-.87.78-.22.19-.44.39-.66.59-.31.28-.62.56-.94.84-.14.12-.28.25-.42.37-.43.39-.87.78-1.31,1.17-.03.03-.06.05-.09.08-.41.36-.82.73-1.23,1.11-.13.12-.27.25-.41.37-.31.29-.63.57-.95.86-.16.14-.32.29-.48.44-.3.28-.6.55-.91.83-.17.16-.34.31-.51.47-.32.29-.64.59-.96.89-.15.14-.3.28-.44.41-.47.44-.94.88-1.41,1.33,0,0,0,0-.01.01-1.01.96-2.02,1.94-3.03,2.94-4.52,9.15,11.59,18.97,20.94,27.24,4.19,1.32,8.35,2.61,11.74,3.23,1,.18,1.94.31,2.78.36.1,0,.19,0,.28,0,.86.03,1.63-.03,2.27-.19,0,0,0,0-.01,0,.21-.05.4-.12.59-.2.04-.02.08-.03.12-.05.04-.02.08-.03.12-.05,0,0,.02,0,.02-.01.12-.06.24-.13.34-.21.02-.02.04-.04.07-.05.08-.06.15-.11.22-.18,0,0,0,0,0,0,0,0,.02-.02.03-.03.04-.04.07-.08.11-.11.02-.02.04-.04.06-.06.09-.11.18-.23.25-.37,0,0,0-.02.01-.03,0-.02.02-.04.02-.05.02-.03.03-.07.05-.11.08-.17.14-.35.19-.55-.42-.6-.93-1.22-1.5-1.84-1.04-1.14-2.31-2.33-3.7-3.54Z"/>
  <path class="cls-5" d="m318.42,152.64s0-.03,0-.04c0-.02-.01-.03-.01-.05,0,.02.01.03.01.05,0,.01,0,.03,0,.04Z"/>
  <path class="cls-5" d="m313.1,151.29c-4.15.34-10.94,1.69-21.12,4.21h0c10.18-2.52,16.97-3.87,21.12-4.21Z"/>
  <path class="cls-4" d="m318.17,153.78c.03-.07.06-.14.09-.21-.02.07-.06.14-.09.21,0,0,0,0,0,0Z"/>
  <path class="cls-4" d="m316.32,156.37c.1-.12.21-.24.3-.35.01-.01.02-.03.03-.04-.21.24-.43.5-.67.76.11-.12.22-.25.33-.37Z"/>
  <path class="cls-4" d="m283.36,146.59c-.48,1.72-.81,3.43-.89,4.96.08-1.53.41-3.24.89-4.96Z"/>
  <path class="cls-2" d="m318.42,152.64s0-.03,0-.04c0-.02-.01-.03-.01-.05-.01-.05-.02-.11-.04-.16-.02-.06-.03-.12-.06-.17-.03-.06-.08-.12-.13-.18-.04-.05-.07-.1-.12-.14-.04-.03-.09-.06-.14-.1-.03-.02-.05-.04-.08-.05-.06-.04-.1-.08-.17-.11-.09-.05-.2-.08-.31-.12-.07-.03-.13-.06-.21-.08-.13-.04-.29-.06-.44-.09-.08-.01-.14-.03-.23-.05-.25-.04-.52-.06-.81-.08,0,0,0,0,0,0-.24-.01-.49-.02-.76-.02,0,0-.01,0-.02,0-.53,0-1.13.03-1.79.08-4.15.34-10.94,1.69-21.12,4.21-.57.14-1.14.28-1.73.43l-4.52,1.14c-.12,0-.24-.02-.35-.04-.61-.09-1.11-.32-1.51-.65-.12-.1-.23-.2-.33-.31-.02-.02-.03-.05-.05-.07-.18-.21-.33-.45-.46-.72-.17-.34-.3-.71-.39-1.13-.03-.15-.06-.31-.09-.47-.02-.16-.04-.32-.06-.49,0-.02,0-.03,0-.05-.03-.33-.04-.68-.04-1.04,0-.19,0-.37.02-.56.08-1.53.41-3.24.89-4.96.18-.64.38-1.29.6-1.92.36-1.06.78-2.09,1.21-3.05l-14.51,3.65c-2.77,6.15-4.64,15.18.64,15.45.57.03,1.22-.04,1.96-.23l9.29-2.34,5.21-1.31.88-.27c6.1-1.28,10.14-1.81,12.53-1.69.3.02.57.04.82.08.08.01.15.03.23.05.15.03.31.06.44.09.08.02.14.05.21.08.11.04.22.08.31.12.06.03.11.07.17.11.07.05.15.1.21.15.05.04.08.09.11.14.05.06.1.12.13.18.03.05.04.11.06.17.02.07.05.14.06.21,0,.06,0,.13,0,.2,0,.08,0,.15-.01.24-.01.07-.03.15-.05.22-.02.09-.05.17-.08.27-.03.08-.07.17-.11.25-.04.1-.09.19-.14.29-.05.09-.1.18-.16.28-.06.11-.13.21-.2.32-.07.1-.14.2-.21.3-.08.11-.17.23-.26.35-.08.11-.17.22-.26.33-.1.12-.2.25-.31.38-.1.12-.2.23-.31.35-.12.13-.24.27-.36.4-.11.12-.23.25-.35.37-.13.14-.27.29-.42.43-.13.13-.25.26-.39.39-.15.15-.3.3-.46.46-.14.14-.28.28-.42.42-.16.16-.33.32-.51.49-.09.09-.17.17-.26.25l14.5-3.65s.1-.09.14-.14c.04-.04.08-.08.12-.12,0,0,.02-.02.03-.03.15-.14.29-.28.43-.42.16-.16.33-.32.48-.47.14-.14.28-.28.42-.42.15-.15.29-.3.43-.44.13-.14.26-.27.39-.41.13-.14.26-.28.39-.42.24-.26.46-.51.67-.76.1-.11.19-.23.28-.34.09-.11.18-.22.26-.32.07-.09.14-.18.2-.27.02-.03.04-.05.06-.08.04-.05.07-.1.1-.15.04-.05.07-.1.1-.15,0,0,0-.02.02-.02.07-.1.13-.2.19-.3.06-.09.11-.19.16-.28.05-.1.1-.2.14-.29.03-.07.07-.14.09-.21.02-.05.03-.09.05-.14.02-.06.04-.11.05-.17,0,0,0,0,0,0,0-.04.02-.07.03-.11,0-.04.02-.08.03-.11,0-.02,0-.03,0-.05,0-.06.01-.13.01-.19,0-.05,0-.11,0-.16Z"/>
  <path class="cls-4" d="m341.2,212.98c-.58-.55-16.3-20.57-23.31-27.67-2.8-2.92,2.33-8.24,4.1-9.81,36.77-37.74,39.73-46.76,30.91-47.22-3.8-.2-9.78,1.19-16.18,2.56-6.4,1.37-13.23,2.71-18.71,2.43-4.66-.24-8.35-1.67-9.99-5.26,10.87-35.83,11.12-47.69,5.51-47.99-.52-.03-1.09.05-1.71.21-.3.08-.62.18-.94.3-.04.01-.07.03-.11.04-.34.13-.68.28-1.04.45-.02.01-.05.02-.07.03-.37.18-.76.38-1.15.6,0,0-.01,0-.02,0-.4.22-.8.47-1.22.73-.03.02-.06.04-.09.06-.4.25-.82.53-1.24.82-.05.03-.1.07-.15.1-.41.28-.83.58-1.26.9-.06.05-.13.09-.19.14-.42.31-.86.64-1.3.97-.07.05-.14.11-.21.16-.44.34-.89.69-1.34,1.05-.07.06-.15.12-.22.18-.46.36-.92.74-1.39,1.12-.07.06-.15.12-.23.19-.48.39-.96.79-1.45,1.2-.07.06-.13.11-.2.17-.5.42-1.01.85-1.52,1.28-.05.05-.11.09-.17.14-.53.45-1.06.91-1.61,1.37-.03.02-.05.04-.08.07-.55.47-1.11.95-1.67,1.44-.03.03-.07.06-.1.09-.59.51-1.19,1.03-1.79,1.54-.54.47-1.09.94-1.64,1.41-.08.07-.17.15-.25.22-.55.47-1.1.94-1.65,1.42-.08.07-.17.14-.25.21-.55.47-1.1.94-1.66,1.41-.09.07-.18.15-.27.22-.55.47-1.11.94-1.67,1.4-.09.07-.18.15-.27.22-.56.47-1.13.93-1.7,1.4-.08.07-.16.13-.24.2-.58.47-1.16.94-1.74,1.4-.07.05-.13.1-.2.16-.6.47-1.19.94-1.79,1.4-.05.04-.09.07-.14.1-.62.48-1.24.95-1.86,1.42,0,0-.02.01-.03.02-.62.47-1.25.92-1.87,1.37-.03.02-.06.04-.09.07-.61.43-1.21.86-1.82,1.27-.06.04-.12.08-.17.12-.59.4-1.17.79-1.76,1.17-.07.05-.15.1-.22.14-.57.37-1.14.72-1.71,1.07-.08.05-.17.1-.25.15-.56.34-1.13.66-1.68.98-.09.05-.17.1-.26.14-.56.31-1.11.6-1.67.89-.08.04-.17.08-.25.12-.56.28-1.11.54-1.66.79-.07.03-.15.06-.22.1-.56.25-1.12.48-1.67.69-.06.02-.12.04-.17.06-.57.21-1.13.41-1.69.59-.03.01-.07.02-.1.03-.58.18-1.16.34-1.72.48h0c-.75-.63-1.49-1.29-2.24-1.95-16.82-14.94-33.17-36.52-41.01-36.93-.46-.02-.89.03-1.29.16-.06.02-.12.04-.18.06-.09.03-.17.08-.25.12-.05.02-.1.05-.15.07h0c-.09.06-.18.12-.28.19-.02.02-.05.03-.07.05-.01,0-.02.02-.04.02-.12.1-.24.21-.36.32-.02.02-.05.06-.07.08,0,0,0,0-.01.01-.09.1-.17.19-.25.3-.01.02-.03.04-.04.06-.03.04-.05.07-.08.11-.07.09-.13.19-.19.29,0,0,0,.02-.01.02-.04.06-.07.13-.1.19-.06.1-.11.21-.16.32-.04.08-.07.17-.11.26-.05.11-.1.23-.14.35-.04.09-.07.19-.1.29-.04.12-.08.25-.12.38-.03.11-.06.22-.09.33-.04.14-.07.28-.11.42,0,0,0,0,0,0-.03.12-.05.24-.08.36-.03.15-.06.31-.09.46-.02.13-.05.26-.07.4-.03.17-.05.34-.07.51-.02.13-.04.27-.05.41,0,0,0,.01,0,.02-.02.18-.04.37-.06.56-.01.12-.02.24-.03.36,0,.03,0,.07,0,.1-.02.2-.03.41-.04.62,0,.11-.01.21-.02.32,0,.06,0,.11,0,.17-.01.23-.02.46-.02.7,0,.11,0,.23-.01.34,0,.05,0,.1,0,.15,0,.28,0,.56,0,.85,0,.14,0,.28,0,.42,0,.44.01.89.03,1.36,0,.09,0,.19.01.29.01.38.03.77.05,1.17,0,.1.01.2.02.3,0,.09.01.17.01.26.02.32.04.64.06.98,0,.06.01.13.01.2.01.16.02.32.04.49.02.32.05.63.07.95,0,.02,0,.04,0,.07.02.22.04.45.06.68.03.33.06.65.09.99.03.26.05.53.08.8.04.34.07.67.11,1.02.03.28.07.57.1.87.04.35.08.7.13,1.06.04.3.08.61.12.92.05.37.1.74.15,1.11.04.31.08.63.13.95.05.39.11.79.17,1.19.05.32.09.65.14.97.06.42.13.84.19,1.27.05.31.09.62.14.93,0,.02,0,.04.01.07.07.45.15.91.22,1.37.04.25.08.5.12.75.01.08.03.16.04.25.08.49.17.99.25,1.49.03.19.06.38.1.57.02.14.05.28.07.42.1.58.21,1.17.31,1.77.02.1.04.2.05.3.03.17.06.33.09.5.16.88.32,1.78.5,2.7.01.06.02.11.03.17.12.57.23,1.13.34,1.68.03.17.07.33.1.49.05.25.1.5.15.75.04.19.07.37.11.56.04.2.08.4.12.6.03.14.05.28.08.42.05.25.1.5.14.74,0,.02,0,.03,0,.05.03.17.07.33.1.5.08.42.16.82.23,1.22.02.12.05.25.07.36,0,.02,0,.04.01.05,0,.02,0,.05.01.07.09.5.18.99.27,1.47.02.13.05.26.07.39,0,.02,0,.04.01.06,0,0,0,.02,0,.03.03.15.05.3.08.45.03.2.07.39.1.59.03.17.06.33.08.5.02.1.03.2.05.3.03.2.07.4.1.6,0,.04.01.08.02.11.02.14.05.28.07.41.05.3.09.58.13.87.02.13.04.26.06.38,0,.03,0,.06.01.09,0,.05.01.1.02.16.06.38.11.76.16,1.13.01.09.02.18.04.27.02.13.03.26.05.4.02.19.05.38.07.57.02.14.03.28.05.41,0,.07.01.13.02.19.02.16.03.32.05.48,0,.05.01.1.02.15.01.11.02.22.03.33.02.21.03.4.05.6,0,.12.02.25.03.37,0,.04,0,.08,0,.11,0,.06,0,.11.01.17.02.29.04.58.05.86,0,.06,0,.13,0,.19,0,.08,0,.16,0,.24,0,.19.01.38.02.56,0,.11,0,.22,0,.33,0,.04,0,.08,0,.12,0,.13,0,.25,0,.37,0,.06,0,.12,0,.18,0,.08,0,.17,0,.25,0,.14-.01.28-.02.42,0,.11,0,.21-.01.32,0,.04,0,.08,0,.12,0,.05,0,.1-.01.15-.02.22-.04.44-.06.65,0,.04,0,.08-.01.12,0,.04-.01.07-.01.1,0,.01,0,.02,0,.03-.02.18-.05.35-.07.52-.01.09-.03.17-.04.25,0,.02,0,.04-.01.06-.02.09-.04.19-.06.28-.01.06-.02.12-.04.18-.01.06-.03.12-.04.18-.02.1-.05.19-.08.28-.02.09-.05.17-.07.26-.01.04-.02.08-.03.12-.01.05-.03.09-.05.14-.05.16-.11.32-.17.47,0,0,0,.02-.01.03,0,.01-.01.03-.02.04-.02.04-.04.08-.06.12-.06.13-.12.26-.18.38-.03.06-.06.12-.09.19,0,0,0,.02-.01.03-.04.07-.08.13-.11.2-.03.06-.07.12-.1.17-.02.04-.05.08-.07.12-.04.06-.09.12-.13.18-.04.06-.09.13-.14.19-.02.03-.05.07-.07.1-.03.04-.06.07-.09.11-.08.09-.16.18-.24.27-.02.02-.03.04-.05.06,0,0,0,0,0,0-.01.01-.02.02-.03.04-.03.04-.07.07-.11.1-.05.05-.1.09-.15.14-.02.02-.04.04-.06.06-.08.07-.15.14-.23.2-.05.04-.11.08-.16.13-.1.08-.21.16-.32.24-.03.02-.06.04-.09.06-.02.01-.04.02-.05.03-.07.05-.14.09-.21.13-.16.1-.33.19-.51.28-.01,0-.02.01-.03.02-.06.03-.11.06-.17.09-.24.12-.5.23-.77.33-.06.02-.13.04-.19.07-.04.01-.08.03-.12.04-.17.06-.35.12-.54.17-.09.03-.19.05-.29.08-.08.02-.16.05-.25.07.06-.01.1-.03.16-.05-1.85.49-4.16.71-6.97.77-.91.02-1.88.02-2.89,0-.05.07-.05.07,0,0-.25,0-.5,0-.76,0-3.13-.05-29.24.06-39.61-.24-3.89-.12-7.42.01-10.09.71-.13.03-.26.07-.39.11-.08.02-.16.05-.24.07-.08.02-.15.05-.22.07-.05.02-.1.03-.15.05-.07.03-.15.05-.22.08-.13.05-.26.1-.38.16-.06.02-.12.05-.17.07-.04.02-.07.04-.11.05-.05.02-.1.05-.16.08-.08.04-.17.08-.25.12-.03.01-.05.03-.08.04-.14.08-.27.15-.39.23-.05.03-.1.07-.15.11-.09.07-.19.13-.28.2-.05.04-.1.09-.16.13-.05.04-.1.09-.15.13-.03.02-.06.05-.08.07-.05.05-.1.09-.14.14-.06.06-.12.13-.17.19-.01.01-.02.02-.03.04-.04.05-.08.1-.12.15-.07.09-.13.18-.19.27-.03.04-.06.09-.09.13-.02.03-.04.07-.05.1-.06.11-.12.22-.18.33,0,.01-.01.03-.02.04,0,0,0,.01,0,.02-.03.06-.05.13-.07.2-.03.07-.06.14-.08.21-.02.05-.03.11-.05.17-.02.07-.04.14-.05.21,0,.04-.02.08-.03.13-.01.07-.02.14-.03.2,0,.01,0,.03,0,.04-.01.08-.02.17-.03.25,0,.01,0,.03,0,.04,0,.07-.01.15-.01.22,0,.05,0,.1,0,.14,0,.07,0,.15,0,.22s0,.15,0,.23c0,.09.02.19.03.29,0,.04,0,.09.01.13,0,.07.01.14.02.21.03.21.07.43.12.66,3.81,1.92,7.68,3.92,11.56,5.94,1.3.67,2.59,1.35,3.89,2.03,8.28,4.33,16.6,8.75,24.69,12.89,2.7,1.38,5.37,2.73,8,4.04,1.86.93,3.72,1.84,5.54,2.72,1.21.58,2.42,1.16,3.61,1.72,1.19.56,2.37,1.11,3.54,1.64h0c.03.15.05.31.06.47,0,.05,0,.11,0,.16,0,.12,0,.23-.02.35,0,.06-.01.13-.02.19-.02.12-.04.25-.07.38-.01.06-.03.13-.04.19-.04.16-.09.32-.15.48-.01.04-.02.08-.04.12-.07.21-.16.42-.26.64-.03.06-.06.12-.08.18-.08.16-.15.33-.24.5-.04.08-.08.16-.13.24-.08.16-.17.32-.27.48-.05.08-.1.17-.15.25-.11.18-.22.37-.34.56-.03.05-.06.1-.09.15,0,.01-.02.03-.03.04-.17.26-.34.52-.52.78,0,0,0,.01-.01.02-.02.02-.03.04-.05.07-.21.3-.43.61-.66.92-.06.07-.11.15-.17.22-.25.33-.51.67-.78,1.01-.04.05-.09.11-.13.16-.25.31-.5.62-.76.94-.06.08-.13.16-.19.24-.04.05-.08.1-.13.15-.28.33-.56.66-.85,1-.29.34-.59.68-.9,1.03-.27.31-.56.62-.84.94-.35.39-.71.78-1.08,1.18-.33.36-.67.73-1.02,1.09-.69.73-1.4,1.48-2.13,2.24-.36.38-.73.76-1.11,1.14-.37.38-.75.77-1.13,1.16-.19.19-.39.39-.58.59-.57.58-1.15,1.17-1.73,1.75-.78.79-1.57,1.58-2.36,2.37-.4.4-.79.79-1.19,1.19-.4.4-.8.8-1.19,1.2s-.8.8-1.19,1.2-.79.8-1.19,1.19c-.79.8-1.57,1.59-2.35,2.38-.77.79-1.54,1.57-2.29,2.35-.75.78-1.49,1.55-2.2,2.31-1.07,1.14-2.11,2.26-3.08,3.36-.65.73-1.27,1.44-1.87,2.14-.59.7-1.16,1.39-1.68,2.05-2.11,2.67-3.67,5.06-4.37,7.02-.09.24-.16.48-.22.71,0,.03-.01.05-.02.08-.05.2-.1.4-.12.59-.03.22-.05.43-.06.63,0,.4.05.77.16,1.11s.3.64.55.92c.75.81,2.12,1.3,4.24,1.42.59.03,1.23.03,1.94,0,.82-.03,1.72-.11,2.7-.23.11-.01.22-.03.33-.04,1.56-.2,3.32-.51,5.31-.93,4.52-.82,8.67-1.61,12.49-2.37,2.87-.57,5.55-1.13,8.05-1.66,16.32-3.47,25.19-6.06,29.97-6.93.51-.09.98-.17,1.4-.22.13-.02.25-.03.37-.04.31-.03.59-.05.85-.06.02,0,.03,0,.05,0,.16,0,.31,0,.45,0,.76.04,1.28.23,1.63.59.09.09.16.19.23.3,1.79,2.98-3.48,13.79,6.19,37.86,0,0,0,0,0,0,8.19-1.59,13.05-10.47,17.89-18.51,2.79-4.63,5.56-8.98,8.97-11.52,3.95,4.68,7.26,10.81,10.8,16.58.31.5.61.99.92,1.49.34.54.69,1.08,1.03,1.61,1.43,2.18,2.92,4.25,4.51,6.11,2.66,3.1,5.64,5.6,9.16,7,10.15-3.86-.64-31.19,1.14-42.91.2-1.29.54-2.39,1.08-3.25.62-.98,1.5-1.64,2.7-1.92.21-.05.43-.08.66-.11.04,0,.08-.02.12-.02.03,0,.07,0,.11,0,.28-.02.56-.03.87-.01h0c.17,0,.36.04.53.06.53.06,1.09.15,1.72.31,5.06.77,12.95,2.71,21.08,4.46,1.44.31,2.88.61,4.31.9,2.39.48,4.77.92,7.06,1.29,3.2.52,6.24.89,8.93,1.04.02,0,.03,0,.04,0,.35.02.69.03,1.03.04.12,0,.24,0,.36,0,.23,0,.46,0,.68,0,.14,0,.27,0,.4,0,.2,0,.4,0,.6-.01.14,0,.27-.01.4-.02.18,0,.37-.02.55-.03.13,0,.26-.02.39-.03.17-.01.34-.03.51-.05.13-.01.25-.03.37-.04.16-.02.32-.04.48-.07.12-.02.23-.04.34-.06.16-.03.31-.06.46-.09.1-.02.21-.04.3-.07,6.41-1.56,6.05-7.35-9.28-21.69Zm-23.14-1.66s-.03.07-.05.11c0,.02-.02.04-.02.05,0,0,0,.02-.01.03-.07.13-.16.25-.25.37-.02.02-.04.04-.06.06-.03.04-.07.08-.11.11,0,0-.02.02-.03.03,0,0,0,0,0,0-.07.06-.14.12-.22.18-.02.02-.04.04-.07.05-.11.07-.22.14-.34.21,0,0-.02,0-.02.01-.04.02-.08.04-.12.05-.04.02-.08.03-.12.05-.18.08-.38.14-.59.2,0,0,0,0,.01,0-.64.16-1.41.22-2.27.19-.1,0-.18,0-.28,0-.84-.04-1.79-.18-2.78-.36-3.39-.61-7.55-1.9-11.74-3.23-.15-.05-.3-.09-.44-.14-5.58-1.76-11.15-3.53-14.89-3.72-.62-.03-1.2-.02-1.71.04h0c-.07.42-.13.84-.2,1.26-.01.1-.03.19-.04.29-.05.32-.09.63-.13.94-.02.13-.03.26-.05.4-.03.27-.07.54-.1.8-.02.15-.03.29-.05.44-.03.24-.06.49-.08.73-.02.15-.03.3-.04.45-.02.23-.05.46-.07.69-.01.16-.03.31-.04.46-.02.22-.04.43-.05.64-.01.16-.02.32-.03.48-.01.2-.03.4-.04.59,0,.12-.01.24-.02.36,0,.04,0,.09,0,.13-.01.19-.02.37-.03.56,0,.16-.02.32-.02.48,0,.18-.02.35-.02.53,0,.07,0,.14,0,.22,0,.08,0,.16,0,.24,0,0,0,.01,0,.02,0,.18-.01.35-.02.52,0,.15,0,.29-.01.44,0,.17,0,.34-.01.5,0,.03,0,.06,0,.09,0,.08,0,.16,0,.23,0,.04,0,.08,0,.12,0,.16,0,.31,0,.46,0,.15,0,.29,0,.43,0,.15,0,.3,0,.44,0,.06,0,.13,0,.19,0,.08,0,.15,0,.23,0,.14,0,.29,0,.43,0,.13,0,.26,0,.4,0,.14,0,.28,0,.41v.09c0,.11,0,.22,0,.32,0,.14,0,.28,0,.42,0,.18,0,.36,0,.54h0v.37c0,.13,0,.25,0,.38,0,.11,0,.22,0,.32,0,.04,0,.08,0,.12v.02c0,.06,0,.11,0,.17,0,.1,0,.21,0,.31,0,.1,0,.2,0,.3,0,.09,0,.19,0,.28,0,.02,0,.04,0,.06,0,.08,0,.15,0,.22,0,.09,0,.17,0,.26,0,.09,0,.18-.01.26,0,.08,0,.16-.01.23,0,.08-.01.16-.02.24,0,.07,0,.14-.02.21,0,.08-.01.15-.02.22,0,.02,0,.03,0,.05,0,0,0,0,0,0,0,.03,0,.06-.01.09,0,0,0,0,0,0,0,.01,0,.03,0,.04,0,.07-.02.13-.03.19,0,.06-.02.11-.03.16-.01.06-.02.11-.03.16,0,0,0,0,0,0h0c-.01.05-.02.1-.03.15-.01.05-.03.1-.05.15-.01.04-.02.08-.04.12-.01.03-.03.06-.04.09,0,.01-.01.02-.02.03-.01.03-.03.07-.04.09-.02.04-.05.07-.07.1-.02.02-.03.05-.05.07-.01.01-.03.02-.04.04,0,0-.02.01-.03.02,0,0,0,0-.01.01,0,0-.01,0-.02.01-.01.01-.03.03-.04.04-.05.03-.1.05-.16.07h0s0,0,0,0c-.06.01-.12.02-.18.02-.03,0-.06-.01-.09-.02-1.41-.22-4.61-4.19-11.86-13.08-.32-.08-.63-.12-.93-.14-.06,0-.12,0-.18,0-.02.25-.05.51-.07.75.02-.25.04-.5.07-.75-.44,0-.86.06-1.26.18-.07.02-.14.04-.21.07-.09.03-.18.07-.28.11-.02,0-.04.02-.05.02-.05.02-.09.04-.14.06-.09.05-.19.1-.28.15-.04.02-.09.05-.13.07-.01,0-.03.02-.04.02-.1.06-.2.14-.3.21-.04.03-.09.06-.13.09-.14.11-.28.22-.42.35-.02.02-.04.04-.07.06-.11.1-.23.21-.34.33-.05.05-.09.1-.14.15-.08.09-.17.18-.25.28,0,.01-.02.02-.03.03-.04.05-.09.11-.13.16-.07.09-.15.18-.22.28-.05.07-.11.14-.16.21,0,0,0,0,0,0-.07.09-.14.19-.2.28-.05.08-.11.16-.16.24-.07.1-.13.2-.2.3,0,0-.01.02-.02.03-.03.05-.07.1-.1.16-.01.02-.03.04-.04.06-.06.1-.13.21-.19.31-.05.09-.1.17-.15.26-.06.11-.12.21-.18.32-.05.09-.1.18-.15.27-.06.11-.12.23-.18.34-.02.04-.04.08-.06.12-.03.05-.05.1-.08.15-.06.12-.12.24-.18.36-.05.09-.09.18-.14.27-.05.11-.11.21-.16.32-.02.03-.03.06-.05.1-.04.08-.07.15-.11.23-.06.13-.12.26-.19.39-.04.09-.09.18-.13.27,0,.01-.01.03-.02.04l-.02.03c-.05.11-.11.23-.16.34-.04.08-.07.16-.11.24-.08.17-.16.34-.23.51-.01.03-.03.06-.04.1,0,.02-.02.03-.02.05-.06.13-.12.26-.18.39-.05.1-.09.2-.14.3-.02.04-.04.09-.06.13-.02.03-.03.07-.05.1-.06.13-.12.27-.18.4-.03.07-.07.14-.1.21-.06.12-.11.24-.17.36,0,0,0,.01,0,.02,0,.01-.01.03-.02.04,0,0,0,.02-.01.02-.04.08-.07.16-.11.24-.06.13-.13.27-.19.4-.04.09-.09.18-.13.26-.02.03-.03.07-.05.1-.04.09-.09.18-.14.27-.04.09-.09.18-.13.26-.06.11-.11.22-.17.33,0,0-.01.02-.02.03-.02.04-.05.09-.07.13,0,0,0,0,0,.01-.02.04-.04.08-.06.12-.06.12-.12.23-.19.34-.05.08-.09.17-.14.25-.02.04-.05.09-.07.13,0,0,0,0,0,.01-.04.06-.07.13-.11.19-.05.08-.09.16-.14.24-.07.11-.13.22-.2.32-.05.07-.09.15-.14.22-.07.11-.14.22-.22.32-.04.06-.09.13-.13.19-.03.05-.07.1-.1.14-.03.04-.06.08-.1.13-.02.02-.03.04-.05.06-.04.05-.07.1-.11.15-.12.15-.24.3-.37.44-.01.02-.03.04-.05.07-.03.04-.06.08-.09.13-.02.03-.04.06-.06.09,0,.01-.02.02-.02.03-.02.04-.05.07-.07.11-.04.06-.08.13-.13.19-.01.02-.03.04-.04.06,0,0-.01.02-.01.02-.04.06-.08.12-.12.18-.06.1-.13.2-.19.3-.03.04-.06.09-.09.13-.02.03-.04.07-.06.1-.04.07-.09.14-.13.21,0,0,0,.01-.01.02-.03.04-.06.08-.09.13-.05.07-.09.14-.14.2-.03.04-.06.09-.09.13-.01.02-.02.04-.04.05,0,0-.01.02-.02.03-.03.04-.06.08-.09.12-.03.04-.06.09-.09.13-.04.06-.09.12-.13.18,0,0,0,0,0,.01-.03.04-.06.08-.09.12-.05.06-.1.12-.14.18-.03.04-.06.07-.09.11-.02.02-.03.04-.05.06-.01.01-.02.03-.04.04-.02.02-.04.05-.06.07-.03.03-.06.06-.08.09-.05.05-.09.09-.13.14,0,0-.02.02-.03.03-.02.02-.04.04-.06.06-.09.08-.18.15-.27.21-.02.01-.04.02-.06.04-.04.02-.07.05-.11.07-.02.01-.04.01-.06.02-.04.02-.08.04-.12.05.01,0,.02-.01.04-.02-.09.03-.18.04-.26.03-.04-.06-.08-.13-.12-.19-.37-.6-.73-1.48-1.07-2.58-.9-2.9-1.64-7.26-2-11.6,0,.01-.02.02-.03.03,0-.01.02-.02.03-.03-.26-3.17-.31-6.34-.07-8.92-1.27-.5-2.79-.77-4.48-.86-4.3-.22-9.71.73-15.07,2.09-1.19.3-2.38.62-3.55.95-.1.03-.2.06-.3.09-1.16.33-2.31.67-3.43,1.01h-.02c-.43.14-.86.27-1.28.4-.1.03-.19.06-.28.09-.33.1-.66.21-.98.31-.1.03-.2.06-.31.1-.38.12-.75.24-1.11.36-.02,0-.04.01-.06.02-.4.13-.8.26-1.19.39-.08.02-.15.05-.23.07-.34.11-.68.22-1.01.33-.04.01-.07.02-.11.04-.38.13-.76.25-1.13.37-.32.1-.62.2-.92.3-.1.03-.19.06-.28.09-.23.07-.45.15-.67.21-.1.03-.2.07-.3.1-.22.07-.44.14-.65.21-.07.02-.15.05-.22.07-.28.09-.54.17-.8.24-.05.02-.1.03-.15.04-.2.06-.39.12-.58.17-.08.02-.15.04-.22.06-.16.05-.32.09-.47.13-.06.02-.12.03-.18.05-.87.22-1.51.33-1.87.3.09-.24.2-.48.3-.72,3.76-9.12,12.04-15.44,17.89-22.93,1.62-2.43,6.03-5.37,5.55-8.62-5.11-5.17-23.19-13.66-26.37-16.82-.28-.28-.46-.52-.49-.71.48-.95,1.92-1.59,3.94-2.02.03,0,.05-.01.08-.02.27-.06.55-.11.84-.16.09-.02.18-.03.27-.04.21-.03.42-.07.64-.1.11-.02.22-.03.33-.04.21-.03.43-.06.65-.08.11-.01.21-.03.32-.04.27-.03.55-.06.83-.08.06,0,.11-.01.17-.02.34-.03.69-.06,1.05-.08.09,0,.19-.01.28-.02.27-.02.53-.04.8-.05.12,0,.25-.01.37-.02.25-.01.51-.03.76-.04.12,0,.24-.01.37-.02.31-.01.61-.03.92-.04.07,0,.13,0,.2,0,.39-.01.78-.03,1.17-.04.08,0,.15,0,.23,0,.31,0,.63-.02.94-.02.12,0,.25,0,.37,0,.28,0,.57-.01.85-.02.11,0,.22,0,.33,0,.35,0,.7-.01,1.04-.02.03,0,.07,0,.1,0,.93-.01,1.84-.02,2.74-.04.21,0,.42,0,.63,0,.16,0,.32,0,.47,0,.23,0,.46,0,.69-.01.14,0,.28,0,.42,0,.35,0,.69-.01,1.02-.02.09,0,.17,0,.25,0,.26,0,.51-.01.76-.02.12,0,.24,0,.36-.01.21,0,.42-.02.63-.02.12,0,.24-.01.36-.02.21-.01.41-.02.62-.03.1,0,.21-.01.31-.02.29-.02.57-.04.85-.06.04,0,.08,0,.12-.01.23-.02.46-.04.68-.06.09,0,.17-.02.25-.03.17-.02.33-.04.49-.06.08-.01.17-.02.25-.03.15-.02.3-.05.44-.07.07-.01.14-.02.2-.04.19-.04.38-.08.55-.12,0,0,0,0,.01,0,1.13-10,.33-19.89-.82-29.94-.7-6.16-1.54-12.38-2.15-18.71,1.9,1.61,3.74,3.24,5.56,4.87.87.78,1.74,1.57,2.6,2.35,6.03,5.5,11.83,11.07,18.04,16.48.27.07.54.12.81.16s.55.07.83.08c.33.02.66.01,1,0,.1,0,.2-.01.3-.02.25-.02.49-.05.74-.08.1-.01.21-.03.31-.05.31-.05.61-.11.92-.19.04,0,.07-.02.11-.02,4.06-1.02,8.42-3.94,12.49-7.24.94-.76,1.86-1.54,2.76-2.32,5.54-4.81,10.21-9.67,12.32-10.19.14-.03.27-.05.39-.04,0,0,0,0,.01,0,.11,0,.22.03.31.08.02.01.04.03.07.04.02.01.04.03.06.04.4.34.49,1.22.22,2.79-.03.16-.06.32-.09.49-.07.34-.15.71-.25,1.11-.25,1-.59,2.18-1.03,3.57-.97,3.05-2.44,7.08-4.49,12.3-.43.96-.84,1.99-1.21,3.05-.22.63-.42,1.28-.6,1.92-.48,1.72-.81,3.43-.89,4.96,0,.19-.02.38-.02.56,0,.36.01.71.04,1.04,0,.02,0,.03,0,.05.02.17.03.33.06.49.02.16.05.32.09.47.09.41.22.79.39,1.13.13.27.28.51.46.72.02.02.03.05.05.07.1.11.21.22.33.31.4.33.9.55,1.51.65.11.02.23.03.35.04l4.52-1.14c.59-.15,1.16-.29,1.73-.43,10.18-2.52,16.97-3.87,21.12-4.21.67-.05,1.26-.08,1.79-.08,0,0,.01,0,.02,0,.27,0,.52,0,.76.02.3.02.57.04.82.08.08.01.15.03.23.05.15.03.31.06.44.09.08.02.14.05.21.08,0,0,0,0,0,0,.11.04.22.08.31.12.06.03.11.07.17.11h0s0,0,0,0c.03.02.05.04.08.05.05.03.1.06.14.1.05.04.08.09.11.14.05.06.1.12.13.18.03.05.04.11.06.17.02.05.03.1.04.16,0,.02.01.03.01.05,0,.01,0,.03,0,.04,0,.05,0,.1,0,.16h0c0,.06,0,.13-.01.19,0,.02,0,.03,0,.05,0,.04-.02.07-.03.11,0,.04-.02.07-.03.11,0,0,0,0,0,0,0,.02,0,.04-.02.07,0,.03-.02.07-.03.1-.01.03-.02.06-.03.1,0,.01-.01.03-.02.04-.03.07-.06.14-.09.21,0,0,0,0,0,0-.03.06-.05.12-.08.19-.02.03-.04.07-.06.1-.05.09-.1.18-.16.28-.06.1-.12.2-.19.3,0,0,0,.02-.01.02h0s-.07.1-.1.15c-.04.05-.07.1-.1.15-.02.03-.04.05-.06.08-.07.09-.13.18-.2.27-.08.11-.17.21-.26.32-.06.07-.1.13-.16.2-.04.04-.08.09-.12.14-.01.01-.02.03-.03.04-.1.11-.2.23-.3.35-.11.12-.22.24-.33.37-.01.01-.02.02-.03.04-.11.12-.23.25-.35.37,0,0,0,0,0,0-.04.04-.08.09-.12.13-.02.02-.05.05-.07.07-.06.07-.13.14-.2.2,0,0,0,.01-.01.02-.13.13-.26.26-.39.4,0,0-.02.02-.03.03-.14.14-.27.28-.42.42,0,0,0,0-.01.01-.14.14-.28.28-.43.42-.01.01-.03.03-.05.04-.06.06-.12.12-.18.18-.08.08-.17.16-.25.24,0,0-.02.02-.03.03-.04.04-.08.08-.12.12-.05.05-.1.09-.14.14-.07.07-.14.14-.22.21-.01.01-.03.02-.04.04-.1.1-.21.2-.31.29-.03.02-.05.05-.08.07-.18.17-.36.33-.54.5-.12.11-.24.22-.36.34-.06.06-.13.12-.19.18-.17.16-.35.32-.52.48-.04.04-.09.08-.13.12h-.01s-.06.06-.09.09c-.03.02-.05.05-.08.07-.01.01-.02.02-.04.03-.33.3-.67.61-1.02.93-.08.07-.16.15-.24.22-.28.26-.57.51-.87.78-.01.01-.02.02-.03.03-.15.14-.31.27-.46.41-.25.23-.5.45-.76.68-.2.18-.41.36-.61.55-.31.28-.63.56-.95.85-.05.05-.1.09-.16.14-.24.21-.47.42-.71.63-.15.13-.29.26-.44.4-.2.18-.41.36-.61.55-.2.18-.39.35-.59.53-.46.42-.93.84-1.4,1.26h-.02c-.04.05-.09.09-.13.13-.1.09-.21.19-.31.28,0,0,0,0,0,0h0s0,0,0,0c-.3.27-.6.55-.91.83-.17.15-.33.3-.5.45-.17.16-.35.32-.52.48-.12.11-.25.23-.37.34-.11.1-.21.19-.32.29-.07.06-.13.12-.2.18-.31.29-.63.58-.94.88-.12.11-.24.22-.35.33-.04.03-.07.07-.11.1-.16.15-.32.3-.48.45-.31.29-.62.58-.93.88-1.01.96-2.02,1.94-3.04,2.94-.51,1.04-.76,2.09-.78,3.14,0,.02,0,.03,0,.05-.01.93.16,1.86.47,2.79.34,1.04.87,2.08,1.54,3.12.15.23.3.46.46.68.32.46.67.91,1.04,1.36,4.44,5.45,12.18,10.83,17.77,15.69,1.4,1.22,2.66,2.4,3.7,3.54.57.63,1.08,1.24,1.5,1.84-.04.2-.11.38-.19.55Z"/>
</svg>