<?xml version="1.0" encoding="UTF-8"?>
<svg id="Calque_2" data-name="Calque 2" xmlns="http://www.w3.org/2000/svg" viewBox="0 0 367.35 358.23">
  <defs>
    <style>
      .cls-1 {
        fill: #ffae00;
      }
    </style>
  </defs>
  <path class="cls-1" d="m207.72,284.55c-17.07-14.65,5.16-62.13,8.33-66l78.87-45.67c-1.5-.97-2.79-1.86-3.89-2.72-10.76-8.31-4.69-12.64-18.92-40.55-6.85-13.45-14.14-21-20.18-25.25-5.53-3.89-10-5-12.13-5.32-.87-.13-1.36-.13-1.36-.13h0c-.77.31-19.3-1.37-35.18,3.97-2.65.89-12.37,9.37-15.52,14.66,13.98,36.64,10.3,85.5,10.09,88.11l-1.02,12.67-9.1-8.87c-.12-.12-12.65-12.28-26.41-20.63-3.78-2.29-8.87-5.23-14.78-7.57-3.49-1.39-6.89-2.44-10.4-3.21-1.43-.32-3.06-.81-4.82-1.44-.6.4-.98.54-1.08.35l-23.87,20.68-18.51,12.52c-6.63,4.49-8.04,8.08-4.28,15.15l13.9,28.74c3.46,6.51,11.11,4.54,18.2,2.53l9.69-2.74,1.09,1.9c13.62,23.79,25.87,48.38,35.66,73.99,1.77,4.63,2.74,7.2,6.85,9.05l74.44-1.64c7.44,2.04,12.79-5.32,10.23-12.6-7.33-20.87-32.97-28.85-45.92-39.97Z"/>
  <path class="cls-1" d="m180.82,122.64c-3.49-10.26-8.38-19.57-15.17-26.41-1.28-1.29-2.63-2.5-4.05-3.61-8.16-6.33-16.13-11.94-23.74-17.27-23.89-16.73-44.28-30.74-55.89-55.87,0,0-1.82,1.21-4.04,4.14-5.45,7.2-6.87,16.65-4.12,25.22,2.94,9.17,9.52,22.72,24.17,34.59,10.16,7.36,24,16.22,42.85,26.72-1.2.06-2.4.09-3.57.09-39.5,0-63.23-32.99-64.15-34.18.89,3.7,2,7.63,3.36,11.78,5.11,15.66,16.13,28.77,30.85,36.22,14.46,7.31,31.18,13.8,40.81,16.01-6.24,1.82-12.09,2.67-17.72,2.67-11.84,0-22.67-3.8-34.07-10.45,3.77,7.12,5.1,9.64,10.22,17.53,4.87,7.51,20.8,16.72,29.79,19.01.25.06.5.13.74.18,3.86.85,7.43,2,10.74,3.31,5.66,2.25,10.56,4.99,14.87,7.61,13.79,8.38,26.07,20.37,26.07,20.37,0,0,3.54-43.93-7.95-77.65Z"/>
</svg>