<?xml version="1.0" encoding="UTF-8"?>
<svg id="Calque_2" data-name="Calque 2" xmlns="http://www.w3.org/2000/svg" viewBox="0 0 367.35 358.23">
  <defs>
    <style>
      .cls-1 {
        fill: #fff;
      }
    </style>
  </defs>
  <path class="cls-1" d="m253.22,95.42c-22.76-22.78-45.51-45.55-68.27-68.33q-1.13-1.13-2.26.02c-5.39,5.4-10.77,10.79-16.16,16.18-9.43,9.43-18.87,18.85-28.31,28.27-8.08,8.07-16.17,16.14-24.25,24.22-.64.64-1.27,1.3-2.06,2.12.54.03.81.06,1.09.06,2.28,0,4.56-.03,6.84-.03,9.04,0,18.08.01,27.13,0,.64,0,.87.14.87.86-.02,22.87-.02,45.75-.02,68.62v2.33h72v-71.78h35.54c.04-.07.07-.14.11-.22-.21-.25-.39-.52-.62-.75-.53-.53-1.08-1.04-1.61-1.57Z"/>
  <g>
    <path class="cls-1" d="m85.01,320.27v-124.43h25.33v103.29h62.98v21.14h-88.32Z"/>
    <path class="cls-1" d="m210.38,320.27l-44.84-125.46h27.47l31.75,92.85,30.72-92.85h26.87l-44.93,125.46h-27.04Z"/>
  </g>
</svg>