<?xml version="1.0" encoding="UTF-8"?>
<svg id="Calque_2" data-name="Calque 2" xmlns="http://www.w3.org/2000/svg" viewBox="0 0 367.35 358.23">
  <defs>
    <style>
      .cls-1 {
        fill: #b57fa6;
      }
    </style>
  </defs>
  <path class="cls-1" d="m319.62,116.32c-1.48-.88-3.04-1.65-4.6-2.38-7.62-3.57-15.03-7.47-21.86-12.44-9.67-7.05-17.86-15.57-25.32-24.86-2.07-2.57-4.34-5-6.7-7.31-1.79-1.75-3.92-1.88-5.94-.35-1.59,1.21-3.18,2.61-4.25,4.27-8.45,13.14-11.03,27.43-7.71,42.68,1.72,7.91,5.38,14.85,11.65,20.17,6.37,5.41,13.92,7.44,22.59,7.39,7.27.04,14.65-1.64,21.77-4.5,6.7-2.69,12.93-6.16,18.07-11.35,1.82-1.84,3.41-3.84,4.15-6.4.65-2.25.16-3.71-1.87-4.91Z"/>
  <path class="cls-1" d="m116.46,131.99c6.02-7.39,8.51-16.08,8.98-25.4.45-9.01-1.22-17.69-4.9-25.96-1.7-3.8-3.54-7.53-6.66-10.41-3.27-3.01-5.86-3.08-8.83.15-3.84,4.18-7.39,8.63-11.11,12.92-10.03,11.55-21.76,20.94-35.53,27.7-3.5,1.72-7.02,3.4-10.46,5.24-2.28,1.22-2.75,2.68-2.01,5.08.76,2.47,2.23,4.53,4.08,6.27,11.28,10.55,24.9,15.24,40.12,15.81,1.09,0,2.18.06,3.26-.01,9.25-.63,17.12-4.08,23.07-11.4Z"/>
  <path class="cls-1" d="m113.89,171.86c5.72,1.31,11.55,2.21,17.16,3.87,16.32,4.83,31.52,12.28,46.34,20.55.53.3,1.08.57,1.79.95.03-.72.07-1.16.07-1.59,0-6.87,0-13.74,0-20.61,0-9.74,0-19.47.04-29.21,0-1.24-.33-1.66-1.62-1.83-5.81-.75-11.39-2.44-16.75-4.8-10.49-4.61-19.86-10.98-28.85-18.72-2.42,8.25-6.4,15.35-12.66,21.05-6.31,5.74-13.72,9.16-22.27,10.42.22.42.33.74.53.99,4.74,5.96,9.46,11.92,14.26,17.83.44.55,1.25.95,1.96,1.11Z"/>
  <path class="cls-1" d="m256.46,147.68c-10.41-5.48-16.79-14.26-20.57-25.17-.23-.66-.53-1.3-.81-1.95-7.79,6.63-15.9,12.39-24.89,16.86-6.54,3.25-13.34,5.73-20.64,6.56-1.18.13-1.47.54-1.47,1.63.03,15.86.03,31.73.04,47.59,0,1.23,0,2.46,0,3.97.74-.35,1.19-.54,1.6-.78,9.65-5.53,19.59-10.47,29.87-14.72,10.97-4.54,22.18-8.32,34.03-9.85.65-.08,1.38-.58,1.8-1.1,4.69-5.81,9.32-11.65,13.96-17.5.28-.36.48-.78.79-1.3-.57-.1-.9-.16-1.23-.21-4.38-.67-8.56-1.97-12.48-4.04Z"/>
  <path class="cls-1" d="m221.89,214.75c-.27,0-.38-.03-.46,0-11.49,5.39-22.41,11.72-32.41,19.56-.55.43-.94,1.4-.94,2.12-.04,19.18-.02,38.36,0,57.54,0,.52.05,1.04.09,1.86.93-.59,1.63-1.02,2.31-1.48,10-6.73,19.99-13.49,30.02-20.18,1.14-.76,1.53-1.54,1.53-2.88-.04-18.39-.03-36.78-.04-55.16,0-.46-.06-.92-.09-1.38Z"/>
  <path class="cls-1" d="m251,195.3c.97-.23,1.57-.55,1.54-1.74-.08-3.56-.04-7.12-.05-10.67,0-2.04-.07-2.04-2.13-1.65-9.75,1.86-19.06,5.13-28.18,8.94-12.19,5.1-23.88,11.19-35.14,18.07-2.44,1.49-4.42,1.37-6.82-.08-14.06-8.49-28.67-15.9-44.13-21.53-6.83-2.49-13.78-4.53-21.24-5.72,0,4.25.05,8.35-.03,12.44-.03,1.24.38,1.7,1.56,1.99,4.12,1.02,8.25,2,12.29,3.31,19.57,6.32,37.83,15.2,54.08,27.94.74.58,1.21.51,1.92-.02,3.05-2.27,6.08-4.59,9.25-6.68,17.56-11.59,36.6-19.79,57.1-24.58Z"/>
  <path class="cls-1" d="m177.88,233.93c-9.12-6.94-18.91-12.77-29.17-17.83-1-.49-2.05-.89-3.34-1.45v1.83c0,18.04.03,36.09-.06,54.13,0,1.86.54,2.95,2.08,3.96,10.26,6.8,20.45,13.69,30.67,20.54.3.2.65.33,1.17.6v-1.53c0-19.13,0-38.26.04-57.4,0-1.28-.39-2.08-1.4-2.85Z"/>
  <path class="cls-1" d="m134.11,109.05c-.11,1.12.26,1.9,1.1,2.57,1.89,1.52,3.74,3.08,5.63,4.59,7.89,6.33,16.13,12.08,25.67,15.73,4.83,1.85,9.77,3.11,14.94,3.45,9.08.6,17.37-2.07,25.32-6.11,9.22-4.68,17.53-10.69,25.19-17.63.98-.89,1.39-1.77,1.25-3.08-.67-6.61.09-13.12,1.56-19.56.24-1.06,0-1.66-.77-2.28-2.31-1.86-4.58-3.77-6.88-5.64-1.36-1.11-1.97-2.48-1.93-4.27.08-3.56.03-7.12.01-10.68,0-.46-.05-1.19-.32-1.34-1.53-.83-3.14-1.52-4.99-2.39,0,.85,0,1.28,0,1.71,0,5.19-.05,10.38.04,15.57.03,2.01-.68,3.5-2.16,4.79-1.81,1.58-3.54,3.25-5.41,4.99.51.38.91.72,1.35,1.01,3.52,2.3,7.06,4.55,10.55,6.88,3.27,2.18,3.53,5.07.72,7.77-6.4,6.15-13.54,11.26-21.69,14.79-4.33,1.88-8.85,3.37-13.38,4.72-7.37,2.19-14.43.16-21.26-2.41-9.76-3.66-18.16-9.53-25.71-16.66-.54-.51-1.05-1.06-1.48-1.65-1.43-1.98-1.09-4.37.82-5.92.5-.4,1.03-.76,1.57-1.11,3.32-2.15,6.65-4.28,9.96-6.43.42-.27.77-.65,1.18-1.01-1.99-1.87-3.8-3.62-5.67-5.31-1.3-1.18-1.87-2.58-1.86-4.33.03-5.19,0-10.38,0-15.57v-1.85c-1.64.73-2.89,1.3-4.15,1.85-.86.37-1.23.93-1.21,1.94.07,3.51-.04,7.02.05,10.53.05,1.97-.72,3.41-2.2,4.6-1.81,1.46-3.49,3.09-5.39,4.41-1.74,1.22-2.26,2.38-1.74,4.62,1.44,6.13,1.9,12.4,1.26,18.69Z"/>
  <path class="cls-1" d="m136.56,212.33c0-.6-.28-1.58-.69-1.74-3.51-1.39-7.08-2.63-10.83-3.99-.03.63-.1,1.01-.06,1.38.71,5.93.45,11.84-.55,17.71-2.05,12.04-6.76,23.05-12.92,33.52-.43.73-.66,1.77-.55,2.6.57,4.1,1.29,8.19,1.96,12.28.33,2.03.67,4.05,1.01,6.15.56-.1.9-.13,1.22-.23,6.83-2.12,13.67-4.22,20.48-6.41.44-.14.93-.99.94-1.51.04-12.11,0-24.22,0-36.33,0-7.81.02-15.62-.02-23.43Z"/>
  <path class="cls-1" d="m249.48,246.89c-4.16-9.14-6.95-18.69-7.4-28.79-.17-3.68-.03-7.38-.03-11.15-.15.02-.54.02-.89.14-2.85.97-5.68,2.01-8.54,2.93-1.38.44-1.87,1.16-1.87,2.67.04,19.72.02,39.44-.02,59.17,0,1.04.26,1.57,1.35,1.9,6.56,2,13.11,4.04,19.62,6.18,1.45.48,1.79.03,1.99-1.28.9-5.76,1.88-11.5,2.79-17.25.08-.53-.08-1.17-.33-1.66-2.21-4.3-4.67-8.48-6.68-12.87Z"/>
  <path class="cls-1" d="m202.15,94.54c-10.68-.03-21.36.17-32.02-.1-4.47-.11-8.3.7-11.78,3.53-1.86,1.51-4,2.67-6.18,4.1,7.12,6.07,14.62,10.93,23.45,13.37,5.3,1.46,10.72,1.66,15.89-.34,5.04-1.95,10.01-4.19,14.78-6.73,3.1-1.65,5.78-4.07,8.73-6.2-.38-.35-.57-.59-.81-.74-3.26-2.14-6.51-4.3-9.82-6.37-.62-.39-1.49-.52-2.25-.52Z"/>
  <path class="cls-1" d="m157.3,79.55c1.87,1.83,3.78,3.63,5.77,5.33.58.5,1.47.92,2.21.92,12.26.05,24.52.04,36.78-.01.7,0,1.53-.38,2.07-.85,2.03-1.74,4-3.54,5.89-5.42.5-.49.87-1.33.9-2.02.1-2.76.04-5.53.03-8.3,0-.35-.08-.7-.15-1.33-7.9,6.97-16.67,11.22-27.13,11.2-10.49-.02-19.28-4.33-27.3-11.29,0,3.61-.04,6.82.04,10.03.02.6.43,1.31.87,1.74Z"/>
</svg>