<?xml version="1.0" encoding="utf-8"?>
<!-- Generator: Adobe Illustrator 27.5.0, SVG Export Plug-In . SVG Version: 6.00 Build 0)  -->
<svg version="1.1" id="Calque_1" xmlns="http://www.w3.org/2000/svg" xmlns:xlink="http://www.w3.org/1999/xlink" x="0px" y="0px"
	 viewBox="0 0 143.5 165.2" style="enable-background:new 0 0 143.5 165.2;" xml:space="preserve">
<style type="text/css">
	.st0{fill:#FE3334;}
	.st1{fill:#A90000;}
	.st2{fill:#26AD00;}
</style>
<g>
	<polygon class="st0" points="372.4,53.1 333,31.6 320.9,53.1 333,74.7 	"/>
	<polygon class="st1" points="324.3,53.1 367.8,53.1 334.1,70.3 	"/>
</g>
<g>
	<polygon class="st0" points="415.7,9.9 437.3,-29.5 415.7,-41.6 394.2,-29.5 	"/>
	<polygon class="st1" points="415.3,-38.1 415.3,5.3 398.1,-28.4 	"/>
</g>
<g>
	<polygon class="st0" points="458.8,53.1 498.2,74.7 510.3,53.1 498.2,31.6 	"/>
	<polygon class="st1" points="506.8,53.2 463.4,53.2 497.1,36 	"/>
</g>
<g>
	<polygon class="st0" points="415.7,96.3 394.2,135.7 415.7,147.9 437.3,135.7 	"/>
	<polygon class="st1" points="415.7,144.4 415.7,100.9 432.9,134.7 	"/>
</g>
<g>
	<polygon class="st0" points="381.1,18 371.3,-3.3 360.8,-2.3 359.8,8.3 	"/>
	<polygon class="st1" points="362.7,-0.1 362,7.3 376.9,14.1 	"/>
</g>
<g>
	<polygon class="st0" points="450.8,18.5 472.1,8.7 471.1,-1.8 460.6,-2.8 	"/>
	<polygon class="st1" points="468.9,0.1 461.6,-0.6 454.8,14.2 	"/>
</g>
<g>
	<polygon class="st0" points="450.4,88.5 460.2,109.8 470.7,108.8 471.7,98.3 	"/>
	<polygon class="st1" points="468.8,106.6 469.5,99.3 454.6,92.4 	"/>
</g>
<g>
	<polygon class="st0" points="380.7,87.5 359.4,97.3 360.3,107.8 370.9,108.8 	"/>
	<polygon class="st1" points="362.6,105.9 369.9,106.6 376.7,91.8 	"/>
</g>
<g>
	<polygon class="st0" points="580.8,53.1 541.3,31.6 529.2,53.1 541.3,74.7 	"/>
	<polygon class="st1" points="532.7,53.1 576.2,53.1 542.4,70.3 	"/>
</g>
<g>
	<polygon class="st0" points="624.1,9.9 645.7,-29.5 624.1,-41.6 602.5,-29.5 	"/>
	<polygon class="st1" points="623.6,-38.1 623.6,5.3 606.4,-28.4 	"/>
</g>
<g>
	<polygon class="st0" points="667.1,53.1 706.6,74.7 718.7,53.1 706.6,31.6 	"/>
	<polygon class="st1" points="715.2,53.2 671.7,53.2 705.5,36 	"/>
</g>
<g>
	<polygon class="st0" points="624.1,96.3 602.5,135.7 624.1,147.9 645.7,135.7 	"/>
	<polygon class="st1" points="624.1,144.4 624.1,100.9 641.3,134.7 	"/>
</g>
<g>
	<polygon class="st0" points="589.4,18 579.7,-3.3 569.1,-2.3 568.2,8.3 	"/>
	<polygon class="st1" points="571,-0.1 570.3,7.3 585.2,14.1 	"/>
</g>
<g>
	<polygon class="st0" points="659.2,18.5 680.5,8.7 679.5,-1.8 668.9,-2.8 	"/>
	<polygon class="st1" points="677.3,0.1 669.9,-0.6 663.1,14.2 	"/>
</g>
<g>
	<polygon class="st0" points="658.7,88.5 668.5,109.8 679,108.8 680,98.3 	"/>
	<polygon class="st1" points="677.1,106.6 677.8,99.3 663,92.4 	"/>
</g>
<g>
	<polygon class="st0" points="589,87.5 567.7,97.3 568.7,107.8 579.2,108.8 	"/>
	<polygon class="st1" points="570.9,105.9 578.3,106.6 585.1,91.8 	"/>
</g>
<g>
	<path class="st2" d="M71.9,4.1l17,9.8c0.5-1.1,0.9-2.3,1.4-3.4L72.3,0.1L72.1,0H71L54.1,9.8c0.5,1.2,1.1,2.4,1.5,3.7L71.9,4.1z"/>
	<path class="st2" d="M113.5,23.9c-0.6,1.1-1.2,2.2-1.7,3.3l17.6,10.2c1.3-0.7,2.6-1.3,3.9-2L113.5,23.9z"/>
	<path class="st2" d="M143.5,62c-1.1,0.5-2.4,0.9-3.6,1.3v31.5c1.2,0.2,2.5,0.4,3.6,0.9V62z"/>
	<path class="st2" d="M32.4,27c-0.7-1-1.4-2.1-2-3.3L12.5,34.1c1.1,0.7,2.1,1.7,3.1,2.6L32.4,27z"/>
	<path class="st2" d="M3.9,63.2C2.6,62.6,1.3,62,0,61.1v37.4c1.4-0.5,2.7-0.8,3.9-1.3V63.2z"/>
	<path class="st2" d="M14.3,127.8c0,1.5,0,3.1,0,4.6l10,5.8c1.7-0.4,3.5-1,5.2-1.6L14.3,127.8z"/>
	<path class="st2" d="M91.8,149.6l-19.9,11.5l-18.1-10.5c-0.7,1.1-1.6,2-2.4,3.1l20,11.5h1.1l22.1-12.8
		C93.8,151.4,92.9,150.4,91.8,149.6z"/>
	<path class="st2" d="M113.9,136.9c0.6,1.2,1.1,2.4,1.7,3.5l13.9-8c0.3-1.7,0.8-3.3,0.9-5L113.9,136.9z"/>
	<path class="st2" d="M71.9,20.1L85.6,28c0.4-0.9,0.8-1.9,1.1-2.8l-14.4-8.3l-0.2-0.1h-0.9l-13.6,7.9c0.4,1,0.9,2,1.2,2.9L71.9,20.1
		z"/>
	<path class="st2" d="M105.3,36c-0.5,0.9-1,1.8-1.4,2.6l14.2,8.2c1.1-0.6,2.1-1.1,3.2-1.6L105.3,36z"/>
	<path class="st2" d="M129.5,66.6c-0.9,0.4-1.9,0.7-2.9,1V93c1,0.1,2,0.3,2.9,0.7V66.6z"/>
	<path class="st2" d="M40.1,38.5c-0.6-0.8-1.1-1.7-1.6-2.6l-14.4,8.4c0.9,0.6,1.7,1.4,2.5,2.1L40.1,38.5z"/>
	<path class="st2" d="M17.2,67.6c-1.1-0.4-2.2-1-3.2-1.7V96c1.1-0.4,2.2-0.7,3.2-1V67.6z"/>
	<path class="st2" d="M25.5,119.5c0,1.2,0,2.5,0,3.7l8.1,4.6c1.4-0.3,2.8-0.8,4.2-1.3L25.5,119.5z"/>
	<path class="st2" d="M87.9,137.1l-16,9.3l-14.6-8.4c-0.6,0.9-1.3,1.6-2,2.5l16.1,9.2h0.9l17.8-10.3
		C89.5,138.5,88.8,137.7,87.9,137.1z"/>
	<path class="st2" d="M105.6,126.8c0.5,1,0.9,1.9,1.4,2.8l11.2-6.5c0.3-1.3,0.6-2.7,0.7-4L105.6,126.8z"/>
</g>
</svg>
