<?xml version="1.0" encoding="UTF-8"?>
<svg id="Calque_2" data-name="Calque 2" xmlns="http://www.w3.org/2000/svg" viewBox="0 0 367.35 358.23">
  <defs>
    <style>
      .cls-1 {
        fill: #fa8d00;
      }
    </style>
  </defs>
  <polygon class="cls-1" points="147.86 307.78 147.87 307.78 147.87 307.78 147.86 307.78"/>
  <path class="cls-1" d="m147.87,307.78c-1.01-.08-2.04.02-3.06.33-4.31,1.31-6.79,5.92-5.52,10.26.98,3.33,3.99,5.61,7.3,5.88.96.08,1.95,0,2.92-.29,4.35-1.27,6.89-5.82,5.67-10.17-.95-3.42-3.96-5.73-7.31-6.01Z"/>
  <path class="cls-1" d="m305.04,218.3c10.94-4.39,22.25-8.92,33.36-13.43h0c.09-.03.18-.07.28-.12-.82-1.73-1.55-3.23-2.31-4.75-12.97-25.86-31.06-48.03-53.78-65.9l-.2-.16c-.11-.09-.24-.19-.38-.29-9.2,11.23-19.02,23.11-30.86,37.33,3.02,3.07,5.82,6.14,8.32,9.14,11.13,13.33,19.64,28.55,25.28,45.22.1.3.21.63.33.96.36-.14.73-.29,1.07-.42,3.64-1.45,7.28-2.91,10.92-4.36l7.98-3.2Z"/>
  <path class="cls-1" d="m348.61,230.13c-.1-.32-.23-.75-.37-1.17h0c-.37.09-.75.2-1.05.28-18.64,5.32-37.29,10.65-55.93,15.97-.36.1-.87.25-1.33.4.07.47.16.99.22,1.38,2.21,12.88,2.65,24.76,1.36,36.33-.57,5.02-1.33,10.09-2.07,15-.13.82-.25,1.66-.38,2.5h31.8c10.71,0,23.42,0,36.46.09h.05c.2,0,.35,0,.48-.01.02-.2.05-.48.06-.85.74-24.09-2.39-47.62-9.3-69.91Z"/>
  <path class="cls-1" d="m152.16,119.12c-.09-1.61-.18-3.23-.28-4.84h0c-.11-1.51-.21-3.02-.33-4.54-.3-4.14-.61-8.42-.85-12.65-14.37,1.9-28.25,5.47-41.28,10.61-13.27,5.24-26.05,12.26-37.97,20.89,0,0-.02.01-.03.02,4.7,6.75,9.25,13.45,13.53,19.92,21.2-11.78,44.04-17.85,67.91-18.03-.28-3.81-.5-7.66-.71-11.38Z"/>
  <polygon class="cls-1" points="53.06 144.15 53.06 144.15 53.07 144.15 53.06 144.15"/>
  <path class="cls-1" d="m53.06,144.15c-2.38,2.82-4.83,5.63-7.21,8.36-5.11,5.85-10.39,11.9-15.02,18.17-8.9,12.06-16.12,26.32-21.45,42.39-.01.04-.02.1-.04.17,3.01,1.34,6.16,2.58,9.46,3.89.42.17.85.34,1.29.51.04-.06.07-.11.09-.16,11.42-23.06,27.12-42.26,46.67-57.1-5.66-6.42-9.91-11.42-13.75-16.18,0-.01-.02-.02-.03-.04Z"/>
  <path class="cls-1" d="m300.25,34.83h0c-24.26,20.32-42.39,44.89-53.92,74.08-.24.61-.48,1.21-.71,1.82-.23.61-.46,1.21-.69,1.83-.42,1.12-.83,2.25-1.22,3.38-4.28,12.22-9.34,24.03-15.2,35.43-.3.58-.59,1.15-.9,1.73s-.61,1.15-.92,1.73c-5.73,10.76-12.17,21.15-19.38,31.13-12.32,17.06-24.82,33.99-37.3,50.93-.64.87-.91,1.54-.76,2.28h-.05s-1.31,11.06-1.31,11.06c2.14,3.09,4.28,6.2,6.37,9.31,1.32,1.97,2.75,2.9,4.85,3.14l.3.02c.2.02.4.03.61.03,3.55.08,7.13.2,10.67.33l9.49-7.19c.19-.1.36-.23.51-.38l.06-.05v-.02c.29-.33.54-.77.76-1.35,5.98-15.72,12.22-31.34,18.05-47.11,5.64-15.23,12.2-29.97,19.98-44.04.32-.57.64-1.14.95-1.71.32-.57.64-1.14.96-1.7,5.61-9.83,11.85-19.32,18.81-28.42,1.96-2.57,3.9-5.15,5.79-7.77.39-.53.77-1.06,1.15-1.59.38-.53.76-1.07,1.14-1.6,5.83-8.27,11.19-16.83,15.66-25.98,9.22-18.93,14.85-38.89,17.42-60.22-.65.48-.93.67-1.18.89Z"/>
  <path class="cls-1" d="m178.05,133.13l.14.02.14.03c.67.16,12.53,2.93,28.75,10.17l13.03,7.04s5.91-14.94,7.19-19.8c1.29-4.86,7.2-21.66,7.2-21.66l-14.4-5.25h0c-8.17-2.82-15.6-4.9-22.18-6.18-.39-.08-.8-.15-1.29-.22l-.22-.03c-9.15-1.23-13.15-1.61-16.98-1.61-1.97,0-3.93.1-6.64.23l-.6.03c-.51,8.72-.92,17.6-1.31,26.19-.15,3.29-.3,6.59-.45,9.88,1.66.22,3.29.48,5.01.75.85.14,1.73.27,2.62.41Z"/>
  <path class="cls-1" d="m215.09,271.48c-.39-1.23-.76-2.4-.99-3.59-.28-1.5-.77-1.97-2.19-2.08-.15-.01-.3-.02-.46-.03-5.37-.12-10.84-.32-16.12-.52-2.35-.09-4.75-.18-7.15-.26-2.65-.09-5.31-.17-7.94-.24v.04s-.98-.08-.98-.08c-2.88-.24-4.93-1.49-6.65-4.05-1.66-2.48-3.36-4.96-5.06-7.42-2.19-3.17-4.38-6.33-6.54-9.42-1.26-1.81-2.53-3.62-3.79-5.44-2.43-3.5-3.34-4.72-4.6-4.82-1.04-.09-2.61.49-5.14,1.46l3.71,6.61c4.4,7.84,8.92,15.88,13.44,23.89-.24.25-.47.51-.69.79-.23.28-.45.57-.67.87-2.48,3.4-4.11,7.75-4.11,7.75-.03.1-.07.2-.1.31-2.82,8.48-5.46,16.44-7.8,23.47l-1.5,4.89s5.08.92,6.48,3.54l3.29-3.76c4.86-6.02,10.2-12.64,15.86-19.64,1.7-1.36,3.1-4.56,4.12-7.61.12-.34.22-.68.33-1.02.11-.35.21-.69.31-1.02,9.63-.54,19.22-1.11,29.23-1.7l5.89-.35c-.06-.19-.12-.38-.18-.57Z"/>
</svg>