<?xml version="1.0" encoding="UTF-8"?>
<svg id="Calque_2" data-name="Calque 2" xmlns="http://www.w3.org/2000/svg" viewBox="0 0 367.35 358.23">
  <defs>
    <style>
      .cls-1 {
        fill: #5e28a1;
      }

      .cls-2 {
        fill: #4f70b3;
      }
    </style>
  </defs>
  <path class="cls-2" d="m183.35,175.61c.43.96.65,1.53.65,1.53-.04-.4-.28-.93-.65-1.53Z"/>
  <path class="cls-1" d="m230.95,125.56c0-.08,0-.16,0-.24l-.13.05s-15.08,3.25-30.17-.76c-1.08-.27-2.15-.6-3.22-.97-4.34-1.48-8.59-3.62-12.38-6.69-1.05-.58-1.79-.58-2.85,0-17.83,14.42-45.67,8.45-45.78,8.43,0,.27-.01.54-.01.8-.02,9.72,0,19.43-.01,29.15,0,9.61-.04,19.23.03,28.84.01,1.63.15,3.4.79,4.86,1.38,3.12,2.87,6.25,4.77,9.07,10.39,15.47,23.86,27.73,39.66,37.51,1.42.88,2.73.82,4.05-.14,5.67-4.11,11.58-7.93,16.96-12.39,9.65-8,18.04-17.2,24.5-28.03,1.94-3.26,3.79-6.61,3.79-10.57.02-19.64.01-39.28,0-58.93Z"/>
  <g>
    <path class="cls-1" d="m258.27,106.05v-9.69c-1.5.21-3.27.43-5.26.62l-4.75.46-.92-9.5,4.75-.46c4.8-.47,8.18-1.08,9.31-1.3l6.18-2.61.22,6.95c.01.22.02.38.02.54v14.98s-9.53,0-9.53,0Z"/>
    <path class="cls-1" d="m234.3,97.61l-4.76-.38c-6.54-.53-12.8-1.58-18.6-3.12l-4.64-1.12,2.26-9.27,4.82,1.16c5.26,1.4,10.95,2.35,16.93,2.84l4.76.38-.77,9.51Zm-101.16-.01l-.79-9.51,4.75-.39c6-.5,11.72-1.48,16.99-2.9l4.61-1.25,2.49,9.21-4.61,1.25c-5.82,1.58-12.11,2.65-18.69,3.2l-4.75.4Zm59.67-10.48l-4.01-2.58c-1.8-1.16-3.55-2.41-5.22-3.72-1.59,1.25-3.25,2.45-4.97,3.56l-4,2.6-5.19-8,4-2.6c1.66-1.08,3.27-2.24,4.78-3.46l.34-.27.38-.21c3.24-1.76,6.16-1.75,9.37.03l.36.2.32.26c1.57,1.27,3.25,2.48,4.98,3.59l4.01,2.58-5.16,8.03Z"/>
    <path class="cls-1" d="m109.09,106.15h-9.54s.02-14.03.02-14.03c0-.49,0-.99.02-1.5l.18-5.74,5.61,1.23s3.86.82,9.92,1.4l4.75.45-.91,9.5-4.75-.45c-2-.19-3.78-.41-5.29-.61v9.75Z"/>
    <path class="cls-1" d="m173.13,276.98l-3.95-2.67c-6.21-4.19-12.21-8.65-17.82-13.25l-3.69-3.02,6.05-7.38,3.69,3.02c5.38,4.41,11.14,8.69,17.11,12.72l3.96,2.67-5.34,7.91Zm20.83-.47l-5.47-7.82,4.8-3.36c5.51-3.85,11.2-7.84,16.49-12.02l3.74-2.96,5.92,7.48-3.74,2.96c-5.51,4.36-11.32,8.42-16.94,12.35l-4.8,3.36Zm-59.68-30.92l-3.27-3.47c-5.1-5.4-9.94-11.12-14.4-16.99l-2.88-3.8,7.6-5.77,2.88,3.8c4.25,5.6,8.87,11.06,13.74,16.21l3.27,3.47-6.94,6.55Zm98.71-.09l-6.88-6.61,3.3-3.44c4.97-5.18,9.59-10.6,13.73-16.12l2.86-3.82,7.63,5.73-2.86,3.82c-4.37,5.82-9.24,11.55-14.48,17l-3.3,3.44Zm-129.06-40.15l-2.6-5.79c-1.5-3.4-1.72-7.16-1.74-10.06-.03-3.97-.05-7.94-.06-11.91v-4.77s9.53-.03,9.53-.03v4.77c.02,3.96.04,7.91.07,11.87.01,1.82.12,4.45.93,6.27l2.57,5.74-8.7,3.91Zm159.92-.11l-8.87-3.51,1.75-4.44c1.03-2.59,1.53-4.99,1.53-7.31v-17.23s9.55,0,9.55,0v17.23c-.02,3.55-.73,7.08-2.21,10.81l-1.76,4.44Zm-154.78-50.11h-9.54s.01-31.32.01-31.32h9.54v31.32Zm158.75-.05h-9.54s0-12.95,0-12.95v-18.36s9.54,0,9.54,0v18.36s0,12.95,0,12.95Z"/>
  </g>
  <path class="cls-2" d="m313.32,31.36v-4.5c-2.14.66-3.81,1.19-5.49,1.69-42.65,12.83-82.71,7.19-120.04-17.09-3.15-2.05-5.13-2.12-8.3-.02-31.51,20.85-65.97,27.95-103.15,21.29-7.42-1.33-14.69-3.53-22.41-5.43v2.24c0,57.55-.02,115.11.05,172.66,0,2.44.47,4.99,1.29,7.28,4.21,11.85,11.06,22.29,18.35,32.38,29.27,40.51,65.47,73.63,107.73,100.22,2.09,1.31,3.33.71,5.04-.36,31.17-19.54,58.97-43.09,83.49-70.48,14.27-15.94,27.32-32.8,37.61-51.67,3.93-7.2,6-14.62,5.97-23.04-.25-55.06-.13-110.13-.12-165.19Zm-86.21,251.05c-12.29,10.18-25.78,18.9-38.72,28.28-3.01,2.18-6,2.31-9.24.31-36.08-22.31-66.81-50.31-90.54-85.62-4.33-6.44-7.73-13.58-10.88-20.7-1.47-3.33-1.79-7.37-1.81-11.1-.16-21.94-.08-43.89-.08-65.83,0-22.18,0-44.36.03-66.55,0-.61.01-1.22.03-1.84.24.05,63.8,13.68,104.5-19.25,2.42-1.32,4.11-1.31,6.5.02,8.67,7.01,18.37,11.9,28.27,15.26,2.43.85,4.88,1.6,7.34,2.22,34.44,9.17,68.87,1.74,68.87,1.74l.29-.12c0,.18.02.35.02.54.03,44.84.04,89.68,0,134.52,0,9.03-4.22,16.69-8.65,24.13-14.74,24.72-33.89,45.74-55.92,63.99Z"/>
</svg>