<?xml version="1.0" encoding="UTF-8"?>
<svg id="Calque_2" data-name="Calque 2" xmlns="http://www.w3.org/2000/svg" viewBox="0 0 367.35 358.23">
  <defs>
    <style>
      .cls-1 {
        fill: #7c7a55;
      }

      .cls-2 {
        fill: #f7f3aa;
      }

      .cls-3 {
        fill: #eeeaa4;
      }

      .cls-4 {
        fill: #817f59;
      }
    </style>
  </defs>
  <path class="cls-2" d="m108.01,145.38c0-6.97-5.65-12.62-12.62-12.62h-10.3c-6.97,0-12.62,5.65-12.62,12.62s5.65,12.62,12.62,12.62h10.3c6.97,0,12.62-5.65,12.62-12.62Z"/>
  <path class="cls-2" d="m77.23,196.5c0-6.97-5.65-12.62-12.62-12.62h-10.3c-6.97,0-12.62,5.65-12.62,12.62s5.65,12.62,12.62,12.62h10.3c6.97,0,12.62-5.65,12.62-12.62Z"/>
  <path class="cls-2" d="m42.41,155.42c0-6.08-4.93-11-11-11h-8.98c-6.08,0-11,4.93-11,11s4.93,11,11,11h8.98c6.08,0,11-4.93,11-11Z"/>
  <path class="cls-2" d="m350.25,146.06l-.36,11.29-9.06-3.3c2.73,7.61,4.2,15.63,4.21,23.75.04,34.57-26.12,68.2-64.72,76.25-48.81,10.19-98.19-21.74-98.22-74.11-.03-51.79,49.35-85.24,97.61-76.54,15.93,2.87,29.73,10.04,40.5,19.87l-13.1,12.11,6.19,1.67,22.62,6.11,9.12,2.46.34-10.37.8-24.45.38-11.75-16.56,15.15c-5.06-4.13-10.1-8.36-15.5-12.32-6.59-4.84-14.08-8.22-22.19-11.22-18.53-6.9-33.34-6.04-33.34-6.04-17.26-.34-34.04,3.24-50.5,11.29,0,0-11.22,6.04-15.04,8.99,0,0,0,0,0,0-6.37,4.7-11.97,9.78-16.81,15.14h-45.55c-6.08,0-11,4.93-11,11s4.93,11,11,11h30.51c-3.77,7.65-6.31,15.58-7.71,23.57h-38.9c-6.08,0-11,4.93-11,11s4.93,11,11,11h37.96c.7,8.04,2.55,15.96,5.49,23.57h-62.27c-6.08,0-11,4.93-11,11s4.93,11,11,11h74.58c8.28,10.92,19.28,20.47,32.83,27.78,47.02,25.37,102.5,10.22,131.54-25.06,20.53-24.94,26.46-59.53,15.14-89.88Z"/>
  <polygon class="cls-1" points="312.39 191.36 281.91 189.76 281.96 193.96 298.65 194.84 312.39 191.36"/>
  <polygon class="cls-4" points="260.03 131 246.29 134.48 246.63 164.27 260.42 164.99 260.03 131"/>
  <polygon class="cls-4" points="260.69 188.65 246.95 192.13 247.33 226.13 261.08 222.65 260.69 188.65"/>
  <polygon class="cls-1" points="247.33 226.13 268.55 227.24 282.29 223.76 261.08 222.65 247.33 226.13"/>
  <polygon class="cls-4" points="229.94 163.39 216.2 166.87 216.47 190.53 230.21 187.05 229.94 163.39"/>
  <polygon class="cls-1" points="230.21 187.05 216.47 190.53 246.95 192.13 260.69 188.65 230.21 187.05"/>
  <polygon class="cls-3" points="281.91 189.76 312.39 191.36 312.12 167.7 281.64 166.1 281.25 132.11 260.03 131 260.42 164.99 246.63 164.27 229.94 163.39 230.21 187.05 260.69 188.65 261.08 222.65 282.29 223.76 281.96 193.96 281.91 189.76"/>
</svg>