<?xml version="1.0" encoding="UTF-8"?>
<svg id="Calque_2" data-name="Calque 2" xmlns="http://www.w3.org/2000/svg" viewBox="0 0 367.35 358.23">
  <defs>
    <style>
      .cls-1 {
        opacity: .3;
      }

      .cls-1, .cls-2 {
        fill: #c0faff;
      }

      .cls-3 {
        fill: none;
      }
    </style>
  </defs>
  <path class="cls-1" d="m153.64,231.58c-.04-.23-.08-.46-.13-.68-.05-.26-.1-.52-.15-.78-1.12-5.51-2.12-11.06-3.18-16.83-.18-.96-.36-1.92-.54-2.87-.02.03-.17.19-.27.4-1.24,5.77-2.12,11.45-3.71,16.85-.61,2.82-1.22,5.63-1.83,8.45-.03,2.14.38,4.14,1.25,6.04,1.41,1.9,2.85,3.81,4.33,5.75.48.52.91,1.13,1.52,1.88.37-.78.7-1.55,1.01-2.33.84-2.22,1.44-4.4,1.79-6.59.02-.15.05-.3.07-.45.01-.09.02-.18.04-.28.35-2.72.3-5.47-.15-8.28-.02-.09-.03-.18-.05-.27Z"/>
  <path class="cls-1" d="m213.55,240.41c.02.15.05.3.07.45.35,2.19.96,4.38,1.79,6.59.3.78.64,1.55,1.01,2.33.61-.75,1.04-1.36,1.52-1.88,1.48-1.95,2.92-3.85,4.33-5.75.87-1.9,1.28-3.9,1.25-6.04-.61-2.82-1.22-5.63-1.83-8.45-1.6-5.4-2.47-11.08-3.71-16.85-.1-.21-.25-.36-.27-.4-.18.95-.36,1.91-.54,2.87-1.07,5.77-2.07,11.32-3.18,16.83-.05.26-.1.52-.15.78-.04.23-.09.46-.13.68-.02.09-.03.18-.05.27-.45,2.81-.5,5.56-.15,8.28.01.09.02.18.04.28Z"/>
  <path class="cls-1" d="m132.1,210.1c1.1-4.43,2.33-8.82,3.71-13.18.7-2.26,1.42-4.51,2.16-6.76.39-1.17.86-2.26,1.4-3.28,1.37-2.91,3.42-5.14,6.16-6.72.97-.64,2.02-1.21,3.14-1.71,1.9-.84,3.77-1.73,5.66-2.59,2.53-1.15,5.11-2.22,7.63-3.4.04-.02.07-.04.11-.05,2.45-1.26,4.77-2.88,6.92-4.66.5-.57.98-1.15,1.43-1.74.46-.6.04-2.21-.43-3.13-.1-.19-.2-.37-.29-.56-2.01-2.41-3.4-5.35-4.99-8.1-1.08-1.88-.97-4.18-3.34-5.65-.91-.57-1.3-2.19-1.31-4-.4-1.67-.3-3.35.61-4.61.09-.12.17-.25.25-.38.17-.41.35-.76.55-1.03.03-.05.06-.1.09-.14,1.09-2.39,1.07-4.91,1.82-7.3.15-.47.3-.93.46-1.39.94-3.01,2.27-5.84,4.1-8.41.08-.11.16-.23.24-.34.03-.04.06-.08.09-.13.64-.88,1.33-1.72,2.1-2.53,3.18-3.34,6.93-5.3,10.79-5.89.02,0,.04,0,.05,0,.26-.04.52-.07.77-.1.07,0,.13-.01.2-.02.21-.02.42-.04.63-.05.12,0,.23,0,.35-.01.16,0,.32,0,.49,0,.16,0,.32,0,.49,0,.12,0,.23,0,.35.01.21.01.42.03.63.05.07,0,.13.01.2.02.26.03.52.06.77.1.02,0,.03,0,.05,0,3.85.59,7.61,2.55,10.79,5.89.77.8,1.46,1.65,2.1,2.53.03.04.06.08.09.13.08.11.16.23.24.34,1.84,2.58,3.17,5.4,4.1,8.41.16.46.31.93.46,1.39.76,2.4.74,4.92,1.82,7.3.03.05.06.1.09.14.2.27.39.63.55,1.03.08.13.16.25.25.38.91,1.26,1.02,2.94.61,4.61-.01,1.81-.4,3.44-1.31,4-2.37,1.47-2.26,3.78-3.34,5.65-1.59,2.75-2.98,5.69-4.99,8.1-.1.19-.2.37-.29.56-.47.92-.89,2.53-.43,3.13.45.59.92,1.17,1.43,1.74,2.14,1.77,4.46,3.4,6.92,4.66.04.02.07.04.11.05,2.52,1.18,5.1,2.24,7.63,3.4,1.89.86,3.76,1.75,5.66,2.59,1.13.5,2.17,1.07,3.14,1.71,2.75,1.58,4.79,3.82,6.16,6.72.54,1.02,1.01,2.11,1.4,3.28.75,2.25,1.47,4.5,2.16,6.76,1.39,4.36,2.61,8.75,3.71,13.18,1.59,6.27,2.95,12.6,4,19,.3,1.7.58,3.4.85,5.1,15.02-14.68,24.36-35.15,24.36-57.76,0-44.55-36.24-80.79-80.79-80.79s-80.79,36.24-80.79,80.79c0,22.61,9.34,43.08,24.36,57.76.28-1.7.55-3.4.85-5.1,1.05-6.4,2.4-12.72,4-19Z"/>
  <path class="cls-3" d="m132.63,261.89c2.15-.53,4.33-1.06,6.56-1.61.43-.14.89-.32,1.49-.53-1.43-1.28-2.81-2.49-4.15-3.68-.59-.49-1.18-.98-1.77-1.46-1.62-1.31-3.01-2.71-4.17-4.2-.5-.59-.94-1.2-1.34-1.82-21.85-16.52-35.99-42.72-35.99-72.15,0-49.86,40.56-90.42,90.42-90.42s90.42,40.56,90.42,90.42c0,29.44-14.14,55.63-35.99,72.15-.4.62-.84,1.24-1.34,1.82-1.16,1.49-2.55,2.89-4.17,4.2-.59.48-1.18.97-1.77,1.46-1.34,1.18-2.72,2.39-4.15,3.68.6.21,1.06.39,1.49.53,2.22.55,4.41,1.08,6.56,1.61,3.36.81,6.73,1.62,10.07,2.5,2.63.69,4.95,1.75,6.91,3.12,27.72-20.76,45.69-53.85,45.69-91.07,0-62.7-51.01-113.72-113.72-113.72s-113.72,51.01-113.72,113.72c0,37.21,17.97,70.31,45.69,91.07,1.96-1.37,4.28-2.43,6.91-3.12,3.35-.88,6.71-1.69,10.07-2.5Z"/>
  <path class="cls-2" d="m274.1,176.43c0-49.86-40.56-90.42-90.42-90.42s-90.42,40.56-90.42,90.42c0,29.44,14.14,55.63,35.99,72.15-1.62-2.51-2.47-5.3-2.51-8.38-.07-1.41,0-2.89.25-4.45.08-.52.18-1.04.26-1.57-15.02-14.68-24.36-35.15-24.36-57.76,0-44.55,36.24-80.79,80.79-80.79s80.79,36.24,80.79,80.79c0,22.61-9.34,43.08-24.36,57.76.08.52.18,1.04.26,1.57.25,1.55.32,3.03.25,4.45-.03,3.09-.89,5.88-2.51,8.38,21.85-16.52,35.99-42.72,35.99-72.15Z"/>
  <path class="cls-2" d="m307.03,176.43c0-32.95-12.83-63.92-36.13-87.22-23.3-23.3-54.27-36.13-87.22-36.13s-63.92,12.83-87.22,36.13-36.13,54.27-36.13,87.22,12.83,63.92,36.13,87.22c4.13,4.13,8.51,7.92,13.09,11.38.57-1.4,1.32-2.71,2.25-3.89.21-.27.43-.54.66-.8.02-.02.04-.04.06-.07.91-1.03,1.96-1.95,3.14-2.77-27.72-20.76-45.69-53.85-45.69-91.07,0-62.7,51.01-113.72,113.72-113.72s113.72,51.01,113.72,113.72c0,37.21-17.97,70.31-45.69,91.07,1.18.82,2.22,1.75,3.14,2.77.02.02.04.04.06.07.23.26.45.53.66.8.93,1.19,1.68,2.49,2.25,3.89,4.58-3.46,8.96-7.25,13.09-11.38,23.3-23.3,36.13-54.27,36.13-87.22Z"/>
  <path class="cls-2" d="m259.06,280.59c0-.08-.01-.16-.02-.24-.03-.39-.07-.78-.12-1.16-.02-.16-.05-.31-.07-.47-.04-.22-.08-.44-.12-.66-.07-.35-.15-.7-.24-1.04-.02-.07-.03-.13-.05-.2-.17-.61-.38-1.21-.61-1.79-.57-1.4-1.32-2.71-2.25-3.89-.21-.27-.43-.54-.66-.8-.02-.02-.04-.04-.06-.07-.91-1.03-1.96-1.95-3.14-2.77-1.96-1.37-4.28-2.43-6.91-3.12-3.35-.88-6.71-1.69-10.07-2.5-2.15-.53-4.33-1.06-6.56-1.61-.43-.14-.89-.32-1.49-.53,1.43-1.28,2.81-2.49,4.15-3.68.59-.49,1.18-.98,1.77-1.46,1.62-1.31,3.01-2.71,4.17-4.2.5-.59.94-1.2,1.34-1.82,1.62-2.51,2.47-5.3,2.51-8.38.07-1.41,0-2.89-.25-4.45-.08-.52-.18-1.04-.26-1.57-.28-1.7-.55-3.4-.85-5.1-1.05-6.4-2.4-12.72-4-19-1.1-4.43-2.33-8.82-3.71-13.18-.7-2.26-1.42-4.51-2.16-6.76-.39-1.17-.86-2.26-1.4-3.28-1.37-2.91-3.42-5.14-6.16-6.72-.97-.64-2.02-1.21-3.14-1.71-1.9-.84-3.77-1.73-5.66-2.59-2.53-1.15-5.11-2.22-7.63-3.4-.04-.02-.07-.04-.11-.05-2.45-1.26-4.77-2.88-6.92-4.66-.5-.57-.98-1.15-1.43-1.74-.46-.6-.04-2.21.43-3.13.1-.19.2-.37.29-.56,2.01-2.41,3.4-5.35,4.99-8.1,1.08-1.88.97-4.18,3.34-5.65.91-.57,1.3-2.19,1.31-4,.4-1.67.3-3.35-.61-4.61-.09-.12-.17-.25-.25-.38-.17-.41-.35-.76-.55-1.03-.03-.05-.06-.1-.09-.14-1.09-2.39-1.07-4.91-1.82-7.3-.15-.47-.3-.93-.46-1.39-.94-3.01-2.27-5.84-4.1-8.41-.08-.11-.16-.23-.24-.34-.03-.04-.06-.08-.09-.13-.64-.88-1.33-1.72-2.1-2.53-3.18-3.34-6.93-5.3-10.79-5.89-.02,0-.04,0-.05,0-.26-.04-.52-.07-.77-.1-.07,0-.13-.01-.2-.02-.21-.02-.42-.04-.63-.05-.11,0-.23,0-.35-.01-.16,0-.32,0-.49,0-.16,0-.32,0-.49,0-.12,0-.23,0-.35.01-.21.01-.42.03-.63.05-.07,0-.13.01-.2.02-.26.03-.52.06-.77.1-.02,0-.03,0-.05,0-3.85.59-7.61,2.55-10.79,5.89-.77.8-1.46,1.65-2.1,2.53-.03.04-.06.08-.09.13-.08.11-.16.23-.24.34-1.84,2.58-3.17,5.4-4.1,8.41-.16.46-.31.93-.46,1.39-.76,2.4-.74,4.92-1.82,7.3-.03.05-.06.1-.09.14-.2.27-.39.63-.55,1.03-.08.13-.16.25-.25.38-.91,1.26-1.02,2.94-.61,4.61.01,1.81.4,3.44,1.31,4,2.37,1.47,2.26,3.78,3.34,5.65,1.59,2.75,2.98,5.69,4.99,8.1.1.19.2.37.29.56.47.92.89,2.53.43,3.13-.45.59-.92,1.17-1.43,1.74-2.14,1.77-4.46,3.4-6.92,4.66-.04.02-.07.04-.11.05-2.52,1.18-5.1,2.24-7.63,3.4-1.89.86-3.76,1.75-5.66,2.59-1.13.5-2.17,1.07-3.14,1.71-2.75,1.58-4.79,3.82-6.16,6.72-.54,1.02-1.01,2.11-1.4,3.28-.75,2.25-1.47,4.5-2.16,6.76-1.39,4.36-2.61,8.75-3.71,13.18-1.59,6.27-2.94,12.6-4,19-.3,1.7-.58,3.4-.85,5.1-.08.52-.18,1.04-.26,1.57-.25,1.55-.32,3.03-.25,4.45.03,3.09.89,5.88,2.51,8.38.4.62.84,1.24,1.34,1.82,1.16,1.49,2.55,2.89,4.17,4.2.59.48,1.18.97,1.77,1.46,1.34,1.18,2.72,2.39,4.15,3.68-.6.21-1.06.39-1.49.53-2.22.55-4.41,1.08-6.56,1.61-3.36.81-6.73,1.62-10.07,2.5-2.63.69-4.95,1.75-6.91,3.12-1.18.82-2.22,1.75-3.14,2.77-.02.02-.04.04-.06.07-.23.26-.45.53-.66.8-.93,1.19-1.68,2.49-2.25,3.89-.24.58-.44,1.18-.61,1.79-.02.06-.04.13-.05.2-.09.34-.17.69-.24,1.04-.04.22-.09.44-.12.66-.03.16-.05.31-.07.47-.05.38-.09.77-.12,1.16,0,.08-.01.16-.02.24-.03.43-.04.86-.04,1.3,0,.07,0,.15,0,.22,0,.07,0,.14,0,.21,0,.32.03.64.05.96,0,.09,0,.18.01.28.13,1.61.49,3.19,1.06,4.7,1.5,4.1,4.4,7.59,8.23,9.8,1.61.96,3.36,1.68,5.2,2.08.85.19,1.72.32,2.59.44,6.51,1.17,13.08,2.13,19.66,2.72,3.08.28,6.16.53,9.24.75,9.77.77,19.57,1.12,29.38,1.1,9.81.02,19.61-.33,29.38-1.1,3.08-.22,6.16-.47,9.24-.75,6.58-.59,13.15-1.55,19.66-2.72.87-.12,1.74-.25,2.59-.44,1.84-.41,3.59-1.12,5.2-2.08,3.83-2.21,6.74-5.7,8.23-9.8.57-1.51.94-3.09,1.06-4.7,0-.09,0-.18.01-.28.02-.32.04-.64.05-.96,0-.07,0-.14,0-.21,0-.07,0-.15,0-.22,0-.44-.01-.87-.04-1.3Zm-45.39-48.73c.02-.09.03-.18.05-.27.04-.23.08-.46.13-.68.05-.26.1-.52.15-.78,1.12-5.51,2.12-11.06,3.18-16.83.18-.96.36-1.92.54-2.87.02.03.17.19.27.4,1.24,5.77,2.12,11.45,3.71,16.85.61,2.82,1.22,5.63,1.83,8.45.03,2.14-.38,4.14-1.25,6.04-1.41,1.9-2.85,3.81-4.33,5.75-.48.52-.91,1.13-1.52,1.88-.37-.78-.7-1.55-1.01-2.33-.84-2.22-1.44-4.4-1.79-6.59-.02-.15-.05-.3-.07-.45-.01-.09-.02-.18-.04-.28-.35-2.72-.3-5.47.15-8.28Zm-68.02-4.19c1.6-5.4,2.47-11.08,3.71-16.85.1-.21.25-.36.27-.4.18.95.36,1.91.54,2.87,1.07,5.77,2.07,11.32,3.18,16.83.05.26.1.52.15.78.04.23.09.46.13.68.02.09.03.18.05.27.45,2.81.5,5.56.15,8.28-.01.09-.02.18-.04.28-.02.15-.05.3-.07.45-.35,2.19-.96,4.38-1.79,6.59-.3.78-.64,1.55-1.01,2.33-.61-.75-1.04-1.36-1.52-1.88-1.48-1.95-2.92-3.85-4.33-5.75-.87-1.9-1.28-3.9-1.25-6.04.61-2.82,1.22-5.63,1.83-8.45Z"/>
</svg>