<?xml version="1.0" encoding="UTF-8"?>
<svg id="Calque_1" data-name="Calque 1" xmlns="http://www.w3.org/2000/svg" viewBox="0 0 99.54 99.47">
  <defs>
    <style>
      .cls-1 {
        fill: #fff;
      }
    </style>
  </defs>
  <path class="cls-1" d="m50.25,0C21.92-.13.2,22.58,0,49.42c-.06,27.96,22.34,49.66,49.11,50.05,26.89.39,49.89-21.03,50.43-48.8C100.08,22.31,76.94.12,50.25,0Zm2.37,94.21c-26.86,1.47-47.23-19.25-47.47-44.04C4.91,25.06,24.84,6.4,47.08,5.22c27.36-1.45,47.44,20.71,47.23,43.96.62,24.13-18.84,43.79-41.69,45.03Z"/>
  <path class="cls-1" d="m50.63,27.68c0-.47-.03-.95-.06-1.42-.04-.58-.07-1.33-.7-1.43-.46-.08-1.11.24-1.5.58-1.45,1.27-2.84,2.61-4.23,3.95-2.47,2.38-4.91,4.8-7.38,7.18-.9.87-1.99,1.3-3.28,1.23-.98-.05-1.95-.02-2.93,0-1.65.02-3.31-.02-4.96.1-1.35.1-1.85.72-1.85,2.06,0,6.56,0,13.12,0,19.68,0,1.33.57,1.98,1.88,2.02,2.33.08,4.67.19,6.99.07,2.03-.11,3.54.61,4.95,2,3.43,3.4,6.94,6.73,10.43,10.08.27.26.55.51.87.72.84.55,1.56.23,1.65-.76.08-.8.12-1.6.12-2.4,0-7.19,0-14.37,0-21.56h0c0-7.36,0-14.72,0-22.08Z"/>
  <path class="cls-1" d="m75.65,47.97c-.17-5.66-1.61-10.96-4.53-15.82-.99-1.65-2.14-3.2-3.26-4.77-.65-.91-1.54-1.43-2.71-1.28-2.2.27-3.41,2.84-1.8,4.79,3.86,4.68,5.96,10.08,6.49,16.09.44,5.02-.34,9.87-2.41,14.49-1.22,2.72-2.87,5.16-4.82,7.39-.86.99-.65,2.87.37,3.82,1.01.94,2.52,1.01,3.63.1.38-.32.77-.66,1.05-1.06,1.31-1.89,2.7-3.74,3.84-5.73,3.03-5.26,4.31-10.99,4.16-17.04,0-.33,0-.65,0-.98Z"/>
  <path class="cls-1" d="m63.91,42.85c-.86-2.86-2.08-5.52-3.92-7.88-1.01-1.3-2.62-1.54-3.95-.65-1.24.82-1.57,2.46-.75,3.86.29.5.64.95.95,1.44,2.54,3.99,3.48,8.31,2.64,12.98-.55,3.06-1.78,5.81-3.73,8.25-.66.83-1.06,1.78-.64,2.86.89,2.26,3.43,2.68,4.98.76,3.56-4.4,5.36-9.44,5.38-15.11-.02-2.21-.33-4.37-.97-6.5Z"/>
</svg>