<?xml version="1.0" encoding="UTF-8"?>
<svg id="Calque_2" data-name="Calque 2" xmlns="http://www.w3.org/2000/svg" viewBox="0 0 367.35 358.23">
  <defs>
    <style>
      .cls-1 {
        fill: #fff;
      }
    </style>
  </defs>
  <path class="cls-1" d="m306.89,171.99c-.03-.43-.04-.86-.06-1.29.09-22.32.05-44.64.2-66.97.03-4.19-1.43-6.37-5.07-8.13-6.8-3.31-13.38-7.07-20.45-10.86l-19.51-10.6c-10.73-5.43-23.76-12.31-36.52-18.98-6.85-3.62-13.58-7.19-19.68-10.5l-.13-.31c-4.22-1.46-8.55-4.38-12.92-6.63-3.02-2.45-6.05-3.22-9.07-3-3.03-.23-6.06.55-9.07,3-4.38,2.26-8.71,5.17-12.92,6.63l-.13.31c-6.09,3.31-12.82,6.88-19.68,10.5-12.76,6.68-25.79,13.55-36.52,18.98l-19.51,10.6c-7.08,3.79-13.65,7.56-20.45,10.86-3.64,1.77-5.09,3.94-5.07,8.13.16,22.32.11,44.64.2,66.97-.03.43-.04.86-.06,1.29-.2,3.27-.17,6.34.1,9.25.02,2.23,0,4.46.03,6.69.03,2.87,1.64,6.44,3.71,8.45,1.04,1.01,2.11,1.99,3.17,2.99,2.2,2.79,4.97,5.37,8.4,7.78,5.49,4.98,11.01,9.93,16.34,15.07,1.95,1.88,3.4,5.22,3.47,7.93.25,10.34.11,20.68.17,31.02-.29,4.29-.47,8.52.31,12.29.26,1.98,1.13,4.14,2.39,5.8,2.93,4.33,8.04,7.61,12.96,10.97,6.1,4.86,12.43,9.77,19.23,15.15v-.4c.22.17.41.32.63.49v-53.2h34.25v71.28h36.13v-71.28h34.25v53.2c.22-.17.41-.32.63-.49v.4c6.8-5.38,13.14-10.3,19.23-15.15,4.92-3.36,10.03-6.64,12.96-10.97,1.25-1.66,2.12-3.83,2.39-5.8.77-3.77.6-8.01.31-12.29.06-10.34-.08-20.69.17-31.02.06-2.71,1.52-6.05,3.47-7.93,5.33-5.14,10.85-10.09,16.34-15.07,3.43-2.41,6.2-4.99,8.4-7.78,1.05-1,2.13-1.98,3.17-2.99,2.07-2.01,3.68-5.58,3.71-8.45.02-2.23,0-4.46.03-6.69.27-2.91.31-5.98.1-9.25Zm-42.05-3.81c-1.39.44-3.06.66-5.02.7-5.32.08-10.64.06-15.96.05-4.44-.02-8.88,0-13.32.03-.17,0-.35,0-.52,0-2.8.01-5.61.02-8.41,0-.13,0-.27,0-.4,0-2.98-.02-5.96-.08-8.94-.19-2.06-.09-4.05-1.93-6.07-2.97,1.11-1.8,1.8-4.21,3.4-5.3,16.09-11.05,32.27-21.99,48.56-32.74.25-.17.48-.25.73-.39,2.46-1.05,5.74-1.53,7.4-.54,2.37,1.43,4.11,5.5,4.36,8.56.61,7.43.26,14.95.18,22.43-.06,5.81-1.81,9.04-6,10.36,0,0,0,0-.01,0Zm-141.34.75c-5.32.01-10.64.03-15.96-.05-1.96-.04-3.62-.26-5.01-.7,0,0,0,0-.01,0-4.18-1.32-5.94-4.55-6-10.36-.07-7.48-.43-15,.18-22.43.25-3.07,1.99-7.13,4.36-8.56,1.66-1,4.94-.51,7.4.54.25.14.48.23.73.39,16.3,10.75,32.47,21.69,48.56,32.74,1.6,1.09,2.29,3.5,3.4,5.3-2.02,1.04-4.01,2.88-6.07,2.97-2.98.11-5.96.16-8.94.19-.13,0-.26,0-.4,0-2.8.02-5.61.01-8.41,0-.17,0-.35,0-.52,0-4.44-.02-8.88-.04-13.31-.03Z"/>
</svg>