<?xml version="1.0" encoding="UTF-8"?>
<svg id="Calque_1" data-name="Calque 1" xmlns="http://www.w3.org/2000/svg" viewBox="0 0 367.35 358.23">
  <defs>
    <style>
      .cls-1 {
        fill: #ffffce;
      }
    </style>
  </defs>
  <path class="cls-1" d="m267.35,238.07c-7.24-10.07-16.17-18.78-26.33-25.67-14.68,19.52-34.92,33.31-57.34,33.31s-41.84-13.25-56.43-32.14c-12.31,7.7-23.01,17.99-31.1,30.55-11.77,18.26-21.44,40.53-26.64,63.89-1.11,4.99-1.91,10.03-2.49,15.1,35.63,12.26,75.11,19.09,116.66,19.09s81.08-6.83,116.72-19.11c-1.2-10.21-3.16-20.21-6.1-29.9-6.25-20.55-15.85-39.7-26.94-55.12Z"/>
  <path class="cls-1" d="m142.06,94.51c13.44,1.21,27.37,1.85,41.61,1.85s28.06-.61,41.55-1.82c.03,0,.06,0,.1,0-11.27-9.46-25.78-15.17-41.64-15.17s-30.35,5.7-41.61,15.15Z"/>
  <path class="cls-1" d="m183.68,153.64c-7.48,0-34.02-.31-64.56-4.2,1.4,18.87,10.04,40.44,23.05,56.41,11.24,13.8,25.71,23.41,41.51,23.41s31.34-10.4,42.76-25.06c12.3-15.8,20.45-36.52,21.8-54.77-2.62.33-5.26.66-7.91.95-27.35,3.02-50.28,3.25-56.65,3.25Z"/>
  <path class="cls-1" d="m183.68,16.04c-17.24,0-168.48,1.78-168.48,63.32,0,28.57,32.61,44.25,69.27,52.86,5.6,1.32,11.3,2.47,16.99,3.48.47.08.93.13,1.4.21,2.74.47,5.44.83,8.15,1.24,2.72.41,5.47.89,8.15,1.24.03,0,.07.01.1.02,30.57,3.98,57.69,4.27,64.42,4.27,6.06,0,28.68-.23,55.45-3.19,2.95-.32,6.04-.79,9.07-1.19,2.73-.36,5.39-.65,8.17-1.07.22-.03.42-.05.64-.08,2.49-.38,5-.89,7.5-1.32,3.19-.55,6.36-1.03,9.54-1.68,40.09-8.12,78.11-23.94,78.11-54.8,0-61.54-151.24-63.32-168.49-63.32Zm136.1,63.32c-6.4,7.14-29.8,16.87-66.7,22.77-1.1.18-2.17.36-3.29.53-1.78.27-3.69.5-5.54.75-3.04.41-6.15.8-9.35,1.15-2.86.32-5.71.64-8.69.9-13.03,1.17-27.21,1.86-42.53,1.86-18.68,0-35.71-1.02-50.96-2.69-.1-.01-.18-.02-.28-.03-3.21-.36-6.28-.76-9.33-1.17-3.03-.41-5.94-.85-8.81-1.3-1.67-.26-3.42-.51-5.04-.79-32.07-5.61-53.01-14.1-60.44-20.76,0,0-.05,0-.05,0,0,0-18.47-15.29,7.14-25.74,0,0-16.03,11.86-3.1,20.39,16.79-10.61,63.09-23.82,130.87-23.82s113.9,13.15,130.78,23.75c12.76-8.53-3.18-20.33-3.18-20.33,21.27,8.68,12.15,20.67,8.44,24.49.01.02.03.03.05.05Z"/>
</svg>