<?xml version="1.0" encoding="utf-8"?>
<!-- Generator: Adobe Illustrator 27.5.0, SVG Export Plug-In . SVG Version: 6.00 Build 0)  -->
<svg version="1.1" id="Calque_1" xmlns="http://www.w3.org/2000/svg" xmlns:xlink="http://www.w3.org/1999/xlink" x="0px" y="0px"
	 viewBox="0 0 150 150" style="enable-background:new 0 0 150 150;" xml:space="preserve">
<style type="text/css">
	.st0{enable-background:new    ;}
	.st1{fill:#153817;}
	.st2{fill:#37913B;}
	.st3{fill:#53DE5D;}
	.st4{opacity:0.29;fill:url(#SVGID_1_);enable-background:new    ;}
	.st5{opacity:0.85;}
	.st6{fill:#305430;}
	.st7{fill:#4C874C;}
	.st8{fill:#6AC46C;}
	.st9{opacity:0.7;}
	.st10{fill:#69B569;}
	.st11{fill:#549154;}
	.st12{fill:#8FF993;}
	.st13{opacity:0.24;fill:url(#SVGID_00000086656608185730482200000017525895799078081686_);enable-background:new    ;}
	.st14{opacity:0.29;fill:url(#SVGID_00000133499865706763205440000001441594338019457982_);enable-background:new    ;}
	.st15{opacity:0.24;fill:url(#SVGID_00000026125779725168075630000010943628187911210920_);enable-background:new    ;}
</style>
<g>
	<g class="st0">
		<g>
			<polygon class="st1" points="120.5,84.4 120.5,87.4 75,70.6 75,67.5 			"/>
		</g>
		<g>
			<polygon class="st2" points="75,67.5 75,70.6 29.5,87.4 29.5,84.4 			"/>
		</g>
		<g>
			<polygon class="st1" points="75,143.9 75,146.9 17.5,125.6 17.5,122.5 			"/>
		</g>
		<g>
			<polygon class="st2" points="132.5,122.5 132.5,125.6 75,146.9 75,143.9 			"/>
		</g>
		<g>
			<path class="st3" d="M75,58.6l57.5,21.3v42.6L75,143.9l-57.5-21.3V79.9L75,58.6z M120.5,118.1V84.4L75,67.5L29.5,84.4v33.7
				L75,134.9L120.5,118.1"/>
		</g>
	</g>
</g>
<linearGradient id="SVGID_1_" gradientUnits="userSpaceOnUse" x1="75" y1="17.1" x2="75" y2="134.9" gradientTransform="matrix(1 0 0 -1 0 152)">
	<stop  offset="4.155676e-07" style="stop-color:#53DE5D"/>
	<stop  offset="1" style="stop-color:#53DE5D;stop-opacity:0"/>
</linearGradient>
<polygon class="st4" points="29.5,118.1 29.5,17.1 120.5,17.1 120.5,118.1 75.7,134.9 "/>
<g class="st5">
	<g class="st0">
		<g>
			<polygon class="st6" points="107.1,71.8 107.1,73.9 75,62 75,59.8 			"/>
		</g>
		<g>
			<polygon class="st7" points="75,59.8 75,62 42.9,73.9 42.9,71.8 			"/>
		</g>
		<g>
			<polygon class="st6" points="75,113.8 75,115.9 34.4,100.9 34.4,98.7 			"/>
		</g>
		<g>
			<polygon class="st7" points="115.6,98.7 115.6,100.9 75,115.9 75,113.8 			"/>
		</g>
		<g>
			<path class="st8" d="M75,53.5l40.6,15.1v30.1L75,113.8L34.4,98.7V68.6L75,53.5z M107.1,95.6V71.8L75,59.8l-32.1,12v23.8L75,107.5
				L107.1,95.6"/>
		</g>
	</g>
</g>
<g class="st9">
	<g class="st0">
		<g>
			<polygon class="st10" points="101.1,54.4 101.1,56.2 75,46.5 75,44.8 			"/>
		</g>
		<g>
			<polygon class="st11" points="75,44.8 75,46.5 48.9,56.2 48.9,54.4 			"/>
		</g>
		<g>
			<polygon class="st10" points="75,88.5 75,90.2 42.1,78 42.1,76.3 			"/>
		</g>
		<g>
			<polygon class="st11" points="107.9,76.3 107.9,78 75,90.2 75,88.5 			"/>
		</g>
		<g>
			<path class="st12" d="M75,39.7l32.9,12.2v24.4L75,88.5L42.1,76.3V51.9L75,39.7z M101.1,73.7V54.4L75,44.8l-26.1,9.7v19.3L75,83.4
				L101.1,73.7"/>
		</g>
	</g>
</g>
<linearGradient id="SVGID_00000064355518800458715590000013802913647695561405_" gradientUnits="userSpaceOnUse" x1="75" y1="68.6" x2="75" y2="148.9" gradientTransform="matrix(1 0 0 -1 0 152)">
	<stop  offset="0" style="stop-color:#53DE5D"/>
	<stop  offset="1" style="stop-color:#53DE5D;stop-opacity:0"/>
</linearGradient>
<polygon style="opacity:0.24;fill:url(#SVGID_00000064355518800458715590000013802913647695561405_);enable-background:new    ;" points="
	48.9,73.7 48.9,3.1 100.3,3.1 101.1,73.7 75,83.4 "/>
<image style="overflow:visible;" width="501" height="438" xlink:href="491FC61D.jpg"  transform="matrix(1 0 0 1 -1008.0319 -244.8936)">
</image>
<g>
	<g>
		<g class="st0">
			<g>
				<polygon class="st1" points="-588.1,99.2 -588.1,99.7 -595.4,97 -595.4,96.5 				"/>
			</g>
			<g>
				<polygon class="st2" points="-595.4,96.5 -595.4,97 -602.7,99.7 -602.7,99.2 				"/>
			</g>
			<g>
				<polygon class="st1" points="-595.4,108.8 -595.4,109.3 -604.6,105.8 -604.6,105.3 				"/>
			</g>
			<g>
				<polygon class="st2" points="-586.2,105.3 -586.2,105.8 -595.4,109.3 -595.4,108.8 				"/>
			</g>
			<g>
				<path class="st3" d="M-595.4,95.1l9.2,3.4v6.8l-9.2,3.4l-9.2-3.4v-6.9L-595.4,95.1z M-588.1,104.6v-5.4l-7.3-2.7l-7.3,2.7v5.4
					l7.3,2.7L-588.1,104.6"/>
			</g>
		</g>
	</g>
	
		<linearGradient id="SVGID_00000057130788740184621690000014542477693678988988_" gradientUnits="userSpaceOnUse" x1="-595.3954" y1="44.6631" x2="-595.3954" y2="63.6011" gradientTransform="matrix(1 0 0 -1 0 152)">
		<stop  offset="4.155676e-07" style="stop-color:#53DE5D"/>
		<stop  offset="1" style="stop-color:#53DE5D;stop-opacity:0"/>
	</linearGradient>
	
		<polygon style="opacity:0.29;fill:url(#SVGID_00000057130788740184621690000014542477693678988988_);enable-background:new    ;" points="
		-602.7,104.6 -602.7,88.4 -588.1,88.4 -588.1,104.6 -595.3,107.3 	"/>
	<g>
		<g class="st0">
			<g>
				<polygon class="st6" points="-590.2,97.2 -590.2,97.5 -595.4,95.6 -595.4,95.3 				"/>
			</g>
			<g>
				<polygon class="st7" points="-595.4,95.3 -595.4,95.6 -600.6,97.5 -600.6,97.2 				"/>
			</g>
			<g>
				<polygon class="st6" points="-595.4,103.9 -595.4,104.3 -601.9,101.9 -601.9,101.5 				"/>
			</g>
			<g>
				<polygon class="st7" points="-588.9,101.5 -588.9,101.9 -595.4,104.3 -595.4,103.9 				"/>
			</g>
			<g>
				<path class="st8" d="M-595.4,94.3l6.5,2.4v4.8l-6.5,2.4l-6.5-2.4v-4.8L-595.4,94.3z M-590.2,101v-3.8l-5.2-1.9l-5.2,1.9v3.8
					l5.2,1.9L-590.2,101"/>
			</g>
		</g>
	</g>
	<g>
		<g class="st0">
			<g>
				<polygon class="st10" points="-591.2,94.4 -591.2,94.7 -595.4,93.1 -595.4,92.9 				"/>
			</g>
			<g>
				<polygon class="st11" points="-595.4,92.9 -595.4,93.1 -599.6,94.7 -599.6,94.4 				"/>
			</g>
			<g>
				<polygon class="st10" points="-595.4,99.9 -595.4,100.2 -600.7,98.2 -600.7,97.9 				"/>
			</g>
			<g>
				<polygon class="st11" points="-590.1,97.9 -590.1,98.2 -595.4,100.2 -595.4,99.9 				"/>
			</g>
			<g>
				<path class="st12" d="M-595.4,92l5.3,2v3.9l-5.3,2l-5.3-2V94L-595.4,92z M-591.2,97.5v-3.1l-4.2-1.5l-4.2,1.6v3.1l4.2,1.5
					L-591.2,97.5"/>
			</g>
		</g>
	</g>
	
		<linearGradient id="SVGID_00000044170859632728728500000010930957225719197103_" gradientUnits="userSpaceOnUse" x1="-595.3954" y1="52.9424" x2="-595.3954" y2="65.8518" gradientTransform="matrix(1 0 0 -1 0 152)">
		<stop  offset="0" style="stop-color:#53DE5D"/>
		<stop  offset="1" style="stop-color:#53DE5D;stop-opacity:0"/>
	</linearGradient>
	
		<polygon style="opacity:0.24;fill:url(#SVGID_00000044170859632728728500000010930957225719197103_);enable-background:new    ;" points="
		-599.6,97.5 -599.6,86.1 -591.3,86.1 -591.2,97.5 -595.4,99.1 	"/>
</g>
</svg>
