<?xml version="1.0" encoding="UTF-8"?>
<svg id="Calque_2" data-name="Calque 2" xmlns="http://www.w3.org/2000/svg" viewBox="0 0 367.35 358.23">
  <defs>
    <style>
      .cls-1 {
        fill: #00b000;
      }

      .cls-2 {
        fill: #00d200;
      }
    </style>
  </defs>
  <path class="cls-2" d="m260.69,156.14h30.58s0-30.58,0-30.58c0-2.23,1.81-4.03,4.03-4.03h26.37c2.23,0,4.03,1.81,4.03,4.03v30.58s30.58,0,30.58,0c2.23,0,4.03,1.81,4.03,4.03v26.37c0,2.23-1.81,4.03-4.03,4.03h-30.58s0,30.58,0,30.58c0,2.23-1.81,4.03-4.03,4.03h-26.37c-2.23,0-4.03-1.81-4.03-4.03v-30.58s-30.58,0-30.58,0c-2.23,0-4.03-1.81-4.03-4.03v-26.37c0-2.23,1.81-4.03,4.03-4.03Z"/>
  <path class="cls-2" d="m144.94,247.59h30.58s0-30.58,0-30.58c0-2.23,1.81-4.03,4.03-4.03h26.37c2.23,0,4.03,1.81,4.03,4.03v30.58s30.58,0,30.58,0c2.23,0,4.03,1.81,4.03,4.03v26.37c0,2.23-1.81,4.03-4.03,4.03h-30.58s0,30.58,0,30.58c0,2.23-1.81,4.03-4.03,4.03h-26.37c-2.23,0-4.03-1.81-4.03-4.03v-30.58s-30.58,0-30.58,0c-2.23,0-4.03-1.81-4.03-4.03v-26.37c0-2.23,1.81-4.03,4.03-4.03Z"/>
  <path class="cls-2" d="m127.04,76.21h30.58s0-30.58,0-30.58c0-2.23,1.81-4.03,4.03-4.03h26.37c2.23,0,4.03,1.81,4.03,4.03v30.58s30.58,0,30.58,0c2.23,0,4.03,1.81,4.03,4.03v26.37c0,2.23-1.81,4.03-4.03,4.03h-30.58s0,30.58,0,30.58c0,2.23-1.81,4.03-4.03,4.03h-26.37c-2.23,0-4.03-1.81-4.03-4.03v-30.58s-30.58,0-30.58,0c-2.23,0-4.03-1.81-4.03-4.03v-26.37c0-2.23,1.81-4.03,4.03-4.03Z"/>
  <rect class="cls-1" x="7.03" y="93.43" width="34.27" height="11.51" rx="4.63" ry="4.63"/>
  <rect class="cls-1" x="51.46" y="93.43" width="34.27" height="11.51" rx="4.63" ry="4.63"/>
  <rect class="cls-1" x="191.73" y="173.36" width="34.27" height="11.51" rx="4.63" ry="4.63"/>
  <rect class="cls-1" x="137.57" y="173.36" width="34.27" height="11.51" rx="4.63" ry="4.63"/>
  <rect class="cls-1" x="18.46" y="259.05" width="34.27" height="11.51" rx="4.63" ry="4.63"/>
  <rect class="cls-1" x="62.89" y="259.05" width="34.27" height="11.51" rx="4.63" ry="4.63"/>
  <rect class="cls-1" x="29.25" y="173.36" width="34.27" height="11.51" rx="4.63" ry="4.63"/>
  <rect class="cls-1" x="83.41" y="173.36" width="34.27" height="11.51" rx="4.63" ry="4.63"/>
</svg>