<?xml version="1.0" encoding="UTF-8"?>
<svg id="Calque_2" data-name="Calque 2" xmlns="http://www.w3.org/2000/svg" viewBox="0 0 367.35 358.23">
  <defs>
    <style>
      .cls-1 {
        fill: #c9003b;
      }

      .cls-2 {
        fill: red;
      }
    </style>
  </defs>
  <path class="cls-1" d="m235.7,170.83c11.98-5.92,24.17-11.75,36.18-17.46,4.36-11.01,6.84-22.51,7.1-33.95-9.51,8.76-20.73,12.37-33.28,11.7-12.35-.66-23.37-5.09-33.54-12.71,3.98-3.96,7.68-7.77,11.55-11.39.9-.84,2.37-1.44,3.61-1.5,3.7-.19,7.42-.07,11.16-.07.1-.81.26-1.28.2-1.71-1.33-8.9,1.71-16.67,6.14-24.11,1.14-1.92,2.05-3.98,3.05-5.99,1.34-2.71,2.67-5.43,4.3-8.76-7.91,3.95-15.22,7.45-22.38,11.24-3.17,1.68-6.32,2.54-9.89,2.3-2.66-.18-5.35-.04-8.28-.04,0,4.11.03,7.83-.02,11.55-.01.8,0,1.87-.47,2.36-4.06,4.21-8.22,8.31-12.5,12.59-7.64-10.26-12.06-21.3-12.7-33.67-.64-12.53,3.04-23.71,12.13-33.6-35.56,3.01-63.42,18.58-84.79,45.85-13.76,17.57-26,51.21-22.94,61.95,11.03-10.02,24.12-13.35,38.51-10.9,10.96,1.87,20.35,5.89,28.26,11.84l-13.38,13.36c-.11-.04-.23-.07-.33-.07-4.27-.08-8.53-.05-13.06-.05,0,3.9.17,7.45-.08,10.96-.11,1.5-.71,3.32-1.74,4.35-17.64,17.79-35.36,35.49-53.13,53.15-.98.97-2.45,1.69-3.81,1.97-4.57.94-9.21,1.55-13.78,2.48-.96.2-2.37,1.11-2.51,1.89-1.99,10.83-3.79,21.69-5.69,32.81.62.04.9.1,1.15.06,10.59-1.79,21.16-3.62,31.76-5.35,1.77-.29,1.91-1.47,2.13-2.76.78-4.51,1.45-9.04,2.37-13.51.28-1.36.93-2.88,1.89-3.84,17.79-17.9,35.64-35.74,53.55-53.52.87-.86,2.37-1.43,3.62-1.5,3.7-.2,7.41-.07,11.43-.07,0-4.12.03-7.93-.03-11.72l13.63-14.09c2.43,3.44,4.63,7.17,6.6,11.19,4.59,9.36,6.46,19.21,5.3,29.35.24-.16.49-.32.73-.48,18.18-11.97,35.19-21.82,51.99-30.11Z"/>
  <path class="cls-2" d="m317.49,143.19c-.43,0-.76.13-1.08.27-8.9,4.06-17.86,8.03-26.7,12.22-8.18,3.88-16.36,7.76-24.53,11.66-8.41,4.03-16.81,8.08-25.17,12.21-17.63,8.7-34.52,18.7-50.94,29.51-3.33,2.19-6.65,4.4-9.96,6.61-20.07,13.43-39.84,27.29-59.19,41.75-3.16,2.36-6.19,4.88-9.29,7.33.07.11.14.23.21.34,2.99-1.38,6-2.71,8.96-4.15,17.12-8.32,34.21-16.69,51.34-24.99,3.23-1.56,6.53-2.99,9.85-4.32.55-.22.99-.34,1.34-.34.79,0,1.15.59,1.38,1.91.32,1.87.57,3.77.63,5.67.3,9.43-.58,18.81-1.38,28.19-.51,5.9-.71,11.83-.82,17.75-.05,2.51.64,4.96,2.44,6.93,1.05,1.15,2.4,1.72,3.71,1.72,1.57,0,3.09-.82,4.01-2.45.78-1.38,1.46-3.05,1.46-4.6.02-5.43,0-10.88-.49-16.28-1.03-11.34-1.93-22.67-1.07-34.06.31-4.17,1.04-8.31,4.57-11.15,2.02-1.63,4.17-3.18,6.47-4.36.04-.02.08-.04.12-.06.79-.29,1.58-.59,2.36-.91.53-.13,1.04-.22,1.5-.22,2.4,0,3.92,1.78,4.57,5.4.64,3.52.98,7.13.97,10.71-.02,8.54-.21,17.09-.56,25.62-.42,10.44-1.13,20.86-1.61,31.3-.26,5.7-.55,11.42-.3,17.11.12,2.84,1,5.83,2.26,8.39.9,1.82,2.4,2.7,3.93,2.7,1.63,0,3.29-.99,4.3-2.91.5-.95,1.02-2.01,1.09-3.05.31-4.65.8-9.33.61-13.97-.47-11.68-1.45-23.35-1.9-35.04-.55-14.46-.96-28.93.62-43.38.94-8.65,6.26-15.12,14.69-17.4.6-.16,1.14-.24,1.63-.24,1.63,0,2.65.93,3.1,2.98.48,2.22.95,4.52.88,6.77-.38,11.58-.92,23.16-1.44,34.73-.22,4.89-.72,9.77-.69,14.66.01,2.32.73,4.71,1.52,6.94.66,1.84,2.12,2.91,4.18,2.91.14,0,.29,0,.44-.01,2.14-.15,3.27-1.51,3.83-3.27.62-1.95,1.28-4.02,1.25-6.03-.09-6.9-.44-13.79-.75-20.68-.49-10.71-1.17-21.4-.53-32.14.5-8.34,3.26-15.49,9.22-21.5,6.15-6.2,12.71-11.91,19.67-17.15,12.74-9.59,25.55-19.08,38.33-28.62.43-.32.83-.67,1.24-1.01-.1-.01-.19-.02-.28-.02Z"/>
</svg>