<?xml version="1.0" encoding="UTF-8"?>
<svg id="Calque_2" data-name="Calque 2" xmlns="http://www.w3.org/2000/svg" viewBox="0 0 367.35 358.23">
  <defs>
    <style>
      .cls-1 {
        fill: #9c4545;
      }
    </style>
  </defs>
  <path class="cls-1" d="m155.39,266.66c-3.47-1.14-6.99-2.12-10.52-3.06-11.57-3.06-23.15-6.07-34.72-9.11-.51-.13-1-.36-2.11-.75,7.63-6.97,41.95-38.01,49.21-44.64-2.98-3.36-6.69-7.56-11.27-12.73-5.27,4.81-37.77,34.19-43.51,39.44-1.4,1.28-2.8,2.55-4.63,4.23-.25-1.5-.46-2.51-.59-3.54-1.53-12.23-3.02-24.46-4.61-36.68-.35-2.65-.49-5.51-3.35-7.51-.46.83-.9,1.56-1.29,2.31-17.8,34.84-35.56,69.7-53.4,104.53-3.63,7.09-7.53,14.05-11.22,21.11-.38.73-.18,1.76-.25,2.66.82-.11,1.7-.06,2.44-.36,4.1-1.68,8.13-3.55,12.26-5.18,37.16-14.69,74.34-29.33,111.5-44.04,2.33-.92,4.65-2.04,6.7-3.45,1.86-1.28,1.58-2.5-.62-3.22Zm-116.74,45.3l61.21-51.29,37.19,8.68-98.4,42.61Z"/>
  <path class="cls-1" d="m340.26,93.72c-11.04-1.91-22.09-3.79-33.17-5.43-5.5-.81-11.06-1.22-16.6-1.55-1.33-.08-3.04.51-4.03,1.4-16.88,15.23-34.45,29.58-53.78,41.65-.53.33-1.07.67-1.63.97-.13.07-.33,0-.69,0,10.68-10.57,21.25-21.06,31.87-31.5,5.03-4.95,10.19-9.76,15.21-14.71.68-.67,1.26-1.83,1.24-2.76-.33-13.03-6.61-33.42-7.03-46.45-.01-.42-30.66,39.87-47.71,56.2-.6.57-1.04,1.46-1.22,2.29-2.55,12.09-5.06,24.2-7.51,36.31-.42,2.1-1.16,3.66-2.96,5.11-3,2.42-10.58,9.39-16.27,14.64,3.61,4.38,7.24,8.77,10.85,13.16,5.18-4.76,10.33-9.51,15.41-14.2,2.88-2.66,5.45-3.55,9.16-3.45,15.66.4,31.32.43,46.97.87,4.01.11,5.81-2.68,8.99-4.71-6.92-3-13.32-5.76-19.71-8.53.07-.21.13-.42.2-.63,7.65,1.05,15.31,1.97,22.93,3.23,2.6.43,4.41-.06,6.37-1.77,4.28-3.75,8.83-7.19,13.25-10.78.76-.61,1.45-1.31,2.53-2.3-3.74-1.38-7.1-2.63-10.46-3.87.02-.22.03-.43.05-.65,4.83-.25,9.66-.6,14.5-.69,2.23-.04,3.94-.72,5.64-2.12,6.06-5.01,12.26-9.87,18.38-14.8.97-.78,1.85-1.67,3.19-2.9-1.51-.79-2.68-1.78-3.97-2.01Z"/>
  <path class="cls-1" d="m203.85,179.36c-3.61-4.38-7.24-8.77-10.85-13.16-33.83-41.01-66.96-81.15-83.67-101.37-7.8-9.45-20.19-11.24-28.8-4.16-4.22,3.47-6.6,7.98-6.88,13.05-.29,5.27,1.77,10.89,5.81,15.8,13.05,15.86,26.13,31.7,39.2,47.55l22.81,27.65,8.94,10.84c4.24,5.14,8.93,10.83,13.9,16.85,3.5,4.24,7.13,8.64,10.85,13.16,2.68,3.25,5.4,6.55,8.15,9.89,30.01,36.39,62.98,76.36,72.75,88.22,7.95,9.65,20.05,11.55,28.76,4.53,4.14-3.33,6.59-7.66,7.08-12.5.56-5.44-1.43-11.23-5.6-16.29-16.25-19.75-48.87-59.33-82.46-100.04Z"/>
</svg>