<?xml version="1.0" encoding="UTF-8"?>
<svg id="Calque_2" data-name="Calque 2" xmlns="http://www.w3.org/2000/svg" viewBox="0 0 367.35 358.23">
  <defs>
    <style>
      .cls-1 {
        fill: #fff;
      }
    </style>
  </defs>
  <g>
    <polygon class="cls-1" points="237.03 172.7 269.34 172.7 190.09 74.07 190.09 114.28 237.03 172.7"/>
    <polygon class="cls-1" points="190.09 243.96 190.09 284.16 269.34 185.53 237.03 185.53 190.09 243.96"/>
    <polygon class="cls-1" points="177.26 114.28 177.26 74.07 98.02 172.7 130.32 172.7 177.26 114.28"/>
    <polygon class="cls-1" points="130.32 185.53 98.02 185.53 177.26 284.16 177.26 243.96 130.32 185.53"/>
    <polygon class="cls-1" points="141.62 179.12 183.68 231.46 225.73 179.12 183.68 126.78 141.62 179.12"/>
  </g>
  <path class="cls-1" d="m183.68,36.51l114.58,142.6-114.58,142.6-114.58-142.6L183.68,36.51m0-22.4l-10.94,13.61L58.16,170.33l-7.06,8.79,7.06,8.79,114.58,142.6,10.94,13.61,10.94-13.61,114.58-142.6,7.06-8.79-7.06-8.79L194.61,27.73l-10.94-13.61h0Z"/>
</svg>