<?xml version="1.0" encoding="utf-8"?>
<!-- Generator: Adobe Illustrator 27.5.0, SVG Export Plug-In . SVG Version: 6.00 Build 0)  -->
<svg version="1.1" id="Calque_1" xmlns="http://www.w3.org/2000/svg" xmlns:xlink="http://www.w3.org/1999/xlink" x="0px" y="0px"
	 viewBox="0 0 150 150" style="enable-background:new 0 0 150 150;" xml:space="preserve">
<style type="text/css">
	.st0{fill:#2646BC;}
</style>
<path class="st0" d="M103.9,124l2.1-0.6c38.8-9.9,43-27.9,42.9-35.5c0-0.8-1.1-1-1.4-0.2c-5.3,14.8-21.9,23.1-34.3,27.4
	c-0.9,0.3-1.3-0.9-0.5-1.3c40.2-18.2,35.6-48.9,31.9-61.1c-0.2-0.8-1.4-0.6-1.4,0.2c1.1,28.2-26.9,49-41.4,57.8
	c-0.8,0.5-1.5-0.6-0.8-1.2c57-46.4,31-90,23.3-100.5c-0.4-0.6-1.4-0.2-1.3,0.6c2.7,14.1,2.7,26.7,0.9,38
	c-1.6,7.3-7.7,23.1-30.8,37.7C71.2,99.1,77,118.7,77,118.7c0.5,5.5-0.5,9.7-1.9,12.8c-1.4-3.1-2.5-7.3-1.9-12.8
	c0,0,5.8-19.6-16.1-33.4C33.8,70.7,27.7,55,26.1,47.6c-1.8-11.3-1.8-23.9,0.9-38c0.1-0.7-0.8-1.2-1.3-0.6C18,19.5-8,63.1,48.9,109.5
	c0.7,0.6-0.1,1.6-0.8,1.2C33.6,101.8,5.7,81.1,6.7,52.9c0-0.8-1.1-1-1.4-0.2c-3.7,12.2-8.2,42.9,31.9,61.1c0.8,0.4,0.3,1.6-0.5,1.3
	c-12.4-4.3-28.9-12.6-34.3-27.4C2.1,87,1,87.2,1,87.9c-0.1,7.6,4.1,25.6,42.9,35.5L46,124c0.8,0.2,0.6,1.4-0.2,1.4
	c-6,0.1-18.7-1.3-35.6-11.8c-0.6-0.4-1.3,0.2-1,0.9c2.4,5.8,11.8,22.2,42.1,18.9c0.6-0.1,1,0.6,0.7,1.1c-1,1.3-2.9,3.5-6.4,4.8
	c-0.7,0.3-0.5,1.4,0.3,1.4c4,0,9.5-0.8,12.7-3.9c0.5-0.5,1.2-0.1,1.2,0.5c0,0.9-0.1,2.1-0.3,3.1c-0.1,0.7,0.7,1.1,1.2,0.6
	c0.7-0.7,1.5-1.7,2.1-2.7c0.3-0.6,1.1-0.5,1.3,0.1c0.1,0.4,0.2,0.8,0.2,1.2c0,0.6,0.8,0.8,1.2,0.4c1.3-1.2,3-3,3.3-4.9
	c0.1-0.5,0.6-0.7,1.1-0.5c0.5,0.3,1.1,0.7,1.8,1.3c0,0.1,0,0.2,0,0.3c0.3,1.3,1.3,2.3,2.6,2.6c0.3,0.1,0.5,0.1,0.8,0.1
	c0.2,0,0.4,0,0.6-0.1c1.3-0.2,2.4-1.2,2.8-2.5c0.1-0.2,0.1-0.4,0.1-0.6c0.6-0.5,1.2-0.9,1.7-1.2c0.4-0.2,1,0,1.1,0.5
	c0.4,1.8,2.1,3.7,3.3,4.9c0.4,0.4,1.2,0.1,1.2-0.4c0-0.4,0.1-0.8,0.2-1.2c0.2-0.6,1-0.7,1.3-0.1c0.6,1,1.3,1.9,2.1,2.7
	c0.5,0.5,1.3,0,1.2-0.6c-0.2-1.1-0.3-2.2-0.3-3.1c0-0.6,0.8-1,1.2-0.5c3.3,3.2,8.7,3.9,12.7,3.9c0.8,0,1-1.1,0.3-1.4
	c-3.5-1.3-5.5-3.4-6.4-4.8c-0.4-0.5,0-1.2,0.7-1.1c30.3,3.2,39.7-13.2,42.1-18.9c0.3-0.6-0.5-1.2-1-0.9
	c-17,10.5-29.6,11.9-35.6,11.8C103.2,125.4,103.1,124.2,103.9,124z"/>
</svg>
