<?xml version="1.0" encoding="utf-8"?>
<!-- Generator: Adobe Illustrator 27.5.0, SVG Export Plug-In . SVG Version: 6.00 Build 0)  -->
<svg version="1.1" id="Calque_1" xmlns="http://www.w3.org/2000/svg" xmlns:xlink="http://www.w3.org/1999/xlink" x="0px" y="0px"
	 viewBox="0 0 150 150" style="enable-background:new 0 0 150 150;" xml:space="preserve">
<style type="text/css">
	.st0{fill:#B50000;}
</style>
<g>
	<g>
		<path class="st0" d="M97.3,32.3c2.7,2.9,2.7,6.5,1.9,10.3c3.7-1.3,7.3-1.7,10.5,0.5s4.9,5.3,4.5,9.4c3.1-0.7,5-2.7,6.1-5.4
			c0.3-0.7,0-1.1-0.8-1.2c-2.2-0.2-4-1.4-5.4-2.9c-1.4-1.4-2.7-2.9-3.9-4.4c-2-2.4-4.1-4.6-6.8-6.3c-1.2-0.8-2.4-1.4-3.6-2.2
			c-2.9-1.9-6-3.7-6.9-7.5c-0.2-0.7-0.8-0.6-1.2-0.3c-2.5,1.6-4.2,3.7-4.4,6.9C91.5,28.1,94.7,29.5,97.3,32.3z"/>
		<path class="st0" d="M127.7,8.7c0.1-0.4,0.2-0.5,0.2-0.7c0,1.5,1,1.4,1.9,1.3c0.9-0.3,1.8-0.5,2.7-0.8c0.7-0.5,1-1.1,1.1-1.7
			c0-0.2,0-0.4,0-0.6c-0.1-0.5-0.4-1-0.9-1.6c-1.1-1.2-3.2-1.4-3.9-0.6c-0.5-0.1-0.8-0.4-1.2-0.3c-0.7,0.1-1.3,0.4-1.9,0.7
			c0,0-0.1,0.2,0,0.3C126.1,6.2,126.7,7.5,127.7,8.7z"/>
		<path class="st0" d="M132.6,8.5L132.6,8.5c0.7-0.5,1-1.1,1.1-1.7C133.6,7.4,133.2,8,132.6,8.5z"/>
		<path class="st0" d="M112.7,31.9c0.2-0.2,0.3-0.9,0.1-1c-1.3-1.2-2.6-2.3-4-3.3c-0.2-0.1-0.7,0-0.9,0.1c-0.7,0.7-1.3,1.5-1.9,2.3
			c1.7,1.4,3.2,2.7,4.9,4.1C111.5,33.4,112.2,32.7,112.7,31.9z"/>
		<path class="st0" d="M118.1,25.3c-1.5-1.3-2.9-2.4-4.3-3.5c-0.9,1-1.7,1.8-2.5,2.5c1.6,1.2,3.1,2.4,4.7,3.6
			C116.8,27.1,117.4,26.2,118.1,25.3z"/>
		<path class="st0" d="M120.7,22.4c-1.4-1.3-2.8-2.6-4.3-3.9c-0.9,1-1.6,1.9-2.3,2.8c1.5,1.2,2.9,2.4,4.3,3.6
			C119.2,24.1,119.9,23.4,120.7,22.4z"/>
		<path class="st0" d="M122.5,19.9c0.2-0.2,0.2-0.8,0-1c-1-0.9-2.1-1.8-3.2-2.7c-0.2-0.1-0.6-0.1-0.8,0.1c-0.7,0.6-1.4,1.3-1.9,1.8
			c1.6,1.3,2.9,2.4,4.4,3.6C121.4,21.3,122,20.7,122.5,19.9z"/>
		<path class="st0" d="M115.6,28.4c-0.8-0.7-1.4-1.5-2.2-2.1c-2-1.7-2.5-1.6-4.3,0.4c-0.1,0.1-0.2,0.3-0.3,0.4
			c1.6,1.2,3.1,2.3,4.7,3.5C114.3,29.8,114.9,29.1,115.6,28.4z"/>
		<path class="st0" d="M125.4,16.6c-1.2-1-2.3-1.9-3.4-2.8c-0.3-0.2-1-0.2-1.2,0c-0.6,0.5-1.1,1.2-1.5,1.7c1.4,1.2,2.7,2.3,4,3.4
			C124,18.2,124.6,17.5,125.4,16.6z"/>
		<path class="st0" d="M127.5,9.2c-1.7-1.3-1.7-1.3-3.1,0.4c-0.2,0.3-0.5,0.6-0.7,0.8c1.3,1.1,2.6,2.2,3.9,3.3
			C130.1,11.2,130.1,11.1,127.5,9.2z"/>
		<path class="st0" d="M127.6,14.2c-1.4-1.4-2.6-2.5-3.8-3.7c-1,1.1-1.6,1.8-2.1,2.5c1.3,1.1,2.6,2.2,3.9,3.3
			C126.2,15.7,126.8,15,127.6,14.2z"/>
		<path class="st0" d="M109.1,36.1c0.5-0.5,1-1,1.6-1.6c-1.8-1.5-3.4-2.9-5.2-4.4c-0.5,0.7-0.9,1.2-1.3,1.6c0.1-0.1,0.3-0.1,0.4-0.2
			C106.1,33.1,107.6,34.6,109.1,36.1z"/>
		<path class="st0" d="M132.6,8.5c-0.9,0.3-1.8,0.5-2.7,0.8c-0.2,0.2-0.4,0.4-0.8,0.6c0.8,0.3,1.5,0.7,2.2,0.9
			c2.3,0.6,2.8,0.9,2.7-2.3c0-0.1-0.1-0.1-0.2-0.2c-0.1,0-0.2,0-0.3,0.1c-0.1,0-0.2,0-0.3,0.1C132.9,8.5,132.7,8.5,132.6,8.5
			L132.6,8.5z"/>
		<path class="st0" d="M132.6,8.5c0.2,0,0.3-0.1,0.5-0.1C132.9,8.5,132.7,8.5,132.6,8.5L132.6,8.5L132.6,8.5z"/>
		<path class="st0" d="M79.9,65.3L79.9,65.3L79.9,65.3L79.9,65.3z"/>
		<path class="st0" d="M79.9,65.3L79.9,65.3L79.9,65.3L79.9,65.3z"/>
		<path class="st0" d="M79.9,65.3L79.9,65.3L79.9,65.3L79.9,65.3z"/>
		<path class="st0" d="M10.9,145l1.8-1c7-5.5,13.5-11.5,19.6-17.9c7.7-8.3,15.2-16.8,22.7-25.2c5.3-6,10.5-12,15.7-18.1L74,79l1-1.2
			l3.2-3.7c8.9-10.3,17.9-20.6,26.8-30.9c0.2-0.3,0.4-0.5,0.9-1.1c-1.3,0.1-2.3,0.1-3.2,0.2c-2,0.2-3.8,0.8-5,2.5
			C96.9,46,95.8,47,94.9,48c-5,5.7-10,11.5-15,17.2l0,0l0,0l-3,3.1L74.6,71l-2.4,2.8l-4,4.6l-0.6,0.7L65.1,82
			c-12.8,14.6-25.6,29.2-38.3,43.8L15.5,139l11.1-13.4C39.3,111,52.1,96.4,64.8,81.7l2.3-2.6l2.5-2.9l3-3.5l1.6-1.8l2.5-2.9l2.1-2.4
			l0,0l0,0c6.3-7.2,12.5-14.3,18.8-21.5c1.6-1.9,2.1-6.1,0.7-8.8c-0.3,0.5-0.4,1-0.7,1.3c-3.4,3.9-6.8,7.9-10.2,11.8
			c-5,5.7-10,11.4-15,17.1l0,0L67.6,71l-1,1.1L59,80.9l0,0c-5.1,5.8-10.1,11.6-15.2,17.5c-5.8,6.7-11.5,13.4-17.1,20.3
			c-6.1,7.5-11.6,15.5-16.4,23.9l0,0l-0.8,2L9,145.8L10.9,145z"/>
	</g>
	<path class="st0" d="M39.4,38.6c-1.2,1.5-2.6,3-3.9,4.4c-1.5,1.6-3.2,2.7-5.4,2.9c-0.8,0.1-1.1,0.5-0.8,1.2c1.1,2.7,3,4.6,6.1,5.4
		c-0.4-4.1,1.3-7.2,4.5-9.4c3.3-2.2,6.8-1.8,10.5-0.5c-0.8-3.8-0.7-7.4,1.9-10.3c2.6-2.8,5.8-4.2,9.9-3.2c-0.3-3.2-1.9-5.3-4.4-6.9
		c-0.5-0.3-1.1-0.4-1.2,0.3c-0.9,3.8-4,5.6-6.9,7.5c-1.1,0.8-2.4,1.4-3.6,2.2C43.5,34,41.3,36.1,39.4,38.6z"/>
	<path class="st0" d="M17,8.5c0.9,0.3,1.8,0.5,2.7,0.8c1,0.1,1.9,0.2,1.9-1.3c0.1,0.2,0.1,0.3,0.2,0.7c1-1.2,1.6-2.5,2-4
		c0-0.1,0-0.3,0-0.3c-0.6-0.3-1.3-0.6-1.9-0.7c-0.3-0.1-0.7,0.2-1.2,0.3c-0.7-0.8-2.8-0.6-3.9,0.6c-0.5,0.5-0.8,1.1-0.9,1.6
		c0,0.2-0.1,0.4,0,0.6c0,0.3,0.1,0.6,0.3,0.9C16.4,8,16.7,8.3,17,8.5z"/>
	<path class="st0" d="M36.9,31.9c0.5,0.8,1.2,1.5,1.8,2.2c1.7-1.4,3.2-2.7,4.9-4.1c-0.6-0.7-1.2-1.5-1.9-2.3
		c-0.2-0.2-0.7-0.3-0.9-0.1c-1.4,1.1-2.7,2.2-4,3.3C36.6,31.1,36.7,31.7,36.9,31.9z"/>
	<path class="st0" d="M33.5,27.9c1.6-1.2,3.1-2.4,4.7-3.6c-0.7-0.8-1.5-1.6-2.5-2.5c-1.3,1.1-2.8,2.3-4.3,3.5
		C32.2,26.2,32.9,27.1,33.5,27.9z"/>
	<path class="st0" d="M31.1,24.9c1.4-1.2,2.8-2.4,4.3-3.6c-0.7-0.8-1.4-1.7-2.3-2.8c-1.5,1.3-2.8,2.6-4.3,3.9
		C29.7,23.4,30.4,24.1,31.1,24.9z"/>
	<path class="st0" d="M27.1,18.9c-0.2,0.2-0.1,0.8,0,1c0.5,0.7,1.1,1.4,1.5,1.8c1.5-1.2,2.8-2.3,4.4-3.6c-0.5-0.5-1.2-1.2-1.9-1.8
		c-0.2-0.1-0.6-0.2-0.8-0.1C29.1,17.1,28.1,18,27.1,18.9z"/>
	<path class="st0" d="M34,28.4c0.7,0.8,1.4,1.5,2,2.2c1.6-1.2,3.1-2.3,4.7-3.5c-0.1-0.1-0.2-0.2-0.3-0.4c-1.7-2-2.2-2.1-4.3-0.4
		C35.4,26.9,34.7,27.6,34,28.4z"/>
	<path class="st0" d="M24.2,16.6c0.8,0.9,1.5,1.7,2.1,2.4c1.3-1.1,2.6-2.2,4-3.4c-0.4-0.5-0.9-1.2-1.5-1.7c-0.3-0.2-0.9-0.2-1.2,0
		C26.4,14.6,25.4,15.6,24.2,16.6z"/>
	<path class="st0" d="M22.1,9.2c-2.5,1.9-2.5,2-0.1,4.5c1.3-1.1,2.5-2.2,3.9-3.3c-0.2-0.2-0.4-0.5-0.7-0.8
		C23.8,7.9,23.7,7.9,22.1,9.2z"/>
	<path class="st0" d="M22,14.2c0.9,0.9,1.5,1.5,2,2.1c1.4-1.1,2.6-2.2,3.9-3.3c-0.5-0.6-1.2-1.3-2.1-2.5
		C24.5,11.7,23.4,12.8,22,14.2z"/>
	<path class="st0" d="M40.5,36.1c1.5-1.5,3-3,4.5-4.5c0.1,0.1,0.3,0.1,0.4,0.2c-0.4-0.5-0.7-0.9-1.3-1.6c-1.7,1.5-3.4,2.9-5.2,4.4
		C39.5,35.2,40,35.6,40.5,36.1z"/>
	<path class="st0" d="M18.4,10.8c0.7-0.2,1.4-0.5,2.2-0.9c-0.4-0.3-0.6-0.5-0.8-0.6C18.9,9,18,8.8,17.1,8.5l0,0
		c-0.2,0-0.3-0.1-0.5-0.1c-0.1,0-0.2,0-0.3-0.1c-0.1,0-0.2,0-0.3-0.1c-0.1,0.1-0.2,0.2-0.2,0.2C15.6,11.7,16,11.4,18.4,10.8z"/>
	<path class="st0" d="M69.8,65.3C69.7,65.3,69.7,65.3,69.8,65.3L69.8,65.3L69.8,65.3z"/>
	<path class="st0" d="M80.1,76.4l2.5,2.9l2.3,2.6c12.7,14.6,25.5,29.2,38.2,43.9l11.1,13.3l-11.3-13.2
		c-12.8-14.6-25.6-29.2-38.3-43.8l-2.5-2.9l-0.6-0.7l-3-3.5l-3.1,3.6l0.2,0.2l3.3,3.9c5.3,6,10.4,12.1,15.7,18.1
		c7.5,8.5,15,16.9,22.7,25.2c6,6.5,12.6,12.4,19.6,17.9l1.8,1l2.1,1.3l-0.5-1.2l-0.8-2l0,0c-4.8-8.4-10.3-16.4-16.4-23.9
		c-5.6-6.9-11.3-13.6-17.1-20.3c-5-5.9-10.1-11.7-15.2-17.5l0,0l-7.6-8.8l-1-1.1L82,71.2l-3.2,3.7L80.1,76.4z"/>
	<path class="st0" d="M52.1,36.8c-0.3-0.3-0.4-0.8-0.7-1.3c-1.4,2.7-0.9,6.9,0.7,8.8c6.3,7.2,12.5,14.4,18.8,21.5l0,0l0,0l0.1,0.1
		l3.3-3.7c-4-4.5-7.9-9-11.9-13.6C58.9,44.7,55.5,40.8,52.1,36.8z"/>
	<path class="st0" d="M69.8,65.3L69.8,65.3L69.8,65.3c-5-5.8-10.1-11.5-15.1-17.2c-0.9-1.1-2-2.1-2.8-3.2c-1.3-1.7-3-2.3-5-2.5
		c-1-0.1-1.9-0.1-3.2-0.2c0.4,0.6,0.7,0.8,0.9,1.1C52.3,52.1,60,61,67.7,69.9l3.1-3.5L69.8,65.3z"/>
</g>
</svg>
