<?xml version="1.0" encoding="UTF-8"?>
<svg id="Calque_2" data-name="Calque 2" xmlns="http://www.w3.org/2000/svg" viewBox="0 0 367.35 358.23">
  <defs>
    <style>
      .cls-1 {
        fill: #d80743;
      }

      .cls-2 {
        fill: #eb0000;
      }
    </style>
  </defs>
  <path class="cls-1" d="m302.87,102.87c-88.71-69.02-86.28-1.09-140.84-24.11-43.37-24.2-86.71,14.83-118.43,41.5-1.57,1.35-1.73,2.93-.99,4.85,19.73,55.81,76.94,105.41,138.51,82.6,1.62-.54,3.76-.43,5.4.13,21.88,7.01,52.17,8.99,70.88-5.85,4.8-6.7,9.3-13.61,14-20.39,4.47-6.62,8.52,1.69,11.25,5.5,19.45-16.79,32.75-38.18,42.09-61.92.94-2.41.23-4-1.61-5.52-6.77-5.58-13.39-11.36-20.28-16.79Zm-48.72,71.32c-2.5,2.19-4.91,1.07-5.63-2.45-1.31-6.41-2.56-12.83-3.71-18.57-10.51-1.17-20.35-2.28-30.2-3.32-9.72,1.56-19.55,2.04-29.3.23-10.31.49-20.52,2.38-30.84-.12-10.56.3-21.22,1.45-31.73,2.58-1.23,6.08-2.39,12.29-3.82,18.45-.92,4.24-3.49,5.11-6.76,2.22-10.86-9.84-17.83-21.81-19.69-36.55-1.66-12.53,26.8-19.22,36.33-19.96,25.7-3,50.7,8.29,76.22,1.69,22.82-3.96,49.38-4.14,68.05,11.64,1.5,1.3,2.18,2.6,2,4.62-1.39,16.16-8.93,29.05-20.93,39.56Z"/>
  <path class="cls-2" d="m275.07,198.01c-11.21,17.34-22.33,33.7-28.47,52.71-1.14,3.54-1.4,7.72-.8,11.4,2.89,17.85,19.94,28.74,37.18,24.1,15.21-4.09,26.59-21.32,19.63-38.86-6.88-17.37-16.84-32.96-27.54-49.35Z"/>
</svg>