<?xml version="1.0" encoding="UTF-8"?>
<svg id="Calque_2" data-name="Calque 2" xmlns="http://www.w3.org/2000/svg" viewBox="0 0 367.35 358.23">
  <defs>
    <style>
      .cls-1 {
        fill: #b0d0ff;
      }

      .cls-2 {
        fill: #4f70b3;
      }

      .cls-3 {
        fill: #73a9ff;
      }
    </style>
  </defs>
  <path class="cls-1" d="m318.28,80.73l-9.36-3.8c-.41-.17-41.47-17.19-48.39-50.75l-2.47-11.97H109.29l-2.47,11.97c-6.92,33.57-47.98,50.59-48.35,50.74l-9.44,3.77v43.07c0,41.93,10.83,83.51,31.33,120.23,20.58,36.87,50.56,68.23,86.7,90.69,5.71,3.55,9.2,5.42,9.58,5.62l7.04,3.74,7.04-3.74c.38-.2,3.87-2.07,9.58-5.62,36.14-22.46,66.12-53.81,86.7-90.69,20.5-36.73,31.33-78.31,31.33-120.23v-32.9l-.04-10.12Zm-14.96,43.02c0,80.04-41.5,155.03-110.95,198.18-5.44,3.38-8.7,5.11-8.7,5.11,0,0-3.25-1.73-8.7-5.11-69.45-43.15-110.95-118.14-110.95-198.18v-32.9s48.79-19.47,57.48-61.64h124.32c8.69,42.18,57.48,61.64,57.48,61.64v32.9Z"/>
  <path class="cls-2" d="m121.52,29.21c-8.69,42.18-57.48,61.64-57.48,61.64v32.9c0,80.04,41.5,155.03,110.95,198.18,5.44,3.38,8.7,5.11,8.7,5.11v-17.37h0V29.21h-62.16Z"/>
  <path class="cls-3" d="m245.84,29.21h-62.16v297.84s3.25-1.73,8.7-5.11c69.45-43.15,110.95-118.14,110.95-198.18v-32.9s-48.79-19.47-57.48-61.64Z"/>
</svg>