<?xml version="1.0" encoding="UTF-8"?>
<svg id="Calque_2" data-name="Calque 2" xmlns="http://www.w3.org/2000/svg" viewBox="0 0 367.35 358.23">
  <defs>
    <style>
      .cls-1 {
        fill: #fff;
      }
    </style>
  </defs>
  <path class="cls-1" d="m145.8,229.47c5.05,24.68,16.44,48.88,37.5,70.15,21.04-21.25,32.43-45.42,37.49-70.07-18.09,1.75-32.76,1.89-37.11,1.89-4.72,0-19.61-.16-37.88-1.97Z"/>
  <path class="cls-1" d="m146.14,188.02c.09,0,.17.02.26.03,11.9,1.3,24.44,1.97,37.27,1.97,10.56,0,21.04-.46,31.15-1.36,1.94-.17,3.79-.38,5.74-.59l.61-.07c.91-.1,1.81-.21,2.72-.32-.33-7.62-1.09-15.14-2.19-22.51-.19-1.27-.39-2.53-.59-3.79-.21-1.29-.44-2.58-.67-3.86-1.7-9.37-3.91-18.42-6.4-27-.37-1.29-.75-2.57-1.14-3.84-.39-1.29-.79-2.57-1.2-3.84-10.9-34.16-25.48-59.35-28.4-64.24-2.92,4.89-17.52,30.1-28.42,64.3-.4,1.27-.8,2.55-1.2,3.84-.39,1.27-.77,2.55-1.14,3.84-2.49,8.58-4.69,17.64-6.39,27.02-.23,1.28-.46,2.57-.67,3.86-.21,1.26-.4,2.52-.59,3.79-1.09,7.32-1.85,14.79-2.18,22.36,1.16.15,2.29.28,3.43.41Z"/>
  <path class="cls-1" d="m222.03,131.25c1.59,5.68,3.05,11.56,4.32,17.59.68,3.22,1.29,6.42,1.84,9.6,26.47,3.49,44.86,9.67,53.34,14.99,9.55-6.38-2.38-15.21-2.38-15.21,15.92,6.49,9.09,15.46,6.32,18.32.01.01.03.02.04.03-4.79,5.34-22.3,12.62-49.91,17.03-.82.13-1.62.27-2.46.39-.52.08-1.06.15-1.6.22-.85.11-1.7.22-2.55.34-.39.05-.79.1-1.19.15-1.23.16-2.48.32-3.74.47-.69.08-1.37.17-2.07.24-2.14.24-4.27.48-6.5.68-9.75.87-20.36,1.39-31.82,1.39-13.98,0-26.72-.76-38.13-2.02-.07,0-.14-.02-.21-.03-.95-.11-1.88-.22-2.8-.33-1.26-.16-2.5-.32-3.74-.48-.15-.02-.3-.04-.45-.06-1.11-.15-2.21-.3-3.28-.46-1.12-.17-2.22-.34-3.31-.51-1.25-.2-2.56-.38-3.77-.59-23.99-4.2-39.66-10.55-45.22-15.54,0,0-.03,0-.03,0,0,0-13.82-11.44,5.34-19.26,0,0-11.99,8.87-2.32,15.26,8.36-5.28,26.5-11.42,52.64-14.94.55-3.21,1.17-6.44,1.86-9.7,1.27-6,2.72-11.85,4.3-17.51-37.28,3.87-86.93,14.75-86.93,45.25,0,21.38,24.4,33.11,51.82,39.55,4.19.98,8.45,1.85,12.71,2.6.35.06.69.1,1.04.16,2.05.35,4.07.62,6.1.93,2.04.3,4.1.67,6.1.93.03,0,.05,0,.08.01.43.06.85.11,1.28.16,1.29.16,2.57.32,3.84.46,1.29.15,2.57.29,3.84.42,19.04,1.98,34.88,2.15,39.24,2.15s19.78-.16,38.48-2.07c.99-.1,1.99-.21,3.01-.32.27-.03.56-.07.83-.1,1.27-.15,2.55-.32,3.85-.5.71-.1,1.41-.19,2.11-.29,2.04-.27,4.04-.49,6.11-.8.16-.02.31-.04.48-.06,1.86-.28,3.74-.66,5.61-.98,2.38-.41,4.76-.77,7.14-1.25,30-6.07,58.44-17.92,58.44-41,0-30.72-50.35-41.53-87.71-45.33Z"/>
</svg>