<?xml version="1.0" encoding="UTF-8"?>
<svg id="Calque_2" data-name="Calque 2" xmlns="http://www.w3.org/2000/svg" viewBox="0 0 367.35 358.23">
  <defs>
    <style>
      .cls-1 {
        fill: #b67aff;
      }
    </style>
  </defs>
  <path class="cls-1" d="m360.07,51.54c-.4-4.09-4.34-20.23-13.33-25.66,0,0,4.12,9.55,2.81,13.11,0,0-13.67-20.42-27.54-23.79,0,0,6.74,11.96,6.93,14.03,0,0-20.79-7.85-32.41-8.23-9.25-.3-12.08-1.54-12.85-2.04,1.91,1.48,13.96,10.69,18.09,11.03,0,0-21.92.53-24.54-.77,0,0,8.62,8.26,14.05,9.38,0,0-6.74,2.06-10.49,1.5,0,0,3.36,3.76,7.16,4.41,0,0-7.91,1.3-9.6.93,0,0,2.21,3.42,3.44,3.23,0,0-4.28.33-5.13-.24,0,0,7.96,5.56,11.47,6.11,0,0,6.37,4.95,10.1,8.54-1.2-.67-2.44-1.27-3.7-1.81-9.95-5.25-35.83-17.07-63.77-15.17-1.6.2-3.29.36-5.09.47-.11,0-.21,0-.32.02-3.14.29-6.27.36-9.36.22-19.33-.22-33.08-4.76-41.18-8.51.68,1.54,2.74,3.81,4.93,5.95.04.04,17.58,14.81,37.01,18.68,4.98.85,9.54,1.44,13.15,1.83,2.73.3,4.93.48,6.35.59,1.17.09-1.26,1.72-1.26,1.72-.75.13-1.52.23-2.31.32-16.95,1.91-40.67-5.61-56.46-11.7-.08-.03-.17-.07-.26-.1l31.47,39.72c.14.04.29.09.44.13,2.52.74,5.78,1.68,9.35,2.6-2.19.44-4.28.87-6.27,1.27-.1.02-.2.04-.3.06l4.54,5.74,6.83,8.1,4.02,5.05,26.04,30.84s.07-.06.11-.09c13.57-10.92,32.58-22.39,51.34-20.18,0,0,2.59,4.03-2.84-13.57-.67-2.53-1.39-4.94-2.04-6.6-.05-.13-.1-.26-.15-.39-.14-.35-.35-.89-.62-1.56-1.77-4.4-6-14.69-8.18-18.26,0,0,9.83,10.8,14.64,17.8,0,0,7.85-10.03,14.47-10.22,0,0,3.05,3.13,5.31,5.41,2.91,2.95,7.44,3.76,11.08,1.8.04-.02.07-.04.11-.06,0,0,8.29-15.15,15.37-20.39,0,0,1.26-6.84,1.59-7.62.32-.77,8.17-19.57,7.76-23.66Z"/>
  <path class="cls-1" d="m69.88,112.05s17.99-4.68,31.94-1.87c7.21,1.45,23.17,9.61,42.08,16.43.15.05.3.11.45.16l-26.28-30.72c-.07,0-.14,0-.21.01-11.95.61-23.54,2.61-33.55,7,0,0-9.74,5.24-14.42,8.99Z"/>
  <path class="cls-1" d="m202.24,196.96c.15-.12.29-.23.43-.35l-26.17-32.25-13.61-15.91c-.11.02-.22.04-.32.06-2.15.39-4.35.73-6.57,1.02-12.22,1.6-39.4-4.09-54-7.5-3.98-.64-7.31-1.42-9.72-2.37,0,0,4.27,5.21,11.24,11.77,9.03,8.09,22.68,17.48,37.87,18.12,0,0,12.36.56,25.29,0l-16.97,25.02-65.71,5.53-16.74,1.48,74.93,8.66-8.52,8.1-63.04,6.09,60.6,2.15s-14.4-.17-20.51,8.74c-6.11,8.91-29.32,49.81-52.55,54.76,0,0,.48-6.57-12.15-1.49,0,0-.7,1.33-.76,2.11l-20.08-.34,19.52,2.8.19,1.87h-25.97l25.91,3.42.08,10.1-18.92,32.15s-1.43,2.49.23,2.31c0,0,8.72-5.3,10.83-7.27,2.11-1.97,19.46-16.72,24.44-26.17,0,0,59.48-47.91,73.7-52.85,7.66-6.05,13.2-10.44,14.16-11.24,2.98-2.48,34.72-33.9,52.9-48.54Z"/>
  <path class="cls-1" d="m94.35,68.48s.09,0,.14.01l-19.59-22.9s-.03,0-.05.01C34.94,54.34,7.27,73.58,7.27,73.58c0,0,43.13-8.33,87.08-5.1Z"/>
  <path class="cls-1" d="m282.43,206.58c-8.3-10.07-17.69-21.46-27.69-33.59-4.09-4.96-8.27-10.03-12.52-15.19-6.26-7.59-12.67-15.36-19.11-23.17-3.61-4.38-7.24-8.77-10.85-13.16-5.42-6.58-10.83-13.13-16.15-19.58-3.6-4.36-7.16-8.67-10.66-12.92-12.83-15.55-24.88-30.15-35.18-42.63-8.67-10.5-16.1-19.49-21.68-26.25-7.8-9.45-20.19-11.24-28.8-4.16-4.22,3.47-6.6,7.98-6.88,13.05-.24,4.35,1.15,8.93,3.9,13.16.58.89,1.2,1.78,1.91,2.64,7.5,9.11,15.01,18.21,22.52,27.32,5.56,6.74,11.11,13.49,16.68,20.23l3.32,4.02,19.49,23.63,8.94,10.84c1.03,1.25,2.09,2.53,3.17,3.84,2.53,3.06,5.19,6.29,7.95,9.63.92,1.11,1.84,2.23,2.78,3.37,3.5,4.24,7.13,8.64,10.85,13.16,2.68,3.25,5.4,6.55,8.15,9.89,9.18,11.13,18.63,22.59,27.62,33.49,1.21,1.47,2.41,2.93,3.6,4.37,5.18,6.28,10.17,12.33,14.81,17.95,12.26,14.86,22.09,26.79,26.72,32.41,7.95,9.65,20.05,11.55,28.76,4.53,4.14-3.33,6.59-7.66,7.08-12.5.56-5.44-1.43-11.23-5.6-16.29-5.84-7.09-13.79-16.75-23.14-28.09Z"/>
  <path class="cls-1" d="m295.17,200c6.51-4.72,7.63-9.55.61-13.5-3.06-1.72-9.68-4.08-17.53-6.58-.06-.02-.13-.04-.19-.06l17.04,20.18s.04-.03.07-.05Z"/>
  <path class="cls-1" d="m220.23,218.99c-1.18,1.35-2.29,2.81-3.27,4.38,0,0-5.43,9.47-13.01,12.39,0,0-12.7-8.62-19.98,2.63-7.27,11.25-9.1,17.75-14.21,24.6-5.11,6.84-19.19,24.05-19.19,24.05,0,0-6.41,5.46-4.26,5.67,2.15.21,37.42-21.14,37.42-21.14,0,0,16.61-17.95,28.82-22.6,4.38-1.67,12.41-6.74,21.66-12.85.11-.07.22-.15.34-.22l-14-17.25c-.11.12-.21.24-.31.36Z"/>
</svg>