<?xml version="1.0" encoding="utf-8"?>
<!-- Generator: Adobe Illustrator 27.5.0, SVG Export Plug-In . SVG Version: 6.00 Build 0)  -->
<svg version="1.1" id="Calque_1" xmlns="http://www.w3.org/2000/svg" xmlns:xlink="http://www.w3.org/1999/xlink" x="0px" y="0px"
	 viewBox="0 0 104.9 100" style="enable-background:new 0 0 104.9 100;" xml:space="preserve">
<style type="text/css">
	.st0{enable-background:new    ;}
	.st1{clip-path:url(#SVGID_00000013895637339591575200000015549727750587911841_);enable-background:new    ;}
	.st2{fill:#3C3C3C;}
	.st3{fill:#3A3A3A;}
	.st4{fill:#383838;}
	.st5{clip-path:url(#SVGID_00000008126989136219861500000002259072663020453790_);enable-background:new    ;}
	.st6{clip-path:url(#SVGID_00000054966569832728457820000014921705195822044349_);enable-background:new    ;}
	.st7{clip-path:url(#SVGID_00000148644152739448495700000012143471892481097895_);enable-background:new    ;}
	.st8{fill:#3E3E3E;}
	.st9{fill:#404040;}
	.st10{fill:#424242;}
	.st11{fill:#444444;}
	.st12{clip-path:url(#SVGID_00000067954514798021002820000013886743578516371614_);enable-background:new    ;}
	.st13{clip-path:url(#SVGID_00000009581366544550763640000007520901290152236682_);enable-background:new    ;}
	.st14{clip-path:url(#SVGID_00000008830676332015161860000018140941863856216244_);enable-background:new    ;}
	.st15{clip-path:url(#SVGID_00000010268541649611979750000013592845467824756868_);enable-background:new    ;}
	.st16{clip-path:url(#SVGID_00000109729823579102660930000001277614117084389799_);enable-background:new    ;}
	.st17{clip-path:url(#SVGID_00000144316071839928340580000014906727971586273703_);enable-background:new    ;}
	.st18{clip-path:url(#SVGID_00000070120372983988881340000002253725714799075493_);enable-background:new    ;}
	.st19{clip-path:url(#SVGID_00000090283815697816256270000000054117374484309908_);enable-background:new    ;}
	.st20{clip-path:url(#SVGID_00000016787387905042685200000018016543705188751257_);enable-background:new    ;}
	.st21{clip-path:url(#SVGID_00000119829302313179329580000004680648544837712033_);enable-background:new    ;}
	.st22{clip-path:url(#SVGID_00000069397431082608988970000001410432001304641170_);enable-background:new    ;}
	.st23{clip-path:url(#SVGID_00000018945368361196879390000010668826068467297450_);enable-background:new    ;}
	.st24{clip-path:url(#SVGID_00000148625830470251504500000017259223770285624738_);enable-background:new    ;}
	.st25{clip-path:url(#SVGID_00000090978688345078610020000010463091582334964109_);enable-background:new    ;}
	.st26{clip-path:url(#SVGID_00000107568738779279431840000002809872489282551683_);enable-background:new    ;}
	.st27{clip-path:url(#SVGID_00000156581185236853855890000003102219700896350600_);enable-background:new    ;}
	.st28{clip-path:url(#SVGID_00000098905513625983667630000004008861833174722440_);enable-background:new    ;}
	.st29{clip-path:url(#SVGID_00000056425502007647929090000005748587143576663959_);enable-background:new    ;}
	.st30{clip-path:url(#SVGID_00000048482504485516317650000009638921367216966803_);enable-background:new    ;}
	.st31{clip-path:url(#SVGID_00000072971605062388169690000000108280251922473864_);enable-background:new    ;}
	.st32{clip-path:url(#SVGID_00000163071515595822374930000015991394551432807571_);enable-background:new    ;}
	.st33{clip-path:url(#SVGID_00000139292373059787474930000010308765341489636517_);enable-background:new    ;}
	.st34{fill:#C4C4C4;}
</style>
<g>
	<g>
		<g>
			<g class="st0">
				<g class="st0">
					<g>
						<defs>
							<path id="SVGID_1_" d="M51.4,80.1l-0.3,6.3c0,0.2,0,0.3,0,0.5c0,0.1-0.1,0.3-0.1,0.4s-0.1,0.2-0.2,0.3
								c-0.1,0.1-0.2,0.1-0.3,0.1l0.4-6.5c0.1,0,0.2,0,0.2-0.1s0.1-0.1,0.2-0.2c0-0.1,0.1-0.2,0.1-0.3S51.3,80.2,51.4,80.1z"/>
						</defs>
						<clipPath id="SVGID_00000080905934424945384010000000587145613808590990_">
							<use xlink:href="#SVGID_1_"  style="overflow:visible;"/>
						</clipPath>
						<g style="clip-path:url(#SVGID_00000080905934424945384010000000587145613808590990_);enable-background:new    ;">
							<path class="st2" d="M50.5,87.6l0.4-6.5l0,0l0,0l0,0l0,0L50.5,87.6L50.5,87.6L50.5,87.6L50.5,87.6L50.5,87.6"/>
							<path class="st3" d="M50.6,87.6l0.3-6.5l0,0l0,0l0,0l0,0L50.6,87.6L50.6,87.6L50.6,87.6L50.6,87.6L50.6,87.6"/>
							<path class="st4" d="M50.6,87.6L51,81c0.1,0,0.1-0.1,0.2-0.1c0-0.1,0.1-0.1,0.1-0.2s0.1-0.2,0.1-0.3c0-0.1,0-0.2,0-0.3
								l-0.3,6.3c0,0.1,0,0.3,0,0.4s0,0.2-0.1,0.4c0,0.1-0.1,0.2-0.1,0.3S50.7,87.5,50.6,87.6"/>
						</g>
					</g>
				</g>
				<g class="st0">
					<g>
						<defs>
							<path id="SVGID_00000132797544884453973780000003791714017612694678_" d="M46,78.6l-1.4,6c0,0.1-0.1,0.2-0.1,0.4
								c0,0.1-0.1,0.2-0.1,0.3c0,0.1-0.1,0.1-0.2,0.2c-0.1,0-0.1,0.1-0.2,0.1l1.5-6.2c0.1,0,0.1,0,0.2-0.1s0.1-0.1,0.1-0.2
								s0.1-0.1,0.1-0.2C45.9,78.8,46,78.7,46,78.6z"/>
						</defs>
						<clipPath id="SVGID_00000095340264788993190480000008517342741557614988_">
							<use xlink:href="#SVGID_00000132797544884453973780000003791714017612694678_"  style="overflow:visible;"/>
						</clipPath>
						<g style="clip-path:url(#SVGID_00000095340264788993190480000008517342741557614988_);enable-background:new    ;">
							<path class="st2" d="M44,85.5l1.5-6.2l0,0l0,0l0,0l0,0L44,85.5L44,85.5L44,85.5L44,85.5L44,85.5"/>
							<path class="st3" d="M44,85.5l1.5-6.2l0,0l0,0l0,0l0,0L44,85.5C44.1,85.5,44.1,85.5,44,85.5C44.1,85.5,44.1,85.5,44,85.5
								C44.1,85.5,44.1,85.5,44,85.5C44.1,85.5,44,85.5,44,85.5"/>
							<path class="st4" d="M44.1,85.5l1.5-6.2c0,0,0.1,0,0.1-0.1c0,0,0.1-0.1,0.1-0.2s0.1-0.1,0.1-0.2s0.1-0.2,0.1-0.3l-1.4,6
								c0,0.1-0.1,0.2-0.1,0.3s-0.1,0.2-0.1,0.3c0,0.1-0.1,0.1-0.1,0.2S44.2,85.5,44.1,85.5"/>
						</g>
					</g>
				</g>
				<g class="st0">
					<g>
						<defs>
							<path id="SVGID_00000177445373715156417980000005351053828553655457_" d="M56.3,78.6l0.8,6c0,0.2,0,0.4,0.1,0.7s0,0.4,0,0.6
								s-0.1,0.3-0.2,0.4c-0.1,0.1-0.2,0.2-0.3,0.2L56,80.2c0.1,0,0.2,0,0.3-0.1s0.1-0.2,0.1-0.3c0-0.1,0-0.3,0-0.5
								C56.3,79,56.3,78.8,56.3,78.6z"/>
						</defs>
						<clipPath id="SVGID_00000036939605881009818000000018351321609131649719_">
							<use xlink:href="#SVGID_00000177445373715156417980000005351053828553655457_"  style="overflow:visible;"/>
						</clipPath>
						<g style="clip-path:url(#SVGID_00000036939605881009818000000018351321609131649719_);enable-background:new    ;">
							<path class="st2" d="M56.6,86.4l-0.7-6.3l0,0l0,0l0,0l0,0L56.6,86.4L56.6,86.4L56.6,86.4L56.6,86.4L56.6,86.4"/>
							<path class="st3" d="M56.6,86.4l-0.7-6.3l0,0l0,0l0,0l0,0L56.6,86.4C56.7,86.4,56.7,86.4,56.6,86.4
								C56.7,86.4,56.7,86.4,56.6,86.4C56.7,86.4,56.7,86.4,56.6,86.4C56.7,86.4,56.7,86.4,56.6,86.4"/>
							<path class="st4" d="M56.7,86.4L56,80.1c0.1,0,0.2-0.1,0.2-0.2s0.1-0.2,0.1-0.3c0-0.1,0-0.3,0-0.4c0-0.2,0-0.3,0-0.5l0.8,6
								c0,0.2,0,0.4,0.1,0.6s0,0.4,0,0.5c0,0.2-0.1,0.3-0.1,0.4C56.9,86.3,56.8,86.3,56.7,86.4"/>
						</g>
					</g>
				</g>
				<g class="st0">
					<g>
						<defs>
							<path id="SVGID_00000147907124656700268870000001569526587413091712_" d="M48.6,83.9l0.7-5.9v0.1v0.1c0,0,0,0,0,0.1
								c0,0,0,0,0,0.1c0,0.2,0,0.5,0.1,0.8s0.2,0.6,0.3,0.9s0.3,0.5,0.5,0.7s0.4,0.3,0.6,0.3l-0.4,6.5c-0.3,0-0.5-0.2-0.8-0.4
								c-0.2-0.2-0.4-0.6-0.6-0.9s-0.3-0.7-0.4-1.1c-0.1-0.3-0.1-0.7-0.1-0.9c0,0,0,0,0-0.1v-0.1V84L48.6,83.9z"/>
						</defs>
						<clipPath id="SVGID_00000104687028849002753360000006151702086514689722_">
							<use xlink:href="#SVGID_00000147907124656700268870000001569526587413091712_"  style="overflow:visible;"/>
						</clipPath>
						<g style="clip-path:url(#SVGID_00000104687028849002753360000006151702086514689722_);enable-background:new    ;">
							<path class="st8" d="M48.6,83.9l0.7-5.9v0.1v0.1c0,0,0,0,0,0.1c0,0,0,0,0,0.1l0,0l0,0l0,0l0,0l-0.7,6l0,0l0,0l0,0l0,0
								c0,0,0,0,0-0.1v-0.1v-0.1V83.9"/>
							<path class="st9" d="M48.6,84.3l0.7-6v0.1v0.1v0.1v0.1l-0.7,6v-0.1v-0.1V84.3C48.6,84.4,48.6,84.4,48.6,84.3"/>
							<path class="st10" d="M48.6,84.8l0.7-6c0,0.1,0,0.1,0,0.2s0,0.1,0.1,0.2c0,0.1,0,0.2,0.1,0.2c0,0.1,0.1,0.2,0.1,0.2L49,85.9
								c0-0.1-0.1-0.2-0.1-0.3c0-0.1-0.1-0.2-0.1-0.3c0-0.1-0.1-0.2-0.1-0.3C48.7,85,48.7,84.9,48.6,84.8"/>
							<path class="st11" d="M49,85.9l0.6-6.2c0.1,0.1,0.1,0.3,0.2,0.4c0.1,0.1,0.1,0.2,0.2,0.3c0.1,0.1,0.2,0.2,0.2,0.3
								s0.2,0.2,0.3,0.2L50,87.4c-0.1-0.1-0.2-0.2-0.3-0.3s-0.2-0.2-0.3-0.4c-0.1-0.1-0.2-0.3-0.3-0.4C49.1,86.2,49,86.1,49,85.9"/>
							<path class="st10" d="M50,87.4l0.4-6.5l0,0l0,0l0,0l0,0L50,87.4C50,87.4,50,87.4,50,87.4c-0.2,0-0.1,0-0.2,0
								C50.1,87.5,50.1,87.5,50,87.4C50.1,87.4,50.1,87.4,50,87.4"/>
							<path class="st9" d="M50.2,87.5l0.4-6.5l0,0l0,0l0,0l0,0L50.2,87.5L50.2,87.5C50.2,87.5,50.3,87.6,50.2,87.5
								C50.3,87.5,50.3,87.5,50.2,87.5C50.3,87.5,50.3,87.5,50.2,87.5"/>
							<path class="st8" d="M50.4,87.6l0.4-6.5l0,0l0,0l0,0l0,0L50.4,87.6C50.5,87.6,50.5,87.6,50.4,87.6
								C50.5,87.6,50.5,87.6,50.4,87.6L50.4,87.6L50.4,87.6"/>
						</g>
					</g>
				</g>
				<g class="st0">
					<g>
						<defs>
							<path id="SVGID_00000003805266610006697090000014451996123432995214_" d="M54.4,83.3l-0.3-5.8c0,0.2,0.1,0.5,0.2,0.7
								c0.1,0.3,0.2,0.6,0.4,0.8c0.2,0.3,0.4,0.5,0.6,0.7c0.2,0.2,0.4,0.3,0.7,0.3l0.7,6.3c-0.3,0-0.5-0.1-0.8-0.3
								c-0.2-0.2-0.5-0.5-0.7-0.8s-0.4-0.7-0.5-1C54.5,83.9,54.4,83.5,54.4,83.3z"/>
						</defs>
						<clipPath id="SVGID_00000044892961313124575820000004991600866818970546_">
							<use xlink:href="#SVGID_00000003805266610006697090000014451996123432995214_"  style="overflow:visible;"/>
						</clipPath>
						<g style="clip-path:url(#SVGID_00000044892961313124575820000004991600866818970546_);enable-background:new    ;">
							<path class="st9" d="M54.4,83.3l-0.3-5.8l0,0l0,0l0,0l0,0L54.4,83.3C54.4,83.3,54.4,83.3,54.4,83.3
								C54.4,83.4,54.4,83.4,54.4,83.3C54.4,83.4,54.4,83.4,54.4,83.3L54.4,83.3"/>
							<path class="st10" d="M54.4,83.5l-0.3-5.8c0,0.1,0,0.1,0,0.2s0,0.1,0.1,0.2s0,0.1,0.1,0.2s0,0.1,0.1,0.2l0.4,6
								c0-0.1-0.1-0.2-0.1-0.2l-0.1-0.2c0-0.1,0-0.1-0.1-0.2S54.4,83.6,54.4,83.5"/>
							<path class="st11" d="M54.7,84.4l-0.4-6c0.1,0.1,0.1,0.3,0.2,0.4s0.2,0.3,0.3,0.4s0.2,0.3,0.3,0.4s0.2,0.2,0.3,0.3l0.6,6.3
								c-0.1-0.1-0.3-0.2-0.4-0.3c-0.1-0.1-0.2-0.3-0.4-0.4c-0.1-0.2-0.2-0.3-0.3-0.5C54.8,84.7,54.8,84.6,54.7,84.4"/>
							<path class="st10" d="M56,86.2l-0.6-6.3c0,0,0,0,0.1,0s0,0,0.1,0s0,0,0.1,0c0,0,0,0,0.1,0l0.6,6.3c0,0,0,0-0.1,0
								c0,0,0,0-0.1,0S56.1,86.2,56,86.2L56,86.2"/>
							<path class="st9" d="M56.3,86.3L55.6,80l0,0l0,0l0,0l0,0L56.3,86.3L56.3,86.3C56.4,86.4,56.3,86.4,56.3,86.3L56.3,86.3
								L56.3,86.3"/>
							<path class="st8" d="M56.4,86.4l-0.7-6.3l0,0l0,0l0,0l0,0L56.4,86.4L56.4,86.4C56.5,86.4,56.5,86.4,56.4,86.4
								C56.5,86.4,56.5,86.4,56.4,86.4L56.4,86.4"/>
							<polyline class="st2" points="56.6,86.4 55.9,80.1 55.9,80.1 55.9,80.1 55.9,80.1 55.9,80.1 56.6,86.4 56.6,86.4 56.6,86.4 
								56.6,86.4 56.6,86.4 							"/>
						</g>
					</g>
				</g>
				<g class="st0">
					<g>
						<defs>
							<path id="SVGID_00000129924492055003792710000007422093558419315331_" d="M50.9,84l0.3-5.9c0.2,0,0.5-0.1,0.7-0.1
								s0.5-0.1,0.7-0.2s0.5-0.2,0.7-0.3c0.2-0.1,0.5-0.2,0.7-0.3l0.3,5.7c-0.3,0.2-0.6,0.3-0.8,0.4c-0.3,0.1-0.6,0.2-0.9,0.3
								c-0.3,0.1-0.6,0.2-0.9,0.2C51.5,83.9,51.2,84,50.9,84z"/>
						</defs>
						<clipPath id="SVGID_00000173872613066549515130000008786491638577759364_">
							<use xlink:href="#SVGID_00000129924492055003792710000007422093558419315331_"  style="overflow:visible;"/>
						</clipPath>
						<g style="clip-path:url(#SVGID_00000173872613066549515130000008786491638577759364_);enable-background:new    ;">
							<path class="st2" d="M50.9,84l0.3-5.9c0,0,0,0,0.1,0c0,0,0,0,0.1,0c0,0,0,0,0.1,0s0,0,0.1,0L51.2,84c0,0,0,0-0.1,0
								c0,0,0,0-0.1,0C51,84,51,84,50.9,84L50.9,84"/>
							<path class="st3" d="M51.2,84l0.2-5.9c0.1,0,0.2,0,0.3,0s0.2,0,0.3-0.1c0.1,0,0.2,0,0.3-0.1c0.1,0,0.2-0.1,0.3-0.1v5.8
								c-0.1,0-0.2,0.1-0.4,0.1s-0.2,0.1-0.4,0.1c-0.1,0-0.2,0.1-0.4,0.1S51.3,83.9,51.2,84"/>
							<path class="st4" d="M52.6,83.6v-5.8c0.1,0,0.2-0.1,0.4-0.1c0.1,0,0.2-0.1,0.4-0.1c0.1-0.1,0.2-0.1,0.4-0.2
								c0.1-0.1,0.2-0.1,0.4-0.2l0.3,5.7C54.2,83,54.1,83,54,83.1s-0.3,0.1-0.4,0.2c-0.1,0.1-0.3,0.1-0.4,0.2
								C52.9,83.5,52.8,83.6,52.6,83.6"/>
						</g>
					</g>
				</g>
				<g class="st0">
					<g>
						<defs>
							<path id="SVGID_00000054257925392922092170000010739714125672049044_" d="M42.5,81.9l1.7-5.5c0,0.2,0,0.5,0,0.8
								s0.1,0.6,0.2,0.9c0.1,0.3,0.2,0.6,0.4,0.8c0.2,0.2,0.3,0.4,0.5,0.4l0,0l0,0l0,0l0,0L44,85.5l0,0l0,0l0,0l0,0
								c-0.2-0.1-0.5-0.3-0.7-0.5s-0.3-0.6-0.5-1c-0.1-0.4-0.2-0.8-0.3-1.1C42.5,82.5,42.5,82.2,42.5,81.9z"/>
						</defs>
						<clipPath id="SVGID_00000012439444799145256600000016513190881956238005_">
							<use xlink:href="#SVGID_00000054257925392922092170000010739714125672049044_"  style="overflow:visible;"/>
						</clipPath>
						<g style="clip-path:url(#SVGID_00000012439444799145256600000016513190881956238005_);enable-background:new    ;">
							<path class="st8" d="M42.5,81.9l1.7-5.5c0,0,0,0,0,0.1v0.1v0.1v0.1l-1.7,5.6v-0.1v-0.1C42.5,82,42.5,82,42.5,81.9L42.5,81.9"
								/>
							<path class="st9" d="M42.5,82.3l1.7-5.6c0,0.1,0,0.1,0,0.2s0,0.1,0,0.2s0,0.1,0,0.2s0,0.1,0,0.2l-1.7,5.8c0-0.1,0-0.2,0-0.2
								v-0.2c0-0.1,0-0.2,0-0.2V82.3"/>
							<path class="st10" d="M42.6,83.2l1.7-5.8c0,0.1,0,0.2,0,0.2c0,0.1,0,0.2,0.1,0.2c0,0.1,0,0.2,0.1,0.2c0,0.1,0.1,0.1,0.1,0.2
								l-1.7,6c0-0.1-0.1-0.2-0.1-0.3c0-0.1-0.1-0.2-0.1-0.3C42.7,83.5,42.6,83.4,42.6,83.2C42.6,83.2,42.6,83.3,42.6,83.2"/>
							<path class="st11" d="M42.9,84.3l1.7-6c0,0.1,0.1,0.2,0.1,0.3s0.1,0.2,0.1,0.2C44.9,79,45,79,45,79.1
								c0.1,0.1,0.1,0.1,0.2,0.2l-1.5,6.1c-0.1,0-0.2-0.1-0.2-0.2c-0.1-0.1-0.1-0.2-0.2-0.2s-0.1-0.2-0.2-0.3
								C43,84.5,42.9,84.4,42.9,84.3"/>
							<path class="st10" d="M43.7,85.4l1.5-6.1l0,0l0,0l0,0l0,0L43.7,85.4L43.7,85.4C43.7,85.5,43.8,85.4,43.7,85.4L43.7,85.4
								L43.7,85.4"/>
							<path class="st9" d="M43.8,85.5l1.5-6.2l0,0l0,0l0,0l0,0l0,0l0,0l0,0l0,0L43.8,85.5C43.9,85.5,43.9,85.5,43.8,85.5
								C43.9,85.5,43.9,85.5,43.8,85.5C43.9,85.5,43.9,85.5,43.8,85.5C43.9,85.5,43.9,85.5,43.8,85.5C43.9,85.5,43.9,85.5,43.8,85.5
								C43.9,85.5,43.9,85.5,43.8,85.5C43.9,85.5,43.8,85.5,43.8,85.5L43.8,85.5"/>
							<path class="st8" d="M43.9,85.5l1.5-6.2l0,0l0,0l0,0l0,0L43.9,85.5C44,85.5,44,85.5,43.9,85.5C44,85.5,44,85.5,43.9,85.5
								C44,85.5,43.9,85.5,43.9,85.5L43.9,85.5"/>
							<polyline class="st2" points="44,85.5 45.5,79.3 45.5,79.3 45.5,79.3 45.5,79.3 45.5,79.3 44,85.5 44,85.5 44,85.5 44,85.5 
								44,85.5 							"/>
						</g>
					</g>
				</g>
				<g class="st0">
					<g>
						<defs>
							<path id="SVGID_00000142873625181709054210000000231156284833494400_" d="M44.8,82.1l1.3-5.6c0.2,0.2,0.5,0.4,0.7,0.5
								s0.5,0.3,0.8,0.4s0.5,0.2,0.8,0.3c0.3,0.1,0.6,0.2,0.8,0.2l-0.7,5.9c-0.3-0.1-0.7-0.2-1-0.3s-0.7-0.2-1-0.4
								c-0.3-0.2-0.6-0.3-0.9-0.5C45.3,82.5,45.1,82.3,44.8,82.1z"/>
						</defs>
						<clipPath id="SVGID_00000009592294994334033160000007484343292418962072_">
							<use xlink:href="#SVGID_00000142873625181709054210000000231156284833494400_"  style="overflow:visible;"/>
						</clipPath>
						<g style="clip-path:url(#SVGID_00000009592294994334033160000007484343292418962072_);enable-background:new    ;">
							<path class="st11" d="M44.8,82.1l1.3-5.6c0.1,0,0.1,0.1,0.2,0.1s0.1,0.1,0.2,0.1c0.1,0,0.1,0.1,0.2,0.1
								c0.1,0,0.1,0.1,0.2,0.1l-1.2,5.7c-0.1,0-0.2-0.1-0.2-0.2c-0.1-0.1-0.2-0.1-0.2-0.2s-0.2-0.1-0.2-0.2
								C44.9,82.2,44.9,82.1,44.8,82.1"/>
							<path class="st10" d="M45.7,82.7l1.2-5.7c0.1,0.1,0.2,0.1,0.3,0.2s0.2,0.1,0.3,0.2s0.2,0.1,0.3,0.2c0.1,0,0.2,0.1,0.3,0.1
								l-0.9,5.8c-0.1-0.1-0.3-0.1-0.4-0.2s-0.3-0.1-0.4-0.2C46.3,83,46.1,83,46,82.9S45.8,82.8,45.7,82.7"/>
							<path class="st9" d="M47.3,83.5l0.9-5.8c0.1,0,0.2,0.1,0.3,0.1s0.2,0.1,0.3,0.1s0.2,0,0.3,0.1c0.1,0,0.2,0,0.3,0.1L48.7,84
								c-0.1,0-0.2,0-0.3-0.1c-0.1,0-0.2-0.1-0.3-0.1s-0.2-0.1-0.3-0.1C47.5,83.6,47.4,83.6,47.3,83.5"/>
						</g>
					</g>
				</g>
				<g class="st0">
					<g>
						<defs>
							<path id="SVGID_00000027587429660399244370000001586420377591991958_" d="M42.8,79.9l1.7-5.2c0,0.2-0.1,0.4-0.1,0.6
								s-0.1,0.3-0.1,0.5s0,0.3,0,0.4s0,0.2,0,0.2l-1.7,5.5c0-0.1,0-0.2,0-0.3c0-0.1,0-0.3,0.1-0.4c0-0.2,0.1-0.4,0.1-0.6
								C42.7,80.4,42.7,80.1,42.8,79.9z"/>
						</defs>
						<clipPath id="SVGID_00000028294601309058616650000003526428319000754317_">
							<use xlink:href="#SVGID_00000027587429660399244370000001586420377591991958_"  style="overflow:visible;"/>
						</clipPath>
						<g style="clip-path:url(#SVGID_00000028294601309058616650000003526428319000754317_);enable-background:new    ;">
							<path class="st2" d="M42.8,79.9l1.7-5.2c0,0.1,0,0.2-0.1,0.4c0,0.1,0,0.2-0.1,0.3s0,0.2,0,0.3c0,0.1,0,0.2,0,0.2l-1.7,5.4
								c0-0.1,0-0.2,0-0.3s0-0.2,0.1-0.3s0-0.2,0.1-0.4C42.7,80.2,42.8,80,42.8,79.9"/>
							<path class="st8" d="M42.5,81.3l1.7-5.4c0,0.1,0,0.1,0,0.1v0.1v0.1v0.1l-1.7,5.5v-0.1v-0.1v-0.1
								C42.5,81.5,42.5,81.4,42.5,81.3"/>
						</g>
					</g>
				</g>
				<g class="st0">
					<g>
						<defs>
							<path id="SVGID_00000133511662843371516380000010234551725334820239_" d="M56.5,81.3l-0.7-5.4c0.6-0.5,1.1-1.1,1.5-1.8
								c0.5-0.7,0.9-1.4,1.2-2.2s0.6-1.6,0.9-2.5s0.4-1.8,0.4-2.8l1.5,3.5c-0.1,1.2-0.3,2.3-0.5,3.4c-0.3,1.1-0.6,2.1-1,3
								c-0.4,1-0.9,1.8-1.5,2.6C57.8,79.9,57.2,80.7,56.5,81.3z"/>
						</defs>
						<clipPath id="SVGID_00000018939913308015154550000003883783909460362635_">
							<use xlink:href="#SVGID_00000133511662843371516380000010234551725334820239_"  style="overflow:visible;"/>
						</clipPath>
						<g style="clip-path:url(#SVGID_00000018939913308015154550000003883783909460362635_);enable-background:new    ;">
							<path class="st4" d="M56.5,81.3l-0.7-5.4c0.6-0.5,1.1-1.1,1.5-1.8c0.5-0.7,0.9-1.4,1.2-2.2s0.6-1.6,0.9-2.5s0.4-1.8,0.4-2.8
								l1.5,3.5c-0.1,1.2-0.3,2.3-0.5,3.4c-0.3,1.1-0.6,2.1-1,3c-0.4,1-0.9,1.8-1.5,2.6C57.8,79.9,57.2,80.7,56.5,81.3"/>
						</g>
					</g>
				</g>
				<g class="st0">
					<g>
						<defs>
							<path id="SVGID_00000015353746782127729720000000911778286363441585_" d="M57.8,58.1l1.1,1.7c0.4,0.7,0.8,1.4,1.2,2.2
								c0.3,0.8,0.6,1.6,0.8,2.5s0.4,1.8,0.5,2.7s0.1,1.9,0.1,2.9L60,66.6c0-0.8,0-1.6-0.1-2.4c-0.1-0.8-0.2-1.5-0.4-2.2
								s-0.4-1.4-0.7-2.1C58.4,59.3,58.1,58.7,57.8,58.1z"/>
						</defs>
						<clipPath id="SVGID_00000080910304735794178210000002743398766367998896_">
							<use xlink:href="#SVGID_00000015353746782127729720000000911778286363441585_"  style="overflow:visible;"/>
						</clipPath>
						<g style="clip-path:url(#SVGID_00000080910304735794178210000002743398766367998896_);enable-background:new    ;">
							<path class="st4" d="M61.4,70.1l-1.5-3.5c0-0.8,0-1.6-0.1-2.4c-0.1-0.8-0.2-1.5-0.4-2.2s-0.4-1.4-0.7-2.1
								c-0.3-0.6-0.6-1.3-1-1.8l1.1,1.7c0.4,0.7,0.8,1.4,1.2,2.2c0.3,0.8,0.6,1.6,0.8,2.5s0.4,1.8,0.5,2.7S61.4,69.1,61.4,70.1"/>
						</g>
					</g>
				</g>
				<g class="st0">
					<g>
						<defs>
							<path id="SVGID_00000052098811208217043530000008343170721908226194_" d="M43,59.5l1.7-1.6c-0.4,0.5-0.7,1-1.1,1.6
								c-0.3,0.6-0.6,1.2-0.8,1.9s-0.4,1.3-0.6,2.1c-0.1,0.7-0.2,1.5-0.3,2.2c0,0.9,0,1.8,0.1,2.6s0.3,1.6,0.5,2.4s0.5,1.5,0.8,2.2
								s0.7,1.3,1.2,1.9L42.8,80c-0.5-0.7-1-1.5-1.4-2.3s-0.7-1.7-1-2.6C40.1,74,39.9,73,39.8,72c-0.1-1-0.2-2.1-0.1-3.1
								c0-0.9,0.2-1.8,0.3-2.7c0.2-0.9,0.4-1.7,0.7-2.5c0.3-0.8,0.6-1.5,1-2.3S42.5,60.1,43,59.5z"/>
						</defs>
						<clipPath id="SVGID_00000076584258142123559050000010840747825370398129_">
							<use xlink:href="#SVGID_00000052098811208217043530000008343170721908226194_"  style="overflow:visible;"/>
						</clipPath>
						<g style="clip-path:url(#SVGID_00000076584258142123559050000010840747825370398129_);enable-background:new    ;">
							<path class="st4" d="M43,59.5l1.7-1.6c-0.1,0.1-0.2,0.3-0.3,0.4s-0.2,0.3-0.3,0.5s-0.2,0.3-0.3,0.5s-0.2,0.3-0.3,0.5l-1.9,2
								c0.1-0.2,0.2-0.4,0.3-0.6c0.1-0.2,0.2-0.4,0.4-0.6s0.2-0.4,0.4-0.6S42.8,59.7,43,59.5"/>
							<path class="st3" d="M41.5,61.8l1.9-2c-0.1,0.2-0.2,0.4-0.3,0.5s-0.2,0.4-0.2,0.6c-0.1,0.2-0.1,0.4-0.2,0.6
								c-0.1,0.2-0.1,0.4-0.2,0.6l-2.1,2.5c0.1-0.2,0.1-0.5,0.2-0.7s0.2-0.5,0.3-0.7s0.2-0.5,0.3-0.7C41.3,62.2,41.4,62,41.5,61.8"
								/>
							<path class="st2" d="M40.4,64.5l2.1-2.5c-0.1,0.2-0.1,0.4-0.2,0.6s-0.1,0.4-0.1,0.6s-0.1,0.4-0.1,0.6c0,0.2-0.1,0.4-0.1,0.6
								l-2.2,3c0-0.2,0.1-0.5,0.1-0.7S40,66.2,40,66s0.1-0.5,0.2-0.7C40.3,65,40.4,64.8,40.4,64.5"/>
							<path class="st8" d="M39.8,67.4l2.2-3c0,0.1,0,0.2,0,0.3c0,0.1,0,0.2,0,0.3c0,0.1,0,0.2,0,0.3c0,0.1,0,0.2,0,0.3
								c0,0.1,0,0.2,0,0.3s0,0.2,0,0.3c0,0.1,0,0.2,0,0.3c0,0.1,0,0.2,0,0.3l-2.2,3.5c0-0.1,0-0.2,0-0.3c0-0.1,0-0.2,0-0.3
								s0-0.2,0-0.3c0-0.1,0-0.2,0-0.3c0-0.1,0-0.3,0-0.4s0-0.3,0-0.4s0-0.3,0-0.4C39.8,67.6,39.8,67.5,39.8,67.4"/>
							<path class="st9" d="M39.7,70.2l2.2-3.5c0,0.2,0,0.4,0,0.6s0,0.4,0.1,0.6c0,0.2,0,0.4,0.1,0.6c0,0.2,0.1,0.4,0.1,0.6l-2.2,4
								c0-0.2-0.1-0.5-0.1-0.7s-0.1-0.5-0.1-0.8s0-0.5-0.1-0.8C39.7,70.8,39.7,70.5,39.7,70.2"/>
							<path class="st10" d="M40,73.3l2.2-4c0,0.2,0.1,0.5,0.2,0.7s0.1,0.5,0.2,0.7c0.1,0.2,0.1,0.5,0.2,0.7
								c0.1,0.2,0.2,0.4,0.3,0.7l-2,4.6c-0.1-0.3-0.2-0.5-0.3-0.8s-0.2-0.5-0.3-0.8s-0.2-0.6-0.2-0.9S40,73.6,40,73.3"/>
							<path class="st11" d="M41,76.6l2-4.6c0.1,0.2,0.2,0.5,0.3,0.7s0.2,0.5,0.4,0.7s0.3,0.4,0.4,0.7s0.3,0.4,0.4,0.6l-1.7,5.2
								c-0.2-0.2-0.4-0.5-0.5-0.7c-0.2-0.3-0.3-0.5-0.5-0.8s-0.3-0.6-0.4-0.8C41.2,77.2,41.1,76.9,41,76.6"/>
						</g>
					</g>
				</g>
				<g class="st0">
					<g>
						<defs>
							<path id="SVGID_00000111149653621268056580000015380583068435671483_" d="M42.5,54.1l1.8-0.7C44.1,53.5,44,53.7,44,54
								s0,0.6,0.1,1c0.1,0.3,0.2,0.7,0.2,0.9c0.1,0.3,0.1,0.4,0.2,0.5l-1.7,1.3c0,0-0.1-0.3-0.2-0.6c-0.1-0.3-0.2-0.7-0.3-1.1
								c-0.1-0.4-0.1-0.8-0.1-1.2C42.1,54.5,42.2,54.2,42.5,54.1z"/>
						</defs>
						<clipPath id="SVGID_00000124148275297551926000000006054084458796054411_">
							<use xlink:href="#SVGID_00000111149653621268056580000015380583068435671483_"  style="overflow:visible;"/>
						</clipPath>
						<g style="clip-path:url(#SVGID_00000124148275297551926000000006054084458796054411_);enable-background:new    ;">
							<path class="st4" d="M42.5,54.1l1.8-0.7c0,0,0,0-0.1,0c0,0,0,0-0.1,0s0,0,0,0.1s0,0,0,0.1l-1.8,0.8v-0.1
								C42.3,54.3,42.3,54.3,42.5,54.1C42.3,54.2,42.4,54.2,42.5,54.1C42.4,54.1,42.4,54.1,42.5,54.1"/>
							<path class="st3" d="M42.2,54.3l1.8-0.8l0,0l0,0l0,0l0,0L42.2,54.3L42.2,54.3C42.2,54.4,42.2,54.4,42.2,54.3
								C42.2,54.4,42.2,54.4,42.2,54.3C42.2,54.4,42.2,54.3,42.2,54.3"/>
							<path class="st2" d="M42.2,54.5l1.8-0.8l0,0l0,0l0,0l0,0L42.2,54.5C42.2,54.5,42.2,54.5,42.2,54.5
								C42.2,54.3,42.1,54.6,42.2,54.5C42.1,54.6,42.2,54.5,42.2,54.5L42.2,54.5"/>
							<path class="st8" d="M42.1,54.7l1.8-0.8c0,0,0,0,0,0.1s0,0,0,0.1v0.1v0.1L42.1,55v-0.1v-0.1C42.1,54.8,42.1,54.8,42.1,54.7
								L42.1,54.7"/>
							<path class="st9" d="M42.1,55l1.8-0.9c0,0.1,0,0.1,0,0.2c0,0.1,0,0.1,0,0.2c0,0.1,0,0.1,0,0.2c0,0.1,0,0.1,0,0.2l-1.8,1
								c0-0.1,0-0.1,0-0.2s0-0.1,0-0.2c0-0.1,0-0.1,0-0.2C42.1,55.2,42.1,55.1,42.1,55"/>
							<path class="st10" d="M42.2,55.9l1.8-1c0,0.2,0.1,0.3,0.1,0.5s0.1,0.3,0.1,0.5c0,0.1,0.1,0.3,0.1,0.3c0,0.1,0,0.1,0.1,0.2
								l-1.7,1.3c0,0,0-0.1-0.1-0.2c0-0.1-0.1-0.2-0.1-0.4s-0.1-0.4-0.1-0.5S42.3,56.1,42.2,55.9"/>
						</g>
					</g>
				</g>
				<g class="st0">
					<g>
						<defs>
							<path id="SVGID_00000016771536315368099510000016288817348848211381_" d="M55.3,56.2l-0.5-1.1c0-0.3,0.1-0.6,0.1-0.9
								c0-0.3,0.1-0.5,0.1-0.8c0-0.2,0.1-0.4,0.1-0.6c0-0.2,0.1-0.3,0.1-0.4l0.6,0.5c0,0.1-0.1,0.3-0.1,0.5s-0.1,0.4-0.1,0.7
								s-0.1,0.6-0.1,0.9C55.4,55.4,55.3,55.8,55.3,56.2z"/>
						</defs>
						<clipPath id="SVGID_00000064347284652410424790000008800196091505829310_">
							<use xlink:href="#SVGID_00000016771536315368099510000016288817348848211381_"  style="overflow:visible;"/>
						</clipPath>
						<g style="clip-path:url(#SVGID_00000064347284652410424790000008800196091505829310_);enable-background:new    ;">
							<path class="st4" d="M55.3,56.2l-0.5-1.1c0-0.3,0.1-0.6,0.1-0.9c0-0.3,0.1-0.5,0.1-0.8c0-0.2,0.1-0.4,0.1-0.6
								c0-0.2,0.1-0.3,0.1-0.4l0.6,0.5c0,0.1-0.1,0.3-0.1,0.5s-0.1,0.4-0.1,0.7s-0.1,0.6-0.1,0.9C55.4,55.4,55.3,55.8,55.3,56.2"/>
						</g>
					</g>
				</g>
				<g class="st0">
					<g>
						<defs>
							<path id="SVGID_00000114779894236355532150000013536776847299505563_" d="M54,49.5l0.3-0.1l0,0l0,0l0,0l0,0L54,49.5
								C54.1,49.5,54,49.5,54,49.5L54,49.5L54,49.5L54,49.5z"/>
						</defs>
						<clipPath id="SVGID_00000115503176251700260680000012936557959637620409_">
							<use xlink:href="#SVGID_00000114779894236355532150000013536776847299505563_"  style="overflow:visible;"/>
						</clipPath>
						<g style="clip-path:url(#SVGID_00000115503176251700260680000012936557959637620409_);enable-background:new    ;">
							<path class="st4" d="M54.4,49.4l-0.3,0.1l0,0l0,0l0,0l0,0L54.4,49.4C54.3,49.4,54.3,49.4,54.4,49.4
								C54.3,49.4,54.3,49.4,54.4,49.4C54.3,49.4,54.3,49.4,54.4,49.4L54.4,49.4"/>
						</g>
					</g>
				</g>
				<g class="st0">
					<g>
						<defs>
							<path id="SVGID_00000165205625408249562070000001233708096330588830_" d="M55.8,53l-0.6-0.5c0-0.2,0-0.5,0-0.8
								s-0.1-0.6-0.2-0.9c-0.1-0.3-0.2-0.6-0.4-0.8s-0.3-0.4-0.5-0.5l0,0l0,0l0,0l0,0l0.3-0.1l0,0l0,0l0,0l0,0
								c0.2,0.1,0.5,0.3,0.7,0.5s0.3,0.6,0.4,1c0.1,0.4,0.2,0.8,0.2,1.1C55.8,52.4,55.8,52.7,55.8,53z"/>
						</defs>
						<clipPath id="SVGID_00000011011679651729911250000016753237291413618560_">
							<use xlink:href="#SVGID_00000165205625408249562070000001233708096330588830_"  style="overflow:visible;"/>
						</clipPath>
						<g style="clip-path:url(#SVGID_00000011011679651729911250000016753237291413618560_);enable-background:new    ;">
							<path class="st4" d="M55.8,53l-0.6-0.5c0-0.2,0-0.5,0-0.8s-0.1-0.6-0.2-0.9c-0.1-0.3-0.2-0.6-0.4-0.8s-0.3-0.4-0.5-0.5l0,0
								l0,0l0,0l0,0l0.3-0.1l0,0l0,0l0,0l0,0c0.2,0.1,0.5,0.3,0.7,0.5s0.3,0.6,0.4,1c0.1,0.4,0.2,0.8,0.2,1.1
								C55.8,52.4,55.8,52.7,55.8,53"/>
						</g>
					</g>
				</g>
				<g class="st0">
					<g>
						<defs>
							<path id="SVGID_00000093139515862867637970000016030794749354830769_" d="M48.2,47.5l0.8,0.4c0,0,0,0-0.1,0s0,0-0.1,0
								c0,0,0,0-0.1,0c0,0,0,0-0.1,0l-0.8-0.5h0.1H48C48.1,47.4,48.1,47.5,48.2,47.5L48.2,47.5z"/>
						</defs>
						<clipPath id="SVGID_00000082349916085527995220000017732251546095790493_">
							<use xlink:href="#SVGID_00000093139515862867637970000016030794749354830769_"  style="overflow:visible;"/>
						</clipPath>
						<g style="clip-path:url(#SVGID_00000082349916085527995220000017732251546095790493_);enable-background:new    ;">
							<path class="st4" d="M48.2,47.5l0.8,0.4c0,0,0,0-0.1,0s0,0-0.1,0c0,0,0,0-0.1,0c0,0,0,0-0.1,0l-0.8-0.5h0.1H48
								C48.1,47.4,48.1,47.5,48.2,47.5L48.2,47.5"/>
						</g>
					</g>
				</g>
				<g class="st0">
					<g>
						<defs>
							<path id="SVGID_00000152970631449130917440000012029429027307829900_" d="M47.9,47.4l0.8,0.5c-0.2,0-0.4,0.2-0.4,0.4
								s-0.1,0.6-0.1,1s0,0.7,0.1,1c0,0.3,0.1,0.5,0.1,0.5L47.5,51c0,0,0-0.3-0.1-0.6c0-0.3-0.1-0.8-0.1-1.2s0-0.8,0.1-1.2
								C47.5,47.6,47.6,47.4,47.9,47.4z"/>
						</defs>
						<clipPath id="SVGID_00000136394951911785604900000015884053463873994403_">
							<use xlink:href="#SVGID_00000152970631449130917440000012029429027307829900_"  style="overflow:visible;"/>
						</clipPath>
						<g style="clip-path:url(#SVGID_00000136394951911785604900000015884053463873994403_);enable-background:new    ;">
							<path class="st4" d="M47.9,47.4l0.8,0.5h-0.1c0,0-0.1,0-0.1,0.1l-0.1,0.1c0,0,0,0.1-0.1,0.1l-0.9-0.4c0-0.1,0.1-0.1,0.1-0.1
								l0.1-0.1c0,0,0.1,0,0.1-0.1S47.8,47.4,47.9,47.4"/>
							<path class="st3" d="M47.4,47.7l0.9,0.4l0,0l0,0l0,0c0,0,0,0,0,0.1L47.4,47.7C47.4,47.8,47.4,47.8,47.4,47.7
								C47.4,47.7,47.4,47.7,47.4,47.7C47.4,47.8,47.4,47.8,47.4,47.7L47.4,47.7"/>
							<path class="st2" d="M47.3,47.9l0.9,0.4c0,0,0,0,0,0.1v0.1v0.1v0.1l-0.9-0.3v-0.1v-0.1C47.3,48.1,47.3,48.1,47.3,47.9
								C47.3,48,47.3,48,47.3,47.9"/>
							<path class="st8" d="M47.3,48.3l0.9,0.3c0,0.1,0,0.1,0,0.2c0,0.1,0,0.1,0,0.2c0,0.1,0,0.1,0,0.2c0,0.1,0,0.1,0,0.2l-0.9-0.1
								c0-0.1,0-0.1,0-0.2c0-0.1,0-0.1,0-0.2c0-0.1,0-0.1,0-0.2C47.2,48.5,47.3,48.4,47.3,48.3"/>
							<path class="st9" d="M47.2,49.2l0.9,0.1c0,0.2,0,0.3,0,0.5s0,0.3,0,0.4c0,0.1,0,0.2,0,0.3s0,0.1,0,0.2l-0.9,0.2
								c0,0,0-0.1,0-0.2c0-0.1,0-0.2-0.1-0.4c0-0.2,0-0.3-0.1-0.5S47.2,49.4,47.2,49.2"/>
						</g>
					</g>
				</g>
				<g class="st0">
					<g>
						<defs>
							<path id="SVGID_00000103263450661836456780000010090342656743798973_" d="M84,62.5l-5.5-2.2c-0.1-2.9-0.6-5.2-1.4-7.2
								s-1.7-3.5-2.7-4.7s-1.9-2-2.7-2.6c-0.8-0.6-1.3-0.8-1.4-0.9l3.7-1c0.1,0.1,0.8,0.4,1.7,1c0.9,0.7,2.1,1.7,3.3,3.1
								c1.2,1.4,2.4,3.3,3.3,5.7C83.2,56.2,83.9,59,84,62.5z"/>
						</defs>
						<clipPath id="SVGID_00000096740336636127850390000005888015668045272203_">
							<use xlink:href="#SVGID_00000103263450661836456780000010090342656743798973_"  style="overflow:visible;"/>
						</clipPath>
						<g style="clip-path:url(#SVGID_00000096740336636127850390000005888015668045272203_);enable-background:new    ;">
							<path class="st4" d="M84,62.5l-5.5-2.2c-0.1-2.9-0.6-5.2-1.4-7.2s-1.7-3.5-2.7-4.7s-1.9-2-2.7-2.6c-0.8-0.6-1.3-0.8-1.4-0.9
								l3.7-1c0.1,0.1,0.8,0.4,1.7,1c0.9,0.7,2.1,1.7,3.3,3.1c1.2,1.4,2.4,3.3,3.3,5.7C83.2,56.2,83.9,59,84,62.5"/>
						</g>
					</g>
				</g>
				<g class="st0">
					<g>
						<defs>
							<path id="SVGID_00000085239436143827255680000014590096900051948472_" d="M29.7,41.7l4,1.4c-0.1,0-0.7,0.3-1.5,0.8
								s-1.9,1.3-3,2.4s-2.2,2.5-3,4.3s-1.4,3.9-1.5,6.4l-5.9,1.5c0.1-3,0.8-5.6,1.8-7.7c1-2.1,2.3-3.8,3.6-5.2
								c1.3-1.3,2.6-2.3,3.6-2.9C28.8,42.1,29.6,41.7,29.7,41.7z"/>
						</defs>
						<clipPath id="SVGID_00000078005340952499604280000009187738989936972442_">
							<use xlink:href="#SVGID_00000085239436143827255680000014590096900051948472_"  style="overflow:visible;"/>
						</clipPath>
						<g style="clip-path:url(#SVGID_00000078005340952499604280000009187738989936972442_);enable-background:new    ;">
							<path class="st4" d="M29.7,41.7l4,1.4c-0.1,0-0.4,0.2-0.9,0.5s-1.2,0.7-1.9,1.3s-1.5,1.3-2.3,2.2s-1.5,1.9-2.2,3.2h-5.5
								c0.8-1.5,1.7-2.8,2.6-3.8c0.9-1.1,1.9-1.9,2.8-2.6s1.7-1.2,2.3-1.5S29.6,41.7,29.7,41.7"/>
							<path class="st3" d="M20.8,50.2h5.5c-0.1,0.2-0.2,0.4-0.3,0.6c-0.1,0.2-0.2,0.4-0.3,0.6c-0.1,0.2-0.2,0.4-0.2,0.7
								s-0.2,0.5-0.2,0.7l-5.7,0.6c0.1-0.3,0.2-0.6,0.3-0.8c0.1-0.3,0.2-0.5,0.3-0.8c0.1-0.3,0.2-0.5,0.3-0.8S20.7,50.5,20.8,50.2"
								/>
							<path class="st2" d="M19.6,53.4l5.7-0.6c-0.1,0.2-0.1,0.4-0.2,0.6c0,0.2-0.1,0.4-0.1,0.6s-0.1,0.4-0.1,0.6
								c0,0.2-0.1,0.4-0.1,0.7L19,56.4c0-0.3,0.1-0.5,0.1-0.8s0.1-0.5,0.1-0.8c0.1-0.3,0.1-0.5,0.2-0.7
								C19.5,53.8,19.5,53.6,19.6,53.4"/>
							<path class="st8" d="M19,56.4l5.8-1.1c0,0.1,0,0.3-0.1,0.4c0,0.1,0,0.3,0,0.4c0,0.1,0,0.3,0,0.4c0,0.1,0,0.3,0,0.5l-5.9,1.5
								c0-0.2,0-0.4,0-0.5c0-0.2,0-0.4,0-0.5s0-0.4,0-0.5C18.9,56.7,18.9,56.5,19,56.4"/>
						</g>
					</g>
				</g>
				<g class="st0">
					<g>
						<defs>
							<path id="SVGID_00000176013914501221824560000007131655708756242326_" d="M36.4,44.9L33,43.8c-0.1,0-0.1,0-0.2-0.1
								c-0.1,0-0.1-0.1-0.2-0.1s-0.1-0.1-0.2-0.1c-0.1,0-0.1-0.1-0.2-0.1l3.5,1.1c0.1,0,0.1,0.1,0.2,0.1s0.1,0,0.2,0.1
								c0.1,0,0.1,0,0.2,0.1L36.4,44.9z"/>
						</defs>
						<clipPath id="SVGID_00000040551669988326934410000010902614710340802191_">
							<use xlink:href="#SVGID_00000176013914501221824560000007131655708756242326_"  style="overflow:visible;"/>
						</clipPath>
						<g style="clip-path:url(#SVGID_00000040551669988326934410000010902614710340802191_);enable-background:new    ;">
							<path class="st10" d="M32.2,43.5l3.5,1.1h0.1h0.1H36h0.1l-3.4-1.1h-0.1c0,0-0.1,0-0.1-0.1c0,0-0.1,0-0.1-0.1
								C32.3,43.5,32.2,43.5,32.2,43.5"/>
							<path class="st9" d="M32.7,43.7l3.4,1.1c0,0,0,0,0.1,0s0,0,0.1,0c0,0,0,0,0.1,0c0,0,0,0,0.1,0l-3.5-1h-0.1h-0.1
								C32.8,43.7,32.8,43.7,32.7,43.7C32.8,43.7,32.7,43.7,32.7,43.7"/>
						</g>
					</g>
				</g>
				<g class="st0">
					<g>
						<defs>
							<path id="SVGID_00000027589896948999580510000006501525439616455850_" d="M29.3,41.3l4,1.5c0,0,0,0,0.1,0.1l0.1,0.1l0.1,0.1
								l0.1,0.1l-4-1.4l-0.1-0.1l-0.1-0.1C29.4,41.4,29.4,41.4,29.3,41.3L29.3,41.3z"/>
						</defs>
						<clipPath id="SVGID_00000004517468542002914740000002914457954911280003_">
							<use xlink:href="#SVGID_00000027589896948999580510000006501525439616455850_"  style="overflow:visible;"/>
						</clipPath>
						<g style="clip-path:url(#SVGID_00000004517468542002914740000002914457954911280003_);enable-background:new    ;">
							<path class="st11" d="M29.3,41.3l4,1.5c0,0,0,0,0.1,0.1l0.1,0.1l0.1,0.1l0.1,0.1l-4-1.4l-0.1-0.1l-0.1-0.1
								C29.4,41.4,29.4,41.4,29.3,41.3L29.3,41.3"/>
						</g>
					</g>
				</g>
				<g class="st0">
					<g>
						<defs>
							<path id="SVGID_00000098932594364618230080000008777824026380298378_" d="M28.9,40.8l4.1,1.6c0,0,0,0.1,0.1,0.1
								s0.1,0.1,0.1,0.1l0.1,0.1l0.1,0.1l-4-1.5l-0.1-0.1l-0.1-0.1L29.1,41C28.9,40.9,28.9,40.8,28.9,40.8z"/>
						</defs>
						<clipPath id="SVGID_00000068638383413620173470000012908131887853085091_">
							<use xlink:href="#SVGID_00000098932594364618230080000008777824026380298378_"  style="overflow:visible;"/>
						</clipPath>
						<g style="clip-path:url(#SVGID_00000068638383413620173470000012908131887853085091_);enable-background:new    ;">
							<path class="st11" d="M28.9,40.8l4.1,1.6c0,0,0,0.1,0.1,0.1s0.1,0.1,0.1,0.1l0.1,0.1l0.1,0.1l-4-1.5l-0.1-0.1l-0.1-0.1
								L29.1,41C28.9,40.9,28.9,40.8,28.9,40.8"/>
						</g>
					</g>
				</g>
				<g class="st0">
					<g>
						<defs>
							<path id="SVGID_00000142866386670274493850000016249569304079504785_" d="M59.4,36.2l1.4-2.9c0.3-0.6,0.7-1.2,1.1-1.7
								c0.4-0.5,0.8-0.9,1.3-1.2c0.5-0.3,1-0.5,1.5-0.7c0.5-0.1,1.1-0.2,1.6-0.2c0.8,0,1.6,0.1,2.3,0.4c0.8,0.3,1.6,0.7,2.3,1.2
								s1.5,1.1,2.1,1.9s1.3,1.6,1.8,2.5c0.5,1,0.9,1.9,1.1,2.7s0.2,1.6,0.1,2.3s-0.4,1.3-0.7,1.8s-0.7,1-1.1,1.5c0,0,0,0-0.1,0.1
								l0,0l0,0c0,0,0,0-0.1,0.1l-3.7,1l0,0l0,0l0,0l0,0c0.4-0.4,0.7-0.7,0.9-1.2s0.5-1,0.6-1.5c0.1-0.6,0.1-1.2,0-1.9
								s-0.4-1.4-0.9-2.3c-0.4-0.8-0.9-1.5-1.5-2.1s-1.1-1.1-1.8-1.5s-1.3-0.7-1.9-1c-0.6-0.2-1.3-0.3-1.9-0.3
								c-0.5,0-0.9,0.1-1.3,0.2c-0.4,0.1-0.8,0.3-1.2,0.6s-0.8,0.6-1.1,1C60,35.2,59.7,35.6,59.4,36.2z"/>
						</defs>
						<clipPath id="SVGID_00000136402320299017002040000007633872301101518234_">
							<use xlink:href="#SVGID_00000142866386670274493850000016249569304079504785_"  style="overflow:visible;"/>
						</clipPath>
						<g style="clip-path:url(#SVGID_00000136402320299017002040000007633872301101518234_);enable-background:new    ;">
							<path class="st4" d="M74.1,44l-3.7,1l0,0l0,0l0,0l0,0c0.4-0.4,0.7-0.7,0.9-1.2s0.5-1,0.6-1.5c0.1-0.6,0.1-1.2,0-1.9
								S71.5,39,71,38.1c-0.4-0.8-0.9-1.5-1.5-2.1s-1.1-1.1-1.8-1.5s-1.3-0.7-1.9-1c-0.6-0.2-1.3-0.3-1.9-0.3
								c-0.5,0-0.9,0.1-1.3,0.2c-0.4,0.1-0.8,0.3-1.2,0.5s-0.8,0.6-1.1,0.9c-0.3,0.4-0.6,0.8-0.9,1.3l1.5-2.9
								c0.3-0.6,0.7-1.2,1.1-1.6c0.4-0.5,0.8-0.8,1.3-1.1s1-0.5,1.5-0.7c0.5-0.1,1.1-0.2,1.6-0.2c0.8,0,1.6,0.1,2.3,0.4
								c0.8,0.3,1.6,0.7,2.3,1.2s1.5,1.1,2.1,1.9s1.3,1.6,1.8,2.5c0.5,1,0.9,1.9,1.1,2.7s0.2,1.6,0.1,2.3s-0.4,1.3-0.7,1.8
								s-0.7,1-1.1,1.5C74.3,43.9,74.3,43.9,74.1,44C74.2,43.9,74.2,43.9,74.1,44C74.2,43.9,74.2,43.9,74.1,44
								C74.1,43.9,74.1,44,74.1,44"/>
							<path class="st3" d="M60.9,33.2l-1.5,2.9l0,0l0,0l0,0l0,0L60.9,33.2C60.9,33.3,60.9,33.3,60.9,33.2L60.9,33.2L60.9,33.2
								L60.9,33.2"/>
						</g>
					</g>
				</g>
				<g class="st0">
					<g>
						<defs>
							<path id="SVGID_00000013883077726284948920000016657327196462120336_" d="M35.4,28.5l3,3.7C36.9,33,35.8,34,35,35.1
								s-1.3,2.2-1.6,3.3s-0.4,2-0.5,2.7c0,0.7,0,1.2,0,1.3l-4.1-1.6c0-0.1,0-0.7,0-1.6c0.1-0.9,0.2-2,0.6-3.3s1-2.7,1.9-3.9
								S33.6,29.4,35.4,28.5z"/>
						</defs>
						<clipPath id="SVGID_00000020369563267161968500000000287989029417919665_">
							<use xlink:href="#SVGID_00000013883077726284948920000016657327196462120336_"  style="overflow:visible;"/>
						</clipPath>
						<g style="clip-path:url(#SVGID_00000020369563267161968500000000287989029417919665_);enable-background:new    ;">
							<path class="st4" d="M35.4,28.5l3,3.7c-0.5,0.3-1,0.6-1.4,0.9c-0.4,0.3-0.8,0.7-1.1,1c-0.3,0.4-0.6,0.7-0.9,1.1
								c-0.3,0.4-0.5,0.8-0.7,1.2l-3.8-2.8c0.2-0.5,0.5-0.9,0.8-1.4s0.7-0.9,1.1-1.3c0.4-0.4,0.9-0.9,1.4-1.2S34.8,28.8,35.4,28.5"
								/>
							<path class="st3" d="M30.4,33.6l3.8,2.8c-0.1,0.2-0.2,0.3-0.2,0.5c-0.1,0.2-0.1,0.3-0.2,0.5c-0.1,0.2-0.1,0.3-0.2,0.5
								c-0.1,0.2-0.1,0.3-0.1,0.5l-4-2.5c0.1-0.2,0.1-0.4,0.2-0.6s0.1-0.4,0.2-0.6s0.2-0.4,0.2-0.6S30.3,33.8,30.4,33.6"/>
							<path class="st2" d="M29.5,35.8l4,2.5c-0.1,0.2-0.1,0.3-0.1,0.5s-0.1,0.3-0.1,0.5s-0.1,0.3-0.1,0.5s0,0.3-0.1,0.4L29,38.1
								c0-0.2,0-0.3,0.1-0.5c0-0.2,0.1-0.4,0.1-0.6c0-0.2,0.1-0.4,0.1-0.6C29.4,36.3,29.4,36,29.5,35.8"/>
							<path class="st8" d="M29,38.1l4.1,2.1c0,0.2,0,0.4-0.1,0.6c0,0.2,0,0.3,0,0.5s0,0.3,0,0.4c0,0.1,0,0.2,0,0.3l-4.1-1.7
								c0-0.1,0-0.3,0-0.4s0-0.3,0-0.5s0-0.4,0-0.6S29,38.4,29,38.1"/>
							<path class="st9" d="M28.9,40.3L33,42c0,0.1,0,0.1,0,0.1v0.1v0.1l0,0l-4.1-1.6c0,0,0,0,0-0.1v-0.1v-0.1
								C28.9,40.4,28.9,40.4,28.9,40.3"/>
						</g>
					</g>
				</g>
				<g class="st0">
					<g>
						<defs>
							<path id="SVGID_00000178912201828903265350000009243879439291830719_" d="M43.4,31.6l1.6,3.2c-0.2-0.5-0.5-0.9-0.9-1.3
								s-0.7-0.7-1.1-0.9c-0.4-0.2-0.8-0.4-1.2-0.5c-0.4-0.1-0.9-0.2-1.4-0.2c-0.2,0-0.3,0-0.5,0s-0.3,0-0.5,0.1s-0.3,0.1-0.5,0.1
								s-0.4,0.1-0.5,0.2l-3-3.7c0.2-0.1,0.4-0.1,0.6-0.2s0.4-0.1,0.6-0.1c0.2,0,0.4-0.1,0.6-0.1s0.4,0,0.6,0c0.6,0,1.1,0.1,1.6,0.2
								s1,0.4,1.5,0.6s0.9,0.7,1.3,1.1C42.8,30.4,43.1,31,43.4,31.6z"/>
						</defs>
						<clipPath id="SVGID_00000047055362469191412980000006305108540924869796_">
							<use xlink:href="#SVGID_00000178912201828903265350000009243879439291830719_"  style="overflow:visible;"/>
						</clipPath>
						<g style="clip-path:url(#SVGID_00000047055362469191412980000006305108540924869796_);enable-background:new    ;">
							<path class="st4" d="M43.4,31.6l1.6,3.2c-0.2-0.5-0.5-0.9-0.9-1.3s-0.7-0.7-1.1-0.9c-0.4-0.2-0.8-0.4-1.2-0.5
								c-0.4-0.1-0.9-0.2-1.4-0.2c-0.2,0-0.3,0-0.5,0s-0.3,0-0.5,0.1s-0.3,0.1-0.5,0.1s-0.4,0.1-0.5,0.2l-3-3.7
								c0.2-0.1,0.4-0.1,0.6-0.2s0.4-0.1,0.6-0.1c0.2,0,0.4-0.1,0.6-0.1s0.4,0,0.6,0c0.6,0,1.1,0.1,1.6,0.2s1,0.4,1.5,0.6
								s0.9,0.7,1.3,1.1C42.8,30.4,43.1,31,43.4,31.6"/>
						</g>
					</g>
				</g>
				<g>
					<path class="st34" d="M66.6,5.6c3.9,1.6,8.1,4.1,11.7,7.8S85,22,86.7,28.6s1.9,15,0,25.4c0,0,0,0.1-0.1,0.2c0,0.1,0,0.1,0,0.2
						c0,0.1,0,0.1,0,0.2c0,0.1,0,0.1-0.1,0.2c-0.1,0.2-0.2,0.6-0.3,1.1c-0.1,0.5-0.3,1-0.5,1.7S85.3,59,85,59.8
						c-0.3,0.8-0.6,1.7-0.9,2.7c-0.1-3.5-0.8-6.3-1.7-8.7c-0.9-2.4-2.1-4.2-3.3-5.7c-1.2-1.4-2.4-2.4-3.3-3.1c-0.9-0.7-1.6-1-1.7-1
						c0,0,0,0,0.1-0.1s0,0,0,0l0,0c0,0,0,0,0.1-0.1c0.4-0.4,0.8-0.9,1.1-1.5s0.6-1.2,0.7-1.8c0.1-0.7,0.1-1.4-0.1-2.3
						c-0.2-0.8-0.5-1.7-1.1-2.7c-0.5-0.9-1.1-1.8-1.8-2.5s-1.4-1.4-2.1-1.9s-1.5-0.9-2.3-1.2c-0.8-0.3-1.6-0.4-2.3-0.4
						c-0.7,0-1.4,0.1-2.1,0.4c-0.7,0.2-1.3,0.6-1.8,1.1c-0.6,0.5-1.1,1.2-1.5,2s-0.8,1.7-1,2.9c-0.1,0.3-0.1,0.7-0.2,1
						c0,0.3-0.1,0.7,0,1s0,0.7,0.1,1s0.1,0.7,0.2,1c0.2,0.6,0.4,1.3,0.8,2c0.4,0.7,0.9,1.4,1.5,2c0.7,0.6,1.5,1.1,2.5,1.5
						s2.2,0.6,3.6,0.6c0.1,0,0.2,0,0.3,0c0.1,0,0.2,0,0.3,0s0.2,0,0.4,0c0.1,0,0.2,0,0.4-0.1c2.6,0.9,4.6,2.3,6.3,4s2.8,3.8,3.7,5.8
						c0.9,2.1,1.5,4.2,1.9,6c0.4,1.9,0.6,3.5,0.6,4.6c-1.3,3.2-2.9,6.7-4.9,10.2s-4.2,7-6.8,10.1c-2.6,3.1-5.5,5.8-8.8,7.7
						c-3.3,1.9-6.9,3-10.9,3c-0.1,0-0.2,0-0.3,0s-0.2,0-0.3,0s-0.2,0-0.3,0s-0.2,0-0.3,0l-0.9-0.1c-4.1-0.2-7.7-1.6-10.9-3.8
						c-3.2-2.2-5.9-5.1-8.2-8.5s-4.3-7.1-5.9-10.8c-1.6-3.8-2.9-7.5-3.8-10.9l0.8-3.3c0-0.2,0.2-1.3,0.5-2.8
						c0.4-1.5,0.9-3.5,1.7-5.4c0.8-2,2-3.9,3.4-5.4s3.3-2.6,5.6-2.8c0.2,0.1,0.5,0.2,0.7,0.3s0.5,0.1,0.7,0.2s0.4,0.1,0.7,0.1
						c0.2,0,0.4,0.1,0.7,0.1c0.1,0,0.2,0,0.3,0s0.2,0,0.3,0s0.2,0,0.3,0s0.2,0,0.3,0c1.2,0,2.3-0.2,3.2-0.5s1.6-0.7,2.3-1.2
						s1.1-1.1,1.5-1.7s0.7-1.2,0.9-1.7c0.1-0.3,0.2-0.7,0.3-1s0.2-0.7,0.2-1s0.1-0.7,0.1-1s0-0.7-0.1-1c-0.1-1.2-0.4-2.3-0.8-3.1
						c-0.4-0.9-0.9-1.6-1.5-2.2s-1.2-1-1.9-1.3s-1.5-0.4-2.3-0.4c-0.2,0-0.4,0-0.6,0s-0.4,0-0.6,0.1c-0.2,0-0.4,0.1-0.6,0.1
						s-0.4,0.1-0.6,0.2c-1.8,0.9-3.1,2.2-4,3.5s-1.5,2.7-1.9,3.9c-0.4,1.3-0.5,2.4-0.6,3.3c-0.1,0.9,0,1.5,0,1.6s0.1,0.1,0.1,0.1
						l0.1,0.1l0.1,0.1l0.1,0.1l0.1,0.1l0.1,0.1l0.1,0.1l0.1,0.1c-0.1,0.1-0.9,0.4-1.9,1s-2.3,1.6-3.6,2.9c-1.3,1.3-2.6,3-3.6,5.2
						c-1,2.1-1.7,4.7-1.8,7.7c-0.2-0.9-0.5-1.8-0.6-2.6s-0.3-1.5-0.5-2.2c-0.1-0.6-0.2-1.2-0.3-1.7c-0.1-0.5-0.1-0.8-0.2-1.1
						c0-0.1,0-0.1-0.1-0.2c0-0.1,0-0.1,0-0.2c0-0.1,0-0.1,0-0.2s0-0.1,0-0.2c-0.8-10.6,0.4-18.8,2.8-25.2s6-11,10-14.3
						s8.5-5.3,12.5-6.4S50.4,2.5,53,2.4c0.3,0,0.6,0,1,0s0.6,0,0.9,0C55.2,2.4,62.7,4,66.6,5.6z M61.4,70.1c0.1-1.5,0-3-0.3-4.4
						s-0.7-2.7-1.2-3.9s-1.2-2.3-2-3.2s-1.6-1.7-2.6-2.3c0-0.4,0.1-0.7,0.1-1.1c0-0.3,0.1-0.7,0.1-0.9c0-0.3,0.1-0.5,0.1-0.7
						s0.1-0.4,0.1-0.5c0.1-0.2,0.1-0.6,0-0.9c0-0.4-0.1-0.8-0.2-1.1c-0.1-0.4-0.3-0.7-0.4-1s-0.4-0.5-0.7-0.5l0,0l0,0l0,0l0,0
						c-0.2,0-0.4,0.2-0.5,0.5s-0.2,0.7-0.3,1.1c-0.1,0.4-0.1,0.8-0.1,1.2c0,0.3,0,0.6,0,0.6l-0.4,2.5c0,0-0.1-0.1-0.2-0.1
						s-0.1,0-0.2-0.1c-0.1,0-0.1,0-0.2,0c-0.1,0-0.1,0-0.2,0c-0.1,0-0.2,0-0.2,0s-0.2,0-0.3,0s-0.2,0-0.3,0s-0.2,0-0.2,0h-0.1
						c-0.1,0-0.3,0-0.4,0c-0.1,0-0.3,0-0.4,0s-0.3,0-0.4,0s-0.3,0-0.4,0.1c0-0.5,0-0.9,0-1.4s0-0.9,0-1.3c0-0.4,0-0.7,0-1
						s0-0.5,0-0.6c0-0.3,0-0.6-0.1-1s-0.2-0.7-0.4-1.1c-0.2-0.3-0.3-0.7-0.6-0.9c-0.2-0.2-0.5-0.4-0.7-0.5c-0.3,0-0.4,0.2-0.5,0.5
						s-0.1,0.7-0.1,1.2s0,0.9,0.1,1.2c0,0.3,0.1,0.6,0.1,0.6V56c-0.2,0.1-0.4,0.2-0.6,0.3c-0.2,0.1-0.4,0.2-0.6,0.4
						c-0.2,0.1-0.4,0.3-0.6,0.4c-0.2,0.1-0.4,0.3-0.6,0.4c0,0,0,0,0-0.1l0,0l0,0c0,0,0,0,0-0.1c0-0.3-0.2-0.6-0.3-0.9
						c-0.1-0.3-0.3-0.7-0.6-1c-0.2-0.3-0.5-0.6-0.7-0.8s-0.5-0.3-0.8-0.3s-0.4,0.3-0.5,0.6c0,0.3,0,0.8,0.1,1.2s0.2,0.9,0.3,1.2
						s0.2,0.6,0.2,0.6l0.3,1.8c-0.5,0.6-0.9,1.3-1.3,2s-0.7,1.5-1,2.3c-0.3,0.8-0.5,1.6-0.7,2.5s-0.3,1.8-0.3,2.7
						c-0.1,1.1,0,2.1,0.1,3.1s0.3,2,0.6,2.9s0.6,1.8,1,2.6s0.9,1.6,1.4,2.3c0,0.2-0.1,0.5-0.1,0.7s-0.1,0.4-0.1,0.6s0,0.3-0.1,0.4
						c0,0.1,0,0.2,0,0.3c0,0.3,0,0.6,0,1s0.1,0.8,0.3,1.1c0.1,0.4,0.3,0.7,0.5,1s0.4,0.5,0.7,0.5l0,0l0,0l0,0l0,0
						c0.2,0,0.4-0.2,0.5-0.5s0.2-0.7,0.2-1.1s0.1-0.8,0.1-1.2c0-0.3,0-0.6,0-0.6c0.3,0.2,0.6,0.4,0.9,0.6c0.3,0.2,0.6,0.4,0.9,0.5
						c0.3,0.2,0.6,0.3,1,0.4s0.7,0.2,1,0.3c0,0.1,0,0.1,0,0.1v0.1v0.1v0.1c0,0.2,0.1,0.6,0.1,0.9c0.1,0.3,0.2,0.7,0.4,1.1
						s0.4,0.7,0.6,0.9c0.2,0.2,0.5,0.4,0.8,0.4s0.4-0.2,0.5-0.5s0.1-0.7,0.1-1.2c0-0.4-0.1-0.9-0.1-1.2s-0.1-0.6-0.1-0.6V84
						c0.3,0,0.6-0.1,0.9-0.1c0.3-0.1,0.6-0.1,0.9-0.2c0.3-0.1,0.6-0.2,0.9-0.3c0.3-0.1,0.6-0.3,0.8-0.4v0.1v0.1v0.1v0.1
						c0,0.2,0.1,0.6,0.2,0.9c0.1,0.3,0.3,0.7,0.5,1s0.4,0.6,0.7,0.8c0.2,0.2,0.5,0.3,0.8,0.3s0.4-0.2,0.5-0.5s0-0.8,0-1.2
						c-0.1-0.4-0.1-0.9-0.2-1.2c-0.1-0.3-0.1-0.6-0.2-0.6l-0.2-1.5c0.7-0.6,1.3-1.3,1.9-2.1c0.6-0.8,1.1-1.7,1.5-2.6
						c0.4-1,0.8-2,1-3C61.1,72.4,61.3,71.3,61.4,70.1"/>
				</g>
			</g>
		</g>
	</g>
	<polygon class="st4" points="44.4,56.3 44.6,57.9 43,59.5 42.7,57.6 	"/>
	<polygon class="st4" points="48.3,50.7 48.3,54.5 47.4,55.8 47.4,50.9 47.8,50 	"/>
	<path class="st4" d="M20.4,23.8c0,0,7.2-5.8,17.7-7.2c0,0-12.2-0.5-14.7,1.3L20.4,23.8z"/>
	<path class="st4" d="M76.7,11.8c0,0-14.5,0.7-23.4,12.4c0,0,22-9.1,30-4C83.4,20.2,79.3,13,76.7,11.8z"/>
</g>
</svg>
