<?xml version="1.0" encoding="UTF-8"?>
<svg id="Calque_2" data-name="Calque 2" xmlns="http://www.w3.org/2000/svg" viewBox="0 0 367.35 358.23">
  <defs>
    <style>
      .cls-1 {
        fill: #fff;
      }
    </style>
  </defs>
  <path class="cls-1" d="m322.02,88.89c-17.13-26.36-40.86-46.99-68.65-59.67-26.11-11.92-55.29-16.72-84.39-13.88-29.16,2.84-56.94,13.21-80.34,30-24.88,17.85-44.24,42.73-55.97,71.92-17.35,42.69-15.69,91.7,4.55,134.46,19.84,41.92,55.83,73.59,98.7,86.89,15.5,4.95,31.32,7.31,46.98,7.31,64.12,0,125.58-39.55,151.62-102.9,21.34-50.19,16.55-109.24-12.5-154.13Zm5.39,151.18c-15.07,36.88-46.73,67.5-84.73,81.93-46.63,18.32-101.66,12.71-143.67-14.68-61.06-38.44-85.82-120.07-56.37-185.84C68.34,64.34,122.37,28.84,183.68,28.84h.01c61.82,0,116.31,35.8,142.19,93.4,16.5,37,17.07,81.03,1.54,117.78l-.02.04Z"/>
  <g>
    <path class="cls-1" d="m140.02,122.54c.04.15.09.29.14.43h.01c-.04-.14-.09-.28-.15-.43Z"/>
    <path class="cls-1" d="m197.09,159.75c.99-.82,1.95-1.59,3-2.27,9.65-6.29,20.65-7.95,33.65-5.06,2.85.63,5.67,1.47,8.41,2.29,1.48.44,3.01.9,4.52,1.31,6.71,1.84,12.33,2.29,17.69,1.41,8.18-1.35,14.81-4.9,19.72-10.55.75-.87,1.44-1.74,2.07-2.62-3.25,2.97-7.03,5.43-11.39,7.45-4.51,2.09-11.85,2.89-17.16,2.9-2.63,0-5.23-.5-7.67-1.48h0s2.65-.4,2.65-.4c18.32-2.76,30.1-12.85,34.99-29.99,2.29-8.01,1.93-14.97,1.23-19.39-.58-3.68-1.63-7.03-2.98-9.68-.15,15.31-6.69,28.26-19.47,38.55-9.08,7.31-23.36,9.73-29.6,8.24l-4.43-1.06,4.41-1.16c10.81-2.83,18.39-8.12,23-16.1-.96.91-1.95,1.79-2.99,2.62-5.36,4.25-11.75,7.2-20.71,9.56-.8.21-1.6.42-2.4.63-5.54,1.45-11.26,2.94-16.71,4.84-10.81,3.77-17.31,10.31-19.84,19.97Z"/>
    <path class="cls-1" d="m254.59,172.99l7.17.1c5.4.07,9.78-.4,13.79-1.48,2.16-.58,4.14-1.33,5.97-2.26-1.68.4-3.46.67-5.37.83-9.37.76-18.61-.56-27.45-3.93-1.18-.45-2.37-.92-3.53-1.37-4.61-1.81-9.38-3.69-14.32-4.69-5.39-1.1-9.56-1.21-13.51-.36-5.54,1.19-10.02,3.7-13.62,7.63,2.19-.35,4.45-.53,6.89-.53.88,0,1.78.02,2.7.07,7.6.37,14.33,2.79,19.99,7.22,4.39,3.43,8.11,7.57,11.7,11.57.63.7,1.26,1.4,1.9,2.1,3.99,4.39,7.66,7.61,11.53,10.11,7.14,4.6,14.37,6.23,22,4.92-4.58-.37-9.1-1.66-13.85-3.92-6.99-3.33-12.53-7.36-16.94-12.32l-4.26-4.78,5.65,3.02c18.43,9.86,35.64,8.41,51.14-4.31,8.33-6.83,13.02-18.88,13.79-27.07-2.7,4.93-6.49,9.36-11.67,13.71-5.78,4.85-12.69,8-20.55,9.37-8.23,1.44-15.54,1.01-22.35-1.31l-6.79-2.31Z"/>
    <path class="cls-1" d="m175.44,199.01c.11-.72.17-1.43.19-2.1-1.17,1.3-2.29,2.53-3.54,3.68-5.06,4.63-11.34,7.89-18.69,9.68-4.74,1.15-10.01,2.19-16.11,3.15-8.71,1.38-16.09,3.79-22.55,7.38-5.43,3.01-9.72,7.04-12.79,12.02,3.7-4.08,8.56-8.71,12.14-9.5h.03s4.44-.93,4.44-.93l-3.47,2.92c-2.35,1.98-4.45,4.18-6.23,6.54-4.83,6.42-7.68,13.75-8.47,21.78-1.16,11.76,1.56,22.51,8.08,31.99-1.22-4.73-1.7-9.61-1.45-14.58.34-6.61,1.96-13.08,4.81-19.21,5.48-11.77,15.02-20.84,25.51-24.26l5.45-1.78-4.36,3.73c-9.66,8.26-14.87,17.34-15.79,27.61,2.18-5.24,5.15-9.99,8.88-14.17,4.57-5.13,10.1-9.67,17.91-14.74.57-.37,1.14-.74,1.71-1.11,4.24-2.74,8.63-5.58,12.69-8.66,6.49-4.93,10.4-11.47,11.6-19.44Z"/>
    <path class="cls-1" d="m203.58,272.15c-3.04-8.45-3.7-16.02-2.04-23.14.09-.4.17-.79.25-1.22.04-.2.08-.4.12-.6l1.04-5.18,1.19,5.15c.18.8.36,1.59.54,2.39.67,3.02,1.3,5.87,2.35,8.63,1.34,3.51,3.21,6.78,5.54,9.72.97,1.23,2.02,2.4,3.06,3.43-1.87-3.5-3.34-7.46-4.46-11.96-1.95-7.87-2.1-15.75-1.73-25.17.02-.53.04-1.06.07-1.59.18-4.42.37-8.98-.15-13.45-.95-8.16-3.77-14.64-8.6-19.83-1.6-1.71-3.12-3.05-4.74-4.15.17.8.34,1.61.51,2.4.54,2.46,1.09,5.01,1.38,7.57.85,7.38-.4,14.9-3.91,23.66-.61,1.51-1.22,3.02-1.84,4.53-.94,2.31-1.91,4.69-2.84,7.05-3.43,8.75-4.64,17.8-3.58,26.9.82,7.04,3.13,13.26,6.88,18.58-2.22-4.14-3.66-8.65-4.31-13.5l-1.27-9.44,3.46,8.87c3.56,9.15,9.38,16.52,17.29,21.91,6.98,4.76,14.43,7.11,22.2,7-2.11-.93-4.28-1.91-6.27-3.17-9.47-6.01-16.24-14.55-20.14-25.4Z"/>
    <path class="cls-1" d="m185.77,198.21c-.12.63-.24,1.27-.38,1.9-1.61,7.35-5.24,13.88-10.79,19.4-2.41,2.4-5.04,4.62-7.59,6.77-1.46,1.23-2.96,2.5-4.4,3.79-.73.65-1.48,1.3-2.21,1.93-2.19,1.89-4.46,3.84-6.29,6.04-8.76,10.53-12.24,22.31-10.35,35.02.97,6.52,3.19,12.48,6.59,17.71,5.02,7.71,11.8,13.56,20.71,17.84-6.35-6.39-10.9-14.37-13.56-23.79-1.56-5.5-2.02-11.48-1.39-17.77.68-6.72,3.07-12.9,7.09-18.37.76-1.03,1.56-2.05,2.33-3.03.36-.45.71-.91,1.07-1.37l3.2-4.14-1.19,5.1c-.41,1.76-.94,3.45-1.44,5.09-.39,1.26-.76,2.45-1.08,3.68-.66,2.51-.99,5.28-.99,8.48,0,2.97.36,5.9,1.07,8.71.2.77.43,1.54.71,2.3-.23-7.58,1.42-14.96,4.92-21.96,2.35-4.71,5-9.36,7.57-13.85.48-.84.96-1.68,1.44-2.52l.37-.64c2.61-4.59,5.31-9.34,6.92-14.46,2.35-7.49,1.6-14.66-2.32-21.84Z"/>
    <path class="cls-1" d="m136.59,80.64c3.5,2.17,6.54,4.78,9.04,7.77,4.83,5.78,7.96,12.54,9.3,20.08.05.3.11.6.17.91.34,1.7.72,3.62.14,6.02l-.91,3.74-1.28-3.63c-2.19-6.23-5.32-11.27-9.57-15.43-3.11-3.04-6.27-5.28-9.57-6.75,2.27,2.04,4.44,4.49,6.56,7.39,5.11,7,8.27,15.34,9.65,25.5.54,3.97,1.23,8.66,2.28,13.29,1.72,7.61,5.27,13.8,10.54,18.39,1.6,1.39,3.31,2.59,5.11,3.58-4.57-9.38-5.85-18.46-3.92-27.75.52-2.5,1.09-5.04,1.63-7.49.32-1.41.63-2.82.94-4.24,1.77-8.11,1.99-14.42.7-20.44-2.04-9.52-6.84-17.34-14.28-23.24-9.39-7.45-20.53-10.27-34.07-8.61-4.35.53-8.6,1.75-12.69,3.63,10.96-.79,21.11,1.65,30.21,7.28Z"/>
    <path class="cls-1" d="m137.8,204.78c4.97-.43,9.81-.96,14.42-2.63,6.98-2.53,11.99-6.35,15.26-11.66-.22.07-.43.13-.64.2-2.24.68-4.56,1.39-6.89,1.86-5.53,1.12-11.34.74-18.3-1.2-2.73-.76-5.45-1.68-8.09-2.57-1.61-.54-3.28-1.1-4.92-1.62-5.15-1.62-10.07-2.43-14.86-2.43-3.11,0-6.16.34-9.2,1.01-11.14,2.48-20.41,8.02-27.57,16.46-8.21,9.68-11.95,21.27-11.1,34.43.03.54.08,1.08.14,1.62.91-3.91,2.42-7.88,4.55-12.03,5.53-10.76,13.57-18.67,23.89-23.53,6.48-3.05,13.58-4.6,21.09-4.6.03,0,.06,0,.1,0,.66,0,1.27-.02,1.86-.04,2.27-.08,4.41-.16,8.36.91l6.83,1.85-7.06.39c-13.99.77-24.79,6.74-30.85,13.34,7-4.52,15.05-7.31,23.94-8.29,3.79-.42,7.64-.67,11.37-.92,2.52-.17,5.12-.34,7.68-.56Z"/>
    <path class="cls-1" d="m187.28,65.61h0c5.8,9.08,7.98,18.83,6.49,28.98-.76,5.16-2.82,10.07-6.3,15l-2.89,4.1.84-4.95c1.76-10.36.76-18.54-3.16-25.24,1.04,5.1,1.14,10.46.3,16.27-.89,6.13-2.97,11.84-5.22,17.63-.33.86-.67,1.72-1.01,2.59-1.3,3.29-2.65,6.7-3.59,10.12-2.72,9.81-1.29,18.52,4.23,25.89-.2-8.52,2.2-16.31,7.3-23.72,2.37-3.45,5.16-6.66,7.86-9.76.47-.54.93-1.07,1.4-1.61,3.09-3.57,6.59-7.63,9.22-12.13,8.33-14.22,6.56-32.69-4.28-44.9-7.43-8.36-16.96-13.14-28.36-14.24,7.05,3.7,12.7,8.97,17.19,15.99Z"/>
    <path class="cls-1" d="m101.79,118.5c9.76,1.96,18.01,6.61,24.53,13.82,1.54,1.7,2.69,3.35,3.73,5.34l2.45,4.67-4.16-3.24c-7.98-6.22-16.38-9.33-25.5-9.42,8.68,2.29,16.36,6.88,22.85,13.66,3.02,3.15,5.84,6.56,8.57,9.86,1.55,1.87,3.16,3.81,4.77,5.68,5.05,5.81,10.62,9.48,17.03,11.21,2.89.78,5.3,1.09,7.59.96-6.61-4.46-11.65-10.8-14.96-18.85-1.63-3.95-2.93-8-4-11.44-2.22-7.19-5.75-16.3-13.43-23.08-3.11-2.74-5.94-4.64-8.91-5.97-9.79-4.38-20.21-5.36-30.97-2.92-9.67,2.2-17.92,6.66-24.59,13.28,2.83-1.28,5.8-2.27,9.07-3.05,8.63-2.05,17.35-2.22,25.92-.5Z"/>
    <path class="cls-1" d="m105.35,161.02l5.6,1.98-5.93.24c-7.12.28-12.41,1.37-17.16,3.53-3.98,1.81-7.15,3.86-9.75,6.38,4.62-2.37,9.81-3.91,15.74-4.66,1.81-.23,3.65-.34,5.51-.34,4.87,0,9.87.79,14.93,2.36,4.55,1.41,8.74,3.66,12.78,5.83.73.39,1.46.78,2.19,1.17,3.33,1.76,6.78,3.58,10.32,4.89,8.47,3.11,16.44,2.71,23.7-1.21-8.95-1.09-16.96-4.92-24.47-11.7-2.74-2.48-5.63-5.24-9.08-8.69-6.83-6.83-14.92-10.77-24.73-12.03-5.36-.69-10.53-.47-15.38.65-12.82,2.96-23.07,9.73-30.44,20.11-3.77,5.31-6.28,10.09-7.78,14.83,3.44-5.08,7.69-9.58,12.67-13.39,9.01-6.91,18.21-10.69,28.14-11.55,4.57-.4,8.99.15,13.15,1.62Z"/>
    <path class="cls-1" d="m231.56,231.96l-1.82-7.55,3.91,6.71c4.22,7.24,10.17,12.4,18.1,15.66-3.93-3.05-7.3-6.62-10.04-10.65-3.3-4.85-6.16-10.13-8.74-16.16-1.88-4.39-3.92-8.83-6.24-13.58-2.4-4.91-5.17-8.77-8.47-11.8-4.18-3.84-9.05-6.13-14.82-6.96,6.45,6.42,10.66,14.67,12.85,25.16.69,3.28.97,6.67,1.25,9.95.13,1.58.27,3.22.45,4.82.1.85.17,1.71.25,2.54.2,2.21.39,4.29.9,6.31,3.54,13.84,10.64,23.71,21.7,30.17,11.7,6.84,23.95,8,36.46,3.47-9.73-.25-18.65-3.63-27.12-10.25-9.88-7.73-15.98-16.83-18.62-27.82Z"/>
    <path class="cls-1" d="m277.88,222.13c-8.4-1.8-16.02-5.77-22.63-11.78-3.92-3.56-7.04-7.83-10.06-11.95l-.43-.59c-2.9-3.97-6.34-8.53-10.36-12.39-6.43-6.19-12.61-9.18-19.44-9.42-3.41-.12-6.43.33-9.3,1.41.33.09.65.19.97.3,7.51,2.58,14.1,7.22,19.6,13.78,3.07,3.67,5.86,8.07,8.52,13.47,3,6.07,5.75,11.02,9.43,15.43,5.54,6.63,12.61,11.22,21.02,13.65,6.98,2.02,14.02,2.15,20.93.41,11.24-2.84,20.01-8.85,26.13-17.89-3.55,2.41-7.58,4.2-12.02,5.34-7.1,1.83-14.62,1.91-22.38.24Z"/>
    <path class="cls-1" d="m186.74,150.53c.03,1.76.15,3.61.67,5.47,2.74-5.93,6.81-11.04,12.43-15.59,2.96-2.4,14.97-8,21.08-9.82,3.45-1.03,6.5-1.73,9.2-2.34,7.93-1.8,13.17-3,19.98-10.27.86-.91,1.98-2.98,2.85-5.1-2.98,3.21-7.78,7.1-13.9,7.79l-2.62.29,1.58-2.11c.66-.89,1.42-1.62,2.14-2.32l.3-.29c2.46-2.4,4.32-4.92,5.68-7.7,3.56-7.28,4.76-14.72,3.66-22.74-1.25-9.18-5.07-17.02-11.64-23.91,3.9,9.68,4.28,20.77.94,31.14-3.64,11.31-11.17,20.39-20.65,24.91l-4.62,2.2,3.25-3.95c4.01-4.89,6.45-8.95,7.89-13.19,1.12-3.28,1.77-6.23,1.97-8.99-2.41,6.37-6,11.98-10.69,16.69-3.87,3.89-7.99,7.63-11.97,11.25-.62.56-1.23,1.12-1.85,1.68l-.17.15c-4.32,3.94-8.4,7.65-11.38,12.5-2.87,4.68-4.22,9.34-4.13,14.25Z"/>
    <path class="cls-1" d="m140.02,122.54c.06.15.12.29.15.43h0c-.45-1.76-4.02-14.39-15.41-19.94-12.26-5.97-28.28-.99-29.66.28,0,0,3.6-.2,7.77-.28,15.18.4,27.57,6.67,36.76,20.08l.53-.14c-.05-.14-.1-.29-.14-.43Z"/>
    <path class="cls-1" d="m139.92,123.53c.09-.11.19-.22.28-.33l-.45.09c.05.08.11.16.16.23Z"/>
    <path class="cls-1" d="m219.04,248.2c-.31,32.12,31.04,26.92,31.04,26.92-26.92-5.97-31.04-26.92-31.04-26.92Z"/>
    <path class="cls-1" d="m172.27,102.16s2.79-6.49.52-13.88c-2.27-7.4-12.52-11.46-12.52-11.46,12.04,8.7,11.99,25.34,11.99,25.34Z"/>
    <path class="cls-1" d="m90.7,141.98c-8.53.62-13.65,7.55-13.65,7.55,0,0,5.25-1.77,10.02-3.08,6.3-1.24,12.76-1.36,19.27-1.12,0,0-3.94-4.2-15.64-3.35Z"/>
    <path class="cls-1" d="m137.14,254.45c-1.59,7.68,1.19,12.88,1.19,12.88.78-4.01,1.56-8.01,2.34-12.01.81-4.14,2.95-7.76,4.69-11.54,0,0-6.64,2.99-8.23,10.67Z"/>
    <path class="cls-1" d="m285.69,238.54c-22.04,5.66-34.92-6.01-34.92-6.01,10.03,18.27,34.92,6.01,34.92,6.01Z"/>
    <path class="cls-1" d="m274.67,217.71s22.58,5.66,31.89-6.52c0,0-13.5,7.37-31.89,6.52Z"/>
  </g>
</svg>