<?xml version="1.0" encoding="UTF-8"?>
<svg id="Calque_2" data-name="Calque 2" xmlns="http://www.w3.org/2000/svg" viewBox="0 0 367.35 358.23">
  <defs>
    <style>
      .cls-1 {
        fill: #ffae00;
      }

      .cls-2 {
        fill: #0098ff;
      }

      .cls-3 {
        fill: #ac0000;
      }
    </style>
  </defs>
  <path class="cls-2" d="m112.66,55.84s-15.01-5.48-19.06-8.49c-3.02-4.05-8.49-19.06-8.49-19.06,0,0-5.48,15.01-8.49,19.06-4.05,3.02-19.06,8.49-19.06,8.49,0,0,15.01,5.48,19.06,8.49,3.02,4.05,8.49,19.06,8.49,19.06,0,0,5.48-15.01,8.49-19.06,4.05-3.02,19.06-8.49,19.06-8.49Z"/>
  <path class="cls-1" d="m330.79,90.27s-26.89-9.81-34.14-15.22c-5.4-7.25-15.22-34.14-15.22-34.14,0,0-9.81,26.89-15.21,34.14-7.25,5.4-34.14,15.22-34.14,15.22,0,0,26.89,9.81,34.14,15.22,5.4,7.25,15.21,34.14,15.21,34.14,0,0,9.81-26.89,15.22-34.14,7.25-5.4,34.14-15.22,34.14-15.22Z"/>
  <path class="cls-3" d="m56.28,212.42s59.46-21.7,75.49-33.64c11.95-16.04,33.64-75.49,33.64-75.49,0,0,21.69,59.45,33.64,75.49,16.03,11.95,75.49,33.64,75.49,33.64,0,0-59.46,21.7-75.49,33.64-11.95,16.04-33.64,75.49-33.64,75.49,0,0-21.7-59.45-33.64-75.49-16.03-11.95-75.49-33.64-75.49-33.64Z"/>
</svg>