<?xml version="1.0" encoding="UTF-8"?>
<svg id="Calque_1" data-name="Calque 1" xmlns="http://www.w3.org/2000/svg" viewBox="0 0 99.96 99.9">
  <defs>
    <style>
      .cls-1 {
        fill: #fff;
      }
    </style>
  </defs>
  <path class="cls-1" d="m49.65,0C21.57.28-.17,22.88,0,50.24c.18,28.53,24.08,51.24,52.95,49.58,25.97-1.49,47.09-23.34,47.01-49.99C99.99,23.29,78.17-.28,49.65,0Zm-.03,94.7c-25.16-.1-45.33-21.1-44.42-46.33C6.08,24.04,26.07,5.09,49.91,5.18c25.4.05,44.73,20.18,44.86,44.26.13,26.2-20.54,45.36-45.14,45.27Z"/>
  <path class="cls-1" d="m75.02,49.25c-.13-6.1-1.74-11.74-5.17-16.82-.74-1.1-1.51-2.18-2.38-3.18-.73-.85-1.75-1.05-2.82-.65-1.1.41-1.66,1.25-1.75,2.4-.07.93.49,1.61,1.02,2.27,3.35,4.2,5.14,9,5.56,14.32.41,5.24-.66,10.19-3.04,14.87-.09.18-.24.34-.44.63-1.01-1.05-1.93-2.04-2.88-3-.31-.32-.34-.57-.15-.98,3.04-6.73,2.93-13.37-.61-19.9-.52-.96-1.14-1.89-1.81-2.76-.87-1.12-2.49-1.32-3.58-.54-1.21.86-1.5,2.17-.74,3.49.29.5.64.96.94,1.45,2.89,4.64,3.21,9.56,1.58,14.75-.17-.13-.3-.21-.41-.31-2-2-3.98-4.03-6.01-6-.59-.57-.81-1.17-.8-1.99.03-6.96.03-13.92-.01-20.88,0-.57-.21-1.37-.62-1.65-.6-.43-1.2.18-1.68.63-3.5,3.33-7,6.67-10.61,10.11-.3-.28-.62-.56-.91-.85-2.71-2.71-5.42-5.43-8.14-8.12-1.04-1.03-2.53-1.05-3.59-.12-1.09.97-1.22,2.48-.28,3.64.42.52.91,1,1.39,1.48,12.42,12.41,24.85,24.82,37.27,37.24,1.77,1.77,3.53,3.55,5.31,5.32.8.79,1.7,1.36,2.89,1.05,2-.52,2.68-2.75,1.28-4.33-1.03-1.16-2.16-2.23-3.28-3.31-.42-.41-.51-.71-.18-1.27,3.07-5.24,4.78-10.86,4.65-16.99Z"/>
  <path class="cls-1" d="m51.53,63.34c0-.39-.2-.88-.47-1.16-6.41-6.48-12.85-12.93-19.28-19.38-1.54-1.54-3.13-3.03-4.66-4.58-.55-.56-1.12-.57-1.53-.04-.35.45-.63,1.1-.64,1.66-.06,3.2-.03,6.41-.03,9.61h.02c0,3.18,0,6.36,0,9.53,0,1.68.72,2.37,2.38,2.38,2.2,0,4.41.03,6.61,0,1.73-.03,3.13.55,4.37,1.77,3.56,3.49,7.17,6.92,10.78,10.35.49.47,1.01,1.15,1.8.8.76-.34.67-1.16.67-1.85.01-3.03.02-6.06-.02-9.08Z"/>
</svg>