<?xml version="1.0" encoding="UTF-8"?>
<svg id="Calque_1" data-name="Calque 1" xmlns="http://www.w3.org/2000/svg" viewBox="0 0 367.35 358.23">
  <defs>
    <style>
      .cls-1 {
        fill: #30006b;
      }

      .cls-2 {
        fill: #7300ff;
      }
    </style>
  </defs>
  <path class="cls-1" d="m210.97,164.4c.46,1.04.7,1.65.7,1.65-.04-.43-.3-1-.7-1.65Z"/>
  <path class="cls-1" d="m299.87,53.08l-.32.13s-37.05,7.99-74.1-1.87c-2.65-.67-5.28-1.47-7.9-2.39-10.66-3.62-21.1-8.89-30.42-16.42-2.58-1.43-4.4-1.43-7-.02-43.79,35.43-112.17,20.76-112.44,20.71-.02.66-.03,1.33-.03,1.98-.04,23.87-.02,47.74-.03,71.6,0,23.61-.09,47.23.08,70.84.03,4.01.37,8.36,1.95,11.94,3.39,7.66,7.05,15.34,11.71,22.27,25.53,37.99,58.6,68.12,97.42,92.12,3.49,2.16,6.7,2.02,9.94-.33,13.93-10.09,28.45-19.48,41.67-30.43,23.71-19.64,44.31-42.26,60.17-68.85,4.77-8,9.3-16.25,9.31-25.96.05-48.25.03-96.49,0-144.74,0-.2-.02-.38-.02-.58ZM115.25,198.66c6.11-3.32,7.13,2.59,3.65,6.8,0,0-3.53,4.07-11.98,8.86,0,0,2.21-12.33,8.32-15.65Zm60,39.01s-4.33,10.21-12.47,13.37c-8.14,3.17-17.05,7.53-17.05,7.53,0,0,11.35-14.55,14.76-17.58,3.41-3.03,15.28-10.95,14.76-3.32Zm70.28-53.5c.96-4.79,2.91-13.87,4.89-19.58,2.8-8.04,11.66-38.65-16.11-55.15,0,0,9.59,8.94,12.97,22.46,2.63,10.52.17,24.35-4.89,35.43-5.25,11.48-1.45,17.25-14.78,36.76l-9.19,8.37c-9.64,8.78-21.64,14.55-34.52,16.6,7.86-9.26,18.69-7.34,16.04-22.18-2.65-14.84-12.08-3.94-14.05-.13-1.97,3.81-6.21,16.28-12.38,17.86-19.16,4.89-21.53,13.96-25.19,14.32-7.95.79-15.72,5.41-15.72,5.41.17-2.97,5.36-5.16,7.26-10.75,1.9-5.6-5.37,0-5.37,0l-8.27,5.8c-4.35-4.43-8.57-9.01-11.26-14.56,12.95-15.95,24.24-29.99,25.97-32.63,4.37-6.64.35-10.31-3.84-11-3.06-.51-9.21,3.64-12.31,5.91-.42.31-.96-.19-.68-.64,2.36-3.71,7.83-11.42,13.57-18.11,7.34-8.56,18.39-13.02,20.44-15.05,2.04-2.03,13.92-12.12,5.89-17.88-8.04-5.76-15.72,9.36-15.72,9.36-.52-2.34,1.34-10.97,1.34-10.97.95-9.29,38.76-42.12,71.08-40.1-9.15.44-21.81,4.91-34.29,21.97,0,0-10.83,22.45,16.59,39.91,0,0,5.9,5.47,7.97,8.81-1.65-3.72-6.08-12.9-12.16-19.11-7.79-7.94-12.78-11.7-1.39-33.71,3.9-7.54,9.45-11.73,15.05-13.97,11.41-4.57,24.41-1.49,33.09,7.22,1.06,1.07,2.1,2.22,3.1,3.46,22.43,27.78,7.88,59.25-3.12,75.89Z"/>
  <path class="cls-2" d="m245.55,104.82c-8.68-8.7-21.68-11.79-33.09-7.22-5.6,2.25-11.15,6.43-15.05,13.97-11.39,22.01-6.4,25.77,1.39,33.71,6.09,6.21,10.52,15.4,12.16,19.11.4.65.66,1.22.7,1.65,0,0-.24-.61-.7-1.65-2.07-3.33-7.97-8.81-7.97-8.81-27.42-17.47-16.59-39.91-16.59-39.91,12.48-17.06,25.14-21.53,34.29-21.97-32.32-2.02-70.13,30.81-71.08,40.1,0,0-1.87,8.64-1.34,10.97,0,0,7.69-15.13,15.72-9.36,8.04,5.76-3.84,15.86-5.89,17.88-2.04,2.03-13.1,6.49-20.44,15.05-5.74,6.69-11.21,14.4-13.57,18.11-.28.44.26.95.68.64,3.1-2.28,9.25-6.42,12.31-5.91,4.19.7,8.21,4.37,3.84,11-1.74,2.64-13.02,16.68-25.97,32.63,2.69,5.55,6.91,10.13,11.26,14.56l8.27-5.8s7.27-5.6,5.37,0c-1.9,5.6-7.08,7.78-7.26,10.75,0,0,7.77-4.63,15.72-5.41,3.65-.36,6.03-9.43,25.19-14.32,6.17-1.57,10.41-14.04,12.38-17.86,1.97-3.81,11.39-14.72,14.05.13,2.65,14.84-8.17,12.92-16.04,22.18,12.88-2.05,24.88-7.82,34.52-16.6l9.19-8.37c13.33-19.51,9.53-25.28,14.78-36.76,5.06-11.08,7.52-24.91,4.89-35.43-3.38-13.52-12.97-22.46-12.97-22.46,27.77,16.51,18.91,47.12,16.11,55.15-1.98,5.71-3.93,14.79-4.89,19.58,11-16.64,25.55-48.11,3.12-75.89-1-1.24-2.04-2.39-3.1-3.46Z"/>
  <path class="cls-2" d="m160.49,240.99c-3.41,3.03-14.76,17.58-14.76,17.58,0,0,8.91-4.37,17.05-7.53,8.14-3.17,12.47-13.37,12.47-13.37.52-7.63-11.35.29-14.76,3.32Z"/>
  <path class="cls-2" d="m118.9,205.45c3.48-4.21,2.46-10.11-3.65-6.8-6.11,3.32-8.32,15.65-8.32,15.65,8.45-4.79,11.98-8.86,11.98-8.86Z"/>
  <path class="cls-2" d="m323.17,23.09v-4.84c-2.3.71-4.1,1.28-5.91,1.82-45.89,13.81-89,7.74-129.17-18.38-3.39-2.2-5.52-2.28-8.93-.02-33.9,22.43-70.98,30.08-110.99,22.91-7.99-1.43-15.8-3.8-24.12-5.85v2.41c0,61.93-.02,123.86.06,185.78,0,2.62.51,5.37,1.38,7.84,4.53,12.76,11.9,23.98,19.74,34.84,31.5,43.59,70.44,79.22,115.91,107.84,2.25,1.41,3.58.77,5.43-.39,33.54-21.02,63.45-46.36,89.84-75.83,15.36-17.15,29.39-35.3,40.47-55.59,4.23-7.75,6.46-15.73,6.42-24.79-.27-59.25-.13-118.49-.13-177.74Zm-92.77,270.12c-13.22,10.95-27.74,20.34-41.67,30.43-3.24,2.35-6.45,2.49-9.94.33-38.82-24-71.89-54.13-97.42-92.12-4.66-6.93-8.32-14.61-11.71-22.27-1.58-3.58-1.92-7.94-1.95-11.94-.17-23.61-.08-47.23-.08-70.84,0-23.87,0-47.74.03-71.6,0-.65.01-1.31.03-1.98.26.06,68.64,14.72,112.44-20.71,2.6-1.42,4.42-1.41,7,.02,9.32,7.54,19.76,12.8,30.42,16.42,2.62.92,5.25,1.72,7.9,2.39,37.06,9.86,74.1,1.87,74.1,1.87l.32-.13c0,.19.02.38.02.58.03,48.25.04,96.49,0,144.74,0,9.71-4.54,17.96-9.31,25.96-15.86,26.6-36.47,49.21-60.17,68.85Z"/>
</svg>