<?xml version="1.0" encoding="UTF-8"?>
<svg id="Calque_2" data-name="Calque 2" xmlns="http://www.w3.org/2000/svg" viewBox="0 0 367.35 358.23">
  <defs>
    <style>
      .cls-1 {
        fill: #795c7a;
      }

      .cls-2 {
        fill: #6e003e;
      }

      .cls-3 {
        fill: #bf91c1;
      }

      .cls-4 {
        fill: #ffb8e3;
      }
    </style>
  </defs>
  <path class="cls-4" d="m310.69,175.77c-.05,11.44-1.95,23.04-5.44,34.32,2.76-2.19,5.5-4.42,8.21-6.69,6.58-5.54,12.82-11.49,19.24-17.28-3.08-2.68-11.67-7.32-22.05-12.29,0,.65.04,1.29.04,1.94Z"/>
  <path class="cls-1" d="m292.33,280.88c.75-.49,1.51-.98,2.25-1.48-.75.5-1.5.98-2.25,1.48,0,0,0,0,0,0Z"/>
  <path class="cls-3" d="m264.58,297.34h0c-.48.25-.95.51-1.43.76.48-.25.95-.51,1.43-.76Z"/>
  <path class="cls-3" d="m22.4,277.08h0c-.4-.27-.79-.56-1.18-.83.4.28.79.56,1.18.83Z"/>
  <path class="cls-4" d="m150.42,144.02c-7.82,1.46-15.62,2.99-23.44,4.42-2.27.42-3.41,1.74-4.1,3.85-4.07,12.53-4.56,25.27-1.52,38,6.46,27.11,32.19,47.99,60.37,48.51,17.55.33,33.06-4.63,45.92-16.45,21.28-19.55,25.67-43.63,17.85-70.68-.53-1.84-1.56-2.74-3.29-3.12-3.93-.86-7.84-1.86-11.8-2.57-4.94-.89-9.93-1.55-14.89-2.32-.12.23-.24.46-.36.69,8.26,9.05,12.73,19.49,12,31.84-.74,12.47-5.99,22.79-15.58,30.6-16.53,13.47-38.98,13.6-55.9-1.04-13.77-11.92-22.84-38.9-2.22-61.76-1.38,0-2.24-.13-3.04.02Z"/>
  <path class="cls-4" d="m87.42,173.72c-.21-4.34-.08-8.64.34-12.9-7.65,2.91-15.2,6.06-22.65,9.51.02,1.06.02,2.12.08,3.18v.2s0,.2,0,.2c-.96,14.25,1.31,28.75,6.45,42.55,13.8,10.41,28.34,19.54,43.87,26.86-1.15-1.13-2.28-2.28-3.37-3.48-17.24-18.67-26.24-42.76-24.72-66.14Z"/>
  <path class="cls-4" d="m280.44,160.55c.68,4.82,1.03,9.75,1.01,14.78-.1,24.63-11.22,50.23-29.75,68.46-.03.03-.07.07-.1.1.4-.19.81-.36,1.21-.55,15.03-7.11,29.02-15.8,42.31-25.55,5.51-13.6,8.56-27.95,8.61-42.06,0-1.75-.04-3.48-.11-5.21-7.67-3.52-15.82-7.03-23.19-9.98Z"/>
  <path class="cls-4" d="m272.9,157.63c-7.6-2.83-13.61-4.68-16.08-4.7,5.84,22.46,2.92,43.6-10.05,62.96-13.08,19.51-31.72,30.3-54.86,33.08-19.04,2.28-36.66-2.6-51.77-14.13-27.36-20.87-36.1-48.79-28.57-82.22-5.56,1.71-11.04,3.55-16.47,5.49-.72,5.08-.99,10.25-.73,15.46v.2s0,.2,0,.2c-1.46,21.54,6.88,43.83,22.88,61.16,6.63,7.18,14.31,13.17,22.64,17.84,18.95,6.1,38.38,8.65,58.32,6.55,10.04-1.06,19.75-3.2,29.22-6.17,8.02-4.46,14.46-9.66,19.4-14.52,17.24-16.97,27.59-40.71,27.68-63.54.02-6.06-.53-11.96-1.6-17.67Z"/>
  <path class="cls-4" d="m58.24,173.66s0-.02,0-.04c-7.77,3.81-15.46,7.91-23.08,12.42,9.17,7.8,17.82,15.48,26.74,22.75-3.14-11.55-4.43-23.41-3.66-35.14Z"/>
  <path class="cls-4" d="m183.99,188.88c9.45.11,15.24-7.78,15.26-14.74.03-8.16-6.36-15.02-14.83-15.18-8.11-.16-15.36,6.68-14.94,14.93-.51,7.55,6.12,14.89,14.51,14.99Z"/>
  <path class="cls-2" d="m344.7,181.35c-.7-.79-1.36-1.62-2.1-2.37-10.94-11.15-22.49-21.56-34.78-31.07-2.88-2.23-5.81-4.4-8.78-6.52-4.27-3.07-8.62-6.05-13.07-8.89-6.69-4.27-13.53-8.22-20.51-11.86-4.54-2.37-9.15-4.6-13.83-6.66-10.59-4.65-21.54-8.5-32.96-11.25-14.13-3.41-28.51-5.41-43.1-4.15-18.67,1.62-36.64,6.18-53.94,13.4-2.13.89-4.25,1.82-6.34,2.76-4.66,2.1-9.23,4.33-13.71,6.69-11.67,6.14-22.74,13.15-33.32,20.85-2.85,2.08-5.68,4.2-8.46,6.38-11.67,9.13-22.74,19.12-33.35,29.78-5.42,5.45-5.41,7.11.12,12.52,6.37,6.24,12.86,12.38,19.56,18.28,7.26,6.4,14.78,12.42,22.54,18.06,4.05,2.95,8.18,5.79,12.38,8.51,11.1,7.18,22.72,13.58,34.96,18.97,12,5.29,24.2,10.28,37.2,12.58,2.01.36,4.76.86,7.9,1.37,6.59,1.08,14.94,2.22,21.96,2.22,6.63,0,12.6-.4,18-1.04,11.57-1.39,20.48-3.9,27.45-5.99,11.6-3.48,22.84-8.13,33.81-13.67,7.91-4,15.52-8.4,22.92-13.09,4.29-2.72,8.51-5.56,12.64-8.5,13.35-9.5,25.94-20.06,37.85-31.55,3.1-2.99,6.09-6.12,9-9.31,1.88-2.06,1.86-4.32-.04-6.46Zm-145.45-7.2c-.03,6.95-5.81,14.85-15.26,14.74-8.39-.1-15.02-7.44-14.51-14.99-.41-8.25,6.83-15.09,14.94-14.93,8.48.16,14.86,7.02,14.83,15.18Zm-76.38-21.86c.69-2.12,1.83-3.43,4.1-3.85,7.82-1.43,15.62-2.97,23.44-4.42.8-.15,1.66-.02,3.04-.02-20.62,22.86-11.55,49.84,2.22,61.76,16.92,14.65,39.37,14.52,55.9,1.04,9.59-7.82,14.84-18.14,15.58-30.6.73-12.35-3.74-22.79-12-31.84.12-.23.24-.46.36-.69,4.97.76,9.95,1.43,14.89,2.32,3.96.71,7.87,1.71,11.8,2.57,1.73.38,2.76,1.29,3.29,3.12,7.82,27.05,3.43,51.13-17.85,70.68-12.86,11.82-28.37,16.78-45.92,16.45-28.18-.52-53.91-21.4-60.37-48.51-3.04-12.73-2.55-25.47,1.52-38Zm-87.72,33.75c7.62-4.51,15.31-8.61,23.08-12.42,0,.01,0,.02,0,.04-.77,11.72.52,23.59,3.66,35.14-8.92-7.27-17.57-14.95-26.74-22.75Zm36.48,30.43c-5.15-13.8-7.41-28.29-6.45-42.55v-.2s0-.2,0-.2c-.05-1.06-.05-2.12-.08-3.18,7.45-3.45,15-6.6,22.65-9.51-.42,4.26-.55,8.56-.34,12.9-1.52,23.38,7.48,47.47,24.72,66.14,1.1,1.19,2.23,2.34,3.37,3.48-15.54-7.32-30.08-16.45-43.87-26.86Zm155.78,36.89c-9.47,2.96-19.17,5.11-29.22,6.17-19.94,2.1-39.37-.45-58.32-6.55-8.33-4.67-16-10.66-22.64-17.84-16-17.33-24.34-39.62-22.88-61.16v-.2s0-.2,0-.2c-.26-5.21,0-10.38.73-15.46,5.43-1.93,10.91-3.78,16.47-5.49-7.53,33.43,1.21,61.35,28.57,82.22,15.11,11.53,32.73,16.42,51.77,14.13,23.14-2.78,41.78-13.57,54.86-33.08,12.97-19.36,15.89-40.49,10.05-62.96,2.48.02,8.48,1.86,16.08,4.7,1.06,5.71,1.62,11.62,1.6,17.67-.09,22.82-10.44,46.57-27.68,63.54-4.93,4.86-11.38,10.06-19.4,14.52Zm67.7-35.56c-13.29,9.75-27.28,18.44-42.31,25.55-.4.19-.81.36-1.21.55.03-.03.07-.07.1-.1,18.53-18.24,29.66-43.83,29.75-68.46.02-5.03-.33-9.96-1.01-14.78,7.37,2.95,15.51,6.46,23.19,9.98.06,1.73.11,3.46.11,5.21-.06,14.1-3.1,28.46-8.61,42.06Zm18.33-14.4c-2.7,2.27-5.44,4.5-8.21,6.69,3.49-11.27,5.4-22.87,5.44-34.32,0-.65-.03-1.29-.04-1.94,10.38,4.97,18.97,9.61,22.05,12.29-6.43,5.79-12.66,11.74-19.24,17.28Z"/>
  <path class="cls-2" d="m87.74,90.88c7.81-4.98,15.96-9.39,24.43-13.13,8.26-3.65,16.81-6.68,25.61-8.98,38.32-9.77,79.95-7.37,116.39,8.32.42.18.86.34,1.28.53,8.19,3.65,16.03,7.93,23.56,12.69,27.07,17.12,49.76,40.9,67.13,68-5.82-15.97-14.84-30.64-25.15-44.17-44.12-57.66-117.91-80.54-187.37-60.15-49.66,14.87-91.4,53.79-110.18,101.96,16.49-25.79,38.47-48.57,64.29-65.07Z"/>
  <path class="cls-2" d="m236.19,289.54c-20.26,4.76-41.27,6.53-61.92,5.32-15.49-.5-31.11-3-46.17-7.01-2.94-.78-5.87-1.6-8.76-2.5-2.39-.87-7.17-2.6-9.59-3.43-1.22-.39-3.58-1.32-4.74-1.88-18.98-7.81-36.88-19.04-52.31-32.55-5.16-4.69-10.21-9.57-14.78-15.01,6.32,12.79,15.63,24.08,26.12,34,73.06,69.21,217.16,58.97,267.62-32.38-24.95,28.51-58.98,46.86-95.48,55.44Z"/>
</svg>