<?xml version="1.0" encoding="UTF-8"?>
<svg id="Calque_2" data-name="Calque 2" xmlns="http://www.w3.org/2000/svg" viewBox="0 0 187.56 165.35">
  <defs>
    <style>
      .cls-1 {
        fill: #de0000;
      }
    </style>
  </defs>
  <path class="cls-1" d="m147.56,45.56c-11.15.08-20.47-9.15-20.57-20.36-.09-11.37,9.08-20.61,20.46-20.63,11.36-.02,20.47,9,20.51,20.28.04,11.43-9.03,20.63-20.41,20.71Z"/>
  <path class="cls-1" d="m153.66,155.04c-18.64,2.23-37.43,1.44-55.54-3.4-1.68-.49-4.17-1.19-5.86-1.65-3.46-1.25-7.03-2.26-10.42-3.69-1.54-.6-3.1-1.19-4.71-1.72,4.21,3.51,8.84,6.46,13.72,8.95.71.31,2.75,1.19,3.49,1.51,5.42,2.41,11.26,3.89,17.08,4.99,14.08,2.15,29.25,1.24,42.22-4.98h0Z"/>
  <path class="cls-1" d="m99.36,135.37c-1.41-.41-3.52-1-4.94-1.39-2.91-1.05-5.92-1.9-8.78-3.11-1.3-.5-2.61-1-3.97-1.45,3.55,2.96,7.45,5.44,11.57,7.54.6.26,2.32,1,2.94,1.27,4.57,2.03,9.49,3.28,14.4,4.2,11.87,1.81,24.66,1.05,35.59-4.2-15.71,1.88-31.55,1.21-46.81-2.86Z"/>
  <path class="cls-1" d="m102.22,121.52c-1.02-.3-2.54-.72-3.56-1-2.1-.76-4.27-1.37-6.33-2.24-.94-.36-1.88-.72-2.86-1.05,2.56,2.14,5.37,3.93,8.34,5.44.43.19,1.67.72,2.12.92,3.29,1.47,6.84,2.36,10.38,3.03,8.56,1.3,17.78.76,25.66-3.03-11.33,1.35-22.75.87-33.75-2.06Z"/>
  <path class="cls-1" d="m85.62,107.19s33.27-29.44,36.04-31.77h0l3.85-3.48c.89-.88,1.79-1.75,2.68-2.63,3.64-3.57,6.1-7.74,6.26-13.04.14-4.57-1.57-8.34-4.79-11.42-11.46-10.96-22.25-22.51-31.11-35.74-1.4-2.09-3.13-3.72-5.62-4.47-4.62-1.41-10.31,1.3-11.95,5.82-.73,2.01-.59,4.07.54,5.85,2.08,3.28,4.16,6.6,6.59,9.62,5.38,6.68,10.97,13.18,16.48,19.75.24.28.48.57.85,1.01-2.15,2.1-4.19,4.1-6.26,6.14-3.88-4.23-6.64-8.9-8.09-14.31-.3-1.13-.59-2.27-.98-3.37-1.28-3.62-4.92-6-8.99-5.93-4.53.09-8.07,2.36-9.01,6.21-.4,1.63-.28,3.51.08,5.18,2.01,9.18,6.16,17.32,12.37,24.39.31.35.6.73.94,1.15-4.79,4.76-9.54,9.48-14.42,14.32-2.02-1.22-4.18-2.66-6.47-3.87-5.16-2.74-10.59-4.73-16.44-5.4-.21-.02-.46,0-.63-.1,0,0-24.21,2.51-32,6.63-3.48,2.37-4.78,6.89-3.13,10.93,1.89,4.61,6.97,6.74,11.83,4.97,4.09-1.5,8.17-3.04,12.29-4.47,1.45-.5,3-.71,4.51-1.04.26-.06.55-.17.78-.1,6.92,2.07,14.05,3.64,19.8,8.46,1.3,1.09,2.58,2.2,3.92,3.34-1.73,2.07-3.44,3.97-4.99,6-8.92,11.63-14.02,24.86-16.43,39.22-.31,1.84-.73,3.67-.87,5.53-.61,8.1,7,10.9,12.13,9.55,3.56-.94,5.71-3.27,6.52-6.9,1.34-6.03,2.36-12.16,4.22-18.02,3.59-11.3,10.33-20.53,19.5-27.96,0,0,0-.01,0-.02Z"/>
</svg>