<?xml version="1.0" encoding="UTF-8"?>
<svg id="Calque_2" data-name="Calque 2" xmlns="http://www.w3.org/2000/svg" viewBox="0 0 367.35 358.23">
  <defs>
    <style>
      .cls-1 {
        fill: #dbdbdb;
      }
    </style>
  </defs>
  <path class="cls-1" d="m252.7,125.08c-25.14-14.87-52.16-21.67-81.42-18.91-20.02,1.89-38.53,8.31-55.81,18.42-21.06,12.32-38.28,28.89-53.02,48.18-3.13,4.09-3.12,8.54.02,12.65,12.68,16.6,27.22,31.27,44.64,42.93,27.02,18.08,56.53,26.78,89.19,23.68,16.76-1.59,32.56-6.42,47.54-14.01,21.95-11.11,40.11-26.88,55.64-45.77,2.88-3.5,5.18-7.47,7.75-11.22v-3.86c-.74-1.41-1.29-2.96-2.23-4.2-14.54-19.12-31.52-35.61-52.3-47.9Zm-70.6,105.96c-28.35-.56-50.83-24.53-50.29-53.62.52-28.17,24.56-50.76,53.45-50.23,28.33.53,50.84,24.51,50.31,53.6-.51,28.08-24.71,50.82-53.47,50.25Z"/>
  <path class="cls-1" d="m184.13,151.15c-15.5-.08-28.32,12.43-28.42,27.73-.1,15.43,12.36,28.13,27.64,28.2,15.44.07,28.17-12.48,28.28-27.87.11-15.28-12.33-27.98-27.51-28.06Z"/>
</svg>