<?xml version="1.0" encoding="UTF-8"?>
<svg id="Calque_2" data-name="Calque 2" xmlns="http://www.w3.org/2000/svg" viewBox="0 0 367.35 358.23">
  <defs>
    <style>
      .cls-1 {
        fill: #bababa;
      }

      .cls-2 {
        fill: #8f8f8f;
      }
    </style>
  </defs>
  <path class="cls-2" d="m122.77,193.42c16.33.99,32.66,2.04,48.98,3.05.92.06,1.85-.1,3.2-.19-.4-1.8-.44-3.41-1.1-4.68-2.28-4.35-4.77-8.6-7.2-12.87-.24-.43-.61-.79-1.14-1.44-.36,1.36-.62,2.35-.88,3.35-.21-.03-.42-.06-.63-.1.12-1.97.28-3.94.34-5.91.05-1.67.22-3.37-.06-5-.47-2.77-1.22-5.5-1.92-8.23-.21-.81-.49-1.74-1.05-2.32-3.24-3.37-6.58-6.64-9.87-9.97-1.19-1.2-2.33-2.46-3.49-3.7.09-.08.17-.17.26-.25,4.27,2.67,8.54,5.35,13.15,8.23,4.4-7.16,8.73-14.14,12.99-21.15,1.66-2.73,1.83-5.53.5-8.55-.66-1.5-1.21-2.18-2.98-1.79-1.94.43-4.26,1.16-5.91.5-2.97-1.2-5.56-3.34-8.31-5.08,2.54.14,4.84.82,7.18,1.35.8.18,1.85.29,2.51-.07,5.25-2.94,11.04-4.9,15.61-9.06,1.72-1.57,2.99-3.18,3.75-5.43,3.98-11.84,7.96-23.68,12.28-35.4,1.21-3.28.47-6.05-.07-8.77-11.69-1.4-15.83,7.39-21.25,14.64.19-.6.3-1.24.57-1.8,2.28-4.86,3.81-9.86,3.57-15.35-.08-1.7.3-3.54.96-5.11,1.53-3.71,3.48-7.25,4.98-10.97.45-1.1.39-2.78-.14-3.84-2.83-5.61-5.87-11.11-8.89-16.62-.79-1.44-1.76-2.78-2.7-4.24-.41.38-.63.52-.75.71-7.65,11.89-14.22,24.36-20.12,37.19-.37.81-.05,2.14.34,3.06.55,1.31,1.91,2.4,2.12,3.72,1.1,6.77,1.95,13.57,2.83,19.92-2.74-2.74-3.48-4.2-6.42-12.58-.33-.94-1.2-2.42-1.79-2.4-1.49.05-3.17.22-3.91,2.18-1.77,4.67-3.86,9.22-5.59,13.9-8.26,22.38-14.37,45.34-17.88,68.93-1.93,12.98-2.95,26.09-4.4,39.14-.2,1.81.24,2.85,2.33,2.97Z"/>
  <path class="cls-1" d="m290.19,219.9c-1.34-1.9-2.57-3.88-3.75-5.89-.63-1.08-1.26-1.08-2.27-.53-2.42,1.3-4.89,2.5-7.34,3.74,1.97-2.23,4.15-4.14,6.28-6.12.46-.42,1.05-1.03,1.05-1.56,0-1.77-.24-3.54-.41-5.44-.68.04-1.19.03-1.7.1-16,2.46-32.09,2.82-48.21,2.01-4.2-.21-8.05-.15-11.51,2.86-2.78,2.42-5.14,5.06-7.01,8.27,6.47,4.2,12.83,8.33,19.2,12.47-.11.02-.22.02-.32.02,2.38,1.03,4.55,2.11,6.5,3.57,1.57.02,3.15.03,4.72.03,15.41-.03,30.74-.99,45.86-4.22,1.66-.35,3.31-.78,5.32-1.26-.94-1.12-1.64-1.89-2.28-2.71-1.39-1.77-2.82-3.51-4.11-5.35Z"/>
  <path class="cls-1" d="m225.32,233.01c-.81-.24-1.62-.48-2.42-.72-8.76-2.61-17.51-5.24-26.28-7.8-.86-.25-1.97-.28-2.79.05-9.73,3.89-19.43,7.85-29.11,11.85-1.8.74-3.48,1.77-5.28,2.7.38.41.47.6.59.62.64.08,1.28.15,1.92.16,24.39.64,48.69-.32,72.87-3.54-2.59-1.41-5.38-2.32-8.41-3.14-.4.04-.74-.08-1.09-.18Z"/>
  <path class="cls-1" d="m75.03,199.81c2.42-1.1,4.98-1.92,7.48-2.86-1.36-1.01-2.57-1.41-3.8-1.75-8.88-2.47-17.57-5.43-25.69-9.83-5.13-2.78-10-5.95-13.36-10.91-5.73-8.46,1.49-15.92,8.11-17.48-.87.92-1.75,1.75-2.51,2.69-4.08,5.08-4,9.7.14,13.78.96.94,1.63,1.06,2.88.3,3.72-2.25,7.49-4.45,11.4-6.33,3.98-1.91,8.14-3.41,12.87-5.36-3.4-4.51-4.82-9.76-10.79-12.14-5.18-2.06-10.25-4.32-15.76-5.16-3.12-.48-6.82-1.28-9.43-.1-6.93,3.12-12.98,7.8-17.99,13.63-9.38,10.92-10.51,24.32-2.8,36.21,6.88,10.61,17.23,16.98,28.34,22.28.53.25,1.47.15,1.99-.16,6.83-4.12,13.59-8.37,20.44-12.45,2.73-1.63,5.6-3.06,8.49-4.37Z"/>
  <path class="cls-1" d="m356.55,170.56c-1.21-7.12-4.67-12.99-9.71-17.98-10.78-10.67-24.26-16.5-38.34-21.21-.56-.19-1.5-.02-1.94.36-1.06.93-1.93,2.08-3.12,3.41,3.67,1.94,7.04,3.73,10.42,5.51-3.09-.67-6.05-1.64-9.05-2.48-5.8-1.63-9.85.49-11.94,6.09-.33.89-.7,1.88-1.36,2.5-2.45,2.33-3.08,5.35-3.67,8.58.73.26,1.38.53,2.05.74,10.7,3.41,21.21,7.21,30.37,13.98.43.32,1.7.15,2.13-.26,2.65-2.55,3.3-5.72,1.5-9.04-1.4-2.56-3.37-4.82-5.08-7.19,4.04,2.35,8.68,4.31,10.12,9.45,1.69,6.04-2.03,10.16-6.12,14.21.66.16.94.28,1.23.3,5.71.5,11.56-1.26,17.18.99.27.11.65.02.95-.06,4-1.14,8-2.32,12-3.45,2.37-.67,2.74-2.2,2.36-4.45Z"/>
  <path class="cls-1" d="m44.86,141.63c7,3.33,15.06,3.46,21.93,7.28,1.37.76,3.24.64,4.55.87,0,1.49-.33,3.48.09,5.28.41,1.74,1.67,3.26,2.43,4.94.56,1.24,1.2,1.6,2.61,1.18,5-1.52,10.05-2.83,15.12-3.99l-9.93-7.22s0-6,.84-7.13,5.67-3.81,5.67-3.81h-6.47l-5.62,1.25-2.6-3.06,14.69-6.54c-4.48-.29-29.3,4.18-29.37,4.19-7.64,2.46-13.3,4.77-14.86,6.42.33.12.63.21.91.34Z"/>
  <path class="cls-1" d="m326.85,192.67c.42-.7.84-1.4,1.29-2.16-1.4-.76-2.7-.64-4.06-.49-2,.23-4.01.29-6.02.45-.61.05-1.28.04-1.82.29-2.16,1-4.26,2.15-6.43,3.12-.95.43-1.02.92-.91,1.88.2,1.75,1.15,3.1,2.03,4.48,1.97,3.11,3.15,6.84,6.66,8.77.39.21,1.02.34,1.39.18,4.68-2.05,9.09-4.58,12.91-8.01,3.64-3.26,6.34-7.12,7.07-12.1.08-.52.01-1.07.01-2.01-3.99,2.61-8.73,2.52-12.12,5.59Z"/>
  <path class="cls-2" d="m200.35,108.61c.82.35,2.2.37,2.88-.12,2.68-1.9,5.24-4.01,7.72-6.18.45-.39.66-1.6.4-2.15-1.46-3.13-3.08-6.19-4.69-9.25-.4-.75-.97-1.41-1.47-2.11-.28.03-.55.05-.83.08-1.58,5.8-3.2,11.58-4.68,17.4-.18.71.19,2.11.67,2.32Z"/>
  <path class="cls-2" d="m189.02,138.78c3.54-3.04,7.1-6.06,10.59-9.15,2.93-2.59,3.09-3.46,1.53-7.76-1.59.75-3.09,1.75-4.74,2.18-5.89,1.54-8.41,5.61-8.88,11.32-.1,1.19-.01,2.39-.01,4.11,1.08-.5,1.33-.56,1.5-.71Z"/>
  <path class="cls-2" d="m174.14,152.95c-3.22,2.82-3.85,6.71-1.52,10.74,2.87-1.75,5.76-3.47,8.58-5.28.56-.36,1.22-1.08,1.24-1.65.12-3.4.06-6.81.06-10.22-.3-.1-.6-.2-.9-.31-2.48,2.24-4.94,4.51-7.46,6.72Z"/>
  <path class="cls-2" d="m197.21,48.16c-.67-3.87-1.44-7.73-2.18-11.58-.18-.02-.36-.03-.54-.05-1.63,5.13-3.26,10.27-5.01,15.78,2.54-.89,4.88-1.66,7.14-2.58.36-.15.68-1.08.59-1.57Z"/>
  <path class="cls-2" d="m182.1,131.81c-.19-.07-.38-.13-.57-.2-2.84,4.95-5.68,9.89-8.52,14.84,3.27-1.59,6.17-3.46,9-5.43.44-.3.85-1.05.81-1.57-.16-2.55-.47-5.1-.73-7.64Z"/>
  <path class="cls-2" d="m185.53,119.46c2.57-.13,3.05-1.45,2.41-3.66-.22-.75-.21-1.56-.37-2.85-2.5,1.42-4.72,2.51-6.73,3.88-1.96,1.33-.83,2.99.16,4.25.22.28,1.74-.39,2.64-.72.66-.24,1.26-.86,1.9-.9Z"/>
  <path class="cls-2" d="m216.44,80.44c-1.62-2.8-3.23-5.6-5.13-8.89-1.4,2.62-2.51,4.7-3.78,7.08,3.06.9,5.74,1.69,8.42,2.48.16-.22.33-.45.49-.67Z"/>
  <path class="cls-2" d="m196.96,56.09c-3.72-3.33-8.53-1.54-11.17,4.14,3.81-1.41,7.36-2.73,11.17-4.14Z"/>
  <path class="cls-2" d="m148.97,54.65c-1.41,2.5-2.54,4.48-3.97,7,2.65-.59,4.62-1.02,6.93-1.54-.99-1.83-1.82-3.35-2.97-5.47Z"/>
  <path class="cls-1" d="m272.31,151.05c.84.2,1.68.4,2.69.64.64-1.69,1.23-3.26,1.9-5.01-2.83.56-4.18,1.9-4.59,4.37Z"/>
  <path class="cls-2" d="m213.56,107.36c-2.13,1.25-3.92,2.3-5.71,3.35.05.18.1.35.15.53,2.14.13,4.27.25,6.71.4-.41-1.53-.71-2.67-1.15-4.28Z"/>
  <path class="cls-1" d="m226.77,133.16c3.51.39,4.29,2.34,5.47,2.73,1.17.39,1.17,1.17,2.73,1.95,1.56.78-.29,1.8-.29,1.8h-2.89l-7.75,1.72,19.52,2.36c8.04,1.5,16.09,2.94,24.15,4.32.52.09,1.27-.31,1.69-.71,1.3-1.24,2.49-2.58,3.71-3.89.99-1.07,2.33-2.02,2.82-3.29.46-1.17,0-2.69-.06-4.12,4.56-.53,8.15-3.43,12-6.76-16.53-5.1-33.04-8.1-49.91-9.61-.34-.05-6.51,1.4-6.51,1.4l3.51,5.08-1.17,3.65s-10.54,2.99-7.03,3.38Z"/>
  <path class="cls-2" d="m216.92,128.15c.61.76,8.57-1.99,8.57-1.99l-6.59-5.49s-3.02,1.92-4.94,2.47c-1.92.55,2.35,4.25,2.96,5.01Z"/>
  <path class="cls-2" d="m215.37,140.95c-.7-.84-8.53-.64-8.53-.64l-15.58,5.82s10.85,2.13,14.01.76c3.16-1.37,10.8-5.09,10.1-5.93Z"/>
  <path class="cls-2" d="m231.12,164.21c-.56-1.45-4.72-2.91-4.72-2.91l-7.05,5.43s6.3,5.7,7.68,4.31c1.39-1.39,4.65-5.39,4.08-6.84Z"/>
  <path class="cls-1" d="m75.87,137.03c.08.52,1.72,1.68,1.72,1.68l3.72-.33s-2.08-2.78-2.85-2.62c-.77.16-2.67.74-2.59,1.27Z"/>
  <path class="cls-1" d="m295.41,187.25l-15.58,5.82s10.85,2.13,14.01.76c3.16-1.37,10.8-5.09,10.1-5.93-.7-.84-8.53-.64-8.53-.64Z"/>
  <path class="cls-1" d="m294.13,200.38l-9.13,3.41s6.36,1.25,8.21.44c1.85-.8,6.33-2.98,5.92-3.48-.41-.49-5-.38-5-.38Z"/>
  <path class="cls-2" d="m198.24,176.14c-1.11.2-4.22,2.71-5.18,4.16l-1.8,2.9s6.16,1.45,9.55,0c3.39-1.45,4.84-8.23,4.84-8.23,0,0-1.94,0-3.26.7-1.32.7-3.03.27-4.14.47Z"/>
  <path class="cls-2" d="m237.88,184.54l-3.07-3.46s-4.45-3.19-4.44-1.67c.04,5.89,7.51,5.13,7.51,5.13Z"/>
  <path class="cls-2" d="m197.12,267.68c-3.68-1.68-19.56-14.16-19.56-14.16,3.1,5.98,1.89,13.39,7.32,18.39-.58.55-.92,1.06-1.4,1.29-5.06,2.51-5.47,7.87-7.46,12.24-.22.49.02,1.27.2,1.86,1.46,4.86,2.67,9.82,4.52,14.53,1.69,4.31.29,7.91-1.11,11.32-.37-3.15-.57-6.6-1.22-9.96-.9-4.67-4.26-8.06-6.9-11.77-.86-1.21-1.12-2.18-.59-3.49,1.81-4.48,3.66-8.95,5.32-13.49.39-1.06.36-2.49-.02-3.55-1.37-3.87-2.97-7.65-4.48-11.46-.7-1.75-1.4-3.5-2.16-5.39-3.78,2.57-7.22,4.91-10.65,7.25-.06-.09-.12-.18-.18-.27,2.27-2.53,4.54-5.05,7.09-7.9-8.8-.59-17.32-1.16-25.86-1.74,4.7,4.34,9.4,8.68,14.1,13.02.56.52,1.11,1.04,1.66,1.56-.62.24-1.31.78-1.84.65-7.03-1.72-14.07-3.4-21.03-5.39-.89-.26-1.78-.53-2.66-.81,9.08,30.87,24.24,58.06,47.28,81.15,12.12-13.03,22.54-26.8,30.69-42.24.48-.9.94-1.8,1.41-2.71-7.05-2.08-14.78-5.37-14.78-5.37,0,0-1.74-.59,8.53-.74,4.31-.06,7.83-1.29,10.48-2.69,2.6-5.74,4.91-11.59,6.93-17.54l-11.47-2.59s-8.48,1.68-12.15,0Z"/>
  <path class="cls-2" d="m190.14,258.22c2.73,2.31,14.75,3.23,14.75,3.23l14.91,2.1c1.92-5.05,3.57-10.18,4.94-15.4-16.05.69-31.71,1.36-47.65,2.05,4.59,2.62,11.3,6.54,13.05,8.02Z"/>
  <path class="cls-2" d="m148.05,261.09c-.49-.4-.97-.81-1.47-1.21-4.14-3.38-8.29-6.75-12.43-10.13-3.64-.22-7.28-.43-10.96-.65.72,2.59,1.51,5.15,2.35,7.67.78.22,1.56.43,2.35.63,6.13,1.55,12.34,2.85,18.53,4.2.47.1,1.08-.32,1.62-.51Z"/>
  <path class="cls-1" d="m91.09,144.84l-2.42,6.92,13.59,6.84s6.02-6.02,2.58-8.6-9.79-5.94-9.79-5.94l-3.97.78Z"/>
  <polygon class="cls-1" points="112.67 122.97 93.9 125.64 72.67 130.97 87.36 129.64 97.98 126.3 112.67 122.97"/>
  <path class="cls-1" d="m94.56,135.76l6.77-5.09,11.34-2.7s-6,7-7,7-12,2.27-12,2.27l.89-1.48Z"/>
  <polygon class="cls-2" points="120.39 191.52 119.67 198.97 146.67 200.97 171.75 196.47 142.67 185.97 120.67 190.97 120.39 191.52"/>
  <path class="cls-1" d="m176.56,204.97c-1.48.16-2.96.33-4.43.5-25.05,2.89-50.13,4.12-75.26.95-.62-.08-1.31.04-1.92.23-2.21.7-4.44,1.39-6.6,2.23-1.66.65-3.3,1.4-4.81,2.33-1.99,1.23-2.09,2.44-.55,4.09,2.2,2.35,4.42,4.68,6.64,7.01,2.42,2.55,4.84,5.09,7.26,7.63,0,0,0,0,0,0,.01.01,2.06,1.1,3.12,1.2,14.61,1.51,29.25,1.75,43.91.99.73-.04,1.52-.29,2.13-.69,8.21-5.29,16.4-10.62,24.59-15.94.44-.29,1-.57,1.23-1,1.67-3.11,3.27-6.26,4.9-9.41-.03-.02-.13-.14-.22-.13Z"/>
  <path class="cls-1" d="m93.07,230.41s0,0,0,0c-.42-.33-.85-.67-1.27-1-.02-.01-.03-.03-.05-.04-5.22-4.04-10.44-8.08-15.65-12.14-.88-.68-1.56-.7-2.5.02-2.59,2-5.28,3.86-7.93,5.78-.79.58-1.58,1.17-2.61,1.95.77.3,1.18.5,1.61.61,3.75.95,7.47,2.03,11.26,2.77,5.25,1.03,10.54,1.81,15.83,2.64.22.03.46-.08.7-.23.21-.12.41-.27.62-.37,0,0,.01.01.02.02,0,0,0-.01-.01-.02Z"/>
  <path class="cls-2" d="m222.5,185.9c-1.76.66-4.97,5.64-5.27,6.2-.29.57-1.81,4.5-1.81,4.5l-6.73,5.82-4.09-2.07s-1.34,8.35.94,10.9c0,0,11.26-8.99,13.93-8.84,2.66.16,8.72-7.4,8.72-7.4,0,0-3.94-9.79-5.7-9.13Z"/>
  <path class="cls-1" d="m171.59,208.42l20.94-.64s-3.19,10.85-7.66,12.13-11.23,4.39-11.23,4.39c0,0-11.1,7.73-10.46,6.84s1.4-15.57,1.4-15.57l7.02-7.15Z"/>
  <path class="cls-1" d="m152.39,233.2s8.55-8.46,8.23-7.88-2.87,11.05-2.87,10.67-5.36-2.79-5.36-2.79Z"/>
</svg>