<?xml version="1.0" encoding="UTF-8"?>
<svg id="Calque_1" data-name="Calque 1" xmlns="http://www.w3.org/2000/svg" viewBox="0 0 336.08 536.63">
  <defs>
    <style>
      .cls-1 {
        fill: #fff;
      }

      .cls-2 {
        fill: none;
      }
    </style>
  </defs>
  <path class="cls-1" d="m143.7,115.63c.51,2.13,1.5,3.81,2.78,5.13.46-.8,1.12-1.67,2.12-2.56,2.86-2.55,7.64-4.51,14.21-5.83.75-.15,1.5-.28,2.25-.39-3.83-11.84-6.56-24.02-8.17-36.35,4.04,11.79,6.99,23.94,8.82,36.27,1.91-.26,3.79-.4,5.62-.4,5.18,0,9.19,1,11.97,2.05l8.31-1.91c-3.5-.81-9.27-2.96-15.58-8.77-10.22-9.4,3.29-12.12,3.29-12.12-10.82-1.99-37.44-82.58-39.65-88.39-2.21-5.81-4.27.86-4.27.86,3.05,13.97,12.49,96.97,12.49,96.97,20.54,6.29-4.19,15.43-4.19,15.43Z"/>
  <path class="cls-1" d="m218,343.96c-.76,2.39-1.73,5.41-2.82,8.76,17.85,77.39,35.46,151.73,38.3,156.62,6.05,10.4,13.84-2.74,13.84-2.74l-43.72-180.85c-1.84,6.2-3.78,12.49-5.6,18.21Z"/>
  <path class="cls-1" d="m300.92,87.35l-4.13,4.47c.75,1.69,2.07,5.05,2.7,9.05,4.73-2.41,9.93-3.87,15.24-4.24-4.63,2.71-9.8,4.44-15.12,5.1.49,3.78.3,8.03-1.56,11.91-.02.04-.04.08-.06.12l7.74,2.83,30.34-24.29-35.16-4.93Z"/>
  <path class="cls-1" d="m37.51,161.03c-4.39,2.05-9.15,3.3-13.99,3.65,4.14-2.41,8.7-4.05,13.42-4.85-.99-2.45-1.35-6.13,1.57-10.7l-7.58-2.98L0,169.71l35.03,5.78,8.6-8.87c-2.61-1.45-4.81-3.28-6.12-5.6Z"/>
  <path class="cls-1" d="m292.7,92.51l-25.38,5.84c.91,3.57,1.36,9.08,1.18,17.76-.05,2.43-.15,4.83-.26,7.05l13.87-3.05c7.42-1.49,11.09-5,12.69-9.03,2.26-5.7.38-12.44-.99-16.02-.6-1.57-1.1-2.54-1.1-2.54Z"/>
  <path class="cls-1" d="m118.9,156.04l22.12-4.87c-.12-1.68-.29-4.94-.42-10.41-.12-5.27,1.53-10.39,3.06-13.98l-40.58,9.33c.15.43.25.81.31,1.12,2.79,8.2,8,14.48,15.52,18.8Z"/>
  <path class="cls-1" d="m70.41,166.72c.54-8.95.11-16.39,0-18.07-.46-1.68-.79-3.27-1.02-4.78l-26.6,6.12c-.46.59-.84,1.15-1.17,1.7-3.41,5.72-.14,9.49,4.91,11.95,7.24,3.52,18.11,4.35,18.11,4.35l5.77-1.27Z"/>
  <path class="cls-1" d="m54.81,280.56c.28,0,.45-.79.26-3.24-1.01.47-1.67.72-1.67.72,0,0,.9,2.52,1.4,2.52Z"/>
  <path class="cls-1" d="m187.19,150.13s0,0,0,0c.48.56,1.61.82,2.42.82,1.84,0,3.59-1.07,3.59-1.07,0,0,.33.25.53-.93.25-1.46.57-3.53.81-5.48.09-.73.16-1.44.21-2.09.06-.79.09-1.5.07-2.06-.01-.34-.04-.63-.09-.85-.4-1.7-1.08-6.76-3.9-12.05-1.04-1.95-.64-2.07-2.36-3.93,0,0-7.45,11.37-6.78,13.48.64,2.01,2.62,3.41,3.84,3.41.06,0,.12,0,.18-.01,0,0-1.08.48-2.28.48-.85,0-1.75-.24-2.38-1.05-1.51-1.97-.9-5.84-.56-6.55.33-.71,5.05-13.12,5.05-13.12,0,0-.88-.63-2.57-1.36-.94-.41-2.15-.84-3.59-1.23-1.46-.38-3.17-.71-5.12-.88-.93-.08-1.9-.13-2.94-.13-2.32,0-4.9.23-7.74.79-6.54,1.31-10.04,3.04-11.9,4.53-1.16.93-1.7,1.76-1.94,2.33-.03.07-.05.13-.07.19-.14.38-.13.61-.13.61,0,0-.39.63-.93,1.69-1.47,2.84-4.15,8.89-4.01,15.02.11,4.82.26,7.88.37,9.63.08,1.31.14,1.88.14,1.88,0,0,.02.05.04.13.09.3.29,1.09.32,1.98.03.92-.13,1.94-.82,2.61-1.51,1.46-2.95,3.75-.83,5.59.03.03.06.06.1.09.84.68,1.7,1.34,2.45,1.89,1.27.94,2.22,1.59,2.22,1.59,0,0,.57-1.1,2.31-2.27,1.07-.72,2.27-1.58,3.37-2.5,1.81-1.5,4.16-2.82,4.39-4.17,0,0,.22,1.87-.83,3.93-.42.82-1.05,1.67-1.97,2.44-.4.33-.84.66-1.36.96,0,0-.01.52-.02,1.3-.01,2.57-.49,7.29.72,7.77,0,0,1.72-2.91,2.12-3.37,0,0-.79,5.96.39,6.44.67.27,1.31,0,1.34,0,.93-.21.23-5,.32-5.88,0,0,.75,1.69.92,2.26.29.96.13,3.03.64,3.22.28.1.2.04.66.04.9,0,1.48.13,1.72-.29.36-.63.12-5.62.12-5.62,0,0,.66-.2.79.07.3.63.67,4.18.59,5.25-.04.58.62.85,1.8.85.34,0,.69-.04,1.03-.15,1.52-.48-.23-6.26-.23-6.26l2.49.14s-.96,4.75-.44,5.67c.16.28.39.4.93.4,1.22,0,2.71-.66,2.71-.66,0,0,.48-5.03-.03-6.15,0,0,.58.02.76.41.38.81.82,4.28.56,5.02,0,0,.05,0,.13,0,.55,0,2.35.06,2.44-1.06.11-1.29-.25-5.58-.25-5.58,0,0,.65-.25.82.24.38,1.05.43,5.36.24,5.64,0,0,.25.07.56.07.51,0,1.2-.18,1.27-1.1.12-1.49-.22-4.99-.22-4.99,0,0,1.41,4.26,1.16,5.26,0,0,1.24-.8,1.23-1.53,0-.73-.49-1.79-.49-1.79,0,0,1.53-.22,1.39-.98-.14-.76-.29-4.69-1.52-5.54-1.23-.85-5.99-3.25-5.99-3.25,0,0,7.33.11,9.04,1.84l1.88-.9c3.05-1.46,7.11-3.82,7.52-6.11,0,0,.17-.96-.32-1.75-.34-.55-.99-1.01-2.24-1.01-.41,0-.91.06-1.46.18-.1.02-.19.03-.29.05-.95.23-1.65.32-2.17.32-1.03,0-1.31-.36-1.33-.75-.24.56-.67,1.3-1.38,2.03-.07.08-.15.15-.23.22-1.28,1.21-3.4,2.32-6.84,2.39-.07,0-.14,0-.21,0,0,0,3.03-1.74,5.4-3.94.46-.42.88-.86,1.26-1.3.67-.78,1.19-1.58,1.4-2.36.44-1.59,1.1-2.98,1.7-4.05.74-1.3,1.38-2.1,1.38-2.1,0,0-.32.81-.65,1.94-.59,1.99-1.41,3.93-.4,5.12Zm-28.83-2.78c-.07.69-.42,1.46-.93,2.25-.55.85-1.28,1.72-2.07,2.5-1.71,1.7-3.68,3.02-4.54,3.02-.09,0-.17-.01-.23-.04-.48-.22-.67-.94-.72-1.77-.04-.67,0-1.42.05-2.06.06-.75.14-1.34.1-1.48-.02-.09-.16-.27-.35-.51-.72-.91-2.21-2.72-1.19-3.83,0,0,2.74-.54,5.34-.54,2.19,0,4.27.39,4.54,1.8.04.21.04.43.01.66Zm7.82,13.08c-.2,0-1.07-.71-1.88-1.22-.44-.28-.87-.5-1.14-.5-.04,0-.07,0-.1.01-.53.15-.86,1.02-1.49,1.35-.14.07-.29.12-.46.13-.01,0-.03,0-.04,0-.24,0-.52-.08-.85-.26,0,0,1.41-5.15,1.21-6.51-.13-.92,1.07-2.12,2.35-2.12.61,0,1.25.28,1.76.99,1.19,1.67.45,4.51.35,6.36-.03.61,0,1.11.2,1.43.15.23.16.33.09.33Zm14.77-12.09c-.38,1.57-3.44,6.43-7.08,6.43-.74,0-1.51-.2-2.29-.68-1.85-1.14-2.57-3.06-2.79-4.94-.08-.7-.1-1.39-.07-2.03.04-.8.14-1.52.24-2.1.14-.8.29-1.32.29-1.32,1.79-.44,3.32-.63,4.64-.63.98,0,1.83.11,2.59.29,1.25.3,2.21.81,2.9,1.41.64.55,1.06,1.17,1.31,1.76.29.69.36,1.35.25,1.81Z"/>
  <path class="cls-2" d="m133.86,286.77c-.11,3.53.22,9.71.31,13.26-.09,14.45-3,28.74-6.97,42.6-1.37,4.85-2.94,9.65-4.68,14.39,7.25-16.13,12.2-33.55,13.46-51.26.06-2.16.24-5.51.12-7.65-1.41-20.07,1.86-40.38,8.67-59.28-6.7,15.03-10.55,31.46-10.91,47.94Z"/>
  <path class="cls-2" d="m141.39,204.81h0c-2.29-1.18-4.48-2.38-6.56-3.75-14.08-9.46-24.04-23.35-33.89-36.96-.38-.52-.75-1.04-1.13-1.56h0c.19.56.38,1.12.58,1.68,5.71,15.8,17.94,31.95,33.53,38.58,2.43.94,4.92,1.69,7.47,2.01Z"/>
  <path class="cls-2" d="m90.61,166.37c-.06-.67-.12-1.34-.19-2.01-.06-.67-.12-1.34-.19-2.01-.05-.51-.09-1.01-.14-1.52-.01.52-.02,1.04-.03,1.56-.01.69-.03,1.37-.04,2.06-.01.68-.02,1.37-.03,2.05-.24,18.7.16,37.52-2.2,56.04-.11.86-.22,1.73-.34,2.59-2.62,10.54-3.35,21.46-3.41,32.27-.12,10.81.29,21.61,1.25,32.36h0s0,0,0,0c.28-10.79.53-21.55,1.09-32.28.1-1.55.19-3.1.29-4.65.48-7.77,1.07-15.55,2.85-23.12,2.77-12.01,2.55-24.46,2.49-36.56-.17-8.95-.62-17.88-1.4-26.79Z"/>
  <path class="cls-2" d="m238.59,131.73c-.23.73-.47,1.46-.71,2.2-8.17,25.22-20.13,58-37.99,70.87-.96.68-1.97,1.3-3.01,1.87-2.96,1.6-6.23,2.68-9.69,3.04,3.37.3,6.81-.32,10.04-1.55,1.27-.48,2.5-1.04,3.69-1.69,20.8-12.01,33.59-46.38,39.19-73.03.15-.72.29-1.43.44-2.14.14-.72.28-1.43.41-2.14.65-3.46,1.17-6.76,1.57-9.8h0c-1,3.12-2.08,6.54-3.23,10.17-.23.72-.47,1.46-.71,2.2Z"/>
  <path class="cls-2" d="m199.58,284.67c-.22.63-.43,1.27-.64,1.9-2.71,8.05-5.06,16.24-7.5,24.41-4.15,13.9-8.56,27.7-15.44,40.54-1.65,2.93-3.32,5.91-5.63,8.39.2-.17.37-.36.56-.53,2.33-2.12,4.23-4.69,6.02-7.28,11.2-17.09,17.15-37.17,23.14-56.53.17-.52.35-1.04.53-1.56,3.1-9.29,6.46-18.47,10.01-27.58.1-.25.2-.51.3-.76,7.23-18.45,15.25-36.58,23.54-54.61,0,0,0,0,0,0-9.49,15.51-17.8,31.78-25,48.51-3.56,8.27-6.86,16.65-9.89,25.12Z"/>
  <path class="cls-2" d="m133.86,286.77c-.11,3.53.22,9.71.31,13.26-.09,14.45-3,28.74-6.97,42.6-1.37,4.85-2.94,9.65-4.68,14.39,7.25-16.13,12.2-33.55,13.46-51.26.06-2.16.24-5.51.12-7.65-1.41-20.07,1.86-40.38,8.67-59.28-6.7,15.03-10.55,31.46-10.91,47.94Z"/>
  <path class="cls-2" d="m141.39,204.81h0c-2.29-1.18-4.48-2.38-6.56-3.75-14.08-9.46-24.04-23.35-33.89-36.96-.38-.52-.75-1.04-1.13-1.56h0c.19.56.38,1.12.58,1.68,5.71,15.8,17.94,31.95,33.53,38.58,2.43.94,4.92,1.69,7.47,2.01Z"/>
  <path class="cls-2" d="m199.58,284.67c-.22.63-.43,1.27-.64,1.9-2.71,8.05-5.06,16.24-7.5,24.41-4.15,13.9-8.56,27.7-15.44,40.54-1.65,2.93-3.32,5.91-5.63,8.39.2-.17.37-.36.56-.53,2.33-2.12,4.23-4.69,6.02-7.28,11.2-17.09,17.15-37.17,23.14-56.53.17-.52.35-1.04.53-1.56,3.1-9.29,6.46-18.47,10.01-27.58.1-.25.2-.51.3-.76,7.23-18.45,15.25-36.58,23.54-54.61,0,0,0,0,0,0-9.49,15.51-17.8,31.78-25,48.51-3.56,8.27-6.86,16.65-9.89,25.12Z"/>
  <path class="cls-2" d="m84.83,141.35s-4.2.54-2.04,4.14c2.16,3.6,3.69,8.48,7.12,6.5,3.43-1.98,4.58-8.11,3.69-9.16-.89-1.05-6.31-2.96-8.78-1.48Z"/>
  <path class="cls-2" d="m90.61,166.37c-.06-.67-.12-1.34-.19-2.01-.06-.67-.12-1.34-.19-2.01-.05-.51-.09-1.01-.14-1.52-.01.52-.02,1.04-.03,1.56-.01.69-.03,1.37-.04,2.06-.01.68-.02,1.37-.03,2.05-.24,18.7.16,37.52-2.2,56.04-.11.86-.22,1.73-.34,2.59-2.62,10.54-3.35,21.46-3.41,32.27-.12,10.81.29,21.61,1.25,32.36h0s0,0,0,0c.28-10.79.53-21.55,1.09-32.28.1-1.55.19-3.1.29-4.65.48-7.77,1.07-15.55,2.85-23.12,2.77-12.01,2.55-24.46,2.49-36.56-.17-8.95-.62-17.88-1.4-26.79Z"/>
  <path class="cls-2" d="m238.59,131.73c-.23.73-.47,1.46-.71,2.2-8.17,25.22-20.13,58-37.99,70.87-.96.68-1.97,1.3-3.01,1.87-2.96,1.6-6.23,2.68-9.69,3.04,3.37.3,6.81-.32,10.04-1.55,1.27-.48,2.5-1.04,3.69-1.69,20.8-12.01,33.59-46.38,39.19-73.03.15-.72.29-1.43.44-2.14.14-.72.28-1.43.41-2.14.65-3.46,1.17-6.76,1.57-9.8h0c-1,3.12-2.08,6.54-3.23,10.17-.23.72-.47,1.46-.71,2.2Z"/>
  <path class="cls-1" d="m190.1,118.36c.84.95,1.59,1.91,2.27,2.89,4.22,6.06,5.48,12.4,6.07,15.37.07.37.13.68.19.92.06.26.1.57.13.91l24.41-5.38c5.01-7.39,11.06-18.22,16.28-28.33l-45.29,10.42-5.5,1.26,1.43,1.93Z"/>
  <path class="cls-1" d="m263.43,134.19s.23-2.4.49-5.99c.05-.66.09-1.35.14-2.08.04-.67.08-1.36.12-2.08.46-8.19.71-19.22-.74-24.81-.19-.74-.41-1.37-.67-1.9-.35-.74-.77-1.26-1.26-1.5,0,0-.01-.1-.04-.25-.18-.87-1.09-3.76-5.12-3.76-1.69,0-3.94.51-6.91,1.9,0,0-.96,2-2.56,5.22-.36.72-.75,1.49-1.16,2.32-.37.74-.76,1.51-1.18,2.32-4.08,8-10.12,19.37-15.78,28.26-.52.82-1.04,1.62-1.55,2.39-.56.84-1.11,1.64-1.65,2.41-2.5,3.55-4.82,6.34-6.74,7.81,0,0-7.48,2.61-21.54,7.51l-.08.41c.45,1.22.49,2.48.32,3.44-.74,4.19-6.06,7.42-10.5,9.42-.27.12-.53.24-.79.35.14.77.23,1.56.32,2.35.02.19.03.34.05.45.21,1.2-.06,2.41-.78,3.41-.02.03-.04.06-.06.08,0,.43-.08.83-.19,1.21-2.82,3.75-10.74,6.38-10.74,6.38l-.4.12c-.38.11-2.35.66-4.06.66-.54,0-1.02-.05-1.45-.15-.02,0-.05.01-.07.02-.71.22-1.46.34-2.24.34-.52,0-1.02-.05-1.48-.13-.37.08-.67.09-.82.09h-1.74s-.22-.24-.22-.24c-.24.02-.49.03-.75.03-.39,0-.77-.02-1.12-.07-.45.2-.92.32-1.37.38-.22.03-.44.05-.66.05-1.24,0-2.41-.5-3.28-1.41-.18-.19-.51-.52-.83-1.13h0c-3.07-1.21-3.56-4.85-3.76-8.51l-2.17,1.24-2.07-1.42c-.09-.06-1.93-1.33-3.96-2.91-4.61-.18-9.21-.87-13.7-2.12-3.47-.96-6.99-2.29-10.35-4.06-.88-.46-1.75-.95-2.6-1.47-.78-.48-1.55-1-2.31-1.54-5.95-4.26-11.02-10.35-13.91-19.05,0,0-.04-.46-.39-1.16-.24-.49-.64-1.1-1.27-1.76-.5-.52-1.15-1.06-1.99-1.59-2.4-1.52-6.35-2.98-12.91-3.56,0,0-.55-.1-1.4-.1-2.66,0-8.19.96-8.49,8.9-.02.64-.01,1.32.03,2.04.04.63.11,1.3.21,2,.21,1.49.56,3.15,1.07,5,0,0,.64,7.82.1,17.86-.04.68-.08,1.37-.13,2.08-.05.69-.1,1.38-.16,2.08-.9,10.73-3.28,22.98-9.07,30.8,0,0-12.32,58.5-10.54,72.03.25,1.91.41,3.39.49,4.51,2.9-1.35,8.72-4.51,10.62-8.79l-9.69,46.95,7.21-5.65s.94,49.93-16.03,91.54c0,0,22.14-6.02,24.54-11.88,0,0-2.45,75.19-13.38,98.16,0,0,6.39,26.69-2.63,40.67,0,0,5.5-1.8,6.92-3.97,0,0-1.41,8.05-4.18,12.28,5.22-7.31,48.22-67.7,52.54-81.23l-3.93,22.47,3.82-2.1s.17,6.94,1.81,11.38c0,0,26.91-49.1,36.52-52.65,0,0,1.53-14.64,9.94-23.19,0,0,9.8,28.76,10.71,35.44,0,0,20.66-41.28,25.86-47.28,2.46-2.84,10.11-24.67,17.71-48.71,3.49-11.04,6.96-22.55,9.92-32.9,4.21-14.75,7.36-27.15,7.97-32.5,0,0-.28-14.22,1.67-19.41,0,0,16.41,30.78,17.15,36.44,0,0,11.49-61.91,13.7-72.58,2.21-10.67-.41-95.62-.41-95.62Zm-173.91,95.52c-1.78,7.57-2.36,15.35-2.85,23.12-.1,1.55-.19,3.1-.29,4.65-.56,10.73-.8,21.5-1.09,32.28,0,0,0,0,0,0h0c-.96-10.75-1.37-21.55-1.25-32.36.07-10.81.79-21.73,3.41-32.27.12-.86.23-1.73.34-2.59,2.36-18.52,1.96-37.35,2.2-56.04,0-.68.02-1.37.03-2.05.01-.69.02-1.37.04-2.06,0-.52.02-1.04.03-1.56.05.51.09,1.01.14,1.52.07.67.12,1.34.19,2.01.06.67.13,1.34.19,2.01.78,8.91,1.23,17.84,1.4,26.79.06,12.1.28,24.55-2.49,36.56Zm.39-77.73c-3.43,1.98-4.96-2.89-7.12-6.5-2.16-3.6,2.04-4.14,2.04-4.14,2.47-1.48,7.89.43,8.78,1.48.89,1.05-.25,7.18-3.69,9.16Zm10.47,12.22c-.2-.56-.4-1.12-.58-1.68h0c.38.52.75,1.04,1.13,1.56,9.85,13.61,19.82,27.5,33.89,36.96,2.08,1.37,4.27,2.58,6.56,3.75h0c-2.55-.32-5.04-1.07-7.47-2.01-15.59-6.64-27.82-22.79-33.53-38.58Zm35.71,133.9c.12,2.14-.07,5.49-.12,7.65-1.25,17.71-6.21,35.12-13.46,51.26,1.73-4.75,3.31-9.54,4.68-14.39,3.97-13.85,6.89-28.15,6.97-42.6-.08-3.56-.42-9.73-.31-13.26.35-16.47,4.2-32.91,10.91-47.94-6.8,18.91-10.08,39.21-8.67,59.28Zm98.36-87.07c-8.29,18.03-16.32,36.17-23.54,54.61-.1.25-.2.51-.3.76-3.55,9.11-6.91,18.29-10.01,27.58-.17.52-.35,1.04-.53,1.56-5.98,19.36-11.94,39.45-23.14,56.53-1.79,2.6-3.68,5.16-6.02,7.28-.19.17-.36.36-.56.53,2.3-2.48,3.98-5.46,5.63-8.39,6.88-12.84,11.29-26.64,15.44-40.54,2.44-8.16,4.79-16.36,7.5-24.41.21-.63.42-1.27.64-1.9,3.03-8.47,6.33-16.85,9.89-25.12,7.2-16.73,15.5-32.99,25-48.51,0,0,0,0,0,0Zm8.06-91.69c-.39,3.05-.92,6.34-1.57,9.8-.13.71-.27,1.42-.41,2.14-.14.71-.28,1.42-.44,2.14-5.6,26.65-18.39,61.02-39.19,73.03-1.18.65-2.42,1.21-3.69,1.69-3.23,1.22-6.67,1.85-10.04,1.55,3.46-.36,6.73-1.44,9.69-3.04,1.04-.56,2.05-1.18,3.01-1.87,17.86-12.87,29.81-45.65,37.99-70.87.24-.74.48-1.48.71-2.2.24-.74.48-1.48.71-2.2,1.16-3.63,2.23-7.05,3.23-10.17h0Zm10.37-4.7c-3.23.17-3.91-3.57-4.26-6.83-.34-3.26,4.26-3.08,4.26-3.08,8.68,2.86,3.23,9.74,0,9.91Z"/>
  <path class="cls-1" d="m171.3,149.9s.85-2.24,3.15-2.17,3.34,2.71,1.11,4.01-4.85.06-4.26-1.85Z"/>
</svg>