<?xml version="1.0" encoding="UTF-8"?>
<svg id="Calque_2" data-name="Calque 2" xmlns="http://www.w3.org/2000/svg" viewBox="0 0 367.35 358.23">
  <defs>
    <style>
      .cls-1 {
        fill: red;
      }

      .cls-2 {
        fill: #5a0000;
      }
    </style>
  </defs>
  <g>
    <path class="cls-2" d="m137.26,271.61c-8.15,5.92-16.35,11.78-24.39,17.84-1.22.92-2.23,2.78-2.42,4.32-.71,5.72-1.13,11.49-1.44,17.25-.06,1.12.52,2.76,1.37,3.38,16.11,11.68,33.44,21.15,51.99,28.36.3.12.65.11,1.37.22.22-7.94.44-15.79.66-23.65.18-6.68.39-13.36.53-20.04l.48-21.43-18.77-13.06c-3.14,2.28-6.26,4.54-9.37,6.79Z"/>
    <path class="cls-2" d="m92.48,59.7c11.45,12.77,23.73,24.56,36.5,35.86,2.51-2.44,6.23-5.14,10.98-6.05,5.9-1.13,15.09-3.27,21.11-4.71-.67-17.9-1.34-35.67-2.01-53.42-19.64,15.49-39.92,29.11-66.58,28.31Z"/>
    <path class="cls-2" d="m99.67,236.01c5.46-3.86,10.9-7.75,16.35-11.63-7.36-8.07-14.58-24.22-14.58-24.22,0,0,17.45-15.39,23.99-23.66,6.3-7.96-5.78-26.72-6.67-28.08-11.04-10.18-22.11-20.33-33.18-30.47-.72-.66-2.5-.87-3.42-.46-4.52,1.98-8.86,4.36-13.36,6.36-2.13.95-2.85,2.13-2.62,4.49,1.55,15.99,2.95,32,4.4,48,1.47,16.25,2.99,32.49,4.38,48.75.18,2.09.74,3.26,2.83,4.04,6.13,2.28,12.14,4.88,18.26,7.16,1.05.39,2.76.32,3.63-.29Z"/>
    <path class="cls-2" d="m263.09,238.65c-1.5,3.53-3.76,8.19-6.95,13.17-6.72,10.51-22.88,9.36-25.74,8.71-.72-.16-1.75-.19-2.89-.13,0,14.65,0,29.3.04,43.94,0,4.09.29,8.17.46,12.78,5.28-2.33,10.5-4.49,15.6-6.89,12.97-6.11,25.56-12.87,36.18-22.71.86-.8,1.64-1.99,1.88-3.13,1.04-5.08,1.95-10.19,2.73-15.32.15-1.01-.16-2.37-.77-3.18-6.8-9.12-13.65-18.2-20.53-27.25Z"/>
    <path class="cls-2" d="m336.07,102.99c-1.58-1.91-3.23-3.76-4.92-5.69-6.71,5.24-13.37,10.44-20.01,15.62l5.82,7.46s2.99,2.52,1.61,3.83c-.9.85-5.74,5.28-8.98,8.25,8.26.08,16.56.17,24.97.25.68-9.7,1.35-18.96,1.97-28.23.03-.49-.16-1.11-.47-1.49Z"/>
    <path class="cls-2" d="m317.53,238.13c1.37-11.08,2.74-22.17,4.14-33.51-10.37-.39-19.68-.74-28.98-1.1-.25.31-.49.62-.74.93,8.02,11.38,16.03,22.75,24.05,34.13.51-.15,1.02-.3,1.53-.46Z"/>
    <path class="cls-2" d="m310,278.42c-.84.92-1.75,2.46-1.56,3.52,1,5.47,2.35,10.87,3.74,16.98,6.34-5.19,12-9.83,17.89-14.65-5.27-3.67-10.06-7-14.93-10.4-1.86,1.61-3.66,2.93-5.13,4.55Z"/>
    <path class="cls-2" d="m34.47,92.33c-.08.99,2.14,2.5,3.57,3.19,1.13.54,3.18.78,3.98.13,3.69-3.03,7.09-6.42,10.74-9.8-4.15-5.24-8.11-10.25-12.36-15.62-3.75,7.29-5.32,14.61-5.93,22.11Z"/>
    <path class="cls-2" d="m58.71,274.39c-.44,3.49.65,5.71,4.06,7.11,3.6-5.1,7.22-10.21,10.96-15.5-4.81-2.6-9.1-4.92-13.83-7.47-.4,5.63-.55,10.78-1.19,15.86Z"/>
    <path class="cls-2" d="m203.38,96.1c1.74-1.01,18.24-10.61,19.91-12.4,0,0,3.66-2.65,7.82-1.01,2.52,1.89,14.26,13.5,14.26,13.5l10.81,10.43h0s2.31-1.91,2.31-1.91c.02.01.03.03.05.04,13.35-10.58,26.7-21.16,40.13-31.64,2.72-2.12,4.32-4.46,4.98-7.81,1.06-5.4,2.43-10.74,3.84-16.85-40.58,4.38-76.81-4.85-109.46-29.87-.1,25.2-.2,50.18-.3,75.19,0,.32,0,.64,0,.96l5.33,1.28.33.08Z"/>
    <path class="cls-1" d="m101.59,243.53c6.95-4.89,13.88-9.81,20.8-14.73,0,0,0,0,0,0l3.98-2.83c-1.71-1.78-3.36-3.6-4.93-5.45-4.92-5.78-9.05-11.82-11.86-17.93l17.83-14.38c7.16-9.56,6.92-18.76,4.39-27.74-1.27-4.53-3.13-9-4.92-13.43-.21-.53-.42-1.05-.63-1.57-12.65-11.67-25.29-23.34-37.92-35.03-2.12-1.96-4.05-2.33-6.64-1.01-6.37,3.26-12.77,6.47-19.27,9.43-3.07,1.4-4.12,3.3-3.8,6.64,1.65,16.97,3.11,33.96,4.64,50.94.02,0,.05,0,.07,0,.1,1.11.19,2.22.28,3.32,1.43,16.25,2.92,32.49,4.25,48.74.28,3.39,1.61,5.3,4.88,6.5,7.76,2.84,15.33,6.18,23.11,8.98,1.68.61,4.37.51,5.75-.46Zm-26.64-18.43c-1.39-16.26-2.91-32.5-4.39-48.75-1.44-16-2.85-32.01-4.4-48-.23-2.36.48-3.54,2.62-4.49,4.51-2,8.85-4.38,13.36-6.36.92-.41,2.71-.2,3.42.46,11.07,10.14,22.14,20.29,33.18,30.47.89,1.36,12.97,20.12,6.67,28.08-6.54,8.26-23.99,23.66-23.99,23.66,0,0,7.22,16.15,14.58,24.22-5.45,3.88-10.89,7.77-16.35,11.63-.87.61-2.58.68-3.63.29-6.13-2.29-12.13-4.89-18.26-7.16-2.09-.78-2.65-1.95-2.83-4.04Z"/>
    <path class="cls-1" d="m289.56,264.18c-7.97-10.69-16-21.33-24.08-31.94-.08-.11-.17-.22-.25-.33-.26-.34-.52-.68-.78-1.02l-4.8.06c.08,1.13.07,2.19,0,3.16-.04.54-.1,1.06-.17,1.54-.48,3.28-1.59,6.97-3.43,9.34-4.05,5.22-14.61,12.18-26.67,10.27-.62-.1-1.24-.21-1.87-.36-.19-.04-.38-.08-.57-.13-.31-.08-.96-.39-2.04-.27-1.16.13-2.23.61-3.13,1.32,0,1.46,0,2.93,0,4.39,0,.29,0,.58,0,.87.02,19.59.01,39.18.01,58.77,0,3.91,1.69,5.15,5.48,3.58,7.68-3.18,15.39-6.34,22.89-9.92,12.51-5.97,24.42-12.95,34.49-22.65,1.19-1.14,2.2-2.83,2.54-4.42,1.28-6.13,2.33-12.32,3.27-18.51.18-1.2-.18-2.8-.9-3.76Zm-5.17,4.91c-.78,5.13-1.68,10.24-2.73,15.32-.23,1.13-1.01,2.32-1.88,3.13-10.62,9.85-23.21,16.6-36.18,22.71-5.1,2.4-10.31,4.56-15.6,6.89-.17-4.61-.45-8.7-.46-12.78-.03-14.65-.04-29.3-.04-43.94,1.13-.06,2.16-.03,2.89.13,2.86.64,19.02,1.79,25.74-8.71,3.19-4.99,5.45-9.65,6.95-13.17,6.88,9.06,13.73,18.14,20.53,27.25.61.82.92,2.17.77,3.18Z"/>
    <path class="cls-1" d="m339.09,99.31c-1.79-1.73-3.32-3.74-4.97-5.62-2.06-2.35-2.75-2.41-5.25-.46-6.84,5.34-13.67,10.68-20.5,16.02-.13.1-.26.2-.39.3-1.15.9-2.29,1.79-3.44,2.69l2.77,3.69c1.11,1.31,3.44,4.59,5.28,6.72.55.63.49,1.56-.13,2.11-.64.56-1.34,1.18-1.67,1.48-.34.31-2.69,2.27-6.29,5.26.59,1.9,1.06,3.79,1.66,5.57,5.14.18,10.43.35,15.99.54,3.25-.12,8.25-.37,13.24-.47,2.1-.04,3.16-.86,3.33-3.01.77-9.57,1.55-19.15,2.44-28.71.23-2.44-.28-4.36-2.08-6.11Zm-4.52,33.4c-8.41-.08-16.71-.17-24.97-.25,3.24-2.96,8.08-7.39,8.98-8.25,1.38-1.31-1.61-3.83-1.61-3.83l-5.82-7.46c6.64-5.18,13.3-10.38,20.01-15.62,1.68,1.94,3.34,3.78,4.92,5.69.31.37.5,1,.47,1.49-.62,9.27-1.28,18.53-1.97,28.23Z"/>
    <path class="cls-1" d="m313.87,247.7c1.13,1.56,3.66,3.36,5.13,3.06,1.53-.32,3.35-2.9,3.69-4.75,2.7-14.28,6.78-43.08,6.4-43.14.02-4.68-.86-5.54-5.71-5.76-4.42-.19-8.84-.47-13.26-.66-7.8-.33-15.61-.71-23.42-.91-5.02-.13-6.51,2.46-4.19,6.98.77,1.5,1.51,3.05,2.47,4.43,9.57,13.62,19.13,27.26,28.88,40.76Zm-21.17-44.18c9.3.35,18.61.7,28.98,1.1-1.4,11.34-2.77,22.42-4.14,33.51-.51.15-1.02.3-1.53.46-8.02-11.38-16.03-22.75-24.05-34.13.25-.31.49-.62.74-.93Z"/>
    <path class="cls-1" d="m338.1,280.59c-6.75-4.86-13.62-9.55-20.42-14.32-2.29-1.6-4.32-1.27-6.31.57-2.48,2.29-4.93,4.64-7.6,6.71-2.87,2.22-3.7,4.46-2.98,8.47.18,1.24,3.71,15.87,6.39,23.47,1.27,3.61,3.8,4.21,6.69,1.9,8.21-6.58,16.35-13.25,24.43-20,2.68-2.24,2.6-4.78-.2-6.79Zm-25.93,18.34c-1.38-6.11-2.73-11.52-3.74-16.98-.19-1.06.72-2.6,1.56-3.52,1.47-1.62,3.27-2.93,5.13-4.55,4.88,3.4,9.66,6.73,14.93,10.4-5.89,4.82-11.55,9.45-17.89,14.65Z"/>
    <path class="cls-1" d="m59.65,82.23c-5.12-6.55-10.26-13.09-15.43-19.61-3.19-4.02-5.67-3.94-8.45.3-6.4,9.76-8.32,20.86-9.63,33.33.65.77,1.55,2.53,2.99,3.41,2.97,1.83,6.27,3.12,9.36,4.77,2.55,1.37,4.6.98,6.67-1,4.6-4.4,9.33-8.67,13.99-13.02,3.43-3.19,3.51-4.36.51-8.19Zm-17.63,13.42c-.8.65-2.85.41-3.98-.13-1.43-.69-3.65-2.19-3.57-3.19.61-7.49,2.18-14.81,5.93-22.11,4.24,5.36,8.21,10.38,12.36,15.62-3.64,3.39-7.04,6.78-10.74,9.8Z"/>
    <path class="cls-1" d="m79.87,260.6c-6.72-3.71-13.48-7.33-20.23-10.97-.9-.48-1.88-.82-2.5-1.08-3.39.06-4.43,1.85-4.59,4.55-.34,5.71-.68,11.43-1.15,17.14q-.94,11.46,7.87,19.01c3.61,3.08,5.25,2.98,7.94-.76,4.87-6.76,9.68-13.55,14.46-20.38,2.5-3.58,2.08-5.36-1.8-7.5Zm-17.1,20.89c-3.41-1.4-4.5-3.62-4.06-7.11.64-5.08.79-10.23,1.19-15.86,4.73,2.55,9.01,4.87,13.83,7.47-3.74,5.29-7.35,10.4-10.96,15.5Z"/>
    <path class="cls-1" d="m207.95,102.44l5.63-3.89,9.88-6.81c1.25-.86,3.18-.68,4.37.41,0,0,11.57,7.64,20.2,14.69,1.35,1.1,2.63,2.19,3.78,3.24,2.41,2.18,4.26,4.16,5.05,5.66,2.19-1.73,4.38-3.46,6.56-5.19.29-.23.58-.46.87-.69,14.43-11.4,28.85-22.81,43.25-34.24.85-.68,1.65-1.75,1.91-2.78,2.3-9.23,4.57-18.47,6.63-27.76.8-3.62-.99-5.29-4.73-5-.9.07-1.79.23-2.68.35-27.3,3.74-53.61.32-78.77-11.1-11.69-5.3-22.23-12.36-31.95-20.74-1.26-1.09-3.94-2.1-4.99-1.49-1.35.79-1.75,3.25-2.5,5.01-.14.32,0,.76,0,1.15-.12,26.55-.25,53.1-.37,79.65h0,0c0,1.78-.02,3.56-.02,5.34,0,.5,0,1,0,1.5-.02.12-.02.24,0,.35,0,0,8.07.57,11.9,4.62,3.13-1.25,5.98-2.28,5.98-2.28Zm-10.22-8.66c.1-25.02.2-49.99.3-75.19,32.65,25.02,68.89,34.24,109.46,29.87-1.41,6.1-2.78,11.44-3.84,16.85-.65,3.35-2.26,5.69-4.98,7.81-13.43,10.48-26.78,21.06-40.13,31.64-.02-.01-.03-.03-.05-.04l-2.31,1.91h0s0,0,0,0l-10.81-10.43s-11.74-11.61-14.26-13.5c-4.16-1.64-7.82,1.01-7.82,1.01-1.67,1.79-18.17,11.39-19.91,12.4l-.33-.08-5.33-1.28c0-.32,0-.64,0-.96Z"/>
    <path class="cls-1" d="m89.62,65.64c11.26,12.16,23.22,23.54,35.6,34.45h0s0,0,0,0c1.69,1.49,3.39,2.97,5.09,4.44.49-1.02,1.18-1.99,2.1-2.9.56-.55,1.14-1.06,1.74-1.53,5.56-4.44,12.95-5.98,20.75-7.58,2.13-.44,4.28-.88,6.41-1.39,2.03-.48,4.04-1.03,6-1.68-.17-4.34-.33-8.69-.5-13.03-.49-12.98-.96-25.97-1.48-38.95-.18-4.33-.36-8.66-.55-12.98-.06-1.33-1.01-3.35-2.02-3.71-1-.36-2.82.73-3.9,1.63-1.72,1.46-3.05,3.38-4.68,4.95-10.89,10.45-23.95,17.42-37.85,22.83-3.98,1.55-8.37,2.31-12.65,2.8-5.59.64-11.27.55-16.89,1.03-1.27.11-2.96.98-3.5,2-.42.8.35,2.59,1.08,3.58,1.58,2.14,3.43,4.1,5.24,6.06Zm69.44-34.26c.67,17.75,1.34,35.52,2.01,53.42-6.02,1.43-15.2,3.57-21.11,4.71-4.75.91-8.47,3.61-10.98,6.05-12.78-11.3-25.05-23.09-36.5-35.86,26.66.79,46.93-12.83,66.58-28.31Z"/>
    <path class="cls-1" d="m165.55,270.86c-4.45-2.87-9.11-6.18-13.72-9.81-1.79-1.41-3.57-2.87-5.32-4.38-1.83,1.33-3.66,2.66-5.49,3.99-11.49,8.33-22.98,16.68-34.42,25.09-1.26.93-2.33,2.83-2.51,4.39-.86,7.65-1.29,15.34-2.08,22.99-.26,2.5.55,4.12,2.52,5.44,5.07,3.41,10.03,7,15.19,10.26,14.12,8.89,29.07,16.12,44.71,21.92,3.77,1.4,5.74.26,5.84-3.36.46-15.96.88-31.92,1.3-47.88,0-.2,0-.4-.01-.59h0s.48-19.13.48-19.13l.12-4.72-3.58-2.28c-.99-.61-2.01-1.25-3.03-1.91Zm-.64,28.44c-.13,6.68-.34,13.36-.53,20.04-.22,7.85-.44,15.7-.66,23.65-.72-.11-1.07-.1-1.37-.22-18.55-7.21-35.88-16.68-51.99-28.36-.85-.62-1.43-2.26-1.37-3.38.31-5.76.73-11.53,1.44-17.25.19-1.54,1.2-3.39,2.42-4.32,8.04-6.07,16.23-11.93,24.39-17.84,3.11-2.26,6.23-4.52,9.37-6.79l18.77,13.06-.48,21.43Z"/>
  </g>
  <g>
    <path class="cls-1" d="m229.6,208.18c-3.66-.95-7.84-3.97-11.46-8-1.67-1.86-3.23-3.94-4.56-6.13-2.69-4.42-4.47-9.3-4.45-13.74.01-3.74-3.42-8.08-7.66-11.97-1.16-1.06-2.37-2.09-3.6-3.06-3.71-2.95-7.47-5.4-9.78-6.73l-2.48-1.43-6.69-3.87-.59-.34.58.1,6.6,1.12,3.93.67c3.96.68,6.5-2.16,7.93-4.66l.35-.61,1.37-2.4,1.77,2.99c.21.36.83.73,1.68,1.25.46.28.97.59,1.53.97,1.18.79,2.59,1.86,4.21,3.51,1.24,1.26,2.6,2.86,4.07,4.91.69.96,1.4,2.02,2.14,3.2,1.71,2.74,3.65,4.24,5.59,5.06,1.63.69,3.26.91,4.76.97.27.01.53.02.78.02.39,0,.76.01,1.13.01h.31c6.05.02,10.67-4.64,13.47-8.55.31-.43.45-.7.52-.85-.08-.07-.22-.17-.42-.3-.15-.09-.32-.2-.55-.33-.57-.31-1.13-.65-1.68-.98-.09-.06-.19-.11-.28-.17-4.25-2.63-8.07-5.96-11.53-9.52-1.46-1.51-2.86-3.05-4.2-4.61-2.78-3.24-5.32-6.52-7.64-9.53-3.91-5.07-7.44-9.62-10.56-11.97-1.24-.93-2.42-1.53-3.53-1.65-.97-.11-1.89.16-2.86.81-.2.14-.41.29-.62.46-3.74,3.11-8.06,4.98-12.59,6.33-2.15.64-4.34,1.16-6.54,1.64-1.18.26-2.36.5-3.54.74-7.62,1.57-14.85,3.06-20.18,7.57-.41.35-.81.7-1.19,1.09-1.27,1.26-2.07,2.63-2.52,4.1-1.46,4.78.88,10.61,3.51,17.12.76,1.89,1.54,3.83,2.25,5.8,1.31,3.63,2.38,7.37,2.66,11.15.39,5.11-.66,10.31-4.48,15.41,6.57,2.42,13.46,4.11,20.35,6.03,1.5.42,3,.85,4.5,1.3.95.29,1.85.63,2.73,1,5.26,2.18,9.28,5.64,12.39,9.85,2.13,2.88,3.85,6.12,5.26,9.54l.39.16c.22.06.45.1.67.16,5.75,1.31,11.21.45,15.81-1.39,4.2-1.67,7.67-4.15,9.99-6.51.55-.56,1.04-1.11,1.45-1.64,1.77-2.27,1.93-3.68,1.79-3.94,0,0-.08-.07-.32-.13Z"/>
    <path class="cls-1" d="m184.92,211.1c-1.02-1.32-3.79-2.81-7.29-4.3-2.19-.93-4.67-1.86-7.2-2.73-8.73-3.02-18.04-5.46-18.04-5.46l-7.54,7.56c1.86,4.06,4.09,7.89,6.59,11.51,1.21,1.75,2.49,3.44,3.84,5.08,2.7,3.3,5.65,6.38,8.82,9.25,1.61,1.46,3.27,2.86,4.98,4.2,1.87,1.47,3.8,2.88,5.79,4.21,1.1.74,2.22,1.47,3.35,2.17,1.09-1.32,2.1-2.56,3.08-3.75,7.96-9.67,12.35-14.9,13.29-16.02.13-.15.21-.25.21-.25,0,0-.08-.09-.21-.23-1.06-1.15-6.2-6.79-9.66-11.24Z"/>
    <path class="cls-1" d="m257.82,177.74c-.71-.64-2.12-.09-2.12-.09l-15.21,9.78-17.73,4.37c-.6.63-.77,1.29-.71,1.92.13,1.45,1.47,2.67,1.47,2.67l14.55,1.76,4.21.51s18.38-9.3,19.02-9.71c.01,0,.02-.01.03-.02,1.01-.65,1.28-1.99.67-3.02-1.56-2.62-3.64-7.68-4.19-8.17Z"/>
    <path class="cls-1" d="m223.84,141.5s.41.46,1.1,1.19c1.01,1.08,2.6,2.75,4.37,4.49,1.83,1.8,3.85,3.66,5.58,4.98.58.4,1.18.79,1.78,1.16.15.09.31.19.46.29.07.03.13.07.2.1,0,0,9.18-9.09,13.33-12.3,1.03-.8,1.3-2.28.61-3.38l-4.48-4.58-4.43-4.52-.16-.17c-.86-1.38-2.7-1.64-3.92-.55-3.38,3.01-9.48,7.41-14.44,13.28Z"/>
    <path class="cls-1" d="m219.18,134.38l13.28-8.98c.99-.67,1.03-1.95.1-2.8l-6.85-6.26c-.87-.8-2.28-.93-3.2-.3l-11.33,7.82c1.34,1.68,2.73,3.53,4.19,5.49,1.23,1.64,2.5,3.33,3.81,5.02Z"/>
    <path class="cls-1" d="m263.39,157.42c-1.44-1.66-3.12-3.9-4.49-5.71-.11-.14-.21-.28-.31-.41-1-1.31-1.79-2.32-2.14-2.58-1.01-.76-2.81.35-2.81.35l-11.44,9.9,1.69,1c-.24.64-1.81,3.74-4.68,6.47-.38.37-.79.72-1.22,1.06-1.05.85-2.24,1.62-3.56,2.21-3.4,1.35-6.29,1.96-8.67,2.16-1.92.16-3.52.05-4.77-.16l-9.05,4.03c.11,1.27.4,2.57.84,3.87.35,1.05,1.13,1.93,2.17,2.39h.02s26.7-3.96,26.7-3.96c0,0,1.77-1.47,4.25-3.53,2.07-1.72,4.63-3.85,7.06-5.87,1.14-.95,2.25-1.87,3.27-2.73,2.68-2.24,4.74-3.95,4.99-4.18.4-.36,1.25-1.11,2.01-1.78.75-.66.81-1.78.15-2.54Z"/>
  </g>
</svg>