<?xml version="1.0" encoding="UTF-8"?>
<svg id="Calque_2" data-name="Calque 2" xmlns="http://www.w3.org/2000/svg" viewBox="0 0 367.35 358.23">
  <defs>
    <style>
      .cls-1 {
        fill: #02ffe6;
      }
    </style>
  </defs>
  <path class="cls-1" d="m310.37,131.26l-120.63-87.44c-2.45-1.78-5.88-1.23-7.66,1.22-1.78,2.45-1.23,5.88,1.22,7.66l9.73,7.05-44.71,61.69c-5.11,3.4-11.8,10.24-18.1,18.93-6.3,8.69-10.71,17.17-12.35,23.09l-44.71,61.69-9.73-7.05c-2.45-1.78-5.88-1.23-7.66,1.22-1.78,2.45-1.23,5.88,1.22,7.66l120.63,87.44c2.45,1.78,5.88,1.23,7.66-1.22,1.78-2.45,1.23-5.88-1.22-7.66l-9.73-7.05,44.07-60.8c5.22-3.12,12.38-10.29,19.1-19.55,6.72-9.27,11.29-18.3,12.64-24.23l44.07-60.8,9.73,7.05c2.45,1.78,5.88,1.23,7.66-1.22,1.78-2.45,1.23-5.88-1.22-7.66Zm-229.76,99.3l18.34-25.31,25.77-35.56c5.21-3.15,12.34-10.28,19.03-19.51,6.69-9.22,11.25-18.22,12.62-24.15l25.77-35.56,18.34-25.31,38.4,27.83c-.76-.47-1.53-.91-2.29-1.34-.2-.12-.4-.24-.6-.35-.29-.18-.59-.33-.89-.5-20.42-11.94-42.65-12.28-52.86-.25l-.1-.08-.12.34-5.13,14.42-1.63,4.57-9.66,27.18,3.4,8.16,7.84,29.03-38.84.89-22.82,17.64-3.84,2.97-12.11,9.36-.29.22.1.08c-8.25,13.44-1.02,34.47,16.68,50.16.26.23.5.46.76.68.17.16.35.31.52.46.65.59,1.31,1.18,1.99,1.76l-38.4-27.83Zm26.83,2.36s32.81-4.59,45.19-6.07c9.41-1.12,16.84-4.85,19.87-6.58,1.42-21.9,9.1-41.33,10.83-45.44l-9.34-36.22h11.6c8.52-.14,20.44-.61,31.38-2.06,14.54-1.93,26.46-7.27,30.33-7.27,9.15,0,11.95,9.34,11.95,9.34,0,0,2.53,6.68-2.07,11.28-4.6,4.6-32.46,26.01-32.46,26.01l-39.67,3.17s-.04.03-.06.05c-2.88,2.15-7,20.64-5.07,34.07.62,4.31,2.54,7.52,4.13,9.55,2.38,1.21,4.26,2.69,4.26,4.42,0,3.96-.9,5.76-.9,5.76l-9.16,26.58s-8.93,10.5-33.28,4.02c-24.35-6.48-37.53-30.6-37.53-30.6Zm161.09-80.12l-26.57,36.65c-5.1,3.42-11.75,10.23-18.02,18.87-6.26,8.64-10.67,17.08-12.33,22.99l-26.56,36.65-18.2,25.11-36.35-26.35c20.84,12.86,43.97,13.49,54.45,1.16l.1.08.12-.34,5.13-14.43,1.21-3.4,10.28-28.92-11.58-37.01,30.17-1.2,8.61.68,24.28-18.77,2.85-2.21,12.11-9.36.29-.22-.1-.08c8.47-13.79.67-35.58-18.04-51.38l36.35,26.34-18.2,25.11Z"/>
</svg>