<?xml version="1.0" encoding="UTF-8"?>
<svg id="Calque_2" data-name="Calque 2" xmlns="http://www.w3.org/2000/svg" xmlns:xlink="http://www.w3.org/1999/xlink" viewBox="0 0 367.35 358.23">
  <defs>
    <style>
      .cls-1 {
        fill: #85835c;
      }

      .cls-2 {
        fill: #807e58;
      }

      .cls-3 {
        fill: #7c7a55;
      }

      .cls-4 {
        isolation: isolate;
      }

      .cls-5 {
        fill: #f7f3aa;
      }

      .cls-6 {
        fill: #eeeaa4;
      }

      .cls-7 {
        clip-path: url(#clippath);
      }

      .cls-8 {
        fill: #827f59;
      }

      .cls-9 {
        fill: none;
      }
    </style>
    <clipPath id="clippath">
      <path class="cls-9" d="m245.51,236.33l-13.69,3.46c-.81.21-1.66.32-2.54.35-.3,0-.6,0-.9-.01-6.77-.35-12.55-6.51-13.11-14.18-.51-7.03,3.53-12.99,9.36-14.47l13.69-3.46c-5.83,1.48-9.87,7.44-9.36,14.47.56,7.67,6.34,13.82,13.11,14.18.3.02.6.02.9.01.88-.02,1.72-.14,2.54-.35Z"/>
    </clipPath>
  </defs>
  <path class="cls-5" d="m60.25,136.35c0-7.06-5.72-12.79-12.79-12.79h-10.43c-7.06,0-12.79,5.72-12.79,12.79s5.72,12.79,12.79,12.79h10.43c7.06,0,12.79-5.72,12.79-12.79Z"/>
  <g class="cls-4">
    <polygon class="cls-3" points="249.88 199.26 236.19 202.73 221.31 199.38 235 195.91 249.88 199.26"/>
    <polygon class="cls-8" points="235 195.91 221.31 199.38 223.2 105.43 236.89 101.96 235 195.91"/>
    <polygon class="cls-6" points="236.89 101.96 256.1 108.4 249.88 199.26 235 195.91 236.89 101.96"/>
  </g>
  <g class="cls-4">
    <g class="cls-4">
      <g class="cls-7">
        <g class="cls-4">
          <path class="cls-2" d="m245.51,236.33l-13.69,3.46c-.81.21-1.66.32-2.54.35-.3,0-.6,0-.9-.01-6.77-.35-12.55-6.51-13.11-14.18-.34-4.66,1.32-8.85,4.18-11.57l13.69-3.46c-2.86,2.73-4.52,6.92-4.18,11.57.56,7.67,6.34,13.82,13.11,14.18.3.02.6.02.9.01.88-.02,1.72-.14,2.54-.35"/>
          <path class="cls-1" d="m233.14,210.91l-13.69,3.46c1.45-1.39,3.22-2.4,5.18-2.89l13.69-3.46c-1.97.5-3.73,1.51-5.18,2.89"/>
        </g>
      </g>
    </g>
    <path class="cls-6" d="m241.76,207.68c6.77.35,12.55,6.51,13.11,14.18.58,8.01-4.75,14.64-11.9,14.82-.3,0-.6,0-.9-.01-6.77-.35-12.55-6.51-13.11-14.18-.58-8.01,4.75-14.64,11.9-14.82.3,0,.6,0,.9.01Z"/>
  </g>
  <path class="cls-5" d="m323.24,108.12c-2.05-2.94-10.25-12.26-10.25-12.26-5.88-4.8-11.74-9.71-18.01-14.31-7.66-5.63-16.36-9.55-25.79-13.04-21.53-8.02-38.74-7.02-38.74-7.02-20.06-.4-39.55,3.76-58.68,13.12,0,0-13.04,7.02-17.48,10.45,0,0,0,0,0,0-7.41,5.46-13.9,11.37-19.53,17.59h-52.93c-7.06,0-12.79,5.72-12.79,12.79s5.72,12.79,12.79,12.79h35.46c-4.38,8.89-7.33,18.1-8.95,27.39h-45.2c-7.06,0-12.79,5.72-12.79,12.79s5.72,12.79,12.79,12.79h44.11c.82,9.34,2.96,18.55,6.38,27.39H41.26c-7.06,0-12.79,5.72-12.79,12.79s5.72,12.79,12.79,12.79h86.66c9.62,12.69,22.41,23.79,38.14,32.28,54.63,29.49,119.11,11.88,152.85-29.12,29.68-36.06,33.12-89.5,4.32-129.19Zm-67.98,150.23c-56.72,11.84-114.1-25.27-114.13-86.12-.04-60.19,57.35-99.05,113.43-88.95,45.31,8.17,75.86,46.24,75.91,86.46.04,40.17-30.35,79.25-75.2,88.61Z"/>
</svg>