<?xml version="1.0" encoding="UTF-8"?>
<svg id="Calque_2" data-name="Calque 2" xmlns="http://www.w3.org/2000/svg" viewBox="0 0 187.56 165.35">
  <defs>
    <style>
      .cls-1 {
        fill: #fff;
      }

      .cls-2 {
        fill: none;
      }

      .cls-3 {
        fill: #42d600;
      }
    </style>
  </defs>
  <path class="cls-3" d="m93.73,47.62c9.9.07,18.19-8.13,18.27-18.09.08-10.1-8.07-18.31-18.18-18.33-10.09-.01-18.19,7.99-18.22,18.02-.03,10.16,8.02,18.33,18.13,18.4Z"/>
  <path class="cls-3" d="m103.17,121.21c18.89.81,37.7-1.42,55.51-7.67,1.65-.62,4.1-1.52,5.75-2.1,3.38-1.52,6.88-2.8,10.18-4.51,1.5-.72,3.02-1.43,4.6-2.09-3.96,3.85-8.38,7.16-13.1,10.04-.69.37-2.67,1.41-3.39,1.78-5.26,2.84-11.01,4.77-16.77,6.32-13.98,3.24-29.28,3.49-42.78-1.77h0Z"/>
  <path class="cls-3" d="m109.41,103.76c15.92.68,31.77-1.2,46.79-6.46,1.39-.52,3.45-1.28,4.85-1.77,2.85-1.28,5.8-2.36,8.58-3.8,1.27-.6,2.55-1.21,3.87-1.76-3.34,3.25-7.06,6.04-11.04,8.46-.58.31-2.25,1.18-2.86,1.5-4.43,2.39-9.28,4.02-14.13,5.33-11.78,2.73-24.68,2.94-36.06-1.49h0Z"/>
  <path class="cls-3" d="m118.53,88.27c11.48.49,22.91-.87,33.74-4.66,1-.38,2.49-.92,3.5-1.28,2.05-.92,4.18-1.7,6.19-2.74.91-.44,1.84-.87,2.79-1.27-2.41,2.34-5.09,4.35-7.96,6.1-.42.22-1.62.85-2.06,1.08-3.2,1.73-6.69,2.9-10.19,3.84-8.5,1.97-17.8,2.12-26-1.08h0Z"/>
  <path class="cls-2" d="m92.57,54.57s.95.45,2.7.97l-2.72-.98s.01,0,.02.01Z"/>
  <path class="cls-2" d="m50.46,39.36s4.05,1.75,7.85,2.83l-7.85-2.83Z"/>
  <path class="cls-3" d="m85.68,71.38c1.4.18,3.36.4,5.71.56,8.61.59,22.17.39,30.23-5.39,10.55-7.58,20.24-25.61,21.31-27.64,1.77-3.36.48-7.51-2.87-9.28-3.36-1.77-7.51-.48-9.29,2.87-2.5,4.73-10.45,18.06-17.17,22.89-.85.61-1.96,1.11-3.26,1.52-6.83.6-12.09-.47-15.06-1.35h0s0,0,0,0c-1.75-.52-2.7-.97-2.7-.97,0,0-.01,0-.02-.01l-34.25-12.36c-3.79-1.08-7.81-2.82-7.85-2.83-4.67-4.26-8.59-8.35-10.29-11.31-2.39-4.16,4.64-12.35,8.93-15.81,2.96-2.37,3.44-6.69,1.08-9.65-2.37-2.97-6.69-3.45-9.66-1.09-8.02,6.4-19.62,20.63-12.27,33.4,4.67,8.11,17.42,18.9,26.08,25.67.11,1.53.34,3.15.74,4.86,1.39,5.95,1.8,13.21,1.87,20.19l-19.6-19.15c-1.53-1.5-3.68-2.19-5.8-1.89-2.12.31-3.98,1.6-5.02,3.47-1.46,2.64-14.11,26.33-8.19,45.14.87,2.78,3.35,4.61,6.09,4.8.83.06,1.69-.04,2.53-.3,3.62-1.14,5.63-5,4.5-8.62-2.4-7.64.31-18.18,3.28-25.93l17.33,16.94,5.16,10.5c.09.29.2.53.33.68,1.18,1.35,3.64,5.37,7.26,8.15h0s8.04,13.09,8.04,13.09h0c4.12,10.91,10.83,23.54,20.6,27.22,1.96.74,4.02,1.15,6.13,1.29,15.96,1.09,34.86-12.99,37.22-14.8,3.01-2.31,3.58-6.63,1.26-9.64-2.31-3.01-6.63-3.58-9.64-1.26-6.52,5.01-22.47,14.42-30.14,11.54-1.55-.58-3.11-1.98-4.64-3.93h0c-4.4-6.25-5.35-29.66-5.35-29.66,0,0,0,0,0,0,3.13-3.6,3.55-7.22,3.43-12.47-.09-4.27-5.01-8.09-7.68-11-2.73-2.98-3.81-7.16-2.73-11.06.77-2.79,2.1-5.71,4.35-7.34Z"/>
  <polygon class="cls-1" points="95.28 55.54 95.28 55.54 95.27 55.54 95.28 55.54"/>
</svg>