<?xml version="1.0" encoding="utf-8"?>
<!-- Generator: Adobe Illustrator 27.5.0, SVG Export Plug-In . SVG Version: 6.00 Build 0)  -->
<svg version="1.1" id="Calque_1" xmlns="http://www.w3.org/2000/svg" xmlns:xlink="http://www.w3.org/1999/xlink" x="0px" y="0px"
	 viewBox="0 0 104.9 100" style="enable-background:new 0 0 104.9 100;" xml:space="preserve">
<style type="text/css">
	.st0{fill:#FFFFFF;}
</style>
<path class="st0" d="M61.8,95.7c1-1.4,1.1-3,1.4-4.6c0.2-1.7,0.4-3.4,0.6-5c0.1-0.6,0.3-0.8,0.8-1c1.4-0.5,2.8-1.1,4.2-1.7
	c0.5-0.2,0.8-0.2,1.3,0.2c1.7,1.4,3.5,2.7,5.2,4c2.7,2.1,5.9,1.9,8.3-0.5c2-2,4-3.9,5.9-5.9c2.5-2.6,2.7-5.6,0.5-8.5
	c-1.3-1.7-2.6-3.4-4-5.1c-0.4-0.5-0.4-0.8-0.1-1.3c0.6-1.3,1.1-2.6,1.6-3.9c0.2-0.7,0.6-1,1.3-1c2.3-0.2,4.6-0.5,6.9-0.9
	c2.9-0.5,4.9-2.9,5-5.9c0-3,0-6,0-9c0-3-2-5.4-5-5.9c-2.3-0.4-4.6-0.6-6.9-0.9c-0.7-0.1-1-0.3-1.3-1c-0.5-1.4-1-2.7-1.6-4
	c-0.2-0.5-0.2-0.9,0.2-1.3c1.4-1.7,2.7-3.4,4-5.1c2.2-2.8,2-5.9-0.5-8.4c-2-2-4-4-6-6c-2.5-2.4-5.6-2.6-8.3-0.5
	c-1.7,1.3-3.5,2.7-5.2,4.1c-0.4,0.3-0.8,0.4-1.3,0.1c-1.4-0.6-2.8-1.2-4.2-1.7c-0.6-0.2-0.8-0.5-0.8-1.1c-0.3-2.3-0.5-4.7-0.9-7
	c-0.5-3-2.9-5-6-5c-2.9,0-5.7,0-8.6,0c-3.5,0-5.9,2.2-6.3,5.7c-0.3,2.1-0.5,4.3-0.8,6.4c-0.1,0.5-0.3,0.8-0.8,1
	c-1.4,0.5-2.9,1.1-4.2,1.8c-0.5,0.2-0.8,0.1-1.2-0.2c-1.7-1.4-3.5-2.8-5.3-4.1c-2.8-2.1-5.8-1.9-8.3,0.6c-2,2-4,4-6,6
	c-2.4,2.4-2.6,5.5-0.5,8.3c1.4,1.8,2.7,3.5,4.1,5.3c0.3,0.4,0.3,0.8,0.1,1.3c-0.6,1.3-1.2,2.6-1.7,4c-0.2,0.7-0.6,0.9-1.3,1
	c-2.2,0.2-4.3,0.5-6.4,0.8c-2.7,0.4-4.5,1.9-5.3,4.5c0,0.1-0.1,0.2-0.2,0.3c0,3.7,0,7.4,0,11.1c0.5,1,0.8,2,1.5,2.9
	c1,1.4,2.5,2,4.2,2.2c2.1,0.3,4.3,0.5,6.4,0.8c0.3,0.1,0.8,0.4,0.9,0.7c0.7,1.4,1.3,2.9,1.8,4.3c0.1,0.3,0.1,0.8-0.1,1.1
	c-1.3,1.8-2.7,3.5-4.1,5.3c-2.1,2.8-1.9,5.9,0.5,8.3c2,2,4,4,6,6c2.5,2.4,5.6,2.6,8.3,0.5c1.7-1.3,3.5-2.7,5.2-4
	c0.5-0.4,0.8-0.4,1.3-0.1c1.3,0.6,2.6,1.2,4,1.6c0.6,0.2,0.9,0.6,0.9,1.2c0.2,2.2,0.5,4.4,0.8,6.6c0.4,2.7,2,4.5,4.7,5.2
	c0.1,0,0.2,0.1,0.3,0.2c3.6,0,7.3,0,10.9,0C59.4,97.8,60.8,97.1,61.8,95.7z M51.9,70.1c-11.3-0.5-20.1-9.8-19.5-20.8
	c0.5-11.2,9.9-19.9,20.7-19.4c11.2,0.5,19.9,9.8,19.4,20.7C72,61.8,62.7,70.5,51.9,70.1z"/>
</svg>
