<?xml version="1.0" encoding="UTF-8"?>
<svg id="Calque_2" data-name="Calque 2" xmlns="http://www.w3.org/2000/svg" viewBox="0 0 367.35 358.23">
  <defs>
    <style>
      .cls-1 {
        fill: #606060;
      }
    </style>
  </defs>
  <path class="cls-1" d="m131.81,174.66c.52-28.17,24.56-50.76,53.45-50.22,8.33.15,16.14,2.35,23.02,6.09l19.88-19.88c-18-6.55-36.92-9.12-56.88-7.24-20.02,1.89-38.53,8.31-55.81,18.42-21.06,12.32-38.28,28.89-53.02,48.18-3.13,4.09-3.12,8.54.02,12.65,12.68,16.6,27.22,31.27,44.64,42.93,1.23.82,2.47,1.6,3.7,2.38l27.2-27.2c-4.11-7.75-6.38-16.67-6.21-26.13Z"/>
  <path class="cls-1" d="m305,170.22c-13.94-18.33-30.13-34.23-49.75-46.35l-26.64,26.64c4.59,8.06,7.15,17.48,6.96,27.51-.51,28.08-24.71,50.82-53.47,50.25-8.88-.18-17.19-2.65-24.39-6.86l-20.06,20.06c18.39,6.95,37.89,9.77,58.66,7.8,16.76-1.59,32.56-6.42,47.54-14.01,21.95-11.11,40.11-26.88,55.65-45.77,2.88-3.5,5.18-7.47,7.75-11.22v-3.86c-.73-1.41-1.29-2.96-2.23-4.2Z"/>
  <path class="cls-1" d="m184.16,148.38c-15.5-.08-28.32,12.43-28.42,27.73-.01,2.15.24,4.24.69,6.26l33.37-33.37c-1.82-.4-3.71-.62-5.64-.63Z"/>
  <path class="cls-1" d="m183.39,204.31c15.44.07,28.17-12.48,28.28-27.87.02-2.73-.38-5.37-1.1-7.88l-34.65,34.65c2.38.69,4.88,1.09,7.46,1.1Z"/>
  <path class="cls-1" d="m268.07,97.53h0c-3.69-3.69-9.65-3.73-13.4-.12-.04.04-.09.08-.13.12l-16.96,16.96-21.37,21.37-17.12,17.12-38.73,38.73-17.11,17.11-24.09,24.09-14.27,14.27c-3.74,3.74-3.74,9.79,0,13.53.04.04.09.08.13.12,3.75,3.61,9.7,3.57,13.4-.12l19.23-19.23,20.06-20.06,18.21-18.21,34.65-34.65,18.04-18.04,26.64-26.64,12.82-12.82c3.74-3.74,3.74-9.79,0-13.53Z"/>
</svg>