<?xml version="1.0" encoding="UTF-8"?>
<svg id="Calque_1" data-name="Calque 1" xmlns="http://www.w3.org/2000/svg" viewBox="0 0 367.35 358.23">
  <defs>
    <style>
      .cls-1 {
        fill: #ffff45;
      }
    </style>
  </defs>
  <path class="cls-1" d="m347.66,167.72c-1.56-.07-3.12-.03-4.68-.03q-6.73,0-7.65-6.49c-.12-.83-.33-1.65-.46-2.48-8.03-52.22-35.53-90.71-82.01-115.56-16.98-9.08-35.28-14.19-54.49-15.84-2.39-.21-3.44-1.01-3.3-3.52.16-2.87.11-5.76,0-8.64-.24-6.07-5.16-10.8-11.21-10.88-6.24-.08-11.34,4.66-11.57,10.86-.11,3-.13,6-.01,9,.09,2.17-.87,2.9-2.91,3.14-4.99.59-10.01,1.13-14.92,2.15-48.18,10.1-83.72,37.1-106.74,80.48-9.02,17-14.17,35.28-15.85,54.49-.21,2.37-.98,3.46-3.5,3.31-2.87-.17-5.76-.11-8.64,0-6.07.23-10.81,5.14-10.89,11.19-.09,6.22,4.66,11.34,10.86,11.59,2.99.12,6,.13,9,.02,2.16-.09,2.91.85,3.15,2.9.59,4.99,1.12,10.01,2.15,14.92,10.15,48.3,37.24,83.89,80.84,106.86,17.04,8.98,35.32,14.07,54.52,15.75,2.04.18,3.03.91,2.94,3.1-.12,2.99-.1,6,.01,9,.22,6.06,5.16,10.81,11.19,10.89,6.21.08,11.31-4.67,11.59-10.86.07-1.56.03-3.12.03-4.68q0-6.74,6.48-7.66c.83-.12,1.65-.33,2.48-.45,52.53-8.06,91.11-35.81,115.9-82.64,8.89-16.79,13.88-34.89,15.53-53.84.21-2.39,1.01-3.44,3.51-3.3,2.87.16,5.76.11,8.64,0,6.06-.23,10.8-5.17,10.88-11.21.08-6.22-4.67-11.3-10.88-11.58ZM195.13,50.29c62.31,4.06,113.93,57.95,117.32,117.4h-8.17c-8.04,0-16.07-.08-24.11.05-2.55.04-3.43-.78-3.84-3.38-6.23-39.93-38.06-71.65-77.99-78.04-1.17-.19-3.05-1.53-3.07-2.37-.2-11.12-.14-22.25-.14-33.66Zm-106.66,40.95c22.42-24.18,50.27-37.67,83.49-41.32.11,1.48.27,2.62.27,3.75.02,9.59-.07,19.19.06,28.78.04,2.69-.75,3.63-3.54,4.06-39.81,6.17-71.51,38.07-77.79,78.13-.3,1.91-.71,3.1-2.99,3.08-10.55-.08-21.11-.05-31.67-.08-.45,0-.9-.21-1.78-.43,2.97-29.15,14.09-54.56,33.94-75.97Zm83.76,217.01c-27.64-2.7-51.77-12.67-72.5-30.45-26.58-22.78-41.38-51.83-45.31-87.23,11.88,0,23.01-.06,34.14.12.8.01,2.08,1.71,2.29,2.78,7.78,39.61,30.97,65.15,69.7,76.53,2.97.87,6.12,1.13,9.11,1.96.99.28,2.45,1.46,2.46,2.24.16,11.13.11,22.26.11,34.04Zm10.99-58.34c-39.04-.14-70.44-31.81-70.34-70.97.09-39.32,31.67-70.68,71.07-70.6,39.25.08,70.71,31.81,70.53,71.13-.18,39.26-31.87,70.58-71.26,70.44Zm94.75,18.07c-22.36,23.65-49.92,36.85-82.58,40.33-.12-1.53-.26-2.57-.27-3.62-.02-9.71.06-19.43-.06-29.14-.03-2.6.88-3.39,3.43-3.79,39.81-6.27,71.46-37.85,77.81-77.69.44-2.77,1.34-3.6,4.05-3.56,9.71.14,19.43.05,29.15.06.93,0,1.87.14,3.35.27-3.06,29.8-14.46,55.55-34.87,77.14Z"/>
  <path class="cls-1" d="m183.37,143.98c-19.2,0-34.84,15.79-34.82,35.16.01,19.17,15.82,34.92,35.1,34.98,19.08.06,35.01-15.89,35.06-35.08.05-19.37-15.77-35.06-35.35-35.06Z"/>
</svg>