<?xml version="1.0" encoding="UTF-8"?>
<svg id="Calque_1" data-name="Calque 1" xmlns="http://www.w3.org/2000/svg" viewBox="0 0 367.35 358.23">
  <defs>
    <style>
      .cls-1 {
        fill: #d60000;
      }

      .cls-2 {
        fill: #5a0000;
      }
    </style>
  </defs>
  <path class="cls-2" d="m299.87,53.08l-.32.13s-37.05,7.99-74.1-1.87c-2.65-.67-5.28-1.47-7.9-2.39-10.66-3.62-21.1-8.89-30.42-16.42-2.58-1.43-4.4-1.43-7-.02-43.79,35.43-112.17,20.76-112.43,20.71-.02.66-.03,1.33-.03,1.98-.04,23.87-.03,47.74-.03,71.6,0,23.61-.09,47.23.08,70.84.03,4.01.37,8.36,1.95,11.94,3.39,7.66,7.05,15.34,11.71,22.27,25.53,37.99,58.6,68.12,97.42,92.12,3.49,2.16,6.7,2.02,9.94-.33,13.93-10.09,28.45-19.48,41.67-30.43,23.71-19.64,44.31-42.26,60.17-68.85,4.77-8,9.3-16.25,9.31-25.96.05-48.25.03-96.49,0-144.74,0-.2-.02-.38-.02-.58Zm-57.16,48.41l12.22,13.47c.91,1.58.45,3.64-1.03,4.7-6,4.28-19.33,16.53-19.33,16.53-.09-.04-.18-.1-.27-.15-.21-.15-.42-.3-.63-.44-.83-.55-1.64-1.13-2.43-1.72-6.18-5.09-14.93-15.53-14.93-15.53,7.28-7.97,16.05-13.81,20.95-17.85,1.77-1.46,4.33-.99,5.46.98Zm-26.94-18.86c1.32-.84,3.28-.58,4.46.58l9.27,9.13c1.26,1.25,1.13,3.03-.29,3.92l-19.08,11.88c-1.75-2.44-3.44-4.87-5.07-7.24-1.95-2.82-3.8-5.49-5.59-7.92l16.3-10.36Zm-68.77,175.01c-19.51-13.06-35.76-30.89-44.84-52.79l10.97-10.2s39.77,12.03,44.94,19.22c5.16,7.2,13.22,16.6,13.22,16.6,0,0-7.96,8.74-24.28,27.17Zm71.58-39.87c-6.1,7.26-22.25,16.85-39.63,11.68-.42-.12-.33-.41-.23-.56-.06.07-.16.17-.31.32-4.87-13.18-12.9-24.58-27.5-29.66-11.59-3.98-23.37-7.03-34.44-11.58,12.06-14.89,6.26-31.05,1.1-45.38-4.36-12.1-8.12-22.55-.26-29.79,7.87-7.25,18.82-9.08,30.41-11.01,11.25-1.87,22.87-3.81,32.23-11.01,1.73-1.33,3.3-1.84,4.93-1.6,5.45.82,11.74,9.63,19.03,19.84,8.12,11.39,18.11,25.39,31.51,34.41.88.59,1.78,1.17,2.69,1.71.32.19.56.35.76.49.27.19.46.34.57.45-.1.21-.32.58-.78,1.17-4.14,5.34-10.85,11.62-19.33,11.27l-.43-.02c-.84-.03-1.74-.07-2.67-.15-2.1-.17-4.37-.56-6.62-1.62-2.68-1.26-5.32-3.46-7.57-7.39-7.04-12.3-12.7-16.04-16.09-18.28-1.17-.77-2.01-1.33-2.29-1.84l-2.33-4.28-2.58,4.13c-2.14,3.43-5.84,7.27-11.36,6.11l-15.48-3.24,13.39,8.42c8.04,5.06,28.8,20.59,28.34,31.62-.66,15.98,15.03,36.5,27.21,40.15.34.1.44.2.44.2h0c.18.37-.12,2.34-2.71,5.43Zm47.77-30.94s-.03.02-.05.03c-.92.53-27.17,12.6-27.17,12.6l-26.18-4.16s-3.74-3.66-.82-6.47l25.09-5.18,21.83-12.91s2-.7,2.97.24c.75.72,3.4,7.91,5.44,11.67.8,1.48.35,3.33-1.1,4.19Zm4.19-40.5c-1.11.9-2.34,1.91-2.91,2.39-1.17.97-28.29,21.82-28.29,21.82l-37.63,4.14h-.02c-1.43-.71-2.47-1.98-2.91-3.47-.54-1.84-.89-3.68-.97-5.46l12.89-5.18c3.92.82,10.19,1,18.94-2.1,8.45-3.37,13.24-11.87,13.79-13.16l-2.31-1.49,16.56-13.27s2.58-1.45,3.96-.34c1.14.92,5.74,8.16,9.27,12.56.88,1.1.73,2.67-.35,3.55Z"/>
  <path class="cls-2" d="m178.72,228.87c.14-.15.07-.11,0,0h0Z"/>
  <path class="cls-2" d="m180.19,221.84c.14-.15.07-.11,0,0h0Z"/>
  <path class="cls-1" d="m262.01,170.95c-.97-.93-2.97-.24-2.97-.24l-21.83,12.91-25.09,5.18c-2.91,2.81.82,6.47.82,6.47l26.18,4.16s26.25-12.07,27.17-12.6c.02,0,.03-.02.05-.03,1.44-.86,1.9-2.71,1.1-4.19-2.04-3.76-4.69-10.95-5.44-11.67Z"/>
  <path class="cls-1" d="m216.3,118.36s8.75,10.44,14.93,15.53c.8.59,1.61,1.17,2.43,1.72.21.14.42.28.63.44.09.05.18.1.27.15,0,0,13.34-12.25,19.33-16.53,1.49-1.06,1.94-3.12,1.03-4.7l-12.22-13.47c-1.14-1.97-3.7-2.44-5.46-.98-4.9,4.04-13.67,9.89-20.95,17.85Z"/>
  <path class="cls-1" d="m210.13,108.14l19.08-11.88c1.42-.88,1.55-2.67.29-3.92l-9.27-9.13c-1.18-1.16-3.15-1.42-4.46-.58l-16.3,10.36c1.79,2.43,3.64,5.1,5.59,7.92,1.64,2.37,3.32,4.8,5.07,7.24Z"/>
  <path class="cls-1" d="m261.62,130.21c-1.38-1.12-3.96.34-3.96.34l-16.56,13.27,2.31,1.49c-.54,1.29-5.34,9.79-13.79,13.16-8.75,3.1-15.03,2.92-18.94,2.1l-12.89,5.18c.09,1.78.43,3.62.97,5.46.44,1.5,1.48,2.77,2.91,3.46h.02s37.63-4.13,37.63-4.13c0,0,27.13-20.85,28.29-21.82.57-.48,1.81-1.49,2.91-2.39,1.08-.88,1.23-2.45.35-3.55-3.52-4.4-8.12-11.63-9.27-12.56Z"/>
  <path class="cls-1" d="m221.29,212.33s-.1-.1-.44-.2c-12.19-3.65-27.87-24.17-27.21-40.15.46-11.03-20.3-26.56-28.34-31.62l-13.39-8.42,15.48,3.24c5.52,1.16,9.22-2.69,11.36-6.11l2.58-4.13,2.33,4.28c.28.51,1.12,1.07,2.29,1.84,3.39,2.24,9.05,5.98,16.09,18.28,2.25,3.93,4.89,6.13,7.57,7.39,2.25,1.05,4.52,1.44,6.62,1.62.93.08,1.83.11,2.67.15l.43.02c8.48.35,15.2-5.94,19.33-11.27.45-.58.67-.95.78-1.17-.11-.1-.3-.25-.57-.45-.2-.14-.44-.3-.76-.49-.91-.55-1.81-1.12-2.69-1.71-13.39-9.02-23.38-23.02-31.51-34.41-7.28-10.21-13.58-19.03-19.03-19.84-1.63-.24-3.2.27-4.93,1.6-9.35,7.2-20.98,9.13-32.23,11.01-11.59,1.93-22.53,3.75-30.41,11.01-7.85,7.24-4.09,17.69.26,29.79,5.16,14.33,10.96,30.49-1.1,45.38,11.06,4.55,22.85,7.6,34.44,11.58,14.59,5.08,22.62,16.48,27.5,29.66.15-.15.25-.25.31-.32.07-.11.14-.15,0,0-.09.15-.18.44.23.56,17.38,5.17,33.53-4.41,39.63-11.68,2.59-3.09,2.9-5.06,2.71-5.43h0Zm-41.1,9.5c.07-.11.14-.15,0,0h0Z"/>
  <path class="cls-1" d="m113.13,194.64l-10.97,10.2c9.08,21.91,25.33,39.74,44.84,52.79,16.33-18.44,24.28-27.17,24.28-27.17,0,0-8.05-9.4-13.22-16.6-5.16-7.2-44.94-19.22-44.94-19.22Z"/>
  <path class="cls-1" d="m323.17,23.09v-4.84c-2.3.71-4.1,1.28-5.91,1.82-45.89,13.81-89,7.74-129.17-18.38-3.39-2.2-5.52-2.28-8.93-.02-33.9,22.43-70.98,30.08-110.99,22.91-7.99-1.43-15.8-3.8-24.12-5.85v2.41c0,61.93-.02,123.86.06,185.78,0,2.62.51,5.37,1.38,7.84,4.53,12.76,11.9,23.98,19.74,34.84,31.5,43.59,70.44,79.22,115.91,107.84,2.25,1.41,3.58.77,5.43-.39,33.54-21.02,63.45-46.36,89.84-75.83,15.36-17.15,29.39-35.3,40.47-55.59,4.23-7.75,6.46-15.73,6.42-24.79-.27-59.25-.14-118.49-.13-177.74Zm-92.77,270.12c-13.22,10.95-27.74,20.34-41.67,30.43-3.24,2.35-6.45,2.49-9.94.33-38.82-24-71.89-54.13-97.42-92.12-4.66-6.93-8.32-14.61-11.71-22.27-1.58-3.58-1.92-7.94-1.95-11.94-.17-23.61-.08-47.23-.08-70.84,0-23.87,0-47.74.03-71.6,0-.65.01-1.31.03-1.98.26.06,68.64,14.72,112.43-20.71,2.6-1.42,4.42-1.41,7,.02,9.32,7.54,19.76,12.8,30.42,16.42,2.62.92,5.25,1.72,7.9,2.39,37.06,9.86,74.1,1.87,74.1,1.87l.32-.13c0,.19.02.38.02.58.03,48.25.04,96.49,0,144.74,0,9.71-4.54,17.96-9.31,25.96-15.86,26.6-36.47,49.21-60.17,68.85Z"/>
</svg>