<?xml version="1.0" encoding="UTF-8"?>
<svg id="Calque_2" data-name="Calque 2" xmlns="http://www.w3.org/2000/svg" viewBox="0 0 367.35 358.23">
  <defs>
    <style>
      .cls-1 {
        fill: #9a46ff;
      }
    </style>
  </defs>
  <path class="cls-1" d="m312.71,159.16c-1.44-6.63-2.56-13.38-4.34-19.95-3.17-11.73-7.76-22.88-13.8-33.49-4.82-8.46-9.72-16.75-16.28-24.05-1.64-1.82-3.91-3.48-4.8-5.69-1.72-4.22-5.3-7.09-8.08-10.06-3.44-3.66-7.3-7.74-12.4-9.71-1.61-2.75-4.77-3.36-7.06-5.15-8.06-6.31-17.48-9.9-26.89-13.47-9.11-3.45-18.53-5.78-28.29-6.16-4.03-.16-8.3-.96-13.04,1.44,3.88,1.49,5.69,4.17,8.18,5.94,12.47,8.83,23.77,18.99,34.68,29.64,2.03,1.98,3.94,4.07,5.81,6.2,1.15,1.31,2.29,2.65,3.42,3.98,1.1,1.29,2.2,2.58,3.31,3.85.6.69,1.21,1.38,1.83,2.06.24.26.47.53.71.79.02.26.08.5.16.73.07.2.17.39.28.56.16.26.35.5.58.74,4.7,4.98,8.48,10.64,11.76,16.6,2.8,5.09,5.95,9.93,8.23,15.41,1.8,4.33,3.57,8.92,6.25,13.04,3.3,5.06,3.92,11.32,5.44,17.1,1.4,5.29,3.71,10.46,3.43,16.18-.08,1.56-1.38,2.97-.63,4.49,2.8,5.71,1.44,11.75,1.42,17.65-.02,5.62-2.34,11.12-2.75,16.4-.72,9.35-5.14,17.05-8.52,25.03-3.22,7.61-8.02,14.78-13.76,21.14-4.13,4.56-8.12,9.26-12.81,13.23-5.57,4.7-12.12,7.91-18.39,11.59-6.03,3.54-12.66,4.83-19,7.01-3.96,1.36-8.57,1.55-12.92,2.06-10.63,1.24-20.97.5-31.41-1.59-8.8-1.77-16.68-5.54-24.48-9.65-2.31-2.56-5.38-4.21-8.02-6.38-11.36-9.33-18.11-21.51-22.46-35.12-2.95-9.21-3.72-18.7-2.58-28.46,1.92-16.42,9.15-29.32,23.32-38.06,11.95-7.38,25.07-9.6,38.61-6.71,11.04,2.36,19.93,8.71,25.99,18.53,0,.26-.08.57.03.77,8.01,13.53,5.8,30.48-4.38,41.65-6.21,6.81-13.57,12.51-22.87,15.03-1.63.44-3.64.59-4.84,2.45,4.02,4.35,9.03,8.03,14.63,8.63,10.38,1.11,20.79.83,30.4-4.95,13.55-8.16,22.63-19.52,26.75-34.74,3.74-13.8,1.46-27.11-3.62-40.19-2.02-5.18-5.02-9.8-7.96-14.4-.78-1.22-1.56-2.49-2.44-3.69-1.45-2.01-3.14-3.85-5.45-5.07-.59-1.01-1.26-1.93-2-2.77s-1.55-1.62-2.39-2.36c-1.69-1.47-3.54-2.79-5.33-4.19-10.57-8.21-22.59-12.89-35.66-14.87-13.57-2.06-27.01-1.11-40.17,2.89-12.79,3.89-23.84,10.7-33.71,19.71-5.49,5.02-10.38,10.57-14.45,16.62-6.16,9.14-10.33,19.35-13.47,29.98-.95,3.2-1.42,6.3-1.59,9.6-.2,3.85-1.43,7.61-1.48,11.52-.16,11.68.58,23.22,3.91,34.52,2.39,8.11,5,16.07,9.2,23.46,3.89,6.84,7.71,13.6,13.14,19.52,4.24,4.61,8.51,9.15,13.14,13.23,1.16,1.02,2.34,2.01,3.55,2.97,3.63,2.88,7.51,5.45,11.78,7.57,2.84,2,5.8,3.73,8.85,5.23,1.22.6,2.46,1.17,3.7,1.7,5.62,2.41,11.5,4.19,17.47,5.7,14.87,3.76,29.89,5.72,45.33,4.08,12.59-1.34,24.9-3.39,36.86-7.82,13.1-4.86,25.3-11.19,36.41-19.64,12.1-9.2,22.67-19.95,30.49-32.99,5.34-8.9,11.02-17.7,14.38-27.7,3.01-8.97,7.48-17.42,8.8-26.99,1.12-8.08,3.55-16.03,3.4-24.22-.17-9.3.93-18.57-1.11-27.95Z"/>
</svg>