<?xml version="1.0" encoding="UTF-8"?>
<svg id="Calque_2" data-name="Calque 2" xmlns="http://www.w3.org/2000/svg" viewBox="0 0 367.35 358.23">
  <defs>
    <style>
      .cls-1 {
        fill: #fff;
      }

      .cls-2 {
        fill: #680000;
      }
    </style>
  </defs>
  <path class="cls-2" d="m275.03,215.93l18.55-89.62-52.49-52.49-10.31-10.29-9.02,11.45c-3.42,4.34-8.09,9.01-11.21,11.35-4.03-3.93-10.74-12.73-15.86-21.03l-11.02-17.86-11.02,17.86c-5.11,8.29-11.82,17.1-15.86,21.03-3.11-2.34-7.79-7.01-11.2-11.34l-9.01-11.5-62.82,62.82,18.55,89.62.74,1.49c1.17,2.37,29.35,58.3,84.19,89.71l6.43,3.68,6.43-3.68c54.84-31.41,83.01-87.34,84.19-89.71l.74-1.49Zm-9.66-2.93c-1.12,2.26-27.98,55.57-80.21,85.49l-1.48.85-1.48-.85c-52.24-29.92-79.1-83.24-80.21-85.49l-.17-.34-17.2-83.11,51.08-51.08,2.08,2.65c5.33,6.79,15.03,16.36,19.89,16.36,4.09,0,15.45-13.95,23.48-26.97l2.54-4.12,2.54,4.12c8.04,13.03,19.39,26.97,23.48,26.97,4.86,0,14.56-9.57,19.89-16.36l2.08-2.65,51.08,51.08-17.2,83.11-.17.34Z"/>
  <path class="cls-1" d="m231.67,78.47l-2.08,2.65c-5.33,6.79-15.03,16.36-19.89,16.36-4.09,0-15.45-13.95-23.48-26.97l-2.54-4.12-2.54,4.12c-8.04,13.03-19.39,26.97-23.48,26.97-4.86,0-14.56-9.57-19.89-16.36l-2.08-2.65-51.08,51.08,17.2,83.11.17.34c1.12,2.26,27.98,55.57,80.21,85.49l1.48.85,1.48-.85c52.24-29.92,79.1-83.24,80.21-85.49l.17-.34,17.2-83.11-51.08-51.08Zm28.18,132.2c-2.33,4.51-28.58,53.81-76.18,81.77-47.6-27.96-73.85-77.26-76.18-81.77l-16.39-79.18,44.08-44.08c4.62,5.44,14.62,16.05,22.46,16.05s20-16.58,26.03-25.81c6.02,9.22,17.97,25.81,26.03,25.81s17.84-10.61,22.46-16.05l44.08,44.08-16.39,79.18Z"/>
  <path class="cls-2" d="m232.16,87.41c-4.62,5.44-14.62,16.05-22.46,16.05s-20-16.58-26.03-25.81c-6.02,9.22-17.97,25.81-26.03,25.81s-17.84-10.61-22.46-16.05l-44.08,44.08,16.39,79.18c2.33,4.51,28.58,53.81,76.18,81.77,47.6-27.96,73.85-77.26,76.18-81.77l16.39-79.18-44.08-44.08Z"/>
  <path class="cls-1" d="m60.31,118.37l36.6-38.89-39.95,23.67-22.12-39.92,14.79,86.19-15.81-12.18,28.77,64.76-16.41-3.77,59.11,61.98c-7.63-8.39-26.69-53.38-26.69-53.38l-18.3-88.46Z"/>
  <path class="cls-1" d="m333.52,137.24l-15.81,12.18,14.79-86.19-22.12,39.92-39.95-23.67,36.6,38.89-18.3,88.46s-19.06,44.99-26.69,53.38l59.11-61.98-16.41,3.77,28.77-64.76Z"/>
  <g>
    <polygon class="cls-1" points="181.01 167.23 181.01 139.78 161.17 139.78 149.7 167.23 181.01 167.23"/>
    <polygon class="cls-1" points="181.01 234.73 181.01 172.56 151.49 172.56 181.01 234.73"/>
    <polygon class="cls-1" points="145.59 172.56 134.97 172.56 171.88 227.92 145.59 172.56"/>
    <polygon class="cls-1" points="143.92 167.23 155.39 139.78 151.67 139.78 134.97 167.23 143.92 167.23"/>
    <polygon class="cls-1" points="186.34 167.23 186.34 139.78 206.18 139.78 217.66 167.23 186.34 167.23"/>
    <polygon class="cls-1" points="186.34 234.73 186.34 172.56 215.86 172.56 186.34 234.73"/>
    <polygon class="cls-1" points="221.76 172.56 232.39 172.56 195.47 227.92 221.76 172.56"/>
    <polygon class="cls-1" points="223.43 167.23 211.96 139.78 215.68 139.78 232.39 167.23 223.43 167.23"/>
  </g>
</svg>