<?xml version="1.0" encoding="utf-8"?>
<!-- Generator: Adobe Illustrator 27.5.0, SVG Export Plug-In . SVG Version: 6.00 Build 0)  -->
<svg version="1.1" id="Calque_1" xmlns="http://www.w3.org/2000/svg" xmlns:xlink="http://www.w3.org/1999/xlink" x="0px" y="0px"
	 viewBox="0 0 104.9 100" style="enable-background:new 0 0 104.9 100;" xml:space="preserve">
<style type="text/css">
	.st0{fill:#219600;}
</style>
<g>
	<path class="st0" d="M81.7,34.3c-1-4.5-2.6-8.6-5.5-12.2c-4.1-5.1-9.6-7.7-15.9-8.9c-0.3,0-0.6,0.1-0.8,0.2c-1,0.8-1.9,1.7-2.8,2.5
		c0,0,0-0.1,0.1-0.1c0.8-0.9,1.6-1.8,2.4-2.7c0.2-0.3,2-5.3,5.3-6.9c-4-1.8-8-3.6-12-5.4c-0.3-0.1-0.6-0.1-0.9,0
		c-2.1,0.9-4.1,1.8-6.2,2.8c-2,0.9-4,1.8-6,2.7c-0.3,0.1,4,1.3,4.9,6.5c0.1,0.3-0.1,0.4-0.4,0.5c-2,0.6-4,1.1-5.9,1.8
		c-4.2,1.7-7.6,4.4-10.3,8.2c-2.9,4.1-4.4,8.8-5,13.7c-0.4,2.8-0.5,5.6-0.7,8.4c0,0.3,0.2,0.8,0.5,1c2.7,2.5,8.4,6.5,11,9
		c0.3,0.3,0.6,0.6,0.9,0.8c0,0,0.1-0.1,0.1-0.1c-0.5-2.6-4-6.8-4.4-9.5c0.3,0.1,0.5,0.2,0.6,0.3c1,0.5,2,1,3,1.6
		c0.1,0.1,0.3,0.1,0.4,0.2c0.9-4.4,2.4-9.1,5-13.2l-1.1,0.7c0,0,6.5-9.9,7.4-10.7c0,0-8,17-10,23.9c2.8,1.5,5.5,3,8.1,4.8
		c3.6,2.6,5.5,6.1,5.2,10.6c-0.1,1.9-0.3,3.7-0.6,5.6c-0.1,1,0.1,1.8,0.9,2.4c2.2,1.5,4.3,1.5,6.5-0.1c0.7-0.5,1-1.3,0.8-2.2
		c-0.4-2.3-0.7-4.7-0.5-7c0.1-2.6,0.9-5.1,2.8-7c1.2-1.2,2.6-2.2,3.9-3.2c0.9-0.7,1.9-1.2,3-1.9c-1.5-0.5-2.9-1-4.3-1.5
		c0.6-1.4,1.1-2.6,1.7-3.9c0.2-0.4,0.1-0.7-0.3-0.9c-1.3-0.9-2.5-1.7-3.8-2.6c-0.2-0.1-0.3-0.3-0.5-0.4c0.8,0.2,1.4,0.5,2.1,0.8
		c1.2,0.5,2.5,1,3.7,1.6c0.3,0.1,0.6,0.3,0.4,0.8c-0.3,0.8-0.6,1.6-0.9,2.4c-0.1,0.4-0.1,0.6,0.3,0.7c1.2,0.5,2.3,1,3.5,1.6
		c0.4,0.2,0.7,0.2,1.1,0c1.8-1,3.7-1.9,5.5-2.9c0.1-0.1,0.2-0.1,0.5-0.2c-0.5,2.7-3.7,5.6-4.1,8.3c0.2-0.1,0.3-0.1,0.3-0.2
		c3-2.8,8.7-5.8,11.6-8.5c0.2-0.2,0.3-0.6,0.3-0.8C82.7,41.7,82.5,38,81.7,34.3z"/>
	<path class="st0" d="M46.8,98.8c-1.5-6.4-2.1-13-2.7-19.6c-0.2-2.8-0.5-5.7-1-8.5c-0.9-5.5-3.8-9.7-8.4-12.7
		c-0.3-0.2-0.6-0.4-0.9-0.5c-0.4,2.7-0.9,6.4-0.9,7.7c0,0-0.3-3.3,0.1-8.1c0.7,0.4-1.3-1.1-6.9-3.3c-0.2-0.1-0.5-0.2-0.8-0.3
		c0.3,0.6,0.5,1.1,0.7,1.5c0.2,0.5,0.3,1,0.4,1.6c0.8,3.8,1.1,7.7,1.4,11.5c-0.9,4.4-2.5,5.8-2.5,5.8l3.4,4.6
		c5.3,6.1,10.6,12.3,15.9,18.4c0.6,0.8,1.3,1.5,2,2.2c0,0,0.1-0.1,0.1-0.1C46.8,99,46.8,98.9,46.8,98.8z"/>
	<path class="st0" d="M76.4,70c0.2-3.2,0.5-6.4,0.9-9.6c0.3-2.3,0.5-4.7,1.6-6.8c0,0,0-0.1-0.1-0.2c-1.9,0.9-3.8,1.7-5.6,2.6
		c-1.2,0.6-1.2,0.6-0.9,1.8c0.7,3,1,6.1,1.3,9.1c0,0.4,0,0.8,0,1.2c0,0.4,0,0.7,0,1.1c-0.8-4-1.8-7.9-3.2-11.6c-0.1,0-0.2,0-0.2,0
		c-0.1,0-0.1,0-0.2,0.1c-4.8,3-7.9,7.2-8.8,12.8c-0.6,3.7-0.9,7.5-1.2,11.3c-0.4,5.2-1.1,10.4-2.1,15.6c-0.1,0.6-0.2,1.1-0.4,1.8
		c0.1-0.1,0.2-0.1,0.2-0.2c2.8-3.3,5.7-6.5,8.5-9.8c0.2-0.2,0.3-0.6,0.3-0.9c0-3.8-0.5-7.5-1.5-11.1c-0.3-1-0.6-2-0.9-3
		c2.1,3.9,3.4,8.2,4,12.7c0.1-0.1,0.2-0.2,0.3-0.2c2.4-2.8,4.9-5.6,7.3-8.4c0.1-0.1,0.1-0.1,0.1-0.2l2.5-2.9
		C78.4,75.1,77.1,73.8,76.4,70z"/>
</g>
</svg>
