<?xml version="1.0" encoding="UTF-8"?>
<svg id="Calque_2" data-name="Calque 2" xmlns="http://www.w3.org/2000/svg" viewBox="0 0 367.35 358.23">
  <defs>
    <style>
      .cls-1 {
        opacity: .8;
      }

      .cls-1, .cls-2, .cls-3, .cls-4 {
        fill: #a030eb;
      }

      .cls-2 {
        opacity: .4;
      }

      .cls-3 {
        opacity: .6;
      }
    </style>
  </defs>
  <path class="cls-4" d="m182.6,90.14c-24.46,24.03-38.49,52.38-38.98,81.9-.3,17.9,4.38,36.23,14.75,54.27,6.08,10.58,14.11,21.06,24.23,31.31,10.12-10.24,18.16-20.73,24.23-31.31,10.36-18.05,15.04-36.37,14.75-54.27-.49-29.51-14.52-57.86-38.98-81.9Z"/>
  <path class="cls-3" d="m137.21,157.24c.38-2.38-1.06-2.68-2.53-3.3-17.07-7.17-34.71-12.31-53.09-14.67-5.71-.73-11.5-.89-17.43-1.32,10.88,61.49,54.94,102.23,106.75,119.1-4.76-6.39-9.62-12.4-13.93-18.79-16.53-24.55-24.56-51.26-19.78-81.02Z"/>
  <path class="cls-2" d="m80.36,199.43c-.76-1.13-2.84-2.1-4.19-1.98-9.3.89-18.65,1.63-27.82,3.33-8.51,1.57-16.81,4.26-25.57,6.55,38.12,50.18,94.75,68.95,145.69,57.54-1.54-.62-2.64-1.1-3.76-1.5-34.72-12.61-63.46-33.07-84.36-63.94Z"/>
  <path class="cls-1" d="m149.98,118.74c-4.45-2.9-9.04-6.36-14.05-9.06-5.88-3.16-12.07-5.81-18.24-8.39-3.31-1.38-5.82.1-7.2,3.38-4.16,9.91-5.09,20.41-5.99,30.56,11.81,4,23.18,7.86,34.2,11.59,3.7-9.22,7.4-18.42,11.28-28.08Z"/>
  <path class="cls-3" d="m230.14,157.24c-.38-2.38,1.06-2.68,2.53-3.3,17.07-7.17,34.71-12.31,53.09-14.67,5.71-.73,11.5-.89,17.43-1.32-10.88,61.49-54.94,102.23-106.75,119.1,4.76-6.39,9.62-12.4,13.93-18.79,16.53-24.55,24.56-51.26,19.78-81.02Z"/>
  <path class="cls-2" d="m286.99,199.43c.76-1.13,2.84-2.1,4.19-1.98,9.3.89,18.65,1.63,27.82,3.33,8.51,1.57,16.81,4.26,25.57,6.55-38.12,50.18-94.75,68.95-145.69,57.54,1.54-.62,2.64-1.1,3.76-1.5,34.72-12.61,63.46-33.07,84.36-63.94Z"/>
  <path class="cls-1" d="m217.38,118.74c4.45-2.9,9.04-6.36,14.05-9.06,5.88-3.16,12.07-5.81,18.24-8.39,3.31-1.38,5.82.1,7.2,3.38,4.16,9.91,5.09,20.41,5.99,30.56-11.81,4-23.18,7.86-34.2,11.59-3.7-9.22-7.4-18.42-11.28-28.08Z"/>
</svg>