<?xml version="1.0" encoding="UTF-8"?>
<svg id="Calque_2" data-name="Calque 2" xmlns="http://www.w3.org/2000/svg" viewBox="0 0 367.35 358.23">
  <defs>
    <style>
      .cls-1 {
        fill: #949494;
      }
    </style>
  </defs>
  <path class="cls-1" d="m277.58,261.46c1.55-3.71,1.79-7.34-.5-10.94-3.9-6.14-5.14-12.82-4.1-20.04.69-4.84.91-9.75,1.29-14.06,0-1.23.16-1.95-.04-2.55-.32-.97-.87-1.86-1.33-2.78-.7.78-1.65,1.46-2.06,2.37-.96,2.1-1.48,4.41-2.51,6.48-6.19,12.39-15.53,22.12-26.37,30.56-.98.77-1.97,1.55-2.82,2.45-.39.41-.76,1.39-.55,1.67.38.5,1.18.78,1.85.95.44.11,1-.05,1.46-.23,2.4-.92,4.77-1.95,7.19-2.82,2.56-.92,3.37-.47,3.8,2.14.38,2.29.37,4.66.93,6.9,1.39,5.53,2.77,11.08,4.61,16.47,1.04,3.06,2.97,3.3,5.42,1.26,5.91-4.92,10.73-10.69,13.72-17.83Z"/>
  <path class="cls-1" d="m298.94,133.92c.06-3.84-.87-7.36-2.47-10.81-5.32-11.51-12.4-21.83-21.09-31.06-10-10.61-21.4-19.29-35.05-24.84-3.8-1.54-7.68-1.28-11.62-.85,35.02,16.62,58.33,43.24,69.86,80.06.21-.06.42-.13.63-.19.04-.54.14-1.08.12-1.61-.13-3.57-.43-7.13-.38-10.7Z"/>
  <path class="cls-1" d="m141.34,285.85c-.08.21-.16.41-.24.61.4.36.76.77,1.2,1.08,2.89,2.09,5.9,4.04,8.67,6.27,3,2.4,6.34,3.83,10.05,4.69,12.35,2.86,24.85,3.62,37.47,2.42,14.51-1.38,28.37-5.05,41.13-12.41,3.55-2.05,5.73-5.28,7.8-8.66-34.63,17.44-69.94,19.49-106.09,5.98Z"/>
  <path class="cls-1" d="m296.12,232.88c-.72.77-1.8,1.43-2.09,2.34-1.81,5.77-3.19,11.67-5.19,17.37-4.51,12.89-10.59,24.9-20.81,34.41-.41.38-.7.89-1.28,1.65.92.35,1.63.85,2.35.85,5.93.07,11.86.08,17.79.02,2.09-.02,3.67-1.16,3.83-3.22.21-2.77.71-5.86-.27-8.28-1.51-3.75-.74-6.79.66-10.18,4.28-10.38,6.98-21.1,6.24-32.43-.06-.87-.81-1.69-1.24-2.53Z"/>
  <path class="cls-1" d="m130.46,65.9c-.91-.44-1.63-.64-2.31-.56-4.89.61-9.51,1.98-13.19,5.44-8.21,7.74-15.29,16.42-22.12,25.4-4.12,5.41-4.31,11-3.62,17.29,11.92-17.39,25.54-33.29,41.24-47.57Z"/>
  <path class="cls-1" d="m96.69,174.98c1.24,1.18,1.88,2.31,2.68,2.44,1.71.28,2.1-1.31,1.92-2.49-.14-.9-1.12-1.66-1.73-2.49-.78.69-1.56,1.38-2.87,2.54Z"/>
  <path class="cls-1" d="m227.13,127.79c-1.47-1.08-2.21-1.97-3.1-2.15-.43-.09-1.14,1.13-1.72,1.76.76.68,1.43,1.54,2.32,1.93.37.16,1.19-.7,2.5-1.55Z"/>
  <path class="cls-1" d="m145.28,216.75c.39.54.81,1.06,1.24,1.57,7.7,9.32,17.14,15.86,29.12,18.69,11.63,2.75,21.92.42,30.73-7.51,2.49-2.24,4.14-5.39,6.33-7.99.68-.81,1.89-1.17,2.86-1.74.27,1.2.88,2.45.71,3.59-.22,1.52-1.01,2.97-1.62,4.43-5.31,12.48-15.04,20.74-30.34,19.97-9.71-.49-18.37-3.9-26.4-9.14-.73-.47-1.5-.88-2.51-1.47-.41,1.09-1.01,1.86-.93,2.57.52,4.6-1.59,8.59-2.87,12.76-1.11,3.64-.53,5.64,2.86,7.47,10.66,5.75,21.74,9.97,34.14,10.37,12.51.4,23.05-3.75,32.13-12.08,2.34-2.15,3.38-4.63,2.53-7.82-.47-1.76-.98-3.58-.99-5.37-.02-3.02-.48-6.42.72-8.98,2.82-5.98,6.51-11.55,9.85-17.29,1-1.72,2.43-2.5,4.5-2.6,2.77-.13,3.98,1.47,5.15,3.55,2.36,4.19,6.6,4.66,9.94,1.21.63-.66,1.2-1.39,1.76-2.1,13.04-16.55,16.6-35.37,13.2-55.7-2.22-13.31-7.68-25.38-15.47-36.4-4.3-6.08-9.4-11.47-15.25-16.09-.85-.67-2.31-.6-3.49-.87.43.97.68,2.07,1.3,2.89,3.13,4.1,6.55,7.99,9.52,12.19,7.73,10.96,12.86,23.06,15.12,36.26.47,2.74.17,5.64-.08,8.44-.07.84-1.12,2.21-1.77,2.23-.9.04-2.13-.76-2.7-1.56-1.25-1.75-2.02-3.83-3.27-5.58-3.49-4.88-7.73-8.78-14.14-9.25-.87-.06-1.79.57-2.68.88.37.76.56,1.69,1.13,2.24,9.28,8.92,11.95,19.64,8.81,31.9-.29,1.13-1.37,2.06-2.08,3.09-.57-1.1-1.27-2.15-1.67-3.3-1.68-4.84-2.68-10-5.02-14.5-5.92-11.39-15.68-18.89-27.32-23.87-5.99-2.57-9.75-6.71-11.92-12.64-.95-2.6-.68-4.86,1.12-6.96,1.46-1.71,2.99-3.37,4.32-5.17,2.19-2.96,1.98-3.78-1.38-5.42-1.33-.65-2.79-1.34-4.23-1.44-4.47-.32-9.02-.92-13.41-.4-10.53,1.25-18.79,6.51-24.53,15.46,0,0-3.52,8.78-6.94,13.9-1.81,2.71-4.86,4.7-7.33,5.98-1.51.08-3.01.22-4.48.48-8.65,1.56-14.96,5.95-17.35,14.79-1.02,3.76-1.85,7.57-2.94,11.31-1.97,6.76-3.99,13.5-6.19,20.19-.34,1.05-1.87,2.53-2.65,2.42-1.23-.17-2.77-1.29-3.34-2.42-1.45-2.87-2.39-5.99-3.61-8.99-.62-1.53-1.39-3-2.09-4.5-.35.05-.69.1-1.04.15-.22.97-.63,1.93-.62,2.9.02,1.9.21,3.81.43,5.71,1.67,14.17,6.31,27.17,15.94,37.98,2.97,3.33,6.65,6.03,10.13,8.88.73.59,1.97.56,2.98.82.13-.95.37-1.89.37-2.84.01-2.31-.29-4.65-.09-6.94.59-6.66,3.91-12.3,7.39-17.77,3.62-5.7,5.42-4.73,8.4-.56Zm75.41-29.37c.52,2.06.51,4.26.75,6.39-.08,0-.15.01-.23.02,0,1.25,0,2.49,0,3.74,0,1.29,0,2.7-1.76,2.74-1.62.03-2.12-1.11-2.47-2.59-.7-2.97-1.28-6.06-2.58-8.78-4.5-9.35-12.25-14.6-22.57-14.86-13.18-.34-23.01,9.24-24.2,20.11-.87,7.93,3.16,13.36,9.46,17.36,5.28,3.35,10.97,3.59,16.34.26,3.84-2.38,6.38-5.87,6.08-10.73-.05-.89-.12-1.99-.64-2.6-1.34-1.58-2.73-3.73-4.49-4.19-2.34-.61-4.35,1.18-5.46,3.49-.25.52-.61.99-.9,1.5-2.22,3.88-4.04,4.62-8.65,1.95-3.12-1.81-3.7-5.35-1.63-8.64,5-7.97,16.06-10.62,23.99-5.55,4.9,3.13,6.59,8.23,7.34,13.61,2.26,16.38-15.02,29.85-30.61,23.98-12.42-4.68-19.74-13.34-20.78-26.65-.23-2.89.28-6.02,1.23-8.78,3.72-10.86,10.1-19.36,21.71-23.04,13.46-4.26,35.68,3.81,40.07,21.27Zm-82.11,9.71c-.63-1.28-.75-2.88-.8-4.35-.35-9.47,2.31-18.22,6.65-26.52,1.76-3.36,3.82-6.58,5.97-10.24,0,0,7.79-12.62,11.9-14.33,3.86-1.61,4.09-9.42,12.65-9.62,3.96,1.62,7.86,3.58,12.16,5.53-.85.46-1.67,1.14-2.62,1.39-3.74,1.02-7.46.94-10.97-.88-1.66-.86-2.41-.51-2.68,1.37-.15,1.07-.3,2.15-.48,3.23-1.38,2.79-4.84,9.16-8.92,11.8-5.3,3.42-11.79,14.18-11.62,16.58,0,.07.05.12.11.16-2.1,3.7-3.61,7.74-4.49,12.15-.88,4.39-1.4,8.85-2.27,13.25-.16.83-1.23,2.1-1.85,2.09-.96-.02-2.34-.77-2.74-1.59Z"/>
  <path class="cls-1" d="m156.82,89.23c-3.61,1.76-3.84,2.34-3.45,6.41.04.46-.13.93-.22,1.5-.7-.04-1.28,0-1.84-.1-5.78-1.02-8.29,1.47-6.55,7.08.48,1.53,1.06,2.99,1.76,4.35-.89,2.82-3.43,9.58-8.71,14.73-6.84,6.66-7.9,16.92-10.12,23.07-2.22,6.15,9.01-16.36,11.92-18.58,2.91-2.22,10.89-2.78,15.68-9.1.39-.51.77-.98,1.16-1.43,1.7.64,3.46,1.43,4.72,2.64,1.74,1.66,2.95,1.88,4.86.36,4.11-3.27,8.84-5.33,14.04-6.22,11.58-1.98,21.96,1.37,31.8,7.11,1.19.69,2.4,1.36,3.93,2.23.6-2.89-1.2-3.83-2.48-5.01-2.51-2.31-2.62-2.39-.03-4.51,2.85-2.32,4.15-5.34,4.59-8.82.39-3.07-1.03-4.63-4.07-4.89-.66-.06-1.85-.8-1.81-1.03.31-1.58.56-3.37,1.51-4.54.54-.66,2.39-.29,3.66-.3.39,0,.8.4,1.17.36.76-.09,1.96-.16,2.14-.59.29-.68.09-1.75-.28-2.46-.3-.57-1.14-.91-1.79-1.25-5.98-3.06-12.34-4.99-18.92-6.31-14.83-2.98-29.06-1.34-42.67,5.28Zm7.27,10.08s7.65-2.31,13.5.02c0,0-3.91,4.39-13.5-.02Zm24.9-.11c5.48-3.12,13.37-1.88,13.37-1.88-8.89,5.69-13.37,1.88-13.37,1.88Z"/>
  <path class="cls-1" d="m134.51,262.99c-10.08-7.23-18.98-15.71-27.14-25-.7-.8-2.37-1.68-3.04-1.37-.97.45-1.8,1.89-2.05,3.04-1.21,5.41-1.91,10.94-3.35,16.27-.85,3.14-1.3,6.16-1.15,9.09-2.88-1.09-6.97-4.92-6.97-4.92-.52-1.23-.84-2.59-1.59-3.65-6.75-9.51-12.35-19.58-15.05-30.99-.98-4.17-1.31-8.5-2.04-12.74-.15-.86-.79-1.63-1.2-2.44-.68.69-1.75,1.27-1.98,2.09-.53,1.89-.97,3.91-.91,5.86.26,7.53,2.27,14.69,4.88,21.75,1.63,4.41,2.78,9.01,4.02,13.56.26.97.2,2.21.29,3.25.02.16.04.31.06.46.26.29.88.97,1.82,1.93,3.86,3.97,13.03,12.69,24.03,18.36,3.42,4.23,7.01,8.16,12.14,10.45,6.51,2.9,8.85,1.67,10.34-5.19.95-4.37,1.93-8.74,3.19-13.03,1.04-3.55,1.85-3.87,5.49-3.45.8.09,1.61.1,2.42.14.14-.22.29-.45.43-.67-.87-.94-1.62-2.06-2.64-2.8Z"/>
  <path class="cls-1" d="m145.1,72.2c3.74-1.19,20.08-9.87,24.17-9.36.46.06,1.06.06,1.75.02-1.93,1.34-3.97,2.88-6.15,4.63-2.83,2.26-10.72,7.23-13.82,9.06-11.87,7-22.11,15.76-30.77,26.39-11,13.49-17.84,28.96-21.49,45.84-.73,3.38-.89,6.92-1,10.39-.03.91,1.12,1.86,1.73,2.8.68-.8,1.73-1.49,1.98-2.41,1.76-6.3,3.04-12.74,5.05-18.96,8.62-26.58,25.09-46.59,50.7-58.71,15.13-7.15,30.84-8.68,47.07-4.41,1.04.27,2.1.43,3.76.77-1.17-5.03-3.12-9.02-6.3-12.43-7.7-8.26-13.82-10.56-21.12-8.14-6.22,1.04-20.97,4.2-35.73,12.49-19.4,10.89-3.57,3.23.17,2.04Z"/>
</svg>