<?xml version="1.0" encoding="UTF-8"?>
<svg id="Calque_2" data-name="Calque 2" xmlns="http://www.w3.org/2000/svg" viewBox="0 0 367.35 358.23">
  <defs>
    <style>
      .cls-1 {
        fill: #fff;
      }
    </style>
  </defs>
  <path class="cls-1" d="m182.55,35.84L40.29,148.01l61.93,173.95,163.08.44,61.76-175L182.55,35.84Zm72.33,120.78l-67.32-38.73V52.27l121.82,94.04-54.49,10.31Zm-77.27-32.37l-43.82,35.48-75.77-13.03,119.59-94.3v71.85Zm-49.67,44.56l16.34,87.61-36.99,50.1-53.58-150.47,74.23,12.77Zm25.73,91.63l58.7-19.17,40.82,71.14-137.61-.37,38.1-51.6Zm67.25-24.24l37.56-70.15,55.13-10.43-52.91,149.9-39.78-69.33Z"/>
</svg>