<?xml version="1.0" encoding="UTF-8"?>
<svg id="Calque_1" data-name="Calque 1" xmlns="http://www.w3.org/2000/svg" viewBox="0 0 367.35 358.23">
  <defs>
    <style>
      .cls-1 {
        fill: #d60000;
      }

      .cls-2 {
        fill: none;
      }

      .cls-3 {
        fill: #606060;
      }
    </style>
  </defs>
  <path class="cls-2" d="m224.19,221.23c.21-.23.1-.17,0,0h0Z"/>
  <path class="cls-1" d="m347.81,135.26c-1.43-1.38-4.4-.35-4.4-.35l-32.4,19.16-37.23,7.69c-4.32,4.18,1.22,9.6,1.22,9.6l38.86,6.18s38.96-17.91,40.33-18.7c.02-.01.04-.03.07-.04,2.14-1.28,2.82-4.03,1.63-6.22-3.03-5.58-6.96-16.25-8.08-17.33Z"/>
  <path class="cls-1" d="m279.97,57.21s12.98,15.49,22.16,23.04c1.18.88,2.38,1.74,3.61,2.55.31.21.62.42.94.65.13.07.27.15.4.22,0,0,19.8-18.18,28.7-24.54,2.21-1.58,2.88-4.63,1.53-6.98l-18.14-20c-1.69-2.93-5.49-3.62-8.11-1.45-7.27,6-20.29,14.67-31.09,26.5Z"/>
  <path class="cls-1" d="m270.82,42.03l28.32-17.63c2.11-1.31,2.3-3.97.43-5.81l-13.76-13.55c-1.75-1.72-4.67-2.11-6.62-.87l-24.19,15.37c2.66,3.61,5.4,7.56,8.29,11.75,2.43,3.51,4.93,7.12,7.53,10.74Z"/>
  <path class="cls-1" d="m360.99,93.43c-5.23-6.53-12.06-17.26-13.75-18.64-2.04-1.66-5.88.5-5.88.5l-24.58,19.7,3.43,2.2c-.81,1.91-7.92,14.53-20.46,19.53-12.99,4.6-22.3,4.33-28.11,3.11l-19.13,7.68c.13,2.64.64,5.37,1.44,8.11.65,2.22,2.2,4.11,4.32,5.14l.03.02,55.85-6.15s40.26-30.94,41.99-32.39c.85-.71,2.68-2.21,4.33-3.55,1.61-1.31,1.83-3.64.52-5.27Z"/>
  <path class="cls-3" d="m272.79,156.05c.56,2.61.82,4.13.82,4.13.12-1.01-.21-2.44-.82-4.13Z"/>
  <path class="cls-1" d="m132.26,170.85L5.51,288.69c18.78,41.44,88.42,66.11,88.42,66.11,80.25-92.69,118.43-134.61,118.43-134.61,0,0-11.09-12.95-18.2-22.86-7.11-9.91-61.89-26.47-61.89-26.47Z"/>
  <path class="cls-1" d="m226.38,210.79c.21-.23.1-.17,0,0h0Z"/>
  <path class="cls-1" d="m313.45,97.66c-.3-.21-.65-.44-1.13-.73-1.35-.81-2.68-1.66-3.99-2.54-19.88-13.38-34.7-34.16-46.76-51.07-10.81-15.16-20.15-28.24-28.24-29.45-2.42-.36-4.75.39-7.32,2.37-13.88,10.68-31.14,13.56-47.83,16.34-17.2,2.87-33.44,5.57-45.13,16.34-11.66,10.74-6.07,26.25.39,44.22,7.66,21.27,16.27,45.26-1.63,67.36,16.42,6.76,33.91,11.29,51.11,17.19,21.66,7.53,33.58,24.46,40.81,44.01.23-.22.37-.37.46-.47.1-.17.21-.23,0,0-.14.23-.27.65.34.83,25.79,7.68,49.77-6.55,58.81-17.33,3.85-4.59,4.3-7.51,4.03-8.05h0s-.15-.15-.66-.3c-18.09-5.42-41.37-35.87-40.39-59.59.68-16.37-30.13-39.42-42.06-46.93l-19.87-12.5,22.98,4.81c8.19,1.71,13.69-3.99,16.86-9.07l3.82-6.13,3.45,6.35c.41.76,1.67,1.59,3.4,2.74,5.02,3.32,13.43,8.87,23.88,27.13,3.34,5.83,7.26,9.1,11.24,10.97,3.33,1.56,6.71,2.14,9.83,2.4,1.38.12,2.71.17,3.97.22l.64.03c12.59.52,22.56-8.81,28.7-16.73.67-.87,1-1.42,1.15-1.73-.16-.15-.44-.38-.85-.66Zm-87.07,113.13c.1-.17.21-.23,0,0h0Z"/>
</svg>