<?xml version="1.0" encoding="UTF-8"?>
<svg id="Calque_2" data-name="Calque 2" xmlns="http://www.w3.org/2000/svg" viewBox="0 0 367.35 358.23">
  <defs>
    <style>
      .cls-1 {
        fill: #ffd400;
      }

      .cls-2 {
        fill: #fec300;
      }
    </style>
  </defs>
  <path class="cls-1" d="m29.89,308.94c-.41-2.6-.62-4.87-.68-6.88-2.08.15-4.11.36-5.91.96-7.44,1.55-4.06,11.25-5.34,16.78-1.19,6.1-2.31,13.28,4.23,16.82.11-.1.2-.12.28.03.07.03.13.07.18.13.12-.05.23-.1.27.09.34.12.78-.04,1.03.34,5.16.46,10.71.44,15.73,2.2.18-.07.32,0,.45.13,4.07,1.35,8.87,2.16,11.36-2.27,1.04-2.49,1.49-5.43,1.95-8.26-8.02-.79-21.11-4.5-23.56-20.06Z"/>
  <path class="cls-1" d="m92.96,253.83c-1.17.18-2.41.23-3.33.28-.84,1.63-.37,3.7-1.61,5.18-.01.08-.03.16-.04.25-1.54,1.75-3.36,2.98-5.78,3.07-5.52.76-5.51-1.68-6.53,4.9-.03,2.24-1.83,4.44-3.98,5.02-.71.43-1.57.43-2.31.56-1.97.49-3.94.12-5.93.02-1.57,1.02-1.46,3.13-2.42,4.62-.06.51-.29,1.06-.6,1.46-2.74,7.84-7.58,8.4-14.74,9.07-.44,2.54-.78,5.17-2.09,7.48.08.22-.07.35-.2.48.06.22-.03.36-.22.46-1.83,3.3-4.91,4.42-8.32,4.91-1.62,1.29-3.15,3.65-1.39,7.61,2.92,6.57,13.26,14.76,19.97,13.97.33-.04.66-.1.97-.18.15-.04.29-.07.44-.1,1.44-3.93,4.29-6.32,11.49-4.47,1.62-.8,1.22-2.39,1.12-3.59-.55-5.15,3.62-9.98,8.9-8.97.99-.21,2.03.55,3-.15.8-1.56.03-3.45.9-4.92,1-4.62,5.55-6.85,10.46-5.84.1-.12.21-.1.32-.01.41-.06.81-.1,1.12.27.45-.1.9-.12,1.35.02,1.11-1.64.26-4.18.36-6.11.46-5.31,8.56-3.51,12.01-5.19.41-.14.45-.55.64-.85-.03-2.24.39-5.37,1.52-7.91-2.71-5.92-8.67-17.58-15.05-21.33Z"/>
  <path class="cls-1" d="m163.76,155.24c-26.54,35.18-107.69,41.2-107.69,41.2,12.9,23.5,8.87,46.43,8.87,46.43,7.47-4.01,19.9-.04,31.7,7.75,1.58,1.04,3.15,2.15,4.69,3.32,5.36,3.78,18.07,18.39,18.15,18.5.29.41.56.84.82,1.27,11.94,19.8-6.5,57.24-6.5,57.24,52.39,3.21,73.97-44.7,73.97-44.7-6.8,9.62-26.73-.68-26.73-.68,0,0,2.27-5.01,5.81-12.62,8.57-18.41,24.59-52.04,33.95-66.69,13.22-20.7,36.45-9.72,36.45-9.72C312.76,134.26,325.79,7.42,325.79,7.42c-24.79,53.45-162.03,147.82-162.03,147.82Zm67.32,17.7s-25.28-14.64-39.83,11.4c-14.55,26.04-50.3,83.83-50.3,83.83,0,0-.59-1.42-1.74-3.67-.92-1.8-2.21-4.14-3.85-6.73-3.87-6.11-9.7-13.59-17.41-18.69-5.52-3.65-11.99-6.09-19.38-5.88,0,0,7.21-1.43,16.75.36,7.96,1.49,17.53,5.23,25.89,13.94,0,0,41.76-71.78,56.17-84.08,10.47-8.94,27.7-.29,37.02-8.85,27.44-25.2,61.12-83.25,86.29-131.47,0,0-55.14,130.71-89.6,149.85Z"/>
  <path class="cls-2" d="m202.84,57.98s-1.56.94-3.65,3.64c2.15-2.29,3.65-3.64,3.65-3.64Z"/>
  <path class="cls-2" d="m169.05,142.24c14.92-8.78,17.55-20.63,20.19-49.15,1.64-17.76,6.51-27.01,9.95-31.47-5.01,5.35-13.55,15.89-14.78,26.64-1.76,15.36-14.04,21.94-27.65,26.33-13.6,4.39-24.14,43.89-33.79,49.15-9.65,5.27-41.25,19.75-41.25,19.75,14.04-3.95,25.45-8.34,34.67-9.22,9.22-.88,37.74-23.26,52.66-32.04Z"/>
  <path class="cls-2" d="m124.07,140.81c1.54-3.62,3.29-16.46,3.29-16.46-.66,2.3-11.3,7.68-12.07,15.8s-4.17,13.17-4.17,13.17c1.76-.88,11.41-8.89,12.95-12.51Z"/>
  <path class="cls-2" d="m199.99,114.7c1.97-4.28,16.68-14.15,18.98-16.35,2.3-2.19,15.58-10.53,32.04-26.33s11.3-33.13,11.3-33.13c0,4.72-5.38,25.23-34.23,36.64s-28.09,39.17-28.09,39.17Z"/>
  <path class="cls-2" d="m292.59,145.97c-36.42,60.34-55.95,63.41-63.85,63.63-7.9.22-18.24,15.76-17.55,15.36,3.73-2.19,11.63-1.98,11.63-1.98,44.1-2.41,59.46-27.21,65.39-34.23,5.92-7.02,5.27-23.92,4.39-29.18s0-13.6,0-13.6Z"/>
  <path class="cls-2" d="m318.35,88.71c.56,11.67-16.97,39.42-16.97,39.42,10.43-6.99,18.99-16.48,18.36-22-.62-5.52,2.63-33.27,2.63-33.27,0,0-4.59,4.18-4.02,15.85Z"/>
  <path class="cls-2" d="m217.76,235.71c-7.9,1.97-19.97,22.16-19.97,22.16,1.97-3.95,17.55-7.46,26.33-11.85,8.78-4.39,1.54-12.29-6.36-10.31Z"/>
</svg>