<?xml version="1.0" encoding="UTF-8"?>
<svg id="Calque_2" data-name="Calque 2" xmlns="http://www.w3.org/2000/svg" viewBox="0 0 367.35 358.23">
  <defs>
    <style>
      .cls-1 {
        fill: #bdbdaf;
      }

      .cls-2 {
        fill: #949489;
      }
    </style>
  </defs>
  <path class="cls-2" d="m133.05,246.42c6.75,32.98,21.97,65.33,50.12,93.76,28.12-28.4,43.34-60.71,50.1-93.66-24.17,2.33-43.79,2.53-49.6,2.53-6.31,0-26.21-.22-50.62-2.63Z"/>
  <path class="cls-2" d="m133.51,191.02c.12.01.23.03.35.04,15.9,1.74,32.66,2.63,49.81,2.63,14.12,0,28.12-.61,41.63-1.82,2.6-.23,5.06-.51,7.67-.79l.81-.09c1.22-.14,2.43-.28,3.63-.43-.44-10.18-1.46-20.24-2.93-30.08-.25-1.69-.52-3.38-.79-5.06-.29-1.73-.58-3.45-.9-5.16-2.28-12.52-5.23-24.62-8.55-36.09-.5-1.72-1.01-3.43-1.52-5.13-.53-1.73-1.06-3.44-1.6-5.14-14.56-45.66-34.05-79.33-37.96-85.85-3.91,6.53-23.42,40.24-37.98,85.93-.54,1.7-1.07,3.41-1.6,5.13-.52,1.7-1.02,3.41-1.52,5.13-3.32,11.47-6.27,23.58-8.54,36.11-.31,1.71-.61,3.44-.9,5.16-.28,1.68-.54,3.37-.79,5.06-1.45,9.78-2.47,19.77-2.91,29.88,1.55.2,3.05.38,4.58.55Z"/>
  <path class="cls-1" d="m234.93,115.15c2.12,7.59,4.07,15.45,5.78,23.51.91,4.31,1.72,8.58,2.46,12.83,35.38,4.67,59.96,12.93,71.29,20.04,12.76-8.53-3.18-20.33-3.18-20.33,21.27,8.68,12.15,20.67,8.44,24.49.01.02.04.03.05.05-6.4,7.14-29.8,16.87-66.7,22.77-1.1.18-2.17.36-3.29.53-.69.1-1.42.2-2.14.3-1.13.15-2.28.3-3.4.45-.52.07-1.06.14-1.59.21-1.64.22-3.31.42-4.99.62-.92.11-1.83.22-2.77.32-2.86.32-5.71.64-8.69.9-13.03,1.17-27.21,1.86-42.53,1.86-18.68,0-35.71-1.02-50.96-2.69-.1-.01-.19-.02-.28-.04-1.27-.14-2.51-.29-3.74-.45-1.68-.21-3.35-.42-4.99-.64-.2-.03-.4-.05-.6-.08-1.49-.2-2.95-.41-4.39-.62-1.49-.22-2.96-.45-4.42-.68-1.67-.26-3.42-.51-5.04-.79-32.07-5.61-53.01-14.1-60.44-20.76,0,0-.05,0-.05,0,0,0-18.47-15.29,7.14-25.74,0,0-16.03,11.86-3.1,20.39,11.17-7.06,35.42-15.26,70.35-19.97.74-4.29,1.56-8.61,2.48-12.96,1.7-8.02,3.64-15.84,5.75-23.4-49.82,5.17-116.19,19.71-116.19,60.48,0,28.57,32.61,44.25,69.27,52.86,5.6,1.32,11.3,2.47,16.99,3.48.47.08.93.13,1.4.21,2.74.47,5.44.83,8.15,1.24,2.72.41,5.47.89,8.15,1.24.03,0,.07.01.1.02.57.07,1.14.15,1.71.22,1.72.22,3.44.42,5.13.62,1.73.2,3.44.39,5.13.56,25.45,2.65,46.62,2.87,52.45,2.87s26.44-.21,51.43-2.76c1.33-.14,2.67-.28,4.02-.43.36-.04.74-.1,1.11-.14,1.69-.2,3.41-.42,5.14-.66.94-.13,1.89-.26,2.82-.38,2.73-.36,5.39-.65,8.17-1.07.22-.03.42-.05.64-.08,2.49-.38,5-.89,7.5-1.32,3.19-.55,6.36-1.03,9.54-1.68,40.09-8.12,78.11-23.94,78.11-54.8,0-41.05-67.29-55.51-117.23-60.58Z"/>
</svg>