<?xml version="1.0" encoding="UTF-8"?>
<svg id="Calque_2" data-name="Calque 2" xmlns="http://www.w3.org/2000/svg" viewBox="0 0 367.35 358.23">
  <defs>
    <style>
      .cls-1 {
        fill: #fff;
      }

      .cls-2 {
        fill: #ff0006;
      }
    </style>
  </defs>
  <g>
    <path d="m413.33-83.15l18.63-90.02-52.73-52.73-10.36-10.34-9.06,11.5c-3.43,4.36-8.13,9.05-11.26,11.4-4.05-3.95-10.79-12.79-15.93-21.12l-11.07-17.94-11.07,17.94c-5.14,8.33-11.87,17.17-15.93,21.12-3.13-2.35-7.82-7.04-11.25-11.39l-9.05-11.55-63.1,63.1,18.63,90.02.74,1.5c1.18,2.38,29.48,58.56,84.56,90.11l6.46,3.7,6.46-3.7c55.08-31.54,83.38-87.73,84.56-90.11l.74-1.5Zm-9.7-2.94c-1.12,2.27-28.1,55.82-80.57,85.87l-1.49.85-1.49-.85c-52.47-30.05-79.45-83.61-80.57-85.87l-.17-.35-17.28-83.48,51.3-51.3,2.09,2.66c5.35,6.82,15.09,16.44,19.98,16.44,4.11,0,15.52-14.01,23.59-27.09l2.55-4.14,2.55,4.14c8.07,13.08,19.48,27.09,23.59,27.09,4.88,0,14.62-9.61,19.98-16.44l2.09-2.66,51.3,51.3-17.28,83.48-.17.35Z"/>
    <path class="cls-1" d="m369.77-221.22l-2.09,2.66c-5.35,6.82-15.09,16.44-19.98,16.44-4.11,0-15.52-14.01-23.59-27.09l-2.55-4.14-2.55,4.14c-8.07,13.08-19.48,27.09-23.59,27.09-4.88,0-14.62-9.61-19.98-16.44l-2.09-2.66-51.3,51.3,17.28,83.48.17.35c1.12,2.27,28.1,55.82,80.57,85.87l1.49.85,1.49-.85c52.47-30.05,79.45-83.61,80.57-85.87l.17-.35,17.28-83.48-51.3-51.3ZM321.56-6.29c-47.81-28.09-74.18-77.61-76.52-82.14l-16.46-79.53,44.28-44.28c4.64,5.47,14.69,16.12,22.56,16.12s20.09-16.66,26.14-25.92c6.05,9.27,18.05,25.92,26.14,25.92s17.92-10.65,22.56-16.12l44.28,44.28-16.46,79.53c-2.34,4.53-28.71,54.05-76.52,82.14Z"/>
  </g>
  <g>
    <g>
      <path d="m53.13,261.19c1.51-8.92,2.94-17.35,4.51-25.92.19-.14.48-.29.63-.33,2.21-.45,4.5-.83,6.71-1.21,2.32-.39,4.71-.79,7.07-1.28,1.9-.39,3.8-1.38,5.07-2.65,19.71-19.59,37.1-36.98,53.14-53.16,1.62-1.63,2.33-4.13,2.46-5.93.19-2.59.15-5.12.12-7.81,0-.27,0-.55-.01-.83h3.71c1.8,0,4.14,0,6.5.04l1.3.48,16.55-16.52-2.3-1.73c-8.35-6.27-18.22-10.41-29.34-12.3-3.14-.53-6.25-.81-9.24-.81-10.23,0-19.52,3.11-27.67,9.26.39-12.62,10.54-39.74,22.89-55.5,20.13-25.69,45.37-40.21,77.02-44.27-6.53,8.96-9.42,19.03-8.82,30.6.65,12.53,4.96,23.99,13.19,35.04l1.73,2.32,4.99-4.99c3.32-3.3,6.45-6.43,9.58-9.68,1.14-1.18,1.16-2.86,1.17-3.97.04-2.83.03-5.56.03-8.44v-.77c.08,0,.15,0,.23,0,.83-.01,1.65-.03,2.46-.03,1.14,0,2.06.03,2.92.09.46.03.91.05,1.36.05,3.3,0,6.53-.86,9.87-2.63,5.03-2.66,10.12-5.17,15.51-7.83.07-.04.15-.07.22-.11-.35.72-.7,1.43-1.06,2.14-.28.55-.54,1.11-.81,1.67-.7,1.46-1.37,2.84-2.14,4.15-3.69,6.21-7.73,14.55-6.62,24.59-.23,0-.47,0-.7,0-1.05-.01-2.11-.02-3.16-.02-1.95,0-3.54.04-5,.11-1.84.1-3.88.95-5.18,2.17-2.86,2.68-5.58,5.41-8.46,8.29-1.04,1.04-2.08,2.09-3.15,3.15l-2.05,2.04,2.31,1.73c10.96,8.22,22.38,12.54,34.9,13.2,1.02.05,2.04.08,3.03.08,10.32,0,19.57-2.94,27.57-8.75-.76,8.84-2.86,17.76-6.26,26.59-10.6,5.04-22.99,10.96-35.32,17.05-15.82,7.81-31.82,16.99-48.79,28,.17-8.7-1.8-17.29-5.88-25.61-2.02-4.12-4.31-8-6.8-11.53l-1.74-2.46-16.45,17,.02,1.04c.05,2.8.04,5.61.04,8.58v.58c-.29,0-.57,0-.86,0-1.08,0-2.14-.02-3.19-.02-1.97,0-3.56.04-5.02.11-1.93.1-3.99.97-5.25,2.22-17.76,17.63-35.78,35.64-53.57,53.53-1.22,1.23-2.15,3.09-2.57,5.1-.66,3.21-1.2,6.47-1.72,9.62-.22,1.32-.44,2.65-.67,3.97l-.02.13c-.03.18-.07.41-.11.59-7.42,1.21-14.95,2.49-22.23,3.73-2.4.41-4.8.82-7.21,1.23l.54-3.2Z"/>
      <path class="cls-2" d="m187.18,44.01c-4.67,8.23-6.77,17.42-6.25,27.45.67,13.04,5.15,24.95,13.68,36.4l3.46,4.64,4.09-4.09c.99-.99,1.98-1.98,2.96-2.96,3.32-3.31,6.46-6.43,9.6-9.7,1.83-1.9,1.86-4.36,1.87-5.67v-.1c.03-2.2.03-4.39.03-6.66.06,0,.12,0,.18,0,1.08,0,1.95.03,2.75.08.51.04,1.03.05,1.53.05,3.72,0,7.33-.95,11.04-2.92,2.97-1.57,5.97-3.1,9.05-4.63-.21.4-.43.79-.65,1.16-3.55,5.97-7.4,13.84-7.15,23.34-.39,0-.79,0-1.18,0-2,0-3.63.04-5.14.12-2.43.13-5.02,1.22-6.76,2.84-2.89,2.7-5.61,5.44-8.5,8.34-1.04,1.04-2.09,2.1-3.16,3.16l-4.1,4.08,4.63,3.47c11.37,8.52,23.23,13,36.27,13.7,1.06.06,2.12.09,3.16.09,8.96,0,17.16-2.11,24.48-6.28-.97,6.59-2.69,13.21-5.15,19.79-10.41,4.95-22.47,10.72-34.44,16.64-14.73,7.27-29.61,15.72-45.28,25.72-.48-7.54-2.49-14.97-6.03-22.19-2.08-4.24-4.43-8.23-7.01-11.87l-3.48-4.93-4.19,4.34-13.63,14.09-1.44,1.49.04,2.07c.04,2.16.04,4.34.04,6.6-.52,0-1.03,0-1.55,0-2.01,0-3.65.04-5.15.12-2.55.13-5.18,1.26-6.88,2.94-17.71,17.59-35.74,35.6-53.58,53.54-1.55,1.56-2.74,3.88-3.24,6.36-.67,3.25-1.21,6.53-1.74,9.71-.16.98-.32,1.95-.49,2.93-6.87,1.13-13.8,2.31-20.53,3.45-1.23.21-2.47.42-3.7.63,1.41-8.31,2.75-16.19,4.19-24.16,1.82-.35,3.64-.66,5.56-.98,2.34-.39,4.76-.8,7.17-1.29,2.39-.49,4.7-1.7,6.33-3.32,19.73-19.61,37.12-37,53.16-53.18,1.78-1.8,2.97-4.6,3.18-7.52.15-2.13.16-4.2.14-6.32.4,0,.8,0,1.2,0,1.67,0,3.82,0,6.01.04l2.4.89,2.27-2.27,13.38-13.36,4.08-4.07-4.61-3.46c-8.67-6.51-18.9-10.81-30.43-12.77-3.28-.56-6.53-.84-9.66-.84-8.91,0-17.13,2.23-24.56,6.65.76-4.35,2.27-10,4.73-16.67,4.54-12.34,10.91-24.37,17.02-32.18,18.54-23.66,41.52-37.65,69.99-42.52m10.87-6.42c-35.56,3.02-63.42,18.58-84.79,45.85-13.76,17.57-26,51.21-22.94,61.95,8.73-7.93,18.75-11.67,29.69-11.67,2.88,0,5.82.26,8.82.77,10.96,1.87,20.35,5.89,28.26,11.84l-13.38,13.36c-.11-.04-.23-.07-.33-.07-2.26-.04-4.51-.06-6.81-.06-2.04,0-4.12,0-6.25,0,0,3.9.17,7.45-.08,10.96-.11,1.5-.71,3.32-1.74,4.35-17.64,17.79-35.36,35.49-53.13,53.15-.98.97-2.45,1.69-3.81,1.97-4.57.94-9.21,1.55-13.78,2.48-.96.2-2.37,1.11-2.51,1.89-1.99,10.83-3.79,21.69-5.69,32.81.48.03.75.07.97.07.07,0,.13,0,.18-.01,10.59-1.79,21.16-3.62,31.76-5.35,1.77-.29,1.91-1.47,2.13-2.76.78-4.51,1.45-9.04,2.37-13.51.28-1.36.93-2.88,1.89-3.84,17.79-17.9,35.64-35.74,53.55-53.52.87-.86,2.37-1.43,3.62-1.5,1.62-.09,3.24-.11,4.89-.11,2.12,0,4.28.04,6.54.04,0-4.12.03-7.93-.03-11.72l13.63-14.09c2.43,3.44,4.63,7.17,6.6,11.19,4.59,9.36,6.46,19.21,5.3,29.35.24-.16.49-.32.73-.48,18.18-11.97,35.19-21.82,51.99-30.11,11.98-5.92,24.17-11.75,36.18-17.46,4.36-11.01,6.84-22.51,7.1-33.95-8.77,8.08-19,11.78-30.38,11.78-.96,0-1.92-.03-2.9-.08-12.35-.66-23.37-5.08-33.54-12.71,3.98-3.96,7.68-7.77,11.55-11.39.9-.84,2.37-1.44,3.61-1.5,1.62-.09,3.25-.11,4.87-.11,2.09,0,4.18.04,6.29.04.1-.81.26-1.28.2-1.71-1.33-8.9,1.71-16.67,6.14-24.11,1.14-1.92,2.05-3.98,3.05-5.99,1.34-2.71,2.67-5.43,4.3-8.76-7.91,3.95-15.22,7.45-22.38,11.24-2.81,1.49-5.61,2.34-8.7,2.34-.39,0-.79-.01-1.19-.04-1.02-.07-2.05-.09-3.09-.09-1.67,0-3.38.06-5.19.06,0,4.11.03,7.83-.02,11.55-.01.8,0,1.87-.47,2.36-4.06,4.21-8.22,8.31-12.5,12.59-7.64-10.26-12.06-21.3-12.7-33.67-.64-12.53,3.04-23.71,12.13-33.6h0Z"/>
    </g>
    <path class="cls-2" d="m317.49,143.19c-.43,0-.76.13-1.08.27-8.9,4.06-17.86,8.03-26.7,12.22-8.18,3.88-16.36,7.76-24.53,11.66-8.41,4.03-16.81,8.08-25.17,12.21-17.63,8.7-34.52,18.7-50.94,29.51-3.33,2.19-6.65,4.4-9.96,6.61-20.07,13.43-39.84,27.29-59.19,41.75-3.16,2.36-6.19,4.88-9.29,7.33.07.11.14.23.21.34,2.99-1.38,6-2.71,8.96-4.15,17.12-8.32,34.21-16.69,51.34-24.99,3.23-1.56,6.53-2.99,9.85-4.32.55-.22.99-.34,1.34-.34.79,0,1.15.59,1.38,1.91.32,1.87.57,3.77.63,5.67.3,9.43-.58,18.81-1.38,28.19-.51,5.9-.71,11.83-.82,17.75-.05,2.51.64,4.96,2.44,6.93,1.05,1.15,2.4,1.72,3.71,1.72,1.57,0,3.09-.82,4.01-2.45.78-1.38,1.46-3.05,1.46-4.6.02-5.43,0-10.88-.49-16.28-1.03-11.34-1.93-22.67-1.07-34.06.31-4.17,1.04-8.31,4.57-11.15,2.02-1.63,4.17-3.18,6.47-4.36.04-.02.08-.04.12-.06.79-.29,1.58-.59,2.36-.91.53-.13,1.04-.22,1.5-.22,2.4,0,3.92,1.78,4.57,5.4.64,3.52.98,7.13.97,10.71-.02,8.54-.21,17.09-.56,25.62-.42,10.44-1.13,20.86-1.61,31.3-.26,5.7-.55,11.42-.3,17.11.12,2.84,1,5.83,2.26,8.39.9,1.82,2.4,2.7,3.93,2.7,1.63,0,3.29-.99,4.3-2.91.5-.95,1.02-2.01,1.09-3.05.31-4.65.8-9.33.61-13.97-.47-11.68-1.45-23.35-1.9-35.04-.55-14.46-.96-28.93.62-43.38.94-8.65,6.26-15.12,14.69-17.4.6-.16,1.14-.24,1.63-.24,1.63,0,2.65.93,3.1,2.98.48,2.22.95,4.52.88,6.77-.38,11.58-.92,23.16-1.44,34.73-.22,4.89-.72,9.77-.69,14.66.01,2.32.73,4.71,1.52,6.94.66,1.84,2.12,2.91,4.18,2.91.14,0,.29,0,.44-.01,2.14-.15,3.27-1.51,3.83-3.27.62-1.95,1.28-4.02,1.25-6.03-.09-6.9-.44-13.79-.75-20.68-.49-10.71-1.17-21.4-.53-32.14.5-8.34,3.26-15.49,9.22-21.5,6.15-6.2,12.71-11.91,19.67-17.15,12.74-9.59,25.55-19.08,38.33-28.62.43-.32.83-.67,1.24-1.01-.1-.01-.19-.02-.28-.02Z"/>
  </g>
</svg>