<?xml version="1.0" encoding="UTF-8"?>
<svg id="Calque_2" data-name="Calque 2" xmlns="http://www.w3.org/2000/svg" viewBox="0 0 367.35 358.23">
  <defs>
    <style>
      .cls-1 {
        fill: #c7d600;
      }

      .cls-2 {
        fill: #d9ff78;
      }

      .cls-3 {
        opacity: .26;
      }

      .cls-4 {
        fill: #edff00;
      }
    </style>
  </defs>
  <g class="cls-3">
    <path class="cls-2" d="m298.76,35.69s-13.55,107.12-115.09,163.07C82.14,142.82,68.59,35.69,68.59,35.69c-38.34,100.12,14.52,159.84,68.82,191.86-12.29,10.46-26.56,23.87-32.56,34.3l4.57,31.45s11.94-26.1,59.12-39.43c4.63-1.31,9.72-2.91,15.15-4.83,5.43,1.92,10.52,3.53,15.15,4.83,47.17,13.33,59.12,39.43,59.12,39.43l4.57-31.45c-6-10.43-20.27-23.84-32.56-34.3,54.29-32.02,107.16-91.73,68.82-191.86Z"/>
  </g>
  <path class="cls-1" d="m310.9,311.74c-1.07-2.11-2.6-4.11-4.34-5.71-1.65-1.52-3.77-2.6-5.8-3.64-11.31-5.75-20.81-13.69-29.16-23.21-2.55-2.9-3.46-13.22-2.71-16.38,1.58-6.7-.69-12.63-6.41-16.44-.71-.47-1.5-.82-2.63-1.42,2.16,3.4,2.4,12.24,2.67,16.9,0,0,0,.01,0,.02-.27-.5-.6-.98-1.01-1.45-6.17-7.14-13.2-13.34-20.88-18.79-3.95-2.8-8.03-5.41-12.05-8.11-6.32-4.2-53.22-31.95-62.37-37.36-.38-.27-.89-.56-1.55-.92-9.2-4.96-17.88-10.72-26.09-17.19-21.63-17.06-38.25-38.28-51.57-62.23-.49-.88-1-1.74-1.51-2.62-.2.07-.39.15-.59.22.13,1.3.21,2.61.39,3.9,1.69,11.67,5.95,22.39,12.03,32.42,9.91,16.35,23.04,29.81,38.18,41.25,7.85,5.94,16.32,11.06,24.6,16.43.39.25.73.45,1.05.61,0,0,0,0,0,0-.32-.15,73.88,39.59,73.88,39.59,0,0,24.89,19.67,26.09,28.35,0,0,0,0,0,0-5.82-10.44-29.37-24.09-29.37-24.09,0,0-60.81-29.71-99.1-54.69-14.89-9.71-24.57-21.02-28.64-26.14-15.96-20.01-24.89-42.69-25.72-68.44-.08-2.35-1.03-4.72-1.87-6.97-2.89-7.74-5.92-15.42-8.9-23.13-.2-.53-.44-1.04-.71-1.67-.27.32-.4.4-.43.51-.14.54-.28,1.08-.38,1.62-3.23,16.88-3.16,33.77.56,50.53,7.8,35.2,26.63,63.31,55.27,85,9.25,7.01,19.47,12.34,29.98,17.16.38.17.73.3,1.07.4,8.37,3.18,63.83,24.44,79.86,35.93.19.18.39.36.63.54,3.28,2.34,6.54,4.71,9.68,7.23,7.68,6.17,12.88,13.89,14.91,23.54-.13.28-.22.49-.28.66-2.1,4.85-5.2,10.4-5.36,10.86,4.01.89,9.65-2.38,11-6.67.71-2.27,1.59-4.22,2.87-6.15,2.56-3.84,3.45-3.08,4.62-2.32,5.88,3.85,10.1,9.21,13.86,15.06,2.69,4.19,5.52,8.39,8.9,12.01,2.18,2.33,5.31,4.01,8.32,5.24,2.89,1.18,5.97.42,8.19-2.07,2.2-2.47,2.23-5.45.84-8.19Z"/>
  <path class="cls-4" d="m56.45,311.74c1.07-2.11,2.6-4.11,4.34-5.71,1.65-1.52,3.77-2.6,5.8-3.64,11.31-5.75,20.81-13.69,29.16-23.21,2.55-2.9,3.46-13.22,2.71-16.38-1.58-6.7.69-12.63,6.41-16.44.71-.47,1.5-.82,2.63-1.42-2.16,3.4-2.4,12.24-2.67,16.9,0,0,0,.01,0,.02.27-.5.6-.98,1.01-1.45,6.17-7.14,13.2-13.34,20.88-18.79,3.95-2.8,8.03-5.41,12.05-8.11,6.32-4.2,53.22-31.95,62.37-37.36.38-.27.89-.56,1.55-.92,9.2-4.96,17.88-10.72,26.09-17.19,21.63-17.06,38.25-38.28,51.57-62.23.49-.88,1-1.74,1.51-2.62.2.07.39.15.59.22-.13,1.3-.21,2.61-.39,3.9-1.69,11.67-5.95,22.39-12.03,32.42-9.91,16.35-23.04,29.81-38.18,41.25-7.85,5.94-16.32,11.06-24.6,16.43-.39.25-.73.45-1.05.61,0,0,0,0,0,0,.32-.15-73.88,39.59-73.88,39.59,0,0-24.89,19.67-26.09,28.35,0,0,0,0,0,0,5.82-10.44,29.37-24.09,29.37-24.09,0,0,60.81-29.71,99.1-54.69,14.89-9.71,24.57-21.02,28.64-26.14,15.96-20.01,24.89-42.69,25.72-68.44.08-2.35,1.03-4.72,1.87-6.97,2.89-7.74,5.92-15.42,8.9-23.13.2-.53.44-1.04.71-1.67.27.32.4.4.43.51.14.54.28,1.08.38,1.62,3.23,16.88,3.16,33.77-.56,50.53-7.8,35.2-26.63,63.31-55.27,85-9.25,7.01-19.47,12.34-29.98,17.16-.38.17-.73.3-1.07.4-8.37,3.18-63.83,24.44-79.86,35.93-.19.18-.39.36-.63.54-3.28,2.34-6.54,4.71-9.68,7.23-7.68,6.17-12.88,13.89-14.91,23.54.13.28.22.49.28.66,2.1,4.85,5.2,10.4,5.36,10.86-4.01.89-9.65-2.38-11-6.67-.71-2.27-1.59-4.22-2.87-6.15-2.56-3.84-3.45-3.08-4.62-2.32-5.88,3.85-10.1,9.21-13.86,15.06-2.69,4.19-5.52,8.39-8.9,12.01-2.18,2.33-5.31,4.01-8.32,5.24-2.89,1.18-5.97.42-8.19-2.07-2.2-2.47-2.23-5.45-.84-8.19Z"/>
</svg>