<?xml version="1.0" encoding="UTF-8"?>
<svg id="Calque_2" data-name="Calque 2" xmlns="http://www.w3.org/2000/svg" viewBox="0 0 367.35 358.23">
  <defs>
    <style>
      .cls-1 {
        fill: #ffbf00;
      }

      .cls-2 {
        fill: red;
      }
    </style>
  </defs>
  <path class="cls-2" d="m319.77,177.47l-65.08-29.69-83.64,84.06-10.38,10.43-.56.57-.66.46c-.58.4-6.03,4.16-14.02,9.24-13.76,8.75-35.06,21.44-52.08,27.73l-17.71,6.55,6.46-17.74c6.12-16.82,18.45-37.84,27.12-51.65,5.22-8.32,9.12-14.02,9.53-14.62l.45-.66.56-.57,4.01-4.03,92.2-92.66-20.7-64.07-18.74,48.93L106.81,26.97l17.96,85.29-68.55,3.16,57.74,39.64-75.28,69.6,46.52-4.78-61.75,122.56,116.77-67.75,2.59,27.72,33.97-50.91,35.49,54.52,20.44-71.85,63.53,34.29-31.88-76.69,55.42-14.3Z"/>
  <path class="cls-1" d="m335.46,25.71c-2.29-2.28-5.07-3.76-8.01-4.44-5.47-1.28-11.46.23-15.71,4.5-4.19,4.21-5.66,10.07-4.47,15.47l-38.09,38.27-24.49-24.37c-1.64-1.63-3.63-2.69-5.72-3.17-3.91-.91-8.18.16-11.22,3.22-1.28,1.29-1.27,3.36.01,4.64l22.81,22.7-31.56,31.72-82.51,82.91-10.53,10.59s-2.24,3.27-5.64,8.54c-8.22,12.75-23.26,37.24-30.01,55.79,18.54-6.85,42.99-22.03,55.68-30.31,5.22-3.41,8.47-5.65,8.47-5.65l16.75-16.83,74.98-75.35,32.87-33.03,22.81,22.7c.45.45.99.74,1.57.87,1.07.25,2.24-.04,3.08-.88,4.67-4.69,4.65-12.28-.04-16.94l-24.49-24.37,38.09-38.27c5.4,1.17,11.26-.34,15.45-4.55,6.53-6.56,6.51-17.18-.06-23.72Z"/>
</svg>