<?xml version="1.0" encoding="UTF-8"?>
<svg id="Calque_1" data-name="Calque 1" xmlns="http://www.w3.org/2000/svg" viewBox="0 0 104.9 100">
  <defs>
    <style>
      .cls-1 {
        fill: #a3a3a3;
      }
    </style>
  </defs>
  <path class="cls-1" d="m99.27,47.73c-1.29-3.46-2.65-6.9-3.86-10.39-.49-1.42-1.21-2.48-2.42-3.35-3.98-2.89-7.92-5.84-11.88-8.78h.02s-11.38-9.08-11.38-9.08l3.32,5.42,5.17,2.36c-.92.34-1.83.7-2.73,1.09-.17.08-.35.2-.5.35l-6.5-2.35,4.07,6.39,3.16.3c.12.12.24.25.37.35,7.69,6.13,15.38,12.25,23.07,18.38.07-.07.13-.14.2-.21-.04-.16-.05-.33-.11-.48Z"/>
  <path class="cls-1" d="m75.26,33.97c.07.73-.21,1.15-.75,1.42l-2.44-1.18-1.03-1.22-6.05-.94,5.79,6.01,3.37,2.09c3.08,2.6,6.17,5.21,9.28,7.78.57.47,1.32.9,2.02.99,3.6.45,7.21.77,10.82,1.14.52.05,1.04.14,1.56.21.03-.08.06-.15.09-.23-7.55-5.89-15.11-11.77-22.67-17.66,0,.49-.05,1.05.01,1.6Z"/>
  <g>
    <path class="cls-1" d="m41.44,17.84c.22-.04.52,0,.68.14.13.1.25.23.37.37l.94-4.58,1.36,1.94-1.88,3.36c.47,1.02.64,2.37.27,3.2-4.1,9.28-8.23,18.56-12.32,27.85-1.73,3.94-3.4,7.9-5.04,11.71-2-.79-3.82-1.5-5.74-2.25,2.13-5.28,4.18-10.39,6.24-15.49,3.33-8.24,6.67-16.48,10.04-24.7.09-.21.29-.41.52-.56l2.52-8.64,4.37-5.75-4.86,13.86c.84-.16,1.68-.31,2.53-.45Z"/>
    <path class="cls-1" d="m45.26,24.49c.28.53.65,1.19.98,1.88.35.73.84.99,1.68.85,1.28-.21,2.59-.28,3.98-.42-6.21,12.94-12.36,25.77-18.48,38.51-1.9-.8-3.69-1.54-5.14-2.15,5.7-12.99,11.36-25.89,16.98-38.68Z"/>
    <path class="cls-1" d="m33.26,68.01c1.06.47,2.12,1,3.07,1.66,1.09.75,1.25,2.25.56,3.58-.61,1.17-1.85,1.74-3.09,1.37-.76-.23-1.52-.51-2.25-.83-5.43-2.39-10.85-4.79-16.27-7.2-.75-.34-1.5-.72-2.2-1.16-.97-.61-1.4-1.54-1.24-2.68.16-1.15.76-1.99,1.88-2.42,1.29-.51,2.4.09,3.52.58,5.34,2.35,10.68,4.71,16.01,7.09Z"/>
    <path class="cls-1" d="m25.71,73.88c.24.11.44.28.62.39-2.13,4.85-4.22,9.6-6.29,14.3-2.7-1.16-5.37-2.32-8.13-3.51.2-.48.34-.85.5-1.22,1.84-4.17,3.7-8.32,5.49-12.5.29-.67.58-.74,1.16-.47,2.21,1.01,4.43,2,6.64,3Z"/>
    <path class="cls-1" d="m20.92,91.84c1.09.49,1.5,1.43,1.42,2.56-.09,1.18-.59,2.12-1.91,2.62-.91.51-1.86.04-2.78-.36-3.3-1.44-6.59-2.9-9.87-4.37-.5-.22-1.01-.48-1.45-.8-1.11-.79-1.39-2.36-.7-3.65.61-1.15,2.03-1.88,3.08-1.42,4.09,1.77,8.15,3.6,12.22,5.42Z"/>
    <polygon class="cls-1" points="52.23 18.87 48.46 21.7 50.97 14.05 52.23 18.87"/>
  </g>
  <polygon class="cls-1" points="61.06 18.66 55 17.72 60.8 23.73 70.43 29.7 61.06 18.66"/>
</svg>