<?xml version="1.0" encoding="UTF-8"?>
<svg id="Calque_2" data-name="Calque 2" xmlns="http://www.w3.org/2000/svg" viewBox="0 0 398.2 424.88">
  <defs>
    <style>
      .cls-1 {
        fill: #fff;
      }
    </style>
  </defs>
  <path class="cls-1" d="m180.41,389.38c-.05-.17-.1-.34-.15-.51-.63-2.17-.97-4.42-.97-6.75v-10.78c0-16.44,16.41-29.43,37.71-30.2-.24-.74-.38-1.53-.38-2.34,0-3.96,3.03-7.18,6.76-7.18h7.8c7.78-14.11,4.73-27.56,1.76-35.08h-9.56c-3.73,0-6.76-3.22-6.76-7.18s3.03-7.18,6.76-7.18h109.76c-3.07-4.98-6.66-9.64-10.82-13.95-1.38-1.42-2.81-2.81-4.32-4.16-4.87-4.35-10.41-8.3-16.74-11.78-.16-.09-.33-.17-.49-.25-1.74-.92-3.51-1.79-5.3-2.63-6.36-2.95-13.01-5.32-19.83-7.1-2.01-.52-4.04-.99-6.08-1.41-7.2-1.49-14.53-2.36-21.85-2.61-.04,0-.08,0-.12,0-2.23-.07-4.46-.1-6.69-.06-35.73-.88-63.09,22.76-75.21,55.24.11-.37.23-.74.35-1.11,6.27-20.99,20.18-40.22,39.81-50.71,11.3-6.1,24.2-8.62,36.95-8.9h.01c.22,0,.44,0,.66-.01.22,0,.44,0,.66-.01l-.42-.47c-.25-.03-.51-.06-.76-.09s-.51-.06-.76-.09c-20.6-2.48-41.74-1.75-61.07,6.16-10.28,4.28-19.24,10.63-27.34,18.59,4.88-7.63,11.54-14.35,19.46-19.18,19.49-12.09,44.27-13.85,66.48-8.31.29.07.58.14.87.22.3.08.59.16.89.24l-4.55-5.04-.04-.04-.04-.04c-20.03-17.83-45.1-27.65-70.6-27.65-19.2,0-38.45,5.53-55.66,16-29.23,17.77-47.67,43.31-55.02,76.06.14.08.3.14.47.19.15.05.31.08.49.11.08.01.15.03.23.04,25.31,3.15,44.91,22.68,48.3,48.08,2.02,15.08-2.73,30.2-12.02,41.71,0,0,1.24,4.45,9.41,7.44,11.91,4.37,36.83,7.86,80.16,7.73-.82-1.45-1.51-2.95-2.04-4.52-.06-.17-.1-.33-.16-.5Z"/>
  <path class="cls-1" d="m179.41,24.94c.97.44,1.97.84,2.94,1.23,1.53.61,3.1,1.25,4.55,2.02,13.42,7.13,22.28,18.73,26.34,34.5.34,1.34,1.04,2.01,2.4,2.31,3.41.75,6.57,2.09,9.41,3.99,1.12.75,2.61,1.7,4.22,2.39.87.37,1.78.55,2.67.72.37.07.74.14,1.11.23l1.86.44-.98-1.63c-.81-1.34-1.66-2.53-2.48-3.68-.63-.89-1.23-1.73-1.79-2.6-2.47-3.86-3.35-7.03-2.78-9.96.64-3.28-.77-4.98-2.67-6.86-6.92-6.85-9.96-14.26-9.27-22.65.05-.64.13-1.28.2-1.79.03-.2.05-.37.06-.51l.07-.59-.54-.24c-1.37-.61-2.74-1.19-4.06-1.75-2.95-1.25-5.73-2.42-8.38-3.89-7.18-3.98-10.7-8.88-11.08-15.42l-.07-1.18-1.07.49c-9.42,4.33-13.97,12.83-12.18,22.74.15.81,1,1.47,1.53,1.71Z"/>
  <path class="cls-1" d="m367.51,140.74c16.35,1.97,27.16-10.5,22.71-24.12-3.55-10.87-15.69-17.59-26.78-14.82-11.06,2.77-17.01,13.95-12.92,24.59,3.27,8.51,9.75,13.09,16.99,14.35Z"/>
  <path class="cls-1" d="m110.49,206.44l.83-.45c17.52-9.58,36.13-14.44,55.33-14.44,5.58,0,11.32.41,17.06,1.22l1.29.18-.16-1.29c-1.14-9.3-6.24-14.66-15.58-16.37-4.27-.78-8.72-1.18-13.23-1.18-6.75,0-13.71.85-21.28,2.59-6.39,1.47-14.59,3.89-21.37,9.53-6.5,5.4-7.74,12.48-3.39,19.41l.5.8Z"/>
  <path class="cls-1" d="m99.87,338.5c-2.75-23.18-21.34-41.46-44.41-43.94-.17-.02-.34-.03-.5-.05-.17-.02-.33-.03-.5-.05-.18-.02-.37-.04-.55-.05-2.84-.22-3.25-.56-3.87-3.33-.13-.59-.26-1.18-.39-1.78-.08-.37-.16-.74-.24-1.1-.08-.37-.17-.75-.25-1.12-1.85-8.39-3.71-16.77-5.56-25.16-.15-.67-.3-1.35-.47-2.12-7.46,1.65-14.75,3.26-22.31,4.93.18.81.33,1.49.48,2.17,2.13,9.66,4.27,19.33,6.4,28.99.64,2.91.43,3.36-2.12,4.8-21.74,12.24-31.28,38.99-22.11,62.01,9.85,24.73,36.86,37.4,62.27,29.22,6.55-2.11,12.41-5.54,17.37-9.91.11-.1.22-.19.32-.29.15-.13.3-.26.44-.39,1.38-1.27,2.68-2.61,3.9-4.02.11-.13.22-.25.33-.38.12-.14.24-.27.36-.41,8.6-10.31,13.06-24,11.4-38.01Zm-18.08,32.34c-.14.17-.29.32-.43.48-.12.14-.24.27-.36.41-.11.12-.22.25-.33.37-.86.95-1.74,1.87-2.68,2.74-.41.38-.84.74-1.27,1.11-.15.13-.3.26-.45.38-.11.09-.22.17-.33.26-3.63,2.92-7.8,5.25-12.39,6.79-21.82,7.27-45.06-4.08-52.49-25.73-.87-2.52-1.55-5.24-1.6-7.88-.23-11.43,10.46-19.54,21.44-16.27,6.28,1.87,12.59,3.46,19.05,4.42.18.03.36.06.55.08.18.03.37.06.55.08.93.13,1.86.24,2.8.34,1.15.12,1.82-.14,2.43-1.13.03-.06.07-.11.11-.16.11-.18.24-.36.35-.55.12-.19.25-.38.37-.57,1.36-2.14,2.77-4.25,4.17-6.37,3.89-5.92,9.9-8.73,16.37-7.38,6.89,1.43,11.05,5.75,12.56,12.62.09.4.18.8.27,1.2,2.76,12.51-.82,25.31-8.65,34.75Z"/>
  <path class="cls-1" d="m117.5,176.69l.88-.39c11.69-5.16,24.47-7.78,38-7.78,2.95,0,5.99.13,9.02.37l.82.07.22-.8c.8-2.91,1.6-5.79,2.38-8.65,2.2-8.02,4.28-15.6,6.49-23.28.42-1.45,1.06-2.83,1.75-4.29.38-.8.77-1.64,1.11-2.48,1.97-4.78,2.02-9.75.14-13.98-1.82-4.1-5.36-7.28-9.98-8.95-3.56-1.29-7.37-1.94-11.05-2.58l-1.1-.19-11.48-1.91-2.02-.34.98,1.8c3.71,6.82,5.46,14.98,5.34,24.93-.02,1.36-.5,2.98-2.7,2.98-.07,0-.15,0-.23,0-1.68-.08-2.32-.9-2.75-3.49-.27-1.62-.51-3.29-.75-4.91-.7-4.85-1.43-9.86-3.05-14.53-3.04-8.73-9.74-13.74-18.39-13.74-2.38,0-4.88.38-7.45,1.12-7.92,2.29-15.37,6.91-22.76,14.1-2.74,2.67-4.89,3.76-7.4,3.76-1.23,0-2.56-.27-4.08-.83-4.8-1.77-10.23-2.25-14.94-2.55-.34-.02-.69-.03-1.03-.03-6.7,0-12.1,4.34-13.74,11.07-1.7,6.96,1.61,13.79,8.06,16.61,4.93,2.16,9.86,3.8,14.66,4.9,21.47,4.89,36.06,15.73,44.62,33.14l.42.86Z"/>
  <path class="cls-1" d="m348.78,181.59c-7.36-1.73-13.25-5.21-18.5-10.43-2.72,4.88-5.31,9.53-8.03,14.42,6.32,3.5,12.39,6.87,18.57,10.31,2.71-4.87,5.23-9.4,7.95-14.29Z"/>
  <path class="cls-1" d="m350.1,175.68c.77.13,2.1-.43,2.49-1.08,2.33-3.87,4.45-7.86,6.82-12.13-7.39-1.7-13.32-5.26-18.5-10.42-2.39,4.27-4.66,8.18-6.73,12.19-.34.67-.16,2.1.36,2.64,4.28,4.5,9.36,7.71,15.56,8.8Z"/>
  <path class="cls-1" d="m304.22,199.61c11.25,6.35,22.55,12.63,33.89,18.82,5.58,3.05,8.84,7.46,9.65,13.86.77,6.05,4.98,10.25,11.02,11.56,4.64,1.01,9.96-1.53,13.06-6.24,3.27-4.95,3.46-10.92-.28-15.38-2.36-2.81-5.36-5.35-8.56-7.16-22.92-12.95-45.94-25.71-68.99-38.43-2.83-1.56-5.99-2.53-8.99-3.77-6.53-.33-11.45,2.21-14.3,7.78-2.7,5.27-2.19,11.18,1.28,14.9,4.15,4.45,10.13,5.76,15.9,3.19,5.65-2.52,10.97-2.16,16.33.86Z"/>
  <path class="cls-1" d="m84.07,342.34c-7.9,1.51-15.83,2.17-23.76,1.84-.2,0-.4-.02-.6-.03-.19,0-.38-.02-.56-.03-2.01-.11-4.03-.25-6.04-.49-.19-.02-.39-.06-.58-.08-.19-.02-.37-.06-.56-.08-1.11-.15-2.22-.29-3.32-.48-6.49-1.1-12.89-2.84-19.28-4.5-8.47-2.2-15.89,4.34-14.5,12.97.26,1.61.7,3.21,1.24,4.75,4.74,13.65,17.52,23.24,32.04,24.08,8.72.51,17.11-2.22,23.79-7.31.11-.09.23-.17.34-.25.16-.12.32-.23.47-.36,1.41-1.14,2.74-2.4,3.98-3.75.11-.12.22-.25.33-.38.12-.14.24-.28.36-.42,2-2.33,3.74-4.92,5.12-7.77,2.73-5.64,3.91-11.59,3.52-18.05-.83.14-1.4.22-1.97.33Z"/>
  <path class="cls-1" d="m30.75,257.02c2.71-.6,5.42-1.21,8.13-1.81s5.43-1.19,8.14-1.76c1.33-.28,1.79-.83,1.44-2.17-.46-1.75-.82-3.53-1.18-5.31-.22-1.05-.71-1.47-1.85-1.22-11.01,2.46-22.03,4.89-33.06,7.3-1.16.25-1.37.88-1.13,1.9.39,1.65.8,3.3,1.08,4.97.25,1.54.87,2.03,2.5,1.64,2.64-.63,5.3-1.23,7.95-1.81,2.66-.58,5.31-1.15,7.97-1.74Z"/>
  <path class="cls-1" d="m314.13,215.92c.54-.97,1.04-1.97,1.66-3.15-6.21-3.39-12.14-6.63-18.11-9.89-.69,1.17-1.04,1.74-1.37,2.33-5.8,10.42-11.58,20.84-17.38,31.25,6.85,1.68,13.54,3.95,19.97,6.84,5.08-9.13,10.15-18.25,15.23-27.38Z"/>
  <path class="cls-1" d="m36.25,241.34c.36-3.62.81-7.2,1.04-10.8.18-2.79-2.28-4.96-5.03-4.41-5.27,1.06-10.53,2.22-15.75,3.48-2.72.66-4.04,3.68-2.7,6.12,1.73,3.16,3.65,6.22,5.5,9.35,5.69-1.26,11.27-2.49,16.95-3.74Z"/>
  <path class="cls-1" d="m360.61,156.6c.72.14,1.98-.03,2.27-.5,1.79-2.91,3.37-5.95,5.19-9.24-7.52-1.36-13.49-4.62-18.5-10.33-1.78,3.17-3.41,5.89-4.81,8.72-.31.64-.15,1.96.33,2.47,4.28,4.49,9.36,7.69,15.53,8.89Z"/>
  <path class="cls-1" d="m305.54,286.19h-82.16c-1.52,0-2.76,1.43-2.76,3.18s1.24,3.18,2.76,3.18h143.33c3.04,0,6.01.43,8.8,1.27,1.67.5,3.27,1.15,4.78,1.93h0c.59.31,1.17.64,1.73.99.27.17.55.35.81.54.53.37,1.04.76,1.53,1.16,1.24,1.03,2.29,2.17,3.15,3.37.35.5.67,1.01.95,1.52.14.26.27.53.4.79.25.54.46,1.1.63,1.66.35,1.15.53,2.33.53,3.51v9.58c0,.28-.01.56-.03.83,0,.09-.02.18-.03.27-.02.19-.03.37-.06.55-.02.11-.04.22-.06.33-.03.16-.05.32-.09.48-.02.12-.06.23-.09.35-.04.15-.07.3-.12.45-.03.12-.07.24-.11.35-.05.15-.09.29-.14.43-.04.12-.09.24-.14.36-.06.14-.11.28-.17.42-.05.12-.11.24-.16.35-.06.14-.13.27-.2.41-.06.12-.12.23-.19.35-.07.13-.14.26-.22.39-.07.12-.14.23-.21.35-.08.13-.16.25-.24.38-.08.12-.16.23-.24.35-.09.12-.17.24-.27.37-.08.11-.17.23-.26.34-.09.12-.19.24-.29.35s-.19.22-.28.33c-.1.11-.2.23-.31.34-.1.11-.2.21-.3.32-.11.11-.22.22-.33.33-.11.1-.22.21-.33.31-.11.11-.23.21-.35.32-.11.1-.23.2-.35.3-.12.1-.24.2-.36.3-.12.1-.24.2-.37.29-.13.1-.25.19-.38.29-.13.09-.25.19-.38.28-.13.09-.27.19-.4.28-.13.09-.27.18-.4.27-.14.09-.28.18-.42.26-.14.09-.28.17-.42.26-.14.08-.29.17-.43.25-.15.08-.29.16-.44.24-.15.08-.3.15-.45.23-.15.08-.3.16-.46.23-.15.07-.31.14-.46.22-.16.07-.31.14-.47.21-.16.07-.32.14-.49.2-.16.07-.31.13-.47.19-.17.06-.33.13-.5.19-.16.06-.32.12-.48.18-.17.06-.34.11-.51.17-.17.05-.33.11-.5.16-.19.06-.37.11-.56.16-.16.04-.31.09-.47.14-.29.08-.59.15-.88.22-.2.05-.41.09-.61.13-.21.04-.42.09-.63.13-.16.03-.32.06-.49.08-.2.04-.4.07-.61.1-.17.03-.35.05-.52.07-.2.03-.39.06-.59.08-.17.02-.35.04-.53.05-.2.02-.4.04-.6.06-.18.01-.36.02-.53.03-.16,0-.33.02-.49.03v6.35c.11,0,.22,0,.33,0,.21,0,.42-.02.63-.04.4-.02.79-.06,1.19-.09.22-.02.45-.04.67-.07.4-.05.8-.1,1.21-.16.2-.03.4-.06.59-.09.59-.1,1.17-.21,1.75-.33,12.58-2.73,21.03-11.68,21.03-22.28v-9.58c0-12.96-12.66-23.1-28.81-23.1h-61.17Z"/>
  <path class="cls-1" d="m216.65,400.63c-.33-.02-.66-.04-.99-.07-.26-.02-.51-.05-.77-.07-.33-.03-.66-.07-.99-.11-.25-.03-.5-.07-.75-.1-.33-.05-.66-.1-.99-.16-.24-.04-.49-.08-.73-.13-.33-.06-.66-.13-.99-.21-.23-.05-.47-.1-.7-.16-.34-.08-.67-.17-1.01-.26-.22-.06-.44-.11-.65-.17-.36-.1-.72-.22-1.08-.33-.18-.06-.36-.11-.54-.17-.21-.07-.42-.15-.62-.22-.32-.11-.64-.23-.95-.35-1.27-.5-2.46-1.06-3.58-1.67-.59-.32-1.15-.65-1.69-1-.21-.13-.42-.26-.62-.4-.2-.13-.38-.27-.57-.41-2.12-1.53-3.84-3.27-5.09-5.14-.1-.16-.21-.31-.31-.47-.1-.15-.18-.31-.27-.47-1.16-2.04-1.8-4.22-1.8-6.44v-10.78c0-1.96.47-3.9,1.41-5.76.44-.88.99-1.75,1.62-2.57.42-.54.88-1.07,1.37-1.58.49-.5,1.01-1,1.57-1.46.54-.46,1.13-.91,1.75-1.34,0,0,0,0,0,0,.62-.43,1.26-.84,1.92-1.22.79-.46,1.65-.9,2.57-1.33.83-.38,1.69-.73,2.56-1.05.23-.08.47-.17.7-.25,0,0,0,0,0,0h0c.48-.16.97-.32,1.46-.46.49-.14.98-.28,1.48-.4.2-.05.4-.1.6-.14,0,0,0,0,0,0,0,0,.02,0,.03,0,.31-.07.62-.12.93-.18.07-.01.15-.03.22-.04.22-.04.45-.09.67-.13.13-.03.26-.05.38-.08.29-.05.58-.08.86-.12.41-.06.81-.12,1.22-.17.02,0,.03,0,.05,0,.04,0,.08-.01.11-.02.36-.04.73-.06,1.09-.09.39-.03.78-.08,1.18-.1.76-.04,1.52-.06,2.29-.06h119.13v-6.77h-114.74c-.32,0-.63-.03-.94-.07-.1-.01-.19-.04-.29-.06-.21-.04-.42-.09-.63-.15-.11-.03-.22-.07-.33-.11-.19-.07-.38-.15-.57-.24-.1-.05-.21-.1-.31-.15-.06-.03-.12-.05-.17-.08h-1.15c-20.02,0-35.7,11.52-35.7,26.23v10.78c0,2.33.4,4.59,1.15,6.73.06.17.12.34.19.5.06.17.12.33.18.5.8,1.98,1.91,3.85,3.28,5.59.13.17.27.33.41.5.14.17.27.33.42.5.08.09.15.18.23.27.54.61,1.12,1.2,1.74,1.77.69.64,1.42,1.26,2.18,1.85,6.19,4.77,14.86,7.78,24.65,8.02v-7.65c-.1,0-.19-.01-.29-.01-.26-.01-.52-.03-.78-.04Z"/>
  <path class="cls-1" d="m241.34,314.38c-.03.7-.06,1.41-.12,2.13,0,.03,0,.06,0,.09-.06.7-.14,1.41-.24,2.12-.02.11-.03.22-.04.34-.1.71-.23,1.43-.37,2.16-.03.14-.06.27-.08.41-.15.74-.32,1.49-.52,2.24-.01.05-.03.1-.04.15-.19.73-.41,1.46-.65,2.2-.04.12-.07.24-.11.36-.25.75-.52,1.5-.81,2.25-.06.15-.12.29-.18.44-.31.77-.64,1.54-1,2.31,0,.02-.01.04-.02.05h10.04c.04-.08.09-.16.13-.24.11-.2.21-.4.31-.59.14-.26.27-.52.4-.78.1-.2.19-.4.29-.6.12-.26.24-.52.36-.77.09-.2.18-.4.26-.6.11-.26.22-.52.32-.77.08-.2.16-.39.24-.59.1-.26.2-.52.29-.77.07-.19.14-.39.21-.58.09-.26.18-.52.26-.78.06-.19.12-.37.18-.56.08-.27.16-.54.24-.81.05-.17.1-.35.15-.52.08-.29.15-.58.22-.87.04-.15.08-.3.11-.45.08-.36.16-.72.23-1.08.02-.08.03-.15.05-.23.08-.44.16-.87.23-1.3.02-.11.03-.21.04-.32.05-.32.09-.64.13-.96.02-.15.03-.31.05-.46.03-.27.06-.54.08-.81.02-.17.03-.33.04-.5.02-.25.04-.5.05-.75,0-.17.02-.34.02-.52.01-.24.02-.48.03-.71,0-.17,0-.35,0-.52,0-.23,0-.46,0-.69,0-.17,0-.34,0-.51,0-.23-.01-.46-.02-.68,0-.17-.01-.34-.02-.5-.01-.22-.02-.45-.04-.67-.01-.16-.02-.33-.03-.49-.02-.22-.04-.44-.06-.67-.01-.16-.03-.32-.04-.47-.02-.22-.05-.44-.08-.66-.02-.15-.03-.3-.05-.45-.03-.23-.06-.46-.1-.68-.02-.13-.04-.27-.06-.4-.04-.25-.08-.5-.13-.75-.02-.1-.03-.21-.05-.31-.13-.7-.27-1.38-.42-2.04-.03-.11-.05-.22-.08-.33-.05-.22-.1-.44-.16-.65-.03-.13-.06-.25-.1-.37-.05-.19-.1-.39-.15-.57-.04-.13-.07-.25-.11-.38-.05-.18-.1-.36-.16-.54-.04-.13-.08-.25-.12-.38-.05-.17-.1-.34-.16-.5-.04-.13-.08-.25-.12-.38-.05-.16-.11-.32-.16-.47-.04-.12-.08-.24-.12-.36-.06-.16-.11-.31-.17-.46-.04-.11-.08-.23-.12-.34-.03-.09-.07-.18-.1-.27-.02-.06-.04-.12-.07-.17-.04-.11-.08-.21-.12-.32-.02-.05-.04-.09-.05-.14h-10.36s.03.09.05.14c.32.92.63,1.9.92,2.94.03.09.05.18.08.27.14.51.27,1.03.4,1.56.02.1.05.19.07.29.13.56.26,1.13.37,1.71,0,0,0,.02,0,.02.09.44.17.89.25,1.35.02.14.05.28.07.42.02.1.03.2.05.3.09.59.17,1.2.24,1.81.01.11.02.22.04.33.07.64.13,1.29.17,1.95,0,.01,0,.03,0,.04.04.65.07,1.31.08,1.99,0,.11,0,.21,0,.32.01.66,0,1.33-.01,2.01,0,.12,0,.25-.01.37Z"/>
  <path class="cls-1" d="m235.02,335.62h-11.64c-1.52,0-2.76,1.42-2.76,3.18,0,1.09.48,2.1,1.29,2.69.15.11.3.19.46.26.02,0,.04.02.06.03.18.08.37.13.56.16.13.02.26.03.39.03h114.74v-6.35h-103.11Z"/>
  <path class="cls-1" d="m394.38,400.7h-140.85v7.65h140.85c2.11,0,3.82-1.71,3.82-3.82s-1.71-3.82-3.82-3.82Z"/>
  <path class="cls-1" d="m278.59,385.82v4h-25.06v6.88h105.05c-.23-.44-.45-.88-.67-1.34-.25-.51-.49-1.03-.71-1.54-.08-.17-.14-.34-.22-.51-.06-.14-.12-.28-.18-.42-.04-.08-.07-.17-.11-.26-.05-.11-.09-.23-.14-.34-.08-.2-.15-.4-.23-.6-.12-.31-.24-.62-.35-.93-.06-.17-.12-.34-.18-.52-.03-.1-.07-.2-.1-.3-.08-.24-.16-.47-.23-.71-.07-.21-.13-.42-.2-.63-.09-.3-.18-.59-.26-.88,0-.02-.01-.04-.02-.06-.02-.07-.04-.14-.06-.21-.03-.12-.06-.24-.09-.35-.08-.3-.16-.6-.23-.89-.05-.2-.1-.4-.15-.6-.04-.17-.08-.35-.12-.52-.03-.11-.05-.23-.07-.34l-.02-.08c-.04-.18-.08-.36-.11-.53-.07-.38-.14-.75-.21-1.13-.02-.11-.04-.22-.06-.33,0-.06-.02-.12-.03-.17-.01-.07-.02-.15-.03-.22-.05-.35-.11-.7-.15-1.05-.02-.13-.03-.26-.05-.39-.03-.28-.07-.56-.1-.85,0-.01,0-.03,0-.04,0-.05,0-.1-.01-.15-.02-.18-.03-.36-.05-.53-.03-.29-.05-.59-.07-.88-.01-.19-.02-.38-.03-.57,0-.04,0-.07,0-.11,0-.08-.01-.17-.01-.25,0-.16-.01-.31-.02-.47,0-.19-.01-.38-.02-.57,0-.27-.01-.54-.01-.81,0-.12,0-.25,0-.38,0-.02,0-.03,0-.05,0-.06,0-.12,0-.19,0-.25,0-.51.01-.76,0-.18,0-.36.01-.54,0-.02,0-.04,0-.06,0-.05,0-.1,0-.15,0-.21.02-.42.03-.62,0-.16.01-.33.02-.49,0-.12.01-.23.02-.35,0-.14.02-.28.03-.42,0-.05,0-.09.01-.14,0-.12.02-.25.03-.38.02-.18.03-.36.05-.54.01-.15.03-.3.04-.45.01-.1.02-.19.03-.29,0-.04,0-.07.01-.11.03-.27.06-.53.1-.79,0-.07.02-.14.03-.21,0-.04.01-.09.02-.13.02-.14.04-.27.06-.41.04-.27.08-.54.12-.81,0-.02,0-.04,0-.06,0-.03,0-.06.01-.09.02-.1.04-.2.05-.31.04-.25.08-.49.13-.74.02-.1.04-.2.06-.3.02-.1.04-.19.06-.28.04-.2.08-.39.12-.59.03-.13.06-.27.09-.4,0-.02,0-.04.01-.06,0,0,0-.02,0-.03.02-.07.03-.14.04-.21.03-.15.07-.3.1-.44.03-.15.07-.29.1-.44.03-.12.06-.24.09-.36.03-.11.05-.21.08-.31,0,0,0,0,0-.01,0,0,0,0,0,0,.03-.13.07-.27.1-.4.04-.17.09-.33.13-.5.03-.11.06-.22.09-.33.02-.07.04-.15.06-.23.07-.25.14-.49.22-.73.02-.06.03-.12.05-.17,0-.02.01-.04.02-.06,0-.02.01-.04.02-.05.1-.34.21-.67.32-1,0-.03.02-.05.03-.08.03-.08.05-.15.08-.23.07-.22.15-.43.22-.64.03-.07.05-.15.08-.22.03-.09.07-.18.1-.27.05-.14.1-.28.15-.42.04-.11.08-.23.13-.34,0,0,0-.01,0-.02,0,0,0-.01,0-.02.03-.07.05-.14.08-.21.01-.03.02-.06.03-.08h-9.85l-8.8,9.57v-9.57h-119.13c-.67,0-1.34.02-2,.06-.61.03-1.22.09-1.82.15-.09,0-.18.01-.28.02-.3.03-.6.09-.91.13-.37.05-.75.1-1.12.16-.07.01-.14.03-.21.04-.08.02-.15.03-.23.05-.52.1-1.04.19-1.56.31l-.53.13s0,0,0,0h0c-.88.22-1.76.48-2.62.76-.21.07-.42.14-.62.22-.77.28-1.53.59-2.26.92-.81.37-1.56.76-2.24,1.15,0,0,0,0,0,0h0c-.56.33-1.11.68-1.64,1.04-.52.36-1.01.74-1.46,1.12-.45.38-.88.78-1.27,1.19-.39.4-.75.82-1.07,1.24-.48.62-.89,1.27-1.22,1.92-.65,1.3-.98,2.64-.98,3.97v10.78c0,2.04.79,4.05,2.21,5.9.12.15.24.3.36.45.13.15.25.3.39.45,1.62,1.78,3.85,3.38,6.57,4.67.25.12.5.24.75.35.26.11.52.22.79.33.1.04.21.09.31.13.46.18.93.35,1.4.51.16.05.32.1.48.15.32.1.63.2.96.29.19.06.39.1.58.16.3.08.59.16.89.23.21.05.42.1.64.14.29.06.58.12.88.18.22.04.44.08.66.12.03,0,.07.01.1.02.26.04.52.09.78.12.22.03.45.06.67.09.29.04.59.07.89.1.23.02.45.05.68.06.3.03.61.04.91.06.22.01.44.03.67.04.06,0,.13,0,.19,0v-6.86h-11.12v-4h72Zm-13.28-15.25h57.7v4h-57.7v-4Z"/>
  <polygon class="cls-1" points="221.72 395.96 221.72 396.7 221.72 398.38 221.72 400.7 221.72 400.78 221.72 412.35 221.72 421.84 234.1 409.46 249.53 424.88 249.53 412.35 249.53 400.7 249.53 400.65 249.53 398.7 249.53 397.77 249.53 396.7 249.53 394.87 249.53 389.82 221.72 389.82 221.72 395.96"/>
  <path class="cls-1" d="m358.81,376.5c0,.25.02.5.03.76.01.21.02.42.04.63.02.25.04.5.06.76.02.22.04.43.06.65.03.25.05.51.09.77.03.22.05.44.08.66.04.26.08.52.12.78.03.22.07.43.11.65.05.27.1.54.15.81.04.21.08.42.13.64.06.29.13.57.2.86.05.2.09.4.14.61.08.33.18.67.27,1,.04.16.08.32.13.48.14.49.3.98.47,1.48.05.15.11.31.16.46.12.35.24.69.38,1.04.08.2.16.4.24.61.12.3.24.6.37.91.09.22.19.44.29.66.13.29.26.58.4.87.11.23.22.45.33.68.14.29.28.57.43.86.12.23.24.46.37.69.15.28.31.57.48.85.13.23.26.46.4.69.07.12.15.24.22.37h13.19c-.05-.09-.09-.17-.13-.26-.11-.21-.21-.41-.31-.62-.17-.34-.34-.68-.5-1.02-.1-.21-.2-.43-.3-.64-.15-.34-.3-.68-.44-1.01-.09-.21-.18-.41-.26-.62-.15-.37-.29-.73-.43-1.1-.06-.17-.13-.34-.2-.52-.19-.53-.38-1.06-.55-1.59-.02-.05-.03-.11-.05-.16-.15-.48-.3-.95-.43-1.43-.05-.18-.1-.36-.15-.54-.09-.35-.19-.69-.27-1.04-.05-.2-.1-.4-.14-.6-.08-.32-.15-.65-.21-.97-.04-.2-.08-.41-.12-.61-.06-.33-.12-.66-.18-.98-.03-.19-.07-.38-.1-.56-.06-.37-.11-.75-.16-1.12-.02-.13-.04-.27-.06-.4-.06-.5-.12-1-.16-1.5-.01-.12-.02-.23-.03-.35-.03-.38-.06-.76-.08-1.14-.01-.17-.02-.35-.02-.52-.02-.32-.03-.63-.04-.95,0-.19,0-.37-.01-.55,0-.3,0-.61,0-.91,0-.18,0-.36,0-.54,0-.32.01-.63.03-.94,0-.16,0-.31.02-.47.02-.4.04-.79.07-1.18,0-.07,0-.13.01-.2.03-.46.08-.91.12-1.36.01-.12.03-.24.04-.36.04-.33.07-.65.12-.97.02-.15.04-.3.06-.46.04-.29.08-.57.13-.85.02-.16.05-.31.08-.47.05-.28.09-.56.15-.83.03-.15.05-.29.08-.44.06-.3.12-.59.18-.88.02-.11.05-.23.07-.35.18-.81.37-1.6.57-2.37.03-.11.06-.22.09-.32.07-.27.15-.54.23-.8.04-.13.07-.25.11-.38.07-.25.15-.49.22-.73.04-.12.08-.25.12-.37.08-.24.16-.48.23-.71.04-.11.07-.22.11-.33.09-.27.19-.53.28-.8.02-.07.05-.13.07-.2.12-.32.23-.63.35-.93h-8.21v6.87l-5.66-6.16c-.06.14-.12.28-.18.43-.04.11-.09.21-.13.32-.09.22-.17.44-.26.67-.03.08-.06.15-.09.23-.12.31-.23.62-.35.95-.02.05-.03.1-.05.14-.1.27-.19.55-.29.84-.04.11-.07.23-.11.34-.07.22-.14.45-.21.67-.04.14-.08.28-.12.42-.06.21-.12.42-.18.63-.04.15-.08.31-.13.46-.06.21-.11.42-.17.63-.04.16-.08.32-.12.49-.05.21-.1.42-.15.64-.04.17-.08.33-.11.5-.05.22-.09.44-.14.66-.03.17-.07.34-.1.51-.04.22-.08.45-.12.67-.03.18-.06.35-.09.53-.04.23-.07.46-.11.7-.03.17-.05.35-.08.52-.03.26-.06.51-.1.77-.02.16-.04.32-.06.48-.04.35-.07.7-.1,1.05,0,.09-.02.18-.02.27-.03.41-.06.82-.08,1.24,0,.16-.01.32-.02.48,0,.28-.02.56-.02.84,0,.19,0,.38,0,.58,0,.26,0,.51,0,.77,0,.2.01.41.02.61Z"/>
  <polygon class="cls-1" points="364.13 352.75 364.13 345.98 364.13 341.98 364.13 335.62 364.13 331.62 364.13 325.95 355.95 325.95 351.92 325.95 347.91 325.95 342.13 325.95 342.13 331.62 342.13 333.62 342.13 335.62 342.13 341.98 342.13 345.98 342.13 352.75 342.13 356.06 348.87 348.73 349.85 347.66 353.11 344.12 354.37 342.75 356.96 345.56 363.57 352.75 364.13 352.75"/>
  <path class="cls-1" d="m373.3,345.45c-.14.02-.27.04-.41.06-.52.08-1.05.15-1.57.21-.22.02-.44.04-.67.07-.45.04-.9.08-1.35.11-.24.02-.48.03-.72.04-.15,0-.3.02-.45.02v6.8h26.25c2.11,0,3.82-1.72,3.82-3.82s-1.71-3.82-3.82-3.82h-19.24c-.61.13-1.22.24-1.84.34Z"/>
  <polygon class="cls-1" points="354.37 348.66 352.59 350.6 350.6 352.75 352.25 352.75 356.22 352.75 358.13 352.75 356.5 350.97 354.37 348.66"/>
  <path class="cls-1" d="m321.09,215.71c-.67,1.14-1.17,1.95-1.63,2.79-5.07,9.11-10.15,18.23-15.22,27.34.13.07.26.12.38.19,6.2,3.13,11.92,6.95,17.1,11.35,5.65-10.23,11.26-20.49,16.95-30.69.08-.14,0-.36,0-1.05-5.64-3.18-11.49-6.49-17.58-9.93Z"/>
  <path class="cls-1" d="m338.13,321.95h38.73v4h-8.73v5.63c.09,0,.18,0,.27,0,.27-.02.54-.05.82-.07.34-.03.68-.06,1.02-.11.27-.04.54-.08.8-.12.33-.05.66-.11.98-.18.26-.05.52-.11.78-.18.32-.07.63-.15.94-.24.25-.07.5-.15.75-.22.3-.09.61-.19.9-.3.24-.09.49-.18.72-.27.29-.11.57-.23.85-.35.23-.1.46-.2.68-.31.27-.13.54-.26.8-.4.22-.11.43-.23.64-.35.26-.15.5-.3.75-.45.2-.12.4-.25.59-.38.24-.16.46-.33.68-.49.18-.14.36-.27.53-.41.21-.17.41-.35.61-.54.16-.15.32-.29.48-.44.19-.19.37-.38.54-.58.14-.15.28-.3.41-.46.17-.2.31-.41.46-.61.11-.16.23-.31.34-.47.14-.22.26-.44.38-.66.09-.16.19-.32.26-.48.11-.23.2-.47.29-.71.06-.16.13-.31.18-.47.09-.27.14-.54.2-.81.03-.13.07-.27.09-.4.07-.41.1-.82.1-1.23v-9.58c0-.78-.12-1.57-.35-2.35-.12-.38-.26-.77-.44-1.15-.09-.19-.18-.38-.28-.57-.2-.37-.44-.75-.69-1.11-.65-.92-1.47-1.8-2.44-2.61h0c-.39-.33-.81-.65-1.24-.95-.22-.15-.44-.3-.67-.44,0,0,0,0,0,0-.46-.29-.95-.57-1.44-.83-1.72-.9-3.6-1.59-5.57-2.05s-4.04-.7-6.15-.7h-112.15c.11.32.22.64.32.96,0,0,0,0,0,0,0,.02.01.04.02.07.08.26.16.53.24.79,0,.02.01.04.02.06.07.22.13.42.2.64.02.06.04.13.05.19.06.23.13.46.19.69.07.25.14.5.21.75.08.29.14.6.22.91.06.27.13.53.19.81.06.3.12.6.18.91.06.3.12.59.18.89.05.3.1.61.15.92.03.16.05.32.08.48.03.16.05.32.08.48.04.31.08.63.11.94.04.34.09.67.12,1.01.03.3.05.62.07.93.03.31.05.62.07.94,0,0,0,.01,0,.02,0,.05,0,.09.01.14,0,.03,0,.07,0,.1.03.58.05,1.16.06,1.75,0,.08,0,.16,0,.24,0,.12,0,.25,0,.37,0,1.27-.04,2.57-.15,3.9,0,.02,0,.05,0,.07-.03.4-.09.81-.13,1.21-.04.32-.06.64-.11.96,0,.02,0,.05,0,.07-.05.37-.12.75-.19,1.13-.06.39-.12.77-.19,1.17,0,0,0,0,0,0-.06.29-.13.59-.2.89-.02.07-.03.14-.05.21-.09.41-.17.82-.27,1.23-.09.37-.21.74-.31,1.12-.12.42-.22.83-.35,1.25,0,0,0,0,0,0-.11.35-.24.7-.36,1.06-.15.45-.29.89-.46,1.34-.09.25-.2.5-.31.76-.05.11-.09.23-.14.34-.16.41-.32.81-.5,1.22,0,.02-.02.04-.03.06-.01.03-.03.06-.04.09,0,0,0,0,0,0-.15.33-.3.66-.45.98h85.01v-5.68h-20.12v-4h20.12Zm-42.25-9.56h-14.18v-4h47.16v4h-32.98Z"/>
  <path class="cls-1" d="m230.73,102.59c.17.14.34.31.38.52.04.23-.09.46-.22.65-1.28,1.94-3.29,3.62-3.47,5.93-.14,1.83.92,3.7.33,5.43-.21.62-.62,1.15-.96,1.72-1.1,1.8-1.17,1.73-.89,3.82-.48.11-.97.22-1.45.33-.31-.96-1.01-1.46-1.64-2.69-.27-.52.91-5.65,1.09-6.28s.13-1.31.09-1.97c-.13-2.07-.09-4.16.12-6.22.13-1.33.59-3.88,2.27-4.07,1.47-.17,3.34,1.97,4.35,2.84Z"/>
  <path class="cls-1" d="m316.67,41.32c-2.07-4.16-5.46-7.22-10.36-9.35-6.29-2.74-13.32-4.01-22.11-4.01-2.48,0-5.14.09-8.35.3-.8.05-1.65,1.02-1.77,1.74-.61,3.8-1.98,7.53-4.18,11.41-4.07,7.17-9.87,13.85-18.26,21.03-1.04.89-1.99,2.09-2.69,3.38-1.59,2.92-3.02,5.85-4.58,9.1-.57,1.19-1.43,1.71-2.79,1.71v.4h0v-.4s-1.44,0-1.44,0c-3,0-6.1-.01-9.15-.1-.86-.03-1.76-.25-2.46-.6-1.09-.55-2.19-1.18-3.24-1.79-1.03-.59-2.1-1.21-3.19-1.76l-.59-.3c-1.77-.91-3.61-1.85-5.55-2.43-4.36-1.3-9.09-1.94-15.33-2.08-.95-.02-1.64-.25-2.04-.67-.4-.43-.59-1.13-.56-2.09.02-.62.02-1.23,0-1.88,0-.31,0-.62,0-.95v-1.5l-1.25.83c-6.21,4.14-11.49,17.82-9.74,25.23l.15.62h.64c.3,0,.6,0,.9-.01.29,0,.58-.01.88-.01.41,0,.75.01,1.06.04.13.01.26.02.38.02,1.49,0,1.99-1.04,2.23-1.83.77-2.49,2.41-3.69,5.15-3.78.1,0,.2,0,.3,0,.2,0,.4,0,.59,0,.21,0,.42,0,.63,0,.34,0,.62-.01.89-.04,1.17-.12,2.6-.48,3.3-2.2.32-.79.95-1.19,1.88-1.19.24,0,.5.03.76.08.1.02.21.05.31.08,1.77.4,3.53,1,5.32,1.83,2.11.98,4.27,2.28,6.56,3.95,1.06.78,1.49,1.52,1.51,2.64.06,3.03.98,5.13,2.91,6.62l1.76,1.35c1.76,1.34,3.58,2.73,5.34,4.13.54.43,1.03.63,1.55.63s.99-.18,1.58-.59c1.87-1.29,3.96-1.96,6.03-1.96,2.62,0,5.13,1.05,7.26,3.05,1.07,1.01,1.98,1.91,2.77,2.77.95,1.04.99,2.2.09,3.12-.42.43-.93.65-1.49.65-.59,0-1.21-.27-1.73-.75-.44-.41-.87-.85-1.29-1.27-.43-.43-.87-.88-1.33-1.31-1.3-1.21-2.8-1.85-4.34-1.85-1.26,0-2.49.42-3.65,1.24-1.14.81-1.95,1.81-2.45,2.91-.72,1.59-.76,3.38-.02,5.16l.14.34c.43,1.02.87,2.07,1.07,3.1.08.39.13.74.18,1.06.29,2.26-.26,2.88-2,3.67-.3.14-.98.52-.84,1.18l.04.17.18,2.48.2,2.68.05.69.69.05c.07,0,.14,0,.22.01.17,0,.34.02.5.04.29.04.54.06.78.06,1.41,0,2.27-.8,2.56-2.39.12-.67.46-1.35.81-2.06.25-.51.52-1.04.71-1.61l.06-.17c.24-.67.48-1.36.68-2.05.2-.69.36-1.4.44-2.11.1-.88.1-1.75.09-2.62,0-.22,0-.44,0-.66-.01-.73-.03-1.49,0-2.22.06-1.21.99-2.13,2.19-2.14,1.15,0,2.03.87,2.14,2.12.03.35.03.71.03,1.1,0,.31,0,.62.01.93.02.39,0,.79,0,1.22-.03,1.06-.06,2.15.37,3.14.15.35.31.69.47,1.04.27.58.54,1.15.82,1.7,4.35,8.59,10.49,14.52,18.72,18.03.47.2,1.03.31,1.58.31.19,0,.38-.01.56-.04,6.75-1.01,13.06-3.78,18.75-8.21,4.32-3.37,6.81-7.71,7.62-13.29l.26-1.79-1.5,1.01c-2.24,1.5-4,3.43-5.55,6.07-3.74,6.35-9.01,9.79-15.69,10.24-.37.02-.74.04-1.11.04-4.53,0-8.9-1.95-11.98-5.35-3.16-3.49-4.71-8.21-4.24-12.94.84-8.41-1.39-14.82-6.8-19.61-.45-.4-.69-.94-.67-1.52.02-.66.36-1.3.94-1.74.6-.47,1.27-.86,1.96-1.28l.18-.11c7.4-4.45,14.03-6.52,20.86-6.52.6,0,1.2.02,1.8.05.97.05,1.95.18,2.9.31.44.06.87.11,1.29.16l.59.07.24-.54c.33-.75.65-1.51.96-2.25.67-1.62,1.31-3.14,2.09-4.61,4.3-8.13,10.24-13.04,18.18-15.01,1.67-.41,2.16-1.37,2.37-2.68,1.05-6.54,4.65-11.2,10.68-13.86,1.12-.49,2.28-.88,3.5-1.29.57-.19,1.14-.38,1.71-.59l.85-.3-.4-.81Zm-121.51,33.91c-1.58.3-3.38,0-3.38,0,0,0,2.64-2.54,5.06-3.35,0,0-.11,3.04-1.69,3.35Z"/>
</svg>