<?xml version="1.0" encoding="UTF-8"?>
<svg id="Calque_2" data-name="Calque 2" xmlns="http://www.w3.org/2000/svg" viewBox="0 0 367.35 358.23">
  <defs>
    <style>
      .cls-1 {
        fill: #606060;
      }

      .cls-2 {
        fill: #fefefe;
      }
    </style>
  </defs>
  <path class="cls-2" d="m193.78,149.74c-.84,2.48-2.44,4.7-2.55,7.43.29-.03.58-.05.88-.08.6-3.93,3.44-6.2,6.29-8.45,1.35-2.7,4.04-4.03,6.23-5.81,1.05-.85,1.45.64,1.51,1.56.04.67-.85,1.48.34,1.95,1.23-.41.94-1.78,1.61-2.55.42-1.61.96-3.19,1.23-4.82.36-2.14,1.13-4.01,2.48-5.75,2.26-2.91,4.95-5.36,7.7-7.78,3.04-2.68,6.48-4.94,8.97-8.19,2.39-3.12,5.09-6.02,7.81-8.77,3.32-3.35,7.39-6,11.34-8.65,2.94-1.97,5.95-3.92,9.47-4.85,1.66-.44,3.22-1.23,5.09-1.97-.91-.63-1.47-.45-2-.4-6.45.67-12.41,3.41-18.81,4.46-4.25.7-8.4,2.68-11.92,5.22-10.05,7.27-19.46,15.32-26.86,25.37-3.34,4.52-6.08,9.5-8.08,14.82-.3.79-.92,1.61.24,2.24.78.19.7.72.48,1.28-.49,1.24-1.03,2.47-1.46,3.73Z"/>
  <path class="cls-2" d="m119.38,116.14c1.72.81,3.44,1.74,4.47,3.34,2.61,4.04,4.98,8.21,6.87,12.67.98,2.32,2.15,4.77,4.5,6.01,6.05,3.19,8.51,8.9,10.9,14.77.66,1.61.9,3.62,2.79,4.52.19-.63.37-1,1.08-.37,1.19,1.05,2.3,2.13,2.81,3.68.28.85.46,1.8,1.74,1.93-.46-2.41-1.35-4.63-1.41-7-1.11-2.91-1.45-5.99-1.95-9.03-.72-4.38-1.14-8.82-2.75-13.02-.92-2.39-2.18-4.59-3.56-6.73-.76-1.18-1.48-1.27-1.69-.43-.64,2.59-1.79,1.12-2.51.24-3.29-4.06-7.26-7.37-11.43-10.42-1.69-1.23-3.37-2.7-5.76-3,.33,1.13,1.24,2.12-1.16,2.22-1.82.07-3.18-.97-4.89-.98.16,1.27,1.22,1.25,1.95,1.6Z"/>
  <path class="cls-2" d="m160.49,152.3c.3,1.34.04,1.96-1.42,1.57,0,0,0,.01-.01.02,0,0,0,0,0,0,1.63,5.15,1.19,10.96,5.11,15.24.62-.83.73-1.98.54-3.28-.69-4.5-1.31-9.01-1.95-13.52-1.65-7.46-3.3-14.91-4.95-22.37-.42,1.22-.34,2.38-.14,3.51,1.1,6.25,1.45,12.62,2.83,18.83Z"/>
  <path d="m244.32,161.66c.93-1.01,1.59-1.15,2.1.27,0,0,.02,0,.02,0,0,0,0,0,0,0,3.3-4.28,8.31-7.24,9.58-12.9-1.04-.04-2.05.53-3,1.43-3.3,3.14-6.65,6.22-9.98,9.32-5.18,5.61-10.35,11.23-15.53,16.84,1.25-.35,2.15-1.08,2.96-1.89,4.51-4.47,9.53-8.4,13.84-13.08Z"/>
  <path class="cls-2" d="m185.22,148.32c.27.4.26-.28.49-.17.4-1.28.7-2.6,1.22-3.82,4.1-9.57,5.62-19.7,6.61-29.97-1.33,3.77-2.25,7.68-3.7,11.38-2.78,7.08-3.86,14.46-4.62,21.93,0,.22-.1.5,0,.65Z"/>
  <path class="cls-2" d="m173.61,140.21c.07,2.59.9,5.13.41,7.74.62,1.26.45,2.58.33,3.9-.03.35-.4.82.18.95.69.15.64-.45.71-.89.19-1.22.38-2.43.58-3.64.05-1.8.16-3.6.15-5.4-.02-2.92.22-5.88-.77-8.71-.15-.44-.28-1.01-.91-.84-.44.12-.33.6-.38,1-.24,1.96-.35,3.91-.3,5.9Z"/>
  <path class="cls-2" d="m153.19,108.5c.35-.08.77.03.99-.46.72-1.59-1.19-5.63-2.92-6.03-.13,1.92.23,3.76.77,5.58.16.56.44,1.07,1.16.91Z"/>
  <path class="cls-2" d="m132.18,102.48c-.4-1.4-.73-2.52-1.05-3.64-.24-.83-.87-.75-1.52-.69-.52.05-.81.64-.67.78,1.04,1.11.66,3.44,3.25,3.56Z"/>
  <path d="m189.53,22.27s-37.86,44.73-19.17,103.06c18.7,58.33,5.2,111.98-3.64,133.24-8.85,21.27,18.51,77.39,18.51,77.39,0,0-20.24-57.47,1.04-95.02,21.28-37.55-1.8-109.6-7.37-139.43-5.57-29.83,10.63-79.24,10.63-79.24Z"/>
  <path class="cls-2" d="m131.55,219.89c-1.84,1.6-3.75,3.04-5.61,4.44-1.35,1.02-2.62,1.97-3.86,2.98-.44.36-.88.69-1.33.99,1.01.08,2.08.1,3.21.12h.6c4.62.11,8.67-.15,12.38-.77.24-.04.48-.07.71-.1l-4.99-8.46c-.44.38-.85.64-1.12.8Z"/>
  <path class="cls-2" d="m326.55,153.74c-3.6-3.07-7.85-5.38-12.36-7.81l-.77-.41c-6.36-3.44-13.3-6.66-21.23-9.84-4.45-1.79-9.09-3.04-13.99-4.37-1.27-.34-2.53-.69-3.79-1.04-7.64-2.13-15.51-3.22-22.94-4.05-1.88,2.44-3.11,5.45-4.41,8.62-.28.7-.57,1.4-.87,2.1,9.64.11,19.57,2.11,31.05,6.24,5.96,2.14,11.97,5.28,18.25,9.55l5.73.4c2.6.18,4.34,1.4,5.49,2.21.26.18.55.39.7.46,7.33,3.81,11.79,12.74,10.16,20.33-1.25,5.82-4.22,11.06-8.83,15.57-6.42,6.29-14.44,10.82-26,14.68-13.53,4.52-28.58,7.62-47.35,9.76-4.2.48-9.05.75-13.75-2.03,0,0,0,0-.01,0-2.67-.11-4.49-1.46-5.58-2.27-.19-.14-.38-.29-.58-.41-.34-.22-.63-.45-.89-.68-.19.09-.39.18-.58.27-3.46,1.53-6.39.27-8.12-.59-.18-.02-.36-.04-.54-.07.78,2.03,1.22,4.41.76,7.18-.74,4.37-3.26,6.33-7.49,5.85-.1-.01-.18-.02-.27-.03-.41.59-.94,1.13-1.64,1.57-2.89,1.85-5.86.54-8.73-.72-1.86-.82-3.43-1.89-4.82-2.89-.73,1.25-1.85,2.31-3.36,3.17-3.36,1.92-6.9,2.41-9.26,2.61-3.14.26-4.93-1.03-5.83-2.07-.77-.02-1.56-.15-2.35-.39-3.81-1.15-6.11-4.22-5.99-8.01.01-.41-.02-.93-.06-1.49-.04-.65-.09-1.39-.08-2.18-1.71.32-3.08.03-4.15-.5-.08.11-.19.24-.26.33-1.28,3.21-3.7,4.07-5.05,4.3-.54.09-1.09.2-1.63.3-.54.11-1.11.22-1.69.32l1.64,12.6c3.1.43,4.56,2.39,5.2,3.73.1.21.24.53.35.92l3.4,1.35-.3.75c1.2.06,2.23.44,3,.81l1.08-.83,2.78,1.63c2.24,1.32,5,1.49,7.64,1.48.42,0,1.1,0,1.91.12.97-2.07,2.44-3,3.57-3.43,1.23-.46,3.18-.74,5.58.5.82-.22,1.58-.33,2.22-.42.4-.06,1.01-.15,1.22-.23,2.16-1.2,4.23-1.63,6.19-1.3,1.89-1.87,4.42-1.78,5.4-1.75,6.44.23,10.58,3.71,13.24,6.66.07-.23.15-.46.24-.7-.23-.81-.55-1.62-.98-2.45-2.44-3.54-.68-6.51.75-7.71.95-.79,3.53-2.4,7-.14l.06.04.32.17c3.09,1.6,6.28,3.25,9.45,4.82,2.11-2.09,5.77-3.93,11.63-1.8.18.07.37.14.55.21.35.13.68.26.93.33.47.13.95.27,1.43.4-.62-.74-1.08-1.48-1.44-2.08-.21-.34-.43-.7-.57-.87-1.47-1.76-1.86-4.01-1.05-6.02.84-2.09,2.81-3.5,5.27-3.76l.14-.02c.75-.1,2.51-.34,4.23.69.43.26.87.52,1.3.78,3.14,1.88,6.1,3.66,9.29,4.85.37.14.73.29,1.09.45.19.08.42.18.58.24,1.72-.31,3.42-.52,5.07-.72,1.09-.13,2.13-.26,3.15-.41,10.67-1.6,19.97-3.77,28.44-6.63,11.05-3.74,23.58-7.97,33.5-16.36,8.53-7.21,12.82-13.69,14.32-21.65.62-3.28.42-6.06-.61-8.75-2.59-6.73-7.25-12.72-15.11-19.44Z"/>
  <path class="cls-2" d="m138.01,213.37h-.11s.06.09.09.12l.02-.12Z"/>
  <path d="m230.95,187.76l-3.69-2.03,1.5-1.44-.15.03c-1.78.37-3.19.77-4.36,1.28.51.42.96.92,1.33,1.48,1,.2,2.08.6,3.12,1.35.76-.19,1.51-.41,2.24-.66Z"/>
  <path class="cls-1" d="m138.05,213.37l-.02-.15s-.04.02-.06.03c0,0,.08.12.08.12Z"/>
  <path class="cls-1" d="m138.03,213.22s.02,0,.02-.01c0,0-.02,0-.03,0h0Z"/>
  <path class="cls-1" d="m226.44,199.11c-.32-.07-.64-.19-.96-.38-.1-.06-.19-.12-.29-.17.11.24.23.49.37.73.3.38.66.26.88-.18Z"/>
  <path d="m154.47,199.72l.16.27c1.02-.86,2.41-1.23,3.94-2-3.32-1.61-5.8-3.72-9.24-4.42-2.25-.46-4.9-.41-6.72-1.67-4.42-3.05-9.32-4.85-14.25-6.71,1.12,2.01.54,2.76-1.74,2.52-1.15-.12-2.34.11-3.51.19,7.52,1.46,13.15,6.89,20.23,9.38-3.26.96-6.65.71-9.8,1.93.16.22.25.45.34.45.38-.01.77-.06,1.14-.15,3.88-1.03,7.74-.43,11.53.37,2.78.58,3.63.83,3.48,2.37.47-.03.98,0,1.54.08l2.9-2.61Z"/>
  <path class="cls-2" d="m154,200.64c.19-.25.4-.46.63-.65l-.16-.27-2.9,2.61c-.55-.09-1.06-.11-1.54-.08-.07.7-.34,1.65-.74,3.03,1.94-1.69,2.63-3.94,4.7-4.64Z"/>
  <path class="cls-2" d="m144.88,185.24c.64-.16.47-.52.21-.89-3.39-.94-6.54-2.4-9.4-4.46-.38-.12-.82-.15-1.12-.37-4.49-3.35-9.34-6.05-14.57-8.05-.97-.2-1.94-.54-2.91-.58-2.75-.1-5-2.18-7.82-1.94-.72,1.75-2.06.62-3.12.64-1.04.02-1.74.08-.81,1.28,3.05,1.34,6.1,2.69,9.15,4.03.22-.29.51-.3.83-.2,4.83,1.36,9.37,3.26,12.98,6.91,3.8,1.8,7.25,4.48,11.83,4.57-.74-.68-1.87-1.06-1.7-2.3,2.26-.07,4.42.38,6.46,1.38Z"/>
  <path class="cls-2" d="m181.03,254.62c-1.09.04-2,1.94-.76,3.69,1.12,1.58,2.12,3.37,1.59,5.52-.15.6.15,1.18.76,1.27.77.12,1.08-.41,1.15-1.15.16-1.73.4-3.46.54-5.19.21-2.56.79-5.06,1.23-7.64-1.78.92-1.88,3.41-4.51,3.5Z"/>
  <path d="m218.56,149.08c2.12-2.77,5.3-4.51,7.23-7.47.81-1.15,1.82-2.18,2.38-4.22-1.18.97-1.85,1.62-2.61,2.12-1.67,1.11-2.42,3.27-4.5,3.9-1.08,1.69-1.69,3.67-3.21,5.07-.33.3-.96.54-.45,1.04.47.46.89-.11,1.15-.44Z"/>
  <path class="cls-2" d="m155.46,264.68c-.49-.32-1.11-.5-1.48.03-.78,1.12-1.91,1.89-2.75,2.91-.7.85-.09,1.47.82,1.7.43.11,4.27-3.15,4.3-3.58-.1-.52-.48-.8-.88-1.06Z"/>
  <path class="cls-2" d="m124.7,253.06c-1,.37-2.14.31-3.21.5-.68.12-1.55.21-1.5,1.17.04.88.74,1.12,1.7,1.1,1.21.25,2.42-.52,3.74-.62.94-.07.8-.87.65-1.45-.17-.64-.46-1.04-1.37-.7Z"/>
  <path class="cls-2" d="m233.71,254.15c-.33-.07-.61-.14-.83.16-.29.39-.51.79-.19,1.29.72,1.12,1.36,2.31,2.17,3.36.52.67,1.28.98,1.86,0,.28-.89-2.11-4.59-3.01-4.8Z"/>
  <path class="cls-2" d="m263.71,245.25c-.3-.18-.75-.13-1.15-.19-.59-1.24-1.82-.53-2.74-.8-.59-.18-.99.3-.82,1.04.15.67,4.44,2.66,4.87,2.16.6-.7.87-1.58-.16-2.21Z"/>
  <path class="cls-2" d="m218.3,256.29c.36.17.97,0,1.09-.79-.5-.75-.43-1.88-1.03-2.66-.13.81-.42,1.69-.95,2.57.16.36.42.67.89.88Z"/>
  <path class="cls-2" d="m217.66,252.27c-.19-.09-1.04-.08-.81.39.41.83.2,1.92.56,2.75.53-.88.82-1.76.95-2.57-.17-.22-.39-.42-.7-.57Z"/>
  <path class="cls-2" d="m229.34,125.16c-.81-.67-1.4.88-1.98,1.51-.54.58-1.41,1.07-1.29,2.13,1.03.01,1.56-.78,2.13-1.35.63-.64,1.89-1.66,1.15-2.28Z"/>
  <path d="m129.3,156.78c1.3-1.3.15-2-.56-2.74-.32-.33-1.04-.6-1.18-.04-.22.87.49,1.51,1.11,2.09.22.2.4.44.63.69Z"/>
  <path class="cls-2" d="m203.99,262.79c-.44.05-1.11.17-.79.55.62.75.43,2.12,1.68,2.32.49.08.63-.38.46-.81-.31-.79-.08-1.97-1.35-2.06Z"/>
  <path class="cls-2" d="m243.86,202.07c-.69-.03-1.52-1.13-2.03-.11-.42.83.64,1.07,1.26,1.34.7.3,1.62.85,2.02-.12.32-.78-.78-.74-1.25-1.11Z"/>
  <path d="m123.3,163.99c.57-1.02-1.77-1.65-2.77-2.51-.32.47-.72.94-.2,1.52,1.28-.29,2.17,2.42,2.98.99Z"/>
  <path class="cls-2" d="m203.44,248.53c.63,1.44.72,2.52,1.91,3.29.29-1.52.09-2.53-1.91-3.29Z"/>
  <path class="cls-2" d="m149.91,262.79c1.34-.46,1.9-1.32,2.31-2.35-1.1.33-2.16.73-2.31,2.35Z"/>
  <path class="cls-2" d="m282.4,160.67c-.43-.49-.81-.13-1.21.06.07.12.14.25.22.36.33-.14.66-.28.99-.42Z"/>
  <path class="cls-2" d="m148.91,157.44c-.98.39-.24.95-.14,1.45.62-.43.68-.91.14-1.45Z"/>
  <path class="cls-2" d="m231.26,199.22c-.25-.36-.55-.39-.88-.11.07.17.13.34.2.51.23-.13.46-.27.69-.4Z"/>
  <path class="cls-2" d="m230.58,199.62c-.07-.17-.13-.34-.2-.51l.2.51h0Z"/>
  <path class="cls-2" d="m306.38,167.94c.05-.04-.09-.34-.14-.51-.15.07-.3.14-.45.22.15.19.23.57.58.3Z"/>
  <path class="cls-2" d="m305.8,167.65c.15-.07.3-.14.45-.22-.15.07-.3.14-.45.22,0,0,0,0,0,0Z"/>
  <path class="cls-2" d="m262.45,92.95c.02-.1,0-.21,0-.33-.07.03-.18.05-.18.09-.02.1,0,.21.01.32.06-.03.17-.04.18-.08Z"/>
  <polygon class="cls-2" points="157.49 129.16 157.33 129.27 157.47 129.35 157.49 129.16"/>
  <path class="cls-2" d="m159.07,153.88c.05-.08.09-.16.14-.24-.17.01-.33.03-.5.04.11.08.22.16.34.21,0,0,0-.02,0-.02,0,0,.02,0,.03,0Z"/>
  <path class="cls-2" d="m159.07,153.88s-.02,0-.03,0c0,0,0,.02,0,.02,0,0,0,0,0,0,0,0,0-.01.01-.02Z"/>
  <path d="m210.55,173.82c7.41-4.63,13.83-9.55,19.9-14.93-.12-.19-.24-.39-.36-.58-2.18.64-4.52.96-6.49,2-1.79.95-4.03,1.55-5.08,3.55-1.47,2.79-3.37,5.18-5.82,7.18-.71.58-1.7,1.04-2.15,2.79Z"/>
  <path class="cls-2" d="m141.92,167.09s.04.02.06.02c0-.01,0-.02-.01-.04h-.04Z"/>
  <path class="cls-2" d="m141.98,167.11c1.1,3.19,3.69,5,6.38,6.71-1.75-2.59-3.12-5.55-6.38-6.71Z"/>
  <path class="cls-2" d="m257.17,160.98c1.26-.42,2.49-.94,3.39-1.29.56-.62.39-.91.2-1.15-.32-.4-.74-.6-1.25-.37-.94.41-1.88.83-2.8,1.27-.36.17-.71.4-.42.9.2.35.47.78.89.64Z"/>
  <path d="m107.17,152.56c.4-.27.63-.68.18-.9-1.05-.51-1.65-2.06-3.27-1.45.65.85.97,1.8,1.82,2.53.75.65.87.09,1.28-.18Z"/>
  <path class="cls-2" d="m103.14,188.89c1.18-.04,2.49.3,3.67-.93-1.3-.39-2.36-.59-3.51-.48-.49.05-.72.23-.81.64-.11.51.25.79.65.77Z"/>
  <path class="cls-2" d="m264.83,187.06c-1.09.3-2.97-.98-3.08.31-.14,1.7,1.92.96,3.04,1.17.47.09,1.24.77,1.54-.33.2-1.27-.87-1.31-1.5-1.14Z"/>
  <g>
    <path class="cls-2" d="m132.87,210.65c-3.6-.53-7.3-1.1-10.96-1.82-11.19-2.19-23.07-4.73-34.48-9.43-1.29-.53-2.62-1.01-4.02-1.52-2.58-.94-5.25-1.91-7.84-3.26-4.36-2.27-8.59-4.79-12.55-7.48-7.14-4.84-12.03-9.9-15.4-15.91-6.12-10.92-2.28-23.67,9.13-30.31l5.63-3.28c-1.64,1.58-3.59,3.52-5.87,5.9-9.19,9.58-1.53,17.46-1.53,17.46-4.34-13.04,9.35-15.95,9.35-15.95,3.46-1.82,7.21-3.37,11.2-4.63,7.31-2.31,14.73-3.76,22.31-5.16,4.94-.91,9.97-1.82,14.83-2.69.82-.15,1.64-.29,2.45-.44-2.62-3-5.5-5.8-8.87-7.84-.72-.43-1.38-.89-2.01-1.32-1.64-1.13-2.61-1.73-3.46-1.83-.2-.02-.39-.02-.58.01-.59.1-1.24.26-1.93.43-.79.2-1.69.42-2.64.58-10.02,1.67-21.85,3.9-33.54,7.78-9.1,3.02-17.47,7.62-24.88,13.65-5.52,4.5-9.42,10.34-11.57,17.37-1.49,4.86-1.16,9.47,1.01,14.11,4.34,9.28,10.6,17,18.59,22.96,5.09,3.79,10.36,6.95,15.69,9.37,11.28,5.14,26.32,11.41,42.59,14.25.89.16,1.71.39,2.44.59.64.18,1.59.45,1.95.43,6.85-2.72,13.59-6.31,20.1-9.78l1.4-.75c1.32-.7,2.5-1.02,3.53-1.07l-.06-.43Z"/>
    <path class="cls-2" d="m51.98,164.41l-3.14-10.53s-1.53,3.57,0,12.18c1.53,8.61,17.11,19.14,17.11,19.14-11.23-7.74-13.97-20.79-13.97-20.79Z"/>
  </g>
  <path class="cls-2" d="m219.75,179.76c-.8.69-.86,1.2.47,1.66,0,0,0,.01,0,.02,0,0,0,0,0,0-3.46,2.41-5.55,6.22-10.46,6.99-.15-.81.25-1.58.95-2.29,2.44-2.46,4.82-4.96,7.23-7.45,4.44-3.83,8.89-7.66,13.33-11.49-.18.96-.73,1.64-1.36,2.25-3.5,3.35-6.46,7.13-10.16,10.32Z"/>
</svg>