<?xml version="1.0" encoding="UTF-8"?>
<svg id="Calque_1" data-name="Calque 1" xmlns="http://www.w3.org/2000/svg" viewBox="0 0 367.35 358.23">
  <defs>
    <style>
      .cls-1 {
        fill: #ffd400;
      }
    </style>
  </defs>
  <path class="cls-1" d="m134.51,232.55c-11.49,7.69-22.05,14.74-32.59,21.8-9.22,6.17-18.48,12.28-27.58,18.62-1.39.97-2.57,2.97-2.84,4.65-1.02,6.27-1.72,12.6-2.3,18.92-.11,1.23.45,3.06,1.36,3.77,17.24,13.52,35.92,24.66,56.04,33.37.33.14.71.15,1.49.3.57-8.73,1.14-17.36,1.71-25.99.48-7.34.99-14.68,1.41-22.03l2.47-41.03c.29-3.81.52-7.62.84-12.39Z"/>
  <path class="cls-1" d="m227.88,88.85c1.35-3.98,2.89-7.88,4.55-12.35-27.15-1.22-49.8-12.27-68.2-34.9-5.56,34.14-13.23,85.12-18.8,119.33,3.75-2.44,81.61-69.61,82.44-72.08Z"/>
  <path class="cls-1" d="m47.98,108.11c25.59,30.8,54.86,57.47,85.19,83.93v-116.43c-25.48,18.57-51.66,34.77-85.19,32.5Z"/>
  <path class="cls-1" d="m125.16,203.96c-21.41-21.98-43.32-43.47-65.16-65.04-.7-.69-2.49-.97-3.44-.59-4.63,1.83-9.1,4.06-13.72,5.91-2.19.88-2.95,2.04-2.81,4.43.95,16.19,1.76,32.39,2.61,48.58.87,16.44,1.79,32.88,2.57,49.33.1,2.11.62,3.32,2.7,4.18,6.1,2.53,12.06,5.38,18.15,7.92,1.04.44,2.77.43,3.67-.15,19.83-12.95,39.59-26,59.34-39.08.71-.47,1.68-1.69,1.5-2.19-1.61-4.54-2.31-10.1-5.41-13.29Z"/>
  <path class="cls-1" d="m185.84,215.94c-.71-1-2.37-1.84-3.61-1.87-7.73-.17-15.46-.15-23.2-.06-5.55.07-9.99,4.32-10.2,9.74-1.1,28.54-2.17,57.09-3.19,85.64-.18,5.2-.03,10.41-.03,16.27,6.83-2.7,13.56-5.2,20.16-8.01,16.78-7.15,33.11-15.14,47.08-27.14,1.14-.98,2.19-2.46,2.54-3.88,1.57-6.41,2.96-12.87,4.2-19.35.24-1.28-.09-3.02-.82-4.08-10.89-15.81-21.87-31.56-32.94-47.25Z"/>
  <path class="cls-1" d="m270.62,171.08c-28.27,9.37-56.13,18.6-83.99,27.83-.03.44-.06.87-.09,1.31,23.23,8.56,46.46,17.12,70.22,25.87,6.23-14.2,12.19-27.75,18.09-41.33.31-.72.36-1.75.1-2.48-1.35-3.72-2.84-7.38-4.33-11.19Z"/>
  <path class="cls-1" d="m216.61,231.88c7.26,11.18,14.52,22.36,21.79,33.54.49-.13.99-.25,1.48-.38,1.71-10.56,3.42-21.12,5.17-31.92-9.91-.75-18.81-1.42-27.7-2.09-.25.29-.5.57-.74.86Z"/>
  <path class="cls-1" d="m230.08,305.96c-.83.85-1.77,2.29-1.62,3.31.76,5.27,1.86,10.49,2.96,16.39,6.26-4.74,11.84-8.97,17.65-13.38-4.91-3.7-9.37-7.07-13.92-10.49-1.84,1.48-3.61,2.67-5.08,4.17Z"/>
  <path class="cls-1" d="m141.58,207.61c-.25-.66-.77-1.47-1.29-1.52-2.67-.24-5.39-.24-8.43-.34,1.09,4.75,2.07,8.98,3.09,13.39,2.71-2.69,5.17-5.14,7.67-7.63-.36-1.41-.6-2.73-1.04-3.9Z"/>
  <path class="cls-1" d="m24.95,105.76c-3.85,6.85-5.62,13.8-6.47,20.95-.11.95,1.96,2.47,3.3,3.18,1.06.56,3.02.87,3.8.27,3.64-2.77,7.02-5.89,10.63-9-3.78-5.16-7.4-10.11-11.27-15.4Z"/>
  <path class="cls-1" d="m32.76,305.88c-.55,3.33.42,5.49,3.63,6.95,3.63-4.75,7.27-9.51,11.05-14.44-4.51-2.66-8.53-5.04-12.97-7.65-.58,5.38-.91,10.3-1.71,15.14Z"/>
  <polygon class="cls-1" points="300.26 30.13 149.28 203.2 344.15 63.68 348.88 24.24 300.26 30.13"/>
</svg>