<?xml version="1.0" encoding="utf-8"?>
<!-- Generator: Adobe Illustrator 27.5.0, SVG Export Plug-In . SVG Version: 6.00 Build 0)  -->
<svg version="1.1" id="Calque_1" xmlns="http://www.w3.org/2000/svg" xmlns:xlink="http://www.w3.org/1999/xlink" x="0px" y="0px"
	 viewBox="0 0 104.9 100" style="enable-background:new 0 0 104.9 100;" xml:space="preserve">
<style type="text/css">
	.st0{fill:#AA6800;}
</style>
<g>
	<path class="st0" d="M60.6,85.9L60.6,85.9c0.9,0,1.9,0.1,3,0.5c0.2,0.1,0.4,0.1,0.6,0.2c0.4-0.5,0.8-1,1.3-1.4
		c4.2-3.5,9.6-5.6,15.7-6.1C89.9,78.4,93.6,77,96,76l0,0c1.6-0.6,2.9-1.8,3.5-3.4c4-9.5-0.1-20.9-10.5-24.7
		c-0.4-0.1-0.8-0.2-1.1-0.3c-2.9,6.9-5.7,9.8-12.4,12.7c-1.8,0.8-3.6,1.4-5.5,1.9c-7.5,1.8-15,2.6-22.6,2.7
		C21,65,16.1,50.1,16.1,50.1l-1.8,1c-4.3,2.8-8.4,5.6-11.1,10c-3.6,6.1-4.4,15,3.1,21.3c3.6,3,7.7,5.3,12.1,6.8
		c9.3,3.3,18.9,4.3,28.7,4.1c2.3,0,4.6-0.1,6.8-0.3c0.1-0.6,0.2-1.7,0.8-2.9C55.9,87.5,58,86,60.6,85.9L60.6,85.9z"/>
	<path class="st0" d="M23.1,54.1c0,0,9.8,14,40.2,7.2c0.5-0.1,0.9-0.2,1.4-0.4c15.9-5.7,18.9-11.7,17.9-16.2c0-0.4,0-0.8,0-1.2
		c-0.4-4.9-2.8-8.7-7.2-11c-2.4-1.3-5.1-2-7.7-2.9c-0.2,0.4-0.3,0.6-0.3,0.7C66,33,60.2,42.4,44.7,41.2c0,0,11.1-4.1,13.5-6.9l0,0
		c2.6-2.3,4.2-5.5,4.5-9.4c0.4-3.7,0-7.3-1.2-10.6c-1.1-4.2-5.3-10.2-5.3-10.2c0.1,0.4,0.2,1.4,0.2,2.4c-0.6-0.6-1.2-1.2-1.8-1.8
		c-1.2-1.1-2.5-2.1-4-2.7c-0.2-0.1-0.5-0.2-0.7-0.3c-0.1,0.7-0.4,2-0.4,2.5c0,0.1,0,0.2,0,0.3l-1.1-0.6c0,0,0.6,5.5-2.1,10.6
		c-1.7,2.9-4.1,5.5-7.3,7.6c-2.9,1.9-5.7,3.9-8.6,5.8c-3.3,2.3-6.5,4.7-8.9,7.9C16.9,42,17.5,49,23.1,54.1z"/>
	<path class="st0" d="M100.2,78.2L100.2,78.2c-1.5,0-2.9,1-6.2,2c-2.6,0.8-6.5,1.7-12.6,2.1c-6.6,0.5-11,2.9-13.8,5.3
		c2.4,0.7,3.7,1.2,4.8,2.5l0,0c1.3,1.5,2,3.1,2.1,4.7c6-0.3,13.6-1.6,21.2-2.8C110,89.8,103,78.1,100.2,78.2z"/>
	<path class="st0" d="M69.9,92.3c-0.4-0.5-1-0.7-2-1.1c-0.5-0.2-1.1-0.3-1.8-0.6c-0.5-0.1-1-0.3-1.6-0.5c-0.5-0.2-1-0.3-1.6-0.5
		c-0.1,0-0.2-0.1-0.4-0.1c-0.7-0.2-1.3-0.3-1.8-0.3c-2.4,0.1-3.2,2.3-3.4,3.5c-0.1,0.4-0.1,0.7-0.1,0.7c0.3,3.9,4.2,5,7.7,4.9
		c1.2,0,2.3-0.2,3.3-0.4c1.3-0.3,2.3-0.7,2.6-1c0.1-0.1,0.2-0.2,0.2-0.3c0.3-0.5,0.3-1.1,0.2-1.6C71,93.9,70.3,92.8,69.9,92.3z"/>
</g>
</svg>
