<?xml version="1.0" encoding="UTF-8"?>
<svg id="Calque_2" data-name="Calque 2" xmlns="http://www.w3.org/2000/svg" viewBox="0 0 367.35 358.23">
  <defs>
    <style>
      .cls-1 {
        fill: #ca0;
      }

      .cls-2 {
        fill: #ffd400;
      }
    </style>
  </defs>
  <path class="cls-1" d="m133.66,229.14l5.04-5.04L310.06,52.73c-26.41,9.69-64.78,31.01-64.78,31.01l-124.07,132.96,6,6,6.44,6.44Z"/>
  <path class="cls-2" d="m310.06,52.73l-171.36,171.36-5.04,5.04-6.44-6.44-6-6-1.89-1.9-22.94-22.94c-1.29-1.29-3.39-1.29-4.68,0-4.72,4.72-4.72,12.37,0,17.09l24.64,24.64-38.5,38.5c-5.44-1.19-11.36.31-15.59,4.55-6.6,6.6-6.6,17.31,0,23.92,6.6,6.6,17.31,6.6,23.92,0,4.23-4.23,5.74-10.15,4.55-15.59l38.5-38.5,24.64,24.64c4.72,4.72,12.37,4.72,17.09,0,1.29-1.29,1.29-3.39,0-4.68l-22.94-22.94-1.9-1.9,132.96-124.07s21.32-38.37,31.01-64.78Z"/>
  <polygon class="cls-2" points="127.22 222.7 121.22 216.7 121.22 216.7 127.22 222.7"/>
</svg>