<?xml version="1.0" encoding="UTF-8"?>
<svg id="Calque_2" data-name="Calque 2" xmlns="http://www.w3.org/2000/svg" viewBox="0 0 367.35 358.23">
  <defs>
    <style>
      .cls-1 {
        fill: #83815e;
      }

      .cls-2 {
        fill: #f7f3aa;
      }
    </style>
  </defs>
  <g>
    <path class="cls-2" d="m366,183.55c-5.13-1.84-10.32-3.54-15.43-5.42-25.12-9.25-50.22-18.55-75.32-27.83-.54-.2-1.1-.36-1.72-.57-.52,2.3.73,3.79,1.78,5.28,4.84,6.82,9.74,13.6,14.62,20.41.41.57.77,1.17,1.34,2.04h-4.3c-27.72,0-48.01,0-75.73,0-3.78,0-7.58-.15-11.34.08-1.58.1-2.67-.34-3.86-1.2-6.84-4.93-13.7-9.83-20.58-14.7-.47-.33-1.11-.57-1.67-.59-16.17-.38-32.35-.73-48.52-1.07-.52-.01-1.04.09-1.77.16.3.46.44.72.63.94,5.81,6.7,11.6,13.4,17.46,20.05.42.47,1.25.79,1.9.81,4.83.19,9.67.24,14.5.41,10.2.37,20.39.79,30.68,1.2-.18.17-.25.29-.35.32-.42.1-.84.18-1.27.26-15.36,2.79-30.88,3.63-46.46,3.72-.91,0-2.05.49-2.68,1.14-2.65,2.69-5.28,5.43-7.69,8.34-4.85,5.87-9.57,11.84-14.28,17.82-.55.7-.68,1.73-1.08,2.81,1.25,0,2.1.04,2.95,0,5.38-.33,10.76-.73,16.14-.99,1.51-.07,2.69-.52,3.84-1.51,2.49-2.16,5.1-4.18,7.66-6.26.11.1.22.2.33.3-1.13,2.15-2.25,4.3-3.51,6.7,1,0,1.68.03,2.34,0,3.9-.23,7.79-.58,11.69-.66,1.79-.04,2.92-.62,4.04-2.02,3.27-4.1,6.73-8.05,10.11-12.06.13.07.26.15.39.22-1.96,4.29-3.91,8.59-6.03,13.24,2.54-.43,4.75.14,6.72-1.74,7.72-7.35,15.63-14.51,23.37-21.84,1.83-1.74,3.55-2.47,6.23-2.45,26.05.17,44.66.09,70.71.08,6.75,0,13.5,0,20.61,0-.37.7-.52,1.04-.72,1.34-4.45,6.79-8.92,13.57-13.36,20.37-1.35,2.07-2.69,4.17-3.91,6.32-.78,1.37-.36,2.1,1.17,1.89,1.69-.23,3.38-.73,4.99-1.33,25.6-9.59,51.18-19.23,76.77-28.83,2.84-1.07,5.74-1.97,8.6-3,.51-.18.94-.62,1.4-.93-.45-.41-.83-1.02-1.36-1.21Z"/>
    <path class="cls-2" d="m122.17,225.9c-3.94-.19-7.93.09-11.7-1.57-4.63-2.03-7.41-6.48-6.75-11.08.34-2.37.14-2.65-2.19-2.93-.61-.08-1.24-.12-1.85-.12-26.28,0-52.57,0-78.85.02-5.17,0-8.84,3.61-8.81,8.54.02,4.64,3.74,8.07,8.81,8.13,1.3.01,2.6-.06,3.9-.06,30.13-.01,60.26,0,90.38-.05,3.57,0,7.14-.23,10.72-.35,0-.17,0-.34-.01-.52-1.21,0-2.42.05-3.63,0Z"/>
    <path class="cls-2" d="m109.29,149.43c8.67,0,17.35,0,26.02,0,8.74,0,17.47,0,26.21,0,5.57,0,9.75-3.82,9.81-8.98.06-5.26-3.95-9.09-9.64-9.09-17.47-.02-34.95-.01-52.42,0-5.54,0-9.71,3.95-9.72,9.09,0,5.22,4.05,8.97,9.74,8.97Z"/>
    <path class="cls-2" d="m109.29,149.43c8.67,0,17.35,0,26.02,0,8.74,0,17.47,0,26.21,0-8.74,0-17.47,0-26.21,0-8.67,0-17.35,0-26.02,0Z"/>
    <path class="cls-2" d="m59.34,185.92c.01,5.12,3.67,8.5,9.21,8.5,7.37,0,14.75,0,22.12,0v.03c7.5,0,15,.1,22.49-.07,1.83-.04,3.81-.63,5.42-1.51,2.51-1.36,3.18-3.84,1.89-6.39-1.03-2.03-2.36-3.91-3.62-5.82-1.73-2.61-4.3-3.64-7.33-3.64-13.7-.01-27.39-.04-41.09,0-5.48.02-9.11,3.65-9.1,8.89Z"/>
    <path class="cls-2" d="m43.24,158.48c12.21.05,24.43.05,36.64,0,4.99-.02,8.84-3.79,8.79-8.42-.05-4.72-3.85-8.27-8.9-8.29-5.95-.02-11.9,0-17.86,0h0c-6.2,0-12.4-.03-18.6.02-5.03.04-8.84,3.67-8.88,8.37-.04,4.73,3.66,8.3,8.81,8.32Z"/>
    <path class="cls-2" d="m30.64,182.88h0c.99,0,1.98.02,2.97,0,4.5-.08,8-3.54,8.1-7.98.1-4.5-3.36-8.19-7.94-8.39-1.98-.09-3.96-.09-5.94-.02-4.56.17-8.2,3.91-8.13,8.26.08,4.71,3.51,8.06,8.33,8.13.87.01,1.73,0,2.6,0Z"/>
    <path class="cls-2" d="m15.88,186.87c-2.54-.36-5.21-.35-7.75,0-3.92.53-6.75,4.45-6.41,8.32.37,4.2,3.53,7.31,7.62,7.47.87.03,1.74,0,2.6,0v.03c.87,0,1.74.02,2.6,0,3.95-.11,7.42-3.34,7.74-7.18.36-4.34-2.22-8.05-6.41-8.64Z"/>
  </g>
  <polygon class="cls-1" points="284.95 209.95 299.76 188.67 354.43 186.37 284.95 209.95"/>
  <path class="cls-1" d="m123.87,210.2l19.54-18.57s36.18-.61,43.58-3.3h7.28l-23.7,18.26,3.93-11.05-15.43,12.67-10.58.29,3.81-7.33-14.68,8.1-13.76.95Z"/>
</svg>