<?xml version="1.0" encoding="UTF-8"?>
<svg id="Calque_2" data-name="Calque 2" xmlns="http://www.w3.org/2000/svg" viewBox="0 0 367.35 358.23">
  <defs>
    <style>
      .cls-1 {
        fill: #ccba7e;
      }

      .cls-2 {
        fill: #ffe89d;
      }
    </style>
  </defs>
  <path class="cls-1" d="m286.52,72.19l-34.57,34.57,4.23,4.6,34.81-34.81c-1.7-1.48-2.78-2.36-2.78-2.36,0,0-.62-.76-1.69-2Z"/>
  <path class="cls-1" d="m269.49,55.47c6.89,5.26,13.91,13.07,17.03,16.72,1.07,1.24,1.69,2,1.69,2l2.06-2.06,32.22-32.22c-23.09,16.04-53,15.56-53,15.56Z"/>
  <path class="cls-2" d="m322.49,39.91l-32.22,32.22-2.06,2.06s1.08.88,2.78,2.36c3.89,3.39,11.03,9.93,15.94,16.36,0,0-.49-29.9,15.56-53Z"/>
  <path class="cls-1" d="m137.97,229.11l23.37-23.36c16.63-16.62,33.69-33.67,50.65-50.69,5.22-5.23,10.43-10.47,15.61-15.68l7.28-7.14,2.39-2.34,2.39-2.35c-1.36-1.47-2.75-2.85-4.13-4.14l-2.36,2.4-2.35,2.38-7.83,7.94h0c-.37.38-.75.77-1.17,1.19l-10.57,10.57-77.25,77.25-1.45,1.45-3.14,3.12-2.55,2.54s0,0,0,0c-.31.4-.66.81-1.07,1.2-3.21,3.12-6.44,6.36-9.56,9.48-3.74,3.75-7.62,7.63-11.52,11.38-1.8,1.73-4.71,2.92-7.4,3.03-2.88.12-5.77.1-8.57.08-3.42-.03-6.66-.05-9.91.16-1.67.11-3.71.95-4.84,2-3.57,3.32-7.09,6.87-10.49,10.3-2.77,2.8-5.64,5.69-8.55,8.47-1.96,1.87-2.31,3.29-2,4.82l.97.97,24.31.76.77,24.33.97.97c1.52.31,2.94-.04,4.81-2,5.44-5.69,11.49-11.75,18.51-18.52,1.79-1.73,2.5-3.39,2.44-5.73-.17-6.61-.15-12.63.05-18.4.09-2.51,1.17-5.19,2.76-6.83,4-4.14,8.14-8.27,12.13-12.27,3.17-3.17,6.35-6.34,9.49-9.55.18-.19.37-.36.55-.52h0s3.21-3.2,3.21-3.2l1.83-1.83,2.23-2.22Z"/>
  <path class="cls-2" d="m249.66,103.76c-.17-.23-.33-.42-.47-.6-.34-.42-.66-.82-.96-1.32-7.57-12.23-18.96-20.05-35.83-24.59-17.04-4.59-34.15-4.68-48.64-4.17-16.17.57-32.62,1.45-48.53,2.3-8.18.44-16.35.88-24.53,1.28-11.38.55-12.79-.37-16.87-11.01-2.98-7.78-11.07-11.68-18.84-9.13-7.66,2.51-11.88,10.81-9.4,18.49,1.79,5.56,3.7,10.24,5.82,14.29,4.93,9.43,11.88,14.93,21.25,16.83,2.41.49,4.56,2.76,5.43,4.74,8.23,18.81,16.44,37.63,24.64,56.44,6.86,15.74,13.73,31.48,20.61,47.21,1.31,2.99,2.6,5.98,3.91,8.96h0s1.01,2.91,1.01,2.91l1.15,3.3,3.14-3.12,1.45-1.45-5.95-13.65-45.25-103.86,4.06-.78c.21-.04.4-.08.58-.12.48-.11,1.02-.23,1.64-.26,7.3-.33,14.61-.7,21.91-1.06,18.31-.91,37.25-1.85,55.91-2.3,12.33-.3,24.4.96,34.59,2.23.02,0,.03,0,.05,0,2.39.3,4.63.82,6.74,1.53.88.26,14.23,4.42,27.26,16.52,1.39,1.29,2.77,2.67,4.13,4.14,1.72,1.86,3.42,3.86,5.05,6.03,4.18,5.56,7.96,12.18,10.81,20.03l.05.15c.22.56.43,1.13.63,1.72.1.3.21.6.31.91.12.39.23.78.34,1.17,3.74,12.89,3.66,26.05,3.27,37.42-.65,18.97-1.56,38.24-2.43,56.88-.35,7.45-.7,14.89-1.04,22.34-.03.56-.12,1.02-.21,1.47-.03.17-.07.36-.11.58l-.72,4.14-97.45-42.47-20.18-8.8-2.23,2.22-1.83,1.83,4.57,2.24c4.12,1.8,8.25,3.6,12.37,5.4,13.17,5.75,26.34,11.5,39.52,17.24,20.69,9.02,41.38,18.04,62.05,27.08,1.89.83,4.04,2.9,4.5,5.24,1.76,9.11,6.94,15.9,15.85,20.76,4.9,2.68,10.46,4.64,15.83,6.53,3.58,1.26,7.3.74,12.48-1.71l3.8-3.8c3.26-6.27,3.35-11.55.31-16.61h0c-2.25-3.73-5.92-6.12-11.55-7.53-5.36-1.34-7.81-4.77-7.48-10.5,1.35-23.51,2.87-50.88,3.86-78.03.56-15.35.44-33.41-4.75-50.97-4.13-13.99-10.85-24.23-20.54-31.29-1.12-.82-2.27-1.59-3.46-2.4-.59-.4-1.19-.8-1.79-1.22l-3.28-2.25-4.23-4.6-2.29-3.01Z"/>
</svg>