<?xml version="1.0" encoding="UTF-8"?>
<svg id="Calque_1" data-name="Calque 1" xmlns="http://www.w3.org/2000/svg" viewBox="0 0 367.35 358.23">
  <defs>
    <style>
      .cls-1 {
        fill: #7300ff;
      }
    </style>
  </defs>
  <path class="cls-1" d="m316.46,30.82c54.13,32.17,36.85,91.83,31.4,107.49-3.87,11.12-7.66,28.82-9.53,38.15,21.43-32.44,49.79-93.75,6.08-147.9-1.95-2.42-3.97-4.66-6.04-6.74-16.92-16.96-42.25-22.97-64.49-14.06-10.92,4.38-21.73,12.53-29.33,27.23-22.19,42.89-12.46,50.22,2.72,65.7,11.86,12.1,20.5,30,23.71,37.25.79,1.27,1.29,2.38,1.37,3.22,0,0-.47-1.19-1.37-3.22-4.03-6.49-15.54-17.16-15.54-17.16-53.45-34.04-32.34-77.79-32.34-77.79C247.42,9.75,272.08,1.02,289.91.17c-62.99-3.94-136.68,60.05-138.53,78.16,0,0-3.64,16.83-2.62,21.39,0,0,14.98-29.48,30.64-18.25,15.66,11.23-7.49,30.9-11.47,34.85-3.98,3.95-25.53,12.64-39.83,29.32-11.18,13.04-21.84,28.07-26.45,35.3-.55.86.5,1.85,1.33,1.24,6.04-4.44,18.03-12.52,23.99-11.53,8.17,1.36,16,8.51,7.49,21.45C125.96,205.04,0,358.23,0,358.23l121.91-85.46s14.16-10.91,10.46,0c-3.69,10.91-13.8,15.17-14.14,20.96,0,0,15.15-9.02,30.64-10.55,7.12-.7,11.74-18.38,49.09-27.91,12.02-3.07,20.29-27.37,24.13-34.8s22.2-28.68,27.37.25-15.93,25.18-31.25,43.23h0c25.1-4,48.48-15.24,67.27-32.35l17.92-16.31c25.97-38.03,18.58-49.26,28.8-71.64,9.87-21.6,14.66-48.55,9.53-69.05-6.59-26.35-25.28-43.77-25.28-43.77Z"/>
  <path class="cls-1" d="m172.6,287.2c-6.65,5.9-28.77,34.27-28.77,34.27,0,0,17.36-8.51,33.22-14.68,15.86-6.17,24.31-26.06,24.31-26.06,1.02-14.87-22.12.57-28.77,6.48Z"/>
  <path class="cls-1" d="m108.08,306.47c-6.38,5.28-9.3,16.61-9.3,16.61,7.39-2.43,18.87-10.84,18.87-10.84,3.19-7.43-3.19-11.06-9.57-5.78Z"/>
  <path class="cls-1" d="m75.14,319.97c-4.5,3.52-7.12,11.57-7.12,11.57,4.97-1.41,12.98-6.96,12.98-6.96,2.56-5.22-1.37-8.13-5.86-4.61Z"/>
  <path class="cls-1" d="m91.54,217.95c6.78-8.2,4.8-19.71-7.12-13.24-11.91,6.47-16.22,30.5-16.22,30.5,16.46-9.33,23.34-17.26,23.34-17.26Z"/>
</svg>