<?xml version="1.0" encoding="UTF-8"?>
<svg id="Calque_1" data-name="Calque 1" xmlns="http://www.w3.org/2000/svg" viewBox="0 0 189.48 189.48">
  <defs>
    <style>
      .cls-1 {
        fill: #fe3334;
      }

      .cls-2 {
        fill: #a90000;
      }
    </style>
  </defs>
  <g>
    <polygon class="cls-1" points="51.57 94.76 12.12 73.2 0 94.76 12.12 116.33 51.57 94.76"/>
    <polygon class="cls-2" points="3.49 94.76 46.97 94.76 13.2 111.95 3.49 94.76"/>
  </g>
  <g>
    <polygon class="cls-1" points="94.89 51.57 116.46 12.12 94.89 0 73.33 12.12 94.89 51.57"/>
    <polygon class="cls-2" points="94.41 3.49 94.41 46.97 77.22 13.2 94.41 3.49"/>
  </g>
  <g>
    <polygon class="cls-1" points="137.91 94.76 177.36 116.33 189.48 94.76 177.36 73.2 137.91 94.76"/>
    <polygon class="cls-2" points="185.99 94.83 142.51 94.83 176.28 77.64 185.99 94.83"/>
  </g>
  <g>
    <polygon class="cls-1" points="94.89 137.91 73.33 177.36 94.89 189.48 116.46 177.36 94.89 137.91"/>
    <polygon class="cls-2" points="94.89 185.99 94.89 142.51 112.09 176.28 94.89 185.99"/>
  </g>
  <g>
    <polygon class="cls-1" points="60.25 59.66 50.48 38.37 39.95 39.36 38.96 49.89 60.25 59.66"/>
    <polygon class="cls-2" points="41.84 41.57 41.15 48.93 56.02 55.75 41.84 41.57"/>
  </g>
  <g>
    <polygon class="cls-1" points="129.98 60.09 151.28 50.32 150.29 39.78 139.75 38.79 129.98 60.09"/>
    <polygon class="cls-2" points="148.07 41.68 140.72 40.99 133.9 55.85 148.07 41.68"/>
  </g>
  <g>
    <polygon class="cls-1" points="129.54 130.15 139.31 151.44 149.85 150.45 150.84 139.92 129.54 130.15"/>
    <polygon class="cls-2" points="147.95 148.24 148.65 140.88 133.78 134.06 147.95 148.24"/>
  </g>
  <g>
    <polygon class="cls-1" points="59.8 129.15 38.5 138.92 39.49 149.46 50.03 150.45 59.8 129.15"/>
    <polygon class="cls-2" points="41.7 147.56 49.06 148.25 55.88 133.39 41.7 147.56"/>
  </g>
</svg>