<?xml version="1.0" encoding="UTF-8"?>
<svg id="Calque_2" data-name="Calque 2" xmlns="http://www.w3.org/2000/svg" viewBox="0 0 367.35 358.23">
  <defs>
    <style>
      .cls-1 {
        fill: #0098ff;
      }
    </style>
  </defs>
  <path class="cls-1" d="m37.33,187.76c-2.91,29.5,14.3,50.44,45.54,54.08,1.52-7.01,2.6-13.69,4.45-20.16,3.52-12.37,10.49-21.11,24.33-23.08,12.88-1.82,19.21-10.14,19.3-24.62,7.45,15.17,1.33,29.02-15.3,33.09-13.34,3.26-18.08,11.97-21.08,23.24-3.22,12.06.91,22.12,9.36,30.62,16.57,16.66,42.32,18.03,63.7,2.93,10.86,16.68,21.59,33.42,32.66,49.92,1.92,2.87,5.18,6.56,8.01,6.74,5.96.37,13.23-.49,15.09-7.61,1.88-7.2,2.13-14.89,2.39-22.4.05-1.53-2.88-3.33-4.66-4.74-5.87-4.64-12.72-8.41-17.47-13.98-3.31-3.88-3.8-10.17-5.55-15.38.83-.33,1.66-.66,2.5-.99,1.47,2.06,2.95,4.11,4.42,6.17,13.36,18.76,32.08,22.29,51.13,9.72,1.35-.89,3.06-1.72,4.62-1.76,18.16-.45,35.51-18.45,37.9-39.61.7-6.2,2.67-10.62,7.21-15.39,13.98-14.71,14.76-32.8,9.84-51.42-3.96-15-12.68-26.7-25.87-35.11-2.01-1.28-3.49-3.83-4.55-6.11-7.91-16.95-19.9-28.59-39.19-31.35-1.95-.28-3.78-1.9-5.52-3.11-18.02-12.51-36.8-21.44-59.5-13.51-1.38.48-3.34.09-4.79-.49-21.29-8.48-39.99-3.87-56.98,10.72-1.87,1.6-4.98,2.68-7.43,2.54-17.25-1.03-37.56,11.05-43.97,27.27-2.16,5.47-5.19,8.59-10.29,11.79-13.95,8.75-18.46,23.19-19.42,38.89-.47,7.68-.1,15.44-.85,23.08Zm190.98-6.6c-24.95-9.89-42.78,2.52-61.07,12.86-.68-.84-1.37-1.67-2.05-2.51,2.91-4.04,5.14-8.9,8.85-11.96,8.02-6.63,17.63-9.93,28.09-11.27,13.33-1.71,16.75-6.04,17.24-19.67.13-3.48.54-6.95.86-10.91,6.94,4.76,9.34,12.12,5.83,21.1-2.84,7.26-4.97,13.88,2.24,22.36Zm2.71-65.05c-17.5-6.21-33.97-6.59-48.49,8.68-1.7-10.03,2.07-15.35,12.53-19.14,13.14-4.77,29.88.03,35.96,10.47Zm18.55,35.07c3.18-5.45,5.99-10.26,9.35-16.03q2.27,8.99,9.61,12.67c18.54,9.29,26.6,26.39,19.69,44.67-4.42-22.12-16.69-35.56-38.65-41.31Zm-106.97,77.11c11.65,11.07,19.59,12.05,33.93,3.61,5.01-2.95,9.7-6.5,14.29-10.09,6.82-5.33,13.81-8.6,22.92-6.21,5.83,1.53,12.04,1.88,18.11,2.17,18.41.88,27.15-9.25,22.96-26.3,9.08,6.82,10.32,15.6,3.06,24.17-7.67,9.07-18.27,13.74-29.39,11.49-17.47-3.54-31.48.13-44.79,11.94-8.14,7.22-19.09,8.21-29.81,4.94-8.05-2.46-11.81-7.88-11.29-15.72Zm-18.99-86.73c7.14-3.62,14.29-7.23,21.78-11.03-.15-22.23,3.25-30.14,15.44-34.57-12,20.18-9.68,38.46,7.06,54.89-.38.5-.77,1-1.15,1.51-4.57-2.02-9.1-4.12-13.71-6.03-3.35-1.39-6.77-3.41-10.23-3.56-6.09-.27-12.24.68-18.37,1.12-.28-.78-.55-1.56-.83-2.33Zm-41.43,12.53c4.25-2.76,5-5.45,5.09-9.83.27-13.17,9.23-25.91,20.9-29.95-1.64,2.18-3.08,4.04-4.47,5.94-5.56,7.58-9.28,16.09-6.26,25.27,2.46,7.46-.39,11.11-6.24,13.9-12.85,6.12-17.93,17.17-19.73,30.38-.5,3.66-.79,7.35-1.31,12.35-8.59-18.78-3.78-37.8,12.02-48.05Z"/>
</svg>