<?xml version="1.0" encoding="UTF-8"?>
<svg id="Calque_2" data-name="Calque 2" xmlns="http://www.w3.org/2000/svg" viewBox="0 0 367.35 358.23">
  <defs>
    <style>
      .cls-1 {
        fill: #fff;
      }
    </style>
  </defs>
  <path class="cls-1" d="m344.21,139.58c-27.97,3-70.36,14.4-70.36,14.4l-152.58,98.95-1.38-2.3-16.7-27.82c-.94-1.57-2.98-2.08-4.54-1.13-5.72,3.43-7.57,10.86-4.14,16.58l17.94,29.87-46.68,28.03c-4.99-2.47-11.09-2.45-16.22.64-8.01,4.81-10.6,15.2-5.79,23.2,4.81,8.01,15.2,10.6,23.2,5.79,5.13-3.08,8.02-8.45,8.19-14.02l46.68-28.03,17.94,29.87c3.44,5.72,10.86,7.57,16.58,4.14,1.57-.94,2.08-2.98,1.13-4.54l-16.7-27.82-1.38-2.3,159.05-88.17s29.98-32.06,45.77-55.34Z"/>
  <g>
    <polygon class="cls-1" points="251.77 12.29 250.09 9.39 188.77 9.39 196.13 22.15 265.77 142.76 271.2 139.31 318.42 127.75 251.77 12.29"/>
    <polygon class="cls-1" points="151.65 9.39 90.33 9.39 106.83 37.97 193.98 188.92 238.83 160.39 162.46 28.12 151.65 9.39"/>
    <polygon class="cls-1" points="54.24 9.39 8.73 9.39 8.73 36.78 18.46 53.63 122.53 233.89 167.38 205.36 74.09 43.77 54.24 9.39"/>
  </g>
</svg>