<?xml version="1.0" encoding="UTF-8"?>
<svg id="Calque_2" data-name="Calque 2" xmlns="http://www.w3.org/2000/svg" viewBox="0 0 367.35 358.23">
  <defs>
    <style>
      .cls-1 {
        fill: #c0d4ff;
      }
    </style>
  </defs>
  <path class="cls-1" d="m288.05,171.53c-3.26-7.16-7.11-14.04-10.67-21.07-.6-1.18-1.31-1.49-2.53-.72.12,1.74.22,3.5.37,5.25.52,5.85-.81,11.47-2.27,17.02-1.04,3.94-2.21,7.92-3.97,11.56-1.66,3.42-4.14,6.43-6.34,9.58-.68.97-1.52.69-2.19-.15-1.1-1.38-1.15-3.01-.87-4.6.89-5.27.08-10.47-.71-15.63-.96-6.2-3.95-11.46-8.09-16.18-4.08-4.65-7.74-9.69-9.3-15.81-1.42-5.53-1.6-11.22-.7-16.83.85-5.3,1.69-10.67,5.32-15.05,2-2.42,2.25-5.4,2.13-8.4-.06-1.52-.86-1.98-2.13-1.14-1.02.68-1.95,1.56-2.76,2.49-2.8,3.24-5.96,5.99-9.58,8.33-2.67,1.72-5.62,3.59-7.31,6.15-3.65,5.51-5.99,11.61-3.92,18.51.49,1.62.19,3.18-1.29,4.31-2.02-1.83-5.96-8.32-6.69-11.47-1.83-7.94-2.25-15.97-1.47-24.1.29-3.02.86-6.31.01-9.08-1.85-6.03-4.62-11.76-8.31-16.95-1.25-1.76-2.78-3.23-5.23-3.14-.99.04-1.25-.52-.85-1.43.53-1.24,1.14-2.46,1.47-3.76.18-.69.09-1.69-.31-2.23-4.55-6.17-9.11-12.34-13.85-18.36-1.88-2.39-4.16-4.52-7.13-5.6-2.38-.87-4.82-1.55-7.22-2.37-1.1-.37-1.6.07-1.69,1.09-.04.5.11,1.02.23,1.52,1.64,6.87,2.9,13.79,2.65,20.91-.08,2.33-.77,4.35-2.27,6.13-.7.83-1.51,1.64-1.95,2.6-1.28,2.78-2.07,3.04.76,5.22.78.61.76,1.23.27,2.02-1.03,1.66-2.47,2.81-4.33,3.34-2.23.63-3.82,1.93-4.91,3.98-3.08,5.75-7.51,10.53-12.28,14.76-2.84,2.52-4.98,4.55-3.66,8.8-1.16,0-1.89-.08-2.58.02-1.26.17-2.62.18-3.72.73-1.98.98-3.88,2.2-5.67,3.51-2.48,1.81-4.9,3.8-5.92,6.84-1.01,3.04-1.68,6.19-2.62,9.25-.43,1.4-.93,2.85-1.75,4.03-1.71,2.47-3.69,4.75-5.49,7.15-1.22,1.62-1.67,3.43-1.66,5.52.02,3.67.09,7.42-.59,11-1.15,6.12-2.12,12.24-2.54,18.46-.3,4.51.52,8.64,3.19,12.37.84,1.17,1.53,2.47,2.14,3.78.94,2.02.46,3.26-1.6,4.71-1.99,1.4-3.3,1.46-4.82-.19-1.64-1.79-2.98-3.84-4.55-5.69-1.67-1.97-2.51-4.25-2.89-6.76-.68-4.51-1.67-8.94-3.27-13.25-1.51-4.06-2.92-8.19-3.99-12.38-1.22-4.76-1.53-9.62.16-14.41.35-.98.8-1.94.95-2.95.1-.64-.07-1.54-.48-1.96-.28-.28-1.31-.12-1.81.18-.91.55-1.79,1.24-2.47,2.06-1.42,1.72-2.7,3.54-4.01,5.35-.36.5-.66,1.05-.9,1.62-2.14,5.16-4.36,10.29-6.35,15.51-2.02,5.31-3.85,10.7-5.65,16.09-.63,1.88-.18,3.7,1.21,5.2,1.14,1.22,1.29,2.68.93,4.22-.17.72-.37,1.45-.65,2.13l46.54,22.44,1.72.83c4.09-.46,8.4-.29,11.11-.1.36-.29.74-.57,1.12-.84,1.57-1.1,3.27-1.97,4.68-1.97,3,0,15.83-.78,22.14-1.49.11-.29.2-.6.28-.98.6-2.99,1-6.02,1.34-9.06.1-.88-.05-1.96-.49-2.71-1.36-2.31-2.97-4.46-4.37-6.75-1.72-2.82-3.61-5.58-4.89-8.59-1.98-4.64-2.87-9.58-3.22-14.65-.46-6.84.03-13.47,3.08-19.72,1.34-2.74,2.83-5.42,4.3-8.1,2.04-3.72,5-6.58,8.51-8.9,2.28-1.5,4.78-2.27,7.49-2.19,2.9.09,5.8.34,8.7.4,3.55.07,6.72,1.16,9.54,3.28,7.03,5.29,11.12,12.66,13.97,20.7,2.14,6.01,1.99,12.25.55,18.55-1.29,5.65-2.73,11.06-6.21,15.91-3.94,5.48-9.08,9.14-15.15,11.71-.71.3-1.48.52-2.24.6-1.81.18-3.64.25-5.45.36-.04.15-.08.3-.12.46,1.08.31,2.17.89,3.25.87,2.42-.04,4.85-.32,7.27-.6,1.85-.21,3.16.51,3.67,2.28.2.69.29,1.42.36,2.14.48,4.41,2.15,6.04,6.54,6.33.41.03.83.04,1.24.05,5.18.19,10.36.38,15.54.57.36.01.72.09,1.08.14,2.96.45,5.1,1.98,6.84,4.01.2.24.41.47.6.72.1-.37.21-.73.31-1.09l15.59-6.34,45.92-18.66c-.24-.91.18-1.32,1.54-2.5,1.54-1.33,2.32-2.82,2.24-4.99-.19-4.96-2.01-9.46-3.99-13.8Z"/>
  <path class="cls-1" d="m147.77,279.39c-1.02-5.98-1.2-11.95-1.02-19.14,0-2.1.03-5.37-.02-8.63-.01-.65-.24-1.8-.52-1.84-.78-.13-1.77-.03-2.42.39-.67.44-1.31.95-1.92,1.49-5.12-5.96-12.99-11.42-18.77-14.99-4.27-2.64-7.4-4.24-7.4-4.24l-3.45-1-34.94-10.12c.14.9.26,1.79.36,2.69.36,3.41,1.47,6.35,3.12,9.29,2.88,5.13,4.53,10.69,4.53,16.61,0,6.6,3.34,11.87,6.59,17.16.34.55.71.94,1.09,1.2l13.68,15.01c1.26,2.71,2.4,5.62,4.28,7.87,6.74,8.06,14.27,15.36,23.12,21.11,3.14,2.04,6.61,3.67,10.09,5.07,2.55,1.02,3.68-.08,3.64-2.81-.05-2.59-.12-5.19-.14-7.78-.04-6.17-.08-12.34-.06-18.51,0-2.95.63-5.98.15-8.83Z"/>
  <path class="cls-1" d="m112.68,116.86c.22.04.44.09.65.13.64-.97,1.37-1.91,1.92-2.93,2.79-5.22,6.31-9.79,10.98-13.53,2.09-1.68,4.27-3.8,5.26-6.2,1.74-4.24,3.26-8.82.74-13.45-.27-.49-.33-1.09-.51-1.62-.42-1.23-.85-2.46-1.41-4.06-1.2,1.52-2.14,2.75-3.11,3.94-2.52,3.08-5.08,6.13-7.57,9.23-1.62,2.01-3.65,3.88-4.65,6.18-2.4,5.47-4.79,11.07-3.05,17.35.44,1.6.51,3.31.76,4.97Z"/>
  <path class="cls-1" d="m239.25,234.58c-7.71,3.87-14.69,8.7-19.89,14.7-.92-.15-1.66.06-2.17.62-.48.54-.77,1.38-.78,2.52,0,.23,0,.46,0,.7-.05,5.41.11,10.82.18,16.23.03,2.37.46,4.83,0,7.1-.9,4.38-.9,8.75-.89,13.16,0,2.44,0,4.88,0,7.32.04,0,.08,0,.12,0-.21,4.87-.43,9.74-.64,14.61-.1,2.35.74,2.94,2.91,2.07,2.89-1.15,5.76-2.33,8.66-3.43,2.48-.94,4.33-2.33,4.63-5.23.14-1.28,1.07-1.96,2.42-1.94.67.01,1.36-.07,2.02.04,2.53.42,4.36-.65,5.99-2.49,3-3.39,6.33-6.42,10.17-8.86,3.44-2.19,6.02-5.21,8.18-8.61,5.57-2.45,11.7-20.24,11.7-20.24,1.95-3.18,3.93-6.36,5.57-9.7,2.35-4.78,4.25-9.79,6.63-14.56,2.91-5.84,5.04-11.87,5.96-18.21-8.6,1.14-20.76,3.26-33.01,7.13-6.04,1.91-12.1,4.24-17.77,7.09Z"/>
</svg>