<?xml version="1.0" encoding="UTF-8"?>
<svg id="Calque_1" data-name="Calque 1" xmlns="http://www.w3.org/2000/svg" viewBox="0 0 93.45 74.54">
  <defs>
    <style>
      .cls-1 {
        fill: #f7a614;
      }
    </style>
  </defs>
  <path class="cls-1" d="m30.45,38.02l8.71,13.52v-20.99l-4.71-4.45-.8-5.34,11.03,3.2v6.4l1.24.08v.1l.8-.05.8.05v-.1l1.24-.08v-6.4l11.03-3.2-.8,5.34-4.71,4.45v20.99l8.71-13.52.71-17.96c2.67-3.02,0-4.62,0-4.62-3.02-.71-16.72-10.14-16.72-10.14-.18-.29-.53,0-.53,0,0,0-13.7,9.43-16.72,10.14,0,0-2.67,1.6,0,4.62l.71,17.96Zm16.28-28.24v.21s-.02-.21-.02-.21h.02Z"/>
  <path class="cls-1" d="m30.99,45.85v3.38s10.67,11.38,13.7,11.92h4.09c3.02-.53,13.7-11.92,13.7-11.92v-3.38c-6.41,7.14-13.41,8.55-15.74,8.83-2.33-.28-9.33-1.69-15.74-8.83Z"/>
  <path class="cls-1" d="m31.47,13.34l14.59-9.69s.59-.49,1.33,0l14.59,9.69s.63-.18.36-1.2C62.33,12.14,59.84-.18,47.39,0h-1.33c-12.45-.18-14.94,12.14-14.94,12.14-.28,1.02.36,1.2.36,1.2Z"/>
  <path class="cls-1" d="m92.88,59.45s-6.28-15.47-27.98-14.76v4.94l2.55,4.67,9.78,7.11,15.65,1.6s1.28-.44,0-3.56Z"/>
  <path class="cls-1" d="m28.56,44.69C6.85,43.98.57,59.45.57,59.45c-1.28,3.12,0,3.56,0,3.56l15.65-1.6,9.78-7.11,2.55-4.67v-4.94Z"/>
  <path class="cls-1" d="m53.39,61.14c-1.42,1.78-6.23,2.4-6.23,2.4h-.88s-4.8-.62-6.23-2.4-10.32-9.6-10.32-9.6l-2.85,4.98s16.36,17.43,19.39,17.96c.38.12.88,0,.88,0,3.02-.53,19.39-17.96,19.39-17.96l-2.85-4.98s-8.89,7.83-10.32,9.6Z"/>
</svg>