<?xml version="1.0" encoding="UTF-8"?>
<svg id="Calque_2" data-name="Calque 2" xmlns="http://www.w3.org/2000/svg" viewBox="0 0 367.35 358.23">
  <defs>
    <style>
      .cls-1 {
        fill: #00506a;
      }
    </style>
  </defs>
  <g>
    <path class="cls-1" d="m199.93,139.39c-6.56-.11-13.12-.06-19.69-.04-.6,0-1.19.18-2.08.33.7.99,1.16,1.68,1.65,2.34,8.67,11.68,17.31,23.38,26.05,35.01,1.16,1.54,1.21,2.55.03,4.12-8.74,11.63-17.39,23.33-26.06,35.01-.53.71-1.02,1.46-1.89,2.72,7.69,0,14.66-.05,21.63.04,1.6.02,2.59-.48,3.54-1.78,8.92-12.12,17.92-24.19,26.89-36.28.43-.59.79-1.23,1.21-1.87-9.56-12.88-19.01-25.65-28.55-38.36-.54-.71-1.8-1.23-2.73-1.24Z"/>
    <path class="cls-1" d="m188.27,177.24c-9.03-12.04-17.95-24.16-27.01-36.18-.67-.89-2.14-1.62-3.26-1.65-6.39-.16-12.79-.08-19.18-.06-.68,0-1.36.15-2.48.29,9.95,13.41,19.6,26.42,29.29,39.48-9.75,13.14-19.4,26.14-29.5,39.76,8.18,0,15.56.04,22.95-.07.71-.01,1.59-.81,2.09-1.47,9.06-12.12,18.05-24.3,27.14-36.4,1.07-1.42.99-2.32-.03-3.7Z"/>
  </g>
  <path class="cls-1" d="m183.68,303.15l-107.42-62.02v-124.04l107.42-62.02,107.42,62.02v124.04l-107.42,62.02Zm-86.08-74.34l86.08,49.7,86.08-49.7v-99.39l-86.08-49.7-86.08,49.7v99.39Z"/>
</svg>