<?xml version="1.0" encoding="UTF-8"?>
<svg id="Calque_2" data-name="Calque 2" xmlns="http://www.w3.org/2000/svg" viewBox="0 0 367.35 358.23">
  <defs>
    <style>
      .cls-1 {
        fill: #9c4545;
      }
    </style>
  </defs>
  <path class="cls-1" d="m253.46,134.53l23.49-107.55c.53-2.41.08-4.88-1.25-6.95-1.33-2.08-3.39-3.51-5.8-4.03-2.4-.53-4.88-.08-6.95,1.25-2.08,1.33-3.51,3.39-4.03,5.8l-30.19,138.21,63.02-18.97c-26.83,43.15-59.28,95.22-83.15,133.24,1.71-4.41,3.43-8.83,5.14-13.24,9.27-23.9,18.55-47.8,27.8-71.72,1.26-3.26,2.06-6.17,2.46-8.92.46-3.2-.92-4.68-1.79-5.28-1.08-.75-2.97-1.31-5.8.26-3.97,2.21-7.71,4.54-10.83,6.52-7.41,4.7-14.8,9.43-22.19,14.16-3.29,2.1-6.57,4.2-9.86,6.3.11-23.67.51-113.37.52-114.39,0-6.97-5.67-12.63-12.63-12.63s-12.63,5.67-12.63,12.62c0,0-.52,103.4-.56,110.45v1.52c-3.14-2.25-6.28-4.49-9.41-6.74-7.7-5.53-15.66-11.24-23.53-16.81l-.54-.39c-2.45-1.76-5.8-4.16-10.69-3.1l-2.21,3.87c.11.33.21.66.31.97.22.69.43,1.34.66,1.99l13.45,36.54c7.25,19.7,14.51,39.41,21.75,59.11-23.49-38-55.69-90.47-82.25-133.88l54.55,17.41L108.59,23.57c-.39-2.44-1.7-4.57-3.7-6.02-2-1.45-4.44-2.03-6.86-1.65-2.44.39-4.57,1.7-6.02,3.69-1.45,2-2.03,4.44-1.65,6.87l16.99,106.99-73.22-23.38,12.92,21.14c43.31,70.86,117.4,191.78,127.73,206.7.42.71.87,1.3,1.37,1.81,1.69,1.71,3.93,2.67,6.33,2.72h.23s.02,0,.03,0h.23c2.38-.07,4.6-1.03,6.29-2.73.49-.49.92-1.06,1.33-1.74,10.27-14.65,85.65-135.73,129.73-206.71l12.88-20.75-79.75,24Zm-33.35,69.7l-30.56,87.1,3.34-68.65,27.21-18.44Z"/>
</svg>