<?xml version="1.0" encoding="UTF-8"?>
<svg id="Calque_2" data-name="Calque 2" xmlns="http://www.w3.org/2000/svg" viewBox="0 0 187.56 165.35">
  <defs>
    <style>
      .cls-1 {
        fill: none;
      }

      .cls-2 {
        fill: #ffa800;
      }
    </style>
  </defs>
  <path class="cls-1" d="m166.73,108.28c-5.43.02-10.87,0-16.3,0-5.51,0-11.03.01-16.55,0,5.52.02,11.03,0,16.55,0,5.43,0,10.87.01,16.3,0Z"/>
  <path class="cls-1" d="m182.9,128.31c-5.52.02-11.03,0-16.54,0-5.52,0-11.03.01-16.55,0,5.52.02,11.03,0,16.55,0,5.51,0,11.03.01,16.54,0Z"/>
  <path class="cls-2" d="m166.73,108.28c-5.43.02-10.87,0-16.3,0-5.51,0-11.03.01-16.55,0-3.13,0-4.84-1.39-4.87-3.85-.03-2.48,1.7-3.93,4.78-3.93,10.95-.01,21.9-.01,32.85,0,3.15,0,4.83,1.36,4.85,3.84.03,2.51-1.66,3.93-4.76,3.94Z"/>
  <path class="cls-2" d="m182.9,128.31c-5.52.02-11.03,0-16.54,0-5.52,0-11.03.01-16.55,0-2.99-.01-4.65-1.33-4.73-3.7-.09-2.48,1.65-4.07,4.67-4.07,11.03-.03,22.06-.03,33.09,0,3.07,0,4.77,1.51,4.72,4.01-.05,2.4-1.68,3.75-4.66,3.76Z"/>
  <path class="cls-2" d="m155.08,88.23c-11.11.03-22.22.03-33.33,0-2.88,0-4.55-1.55-4.53-3.96.01-2.41,1.66-3.79,4.61-3.81,5.52-.02,11.03,0,16.55,0s11.03-.01,16.54,0c3.11,0,4.83,1.42,4.8,3.88-.02,2.35-1.75,3.88-4.63,3.89Z"/>
  <path class="cls-2" d="m37.14,40.99c-11.15.08-20.47-9.15-20.57-20.36C16.48,9.26,25.65.02,37.04,0c11.36-.02,20.47,9,20.51,20.28.04,11.43-9.03,20.63-20.41,20.71Z"/>
  <path class="cls-2" d="m2.28,51.47c2.42-2.29,6.03-2.67,8.98-.79,5.01,3.21,10,6.47,14.92,9.8,1.16.78,1.85.7,2.88-.19,4.4-3.81,8.91-7.5,13.33-11.29,0,0,10.35-8.69,15.81-11.75,3.41-1.92,15.41-3.67,25.71-4.89.36-.01,19.09-.6,25.45,4.33,6.42,4.98,20.04,21.92,20.04,21.92,0,0,1.44,2.77,0,4.54-1.44,1.77-5.65,4.76-9.85,1.88-4.21-2.88-16.72-13.29-16.72-13.29,0,0-4.87-1.88-14.61-.66l-6.86,1,2.92,3.85c.25.48.48.94.72,1.38,4.34,7.88,8.75,15.73,12.99,23.67,1.05,1.97,1.68,4.19,2.25,6.37.86,3.34,1.27,6.8,2.28,10.09,1.89,6.2,4.07,12.31,6.14,18.45,1.41,4.18,2.84,8.38,4.42,13.02l1.39,1.43c6.72,6.55,13.47,13.07,20.14,19.67,3.42,3.38,3.65,8.35.8,11.92-2.88,3.6-7.88,4.55-11.81,1.89-7.29-4.95-14.57-9.93-21.84-14.92l-.03.05c-1.51-1.26-2.86-2.55-4.38-3.62-5.15-3.64-8.5-8.49-10.68-14.4-2.55-6.92-5.53-13.67-8.33-20.49-.4-.98-.66-1.93-2.17-1.68-5.66.95-11.34,1.78-17.17,2.69.4,1.02.76,2,1.16,2.97.52,1.29,1.04,2.59,1.57,3.88,3.53,8.69,7.09,17.37,10.55,26.09,1.77,4.46-.01,9.11-4.06,11.24-4.08,2.15-9.05,1-11.57-3.01-4.77-7.59-9.52-15.19-14.25-22.8-3.57-5.75-7.13-11.51-10.63-17.31-4.13-6.84-1.13-15.31,6.18-18.56,2.96-1.32,5.98-2.51,8.96-3.77,4.83-2.04,9.66-4.08,14.83-6.27-4.23-4.67-8.24-9.09-12.36-13.64,0,0-.5-.54-1.21-1.49-3.86,3.04-7.64,6.07-11.48,9.01-4.7,3.61-10.35,3.57-15-.12-6.21-4.94-12.39-9.93-18.54-14.96-.9-.74-1.73-1.67-2.3-2.68-1.56-2.79-.9-6.35,1.43-8.55Z"/>
</svg>