<?xml version="1.0" encoding="UTF-8"?>
<svg id="Calque_2" data-name="Calque 2" xmlns="http://www.w3.org/2000/svg" viewBox="0 0 367.35 358.23">
  <defs>
    <style>
      .cls-1 {
        fill: #b5ff00;
      }
    </style>
  </defs>
  <path class="cls-1" d="m360.07,51.54c-.4-4.09-4.34-20.23-13.33-25.66,0,0,4.12,9.55,2.81,13.11,0,0-13.67-20.42-27.54-23.79,0,0,6.74,11.96,6.93,14.03,0,0-20.79-7.85-32.41-8.23-9.25-.3-12.08-1.54-12.85-2.04,1.91,1.48,13.96,10.69,18.09,11.03,0,0-21.92.53-24.54-.77,0,0,8.62,8.26,14.05,9.38,0,0-6.74,2.06-10.49,1.5,0,0,3.36,3.76,7.16,4.41,0,0-7.91,1.3-9.6.93,0,0,2.21,3.42,3.44,3.23,0,0-4.28.33-5.13-.24,0,0,7.96,5.56,11.47,6.11,0,0,6.37,4.95,10.1,8.54-1.2-.67-2.44-1.27-3.7-1.81-9.95-5.25-35.83-17.07-63.77-15.17-1.6.2-3.29.36-5.09.47-.11,0-.21,0-.32.02-3.14.29-6.27.36-9.36.22-19.33-.22-33.08-4.76-41.18-8.51.68,1.54,2.74,3.81,4.93,5.95.04.04,17.58,14.81,37.01,18.68,4.98.85,9.54,1.44,13.15,1.83,2.73.3,4.93.48,6.35.59,1.17.09-1.26,1.72-1.26,1.72-.75.13-1.52.23-2.31.32-19.7,2.22-48.58-8.31-63.47-14.5-8.87-3.69-18.05-6.63-27.44-8.66-2.99-.65-5.88-1.2-8.19-1.51C64.81,33.56,7.27,73.58,7.27,73.58c0,0,59.76-11.55,110.26-2.18,50.5,9.37,70.36,19.71,85.38,22.59.56.11,6.77,2.13,14.35,4.08-7.13,1.45-13.41,2.71-17.38,3.49-15.36,3-77.18-15.36-115.58,1.5,0,0-9.74,5.24-14.42,8.99,0,0,17.99-4.68,31.94-1.87,13.95,2.81,60.6,30.72,98.06,25.48,0,0-13.44,7.19-14.69,7.39-.07.01-.15.02-.23.03-6.06,1.84-17.34,4.94-28.96,6.46-12.22,1.6-39.4-4.09-54-7.5-3.98-.64-7.31-1.43-9.72-2.37,0,0,4.27,5.21,11.24,11.77,9.03,8.09,22.68,17.48,37.87,18.12,0,0,12.36.56,25.29,0l-16.97,25.02-65.71,5.53-16.74,1.48,74.93,8.66-8.52,8.1-63.04,6.09,60.6,2.15s-14.4-.17-20.51,8.74c-6.11,8.91-29.32,49.81-52.55,54.76,0,0,.48-6.57-12.15-1.49,0,0-.7,1.33-.76,2.11l-20.08-.34,19.52,2.8.19,1.87h-25.97l25.91,3.42.08,10.1-18.92,32.15s-1.43,2.49.23,2.31c0,0,8.72-5.3,10.83-7.27,2.11-1.97,19.46-16.72,24.44-26.17,0,0,59.48-47.91,73.7-52.85,7.66-6.05,13.2-10.44,14.16-11.24,3.66-3.05,50.91-49.96,62.81-55.44l-9.09,9.44,24.87,4.96s5.81-.9,18.03-.76c0,0-19.79,4.91-29,19.67,0,0-5.43,9.47-13.01,12.39,0,0-12.7-8.62-19.98,2.63-7.27,11.25-9.1,17.75-14.21,24.6-5.11,6.84-19.19,24.05-19.19,24.05,0,0-6.41,5.46-4.26,5.67,2.15.21,37.42-21.14,37.42-21.14,0,0,16.61-17.95,28.82-22.6,12.21-4.65,52.67-35.65,69.36-42.16,16.69-6.51,24.36-14.39,13.88-20.29-10.48-5.89-62.9-19.41-62.9-19.41,0,0,.14-.14.42-.41,4.01-3.86,37.53-41.67,70.27-37.81,0,0,2.59,4.03-2.84-13.57-.67-2.53-1.39-4.94-2.04-6.6-.05-.13-.1-.26-.15-.39-.14-.35-.35-.89-.62-1.56-1.77-4.4-6-14.69-8.18-18.26,0,0,9.83,10.8,14.64,17.8,0,0,7.85-10.03,14.47-10.22,0,0,3.05,3.13,5.31,5.41,2.91,2.95,7.44,3.76,11.08,1.8.04-.02.07-.04.11-.06,0,0,8.29-15.15,15.37-20.39,0,0,1.26-6.84,1.59-7.62.32-.77,8.17-19.57,7.76-23.66Z"/>
</svg>