<?xml version="1.0" encoding="UTF-8"?>
<svg id="Calque_1" data-name="Calque 1" xmlns="http://www.w3.org/2000/svg" viewBox="0 0 74.23 69.27">
  <defs>
    <style>
      .cls-1 {
        fill: #f7a614;
      }
    </style>
  </defs>
  <path class="cls-1" d="m14.01,40.74c.8-1.18,1.56-2.31,2.33-3.45.05-.07.09-.14.14-.21q1.01-1.53,2.95-1.04c-1.23,1.86-2.43,3.68-3.72,5.64,8.9,4.64,17.7,9.23,26.66,13.91-.46.35-.8.61-1.14.87-2.32,1.77-3.31,4.54-2.45,7.22.26.81.74,1.61,1.32,2.23,1.17,1.24,2.64,1.25,3.9.11.43-.38.8-.86,1.12-1.34,7.12-10.78,14.22-21.57,21.33-32.36,1.47-2.23,2.95-4.47,4.42-6.7.21-.31.42-.62.62-.94,1.17-1.9.64-3.58-1.41-4.47-2.39-1.04-4.86-.19-6.14,2.08-.78,1.39-1.12,2.87-1.07,4.45.01.36,0,.73,0,1.27-9.61-4.78-19.1-9.5-28.73-14.29-1.61,2.42-3.19,4.8-4.85,7.29-.53-.47-.95-.85-1.4-1.26,1.5-2.31,2.96-4.54,4.49-6.89-.59-.29-1.06-.53-1.53-.76-1.95-.94-2.88-2.57-2.8-4.65.1-2.7,1.37-4.89,3.56-6.48,1.64-1.19,3.36-1.26,5.19-.3,4.49,2.34,9,4.63,13.51,6.92,7.05,3.58,14.1,7.15,21.14,10.74,2.12,1.08,3.11,2.94,2.66,5.14-.15.72-.46,1.45-.86,2.06-5.24,7.96-10.51,15.9-15.77,23.86-3.66,5.55-7.31,11.11-10.97,16.66-.39.59-.83,1.17-1.33,1.66-1.76,1.73-3.63,2.05-5.84.94-2.73-1.36-5.44-2.77-8.14-4.19-7.89-4.14-15.77-8.3-23.64-12.46-.77-.41-1.52-.87-2.2-1.42-.82-.65-1.21-1.6-1.26-2.64-.15-3.1,1.01-5.65,3.4-7.59,1.48-1.2,3.12-1.57,4.86-.41.48.32,1.03.52,1.65.82Z"/>
  <path class="cls-1" d="m39.16,33.57c-1.3.35-2.16.17-3.01-.44-2.1-1.51-4.24-2.99-6.36-4.47-.31-.21-.62-.41-1.03-.68-.95.56-1.93,1.1-2.87,1.71-1.47.95-3.07,1.52-4.8,1.72-1.66.19-3.24-.05-4.72-1.25.81-.46,1.53-.84,2.23-1.25.47-.28.96-.54,1.34-.91.18-.17.23-.62.14-.88-.13-.37-.52-.56-.93-.38-.31.13-.58.33-.87.48-1.12.56-2.22,1.17-3.37,1.65-1.83.78-3.74.83-5.65.33-.85-.22-1.64-.58-2.17-1.49.35-.15.64-.27.93-.4,1.48-.68,2.95-1.36,4.42-2.06.29-.14.55-.37.8-.6.27-.24.38-.54.15-.89-.24-.35-.55-.52-.96-.34-.3.13-.59.31-.88.48-1.74,1.03-3.55,1.87-5.55,2.23-1.56.28-3.09.16-4.52-.58C0,24.79-.39,23.55.39,22.09c.63-1.17,1.62-2.02,2.7-2.75,2.49-1.7,5.24-2.81,8.2-3.3,1.64-.27,3.32-.31,4.99-.33,1.65-.02,3.1.61,4.29,1.77,1.11,1.08,2.15,2.23,3.33,3.23,3.66,3.12,7.36,6.18,11.06,9.26,1.09.91,2.21,1.79,3.3,2.7.27.23.51.5.92.91Z"/>
</svg>