<?xml version="1.0" encoding="UTF-8"?>
<svg id="Calque_1" data-name="Calque 1" xmlns="http://www.w3.org/2000/svg" viewBox="0 0 367.35 358.23">
  <defs>
    <style>
      .cls-1 {
        fill: #ff003c;
      }
    </style>
  </defs>
  <path class="cls-1" d="m155.11,217.96c-17.15-17.47-23.15-38.4-17.83-62.21,3.13-14,10.34-26.26,20.86-35.47,10.54-9.23,23.66-14.73,37.94-15.91,17.31-1.43,32.73,3.36,45.83,14.25,3.5,2.9,6.67,6.05,9.72,9.14,2.19-2.26,4.46-4.53,6.9-6.7,16.48-14.6,36.24-19.92,57.15-15.39h0c4.4.95,8.55,2.26,12.45,3.89-.16-.73-.32-1.47-.51-2.19-9.36-35.09-30.9-56.53-64.03-63.71-26.85-5.83-51.24.77-72.49,19.61-4.41,3.91-8.57,8.25-12.59,12.46-1.02,1.07-2.04,2.14-3.07,3.2-.94.97-1.71,1.41-2.51,1.42-.77,0-1.59-.42-2.56-1.39-1.6-1.59-3.18-3.19-4.76-4.8-4.75-4.83-9.67-9.82-14.94-14.19-14.61-12.14-31.54-18.27-50.41-18.27-2.46,0-4.95.1-7.48.31-37.19,3.07-66.5,28.7-74.68,65.29-6.78,30.36.88,57.06,22.76,79.34,25.84,26.32,52.2,52.99,77.69,78.79,11.05,11.18,22.11,22.37,33.15,33.56,1.6,1.63,3.21,3.26,4.81,4.89,3.01,3.06,6.01,6.12,9.04,9.16,2.4,2.41,4.89,3.63,7.39,3.63h.02c2.44,0,4.84-1.18,7.12-3.49,8.85-8.96,17.7-17.92,26.55-26.88,2.64-2.67,5.29-5.35,7.94-8.04-2.08-2.1-4.15-4.2-6.23-6.3-17.46-17.67-35.52-35.94-53.23-53.98Z"/>
  <path class="cls-1" d="m351.21,166.42c-.31-2.42-.61-4.7-1.15-6.71-3.57-13.39-9.82-23.27-18.93-29.82-.14-.1-.27-.19-.41-.29-.14-.1-.27-.19-.41-.29-5.15-3.53-11.19-6.04-18.14-7.55-15.78-3.43-30.16.48-42.73,11.62-2.78,2.46-5.39,5.19-8.16,8.09-.71.74-1.42,1.48-2.13,2.22-2.15,2.23-4.63,3.37-7.36,3.4-.03,0-.07,0-.1,0-2.69,0-5.16-1.1-7.34-3.26-1.11-1.11-2.22-2.23-3.32-3.35-3.27-3.32-6.35-6.45-9.66-9.19-8.54-7.1-18.46-10.68-29.54-10.68-1.45,0-2.92.06-4.41.18-21.95,1.81-39.25,16.95-44.08,38.56-4.08,18.26.34,33.66,13.51,47.08,17.69,18.02,35.74,36.28,53.19,53.94,2.03,2.05,4.06,4.11,6.09,6.16.1.1.19.19.29.29.1.1.19.2.29.29,5.37,5.43,10.74,10.87,16.11,16.3,1.11,1.12,2.21,2.25,3.32,3.37,1.84,1.87,3.69,3.75,5.54,5.61l17.52-17.74c22.44-22.71,45.64-46.19,68.37-69.36,8.19-8.34,12.77-18.51,13.63-30.23.07-1.01.27-1.86.44-2.51v-2.94c-.16-1.06-.3-2.13-.44-3.19Z"/>
</svg>