<?xml version="1.0" encoding="UTF-8"?>
<svg id="Calque_2" data-name="Calque 2" xmlns="http://www.w3.org/2000/svg" viewBox="0 0 367.35 358.23">
  <defs>
    <style>
      .cls-1 {
        fill: #9c0000;
      }
    </style>
  </defs>
  <path class="cls-1" d="m330.45,272.54c-1.19,4.2-1.86,8.64-3.66,12.57-8.15,17.85-22.27,26.9-41.88,26.94-45.38.09-90.76.03-136.14.03-22.45,0-44.9.1-67.35-.03-21.7-.12-39.1-14.34-43.6-35.53-2.39-11.26-.09-21.77,5.64-31.66,13.49-23.29,26.93-46.6,40.39-69.91,20.43-35.37,40.86-70.74,61.28-106.11,6.5-11.25,15.93-18.68,28.64-21.55,19.52-4.4,38.08,3.81,48.32,21.36,11.83,20.28,23.51,40.64,35.25,60.97,21.29,36.86,42.52,73.75,63.9,110.55,4.25,7.31,7.89,14.77,9.2,23.2,0,3.06,0,6.12,0,9.17Zm-147.06,10.13c33.72,0,67.44.06,101.16-.1,3.2-.02,6.78-.76,9.51-2.33,7.17-4.13,8.84-12.82,4.42-20.5-13.96-24.23-27.95-48.44-41.92-72.65-19.75-34.22-39.51-68.43-59.23-102.66-2.01-3.49-4.42-6.44-8.32-7.89-7.17-2.67-14.41.06-18.51,7.16-16.24,28.09-32.46,56.19-48.68,84.29-17.6,30.5-35.26,60.96-52.71,91.55-1.57,2.76-2.69,6.31-2.53,9.42.42,8.49,6.84,13.71,15.93,13.71,33.63.01,67.25,0,100.88,0Z"/>
  <g>
    <path class="cls-1" d="m162.88,135.81l27.52-18.55s5.98-2.39,5.98,0-7.78,105.31-7.78,105.31h-8.97l-7.78-77.78s-2.39-11.37-8.97-8.97Z"/>
    <polygon class="cls-1" points="167.61 247.52 183.05 231.24 199.75 247.52 183.68 266.72 167.61 247.52"/>
  </g>
</svg>