<?xml version="1.0" encoding="UTF-8"?>
<svg id="Calque_2" data-name="Calque 2" xmlns="http://www.w3.org/2000/svg" viewBox="0 0 367.35 358.23">
  <defs>
    <style>
      .cls-1 {
        fill: #30006b;
      }

      .cls-2 {
        fill: #7300ff;
      }

      .cls-3 {
        fill: #3a0080;
      }
    </style>
  </defs>
  <path class="cls-2" d="m60.05,77.23c-5.12-6.55-10.26-13.09-15.43-19.61-3.19-4.02-5.67-3.94-8.45.3-6.4,9.76-8.32,20.86-9.63,33.33.65.77,1.55,2.53,2.99,3.41,2.97,1.83,6.27,3.12,9.36,4.77,2.55,1.37,4.6.98,6.67-1,4.6-4.4,9.33-8.68,13.99-13.02,3.43-3.2,3.51-4.36.51-8.19Zm-17.63,13.41c-.8.65-2.85.41-3.98-.13-1.43-.69-3.65-2.19-3.57-3.19.61-7.49,2.18-14.81,5.93-22.11,4.24,5.36,8.21,10.38,12.36,15.62-3.65,3.39-7.04,6.78-10.74,9.8Z"/>
  <path class="cls-2" d="m79.28,254.96c-6.72-3.71-13.48-7.33-20.23-10.97-.9-.48-1.88-.82-2.5-1.08-3.39.06-4.43,1.85-4.59,4.55-.34,5.72-.68,11.43-1.14,17.14q-.94,11.46,7.87,19.01c3.61,3.08,5.25,2.98,7.94-.76,4.87-6.76,9.68-13.55,14.46-20.38,2.5-3.58,2.08-5.36-1.8-7.5Zm-17.09,20.89c-3.41-1.4-4.5-3.62-4.06-7.11.64-5.08.79-10.23,1.19-15.86,4.73,2.55,9.01,4.87,13.83,7.47-3.74,5.29-7.35,10.4-10.96,15.5Z"/>
  <path class="cls-1" d="m106.35,136.3c-6.49-5.96-13-11.91-19.49-17.86-.24-.22-.62-.39-1.05-.49-.28-.07-.59-.11-.88-.11-.15,0-.29,0-.43.01-.28.02-.54.08-.75.17-1.03.45-2.04.92-3.05,1.41-2.02.97-4.02,1.98-6.04,2.95-1.01.49-2.02.96-3.05,1.42-.24.11-.46.22-.67.34-.41.23-.73.48-.99.77-.64.71-.85,1.64-.72,2.98,1.4,14.53,2.68,29.08,4,43.62,1.34,14.76,2.72,29.53,3.98,44.3.02.24.05.46.08.67.23,1.48.83,2.38,2.49,3,2.42.9,4.83,1.85,7.23,2.81.66.26,1.32.53,1.98.79,9.42-35.87,29.45-65.36,33.86-71.57-5.49-5.08-10.99-10.15-16.5-15.21Z"/>
  <path class="cls-1" d="m310.55,275.62c-.84.92-1.75,2.46-1.56,3.52,1,5.47,2.35,10.87,3.74,16.98,6.34-5.2,12-9.83,17.89-14.65-5.27-3.67-10.06-7-14.93-10.4-1.86,1.61-3.66,2.93-5.13,4.55Z"/>
  <path class="cls-1" d="m34.87,87.33c-.08.99,2.14,2.5,3.57,3.19,1.13.54,3.18.78,3.98.13,3.69-3.03,7.09-6.41,10.74-9.8-4.15-5.24-8.11-10.25-12.36-15.62-3.75,7.29-5.32,14.61-5.93,22.11Z"/>
  <path class="cls-1" d="m58.13,268.75c-.44,3.49.65,5.71,4.06,7.11,3.6-5.1,7.21-10.21,10.96-15.5-4.81-2.6-9.1-4.92-13.83-7.47-.4,5.63-.55,10.78-1.19,15.86Z"/>
  <path class="cls-2" d="m142.35,204.18c5-3.4,7.24-6.04,7.38-6.22,1.03-1.36,1.37-2.78,1.26-3.7-.32-.52-.8-.87-1.46-.99-.47.1-1.03.34-1.65.71-3.1,1.84-4.77,7.02-5.53,10.2Z"/>
  <path class="cls-1" d="m160.31,74.58c-.55-14.56-1.1-29.06-1.64-43.53-19.68,15.51-39.99,29.16-66.69,28.36,13.48,15.03,28.1,28.69,43.33,41.81,3.85-6.55,12.97-20.3,25-26.64Z"/>
  <path class="cls-1" d="m302.71,128.17c.86,7.54,2.18,19.06.03,27.69,9.79-.91,19.63-1.83,29.58-2.76-.44-13.56-.85-26.52-1.32-39.48-.02-.68-.38-1.52-.86-2-2.47-2.43-5.03-4.76-7.65-7.2-6.78,6.52-13.51,12.99-20.23,19.46.07,1.03.26,2.74.44,4.29Z"/>
  <path class="cls-2" d="m196.43,214.07c-1.08.22-2.59.95-4.14,1.91-1.78,1.1-3.61,2.48-4.88,3.7-.31.3-.71.73-1.17,1.27-2.08,2.41-5.44,6.86-7.84,10.11,2.17-1.1,4.91-2.45,7.7-3.72.78-.36,1.56-.71,2.34-1.04,1.36-.59,2.58-1.45,3.66-2.42,2.07-1.88,3.61-4.2,4.6-5.98.05-.1.11-.2.16-.29.59-1.09.96-1.94,1.11-2.29,0-.05,0-.1,0-.15l.95-1.56-2.47.47Z"/>
  <path class="cls-2" d="m157.83,240.57c1.36-.59,2.58-1.45,3.66-2.42,3.5-3.17,5.48-7.62,5.87-8.57,0-.43-.08-1-.38-1.18l-1.15-.05c-1.08.22-2.59.95-4.14,1.91-1.78,1.1-3.61,2.48-4.88,3.7-.31.3-.71.73-1.17,1.27-2.08,2.41-5.44,6.86-7.84,10.11,2.17-1.1,4.91-2.45,7.7-3.72.78-.36,1.56-.71,2.34-1.04Z"/>
  <path class="cls-1" d="m142.14,282.52c-14,5.03-28.34,8.12-36.42,9.63,0,0,0,0,0,0-.19,1.81-.35,3.62-.5,5.43,0,0,0,0,0,0-.25,3.02-.45,6.04-.62,9.07-.06,1.18.54,2.91,1.44,3.56,16.97,12.31,35.24,22.29,54.79,29.89.32.12.68.11,1.44.23.23-8.37.47-16.64.7-24.92.19-7.04.41-14.08.56-21.11l.5-22.01c-6.43,4.05-14.1,7.44-21.88,10.23Z"/>
  <path class="cls-2" d="m168.78,261.75c-17.84,17.16-63.68,25-69.73,25.97l-.23,3.01-.14,1.71c-.47,5.47-.87,10.96-1.44,16.42-.27,2.63.58,4.34,2.66,5.73,5.35,3.59,10.56,7.38,16.01,10.81,14.88,9.37,30.63,16.99,47.11,23.1,3.97,1.47,6.04.27,6.15-3.55.49-16.82.92-33.64,1.37-50.46,0-.21,0-.42-.01-.62h0s.67-26.89.67-26.89l.02-2.69.04-4.78-2.49,2.23Zm-5.26,32.54c-.14,7.04-.36,14.08-.56,21.11-.23,8.27-.46,16.55-.7,24.92-.75-.12-1.12-.11-1.44-.23-19.55-7.6-37.81-17.58-54.79-29.89-.9-.65-1.5-2.38-1.44-3.56.16-3.02.36-6.05.61-9.07.15-1.81.31-3.62.5-5.43,0,0,0,0,0,0,8.08-1.51,22.42-4.6,36.42-9.63,7.77-2.79,15.44-6.18,21.88-10.23l-.5,22.01Z"/>
  <path class="cls-2" d="m210.54,201.14c2.98-2.3,4.1-3.3,4.03-4.67-.1-1.95-.35-2.98-.53-3.5-.95.73-2.52,2.77-3.61,4.9-.09.17-.18.34-.26.52-.37.79-.73,1.95-1.1,3.17-.1.32-.2.65-.3.98.58-.47,1.14-.9,1.66-1.3.04-.03.08-.06.12-.09Z"/>
  <path class="cls-1" d="m225.03,260.84c0,14.25,0,28.5.04,42.74,0,4.25.3,8.51.48,13.3,5.5-2.42,10.92-4.67,16.23-7.17,13.5-6.36,26.59-13.39,37.65-23.64.9-.83,1.71-2.08,1.95-3.25,1.09-5.29,2.03-10.61,2.84-15.95.16-1.05-.16-2.46-.8-3.31-6.17-8.27-12.38-16.51-18.61-24.73-11.93,13.7-30.51,19.73-39.78,22Z"/>
  <path class="cls-2" d="m289.59,261.77c-6.96-9.33-13.97-18.63-21-27.9-.35-.46-.7-.93-1.05-1.39l-.29-.38-1.86-2.45-.58,1.4c-12.87,19.83-42.19,25.61-45.75,26.24v.7c0,.56,0,1.12,0,1.68.01,20.01,0,40.02,0,60.04,0,4.06,1.76,5.36,5.7,3.73,8-3.31,16.02-6.6,23.82-10.32,13.01-6.22,25.42-13.48,35.9-23.57,1.23-1.19,2.29-2.95,2.64-4.6,1.33-6.38,2.43-12.82,3.4-19.27.19-1.24-.19-2.91-.94-3.91Zm-5.38,5.11c-.81,5.34-1.75,10.66-2.84,15.95-.24,1.18-1.05,2.42-1.95,3.25-11.06,10.25-24.15,17.28-37.65,23.64-5.31,2.5-10.73,4.75-16.23,7.17-.18-4.8-.47-9.05-.48-13.3-.03-14.25-.04-28.5-.04-42.74,9.27-2.27,27.85-8.3,39.78-22,6.23,8.22,12.44,16.46,18.61,24.73.63.85.96,2.26.8,3.31Z"/>
  <path class="cls-2" d="m127.05,146.41c-12.57-11.6-25.14-23.19-37.68-34.81-1.92-1.78-3.68-2.12-6.04-.92-5.79,2.96-11.6,5.88-17.51,8.57-2.79,1.27-3.75,2.99-3.45,6.04,1.5,15.42,2.83,30.86,4.22,46.29.02,0,.04,0,.06,0,.09,1.01.17,2.01.26,3.02,1.3,14.76,2.66,29.52,3.86,44.29.25,3.08,1.47,4.82,4.43,5.9,5.04,1.85,10.01,3.92,15.01,5.89l2.49,1.03.44-3.92c.14-.59.3-1.18.45-1.77.09-.34.17-.68.26-1.02,1.28-4.94,2.76-9.76,4.39-14.41,2.41-6.9,5.12-13.43,7.9-19.45.26-.56.52-1.13.78-1.69,10.1-21.42,20.79-35.84,20.96-36.06l2.6-3.94-3.41-3.05Zm-38.06,76.66c-.66-.27-1.32-.53-1.98-.79-2.4-.96-4.8-1.91-7.23-2.81-1.66-.62-2.26-1.51-2.49-3-.03-.21-.06-.44-.08-.67-1.26-14.77-2.64-29.53-3.99-44.3-1.31-14.54-2.59-29.09-3.99-43.62-.13-1.34.07-2.26.72-2.98.26-.29.59-.54.99-.77.2-.12.42-.23.67-.34,1.02-.46,2.04-.93,3.05-1.42,2.02-.97,4.02-1.99,6.04-2.95,1.01-.48,2.03-.96,3.05-1.41.21-.09.47-.15.75-.17.14-.01.29-.02.43-.01.29,0,.6.05.88.11.42.1.8.27,1.05.49,6.5,5.95,13,11.9,19.49,17.86,5.51,5.06,11.01,10.13,16.5,15.21-4.41,6.21-24.44,35.71-33.86,71.57Z"/>
  <path class="cls-2" d="m338.66,277.78c-6.75-4.86-13.62-9.55-20.42-14.32-2.29-1.6-4.32-1.27-6.31.57-2.48,2.29-4.93,4.64-7.6,6.7-2.87,2.22-4.43,4.72-2.98,8.47l6.39,23.47c1.27,3.61,3.8,4.21,6.69,1.9,8.21-6.58,16.35-13.25,24.43-20,2.68-2.24,2.6-4.78-.2-6.79Zm-25.93,18.34c-1.38-6.11-2.73-11.52-3.74-16.98-.19-1.06.72-2.6,1.56-3.52,1.47-1.62,3.27-2.93,5.13-4.55,4.88,3.4,9.66,6.73,14.93,10.4-5.89,4.82-11.55,9.45-17.89,14.65Z"/>
  <path class="cls-2" d="m333.97,194.9c-4.42-.2-8.84-.47-13.26-.66-7.8-.33-15.61-.71-23.42-.91-5.02-.13-6.51,2.46-4.19,6.98.77,1.5,1.51,3.05,2.48,4.43,9.57,13.62,19.13,27.26,28.88,40.76,1.13,1.56,3.66,3.36,5.13,3.06,1.53-.32,3.35-2.9,3.69-4.75l6.4-43.14c.02-4.68-.86-5.54-5.71-5.76Zm-5.85,41.02l-.49,2.11-1.04-1.66c-8.02-11.38-16.03-22.75-24.05-34.13l-.56-.85,1.3-.07c9.31.35,18.61.7,28.98,1.1-1.4,11.34-2.77,22.42-4.14,33.51Z"/>
  <path class="cls-3" d="m303.28,201.31l-1.3.07.56.85c8.02,11.38,16.03,22.75,24.05,34.13l1.04,1.66.49-2.11c1.37-11.08,2.74-22.17,4.14-33.51-10.37-.39-19.67-.74-28.98-1.1Z"/>
  <path class="cls-1" d="m274.21,88.29c8.51-8.68,17.04-17.34,25.61-25.96,2.46-2.47,3.77-5.02,4.01-8.47.38-5.55,1.08-11.09,1.72-17.39-40.17,9.52-77.69,4.84-113.63-16.13,2.33,19.09,4.64,38.05,6.95,56.99,4.1-2.36,10.48-5.28,18.71-6.68,13.04-2.21,33.27-.84,56.63,17.64Z"/>
  <path class="cls-2" d="m333.8,106.07c-2.73-2.15-5.14-4.71-7.7-7.09-3.2-2.97-4.17-2.95-7.36.11-7.59,7.3-15.18,14.6-22.77,21.91.59,1.81,1.08,3.62,1.48,5.42.13.58.25,1.16.37,1.73,1.24,6.34,1.45,12.54,1.03,18.37-.21,2.95-.59,5.81-1.08,8.53-.08.43-.16.86-.24,1.28-.24,1.24-.51,2.45-.79,3.62-.25,1.05-.51,2.08-.79,3.09,6.39-.44,12.96-.9,19.82-1.37,4.5-.64,11.4-1.69,18.32-2.56,2.91-.36,4.26-1.65,4.19-4.65-.3-13.4-.6-26.81-.72-40.22-.03-3.42-1.01-6.02-3.76-8.18Zm-1.48,47.03c-9.95.93-19.79,1.84-29.58,2.76,2.15-8.62.83-20.14-.03-27.69-.18-1.56-.37-3.26-.44-4.29,6.72-6.46,13.45-12.94,20.23-19.46,2.62,2.45,5.18,4.78,7.65,7.2.48.48.83,1.31.86,2,.47,12.96.88,25.92,1.32,39.48Z"/>
  <path class="cls-2" d="m265.93,126.33c-.84-1.71-1.82-3.41-2.94-5.1-.67-1-1.38-2.01-2.15-3-.83-1.08-1.7-2.08-2.59-3.01-7.26-7.58-18.31-10.44-28.13-6.74-4.83,1.82-9.63,5.3-13.1,11.67-.19.34-.36.67-.53,1-8,15.06-6.2,19.71-1.55,24.94.82.92,1.73,1.86,2.68,2.88.75.8,1.46,1.65,2.15,2.53,1.22,1.57,2.33,3.24,3.31,4.88,2.21,3.69,3.81,7.23,4.6,9.12-1.71-2.88-6.65-7.66-6.65-7.66,0,0,0,0,0,0-1.85-1.23-3.49-2.49-4.94-3.75-.54-.47-1.06-.95-1.55-1.43-2.37-2.3-4.15-4.61-5.48-6.89-6.86-11.75-1.5-22.31-1.5-22.31,1.04-1.36,2.08-2.62,3.11-3.8,2.12-2.41,4.23-4.43,6.3-6.13,7.58-6.22,14.69-8.09,20.25-8.24-6.5-.54-13.3.57-19.9,2.69-2.04.65-4.06,1.41-6.05,2.23-4.58,1.9-8.98,4.22-13.04,6.71t0,0c-2.17,1.33-4.24,2.72-6.19,4.11-9.38,6.74-15.79,13.83-16.22,17.27,0,0-.13.55-.31,1.38-.4,1.84-1.04,5.09-1.09,6.98.14.13.27.25.41.38.57-.97,1.83-2.94,3.5-4.72,2.59-2.77,6.18-5.07,9.74-2.39,4.09,3.06,1.93,7.35-.81,10.63-1.49,1.78-3.14,3.27-4.06,4.11-.19.17-.35.32-.47.43-1.22,1.17-6.11,3.24-11.12,6.76-1.55,1.09-3.11,2.31-4.58,3.69-.69.65-1.37,1.33-2.01,2.05-5.02,5.62-9.82,12.1-11.9,15.23-.25.37.2.81.57.56,2.68-1.89,8.01-5.33,10.62-4.84,3.57.67,6.94,3.87,3.09,9.46-1.72,2.5-14.01,17.11-27.05,32.49-2.54,2.99-5.11,6.01-7.63,8.98-13.48,15.84-25.72,30.12-25.72,30.12l54.18-36.36s6.3-4.65,4.59.09c-.45,1.25-1.09,2.29-1.8,3.19-1.97,2.54-4.44,4-4.59,5.87,0,0,6.39-3.62,13.02-4.3.17-.02.33-.04.5-.05,1.13-.09,2.14-1.16,3.75-2.66,2.36-2.21,6.01-5.37,13.23-7.78,1.45-.48,3.03-.94,4.79-1.35,3.22-.75,5.9-4.96,7.9-8.87,1.29-2.52,2.3-4.91,2.98-6.17,1-1.84,4.11-5.6,6.97-6.13,2.15-.4,4.16,1.02,5.03,6.49,1.59,10.1-3.88,11.03-9.64,14.87-1.44.96-2.9,2.1-4.27,3.62-.05.06-.11.12-.16.18,1.43-.2,2.85-.45,4.26-.76.06-.01.13-.03.19-.04,9.35-2.06,18.07-6.44,25.31-12.77l7.9-6.91.09-.08c1.33-1.87,2.46-3.58,3.44-5.17,6.64-10.8,6.03-15.93,8.46-22.72.37-1.03.81-2.11,1.36-3.24.34-.7.66-1.41.97-2.13,1.53-3.54,2.75-7.35,3.54-11.19.54-2.63.89-5.27,1-7.84.14-3.17-.08-6.22-.71-9.01-.49-2.14-1.16-4.15-1.93-6.01-.81-1.94-1.72-3.72-2.65-5.29-2.99-5.08-6.1-8.1-6.1-8.1,3.28,2.04,5.94,4.3,8.09,6.71,1.36,1.52,2.51,3.1,3.48,4.71,2.7,4.49,4,9.24,4.45,13.8.24,2.44.25,4.82.09,7.08-.46,6.75-2.32,12.4-3.31,15.08-.05.15-.11.3-.16.46-.59,1.65-1.18,3.58-1.74,5.58-1.08,3.89-2.04,7.99-2.62,10.6,2.02-2.92,4.18-6.39,6.16-10.27.91-1.79,1.79-3.66,2.6-5.61,2.5-6,4.35-12.7,4.67-19.71.1-2.3.04-4.63-.22-6.99-.52-4.65-1.81-9.38-4.13-14.08Z"/>
  <path class="cls-2" d="m308.38,27.57c-.89.18-1.77.45-2.65.69-26.93,7.21-53.75,7.09-80.45-1.18-12.4-3.84-23.87-9.6-34.68-16.77-1.41-.93-4.22-1.61-5.2-.86-1.26.96-1.34,3.48-1.87,5.34-.1.34.1.77.14,1.15,2.83,23.36,5.66,46.73,8.5,70.09l.38,3.02,5-3.64c.08-.07,8.15-6.74,21.35-8.9,16.45-2.68,33.26,2.45,50.03,15.27.31.31.64.62.94.92,1.91,1.93,3.61,3.82,5.14,5.72,11.36-11.56,22.71-23.13,34.05-34.72.77-.79,1.44-1.97,1.56-3.04,1.14-9.55,2.25-19.11,3.14-28.69.35-3.73-1.66-5.18-5.38-4.42Zm-4.55,26.3c-.23,3.44-1.55,5.99-4.01,8.47-8.57,8.62-17.1,17.29-25.61,25.96-23.36-18.48-43.59-19.84-56.63-17.64-8.23,1.4-14.61,4.32-18.71,6.68-2.31-18.95-4.62-37.9-6.95-56.99,35.93,20.98,73.46,25.65,113.63,16.13-.64,6.3-1.35,11.84-1.72,17.39Z"/>
  <path class="cls-2" d="m166.42,75.7c-.48-12.86-.95-25.72-1.47-38.57-.18-4.34-.36-8.67-.55-13-.06-1.33-1.01-3.35-2.03-3.72-1-.36-2.83.73-3.9,1.64-1.73,1.46-3.05,3.38-4.69,4.96-10.91,10.47-23.99,17.45-37.91,22.87-3.99,1.55-8.39,2.31-12.67,2.8-5.6.64-11.29.55-16.91,1.03-1.27.11-2.97.98-3.5,2-.42.81.35,2.59,1.09,3.59,1.58,2.15,3.43,4.1,5.25,6.07,14.85,16.04,30.91,30.73,47.57,44.74.16-1.11.38-2.2.65-3.27l.06.03c.12-.24,12.55-24.47,29.01-29.97l.07-.03-.06-1.17Zm-31.12,25.52c-15.23-13.12-29.85-26.78-43.33-41.81,26.7.8,47.01-12.85,66.69-28.36.55,14.48,1.09,28.97,1.64,43.53-12.03,6.34-21.16,20.09-25,26.64Z"/>
</svg>