<?xml version="1.0" encoding="utf-8"?>
<!-- Generator: Adobe Illustrator 27.5.0, SVG Export Plug-In . SVG Version: 6.00 Build 0)  -->
<svg version="1.1" id="Calque_1" xmlns="http://www.w3.org/2000/svg" xmlns:xlink="http://www.w3.org/1999/xlink" x="0px" y="0px"
	 viewBox="0 0 189.5 189.5" style="enable-background:new 0 0 189.5 189.5;" xml:space="preserve">
<style type="text/css">
	.st0{fill:#FFB933;}
	.st1{fill:#FF8404;}
</style>
<g>
	<polygon class="st0" points="51.6,94.8 12.1,73.2 0,94.8 12.1,116.3 	"/>
	<polygon class="st0" points="94.9,51.6 116.5,12.1 94.9,0 73.3,12.1 	"/>
	<polygon class="st0" points="137.9,94.8 177.4,116.3 189.5,94.8 177.4,73.2 	"/>
	<polygon class="st0" points="94.9,137.9 73.3,177.4 94.9,189.5 116.5,177.4 	"/>
	<polygon class="st0" points="60.2,59.7 50.5,38.4 40,39.4 39,49.9 	"/>
	<polygon class="st0" points="130,60.1 151.3,50.3 150.3,39.8 139.8,38.8 	"/>
	<polygon class="st0" points="129.5,130.1 139.3,151.4 149.9,150.4 150.8,139.9 	"/>
	<polygon class="st0" points="59.8,129.1 38.5,138.9 39.5,149.5 50,150.4 	"/>
</g>
<g>
	<polygon class="st1" points="3.5,94.8 47,94.8 13.2,111.9 	"/>
	<polygon class="st1" points="94.4,3.5 94.4,47 77.2,13.2 	"/>
	<polygon class="st1" points="186,94.8 142.5,94.8 176.3,77.6 	"/>
	<polygon class="st1" points="94.9,186 94.9,142.5 112.1,176.3 	"/>
	<polygon class="st1" points="41.8,41.6 41.2,48.9 56,55.8 	"/>
	<polygon class="st1" points="148.1,41.7 140.7,41 133.9,55.8 	"/>
	<polygon class="st1" points="147.9,148.2 148.6,140.9 133.8,134.1 	"/>
	<polygon class="st1" points="41.7,147.6 49.1,148.2 55.9,133.4 	"/>
</g>
</svg>
