<?xml version="1.0" encoding="UTF-8"?>
<svg id="Calque_1" data-name="Calque 1" xmlns="http://www.w3.org/2000/svg" viewBox="0 0 48.42 48.42">
  <defs>
    <style>
      .cls-1 {
        fill: #828282;
      }
    </style>
  </defs>
  <path class="cls-1" d="m24.21,0C10.84,0,0,10.84,0,24.21s10.84,24.21,24.21,24.21,24.21-10.84,24.21-24.21S37.58,0,24.21,0Zm0,43.42c-4.4,0-8.44-1.5-11.68-4l26.89-26.89c2.5,3.24,4,7.29,4,11.68,0,10.59-8.62,19.21-19.21,19.21Zm11.68-34.42l-26.89,26.89c-2.5-3.24-4-7.29-4-11.68C5,13.62,13.62,5,24.21,5c4.4,0,8.44,1.5,11.68,4Z"/>
</svg>