<?xml version="1.0" encoding="UTF-8"?>
<svg id="Calque_2" data-name="Calque 2" xmlns="http://www.w3.org/2000/svg" viewBox="0 0 367.35 358.23">
  <defs>
    <style>
      .cls-1 {
        fill: #ac0000;
      }
    </style>
  </defs>
  <path class="cls-1" d="m335.52,250.76c-3.15-7.14-5.31-14.49-6.65-22.21-1.53-8.75-3.53-17.48-6.14-25.97-7.26-23.57-19.64-44.53-34.66-63.88-13.48-17.37-27.21-34.54-38.87-53.21-4.82-7.72-11.39-12.98-19.71-16.53-20.83-8.89-41.56-18-62.33-27.02-4.57-1.99-9.08-4.15-13.74-5.89-3.96-1.48-5.68-.8-8.21,2.51-2.63,3.43-5.18,6.92-7.73,10.4-5.17,7.04-10.29,14.11-15.48,21.13-1.92,2.6-1.76,4.97.51,7.16,2.69,2.6,5.32,5.28,8.22,7.63,4.35,3.52,4.44,3.42,9.01.05,1.32-.97,2.59-1.99,3.92-2.94,4.04-2.9,7.09-6.44,9.45-10.95,1.64-3.14,4.69-5.73,7.57-8,2.05-1.61,4.85-2.21,7.8-.21-5.05,3.5-8.07,8.25-9.7,13.75-1.14,3.85-3.45,6.43-6.57,8.71-6.05,4.42-11.92,9.08-17.93,13.55-2.04,1.52-2.49,3.35-1.51,5.53.66,1.47,1.51,2.88,2.43,4.21,1.59,2.31,3.64,3.15,6.47,2.07,2.41-.92,4.94-1.54,7.45-2.21,14.31-3.82,28.05-10.19,43.34-9.66.95.03,1.91-.19,2.86-.36,7.73-1.32,14.44-4.13,17.6-12.08.57-1.43,1.1-2.87,1.81-4.74,2.22,3.53,2.75,7.11,1.27,9.9-2.62,4.9-.82,8.55,1.85,12.36.71,1.02,1.28,2.14,1.93,3.2,9.07,14.63,13.82,30.7,13.8,47.76-.02,14.83-1.53,29.67-2.56,44.49-.18,2.6.45,4.2,2.51,5.86,4.31,3.49,8.72,7.01,12.34,11.18,2.89,3.33,4.73,7.58,6.87,11.52.49.9.29,2.19.4,3.29l-.78.26c-.8-.65-1.59-1.31-2.4-1.95-7.14-5.65-13.82-12.05-21.52-16.8-17.86-11.02-37.1-15.41-57.89-9.08-2.49.76-2.68,1.74-2.09,4.15,1.29,5.26,2.36,10.63,2.86,16.02.21,2.3-1.22,4.75-1.91,7.14-.3-.05-.6-.1-.9-.14-.29-.78-.64-1.55-.87-2.36-4.4-15.73-13.19-28.45-26.45-37.97-28.99-20.83-66.26-18.24-92.04,6.21-25.46,24.14-28.82,63.03-8.77,91.74,18.37,26.31,51.69,37.28,81.82,26.47,5.63-2.02,10.61-2.05,16.16-.46,13.97,4.01,28.27,6.44,42.74,7.73,23.87,2.13,47.39.22,70.58-5.94,26.09-6.93,49.9-18.67,72.15-33.73,4.12-2.79,7.98-5.99,11.89-9.09,3.85-3.06,5.23-7.05,3.74-11.79-1.15-3.64-2.35-7.3-3.89-10.79Zm-78.12,23.07c-11.13,9-24.15,13.15-38.16,14.63-9.5,1-19.05,1.49-28.2-1.89-3.43-1.27-6.53-3.45-9.73-5.32-.58-.34-.86-1.17-1.28-1.77.09-.25.17-.49.26-.74,27.02,6.3,52.71-.85,78.41-7.95.16.32.31.63.46.95-.58.7-1.07,1.52-1.76,2.09Z"/>
</svg>