<?xml version="1.0" encoding="UTF-8"?>
<svg id="Calque_2" data-name="Calque 2" xmlns="http://www.w3.org/2000/svg" viewBox="0 0 367.35 358.23">
  <defs>
    <style>
      .cls-1 {
        fill: #fff;
      }
    </style>
  </defs>
  <path class="cls-1" d="m342.79,167.15c-1.92-35.97-18.44-73.21-44.47-99.27,0,0,0,0,0,0C218.26-15.93,75.19,13.53,34.73,122.11c-37.47,93.66,26.91,201.05,126.54,214.92,98.64,15.05,190.65-70.23,181.51-169.87Zm-15.16.57c.97,6.18-11.96,2.17-15.9,3.3-4.44,0-4.72,0-4.93-3.72-.53-10.81-3.58-21.46-7.15-31.68-5.07-13.63-12.38-26.75-22.36-37.4-.7-.86-.76-1.54.16-2.43,15.91-15.51,10.84-16.17,25.41,1.25h0c13.92,21.18,22.65,45.36,24.77,70.67Zm-217.42,90.32s0,0,0,0c-64.47-60.64-33.87-165.96,51.24-185.45,77.63-15.27,146.46,54.52,127.62,131.89-19.93,79.45-118.49,109.93-178.85,53.55Zm17.2-211.68c15.16-6.38,31.05-10.71,47.5-11.15,3.03-.66.65,16.95,1.28,19.9-25.19,2.07-50.44,11.23-70.24,27.65-4.1,3.26-4.04,3.33-7.68-.32-2.22-3.14-10.48-8.4-10.13-11.8,11.98-9.88,24.9-18.27,39.27-24.28Zm-52.14,38.34c1.62-1.74,2.23-1.16,3.43.04,3.94,3.93,7.93,7.8,11.9,11.7.29,1.65-1.02,2.47-1.88,3.49-5.58,6.6-10.4,13.7-14.21,21.48-8.16,14.43-12.6,30.94-14.05,47.32-.12,1.8-.56,2.38-2.38,2.34-5.35-.11-10.7-.16-16.04.02-2.34.08-2.62-1.19-2.17-2.73,2.81-30.52,14.15-61.07,35.41-83.64Zm100.99,235.45c.04,2.09-.72,2.98-2.82,2.76-27.73-2.46-54.62-12.34-76.69-29.41-2.05-2.43-9-5.47-8.62-8.53,21.56-21.94,9.08-10.43,38.5,3.28,14.56,8.19,30.9,12.34,47.41,13.99,4.24-1.06,1.34,14.6,2.21,17.92Z"/>
  <path class="cls-1" d="m137.58,192.95h0c-8.29,66.36-16.99,64.83,45.71,33.95,14.27,4.94,27.38,14.05,41.47,19.97,10.99,3.18,12.68-5.38,10.59-13.91-1.09-13.29-5.14-27.12-4.99-40.29,9.3-10.63,19.81-20.34,29.51-30.65,3.59-2.32,4.7-5.87,3.71-9.68-1.9-7.15-17.78-6.25-24.14-8.29-9.12-2.35-18.86-2.13-27.75-5.25-4.3-9.85-10.11-18.97-14.84-28.62-3.71-7.4-10.14-23.62-19.41-12.22-30.41,52.15-6.64,37.57-67.48,49.23-6.17.73-9.1,9.07-3.88,12.9,9.67,11.75,21.34,21.58,31.49,32.88Zm-9.6-32.81c43.05-11.13,31.96,4.96,53.65-37.56,0,0,0,0,0,0,2.04-3.8,2.58-3.85,4.65-.02h0s0,0,0,0c2.61,6.1,6.09,11.73,9.17,17.59h0c1.93,3.63,3.55,7.49,5.89,10.87,4.34,5.71,30.64,5.65,38.52,9.08h0c-6.97,8.02-14.38,15.62-21.99,23.03-7.03,5.44-2.56,14.13-1.93,21.41h0c.56,7.13,2.5,14.49,2.48,21.41-39.72-15.64-23.4-23.65-64.74-1.59-1.81.14-2.92,1.93-4.99,1.77,6.52-51.12,11.45-29.09-20.7-65.99Z"/>
</svg>