<?xml version="1.0" encoding="UTF-8"?>
<svg id="Calque_2" data-name="Calque 2" xmlns="http://www.w3.org/2000/svg" viewBox="0 0 367.35 358.23">
  <defs>
    <style>
      .cls-1 {
        fill: #44619b;
      }

      .cls-2 {
        fill: #ff003c;
      }

      .cls-3 {
        fill: #4f70b3;
      }
    </style>
  </defs>
  <path class="cls-3" d="m183.27,174.75c.53,1.2.81,1.91.81,1.91-.05-.5-.35-1.16-.81-1.91Z"/>
  <path class="cls-2" d="m234.7,124.29c0-.09,0-.17,0-.25l-.14.06s-16.28,3.51-32.56-.82c-1.16-.3-2.32-.65-3.47-1.05-4.68-1.59-9.27-3.9-13.37-7.22-1.13-.63-1.93-.63-3.07,0-19.24,15.57-49.29,9.12-49.4,9.1,0,.29-.01.58-.01.87-.02,10.49-.01,20.97-.01,31.46,0,10.37-.04,20.75.04,31.12.01,1.76.16,3.67.86,5.25,1.49,3.37,3.1,6.74,5.14,9.79,11.22,16.69,25.75,29.93,42.8,40.48,1.53.95,2.94.89,4.37-.15,6.12-4.43,12.5-8.56,18.31-13.37,10.42-8.63,19.47-18.57,26.44-30.25,2.1-3.52,4.09-7.14,4.09-11.41.02-21.2.01-42.4,0-63.59Z"/>
  <g>
    <path class="cls-1" d="m284.8,79.15h0c0-4.39-3.85-7.79-8.2-7.24l-.36.04-2.48-19.85,9.92-1.24c3.8-.48,6.54-.96,7.85-1.2l12.78-5.38.46,14.55c.02.3.03.57.03.87v19.44s-19.99,0-19.99,0Z"/>
    <path class="cls-1" d="m255.35,72.36l-9.96-.94c-7.07-.67-13.94-1.77-20.41-3.28l-9.74-2.28,4.55-19.47,9.74,2.28c5.6,1.31,11.56,2.27,17.73,2.85l9.96.94-1.87,19.91Zm-143.24-.01l-1.92-19.91,9.95-.96c6.17-.59,12.13-1.57,17.72-2.89l9.73-2.3,4.61,19.46-9.73,2.3c-6.47,1.53-13.34,2.66-20.41,3.34l-9.95.96Zm82.35-15.19l-8.22-5.69c-.12-.08-.24-.17-.36-.25-1.41-.99-3.28-.98-4.68,0,0,0-.02.01-.02.02l-8.2,5.73-11.46-16.39,8.2-5.73c1.44-1.01,2.85-2.07,4.2-3.16l.71-.57.8-.43c5.1-2.78,11.26-2.76,16.34.05l.75.42.68.55c1.43,1.15,2.92,2.27,4.45,3.33l8.22,5.69-11.39,16.44Z"/>
    <path class="cls-1" d="m82.57,79.28l-20-.02.02-18.11c0-.73.01-1.46.04-2.2l.39-11.99,11.72,2.54s3.4.72,8.98,1.4l9.93,1.22-2.44,19.85-.32-.04c-4.42-.54-8.31,2.9-8.32,7.35h0Z"/>
    <path class="cls-1" d="m183.52,329.81c-3.37,0-6.68-.99-9.85-2.96-1.54-.95-3.08-1.92-4.6-2.89l-8.43-5.38,10.77-16.85,8.43,5.38s.04.02.05.03c2.1,1.34,4.81,1.24,6.85-.2.01,0,.02-.02.03-.02l8.15-5.79,11.59,16.3-8.15,5.79c-1.36.96-2.71,1.93-4.05,2.91-3.38,2.44-7,3.68-10.78,3.68Zm-1.09-19.78s0,0,0,0c0,0,0,0,0,0Zm1.94-.08h0,0Zm-41.84-4.52l-7.7-6.39c-5.47-4.54-10.81-9.28-15.88-14.11l-7.24-6.89,13.79-14.49,7.24,6.89c4.74,4.51,9.74,8.96,14.86,13.21l7.7,6.39-12.77,15.39Zm81.8-.45l-12.54-15.58,7.79-6.27c.78-.63,1.56-1.27,2.34-1.91,4.37-3.62,8.63-7.35,12.65-11.1l7.32-6.81,13.62,14.65-7.32,6.81c-4.3,4-8.85,7.99-13.51,11.85-.85.7-1.7,1.4-2.56,2.09l-7.79,6.27Zm-127.84-43.62l-6.18-7.86c-4.37-5.56-8.6-11.35-12.55-17.2l-5.59-8.29,16.58-11.19,5.59,8.29c3.68,5.46,7.62,10.85,11.69,16.02l6.18,7.86-15.72,12.37Zm174.47-.08l-15.75-12.33,6.17-7.87c4.07-5.19,7.92-10.58,11.45-16.01l5.45-8.38,16.77,10.9-5.45,8.38c-3.85,5.92-8.04,11.78-12.47,17.44l-6.17,7.87Zm-208.29-58.54l-.06-10c-.04-6.87-.06-13.74-.07-20.61v-10s19.99-.02,19.99-.02v10c.02,6.84.04,13.68.08,20.52l.06,10-20,.11Zm242.12-.12l-20-.02.03-40.56h20s-.03,40.58-.03,40.58Zm-222.22-61.64h-20v-40.57h20v40.57Zm222.25-.07h-20v-40.57s20,0,20,0v40.57Z"/>
  </g>
  <path class="cls-2" d="m183.58,278.98c-2.35,0-4.71-.69-6.95-2.08-26.24-16.23-47.6-36.44-63.48-60.07-3.33-4.95-5.8-10.2-7.99-15.14-1.61-3.64-1.84-7.51-1.86-10.47-.08-11.12-.07-22.4-.06-33.32v-22.49c0-11.25,0-22.5.03-33.75,0-.48,0-.97.02-1.47l.29-8.92,8.73,1.84c.41.09,40.02,8.22,64.4-11.51l.53-.43.6-.33c3.86-2.1,7.75-2.09,11.59.03l.57.32.51.41c4.73,3.82,10.39,6.87,16.82,9.06,1.52.53,2.98.98,4.4,1.34,19.35,5.15,38.83,1.93,42.52,1.24l9.54-4.01.32,10.89c0,.18.02.38.02.58h0c.02,30.32.03,60.63,0,90.95,0,7.9-3.41,14.28-6.9,20.13-9.91,16.62-22.82,31.41-39.46,45.19-5.96,4.93-12.29,9.37-18.42,13.66-2.69,1.88-5.47,3.82-8.14,5.76-2.38,1.72-4.98,2.59-7.61,2.59ZM118.2,109.08c0,8.78,0,17.55,0,26.33v22.51c-.02,10.88-.03,22.14.05,33.19.02,2.16.21,3.69.59,4.54,1.91,4.31,4.04,8.86,6.72,12.85,14.68,21.85,33.63,39.87,57.89,55.05,2.45-1.76,4.92-3.48,7.31-5.16,6.16-4.31,11.97-8.37,17.46-12.92,15.3-12.68,27.13-26.2,36.16-41.33,2.62-4.4,4.79-8.37,4.79-12.49.03-27.52.02-55.05,0-82.57-9.46,1.03-25.25,1.66-41.22-2.6-1.76-.45-3.64-1.02-5.52-1.67-6.97-2.37-13.31-5.61-18.84-9.64-21.96,16-50.92,15.47-65.39,13.93Zm145.92-8.38h.01-.01Z"/>
</svg>