<?xml version="1.0" encoding="utf-8"?>
<!-- Generator: Adobe Illustrator 27.5.0, SVG Export Plug-In . SVG Version: 6.00 Build 0)  -->
<svg version="1.1" id="Calque_1" xmlns="http://www.w3.org/2000/svg" xmlns:xlink="http://www.w3.org/1999/xlink" x="0px" y="0px"
	 viewBox="0 0 104.9 100" style="enable-background:new 0 0 104.9 100;" xml:space="preserve">
<style type="text/css">
	.st0{enable-background:new    ;}
	.st1{clip-path:url(#SVGID_00000008858130440355222570000013221449111739995527_);enable-background:new    ;}
	.st2{fill:#850000;}
	.st3{fill:#8A0000;}
	.st4{clip-path:url(#SVGID_00000039820061448697435270000005013574361253770146_);enable-background:new    ;}
	.st5{clip-path:url(#SVGID_00000156584184093578900320000000359844906663468428_);enable-background:new    ;}
	.st6{fill:#8F0000;}
	.st7{clip-path:url(#SVGID_00000154388746408481960960000006721495890153054860_);enable-background:new    ;}
	.st8{fill:#A30000;}
	.st9{fill:#9E0000;}
	.st10{fill:#990000;}
	.st11{fill:#940000;}
	.st12{clip-path:url(#SVGID_00000112620801629055089350000004238332259261571469_);enable-background:new    ;}
	.st13{clip-path:url(#SVGID_00000146479926351698774040000008954499190012753331_);enable-background:new    ;}
	.st14{clip-path:url(#SVGID_00000021799652891314557970000005326356110794393274_);enable-background:new    ;}
	.st15{clip-path:url(#SVGID_00000107552571418528942030000003274656423635385005_);enable-background:new    ;}
	.st16{clip-path:url(#SVGID_00000165230130821981605820000006183504405459856810_);enable-background:new    ;}
	.st17{clip-path:url(#SVGID_00000140714875311491806860000015146452226909290663_);enable-background:new    ;}
	.st18{fill:#DD0000;}
	.st19{clip-path:url(#SVGID_00000011001016045128418850000012424091941536830393_);enable-background:new    ;}
	.st20{clip-path:url(#SVGID_00000089572277462046597250000004066616683177749123_);enable-background:new    ;}
	.st21{clip-path:url(#SVGID_00000153686813942334351850000006176952968038473105_);enable-background:new    ;}
	.st22{clip-path:url(#SVGID_00000140710066958662082270000000603542951525858196_);enable-background:new    ;}
	.st23{clip-path:url(#SVGID_00000102520268138765978520000013127202452800120221_);enable-background:new    ;}
	.st24{clip-path:url(#SVGID_00000146472122721687617900000011778318046723243921_);enable-background:new    ;}
	.st25{clip-path:url(#SVGID_00000024717179111754993700000009794999027032573886_);enable-background:new    ;}
	.st26{clip-path:url(#SVGID_00000015331783048800209280000006534993665184610477_);enable-background:new    ;}
	.st27{clip-path:url(#SVGID_00000091725832007946514860000005163093760320597171_);enable-background:new    ;}
	.st28{clip-path:url(#SVGID_00000016074076759157010390000000442772904116563331_);enable-background:new    ;}
	.st29{clip-path:url(#SVGID_00000115478462542531169940000003529121955269407378_);enable-background:new    ;}
</style>
<g>
	<g>
		<g class="st0">
			<g class="st0">
				<defs>
					<path id="SVGID_1_" class="st0" d="M55.3,99.3l-0.5-8.6c0,0,0-0.1,0.1-0.1c0.1,0,0.2-0.1,0.3-0.1c0.1-0.1,0.3-0.1,0.5-0.2
						s0.4-0.1,0.6-0.2l0.8,8.4c-0.3,0.1-0.5,0.1-0.8,0.2c-0.2,0.1-0.4,0.1-0.6,0.2c-0.2,0.1-0.3,0.1-0.4,0.2
						C55.3,99.2,55.3,99.3,55.3,99.3z"/>
				</defs>
				<clipPath id="SVGID_00000107573309626867374090000017784117581228368307_">
					<use xlink:href="#SVGID_1_"  style="overflow:visible;"/>
				</clipPath>
				<g style="clip-path:url(#SVGID_00000107573309626867374090000017784117581228368307_);enable-background:new    ;">
					<path class="st2" d="M55.3,99.3l-0.5-8.6c0,0,0-0.1,0-0.1s0.1-0.1,0.1-0.1c0.1,0,0.1-0.1,0.2-0.1c0.1,0,0.2-0.1,0.3-0.1
						l0.6,8.5c-0.1,0-0.3,0.1-0.4,0.1c-0.1,0-0.2,0.1-0.3,0.1C55.4,99.2,55.4,99.2,55.3,99.3C55.3,99.3,55.3,99.3,55.3,99.3"/>
					<path class="st3" d="M56.1,98.9l-0.6-8.5c0.1,0,0.1,0,0.2-0.1c0.1,0,0.1,0,0.2-0.1s0.1,0,0.2-0.1c0.1,0,0.2,0,0.2-0.1l0.8,8.4
						c-0.1,0-0.2,0-0.3,0.1s-0.2,0-0.3,0.1c-0.1,0-0.2,0-0.2,0.1C56.3,98.8,56.2,98.9,56.1,98.9"/>
				</g>
			</g>
			<g class="st0">
				<defs>
					<path id="SVGID_00000170245853511708498450000007344153192680162944_" class="st0" d="M54.3,87l0.4,7.8c0,0.1,0,0.1,0,0.2
						s0,0.1,0,0.2c0,0.1,0,0.1,0,0.2c0,0.1,0,0.1,0,0.2c0,0.4-0.1,0.7-0.2,1c-0.1,0.3-0.3,0.6-0.4,0.9c-0.2,0.3-0.4,0.5-0.6,0.8
						c-0.2,0.2-0.4,0.5-0.7,0.7l-0.1-8.5c0.2-0.2,0.4-0.4,0.6-0.6c0.2-0.2,0.3-0.4,0.5-0.6s0.3-0.5,0.4-0.7s0.2-0.5,0.2-0.8
						c0-0.1,0-0.1,0-0.2c0-0.1,0-0.1,0-0.2s0-0.1,0-0.2C54.3,87.1,54.3,87.1,54.3,87z"/>
				</defs>
				<clipPath id="SVGID_00000105425812896779063620000001518138021406069427_">
					<use xlink:href="#SVGID_00000170245853511708498450000007344153192680162944_"  style="overflow:visible;"/>
				</clipPath>
				<g style="clip-path:url(#SVGID_00000105425812896779063620000001518138021406069427_);enable-background:new    ;">
					<path class="st2" d="M52.8,98.9l-0.1-8.5c0.2-0.2,0.4-0.4,0.6-0.6c0.2-0.2,0.3-0.4,0.5-0.6s0.3-0.5,0.4-0.7s0.2-0.5,0.2-0.8
						c0-0.1,0-0.1,0-0.2c0-0.1,0-0.1,0-0.2s0-0.1,0-0.2c0-0.1,0-0.1,0-0.2l0.4,7.8c0,0.1,0,0.1,0,0.2s0,0.1,0,0.2c0,0.1,0,0.1,0,0.2
						c0,0.1,0,0.1,0,0.2c0,0.4-0.1,0.7-0.2,1c-0.1,0.3-0.3,0.6-0.4,0.9c-0.2,0.3-0.4,0.5-0.6,0.8C53.3,98.5,53,98.7,52.8,98.9"/>
				</g>
			</g>
			<g class="st0">
				<defs>
					<path id="SVGID_00000101810862031310723950000007980264873758923967_" class="st0" d="M39.6,80.7l-2.7,6.4c0,0,0,0.1-0.1,0.1
						s-0.1,0.1-0.1,0.1c-0.1,0-0.1,0-0.2,0.1c-0.1,0-0.1,0-0.2,0l2.8-6.5c0.1,0,0.1,0,0.2,0c0.1,0,0.1,0,0.2,0c0,0,0.1,0,0.1-0.1
						C39.6,80.7,39.6,80.7,39.6,80.7z"/>
				</defs>
				<clipPath id="SVGID_00000123402508061966996340000008832581904509827492_">
					<use xlink:href="#SVGID_00000101810862031310723950000007980264873758923967_"  style="overflow:visible;"/>
				</clipPath>
				<g style="clip-path:url(#SVGID_00000123402508061966996340000008832581904509827492_);enable-background:new    ;">
					<path class="st6" d="M36.3,87.4l2.8-6.5c0,0,0,0,0,0c0,0,0,0,0,0c0,0,0,0,0,0c0,0,0,0,0,0l-2.8,6.5c0,0,0,0,0,0
						S36.4,87.4,36.3,87.4C36.4,87.4,36.4,87.4,36.3,87.4C36.3,87.4,36.3,87.4,36.3,87.4"/>
					<path class="st3" d="M36.5,87.4l2.8-6.5c0,0,0,0,0,0s0,0,0,0c0,0,0,0,0,0c0,0,0,0,0,0l-2.7,6.5c0,0,0,0,0,0
						S36.6,87.4,36.5,87.4C36.5,87.4,36.5,87.4,36.5,87.4C36.5,87.4,36.5,87.4,36.5,87.4"/>
					<path class="st2" d="M36.6,87.4l2.7-6.5c0,0,0.1,0,0.1,0c0,0,0,0,0.1,0s0,0,0.1-0.1c0,0,0,0,0-0.1l-2.7,6.4c0,0,0,0.1,0,0.1
						s0,0-0.1,0.1c0,0-0.1,0-0.1,0.1C36.7,87.3,36.7,87.3,36.6,87.4"/>
				</g>
			</g>
			<g class="st0">
				<defs>
					<path id="SVGID_00000178900802194814019390000005151196647080223412_" class="st0" d="M32.5,85.1l3.5-6.1c0,0,0.1,0,0.1,0.1
						c0,0,0.1,0.1,0.1,0.1s0.1,0.1,0.1,0.1s0.1,0.1,0.1,0.1c0.2,0.2,0.4,0.4,0.7,0.6c0.2,0.2,0.5,0.3,0.7,0.4
						c0.2,0.1,0.5,0.2,0.7,0.3c0.2,0.1,0.5,0.2,0.8,0.2l-2.8,6.5c-0.3-0.1-0.6-0.1-0.9-0.2s-0.6-0.2-0.9-0.4
						c-0.3-0.2-0.6-0.3-0.8-0.5c-0.3-0.2-0.5-0.4-0.8-0.7c0,0-0.1-0.1-0.1-0.1s-0.1-0.1-0.1-0.1c0,0-0.1-0.1-0.1-0.1
						C32.5,85.2,32.5,85.2,32.5,85.1z"/>
				</defs>
				<clipPath id="SVGID_00000083056750963652219590000016057648216939155596_">
					<use xlink:href="#SVGID_00000178900802194814019390000005151196647080223412_"  style="overflow:visible;"/>
				</clipPath>
				<g style="clip-path:url(#SVGID_00000083056750963652219590000016057648216939155596_);enable-background:new    ;">
					<path class="st8" d="M32.5,85.1l3.5-6.1c0,0,0.1,0,0.1,0.1c0,0,0.1,0.1,0.1,0.1s0.1,0.1,0.1,0.1s0.1,0.1,0.1,0.1
						c0.1,0.1,0.2,0.2,0.3,0.2c0.1,0.1,0.2,0.1,0.3,0.2S37,80,37.1,80c0.1,0.1,0.2,0.1,0.3,0.2l-3.2,6.3c-0.1-0.1-0.2-0.1-0.3-0.2
						c-0.1-0.1-0.2-0.2-0.3-0.2c-0.1-0.1-0.2-0.2-0.3-0.3c-0.1-0.1-0.2-0.2-0.3-0.3c0,0-0.1-0.1-0.1-0.1s-0.1-0.1-0.1-0.1
						c0,0-0.1-0.1-0.1-0.1C32.5,85.2,32.5,85.2,32.5,85.1"/>
					<path class="st9" d="M34.2,86.6l3.2-6.3c0.1,0,0.2,0.1,0.2,0.1c0.1,0,0.2,0.1,0.2,0.1c0.1,0,0.2,0.1,0.2,0.1
						c0.1,0,0.2,0.1,0.2,0.1l-3,6.4c-0.1,0-0.2-0.1-0.3-0.1c-0.1,0-0.2-0.1-0.3-0.1c-0.1,0-0.2-0.1-0.3-0.2S34.3,86.6,34.2,86.6"/>
					<path class="st10" d="M35.3,87.1l3-6.4c0.1,0,0.1,0,0.2,0.1c0.1,0,0.1,0,0.2,0.1c0.1,0,0.1,0,0.2,0s0.1,0,0.2,0l-2.8,6.5
						c-0.1,0-0.2,0-0.2,0s-0.2,0-0.2-0.1c-0.1,0-0.2,0-0.2-0.1C35.5,87.2,35.4,87.2,35.3,87.1"/>
					<polyline class="st11" points="36.3,87.4 39.1,80.9 39.1,80.9 39.1,80.9 39.1,80.9 39.1,80.9 36.3,87.4 36.3,87.4 36.3,87.4 
						36.3,87.4 36.3,87.4 					"/>
				</g>
			</g>
			<g class="st0">
				<defs>
					<path id="SVGID_00000049901020594621820850000006520446172672904064_" class="st0" d="M32,84.7l3.6-6c0,0,0.1,0,0.1,0.1
						s0.1,0.1,0.1,0.1s0.1,0.1,0.1,0.1c0,0,0.1,0.1,0.1,0.1l-3.5,6.1c0,0-0.1-0.1-0.1-0.1c0,0-0.1-0.1-0.1-0.1s-0.1-0.1-0.1-0.1
						C32,84.8,32,84.8,32,84.7z"/>
				</defs>
				<clipPath id="SVGID_00000163783534758083413070000004113821813492313491_">
					<use xlink:href="#SVGID_00000049901020594621820850000006520446172672904064_"  style="overflow:visible;"/>
				</clipPath>
				<g style="clip-path:url(#SVGID_00000163783534758083413070000004113821813492313491_);enable-background:new    ;">
					<polyline class="st9" points="32,84.7 35.5,78.7 35.5,78.7 35.5,78.7 35.5,78.7 35.5,78.7 32,84.8 32,84.8 32,84.8 32,84.8 
						32,84.7 					"/>
					<path class="st8" d="M32,84.8l3.5-6c0,0,0.1,0,0.1,0.1c0,0,0.1,0.1,0.1,0.1c0,0,0.1,0.1,0.1,0.1s0.1,0.1,0.1,0.1l-3.5,6.1
						c0,0-0.1-0.1-0.1-0.1c0,0-0.1-0.1-0.1-0.1c0,0-0.1-0.1-0.1-0.1C32.1,84.8,32,84.8,32,84.8"/>
				</g>
			</g>
			<g class="st0">
				<defs>
					<path id="SVGID_00000087378940646996721570000007815243914869746594_" class="st0" d="M30.2,80.8l3.9-5.3
						c0.1,0.3,0.1,0.6,0.2,0.8s0.2,0.6,0.3,0.9c0.1,0.3,0.2,0.6,0.4,0.8s0.3,0.5,0.5,0.7l-3.6,6c-0.2-0.2-0.4-0.5-0.6-0.8
						c-0.2-0.3-0.3-0.6-0.5-1s-0.3-0.7-0.4-1.1S30.3,81.2,30.2,80.8z"/>
				</defs>
				<clipPath id="SVGID_00000006696765787579422820000000961718073967599519_">
					<use xlink:href="#SVGID_00000087378940646996721570000007815243914869746594_"  style="overflow:visible;"/>
				</clipPath>
				<g style="clip-path:url(#SVGID_00000006696765787579422820000000961718073967599519_);enable-background:new    ;">
					<path class="st9" d="M30.2,80.8l3.9-5.3c0,0.1,0.1,0.3,0.1,0.4c0,0.1,0.1,0.3,0.1,0.5c0,0.2,0.1,0.3,0.1,0.5
						c0.1,0.2,0.1,0.3,0.2,0.5L30.9,83c-0.1-0.2-0.1-0.4-0.2-0.5c-0.1-0.2-0.1-0.4-0.2-0.6c-0.1-0.2-0.1-0.4-0.2-0.5
						C30.3,81.2,30.3,81,30.2,80.8"/>
					<path class="st8" d="M30.9,83l3.7-5.7c0.1,0.1,0.1,0.3,0.2,0.4c0.1,0.1,0.1,0.3,0.2,0.4c0.1,0.1,0.1,0.2,0.2,0.3
						c0.1,0.1,0.2,0.2,0.3,0.3l-3.6,6c-0.1-0.1-0.2-0.2-0.3-0.4c-0.1-0.1-0.2-0.3-0.3-0.4s-0.2-0.3-0.2-0.5
						C31.1,83.3,31,83.2,30.9,83"/>
				</g>
			</g>
			<g class="st0">
				<defs>
					<path id="SVGID_00000174594091181663158090000005604057065715967165_" class="st0" d="M52.2,72.2l-0.1,4.7c0,0.2,0,0.5,0,0.7
						c0,0.2,0,0.5-0.1,0.8c0,0.3-0.1,0.5-0.1,0.8c-0.1,0.3-0.1,0.5-0.2,0.8c0,0.2-0.1,0.4-0.2,0.6c-0.1,0.2-0.1,0.4-0.2,0.6
						c-0.1,0.2-0.2,0.4-0.2,0.6s-0.2,0.4-0.3,0.6l0.3-5.6c0.1-0.2,0.1-0.3,0.2-0.5c0.1-0.2,0.1-0.3,0.2-0.5s0.1-0.3,0.2-0.5
						c0.1-0.2,0.1-0.3,0.1-0.5c0.1-0.2,0.1-0.5,0.2-0.7c0-0.2,0.1-0.4,0.1-0.7s0.1-0.4,0.1-0.6C52.2,72.6,52.2,72.4,52.2,72.2z"/>
				</defs>
				<clipPath id="SVGID_00000126325079497616191440000003332297583136000161_">
					<use xlink:href="#SVGID_00000174594091181663158090000005604057065715967165_"  style="overflow:visible;"/>
				</clipPath>
				<g style="clip-path:url(#SVGID_00000126325079497616191440000003332297583136000161_);enable-background:new    ;">
					<path class="st2" d="M50.8,82.3l0.3-5.6c0.1-0.2,0.1-0.3,0.2-0.5c0.1-0.2,0.1-0.3,0.2-0.5s0.1-0.3,0.2-0.5
						c0.1-0.2,0.1-0.3,0.1-0.5c0.1-0.2,0.1-0.5,0.2-0.7c0-0.2,0.1-0.4,0.1-0.7s0.1-0.4,0.1-0.6c0-0.2,0-0.4,0-0.6l-0.1,4.7
						c0,0.2,0,0.5,0,0.7c0,0.2,0,0.5-0.1,0.8c0,0.3-0.1,0.5-0.1,0.8c-0.1,0.3-0.1,0.5-0.2,0.8c0,0.2-0.1,0.4-0.2,0.6
						c-0.1,0.2-0.1,0.4-0.2,0.6c-0.1,0.2-0.2,0.4-0.2,0.6S50.9,82,50.8,82.3"/>
				</g>
			</g>
			<g class="st0">
				<defs>
					<path id="SVGID_00000096762120968786809960000014919416183696225437_" class="st0" d="M51.5,73.2l0.2-4
						c0.1,0.1,0.2,0.2,0.3,0.2c0.1,0.1,0.2,0.2,0.3,0.2c0.1,0.1,0.2,0.2,0.3,0.2c0.1,0.1,0.2,0.2,0.3,0.3c0.2,0.2,0.4,0.5,0.6,0.7
						c0.2,0.2,0.4,0.5,0.5,0.8c0.2,0.3,0.3,0.5,0.5,0.8s0.3,0.6,0.4,0.9l0.5,4.9c-0.1-0.4-0.3-0.7-0.4-1.1c-0.2-0.3-0.3-0.7-0.5-1
						c-0.2-0.3-0.4-0.6-0.7-0.9c-0.2-0.3-0.5-0.6-0.8-0.9c-0.1-0.1-0.2-0.2-0.3-0.3c-0.1-0.1-0.2-0.2-0.4-0.3s-0.2-0.2-0.4-0.3
						C51.7,73.4,51.6,73.3,51.5,73.2z"/>
				</defs>
				<clipPath id="SVGID_00000090985086241258012390000000362659539004369026_">
					<use xlink:href="#SVGID_00000096762120968786809960000014919416183696225437_"  style="overflow:visible;"/>
				</clipPath>
				<g style="clip-path:url(#SVGID_00000090985086241258012390000000362659539004369026_);enable-background:new    ;">
					<path class="st8" d="M51.5,73.2l0.2-4c0.1,0.1,0.2,0.2,0.3,0.2c0.1,0.1,0.2,0.2,0.3,0.2c0.1,0.1,0.2,0.2,0.3,0.2
						c0.1,0.1,0.2,0.2,0.3,0.3c0.2,0.2,0.4,0.4,0.6,0.6c0.2,0.2,0.3,0.4,0.5,0.7c0.2,0.2,0.3,0.5,0.4,0.7c0.1,0.2,0.2,0.5,0.4,0.8
						l0.5,4.8c-0.1-0.3-0.3-0.6-0.4-0.9c-0.2-0.3-0.3-0.6-0.5-0.9c-0.2-0.3-0.4-0.6-0.6-0.8c-0.2-0.3-0.4-0.5-0.7-0.8
						c-0.1-0.1-0.2-0.2-0.3-0.3c-0.1-0.1-0.2-0.2-0.4-0.3s-0.2-0.2-0.4-0.3C51.7,73.4,51.6,73.3,51.5,73.2"/>
					<path class="st9" d="M55.1,77.8L54.6,73c0,0,0,0.1,0,0.1c0,0,0,0.1,0,0.1c0,0,0,0.1,0,0.1s0,0.1,0,0.1l0.5,4.9c0,0,0-0.1,0-0.1
						s0-0.1,0-0.1c0,0,0-0.1,0-0.1S55.1,77.8,55.1,77.8"/>
				</g>
			</g>
			<g class="st0">
				<defs>
					<path id="SVGID_00000158030970674664996880000017744689051496739462_" class="st0" d="M18,69l6-3.3c0.5,0.5,0.9,1,1.3,1.5
						s0.7,1.1,0.9,1.7c0.2,0.6,0.4,1.3,0.5,2s0.2,1.4,0.1,2.2c0,0.5,0,0.9,0,1.4c0,0.4,0.1,0.9,0.2,1.3c0.1,0.4,0.2,0.8,0.4,1.2
						c0.2,0.4,0.3,0.8,0.6,1.1c0.2,0.2,0.3,0.4,0.5,0.6c0.2,0.2,0.4,0.4,0.6,0.6c0.2,0.2,0.4,0.3,0.7,0.5c0.2,0.1,0.5,0.3,0.8,0.3
						l-4.6,6.3c-0.3-0.1-0.6-0.3-0.9-0.4c-0.3-0.2-0.6-0.3-0.8-0.5c-0.3-0.2-0.5-0.4-0.7-0.7c-0.2-0.2-0.4-0.5-0.6-0.8
						c-0.3-0.4-0.5-0.9-0.7-1.3c-0.2-0.5-0.3-1-0.4-1.5c-0.1-0.5-0.2-1-0.2-1.6c0-0.5,0-1.1,0-1.7c0-0.9,0-1.8-0.2-2.7
						S21,73.7,20.7,73c-0.3-0.8-0.7-1.5-1.1-2.1S18.6,69.6,18,69z"/>
				</defs>
				<clipPath id="SVGID_00000108278817616966772640000011514920158226357136_">
					<use xlink:href="#SVGID_00000158030970674664996880000017744689051496739462_"  style="overflow:visible;"/>
				</clipPath>
				<g style="clip-path:url(#SVGID_00000108278817616966772640000011514920158226357136_);enable-background:new    ;">
					<path class="st8" d="M18,69l6-3.3c0.2,0.2,0.5,0.4,0.7,0.7c0.2,0.2,0.4,0.5,0.6,0.7c0.2,0.3,0.3,0.5,0.5,0.8
						c0.1,0.3,0.3,0.6,0.4,0.8l-5.5,3.9c-0.1-0.4-0.3-0.7-0.5-1c-0.2-0.3-0.4-0.6-0.6-1c-0.2-0.3-0.4-0.6-0.7-0.9
						C18.6,69.6,18.3,69.3,18,69"/>
					<path class="st9" d="M20.6,72.7l5.5-3.9c0.1,0.1,0.1,0.3,0.2,0.4s0.1,0.3,0.1,0.5c0,0.2,0.1,0.3,0.1,0.5c0,0.2,0.1,0.3,0.1,0.5
						L21.3,75c0-0.2-0.1-0.4-0.1-0.6c0-0.2-0.1-0.4-0.2-0.6c-0.1-0.2-0.1-0.4-0.2-0.6S20.7,72.9,20.6,72.7"/>
					<path class="st10" d="M21.3,75l5.4-4.3c0,0.1,0.1,0.3,0.1,0.5c0,0.2,0,0.3,0.1,0.5s0,0.3,0,0.5c0,0.2,0,0.3,0,0.5l-5.4,4.7
						c0-0.2,0-0.4,0-0.6c0-0.2,0-0.4,0-0.6s0-0.4-0.1-0.6C21.3,75.4,21.3,75.2,21.3,75"/>
					<path class="st11" d="M21.5,77.3l5.4-4.7c0,0.1,0,0.1,0,0.2c0,0.1,0,0.1,0,0.2s0,0.1,0,0.2c0,0.1,0,0.1,0,0.2
						c0,0.1,0,0.1,0,0.2c0,0.1,0,0.1,0,0.2s0,0.1,0,0.2c0,0.1,0,0.1,0,0.2l-5.4,5c0-0.1,0-0.1,0-0.2c0-0.1,0-0.1,0-0.2
						c0-0.1,0-0.1,0-0.2c0-0.1,0-0.1,0-0.2c0-0.1,0-0.1,0-0.2c0-0.1,0-0.1,0-0.2c0-0.1,0-0.1,0-0.2C21.5,77.4,21.5,77.3,21.5,77.3"
						/>
					<path class="st10" d="M21.5,78.9l5.4-5c0,0.2,0,0.3,0,0.5s0,0.3,0,0.5c0,0.2,0,0.3,0.1,0.4c0,0.1,0,0.3,0.1,0.4l-5.3,5.4
						c0-0.2-0.1-0.4-0.1-0.5c0-0.2,0-0.4-0.1-0.5c0-0.2,0-0.4,0-0.6C21.5,79.3,21.5,79.1,21.5,78.9"/>
					<path class="st9" d="M21.7,81.1l5.3-5.4c0,0.1,0.1,0.3,0.1,0.4c0,0.1,0.1,0.2,0.1,0.4s0.1,0.2,0.1,0.4s0.1,0.2,0.1,0.4
						l-5.2,5.7c-0.1-0.1-0.1-0.3-0.2-0.4s-0.1-0.3-0.1-0.4c0-0.1-0.1-0.3-0.1-0.4C21.8,81.4,21.7,81.3,21.7,81.1"/>
					<path class="st8" d="M22.2,82.9l5.2-5.7c0,0.1,0.1,0.2,0.1,0.3c0,0.1,0.1,0.2,0.1,0.3s0.1,0.2,0.1,0.2c0,0.1,0.1,0.2,0.1,0.2
						c0.1,0.2,0.2,0.3,0.3,0.4c0.1,0.1,0.2,0.3,0.4,0.4c0.1,0.1,0.3,0.2,0.4,0.4c0.1,0.1,0.3,0.2,0.5,0.3L24.7,86
						c-0.2-0.1-0.4-0.2-0.5-0.4c-0.2-0.1-0.3-0.3-0.5-0.4c-0.2-0.2-0.3-0.3-0.4-0.5c-0.1-0.2-0.3-0.4-0.4-0.5
						c-0.1-0.1-0.1-0.2-0.2-0.3c-0.1-0.1-0.1-0.2-0.2-0.3s-0.1-0.2-0.2-0.3S22.2,83,22.2,82.9"/>
					<path class="st9" d="M24.7,86l4.8-6.2c0.1,0,0.1,0.1,0.2,0.1c0.1,0,0.2,0.1,0.2,0.1c0.1,0,0.2,0.1,0.2,0.1
						c0.1,0,0.2,0.1,0.3,0.1l-4.6,6.3c-0.1,0-0.2-0.1-0.3-0.1c-0.1,0-0.2-0.1-0.3-0.1c-0.1,0-0.2-0.1-0.3-0.1S24.8,86,24.7,86"/>
					<polyline class="st10" points="25.9,86.5 30.5,80.2 30.5,80.2 30.5,80.2 30.5,80.2 30.5,80.2 25.9,86.5 25.9,86.5 25.9,86.5 
						25.9,86.5 25.9,86.5 					"/>
				</g>
			</g>
			<g class="st0">
				<defs>
					<path id="SVGID_00000178888070691511537620000011953625144512256417_" class="st0" d="M16.5,67.9l6.2-3.1
						c0.1,0,0.1,0.1,0.2,0.1S23,65,23.1,65s0.1,0.1,0.2,0.1c0.1,0,0.1,0.1,0.2,0.1c0.1,0,0.1,0.1,0.2,0.1c0.1,0,0.1,0.1,0.2,0.1
						c0,0,0.1,0.1,0.1,0.1s0.1,0.1,0.1,0.1L18,69c-0.1-0.1-0.1-0.1-0.2-0.2c-0.1,0-0.1-0.1-0.2-0.1c-0.1,0-0.1-0.1-0.2-0.1
						c-0.1,0-0.1-0.1-0.2-0.1c-0.1,0-0.1-0.1-0.2-0.1s-0.1-0.1-0.2-0.1c-0.1,0-0.1-0.1-0.2-0.1S16.6,68,16.5,67.9z"/>
				</defs>
				<clipPath id="SVGID_00000051377937766689864450000013396100777116793751_">
					<use xlink:href="#SVGID_00000178888070691511537620000011953625144512256417_"  style="overflow:visible;"/>
				</clipPath>
				<g style="clip-path:url(#SVGID_00000051377937766689864450000013396100777116793751_);enable-background:new    ;">
					<path class="st8" d="M16.5,67.9l6.2-3.1c0.1,0,0.1,0.1,0.2,0.1S23,65,23.1,65s0.1,0.1,0.2,0.1c0.1,0,0.1,0.1,0.2,0.1
						c0.1,0,0.1,0.1,0.2,0.1c0.1,0,0.1,0.1,0.2,0.1c0,0,0.1,0.1,0.1,0.1s0.1,0.1,0.1,0.1L18,69c-0.1-0.1-0.1-0.1-0.2-0.2
						c-0.1,0-0.1-0.1-0.2-0.1c-0.1,0-0.1-0.1-0.2-0.1c-0.1,0-0.1-0.1-0.2-0.1c-0.1,0-0.1-0.1-0.2-0.1s-0.1-0.1-0.2-0.1
						c-0.1,0-0.1-0.1-0.2-0.1S16.6,68,16.5,67.9"/>
				</g>
			</g>
			<g>
				<path class="st18" d="M16.5,67.9c0.1,0,0.1,0.1,0.2,0.1s0.1,0.1,0.2,0.1c0.1,0,0.1,0.1,0.2,0.1s0.1,0.1,0.2,0.1
					c0.1,0,0.1,0.1,0.2,0.1c0.1,0,0.1,0.1,0.2,0.1c0.1,0,0.1,0.1,0.2,0.1c0.1,0,0.1,0.1,0.2,0.2c0.6,0.6,1.1,1.2,1.6,1.8
					s0.8,1.4,1.1,2.1c0.3,0.8,0.5,1.6,0.6,2.4s0.2,1.7,0.2,2.7c0,0.6,0,1.1,0,1.7c0,0.5,0.1,1.1,0.2,1.6c0.1,0.5,0.2,1,0.4,1.5
					c0.2,0.5,0.4,0.9,0.7,1.3c0.2,0.3,0.4,0.5,0.6,0.8c0.2,0.2,0.4,0.5,0.7,0.7c0.3,0.2,0.5,0.4,0.8,0.5c0.3,0.2,0.6,0.3,0.9,0.4
					c-0.1,0-0.2,0-0.3,0c-0.1,0-0.2,0-0.3,0s-0.2,0-0.3,0c-0.1,0-0.2,0-0.3,0c-0.9,0-1.8-0.1-2.7-0.2c-0.8-0.2-1.6-0.4-2.3-0.8
					c-0.7-0.4-1.3-0.8-1.8-1.4c-0.5-0.6-0.9-1.3-1.2-2.2c-0.1-0.2-0.1-0.4-0.2-0.6s-0.1-0.4-0.1-0.6c0-0.2,0-0.4-0.1-0.6
					s0-0.4,0-0.6c0-1,0-1.9,0.1-2.9c0-1,0.1-1.9,0.1-2.9c0-1,0.1-2,0.1-2.9S16.5,68.9,16.5,67.9z"/>
			</g>
			<g class="st0">
				<defs>
					<path id="SVGID_00000003803596670220987700000000483954957144574359_" class="st0" d="M19.6,60.4l5.7-1.8
						c-0.2,0.1-0.4,0.1-0.5,0.2c-0.2,0.1-0.4,0.2-0.5,0.2c-0.2,0.1-0.4,0.2-0.5,0.3c-0.2,0.1-0.3,0.2-0.5,0.3l-6.1,2
						c0.2-0.1,0.4-0.3,0.6-0.4c0.2-0.1,0.4-0.2,0.6-0.4c0.2-0.1,0.4-0.2,0.7-0.3C19.2,60.5,19.4,60.5,19.6,60.4z"/>
				</defs>
				<clipPath id="SVGID_00000078011238275556610660000017829429747814790039_">
					<use xlink:href="#SVGID_00000003803596670220987700000000483954957144574359_"  style="overflow:visible;"/>
				</clipPath>
				<g style="clip-path:url(#SVGID_00000078011238275556610660000017829429747814790039_);enable-background:new    ;">
					<path class="st2" d="M19.6,60.4l5.7-1.8c-0.2,0.1-0.4,0.1-0.5,0.2c-0.2,0.1-0.4,0.2-0.5,0.2c-0.2,0.1-0.4,0.2-0.5,0.3
						c-0.2,0.1-0.3,0.2-0.5,0.3l-6.1,2c0.2-0.1,0.4-0.3,0.6-0.4c0.2-0.1,0.4-0.2,0.6-0.4c0.2-0.1,0.4-0.2,0.7-0.3
						C19.2,60.5,19.4,60.5,19.6,60.4"/>
				</g>
			</g>
			<g class="st0">
				<defs>
					<path id="SVGID_00000041979855958559606870000001126002564132942520_" class="st0" d="M79.5,67.5l-4.7-3
						c0.6-0.6,1.2-1.3,1.8-1.9c0.6-0.6,1.2-1.3,1.8-1.9c0.6-0.6,1.2-1.3,1.8-1.9c0.6-0.6,1.2-1.3,1.8-1.9l6.2,1.4
						c-0.7,0.8-1.5,1.6-2.2,2.3s-1.5,1.6-2.2,2.3c-0.7,0.8-1.5,1.6-2.2,2.3C81,65.9,80.3,66.7,79.5,67.5z"/>
				</defs>
				<clipPath id="SVGID_00000029033490524591961450000015122302918336725660_">
					<use xlink:href="#SVGID_00000041979855958559606870000001126002564132942520_"  style="overflow:visible;"/>
				</clipPath>
				<g style="clip-path:url(#SVGID_00000029033490524591961450000015122302918336725660_);enable-background:new    ;">
					<path class="st2" d="M79.5,67.5l-4.7-3c0.6-0.6,1.2-1.3,1.8-1.9c0.6-0.6,1.2-1.3,1.8-1.9c0.6-0.6,1.2-1.3,1.8-1.9
						c0.6-0.6,1.2-1.3,1.8-1.9l6.2,1.4c-0.7,0.8-1.5,1.6-2.2,2.3s-1.5,1.6-2.2,2.3c-0.7,0.8-1.5,1.6-2.2,2.3
						C81,65.9,80.3,66.7,79.5,67.5"/>
				</g>
			</g>
			<g class="st0">
				<defs>
					<path id="SVGID_00000165231335265201670260000014486742186467487132_" class="st0" d="M22.4,39l5.2,1.9c0.3,0.8,0.7,1.5,1,2.3
						s0.7,1.5,1,2.2c0.3,0.7,0.7,1.5,1,2.3c0.3,0.8,0.7,1.5,1.1,2.3l-4.3,0c-0.4-0.9-0.9-1.9-1.3-2.8c-0.4-0.9-0.8-1.8-1.3-2.7
						s-0.8-1.8-1.2-2.7C23.3,40.8,22.9,39.9,22.4,39z"/>
				</defs>
				<clipPath id="SVGID_00000003796259392620985240000013827975634736540819_">
					<use xlink:href="#SVGID_00000165231335265201670260000014486742186467487132_"  style="overflow:visible;"/>
				</clipPath>
				<g style="clip-path:url(#SVGID_00000003796259392620985240000013827975634736540819_);enable-background:new    ;">
					<path class="st8" d="M22.4,39l5.2,1.9c0.3,0.8,0.7,1.5,1,2.3s0.7,1.5,1,2.2c0.3,0.7,0.7,1.5,1,2.3c0.3,0.8,0.7,1.5,1.1,2.3
						l-4.3,0c-0.4-0.9-0.9-1.9-1.3-2.8c-0.4-0.9-0.8-1.8-1.3-2.7s-0.8-1.8-1.2-2.7C23.3,40.8,22.9,39.9,22.4,39"/>
				</g>
			</g>
			<g class="st0">
				<defs>
					<path id="SVGID_00000080198024968462744400000002169906396860215699_" class="st0" d="M60.1,36.3l-1.3,2.4
						c0.4-0.8,0.8-1.6,1.2-2.4c0.4-0.8,0.7-1.6,1-2.5c0.3-0.8,0.5-1.7,0.7-2.6s0.3-1.8,0.4-2.7c0.1-0.7,0.1-1.3,0.1-2
						c0-0.7,0-1.3-0.1-1.9c-0.1-0.6-0.2-1.3-0.3-1.9c-0.1-0.6-0.3-1.3-0.5-1.9l1.9-6.1c0.2,0.8,0.5,1.5,0.6,2.3
						c0.2,0.8,0.3,1.5,0.4,2.3c0.1,0.8,0.1,1.6,0.1,2.3c0,0.8,0,1.6-0.1,2.4c-0.1,1.1-0.3,2.2-0.5,3.3c-0.2,1.1-0.5,2.1-0.9,3.1
						c-0.4,1-0.8,2-1.2,3C61.2,34.4,60.7,35.4,60.1,36.3z"/>
				</defs>
				<clipPath id="SVGID_00000039838818936230383910000000738929075547386267_">
					<use xlink:href="#SVGID_00000080198024968462744400000002169906396860215699_"  style="overflow:visible;"/>
				</clipPath>
				<g style="clip-path:url(#SVGID_00000039838818936230383910000000738929075547386267_);enable-background:new    ;">
					<path class="st2" d="M60.1,36.3l-1.3,2.4c0.4-0.8,0.8-1.6,1.2-2.4c0.4-0.8,0.7-1.6,1-2.5c0.3-0.8,0.5-1.7,0.7-2.6
						s0.3-1.8,0.4-2.7c0.1-0.7,0.1-1.3,0.1-2c0-0.7,0-1.3-0.1-1.9c-0.1-0.6-0.2-1.3-0.3-1.9c-0.1-0.6-0.3-1.3-0.5-1.9l1.9-6.1
						c0.2,0.8,0.5,1.5,0.6,2.3c0.2,0.8,0.3,1.5,0.4,2.3c0.1,0.8,0.1,1.6,0.1,2.3c0,0.8,0,1.6-0.1,2.4c-0.1,1.1-0.3,2.2-0.5,3.3
						c-0.2,1.1-0.5,2.1-0.9,3.1c-0.4,1-0.8,2-1.2,3C61.2,34.4,60.7,35.4,60.1,36.3"/>
				</g>
			</g>
			<g class="st0">
				<defs>
					<path id="SVGID_00000056408181594598536310000011921568784985780396_" class="st0" d="M58.1,39.8l1.2-2.1
						c-0.9,1.6-1.7,3.3-2.3,5c-0.6,1.7-1.2,3.4-1.6,5.2c-0.4,1.8-0.7,3.6-0.8,5.4s-0.1,3.7,0,5.7c0,0.4,0.1,0.8,0.1,1.1
						c0,0.4,0.1,0.8,0.1,1.1c0.1,0.4,0.1,0.7,0.2,1.1c0.1,0.4,0.1,0.7,0.2,1.1l-0.5-2.3c0-0.3-0.1-0.6-0.1-0.9
						c0-0.3-0.1-0.6-0.1-0.9c0-0.3-0.1-0.6-0.1-0.9s-0.1-0.6-0.1-0.9c-0.1-1.6-0.1-3.2,0-4.7c0.1-1.5,0.3-3,0.7-4.5
						c0.3-1.5,0.8-2.9,1.3-4.3C56.8,42.5,57.4,41.2,58.1,39.8z"/>
				</defs>
				<clipPath id="SVGID_00000046333990315837135520000003743547855359425679_">
					<use xlink:href="#SVGID_00000056408181594598536310000011921568784985780396_"  style="overflow:visible;"/>
				</clipPath>
				<g style="clip-path:url(#SVGID_00000046333990315837135520000003743547855359425679_);enable-background:new    ;">
					<path class="st2" d="M55.2,63.5l-0.5-2.3c0-0.3-0.1-0.6-0.1-0.9c0-0.3-0.1-0.6-0.1-0.9c0-0.3-0.1-0.6-0.1-0.9s-0.1-0.6-0.1-0.9
						c-0.1-1.6-0.1-3.2,0-4.7c0.1-1.5,0.3-3,0.7-4.5c0.3-1.5,0.8-2.9,1.3-4.3c0.5-1.4,1.2-2.8,1.9-4.1l1.2-2.1
						c-0.9,1.6-1.7,3.3-2.3,5c-0.6,1.7-1.2,3.4-1.6,5.2c-0.4,1.8-0.7,3.6-0.8,5.4s-0.1,3.7,0,5.7c0,0.4,0.1,0.8,0.1,1.1
						c0,0.4,0.1,0.8,0.1,1.1c0.1,0.4,0.1,0.7,0.2,1.1C55.1,62.7,55.2,63.1,55.2,63.5"/>
				</g>
			</g>
			<g class="st0">
				<defs>
					<path id="SVGID_00000087397690797969105090000007889934584396618686_" class="st0" d="M84.5,47.6L79,48
						c0.1-0.4,0.1-0.8,0.1-1.2c0-0.4,0-0.8,0-1.2c0-0.4-0.1-0.8-0.1-1.2c-0.1-0.4-0.1-0.8-0.2-1.2c-0.2-0.6-0.3-1.2-0.6-1.8
						c-0.2-0.6-0.5-1.1-0.8-1.7c-0.3-0.5-0.6-1.1-1-1.6c-0.3-0.5-0.7-1-1.1-1.5c-0.6-0.8-1.2-1.6-1.7-2.5c-0.5-0.9-1-1.7-1.3-2.7
						c-0.4-0.9-0.7-1.9-0.9-2.9c-0.2-1-0.4-2-0.5-3.1c0-0.2,0-0.4,0-0.6c0-0.2,0-0.4,0-0.6c0-0.2,0-0.4,0-0.6c0-0.2,0-0.4,0-0.6
						l3.9-5.6c0,0.2,0,0.5,0,0.7s0,0.5,0,0.7c0,0.2,0,0.5,0,0.7c0,0.2,0,0.5,0,0.7c0.1,1.3,0.3,2.5,0.6,3.7c0.3,1.2,0.7,2.4,1.1,3.5
						c0.5,1.1,1,2.2,1.6,3.2c0.6,1,1.3,2,2.1,3c0.5,0.6,0.9,1.2,1.3,1.8c0.4,0.6,0.8,1.2,1.2,1.9c0.4,0.6,0.7,1.3,0.9,2
						c0.3,0.7,0.5,1.4,0.7,2.2c0.1,0.5,0.2,1,0.3,1.5s0.1,1,0.1,1.5c0,0.5,0,1,0,1.5C84.7,46.6,84.6,47.1,84.5,47.6z"/>
				</defs>
				<clipPath id="SVGID_00000060717679272643603920000013551542657993212841_">
					<use xlink:href="#SVGID_00000087397690797969105090000007889934584396618686_"  style="overflow:visible;"/>
				</clipPath>
				<g style="clip-path:url(#SVGID_00000060717679272643603920000013551542657993212841_);enable-background:new    ;">
					<path class="st2" d="M84.5,47.6L79,48c0.1-0.4,0.1-0.8,0.1-1.2c0-0.4,0-0.8,0-1.2c0-0.4-0.1-0.8-0.1-1.2
						c-0.1-0.4-0.1-0.8-0.2-1.2c-0.2-0.6-0.3-1.2-0.6-1.8c-0.2-0.6-0.5-1.1-0.8-1.7c-0.3-0.5-0.6-1.1-1-1.6c-0.3-0.5-0.7-1-1.1-1.5
						c-0.6-0.8-1.2-1.6-1.7-2.5c-0.5-0.9-1-1.7-1.3-2.7c-0.4-0.9-0.7-1.9-0.9-2.9c-0.2-1-0.4-2-0.5-3.1c0-0.2,0-0.4,0-0.6
						c0-0.2,0-0.4,0-0.6c0-0.2,0-0.4,0-0.6c0-0.2,0-0.4,0-0.6l3.9-5.6c0,0.2,0,0.5,0,0.7s0,0.5,0,0.7c0,0.2,0,0.5,0,0.7
						c0,0.2,0,0.5,0,0.7c0.1,1.3,0.3,2.5,0.6,3.7c0.3,1.2,0.7,2.4,1.1,3.5c0.5,1.1,1,2.2,1.6,3.2c0.6,1,1.3,2,2.1,3
						c0.5,0.6,0.9,1.2,1.3,1.8c0.4,0.6,0.8,1.2,1.2,1.9c0.4,0.6,0.7,1.3,0.9,2c0.3,0.7,0.5,1.4,0.7,2.2c0.1,0.5,0.2,1,0.3,1.5
						s0.1,1,0.1,1.5c0,0.5,0,1,0,1.5C84.7,46.6,84.6,47.1,84.5,47.6"/>
				</g>
			</g>
			<g class="st0">
				<defs>
					<path id="SVGID_00000068643236625407337830000012805862163017803158_" class="st0" d="M55.3,78.3l-0.5-4.9
						c0.1-0.7,0.3-1.4,0.4-2.1c0.2-0.7,0.4-1.4,0.6-2c0.2-0.7,0.4-1.3,0.7-2c0.2-0.7,0.5-1.3,0.8-2c0.4-0.9,0.8-1.7,1.3-2.5
						c0.5-0.8,1-1.5,1.6-2.2c0.6-0.7,1.2-1.4,1.9-2s1.4-1.2,2.2-1.7c1-0.7,1.8-1.4,2.6-2.2c0.7-0.8,1.4-1.7,1.9-2.6s1-1.9,1.3-3
						c0.3-1.1,0.6-2.2,0.7-3.3c0.1-0.7,0.2-1.4,0.2-2.2c0-0.7,0-1.4,0-2.1c0-0.7-0.1-1.4-0.2-2.1s-0.2-1.4-0.4-2.1l3.8-2.7
						c0.2,0.9,0.3,1.7,0.4,2.6c0.1,0.9,0.2,1.7,0.2,2.6c0,0.9,0,1.7,0,2.6c0,0.9-0.1,1.7-0.2,2.6c-0.2,1.4-0.5,2.7-0.9,4
						s-0.9,2.5-1.6,3.6c-0.6,1.1-1.4,2.2-2.3,3.2s-1.9,1.9-3.1,2.7c-0.9,0.6-1.8,1.3-2.6,2.1s-1.6,1.6-2.2,2.4
						c-0.7,0.9-1.3,1.8-1.9,2.7c-0.6,0.9-1.1,1.9-1.5,3c-0.4,0.8-0.7,1.6-1,2.4c-0.3,0.8-0.6,1.6-0.8,2.4s-0.5,1.6-0.7,2.5
						C55.6,76.6,55.5,77.5,55.3,78.3z"/>
				</defs>
				<clipPath id="SVGID_00000103256496433036273500000011797110983107265182_">
					<use xlink:href="#SVGID_00000068643236625407337830000012805862163017803158_"  style="overflow:visible;"/>
				</clipPath>
				<g style="clip-path:url(#SVGID_00000103256496433036273500000011797110983107265182_);enable-background:new    ;">
					<path class="st2" d="M55.3,78.3l-0.5-4.9c0.1-0.7,0.3-1.4,0.4-2.1c0.2-0.7,0.4-1.4,0.6-2c0.2-0.7,0.4-1.3,0.7-2
						c0.2-0.7,0.5-1.3,0.8-2c0.4-0.9,0.8-1.7,1.3-2.5c0.5-0.8,1-1.5,1.6-2.2c0.6-0.7,1.2-1.4,1.9-2s1.4-1.2,2.2-1.7
						c1-0.7,1.8-1.4,2.6-2.2c0.7-0.8,1.4-1.7,1.9-2.6s1-1.9,1.3-3c0.3-1.1,0.6-2.2,0.7-3.3c0.1-0.7,0.2-1.4,0.2-2.2
						c0-0.7,0-1.4,0-2.1c0-0.7-0.1-1.4-0.2-2.1s-0.2-1.4-0.4-2.1l3.8-2.7c0.2,0.9,0.3,1.7,0.4,2.6c0.1,0.9,0.2,1.7,0.2,2.6
						c0,0.9,0,1.7,0,2.6c0,0.9-0.1,1.7-0.2,2.6c-0.2,1.4-0.5,2.7-0.9,4s-0.9,2.5-1.6,3.6c-0.6,1.1-1.4,2.2-2.3,3.2s-1.9,1.9-3.1,2.7
						c-0.9,0.6-1.8,1.3-2.6,2.1s-1.6,1.6-2.2,2.4c-0.7,0.9-1.3,1.8-1.9,2.7c-0.6,0.9-1.1,1.9-1.5,3c-0.4,0.8-0.7,1.6-1,2.4
						c-0.3,0.8-0.6,1.6-0.8,2.4s-0.5,1.6-0.7,2.5C55.6,76.6,55.5,77.5,55.3,78.3"/>
				</g>
			</g>
			<g class="st0">
				<defs>
					<path id="SVGID_00000085252747280047954500000004752895367876776339_" class="st0" d="M74.1,34.4l-3.8,2.7c0-0.1,0-0.1,0-0.2
						c0-0.1,0-0.1,0-0.2s0-0.1,0-0.2s0-0.1,0-0.2l3.8-2.8c0,0.1,0,0.2,0,0.2s0,0.1,0,0.2c0,0.1,0,0.1,0,0.2
						C74.1,34.3,74.1,34.4,74.1,34.4z"/>
				</defs>
				<clipPath id="SVGID_00000170239364962234371980000012636280308919885242_">
					<use xlink:href="#SVGID_00000085252747280047954500000004752895367876776339_"  style="overflow:visible;"/>
				</clipPath>
				<g style="clip-path:url(#SVGID_00000170239364962234371980000012636280308919885242_);enable-background:new    ;">
					<path class="st2" d="M74.1,34.4l-3.8,2.7c0-0.1,0-0.1,0-0.2c0-0.1,0-0.1,0-0.2s0-0.1,0-0.2s0-0.1,0-0.2l3.8-2.8
						c0,0.1,0,0.2,0,0.2s0,0.1,0,0.2c0,0.1,0,0.1,0,0.2C74.1,34.3,74.1,34.4,74.1,34.4"/>
				</g>
			</g>
			<g class="st0">
				<defs>
					<path id="SVGID_00000030457153018900871090000005623594717335671215_" class="st0" d="M56.9,26.4l-0.8,4.1
						c-0.1,0.8-0.3,1.5-0.5,2.2c-0.2,0.7-0.4,1.5-0.7,2.2c-0.3,0.7-0.5,1.4-0.8,2.2c-0.3,0.7-0.6,1.4-1,2.1
						c-0.6,1.2-1.1,2.4-1.6,3.6c-0.5,1.2-0.9,2.4-1.4,3.7s-0.8,2.5-1.1,3.7c-0.3,1.3-0.5,2.6-0.7,3.9c-0.1,1-0.2,2-0.3,3.1
						c-0.1,1-0.1,2-0.1,3.1s0,2,0.1,3.1s0.2,2,0.3,3.1c0.1,0.9,0.3,1.8,0.5,2.7s0.4,1.8,0.6,2.6s0.5,1.7,0.7,2.6
						c0.3,0.9,0.6,1.7,0.9,2.5l-0.3,5.6c-0.4-1-0.7-2-1.1-3.1c-0.3-1-0.6-2.1-0.9-3.1c-0.3-1-0.5-2.1-0.7-3.2
						c-0.2-1.1-0.4-2.1-0.5-3.2c-0.2-1.2-0.3-2.5-0.4-3.7c-0.1-1.2-0.1-2.5-0.1-3.7c0-1.2,0-2.5,0.1-3.7c0.1-1.2,0.2-2.5,0.4-3.7
						c0.2-1.6,0.5-3.1,0.9-4.7c0.4-1.5,0.8-3,1.3-4.5c0.5-1.5,1-3,1.6-4.4c0.6-1.5,1.3-2.9,2-4.3c0.4-0.9,0.8-1.7,1.2-2.6
						c0.4-0.9,0.7-1.7,1-2.6c0.3-0.9,0.6-1.8,0.8-2.7S56.7,27.3,56.9,26.4z"/>
				</defs>
				<clipPath id="SVGID_00000026876883570610436770000012031212537286921621_">
					<use xlink:href="#SVGID_00000030457153018900871090000005623594717335671215_"  style="overflow:visible;"/>
				</clipPath>
				<g style="clip-path:url(#SVGID_00000026876883570610436770000012031212537286921621_);enable-background:new    ;">
					<path class="st6" d="M56.9,26.4l-0.8,4.1c0,0.2-0.1,0.5-0.1,0.7c-0.1,0.2-0.1,0.5-0.2,0.7c-0.1,0.2-0.1,0.5-0.2,0.7
						c-0.1,0.2-0.1,0.5-0.2,0.7l0.6-3.5c0.1-0.3,0.2-0.6,0.2-0.9s0.2-0.6,0.2-0.9c0.1-0.3,0.1-0.6,0.2-0.9
						C56.8,27,56.8,26.7,56.9,26.4"/>
					<path class="st3" d="M56.1,29.8l-0.6,3.5c-0.1,0.5-0.3,1-0.5,1.5s-0.4,1-0.6,1.5c-0.2,0.5-0.4,1-0.6,1.5
						c-0.2,0.5-0.4,1-0.7,1.4c-0.3,0.7-0.7,1.4-1,2.1c-0.3,0.7-0.6,1.4-0.9,2.1c-0.3,0.7-0.5,1.4-0.8,2.1c-0.2,0.7-0.5,1.4-0.7,2.2
						l-0.6-0.5c0.3-0.9,0.5-1.8,0.8-2.6s0.6-1.7,1-2.6c0.3-0.9,0.7-1.7,1.1-2.6c0.4-0.8,0.8-1.7,1.2-2.5c0.3-0.6,0.6-1.2,0.8-1.8
						c0.3-0.6,0.5-1.2,0.7-1.8c0.2-0.6,0.5-1.2,0.7-1.8C55.7,31.1,55.9,30.5,56.1,29.8"/>
					<path class="st6" d="M49.2,47.3l0.6,0.5c-0.2,0.5-0.3,1-0.4,1.6c-0.1,0.5-0.3,1-0.4,1.6c-0.1,0.5-0.2,1.1-0.3,1.6
						s-0.2,1.1-0.2,1.6c0,0,0,0,0,0c0,0,0,0,0,0s0,0,0,0c0,0,0,0,0,0l-0.9,0.9c0,0,0,0,0,0c0,0,0,0,0,0s0,0,0,0s0,0,0,0
						c0.1-0.7,0.2-1.3,0.3-2c0.1-0.6,0.2-1.3,0.4-1.9s0.3-1.3,0.5-1.9C48.8,48.5,49,47.9,49.2,47.3"/>
					<path class="st11" d="M47.5,55.1l0.9-0.9c-0.1,0.6-0.1,1.1-0.2,1.7S48.1,57,48,57.6c0,0.6-0.1,1.1-0.1,1.7c0,0.6,0,1.1,0,1.7
						L47,63.3c0-0.7,0-1.4,0-2.1c0-0.7,0-1.4,0.1-2.1c0-0.7,0.1-1.4,0.2-2.1C47.3,56.4,47.4,55.7,47.5,55.1"/>
					<path class="st10" d="M47,63.3L48,61c0,0.4,0,0.9,0,1.3s0.1,0.9,0.1,1.3c0,0.4,0.1,0.9,0.1,1.3s0.1,0.9,0.2,1.3
						c0,0.2,0.1,0.4,0.1,0.5c0,0.2,0.1,0.3,0.1,0.5c0,0.2,0.1,0.3,0.1,0.5s0.1,0.3,0.1,0.5L48,72.2c0-0.2-0.1-0.4-0.1-0.6
						c0-0.2-0.1-0.4-0.1-0.6c0-0.2-0.1-0.4-0.1-0.6c0-0.2-0.1-0.4-0.1-0.6c-0.1-0.5-0.1-1.1-0.2-1.6c-0.1-0.5-0.1-1.1-0.2-1.6
						c0-0.5-0.1-1.1-0.1-1.6C47.1,64.4,47,63.8,47,63.3"/>
					<path class="st9" d="M48,72.2l0.8-3.9c0.1,0.7,0.3,1.4,0.4,2.1c0.2,0.7,0.3,1.4,0.5,2.1c0.2,0.7,0.4,1.4,0.6,2.1
						c0.2,0.7,0.5,1.4,0.7,2l-0.3,5.6c-0.3-0.8-0.6-1.6-0.9-2.5c-0.3-0.8-0.5-1.7-0.8-2.5s-0.5-1.7-0.6-2.5
						C48.3,73.9,48.1,73.1,48,72.2"/>
				</g>
			</g>
			<g>
				<path class="st18" d="M74.7,17.5c0.2,0.7,0.5,1.4,0.8,2c0.3,0.7,0.7,1.3,1.1,1.9c0.4,0.6,0.9,1.2,1.4,1.8
					c0.5,0.6,1.1,1.2,1.8,1.8c0.3,0.2,0.6,0.4,0.9,0.6s0.6,0.4,1,0.6c0.3,0.2,0.7,0.4,1,0.7s0.7,0.5,1,0.9c0.2,0.2,0.4,0.5,0.7,0.9
					c0.2,0.4,0.5,0.8,0.7,1.2s0.4,0.8,0.6,1.2s0.3,0.7,0.4,1c0.6,1.4,1,2.8,1.2,4.1s0.1,2.7,0,4c-0.2,1.3-0.5,2.6-1,3.8
					c-0.5,1.3-1,2.5-1.7,3.7c0.1-0.5,0.1-1,0.2-1.5c0-0.5,0-1,0-1.5c0-0.5-0.1-1-0.1-1.5s-0.2-1-0.3-1.5c-0.2-0.8-0.4-1.5-0.7-2.2
					c-0.3-0.7-0.6-1.4-0.9-2c-0.4-0.6-0.7-1.3-1.2-1.9c-0.4-0.6-0.9-1.2-1.3-1.8c-0.8-1-1.5-1.9-2.1-3c-0.6-1-1.2-2.1-1.6-3.2
					c-0.5-1.1-0.8-2.3-1.1-3.5c-0.3-1.2-0.5-2.4-0.6-3.7c0-0.2,0-0.5,0-0.7c0-0.2,0-0.5,0-0.7c0-0.2,0-0.5,0-0.7
					S74.7,17.7,74.7,17.5z"/>
			</g>
			<g>
				<path class="st18" d="M63.2,14.7c1.3,1.7,2.5,3.5,3.5,5.3c1,1.8,1.8,3.7,2.4,5.6s0.9,4,1,6.1s-0.2,4.3-0.8,6.7
					c-0.1,0.4-0.2,0.8-0.4,1.2c-0.1,0.4-0.3,0.8-0.5,1.2c-0.2,0.4-0.3,0.8-0.5,1.2c-0.2,0.4-0.4,0.8-0.6,1.1c-1,1.7-2,3.4-3,5.1
					c-1,1.7-2,3.4-3,5.1c-1,1.7-2,3.4-3,5.1c-1,1.7-2,3.4-3.1,5.1c0-0.4-0.1-0.7-0.2-1.1c-0.1-0.4-0.1-0.7-0.2-1.1
					c-0.1-0.4-0.1-0.8-0.1-1.1c0-0.4-0.1-0.8-0.1-1.1c-0.1-2-0.1-3.9,0-5.9s0.4-3.8,0.9-5.6c0.4-1.8,1-3.6,1.7-5.3s1.5-3.4,2.5-5.1
					c0.6-1,1.1-2,1.6-3c0.5-1,0.9-2.1,1.3-3.2c0.4-1.1,0.7-2.2,1-3.3c0.3-1.1,0.4-2.3,0.6-3.5c0.1-0.8,0.1-1.6,0.1-2.4
					c0-0.8,0-1.6-0.1-2.3c-0.1-0.8-0.2-1.5-0.4-2.3C63.6,16.2,63.4,15.4,63.2,14.7z"/>
			</g>
			<g class="st0">
				<defs>
					<path id="SVGID_00000065762073875241343250000003786545854182040480_" class="st0" d="M40.1,8.4l2.1,7.2c0,0.1,0,0.3,0,0.4
						c0,0.1,0,0.3,0,0.4s0,0.3,0,0.4c0,0.1,0,0.3,0,0.4c-0.1,0.7-0.2,1.3-0.4,1.9s-0.5,1.2-0.8,1.8c-0.4,0.6-0.8,1.1-1.3,1.6
						s-1.1,1-1.7,1.5c-0.4,0.3-0.7,0.6-1.1,0.9s-0.6,0.6-0.9,0.9c-0.3,0.3-0.5,0.7-0.7,1c-0.2,0.4-0.4,0.7-0.5,1.1
						c-0.1,0.3-0.2,0.5-0.2,0.8c-0.1,0.3-0.1,0.5-0.1,0.8c0,0.3,0,0.5,0,0.8c0,0.3,0.1,0.5,0.2,0.8l-3.7-4c-0.1-0.3-0.2-0.7-0.2-1
						c0-0.3-0.1-0.7-0.1-1c0-0.3,0-0.6,0.1-1c0.1-0.3,0.1-0.6,0.3-0.9c0.2-0.5,0.4-0.9,0.6-1.4c0.3-0.4,0.6-0.8,0.9-1.2
						c0.3-0.4,0.7-0.8,1.1-1.1c0.4-0.4,0.8-0.7,1.3-1c0.8-0.6,1.4-1.1,2-1.8c0.6-0.6,1.1-1.3,1.5-2c0.4-0.7,0.8-1.4,1-2.2
						s0.4-1.5,0.5-2.4c0-0.2,0-0.3,0-0.5c0-0.2,0-0.3,0-0.5c0-0.2,0-0.3,0-0.5C40.1,8.7,40.1,8.6,40.1,8.4z"/>
				</defs>
				<clipPath id="SVGID_00000151544500677986497550000005661989920149983646_">
					<use xlink:href="#SVGID_00000065762073875241343250000003786545854182040480_"  style="overflow:visible;"/>
				</clipPath>
				<g style="clip-path:url(#SVGID_00000151544500677986497550000005661989920149983646_);enable-background:new    ;">
					<path class="st10" d="M40.1,8.4l2.1,7.2c0,0.1,0,0.2,0,0.2c0,0.1,0,0.2,0,0.2s0,0.2,0,0.2c0,0.1,0,0.2,0,0.2l-2.1-7
						c0-0.1,0-0.2,0-0.3c0-0.1,0-0.2,0-0.3c0-0.1,0-0.2,0-0.3C40.1,8.6,40.1,8.5,40.1,8.4"/>
					<path class="st11" d="M40.2,9.5l2.1,7c0,0.1,0,0.1,0,0.2s0,0.1,0,0.2s0,0.1,0,0.2c0,0.1,0,0.1,0,0.2c0,0,0,0,0,0.1
						c0,0,0,0,0,0.1s0,0,0,0.1c0,0,0,0,0,0.1l-2.1-6.8c0,0,0-0.1,0-0.1s0-0.1,0-0.1c0,0,0-0.1,0-0.1s0-0.1,0-0.1c0-0.1,0-0.1,0-0.2
						s0-0.1,0-0.2s0-0.1,0-0.2C40.2,9.6,40.2,9.6,40.2,9.5"/>
					<path class="st6" d="M40.1,10.6l2.1,6.8c0,0.1,0,0.2-0.1,0.3s0,0.2-0.1,0.3c0,0.1,0,0.2-0.1,0.3S42,18.7,42,18.8l-2.2-6.5
						c0-0.1,0.1-0.3,0.1-0.4s0.1-0.3,0.1-0.4s0.1-0.3,0.1-0.4C40.1,10.9,40.1,10.8,40.1,10.6"/>
					<path class="st3" d="M39.8,12.3l2.2,6.5c0,0.1-0.1,0.2-0.1,0.4c0,0.1-0.1,0.2-0.1,0.4c0,0.1-0.1,0.2-0.2,0.4
						c-0.1,0.1-0.1,0.2-0.2,0.4L39.1,14c0.1-0.1,0.1-0.3,0.2-0.4c0.1-0.1,0.1-0.3,0.2-0.4c0.1-0.1,0.1-0.3,0.2-0.4
						C39.7,12.6,39.7,12.4,39.8,12.3"/>
					<path class="st2" d="M39.1,14l2.3,6.2c-0.2,0.3-0.4,0.7-0.6,1s-0.5,0.6-0.8,1c-0.3,0.3-0.6,0.6-0.9,0.9
						c-0.3,0.3-0.7,0.6-1.1,0.8c-0.3,0.2-0.6,0.5-0.9,0.7c-0.3,0.2-0.6,0.5-0.8,0.8s-0.5,0.5-0.7,0.8c-0.2,0.3-0.4,0.6-0.6,0.9
						l-3.6-4.8c0.2-0.4,0.4-0.7,0.7-1.1c0.3-0.3,0.5-0.7,0.8-1c0.3-0.3,0.6-0.6,1-0.9c0.4-0.3,0.7-0.6,1.1-0.9
						c0.5-0.3,0.9-0.7,1.3-1c0.4-0.4,0.8-0.7,1.1-1.1c0.3-0.4,0.6-0.8,0.9-1.2S38.8,14.5,39.1,14"/>
					<path class="st3" d="M31.4,22.4l3.6,4.8c0,0.1-0.1,0.1-0.1,0.2s-0.1,0.1-0.1,0.2c0,0.1-0.1,0.1-0.1,0.2c0,0.1,0,0.1-0.1,0.2
						c0,0,0,0,0,0.1s0,0,0,0.1c0,0,0,0,0,0.1c0,0,0,0,0,0.1L31,23.6c0,0,0-0.1,0-0.1s0-0.1,0-0.1c0,0,0-0.1,0-0.1c0,0,0-0.1,0-0.1
						c0-0.1,0.1-0.2,0.1-0.2c0-0.1,0.1-0.1,0.1-0.2c0-0.1,0.1-0.1,0.1-0.2C31.4,22.5,31.4,22.5,31.4,22.4"/>
					<path class="st6" d="M31,23.6l3.7,4.6c0,0.1,0,0.1-0.1,0.2c0,0.1,0,0.1,0,0.2c0,0.1,0,0.1,0,0.2c0,0.1,0,0.1,0,0.2l-3.8-4.4
						c0-0.1,0-0.2,0-0.2c0-0.1,0-0.2,0-0.2c0-0.1,0-0.2,0.1-0.2C30.9,23.8,30.9,23.7,31,23.6"/>
					<path class="st11" d="M30.8,24.6l3.8,4.4c0,0.1,0,0.1,0,0.2c0,0.1,0,0.1,0,0.2c0,0.1,0,0.1,0,0.2s0,0.1,0,0.2l-3.8-4.3
						c0-0.1,0-0.1,0-0.2c0-0.1,0-0.1,0-0.2c0-0.1,0-0.1,0-0.2C30.7,24.7,30.8,24.6,30.8,24.6"/>
					<path class="st10" d="M30.7,25.4l3.8,4.3c0,0.1,0,0.1,0,0.2s0,0.1,0,0.2c0,0.1,0,0.1,0,0.2c0,0.1,0,0.1,0,0.2l-3.8-4.1
						c0-0.1,0-0.2,0-0.2c0-0.1,0-0.2,0-0.2c0-0.1,0-0.2,0-0.2S30.7,25.5,30.7,25.4"/>
					<path class="st9" d="M30.8,26.4l3.8,4.1c0,0.1,0,0.1,0,0.2c0,0.1,0,0.1,0,0.2c0,0.1,0,0.1,0,0.2c0,0.1,0,0.1,0,0.2l-3.7-4
						c0-0.1,0-0.1-0.1-0.2s0-0.1,0-0.2s0-0.1,0-0.2S30.8,26.5,30.8,26.4"/>
				</g>
			</g>
			<g>
				<path class="st18" d="M40.1,8.4c0,0.2,0,0.3,0,0.5c0,0.2,0,0.3,0,0.5c0,0.2,0,0.3,0,0.5c0,0.2,0,0.3,0,0.5
					c-0.1,0.8-0.2,1.6-0.5,2.4s-0.6,1.5-1,2.2c-0.4,0.7-0.9,1.3-1.5,2c-0.6,0.6-1.3,1.2-2,1.8c-0.5,0.3-0.9,0.7-1.3,1
					c-0.4,0.4-0.8,0.7-1.1,1.1c-0.3,0.4-0.6,0.8-0.9,1.2c-0.3,0.4-0.5,0.9-0.6,1.4c-0.1,0.3-0.2,0.6-0.3,0.9c-0.1,0.3-0.1,0.6-0.1,1
					c0,0.3,0,0.6,0.1,1c0,0.3,0.1,0.7,0.2,1c-0.7-0.8-1.3-1.7-1.8-2.5s-0.9-1.7-1.1-2.5c-0.2-0.9-0.3-1.7-0.2-2.6
					c0.1-0.9,0.5-1.7,1.1-2.6c0.1-0.2,0.3-0.4,0.4-0.6s0.4-0.5,0.6-0.7s0.4-0.5,0.7-0.7c0.2-0.2,0.5-0.4,0.7-0.5
					c0.3-0.2,0.7-0.4,1-0.5c0.3-0.1,0.7-0.2,1-0.4c0.3-0.1,0.7-0.2,1-0.3c0.3-0.1,0.6-0.2,0.9-0.3c0.6-0.3,1.2-0.7,1.7-1
					c0.5-0.3,1-0.7,1.4-1.1c0.4-0.4,0.8-0.8,1.1-1.2C39.6,9.3,39.9,8.8,40.1,8.4z"/>
			</g>
			<g class="st0">
				<defs>
					<path id="SVGID_00000178885754783882864310000006741514183173641095_" class="st0" d="M48,7.8l0.8,7.3c0-0.2-0.1-0.5-0.1-0.8
						c0-0.3-0.1-0.5-0.1-0.8c0-0.3-0.1-0.5-0.2-0.8s-0.1-0.5-0.2-0.8c0-0.1-0.1-0.3-0.1-0.4c0-0.1-0.1-0.3-0.1-0.4
						c0-0.1-0.1-0.3-0.1-0.4c0-0.1-0.1-0.3-0.1-0.4c0-0.1-0.1-0.3-0.1-0.4c0-0.1-0.1-0.3-0.2-0.4c-0.1-0.1-0.1-0.3-0.2-0.4
						C47.1,9,47,8.8,47,8.7L45.8,0c0.1,0.2,0.1,0.4,0.2,0.6c0.1,0.2,0.1,0.4,0.2,0.5c0.1,0.2,0.1,0.3,0.2,0.5s0.1,0.3,0.2,0.5
						c0.1,0.2,0.1,0.3,0.2,0.5C46.8,2.7,46.9,2.9,47,3c0.1,0.2,0.1,0.3,0.2,0.5c0.1,0.2,0.1,0.3,0.1,0.5c0.1,0.3,0.2,0.6,0.2,0.9
						s0.1,0.6,0.2,0.9c0.1,0.3,0.1,0.6,0.2,0.9S47.9,7.5,48,7.8z"/>
				</defs>
				<clipPath id="SVGID_00000105420218057332926720000001869884475584267673_">
					<use xlink:href="#SVGID_00000178885754783882864310000006741514183173641095_"  style="overflow:visible;"/>
				</clipPath>
				<g style="clip-path:url(#SVGID_00000105420218057332926720000001869884475584267673_);enable-background:new    ;">
					<path class="st2" d="M48,7.8l0.8,7.3c0-0.2-0.1-0.5-0.1-0.8c0-0.3-0.1-0.5-0.1-0.8c0-0.3-0.1-0.5-0.2-0.8s-0.1-0.5-0.2-0.8
						c0-0.1-0.1-0.3-0.1-0.4c0-0.1-0.1-0.3-0.1-0.4c0-0.1-0.1-0.3-0.1-0.4c0-0.1-0.1-0.3-0.1-0.4c0-0.1-0.1-0.3-0.1-0.4
						c0-0.1-0.1-0.3-0.2-0.4c-0.1-0.1-0.1-0.3-0.2-0.4C47.1,9,47,8.8,47,8.7L45.8,0c0.1,0.2,0.1,0.4,0.2,0.6
						c0.1,0.2,0.1,0.4,0.2,0.5c0.1,0.2,0.1,0.3,0.2,0.5s0.1,0.3,0.2,0.5c0.1,0.2,0.1,0.3,0.2,0.5C46.8,2.7,46.9,2.9,47,3
						c0.1,0.2,0.1,0.3,0.2,0.5c0.1,0.2,0.1,0.3,0.1,0.5c0.1,0.3,0.2,0.6,0.2,0.9s0.1,0.6,0.2,0.9c0.1,0.3,0.1,0.6,0.2,0.9
						S47.9,7.5,48,7.8"/>
				</g>
			</g>
			<g>
				<path class="st18" d="M45.8,0c0.1,0,0.2,0.1,0.3,0.1c0.1,0,0.1,0.1,0.2,0.1s0.1,0.1,0.2,0.1c0.1,0,0.1,0.1,0.2,0.1
					c1.6,1.1,3,2.3,4.3,3.6c1.3,1.3,2.3,2.7,3.3,4.3c0.9,1.5,1.6,3.2,2.2,4.9s0.9,3.6,1,5.6c0.1,1.6,0.1,3.2-0.1,4.8
					s-0.4,3.1-0.8,4.6s-0.8,3-1.4,4.5c-0.6,1.5-1.2,2.9-1.9,4.4c-0.7,1.4-1.4,2.9-2,4.3c-0.6,1.5-1.1,2.9-1.6,4.4
					c-0.5,1.5-0.9,3-1.3,4.5c-0.4,1.5-0.6,3.1-0.9,4.7c-0.2,1.2-0.3,2.5-0.4,3.7c-0.1,1.2-0.1,2.5-0.1,3.7c0,1.2,0,2.5,0.1,3.7
					c0.1,1.2,0.2,2.5,0.4,3.7c0.2,1.1,0.3,2.2,0.5,3.2c0.2,1.1,0.5,2.1,0.7,3.2c0.3,1,0.6,2.1,0.9,3.1c0.3,1,0.7,2,1.1,3.1
					c0.1-0.2,0.2-0.4,0.3-0.6s0.2-0.4,0.2-0.6c0.1-0.2,0.2-0.4,0.2-0.6c0.1-0.2,0.1-0.4,0.2-0.6c0.2-0.7,0.3-1.4,0.4-2
					s0.1-1.2,0.1-1.7s-0.1-1.1-0.2-1.6s-0.3-1-0.4-1.4c0.1,0.1,0.2,0.2,0.4,0.3c0.1,0.1,0.3,0.2,0.4,0.3s0.2,0.2,0.4,0.3
					c0.1,0.1,0.2,0.2,0.3,0.3c0.3,0.3,0.5,0.6,0.8,0.9c0.2,0.3,0.5,0.6,0.7,0.9c0.2,0.3,0.4,0.7,0.5,1c0.2,0.3,0.3,0.7,0.4,1.1
					c0.2-0.8,0.3-1.7,0.5-2.5c0.2-0.8,0.4-1.7,0.7-2.5s0.5-1.6,0.8-2.4c0.3-0.8,0.6-1.6,1-2.4c0.5-1,1-2,1.5-3
					c0.6-0.9,1.2-1.8,1.9-2.7c0.7-0.9,1.4-1.7,2.2-2.4s1.7-1.5,2.6-2.1c1.2-0.8,2.2-1.7,3.1-2.7s1.7-2,2.3-3.2
					c0.6-1.1,1.2-2.3,1.6-3.6s0.7-2.6,0.9-4c0.1-0.9,0.2-1.7,0.2-2.6c0-0.9,0-1.7,0-2.6c0-0.9-0.1-1.7-0.2-2.6
					c-0.1-0.9-0.3-1.7-0.4-2.6c0-0.1,0-0.1,0-0.2c0-0.1,0-0.1,0-0.2c0-0.1,0-0.1,0-0.2s0-0.1,0-0.2c0.9,1.2,1.7,2.5,2.4,3.8
					s1.4,2.6,2,4c0.6,1.4,1.1,2.7,1.5,4.2c0.4,1.4,0.8,2.9,1,4.4c0.3,1.5,0.4,3,0.5,4.5c0.1,1.5,0,3-0.1,4.4
					c-0.1,1.5-0.4,2.9-0.7,4.4c-0.3,1.5-0.7,2.9-1.2,4.3c0.7-0.8,1.5-1.6,2.2-2.3c0.7-0.8,1.5-1.6,2.2-2.3c0.7-0.8,1.5-1.6,2.2-2.3
					s1.5-1.6,2.2-2.3c0,0,0.1,0,0.1,0s0.1,0,0.1,0.1c0,0,0.1,0,0.1,0.1c0,0,0.1,0,0.1,0.1c0,0.5-0.1,1-0.1,1.5c0,0.5,0,1-0.1,1.5
					c0,0.5-0.1,1-0.1,1.5c0,0.5-0.1,1-0.1,1.5c-0.2,1.4-0.4,2.9-0.6,4.3c-0.3,1.4-0.6,2.8-1,4.2c-0.4,1.4-0.8,2.7-1.4,4.1
					c-0.5,1.3-1.1,2.7-1.8,4c-0.5,0.9-0.9,1.7-1.5,2.6c-0.5,0.8-1,1.6-1.6,2.4c-0.6,0.8-1.2,1.5-1.8,2.2c-0.6,0.7-1.3,1.3-1.9,2
					c-0.1,0.2-0.2,0.3-0.3,0.4c-0.1,0.1-0.2,0.3-0.3,0.4c-0.1,0.1-0.2,0.3-0.4,0.4c-0.1,0.1-0.3,0.3-0.4,0.4
					c-0.1,0.1-0.3,0.3-0.4,0.4c-0.1,0.2-0.3,0.3-0.4,0.5c-0.1,0.2-0.3,0.3-0.4,0.5c-0.1,0.2-0.3,0.4-0.4,0.6
					c-0.5,0.7-1.1,1.4-1.8,2.1c-0.7,0.7-1.5,1.4-2.4,2c-1,0.6-2.1,1.1-3.5,1.5c-1.4,0.4-3,0.6-4.8,0.6c-0.4,0-0.9,0-1.4,0
					c-0.5,0-1-0.1-1.5-0.1c-0.5-0.1-1-0.1-1.6-0.2c-0.5-0.1-1.1-0.2-1.7-0.3c0,0,0-0.1,0.1-0.2c0.1-0.1,0.2-0.1,0.4-0.2
					c0.2-0.1,0.4-0.1,0.6-0.2c0.2-0.1,0.5-0.1,0.8-0.2c-0.4,0-0.7,0.1-1.1,0.1c-0.4,0-0.7,0.1-1.1,0.1c-0.4,0-0.7,0-1.1,0.1
					c-0.4,0-0.7,0-1.1,0c0.2-0.2,0.5-0.4,0.7-0.7c0.2-0.2,0.4-0.5,0.6-0.8c0.2-0.3,0.3-0.6,0.4-0.9c0.1-0.3,0.2-0.6,0.2-1
					c0-0.2,0-0.3,0-0.5c0-0.2,0-0.4,0-0.5c0-0.2-0.1-0.3-0.2-0.5c-0.1-0.1-0.2-0.3-0.3-0.3c0,0-0.1,0-0.1,0c0,0-0.1,0-0.1,0
					c0,0-0.1,0-0.1,0c0,0-0.1,0-0.1,0c-0.1,0-0.2,0-0.3,0.1s-0.2,0.1-0.3,0.2c-0.1,0.1-0.2,0.2-0.2,0.3c-0.1,0.1-0.2,0.2-0.2,0.3
					c-0.5,0.6-1.1,1.1-1.7,1.5c-0.6,0.4-1.2,0.8-1.8,1.1s-1.2,0.5-1.9,0.7c-0.6,0.2-1.3,0.3-1.9,0.4c-0.1,0-0.1,0-0.2,0
					c-0.1,0-0.1,0-0.2,0c-0.1,0-0.1,0-0.2,0c-0.1,0-0.1,0-0.2,0c-0.7,0-1.4-0.1-2.1-0.3c-0.7-0.2-1.4-0.4-2.1-0.7
					c-0.7-0.3-1.3-0.6-2-1c-0.6-0.4-1.2-0.7-1.7-1.1c0,0-0.1-0.1-0.1-0.1s-0.1-0.1-0.1-0.1c0,0-0.1-0.1-0.1-0.1c0,0-0.1-0.1-0.1-0.1
					c-0.8-0.6-1.7-1.4-2.5-2.4c-0.8-1-1.6-2.2-2.3-3.5c-0.7-1.3-1.2-2.6-1.5-4c-0.3-1.3-0.3-2.7-0.1-3.9c0.1,0.3,0.2,0.7,0.3,1
					s0.2,0.7,0.4,1.1s0.3,0.7,0.5,1c0.2,0.3,0.4,0.6,0.6,0.8c0,0,0.1,0.1,0.1,0.1c0,0,0.1,0.1,0.1,0.1s0.1,0.1,0.1,0.1
					c0,0,0.1,0.1,0.1,0.1c0,0,0.1,0.1,0.1,0.1c0,0,0.1,0.1,0.1,0.1c0,0,0.1,0.1,0.1,0.1s0.1,0.1,0.1,0.1c0.3,0.2,0.5,0.5,0.8,0.7
					c0.3,0.2,0.6,0.4,0.8,0.5c0.3,0.2,0.6,0.3,0.9,0.4s0.6,0.2,0.9,0.2c0.2,0,0.3,0,0.4-0.1s0.2-0.1,0.2-0.2c0-0.1,0.1-0.2,0-0.3
					s-0.1-0.3-0.1-0.4c0-0.1-0.1-0.1-0.1-0.2s-0.1-0.1-0.1-0.2c0-0.1-0.1-0.1-0.1-0.2c0,0-0.1-0.1-0.1-0.1c-0.3-0.3-0.5-0.6-0.7-1
					s-0.4-0.7-0.6-1c-0.2-0.4-0.3-0.7-0.5-1.1s-0.3-0.8-0.4-1.1c-0.2-0.6-0.3-1.2-0.5-1.9c-0.1-0.6-0.3-1.2-0.4-1.9
					s-0.2-1.3-0.4-1.9s-0.2-1.3-0.3-1.9c0-0.3-0.1-0.6-0.1-0.8c0-0.3-0.1-0.6-0.1-0.8c0-0.3-0.1-0.6-0.2-0.8s-0.1-0.5-0.2-0.8
					c-0.1-0.3-0.2-0.7-0.3-1c-0.1-0.3-0.2-0.7-0.4-1c-0.1-0.3-0.3-0.7-0.4-1c-0.1-0.3-0.3-0.7-0.5-1c-0.3-0.6-0.6-1.1-0.9-1.6
					c-0.3-0.5-0.7-1-1-1.4s-0.8-0.9-1.2-1.2c-0.4-0.4-0.9-0.7-1.4-1c-0.4-0.2-0.7-0.4-1.1-0.6c-0.4-0.2-0.7-0.3-1.1-0.4
					c-0.4-0.1-0.7-0.2-1.1-0.2c-0.3-0.1-0.7-0.1-1-0.1c-0.4,0-0.8,0-1.2,0.1c-0.4,0.1-0.8,0.2-1.2,0.3c-0.4,0.1-0.8,0.3-1.2,0.5
					c-0.4,0.2-0.8,0.4-1.1,0.7c0-1.2,0.1-2.3,0.2-3.5s0.3-2.3,0.5-3.5c0.2-1.2,0.4-2.3,0.7-3.5s0.6-2.3,0.9-3.5
					c0.2-0.7,0.4-1.3,0.6-2c0.2-0.7,0.5-1.3,0.7-2c0.2-0.7,0.5-1.3,0.7-2c0.2-0.7,0.5-1.3,0.7-2c0-0.1,0-0.1,0.1-0.2
					c0-0.1,0.1-0.1,0.1-0.2c0-0.1,0.1-0.1,0.1-0.2s0.1-0.2,0.1-0.3c0.4,0.9,0.8,1.8,1.3,2.7c0.4,0.9,0.8,1.8,1.2,2.7
					s0.8,1.8,1.3,2.7c0.4,0.9,0.8,1.8,1.3,2.8c0.1-0.5,0.2-1,0.3-1.5c0.1-0.5,0.2-0.9,0.3-1.4s0.2-0.9,0.3-1.3s0.2-0.9,0.3-1.3
					c0.5-1.8,1-3.5,1.6-5.2s1.3-3.4,2.1-5c0.8-1.6,1.6-3.2,2.6-4.7c1-1.5,2-3,3.2-4.4c0.3-0.3,0.6-0.7,0.9-1s0.6-0.7,0.9-1
					c0.3-0.3,0.6-0.6,1-0.9c0.3-0.3,0.7-0.6,1-0.8c1.5-1.1,2.7-2.3,3.6-3.6s1.6-2.7,1.9-4.1c0.4-1.4,0.5-3,0.5-4.6
					c-0.1-1.6-0.3-3.2-0.8-4.9c0-0.2-0.1-0.3-0.1-0.5C47.1,3.4,47,3.2,47,3c-0.1-0.2-0.1-0.3-0.2-0.5c-0.1-0.2-0.1-0.3-0.2-0.5
					c-0.1-0.2-0.1-0.3-0.2-0.5s-0.1-0.3-0.2-0.5c-0.1-0.2-0.1-0.3-0.2-0.5C46,0.4,45.9,0.2,45.8,0z"/>
			</g>
		</g>
	</g>
</g>
</svg>
