<?xml version="1.0" encoding="UTF-8"?>
<svg id="Calque_2" data-name="Calque 2" xmlns="http://www.w3.org/2000/svg" viewBox="0 0 94.55 102.73">
  <defs>
    <style>
      .cls-1 {
        fill: #fff;
      }
    </style>
  </defs>
  <path class="cls-1" d="m45.58,25.94c.02.07.04.14.06.21.43,1.32,1.35,2.39,2.54,3.02.74.39,1.58.63,2.47.63.17,0,.35,0,.52-.03l1.31-.13c2.67.18,5.64-.25,8.37-1.03,2.08-.6,4.01-1.4,5.54-2.29.25-.14.49-.29.71-.43,0,0,.99-1.11.99-2.28,0,0,.48.98.47,1.74,2.29-.9,6.54-2.79,6.91-4.55.51-2.43,2.98-3.37,2.98-3.37-2.81-2.82-10.27,0-10.27,0-.1.03-.21.05-.33.08-.55.12-1.29.23-2.15.31-.29.03-1.85.15-2.32.18-1,.06-2.08.1-3.19.14-1.72.05-3.49.08-5.13.09-1.29.01-2.5.01-3.53,0l-1.48.14c-1.35.13-2.52.78-3.37,1.71-.27.3-.52.62-.72.97-.15.27-.27.56-.38.85-1.02,0-1.85.83-1.85,1.85v.32c0,1.02.82,1.84,1.84,1.85Zm25.66-6.72c.29,0,.53.24.53.53s-.24.53-.53.53-.53-.24-.53-.53.24-.53.53-.53Zm-6.72,2.98c.39,0,.7.32.7.7s-.32.7-.7.7-.7-.32-.7-.7.32-.7.7-.7Zm-3.98-1.41s1.7,4.94-.6,7.66c0,0,.98-5,.6-7.66Zm-15.8,2.97c0-.38.25-.69.6-.8.08-.03.16-.05.25-.05h5.92c.47,0,.85.38.85.85v.32c0,.47-.38.85-.85.85h-5.92c-.08,0-.15-.02-.22-.04-.36-.1-.64-.42-.64-.81v-.32Z"/>
  <path class="cls-1" d="m43.46,19.43c-4.19-.93-9.17-3.23-11.72-4.5-.63-.31-1.12-.56-1.4-.71-.07.05-.11.11-.18.17-3.91,3.4-.67,10.28-.24,11.14,4.78,3.8,11.52,4.23,14.33,4.22-1-1.23-1.67-2.75-1.84-4.44l-.08-.85c-.02-.26-.03-.51-.04-.77,0-.34.02-.67.06-1,.14-1.17.53-2.28,1.11-3.26Zm-13.17,2.01c-.4,0-.72-.32-.72-.72s.32-.72.72-.72.72.32.72.72-.32.72-.72.72Zm5.95,2.49c-.42,0-.76-.34-.76-.76s.34-.76.76-.76.76.34.76.76-.34.76-.76.76Z"/>
  <path class="cls-1" d="m87,54.88c-3.83-2.87-20.83-16.19-20.91-26.27l-2.13.77s0,.04-.03.07c-.51.7,0,4.83,0,4.85,1.19,3.92,3.86,9.61,9.83,13.95,0,0-10.23-5.2-11.79-18.17,0,0-.22,1.26-2.51,2.35,1.58,10.51,11.79,29.2,11.79,29.2-8.02-8.75-12.41-25.46-13.19-28.65-1,.32-2.25.6-3.83.78-1.49.17-2.76.19-3.85.13-.75,5.47-.7,29.36-.7,29.36-1.73-9.01-1.27-25.75-1.14-29.58-2.01-.37-3.1-1.06-3.54-1.42-1.25,2.93-5.02,5.61-5.02,5.61,1.45-1.47,2.38-4.6,2.72-5.95-9-.6-12.4-3-13.54-4.19-1.32,2.31-4.51,6.65-11.53,11.17-10.54,6.79-23.23,25.25-14.95,48.26,2.09,5.81,5.72,9.91,10.77,12.19,5.01,2.25,10.73,2.41,15.65,1.86-6.59-3.44-9.96-9.33-9.96-9.33,1.29,1.06,2.61,2.05,3.91,2.96,3.44,2.35,7.13,4.23,10.98,5.56.63.22,1.26.42,1.9.61,8.48,2.51,17.59,2.37,26.2-1.13.25-.1.5-.2.75-.31.27-.11.53-.24.8-.36,3.32-1.41,6.52-3.1,9.55-5.07.13-.08.26-.17.39-.25.98-.65,1.94-1.32,2.88-2.02,0,0-3.45,5.32-7.63,7.97,4.81.18,10.86-.72,16.98-4.59,5.28-3.35,8.36-9.7,8.68-17.9.36-9.17-2.95-19.04-7.52-22.47Zm-55.32-13.19c-.85.28-1.67.15-2.35-.31-1.41,1.46-2.72,2.99-3.93,4.59,1.18.85,2.52,1.52,3.81,2.3,1.42.81,1.42.84-.25.95-1.44,0-2.84-.36-4.07-1.17-.22-.14-.44-.3-.65-.48-1.84,2.63-3.44,5.41-4.76,8.32.98.59,2,1.13,3.07,1.83-1.19.52-2.6.44-3.84-.06-1.08,2.62-1.95,5.32-2.61,8.09,1.14.07,2.29.12,3.48.15-.82,1.34-2.39,1.93-3.92,1.84-.66,3.34-1.01,6.77-1.05,10.24.49-.12.97-.24,1.43-.32,1.44-.31,2.8-.61,4.36-.5-.49.68-1.1,1.18-1.77,1.59-1.09.65-2.66,1.13-4.06,1.01.02.8.08,1.68.1,2.33.05,1.11.08,2.22.1,3.34-.34-1.56-.67-3.35-.95-4.94-.05-.3-.08-.6-.12-.9-.69-.21-1.3-.62-1.73-1.3.51.05,1.04,0,1.57-.09-.35-3.62-.22-7.29.35-10.9-.86-.4-1.58-1.07-1.96-1.99.76.12,1.51.21,2.26.28.61-3.09,1.55-6.11,2.79-9-1.08-.99-1.7-2.38-1.29-3.92.67.88,1.38,1.54,2.12,2.11,1.46-3,3.26-5.83,5.37-8.39-.68-1.04-1.01-2.31-.51-3.46.43.87.99,1.56,1.63,2.16,1.36-1.51,2.84-2.92,4.44-4.19-.75-.78-.94-2.47.19-3.02.38.86.8,1.15,1.33,1.73.03.03.05.06.07.09.77-.55,1.57-1.08,2.39-1.57-.72.62-1.42,1.27-2.09,1.92.39.48.74.97,1.03,1.67Z"/>
  <path class="cls-1" d="m24.98,2.84c.11.52.33,1.25.77,2.25.24.46.53.98.87,1.56,1.11,1.88,2,3.35,2.67,4.44,0,0,6.11,4.03,11.68,6.61.52.17,1.04.32,1.55.46.1-.73.29-2.34.46-4.63,0,0,.94,3.54,1.2,4.87,1.35-1.65,3.32-2.78,5.61-3.01l3.18-.31c.27-.03.54-.04.81-.04,1.91,0,3.69.66,5.1,1.78.09-.93.37-3.19.9-3.94,0,0,.17,3.51.48,4.24,1.48-.05,2.88-.11,4.07-.19l2.14-.21s0,0,0,0l1.26-.13c.46-.49,1.8-1.46,5.99-1.87,3.4-.34,4.1-2.03,4.21-3,.2-1.8-1.21-3.73-2.56-4.18-.14-.05-.3-.08-.46-.1,0-.59-.08-1.23-.29-1.96h0c-.12-.62-.42-1.14-.42-1.14-.11-.25-.25-.5-.43-.76-1-1.42-3.29-3.19-6.49-3.53-1.82-.2-8.26.18-19.14,1.11-1.71.15-3.53.31-5.47.48-.08-.02-.15-.04-.23-.06-2.13-.52-4.24-.72-5.91-.07-.54.21-.79.44-.91.62-.02.02-.02.04-.03.06-.13-.02-.22-.03-.22-.03-1.32-.24-2.63-.59-3.91-.93-2.49-.66-4.53-1.18-5.68-.67-1.13.2-.87,1.92-.87,1.92-.02.08.01.21.06.36Zm50.06,5.65c.95.32,2.03,1.86,1.89,3.12-.17,1.49-1.89,1.98-3.31,2.12-2.55.25-4.22.83-5.31,1.43.51-.83,1.47-1.92,3.27-2.97,0,0,.01-.01.02-.02.06-.04.12-.08.18-.12h0s2.48-.99,3.03-3.62c.08.02.16.03.23.05Zm-27.42-6.29c13.61-1.17,18.24-1.3,19.55-1.16,2.68.29,4.83,1.77,5.78,3.11.25.36.42.71.48,1.01,0,.1.02.19.03.3.05.39-.05.73-.2,1.03-.36.76-1.23,1.05-1.76,1.16-3.32.52-7.18.7-9.12.64-1.04-.03-2.13-.17-2.31-.92-.22-.94,1.13-1.77,4.25-3.43l.2-.11c1.07-.57,1.14-.87,1.14-.88.16-.27-.49-.22-.49-.22-1.07.13-2.44.37-3.9.62-3.12.54-6.66,1.17-9.08,1.03-1.31-.07-3.05-.67-5.06-1.37-.59-.21-1.21-.42-1.84-.63.8-.07,1.59-.14,2.34-.2Zm-21.41-.76c.17-.07.4-.11.68-.11,1.05,0,2.76.45,4.32.86,1.29.34,2.63.69,3.99.95.02,0,.23.04.52.08.78,1.53,3.69,3.64,5.67,4.79l.5.29-.35.45c-.52.66-1.26,1.04-2.19,1.14-.15.01-.31.02-.47.02-3.79,0-9.79-4.21-12.82-6.55-.78-1.39.16-1.92.16-1.92Z"/>
</svg>