<?xml version="1.0" encoding="UTF-8"?>
<svg id="Calque_2" data-name="Calque 2" xmlns="http://www.w3.org/2000/svg" viewBox="0 0 367.35 358.23">
  <defs>
    <style>
      .cls-1 {
        fill: #fff;
      }
    </style>
  </defs>
  <path class="cls-1" d="m67.13,205.08l-.15-.02c-12.89-1.72-22.41,3.2-28.13,7.63-8.67,6.72-14.48,16.94-16.04,28.14v49.45c4.85,27.56,26.18,36.1,43.16,34.97,16.91-1.11,36.89-12.34,37.64-40.28.07-14.21.07-26.95,0-38.94-.14-22.49-14.12-38.18-36.48-40.94Z"/>
  <path class="cls-1" d="m180.52,33.06c-18.56,1.63-38.14,14.96-37.25,40.38v.34s0,.34,0,.34c-.27,24.75-.21,49.96-.15,74.34.02,10.47.05,20.93.05,31.4,0,15.01,0,30.02,0,45.03,0,20.31,0,40.61,0,60.92,1.25,27.51,21.46,39.59,40.9,39.34,19.5-.24,39.38-12.85,39.89-40.48-.19-28.18-.07-56.81.05-84.49.19-43.53.38-88.54-.66-132.65-4.3-27.82-25.69-35.98-42.85-34.47Z"/>
  <path class="cls-1" d="m344.49,158.27v-.08c.16-17.21-6.29-30.1-18.65-37.26-13-7.53-30.61-7.39-43.83.35-8.46,4.96-18.5,15.01-18.22,34.76v.24s0,.24,0,.24c-.28,14.82-.21,29.98-.14,44.65,0,1.6.01,3.21.02,4.81h.04l.02,15c0,6.81-.02,13.62-.04,20.43-.05,14.75-.09,29.99.09,44.93,1.53,27.23,21.59,39.17,40.82,38.9,19.35-.26,39.18-12.82,39.91-40.27.08-40.35.04-81.39,0-121.08v-5.63Z"/>
</svg>