<?xml version="1.0" encoding="UTF-8"?>
<svg id="Calque_2" data-name="Calque 2" xmlns="http://www.w3.org/2000/svg" viewBox="0 0 367.35 358.23">
  <defs>
    <style>
      .cls-1 {
        fill: #ffe192;
      }

      .cls-2 {
        fill: #ffb900;
      }

      .cls-3 {
        fill: none;
      }
    </style>
  </defs>
  <path class="cls-3" d="m59.58,144.64c-.72.04-1.5,0-1.82.93.92.94,1.81,1.93,2.75,2.85-.94-.93-1.82-1.91-2.75-2.85.33-.93,1.1-.9,1.82-.93Z"/>
  <path class="cls-3" d="m257.83,276.69c.35,1.6.71,3.21,1.05,4.82-.34-1.61-.7-3.21-1.05-4.82Z"/>
  <path class="cls-3" d="m171.37,255.78c4.01-2.3,8.03-4.6,12.04-6.89h0c-4.02,2.3-8.03,4.6-12.04,6.89Z"/>
  <path class="cls-3" d="m107.31,283.24c-.67,3.01-1.58,5.99-1.51,9.13.3.23.58.33.84.34-.26-.02-.53-.12-.83-.34-.07-3.14.84-6.12,1.51-9.13Z"/>
  <path class="cls-3" d="m260.57,291.21c-.39-3.27-1-6.5-1.68-9.71.68,3.21,1.29,6.44,1.68,9.71h0Z"/>
  <path class="cls-2" d="m308.38,145.1c-4.63,1.7-9.51,2.4-14.28,3.51-10.72,2.51-21.45,4.97-32.19,7.37-15.57,3.47-31.16,6.84-46.73,10.31-10.26,2.29-20.49,4.67-31.16,6.53l36.74-37.83c-.64-.59-1.27-1.04-1.67-1.99-2.26-5.34-4.71-10.6-7.09-15.89-5.5-12.21-11-24.42-16.48-36.63-3.89-8.67-7.74-17.36-11.6-26.05-.92.82-.46,1.9-.46,2.84-.03,37.7-.02,75.4-.02,113.1,0,2.99-.02,3.07-2.95,2.42-11.34-2.51-22.66-5.1-33.99-7.62-9.85-2.19-19.73-4.26-29.58-6.48-14.34-3.24-28.62-6.74-43.01-9.76-5.37-1.13-10.6-3-16.13-3.37.92.94,1.81,1.92,2.75,2.85.31.31.63.61.96.91,6.52,5.86,13.14,11.61,19.59,17.53,4.49,4.12,8.96,8.27,13.45,12.39,6.9,6.35,13.89,12.61,20.87,18.87,2.73,2.45,5.22,5.16,8.1,7.44,5.73-2.61,11.12-5.85,16.65-8.84,5.05-2.72,10.12-5.41,15.17-8.13,7.94-4.28,15.88-8.56,23.8-12.87.86-.47,1.56-1.35,2.86-.48-1.68,2.77-3.28,5.58-5.04,8.29-12.62,19.4-25.3,38.77-37.92,58.17-10.42,16.03-20.79,32.09-31.21,48.12-.58.9-.97,1.98-1.99,2.54.3.23.58.33.83.34.64.04,1.16-.45,1.68-.82.1-.08.21-.15.32-.21,8.57-4.97,17.1-10.01,25.69-14.94,8.3-4.76,16.68-9.37,25-14.09,4.02-2.28,8.04-4.58,12.05-6.87,4.01-2.3,8.03-4.6,12.04-6.89v-74.17l.48-.15c3.08,4.61,6.2,9.19,9.23,13.83,8.7,13.34,17.36,26.71,26.04,40.07,13.29,20.45,26.57,40.89,39.87,61.33.38.58.52,1.47,1.5,1.42,0,0,0-.02,0-.02.01,0,.02.01.04.02-.39-3.27-1-6.5-1.68-9.71-.34-1.61-.7-3.21-1.05-4.82-.36-1.6-.71-3.21-1.04-4.82-2.15-10.35-4.35-20.7-6.44-31.07-2.18-10.79-4.58-21.53-6.97-32.27-.47-2.08-.02-3.46,1.61-4.9,6.12-5.43,12.05-11.08,18.16-16.51,4.12-3.66,8.09-7.49,12.22-11.14,6.58-5.81,12.94-11.86,19.57-17.6,4.24-3.67,7.91-8,12.65-11.13.2-.13,2.3-.83.79-2.14Z"/>
  <path class="cls-2" d="m108.31,291.89c-.52.38-1.04.86-1.68.82.64.04,1.16-.45,1.68-.82Z"/>
  <path class="cls-1" d="m57.76,145.57c5.53.37,10.76,2.24,16.13,3.37,14.39,3.01,28.67,6.52,43.01,9.76,9.85,2.22,19.73,4.29,29.58,6.48,11.34,2.52,22.66,5.11,33.99,7.62,2.93.65,2.95.57,2.95-2.42,0-37.7,0-75.4.02-113.1,0-.94-.45-2.02.46-2.84-.96-1.75-1.02-.09-1.22.37-4.31,9.53-8.6,19.07-12.89,28.61-7.12,15.83-14.31,31.62-21.28,47.51-1.65,3.77-4.36,5.06-8.11,5.1-.5,0-1.01-.01-1.51.05-8.6.99-17.2,2.03-25.81,2.96-8.62.93-17.26,1.7-25.88,2.6-9.11.95-18.22,1.97-27.32,2.98-.1.01-.2.02-.3.02-.72.04-1.5,0-1.82.93Z"/>
  <path class="cls-1" d="m260.53,291.22c-.98.04-1.12-.84-1.5-1.42-13.3-20.44-26.58-40.88-39.87-61.33-8.68-13.36-17.34-26.73-26.04-40.07-3.03-4.64-6.15-9.22-9.23-13.83l-.48.15v74.17h0c.41.29.79.63,1.22.88,14.91,8.54,29.85,17.02,44.71,25.63,10.33,5.99,20.97,11.44,30.91,18.08.65.43,1.34.43,1.02-.73-.69-.3-.92-.82-.76-1.53Z"/>
  <path class="cls-1" d="m107.79,289.83c10.42-16.03,20.78-32.1,31.21-48.12,12.62-19.4,25.3-38.77,37.92-58.17,1.76-2.71,3.36-5.52,5.04-8.29-1.3-.87-2,.01-2.86.48-7.92,4.31-15.86,8.6-23.8,12.87-5.05,2.72-10.12,5.4-15.17,8.13-5.53,2.98-10.92,6.23-16.65,8.84-1.27,6.37-2.49,12.75-3.82,19.1-2.02,9.64-4.14,19.26-6.18,28.9-2,9.45-4.06,18.89-5.89,28.38-.08.43-.17.86-.27,1.29-.67,3.01-1.58,5.99-1.51,9.13,1.02-.57,1.41-1.65,1.99-2.54Z"/>
  <path class="cls-1" d="m215.18,166.29c15.57-3.47,31.16-6.84,46.73-10.31,10.74-2.4,21.47-4.86,32.19-7.37,4.77-1.12,9.65-1.81,14.28-3.51-.47-.67-1.2-.46-1.84-.51-3.99-.28-8-.59-11.94-1.13-7.26-1-14.56-1.5-21.81-2.41-5.21-.66-10.47-.91-15.65-1.64-8.65-1.22-17.37-1.79-26.02-2.92-3.46-.45-6.99-.43-10.36-1.5l-36.74,37.83c10.66-1.86,20.9-4.25,31.16-6.53Z"/>
  <path class="cls-2" d="m260.57,291.22s-.03,0-.04,0c-.16.71.07,1.24.76,1.53-.3-.48-.02-1.25-.72-1.54,0,0,0,0,0,0h0Z"/>
  <polygon class="cls-2" points="260.57 291.22 260.57 291.22 260.57 291.22 260.57 291.21 260.57 291.21 260.57 291.22"/>
  <path class="cls-2" d="m260.53,291.19s.02.01.03.02l-.03-.02Z"/>
  <path class="cls-2" d="m260.57,291.22h0s-.02-.02-.04-.03l.03.02s0,0,0,0Z"/>
  <path class="cls-2" d="m260.56,291.21s-.03-.02-.03-.02c0,0,0,.02,0,.02.01,0,.03,0,.04,0h0Z"/>
  <polygon class="cls-2" points="260.57 291.22 260.57 291.22 260.56 291.21 260.57 291.22"/>
</svg>