<?xml version="1.0" encoding="UTF-8"?>
<svg id="Calque_2" data-name="Calque 2" xmlns="http://www.w3.org/2000/svg" viewBox="0 0 367.35 358.23">
  <defs>
    <style>
      .cls-1 {
        fill: #ff5f29;
      }
    </style>
  </defs>
  <path class="cls-1" d="m131.14,147.04c-.81-.02-1.7.04-2.73.2-5.73.9-9.39,16.35-10.28,19.95-5.78,23.27-11.7,46.5-17.58,69.75l-22.81,70.98,56.01-35.49s15.07-97.31,6-117.76c-2.2-4.96-3.64-7.79-8.62-7.62Z"/>
  <path class="cls-1" d="m266.8,236.93c-5.87-23.24-11.79-46.48-17.58-69.75-.89-3.6-4.55-19.05-10.28-19.95-1.03-.16-1.92-.22-2.73-.2-4.98-.17-6.42,2.66-8.62,7.62-9.07,20.45,6,117.76,6,117.76l56.01,35.49-22.81-70.98Z"/>
  <path class="cls-1" d="m169.07,81.06c3.6,1.07,7.94,2.37,10.95,3.28.16.05.31.09.46.14,1.33.49,2.39.85,2.92.95.12.02.21.03.28.03.07,0,.15,0,.28-.03.54-.11,1.6-.46,2.92-.95.15-.05.3-.09.46-.14,3-.91,7.35-2.21,10.95-3.28l-3.78-23.88s2.3-6.47-7.71-6.81c-.35-.01-.68-.02-.99-.03h-4.26c-.31.01-.64.02-.99.03-10.01.34-7.71,6.81-7.71,6.81l-3.78,23.88Z"/>
  <path class="cls-1" d="m318.05,76.21c.04-2.42-.02-4.88-.14-7.38-.01-1.32,0-2.62.04-3.89.03-.7-5.88-3.02-7.93-2.11-1.65.74-3.29,1.63-4.86,2.65-2.65,1.47-5.08,3.25-6.69,5.48-.44.61-.75,1.33-.97,2.13-.94,2.39-.95,5.67-.6,8.27.09.66.31,1.3.62,1.94,0,.04,0,.07.01.11.21,2.11,2.49,4.02,3.77,5.91-10.76,4.5-21.06,8.38-30.92,12.92-1.73.6-3.47,1.2-5.21,1.76-.41.13-.87.24-1.36.31-1.75.27-3.46.8-5.01,1.61-1.46-.05-2.88.56-3.65,1.83-1,1.63-2.43,2.89-4.06,3.86-4.35,2.13-9.59,2.53-11.87,2.6.89-.34,1.75-.76,2.58-1.23,4.99-2.35,8.97-6.96,11-9.66.85-1.13.67-2.73-.41-3.65-.72-.61-1.44-1.19-2.17-1.74-5.16-5.21-11.56-8.45-19.05-7.39-3.57-.18-32.63,11.26-32.63,11.26l13.77-10.87c-2.67-.9-16.46-5.01-17.68-5.34,1.33,1.23,2.01,2.4,2.22,3.5-1.49,2.71-2.75,5.16-4.66,6.93-1.19,1.1-2.42,1.93-3.68,2.51-1.55.67-3.12,1.04-4.69,1.08-.05,0-.09,0-.14,0-.05,0-.09,0-.14,0-1.57-.03-3.14-.41-4.69-1.08-1.26-.59-2.49-1.41-3.68-2.51-1.9-1.76-3.17-4.22-4.66-6.93.21-1.1.89-2.26,2.22-3.5-1.22.32-8.44,2.22-9.63,2.53-2.62.68-5.38,1.91-8.05,2.81l13.77,10.87s-29.06-11.44-32.63-11.26c-7.49-1.06-13.89,2.18-19.05,7.39-.73.56-1.46,1.13-2.17,1.74-1.08.92-1.26,2.52-.41,3.65,2.03,2.7,6.01,7.31,11,9.66.83.48,1.69.9,2.58,1.23-2.28-.07-7.52-.47-11.87-2.6-1.62-.97-3.05-2.23-4.06-3.86-.78-1.26-2.19-1.88-3.65-1.83-1.55-.8-3.26-1.33-5.01-1.61-.48-.08-.94-.18-1.36-.31-1.74-.56-3.48-1.15-5.21-1.76-9.86-4.55-20.15-8.42-30.92-12.92,1.27-1.89,3.56-3.8,3.76-5.91,0-.04,0-.07.01-.11.31-.64.53-1.28.62-1.94.35-2.59.35-5.88-.6-8.27-.22-.79-.53-1.52-.97-2.13-1.62-2.23-4.04-4.01-6.69-5.48-1.57-1.02-3.21-1.92-4.86-2.65-2.04-.91-7.95,1.41-7.93,2.11.05,1.27.06,2.57.04,3.89-.12,2.49-.19,4.95-.14,7.38-.09,6.08.18,12.01,2.63,16.58,1.78,5.12,4.64,10.06,9.13,14.83,2.42,2.58,4.9,4.97,7.42,7.22,11.52,11.83,25.91,19.83,45.33,19.88.81,0,1.57,0,2.3-.02,1.01.03,2.01.07,3.04.07,4-.01,6.5-.99,8.16-3.84,1.57-2.06,2.69-5.2,4.02-9.97.11-.38.23-.75.36-1.13,1.38-3.09,2.93-6.11,4.59-9.08,1.29,5.66,1.62,11.34,3,16.39.75,3.59,2.16,6.86,5.17,9.46,1.67,1.67,3.8,3.14,6.57,4.36,3.71,1.63,7.12,2.19,10.33,2.01,6.96.27,13.63-2.49,19.66-8.71.89-.59,1.78-1.18,2.68-1.77.9.59,1.79,1.18,2.68,1.77,6.02,6.21,12.69,8.98,19.66,8.71,3.21.18,6.62-.38,10.33-2.01,2.77-1.22,4.89-2.69,6.57-4.36,3.01-2.61,4.42-5.88,5.17-9.46,1.38-5.05,1.71-10.73,3-16.39,1.66,2.97,3.21,5.99,4.59,9.08.13.37.25.75.36,1.13,1.32,4.77,2.44,7.91,4.02,9.97,1.66,2.85,4.16,3.83,8.16,3.84,1.03,0,2.03-.04,3.04-.07.72.01,1.49.02,2.3.02,19.43-.05,33.81-8.05,45.33-19.88,2.52-2.24,5-4.64,7.42-7.22,4.49-4.77,7.35-9.72,9.13-14.83,2.45-4.56,2.71-10.5,2.63-16.58Z"/>
  <path class="cls-1" d="m217.39,162.83c1.34-5.66,2.48-11.48,3.74-17.35-1.29.5-2.57.96-3.83,1.38-5.71,1.36-11.28,2.59-16.63,2.45-5.84-.54-16.8-7.54-16.99-7.35-.19-.19-11.15,6.81-16.99,7.35-5.35.14-10.92-1.09-16.63-2.45-1.26-.42-2.54-.88-3.83-1.38,1.26,5.88,2.41,11.69,3.74,17.35,3.23,15.28,8.15,29.39,20.2,40.73-.46.47-.92.94-1.39,1.41-3.19-2.51-17.83-14.03-18.8-14.78-.17,16.93-.33,31.84-.48,46.74l12.5,25.33,21.67,43.91,21.67-43.91,12.5-25.33c-.15-14.91-.31-29.81-.48-46.74-.96.76-15.61,12.28-18.8,14.78-.46-.47-.92-.94-1.39-1.41,12.05-11.34,16.97-25.45,20.2-40.73Zm-26.44,25.4c-1.74.2-6.65-2.39-7.27-2.15-.61-.24-5.53,2.35-7.27,2.15-.04,0-.08,0-.12-.01-4.15-.55-6.32-4.46-7.05-6.1,1.71.71,11.09,2.46,14.44-1.24,3.27,3.88,12.73,1.94,14.44,1.24-.74,1.64-2.9,5.55-7.05,6.1-.04,0-.08,0-.12.01Zm-26.87-24.39c2.23,1.04,11.27,4.69,17.76-.72.87-.44,1.48-.86,1.84-1.13.36.27.97.69,1.84,1.13,6.49,5.41,15.53,1.76,17.76.72-.97,2.41-3.83,8.17-9.3,9.13-.27.04-.54.08-.81.1-2.28.19-8.83-3.03-9.49-3.09-.78-.05-7.21,3.29-9.49,3.09-.27-.03-.54-.06-.81-.1-5.46-.97-8.32-6.72-9.3-9.13Z"/>
</svg>