<?xml version="1.0" encoding="UTF-8"?>
<svg id="Calque_1" data-name="Calque 1" xmlns="http://www.w3.org/2000/svg" viewBox="0 0 189.48 189.48">
  <defs>
    <style>
      .cls-1 {
        fill: #020202;
      }

      .cls-2 {
        fill: #393939;
      }

      .cls-3 {
        fill: #030303;
      }

      .cls-4 {
        fill: #444;
      }

      .cls-5 {
        fill: #505050;
      }

      .cls-6 {
        fill: #1d1d1d;
      }

      .cls-7 {
        fill: #4f4f4f;
      }

      .cls-8 {
        fill: #353535;
      }

      .cls-9 {
        fill: #161616;
      }

      .cls-10 {
        fill: #141414;
      }

      .cls-11 {
        fill: #0b0b0b;
      }

      .cls-12 {
        fill: #252525;
      }

      .cls-13 {
        fill: #434343;
      }

      .cls-14 {
        fill: #1f1f1f;
      }

      .cls-15 {
        fill: #070707;
      }

      .cls-16 {
        fill: #010101;
      }

      .cls-17 {
        fill: #3c3c3c;
      }
    </style>
  </defs>
  <path d="m125.03,7.8c.17.05.33.1.5.16.28.51.72.63,1.25.49h0c.19.32.54.41.84.53.73.29,1.44.6,2.1,1.04.48.32,1.08.38,1.61.6.72.29,1.24.87,1.94,1.17.22.09.26.33.26.54,0,.58.12,1.13.27,1.68.24.88.2,1.79.25,2.69.06,1.01.12,2.05.42,3.05.18.62.18,1.27.05,1.88-.26,1.22-.43,2.45-.59,3.68-.08.58-.37,1.12-.29,1.73.02.15-.07.28-.16.41-.73,1.1-1.37,2.26-2.39,3.15-.52.45-.93,1.03-1.13,1.73-.2.68-.87.95-1.31,1.42-1.07,1.15-2.25,2.2-3,3.64-.35.67-.89,1.28-1.46,1.81-1.2,1.12-1.83,2.54-2.32,4.07-.19.59-.33,1.22-.75,1.72-.17.2-.27.46-.23.71.13.72-.25,1.28-.49,1.9-.48,1.28-1.03,2.53-1.34,3.87-.03.15-.06.3-.19.39-.54.37-.77.91-.89,1.54-.13.66-.31,1.3-.75,1.85-.27.34-.41.79-.42,1.24-.02.61-.48,1.02-.68,1.55-.18.47-.34.95-.52,1.42-.51,1.38-1.48,2.54-1.98,3.93-.67,1.84-1.93,3.41-2.51,5.25-.43,1.36-1.04,2.72-.85,4.28.11.85.08,1.76-.04,2.64-.06.46.02.93.2,1.36-.12.71.43,1.12.76,1.63.38.51.53,1.09.57,1.73.06.89.56,1.67.82,2.51.17.55.09,1.03-.36,1.35-.58.42-.83.99-.98,1.63-.08.34-.2.58-.56.69-.19.05-.32.19-.42.36-.55.87-1.27,1.56-2.15,2.08-.57.33-.9.95-1.49,1.24-.53-.15-.93.08-1.26.48-.12.08-.2.19-.26.32-.3.39-.77.68-.68,1.27-.36.6-.62,1.23-.85,1.89-.18.49-.37.96-.5,1.47-.22.91.41,1.6,1.34,1.46.39-.06.77-.18,1.18-.17.46.01.83.29.82.64-.02.82.63,1.15,1.02,1.67.99,1.35,2.25,2.44,3.57,3.46.47.36.81.87,1.17,1.33.65.84,1.58,1.32,2.42,1.9.65.45,1.21,1,1.96,1.35.87.4,1.74.82,2.64,1.11.8.26,1.58.68,2.47.67,1.03,0,2.06.09,3.07-.07.37-.06.69-.34.58-.83-.04-.19-.04-.38.01-.56.06-.23-.03-.36-.26-.42-.49-.12-.82-.5-1.21-.79-.22-.17-.42-.35-.72-.36-.21,0-.39-.08-.39-.32,0-.25.14-.5.39-.52,1.4-.06,2.71-.83,4.16-.45.44.11.83-.12,1.18-.35.42-.27.85-.29,1.33-.22.72.1,1.41.05,1.92-.58.45-.13.9-.07,1.35-.08.39.02.8,0,1.15.2.24.14.38-.08.57-.13.22-.06.47,0,.68-.12.4-.09.78-.26,1.2-.21.45.65,1.01.1,1.5.09.45,0,.92-.1,1.37-.2.99-.22,1.61.27,1.58,1.31-.03.9-.22,1.79-.37,2.68-.03.16-.1.32-.12.49-.05.61,0,1.16-.9,1.37-.59.14-1.01.9-1.51,1.38-.58.54-1.13,1.12-1.75,1.63-.86.71-1.32,1.72-1.84,2.68-.23.43-.41.88-.86,1.14-.05.03-.14.06-.14.12-.14,1.12-1.41,1.4-1.73,2.38-.27.81-.7,1.54-.85,2.4-.17.98-.5,1.94-.88,2.87-.33.8-.19,1.65-.21,2.49-.03,1.02.2,2.06-.14,3.07-.28.8-.74,1.44-1.55,1.78-.39.16-.7.12-.92-.25-.13-.22-.24-.44-.37-.66-.58-1.01-1.09-2.03-2.32-2.5-.69-.26-1.17-.97-1.92-1.24-.26-.09-.5-.21-.78-.16-.1,0-.19-.05-.25-.13-.09-.49-.32-.84-.82-1.02-.33-.12-.61-.34-.81-.64-.38-.56-.98-.89-1.42-1.39-.44-.5-1.16-.24-1.71-.55-.68-.37-1.41-.64-2.17-.79-.29-.06-.54-.2-.76-.42-.37-.37-.85-.3-1.32-.26-.79.07-1.38-.22-1.91-.82-.49-.56-.9-1.16-1.25-1.82-.15-.29-.39-.53-.69-.63-1.06-.37-1.65-1.21-2.1-2.15-.55-1.16-1.31-2.21-1.9-3.35-1.08-2.09-2.23-4.16-2.89-6.44-.07-.25-.23-.45-.4-.63-.28-.3-.45-.65-.55-1.05-.31-1.16-1.18-1.76-2.2-2.22-.52-.24-.99-.59-1.64-.37-.45.15-.87.37-1.36.44-.38.06-.37.46-.17.77.24.37.63.49,1.04.5,2.01.02,2.73,1.48,3.48,2.99.37.75.39,1.59.81,2.3.29.5,0,.85-.38,1.13-.34.25-.63.08-.87-.22-.67-.86-1.18-1.77-1.03-2.92.06-.49.03-1.06-.45-1.29-.56-.26-.98.16-1.33.57-.09.04-.19.04-.28,0-.44-.53-.67-.55-1.05,0-.36.52-.81.57-1.24.23-.56-.44-1.23-.63-1.82-.98-.34-.21-.67-.14-1.02.04-.32.17-.71.32-.96-.08-.26-.41.01-.76.33-.97.6-.42,1.23-.8,2.02-.73.33.03.63-.1.84-.35.21-.24.25-.57-.03-.72-.45-.23-.85-.51-1.24-.83-.11-.09-.29-.11-.43-.07-1.43.34-2.86.69-3.51,2.24-.23.55-.55,1.04-.82,1.56-.17.32-.35.64-.37,1-.03.51-.17.92-.6,1.26-.41.33-.43.91-.59,1.37-.3.88-.72,1.67-1.19,2.48-.59,1.03-1.21,2.06-1.63,3.18-.32.84-.84,1.55-1.41,2.23-.1.12-.21.21-.35.26-1.22.54-1.91,1.52-2.29,2.76-.17.55-.76.69-1.11,1.09-.18.2-.34.4-.47.63-.07.06-.16.09-.26.1-.98-.58-1.88-.08-2.79.21-.33.1-.18.49-.4.67-.24.13-.49.26-.77.12-.53-.55-.68-.58-1.29-.07-.35.29-.76.54-1.13.65-.86.25-1.21,1.15-2.04,1.42-.32.1-.25.59-.4.89-.29.24-.74,0-1.01.33-.05.03-.1.07-.14.1-.49.28-1.02.47-1.53.71-.32.36-.74.53-1.2.64-1.32.34-2.13,1.3-2.25,2.63-.11,1.21-1.31,1.94-2.4,1.45-.2-.09-.37-.24-.42-.45-.22-.96-.49-1.93-.24-2.93.34-1.36-.05-2.66-.3-3.98-.2-1.08-.39-2.15-.79-3.17-.23-.59-.37-1.21-.61-1.79-.26-.62-.65-1.12-1.3-1.48-.84-.48-1.27-1.43-1.58-2.28-.49-1.33-1.45-2.2-2.49-3.01-.31-.24-.48-.74-1-.69-.06-.02-.12-.05-.17-.09-.08-.52-.29-.89-.91-.73-.33-.19-.62-.42-.75-.8.14-.43.02-.74-.41-.9-.19-.07-.31-.21-.38-.4-.11-.3-.3-.5-.63-.55-.18-.03-.39-.15-.37-.29.12-.64-.24-1.34.26-1.91.13-.15.23-.3.25-.5.06-.73.52-1.11,1.18-1.28.23-.06.47-.12.6-.32.38-.56.88-.48,1.41-.3.28.09.55.25.81-.05.06-.02.12-.03.18-.03.33.42.89.42,1.3.7.32.22.49-.19.73-.29.13-.04.26-.03.39.03.31.44.68.62,1.16.23.08-.07.23-.12.29-.05.46.48.7.05.98-.22.24-.06.48-.06.72-.02.88.62,1.86.62,2.69,0,.2-.05.4-.03.6.04.25.56.85.66,1.27.98.69.54,1.33.41,2.08.35.81-.07,1.64-.04,2.38.43.18.12.41.08.62.1.44.03.66.31.6.73-.05.43-.37.65-.78.51-.77-.28-1.45.09-2.16.22-.3.05-.57.22-.91.2-.29-.02-.48.13-.51.44-.06.68.61,1.41,1.29,1.35.49-.04.95-.07,1.42.13.4.18.77-.17,1.17-.14,1.24.13,2.33-.45,3.38-.9,1.17-.5,2.41-.87,3.48-1.64.37-.27.56-.67.91-.92,1.6-1.15,2.9-2.67,4.56-3.74.12-.08.24-.19.31-.31.82-1.34,2.03-2.41,2.68-3.86.22-.5.56-.64,1.04-.62.17,0,.34,0,.51,0,.6.01,1.21-.08,1.46-.67.25-.59.04-1.16-.3-1.73-.43-.73-.95-1.44-1.16-2.29-.02-1.12-.9-1.31-1.71-1.58-.55-.47-1.13-.9-1.77-1.23-.41-.22-.59-.62-.88-.92-.7-.72-1.48-1.36-2.08-2.19-.44-.6-.58-1.37-1.15-1.88-.06-.71-.05-1.41-.08-2.12.26-.97.65-1.88,1.19-2.74.63-1.01.86-2.19,1.01-3.37.16-1.34.46-2.71.06-4.02-.33-1.09-.45-2.24-1.09-3.26-.31-.5-.61-1.1-.67-1.75-.06-.65-.58-1.06-.86-1.6-.64-1.21-1.23-2.45-1.75-3.72-.4-.98-1.13-1.78-1.5-2.77-.46-1.24-1.18-2.37-1.37-3.73-.19-1.41-.85-2.69-1.58-3.9-.15-.24-.26-.48-.28-.76,0-.19-.01-.4-.12-.55-.53-.7-.52-1.59-.89-2.35-.33-.68-.72-1.35-.93-2.07-.28-.92-.72-1.8-.84-2.77-.03-.3-.08-.59-.17-.87-.28-.97-.63-1.85-1.6-2.39-.84-.46-1.49-1.14-1.9-2.05-.52-1.16-1.49-1.97-2.33-2.89-.91-1-1.67-2.11-2.49-3.19-.32-.42-.65-.81-1.07-1.15-.52-.42-1.03-.87-1.18-1.59-.11-.5-.58-.68-.97-.9-.05-.1-.05-.2-.02-.3.3-.35.22-.77.15-1.15-.19-1.1-.31-2.21-.52-3.3-.27-1.45-.29-2.87.06-4.33.25-1.02.32-2.09.21-3.15-.03-.24.01-.45.1-.67.3-.71.49-1.43.38-2.22-.08-.55.46-1.27,1.14-1.51,1.9-.68,3.58-1.83,5.47-2.51.98-.35,1.96-.73,2.95-1.05,1.18-.39,2.41-.61,3.51-1.32.58-.38,1.39-.64,2.17-.69.87-.05,1.6-.51,2.39-.8.12-.04.23-.11.36-.14,2.1-.52,4.21-1.01,6.32-1.48.37-.08.76-.04,1.14-.04.23,0,.5.06.69-.04,1.31-.69,2.75-.4,4.13-.61.82-.12,1.54-.65,2.4-.6.9.04,1.81.02,2.71.04.84.1,1.67.1,2.51,0,1.01-.01,2.03.06,3.04-.02.87.22,1.76.01,2.64.05,2.74.12,5.44.62,8.15.93,2.57.29,4.99,1.07,7.45,1.71.92.24,1.85.54,2.73.98,1.39.69,2.93,1.01,4.41,1.48.62.2,1.19.53,1.84.64.31.06.61.09.92.05Z"/>
  <path d="m127.68,8.71c1.91.81,3.8,1.66,5.65,2.6.29.15.43.31.5.63.21.98.46,1.94.47,2.95.31.14.39.41.45.71.21.99.38,2,.42,3.01.07,1.75.22,3.51-.09,5.24-.38,2.16-.82,4.32-2.11,6.18-.14.21-.28.42-.46.61-.18.23-.4.42-.51.69-.44.44-.81.93-1.26,1.36-.6.67-1.09,1.42-1.64,2.13-.79,1.01-1.76,1.87-2.5,2.92-.94,1.11-1.75,2.32-2.56,3.53-.93,1.4-1.54,2.93-2.03,4.53-.03.1-.08.19-.13.28-.54,1.65-1.03,3.31-1.73,4.91-.08.58-.43,1.06-.63,1.6-.67,1.47-1.18,3.02-1.88,4.48-.44,1.37-.92,2.72-1.51,4.03-.35.37-.34.92-.65,1.31-.48,1.01-1.16,1.91-1.67,2.9-.14.35-.28.7-.52,1-.16.48-.42.92-.63,1.38-.91,2.04-1.63,4.16-1.5,6.4.11,1.96.26,3.96,1.34,5.72.37.6.49,1.3.67,1.96.15.77.13,1.57.4,2.32,0,.06-.02.13-.03.19,0,.23.02.51-.21.63-1.12.57-1.5,1.77-2.3,2.62-.07.08-.13.16-.21.23-.64.59-1.18,1.28-1.92,1.75-.96.88-2.04,1.63-2.94,2.6-.68.74-1.2,1.57-1.61,2.49-.13.29-.21.6-.2.92.02.51.21.67.72.64,1.74-.11,2.03.06,2.73,1.67.22.5.41,1.02.73,1.47.68.93,1.6,1.62,2.48,2.34,1.3,1.05,2.35,2.36,3.65,3.42.91.74,1.87,1.38,2.95,1.83.25.11.5.22.71.41.76.76,1.66,1.24,2.73,1.41.27.04.39-.2.6-.26.06,0,.12,0,.18.02.27.27.58.43.97.43.61-.01,1.2-.23,1.84-.07.33.08.58-.22.63-.58.07-.46-.06-.88-.49-1.06-.31-.14-.54-.3-.76-.55-.31-.35-.72-.28-1.1-.06-.16.09-.3.24-.47.31-.51.22-.92.07-1.09-.38-.23-.61-.05-1.04.53-1.17.92-.22,1.8-.6,2.79-.47.53.07.89-.32,1.25-.63.98.26,1.95.32,2.87-.23.3-.18.67-.05,1-.05.58,0,1.18.01,1.63-.47.25-.01.43.06.47.33-.09.31-.34.41-.62.47-.58.14-1.17.18-1.76.11-.17-.02-.37-.08-.49.05-.73.79-1.64.46-2.49.41-.21-.01-.45-.08-.61.08-.42.44-.96.38-1.48.38-.17,0-.34-.01-.51,0-.28.02-.71-.08-.73.3-.02.34.4.16.61.22.24.08.55.08.65.34.31.79,1.75.85,1.33,2.09,0,.02,0,.04,0,.06-.03.8-.29,1.05-1.1,1.03-1.19-.03-2.42.05-3.57-.18-.76-.15-1.65-.12-2.28-.76-.22-.22-.55-.25-.82-.3-.71-.12-1.29-.52-1.92-.81-.13-.06-.29-.12-.37-.22-.56-.74-1.37-1.16-2.15-1.59-.9-.5-1.51-1.29-2.13-2.03-.48-.58-1.02-1.08-1.62-1.47-.79-.5-1.26-1.28-1.91-1.9-.48-.46-.8-1.08-1.37-1.46-.24-.16-.26-.41-.27-.67-.01-.64-.22-.82-.86-.74-.27.03-.53.14-.8.19-.84.16-1.73-.37-1.74-1.14-.03-1.56.67-2.88,1.49-4.14.08-.52.46-.91.63-1.39.03-.16.12-.29.25-.38.47-.09.86-.51,1.39-.38.82-1.09,2.17-1.58,3.02-2.64.17-.21.39-.38.43-.68.02-.18.14-.35.31-.37.55-.07.66-.45.79-.91.16-.56.34-1.13.96-1.42.34-.16.41-.53.33-.88-.06-.27-.16-.52-.26-.78-.32-.82-.71-1.62-.64-2.55.04-.44-.26-.74-.5-1.06-.08-.21-.1-.38-.42-.49-.54-.18-.34-.73-.34-1.16-.2-.34-.27-.7-.25-1.09.04-1.32.04-2.64.02-3.97-.01-.68.18-1.37.5-2,.05-.09.12-.19.13-.29.07-1.53,1.1-2.64,1.66-3.96.26-.62.68-1.16.83-1.87.15-.71.62-1.38.99-2.02.75-1.29,1.25-2.68,1.89-4.02.39-.83.47-1.76.93-2.52.52-.86.82-1.77.97-2.75.02-.12.09-.26.19-.32.64-.36.74-1.02.95-1.63.39-1.13.75-2.28,1.24-3.37.25-.56.41-1.08.36-1.68-.05-.59.46-.92.65-1.4.4-1.04.68-2.11,1.2-3.11.47-.9,1.11-1.63,1.79-2.34.76-.8,1.38-1.73,1.91-2.68.35-.62.88-1.01,1.34-1.48.61-.63,1.15-1.35,1.9-1.84.14-.09.25-.3.3-.47.24-.87.84-1.49,1.46-2.09.58-.57,1.08-1.2,1.46-1.93.1-.2.26-.38.41-.56.26-.33.45-.66.32-1.1-.03-.1-.05-.23-.01-.31.65-1.3.4-2.78.8-4.14.26-.85.34-1.74-.12-2.59-.18-.34.03-.7-.03-1.06-.16-.9-.36-1.81-.2-2.74.1-.58-.15-1.13-.29-1.67-.13-.5-.23-.98-.22-1.49,0-.15.01-.34-.12-.41-.86-.47-1.52-1.28-2.53-1.49-.53-.11-.99-.34-1.48-.59-.56-.29-1.04-.77-1.69-.89-.35-.07-.62-.28-.64-.68.29.09.59.18.88.26Z"/>
  <path d="m93.85,2.35h-2.53c-.68-.14-1.37-.02-2.05-.07-.25-.02-.5.06-.74-.06-.41.01-.8.09-1.16.27-.98.49-2.02.57-3.08.41-.38-.06-.71,0-1.02.21-.34.24-.74.37-1.13.35-1.74-.08-3.35.54-5.02.79-1.03.16-1.95.66-3.03.7-.66.02-1.3.54-1.95.84-.12.05-.24.16-.35.14-.81-.13-1.49.33-2.23.5-.44.1-.82.46-1.23.7-.14.08-.29.21-.45.22-1.14.11-2.15.72-3.28.83-.2.02-.35.13-.49.26-.09.08-.2.23-.29.23-.72-.02-1.22.59-1.91.65-.59.05-1.08.42-1.52.73-.9.63-1.95.89-2.92,1.33-.91.41-1.19.74-1.14,1.75.03.47-.05.94-.24,1.36-.24.54-.28,1.08-.27,1.66.02,1.18-.13,2.34-.42,3.5-.21.83-.14,1.72-.01,2.58.2,1.33.48,2.64.65,3.97.06.46.31,1.09-.4,1.37-.47,0-.51-.39-.59-.69-.34-1.25-.76-2.48-.72-3.8-.01-.04-.03-.08-.03-.12.2-1.42.13-2.85,0-4.27-.04-1.58.53-3.08.57-4.65.2-.58.2-1.2.34-1.79.17-.7.54-1.14,1.18-1.45,1.46-.71,2.92-1.4,4.41-2.02.25-.11.52-.18.74-.34,1.1-.52,2.29-.82,3.43-1.24,1.02-.38,2.05-.74,3.06-1.16.59-.36,1.29-.38,1.91-.64.68-.38,1.46-.5,2.19-.74.2-.07.37,0,.53.09.62-.07,1.19-.34,1.77-.54,1.39-.37,2.79-.75,4.18-1.12.84-.17,1.69-.35,2.53-.52.43-.02.82-.32,1.27-.24,2.57-.29,5.13-.7,7.73-.79.64-.09,1.29-.02,1.93-.04,1.69,0,3.37,0,5.06,0,.21,0,.42-.04.62.05,3.63,0,7.21.43,10.76,1.12,1.72.3,3.4.74,5.09,1.18.46.12.89.33,1.37.36.59.21,1.18.42,1.77.63.82.18,1.62.47,2.41.76.81-.23,1.4-.03,1.9.63,1.31.51,2.63,1.02,3.94,1.54-.23.32-.5.33-.88.26-.97-.18-1.84-.71-2.79-.89-.88-.17-1.63-.69-2.52-.77-.37-.03-.68-.23-.99-.4-1.34-.73-2.82-1.07-4.26-1.47-1.07-.3-2.13-.62-3.22-.87-.57-.13-1.07-.36-1.71-.24-.55.1-1.17-.09-1.74-.21-2.38-.5-4.78-.74-7.2-.86-.91-.04-1.81.06-2.71.02-1.06-.11-2.11-.11-3.17,0Z"/>
  <path d="m126.78,8.44c-.2.27-.44.44-.8.31-.38-.14-.45-.45-.46-.8.43.13.87.25,1.25.49Z"/>
  <path d="m93.38,182.86c.13,1.26.13,2.53.33,3.79.07.45.04,1.01-.4,1.23-.51.26-.91-.19-1.26-.52-.68-.66-1.07-1.5-1.46-2.35-.18-.38-.36-.76-.54-1.14-.27-.8-.6-1.58-1-2.33-.37.06-.47-.2-.57-.46-.43-1.03-.5-2.13-.62-3.22-.2-1.8-.56-3.53-1.49-5.12-.62-1.06-.72-2.34-1.28-3.43-.09-.18-.13-.48-.37-.44-.27.04-.17.34-.18.54-.02.29,0,.59,0,.89,0,.44-.02.89-.48,1.09-.51.21-1.04.19-1.51-.15-.45-.33-.67-.79-.79-1.33-.26-1.17-.05-2.32.08-3.48.11-.96-.08-1.87-.31-2.78-.37-1.12-.67-2.25-.85-3.42-.18-1.17.04-1.54,1.15-1.95.66-.24,1.34-.37,2.03-.41,1.26-.06,2.05.72,2.77,1.61.1.13.17.29.29.41.47.58.76,1.25,1.01,1.95.89,2.54,1.6,5.14,2.3,7.74.13.47.18.95.31,1.42.18,1.63,1.22,2.9,1.83,4.34.1.23.2.46.23.72.54,1.08.73,2.23.7,3.42-.02.53.08,1.05.15,1.57.09.61.14,1.2-.05,1.8Z"/>
  <path d="m99.7,183.25c-.39.83-.77,1.67-1.17,2.5-.33.69-.73,1.33-1.31,1.83-.29.25-.63.52-1.02.31-.34-.19-.46-.56-.45-.97.04-1.17.08-2.33.25-3.49.03-.18,0-.38-.01-.56-.16-.27-.19-.57-.13-.86.25-1.18.21-2.39.3-3.58.06-.74.28-1.39.63-2.02.18-.8.49-1.57.94-2.25.7-1.06,1.02-2.24,1.28-3.45.57-2.13.92-4.32,1.68-6.39.36-.97.65-1.95,1.02-2.92.13-.35.3-.69.53-1,.39-.52.71-1.09,1.18-1.56.75-.76,1.6-1.13,2.68-.89.6.13,1.21.2,1.78.43.32.13.7.21.84.6.24,1.58-.23,3.07-.72,4.52-.34,1.03-.42,2.05-.38,3.11.04,1.01.22,2.02.09,3.04-.14,1.16-.7,1.79-1.65,1.83-.72.03-1.15-.34-1.23-1.07-.03-.32-.01-.63.03-.95.03-.2.13-.49-.14-.54-.24-.05-.33.24-.4.43-.27.76-.54,1.51-.78,2.27-.11.34-.19.7-.38,1-1.07,1.76-1.52,3.68-1.67,5.71-.08.98-.11,1.99-.61,2.89-.14.25-.2.58-.58.6-.27.44-.49.9-.62,1.39Z"/>
  <path d="m77.38,84.37c.14.16.37.3.4.47.13.69.7,1.11.99,1.7.15.29.35.58.74.63.21.03.3.19.4.36.62.98,1.42,1.77,2.48,2.26.28.13.49.31.68.54.69.54,1.68.74,1.9,1.77,0,.44.26.77.46,1.14.4.76,1.08,1.39,1.07,2.37-.01.93-.06,1.05-.93,1.4-.32.13-.65.2-.99.15-.65-.08-1.16.07-1.41.74-.21.55-.52,1.06-.9,1.49-.73.81-1.22,1.83-2.03,2.52-1.22,1.04-2.45,2.08-3.67,3.12-.86.73-1.62,1.65-2.7,2.14-.54.25-1.15.26-1.65.61-1.04.72-2.32.84-3.44,1.38-.36.17-.7.03-1.04-.07-.15-.14-.21-.31-.14-.51.09-.16.19-.3.37-.37,3.17-.65,6.01-1.93,8.27-4.32.91-.97,1.97-1.77,2.92-2.7.07-.15.23-.19.34-.3.57-.43,1.08-.9,1.49-1.48.49-.65.77-1.4,1.12-2.12.47-.97,1-1.25,2.09-1.13.84.09,1.05-.09.98-.91-.11-1.25-.86-2.17-1.64-3.06-1.02-1.17-2.31-2.03-3.47-3.03-1.08-.93-2.02-1.97-2.79-3.16-.28-.44-.59-.82-1.08-1.02-.35-.15-.48-.39-.32-.76.18-.81.27-1.64.45-2.45.1-.47.3-.9.43-1.36.03-.19.09-.37.18-.54,1.7-3.52,1.54-7.13.45-10.75-.32-1.08-.84-2.11-1.47-3.06-.2-.19-.14-.49-.28-.71-.33-.48-.58-1-.87-1.51-.01-.74-.28-1.33-.99-1.66-.73-1.64-1.27-3.35-1.95-5.01-.61-1.5-1.28-2.99-1.95-4.46-.46-.91-.71-1.89-1.03-2.86-.35-1.14-.89-2.22-1.15-3.39-.5-1.57-1.15-3.08-1.92-4.54-.19-.36-.17-.85-.6-1.07-.78-.82-1.35-1.8-2.02-2.7-.15-.2-.24-.44-.49-.56-.47-.69-1.01-1.33-1.61-1.93-.61-.79-1.3-1.52-1.87-2.35-.72-.78-1.28-1.69-2.02-2.44-.79-.72-1.16-1.7-1.57-2.65-.06-.14-.01-.29.15-.37.73.06,1.09.34,1.23,1.03.12.6.57.96,1,1.25.77.52,1.15,1.32,1.71,2,.58.71,1.09,1.48,1.72,2.17,1.07,1.17,2.21,2.3,2.9,3.78.36.78,1.19,1.1,1.87,1.54.16.1.35.14.45.32.47.88.9,1.77,1.01,2.78.06.55.21,1.06.45,1.57.27.56.25,1.21.61,1.77.35.54.6,1.17.77,1.79.27,1.01.88,1.89.99,2.95.02.15.14.3.22.44.88,1.5,1.6,3.05,1.73,4.82.02.22.08.47.2.66.48.7.74,1.51,1.11,2.26.76,1.56,1.65,3.05,2.31,4.66.35.86.72,1.75,1.36,2.47.2.23.38.54.37.86-.01.67.35,1.27.66,1.74.7,1.06.77,2.28,1.12,3.41.4,1.3.1,2.68-.05,4.02-.13,1.2-.42,2.36-.98,3.44-.25.5-.57.95-.8,1.47-.17.4-.34.76-.32,1.19-.33.45-.2.97-.16,1.44.02.23.04.49.16.71Z"/>
  <path d="m96.64,105.52c-.7-.01-.94.55-1.23,1.02-.17.27-.29.56-.45.83-.15.26-.31.26-.45,0-.18-.33-.33-.68-.53-1.01-.47-.79-.99-1.04-1.84-.8-.64.18-.78.8-.93,1.32-.28.99-.61,1.96-.96,2.92-.21.57-.59.99-1.1,1.34-.6.41-1.26.81-1.4,1.62-.06.32-.09.65-.3.91-.49.49-.77,1.14-1.25,1.64-1.09,1.25-2.34,2.34-3.53,3.49-.27.38-.59.7-.98.96-.24.16-.48.28-.75.08-.3-.22-.2-.52-.1-.8.1-.3.31-.54.49-.8.88-.8,1.66-1.7,2.5-2.54.46-.7,1.05-1.31,1.43-2.06.09-.17.21-.31.25-.51.54-1.21.92-2.49,1.41-3.72.08-.19.19-.38.23-.59.58-1.12,1.11-2.26,1.51-3.41-.62.9-.99,1.96-1.38,3.01-.16.26-.16.59-.31.85-.43,1.27-1.09,2.42-1.78,3.56-.46.85-.91,1.7-1.49,2.48-.09.09-.22.15-.26.27-.41,1.08-1.22,1.83-2.06,2.57-.76,1.06-1.67,1.98-2.66,2.82-.29.25-.67.57-1.08.12.03-.63.54-.91.95-1.26.17-.15.38-.25.43-.51.23-1.14.94-2.03,1.86-2.57.97-.57,1.61-1.35,2.01-2.32.47-1.13,1.01-2.23,1.65-3.24.78-1.23,1.06-2.66,1.75-3.87.87-1.53,1.22-3.31,2.36-4.69.33-.41.7-.78,1.06-1.17.06-.06.14-.15.2-.14.76.12,1.34-.49,2.08-.49.48,0,.94-.02,1.17.53.07.17.26.19.43.23.74.19.98.78.51,1.37-.3.37-.73.58-1.22.53-.75-.08-1.32.3-1.88.69-.16.11-.35.33-.19.53.13.16.37.04.52-.06.54-.37,1-.28,1.57.04.56.31,1.16.56,1.68.96.22.16.51.19.66-.1.16-.32.47-.48.69-.73.14-.16.3-.33.54-.22.26.12.29.34.23.59-.02.1-.03.21-.05.31Z"/>
  <path d="m101.67,112.76c-.03-.75-.57-1.15-1.13-1.48-.85-.51-1.29-1.27-1.58-2.18-.28-.89-.59-1.78-.88-2.67-.19-.58-.47-1.05-1.2-.92.11-.67.67-.88,1.19-.94.56-.06.72.47.86.93.12.41.24.79.03,1.22-.13.26.05.54.15.79.23.53.38,1.11.85,1.51.13.11.15.43.4.26.22-.15.49-.38.35-.68-.58-1.29-.84-2.69-1.65-3.9-.63-.94-1.46-1.27-2.5-1.32-.54-.03-.98-.24-1.3-.68-.38-.53-.18-1.23.41-1.28.67-.05,1.2-.55,1.89-.48.08,0,.19-.07.24-.04.65.41,1.57.28,2.04,1.03.14.23.41.3.58.47.42.41.86.81.9,1.47.01.2.09.44.22.58,1.08,1.23,1.21,2.88,1.92,4.26.65,1.25,1.24,2.53,1.98,3.74.62,1.02,1.2,2.06,1.76,3.12.37.7.81,1.31,1.61,1.6.5.18.92.53,1.12,1.06.28.73.81,1.29,1.34,1.81.3.3.77.55,1.31.48.71-.09,1.44-.17,1.95.54.07.09.22.17.33.17.92-.05,1.56.68,2.4.83.85.15,1.7.22,2.15,1.1.54-.03.65.4.84.77.16.31.37.56.78.66.66.17.79.45.79,1.24-.13.06-.25.02-.35-.08-.24-.75-.32-.81-1.04-.78-.06,0-.12,0-.19,0-.67-.25-1.18-.78-1.79-1.13-1.39-1.04-2.99-1.57-4.66-1.94-.24-.05-.49-.1-.73-.19-2.08-.11-3.29-1.54-4.51-2.96-.16-.41-.5-.66-.8-.96-.55-.54-1.04-1.12-1.44-1.78-.66-.73-1.16-1.56-1.63-2.42-.1-.18-.17-.38-.32-.52-.79-1.5-1.63-2.98-2.21-4.58-.02-.43-.15-.84-.35-1.22-.34-.98-.96-1.81-1.54-2.66-.28-.44-.48-.91-.71-1.37-.37-.72-.93-1.05-1.74-.96-.3.04-.62-.05-.96.08.41.12.79.04,1.16.15.91.28,1.67.73,2.02,1.67.07.18.16.34.28.49.65.86.8,1.94,1.21,2.91.14.33.29.65.46.96.09.33.27.61.53.84.48,1.44,1.08,2.84,1.63,4.25.55,1,1.31,1.85,2.1,2.66.9.75,1.59,1.69,2.31,2.6.04.07.07.15.11.22.14.25.23.52-.03.73-.27.23-.58.19-.86-.02-.08-.06-.14-.15-.21-.23-.31-.27-.62-.54-.87-.87-1.12-1.09-2.36-2.06-3.36-3.27-.2-.24-.53-.38-.6-.73-.15-.43-.45-.79-.71-1.13-.2-.27-.32-.53-.4-.83Z"/>
  <path d="m49.75,109.6c-.88-.84-1.92-1.45-2.92-2.13-.26.12-.46-.01-.62-.18-1.61-1.66-2.91-3.52-3.55-5.78-.16-.49-.41-.95-.56-1.44-.08-.25-.22-.51.06-.74.19.02.42.03.52.2.5.86,1.35,1.36,1.99,2.06.17.18.24.39.2.64-.03.21-.05.42-.06.63,0,.14-.04.35.15.37.2.02.19-.18.21-.32.04-.24-.02-.51.35-.58.28-.05.08-.22.01-.32-.22-.32-.15-.65-.13-1.02.05-.9.23-1.79.03-2.73-.13-.59-.42-1.18-.33-1.82.04-.27-.15-.42-.3-.6-.42-.5-.67-1.02-.79-1.72-.15-.87.03-1.7-.03-2.54-.04-.58-.11-1.17-.24-1.74-.08-.37-.05-.62.3-.78.63.12.39.68.53,1.05.29.64.25,1.35.46,2,.2,1.5.75,2.91,1.25,4.32,0,.19,0,.38.11.55.15.35.08.78.38,1.07.08.1.09.22.11.33.05.22.15.42.31.59,1.22,1.14,2.29,2.45,3.76,3.31.25.28.63.29.93.46.2.11.5.16.39.52-.15.45-.48.41-.82.28-.49-.19-.93-.25-1.26.3-.13.22-.42.26-.67.31-.65.12-.88.39-.94,1.05,0,.06.01.16-.02.18-.56.47-.41,1.14-.53,1.74-.06.3-.14.44.25.39.42-.05.62.21.67.59.04.28.15.47.42.58.45.18.51.52.36.93Z"/>
  <path d="m57.97,122.02c-.28-1.48-.82-2.86-1.63-4.12-.87-1.37-1.8-2.7-2.88-3.92-.79-.9-1.47-1.9-2.19-2.86.92.14,1.53.78,2.19,1.35.03.03.04.08.07.11,1.41.98,1.54,2.75,2.48,4.02.13.18.26.36.46.4.87.18,1.3.89,1.51,1.57.45,1.46,1.18,2.83,1.33,4.38.07.75.33,1.47.43,2.22.12.93.23,1.83-.03,2.75-.25.89.06,1.76.26,2.61.11.47,1.37.47,1.8.02.25-.26.4-.57.42-.96.08-1.45,1.07-2.6,2.51-2.89.48-.1.8-.33,1.03-.74.61-.05,1.22-.12,1.65-.63.28-.16.55-.43.88-.07.24.31.01.49-.2.66-.8.63-1.61,1.24-2.4,1.89-.91.66-1.75,1.37-2.1,2.5-.1.39.02.79-.08,1.17-.06.2-.02.45-.23.59-.56.57-1.33.37-2,.54-.21.05-.43.07-.62.19-.35.04-.71.12-.98-.2-.36-.62-.54-1.32-.85-1.96-.34-.7-.4-1.41-.34-2.15.04-.47,0-.94,0-1.4.22-1.54.1-3.04-.45-4.5-.07-.18-.03-.37-.02-.56Z"/>
  <path d="m61.29,103.79c1.68.29,3.36.58,5.04.86.58.1,1.15.27,1.69.49.26.11.47.28.66.48.67.73.44,1.45-.53,1.7-.64.08-1.29.08-1.94,0-.23,0-.46.01-.69-.02-.56-.08-.76.25-.79.71-.04.51.43.32.67.43.05.02.12.02.19.02.71.14,1.45-.09,2.16.12,0,.16,0,.32,0,.49-.59.31-1.17.46-1.77,0-.17-.13-.36.01-.54.06-1.11.27-2.25-.89-1.96-1.99.09-.35.37-.48.67-.46.78.06,1.46-.31,2.2-.44.36-.06.69-.17,1.03.03.15.09.32.13.47,0,.11-.1.11-.22.06-.35-.09-.22-.27-.24-.47-.2-.24.05-.46,0-.66-.14-.77-.53-1.72-.59-2.49-.36-.77.24-1.28.42-1.73-.39-.05-.09-.27-.11-.41-.14-.53-.09-.83-.38-.87-.93Z"/>
  <path d="m136.69,103.4c.2-.06.41-.12.61-.18.25.05.51.07.74-.06.66-.38,1.41-.35,2.13-.48.4-.08.63.12.89.43.48.58.45,1.18.37,1.88-.15,1.25-.36,2.48-.52,3.73-.02.11-.07.2-.16.26-.85.02-1.41.57-1.9,1.15-.59.71-1.18,1.41-1.96,1.93-.81.54-1.19,1.42-1.63,2.21-.5.91-1.21,1.69-1.64,2.64-.1.22-.32.38-.55.51-.65.35-1.05.91-1.19,1.63-.18.94-.75,1.74-.7,2.79.02.47-.35,1.07-.55,1.61-.55,1.49-.46,2.99-.28,4.52.19,1.59-1,3.16-2.45,3.27-.41.03-.68-.11-.79-.47-.22-.71-.7-1.3-.93-2-.07-.23-.22-.44-.44-.52-.81-.28-1.51-.74-2.18-1.26-.09-.07-.2,0-.31.02-.14,0-.25-.06-.34-.17.03-.63-.35-.8-.88-.8-.02-.02-.03-.05-.05-.07.38-.42.65-.41,1.05-.11.89.68,1.59,1.66,2.84,1.81.34.04.65.35.71.67.13.76.7,1.29.91,2,.14.48.38.49.83.25,1.18-.62,1.52-1.63,1.43-2.89-.08-1.24-.19-2.52.12-3.72.2-.77.38-1.57.71-2.32.04-.1.12-.2.11-.29-.16-1.06.64-1.86.77-2.84.1-.79.73-1.19,1.28-1.63.11-.09.34-.15.35-.25.16-1.01,1.12-1.5,1.52-2.4.53-1.17,1.19-2.36,2.44-3.03.47-.25.73-.75,1.09-1.14.58-.63,1.08-1.35,2.01-1.53.19-.03.19-.18.21-.34.18-1.21.36-2.42.57-3.62.1-.55-.3-.9-.48-1.33-.05-.12-.23-.11-.35-.07-.54.19-1.12.14-1.67.33-.37.13-.78.14-1.18.2-.26.04-.43-.13-.58-.32Z"/>
  <path d="m73.45,122.15c-.71.39-1.51.6-2.14,1.14-.04.19-.12.36-.28.48-.67.47-1.33.97-1.99,1.46-.12.09-.27.11-.42.06-.06-.03-.1-.07-.13-.13.01-.27.01-.55.04-.82.02-.25.15-.5.41-.48.42.04.67-.2.82-.48.36-.65,1.09-.67,1.63-1.01.47-.29.87-.73,1.45-.86.22-.05.41-.26.64-.05.25.23.06.47-.03.69Z"/>
  <path d="m76.37,121.51c-.75.01-1.46.24-2.16.48-.21-.77.54-.87.91-1.05.27-.13.68-.2,1.03-.26.49-.08.88.23,1.27.47-.35.12-.7.24-1.05.36Z"/>
  <path d="m57.99,103.78c.75-.21,1.52-.15,2.28-.17.12.06.3-.01.39.15-.69.71-2.05.72-2.67.02Z"/>
  <path d="m54.82,103.78c.8,0,1.61,0,2.41,0-.15.4-.4.61-.81.32-.23-.17-.37-.03-.56.06-.49.23-.79.11-1.05-.39Z"/>
  <path d="m52.42,103.28c.67.17,1.35.34,2.02.5-.24.42-.58.47-.93.19-.34-.27-.94-.14-1.09-.7Z"/>
  <path d="m84.98,92.1c-.37-.88-1.33-1.11-1.9-1.77,1.05.27,1.81.99,1.9,1.77Z"/>
  <path d="m93.85,2.35c1.06-.2,2.11-.2,3.17,0h-3.17Z"/>
  <path d="m51.27,111.11c-.29-.3-.59-.59-.88-.89.76.06.83.12.88.89Z"/>
  <path d="m88.53,2.22c.71,0,1.42,0,2.12,0,.23,0,.46,0,.67.13-.93-.06-1.87.14-2.79-.13Z"/>
  <path d="m110.2,77.01c.11.15.06.32.07.49.01.29.09.56.41.63.33.07.3.3.28.53-.09-.11-.17-.26-.29-.31-.62-.29-.67-.76-.47-1.33Z"/>
  <path d="m133.27,103.79c.55,0,1.1,0,1.65,0-.07.19-.19.38-.39.28-.4-.2-.85-.11-1.25-.28Z"/>
  <path d="m104.88,90.71c-.09.52-.34.97-.63,1.39-.12-.61.32-.98.63-1.39Z"/>
  <path d="m106.52,89.94c-.46.15-.9.36-1.39.38.44-.23.81-.7,1.39-.38Z"/>
  <path d="m77.38,84.37c-.27-.72-.47-1.44,0-2.16-.26.72-.04,1.44,0,2.16Z"/>
  <path d="m67.37,125.31c-.38.65-1.01.66-1.65.63.58-.12,1.15-.3,1.65-.63Z"/>
  <path d="m68.29,125.33c-.3-.17-.61-.1-.92-.02.32-.45.7-.46,1.12-.16,0,0,.02.03.02.03.03.2-.08.19-.22.15Z"/>
  <path d="m162.31,50.52c-.28,1.2-.99,2.24-1.36,3.4-.53,1.7-1.79,2.8-2.97,3.99-.15.49-.53.77-.94,1.03-.92.58-1.88,1.1-2.74,1.76-.63.58-1.19,1.23-1.6,2-.99,1.03-1.2,2.33-1.26,3.67-.03.55.01,1.09,0,1.64-.28,2.47-1.26,4.65-2.71,6.64-.83,1.15-1.3,2.46-1.58,3.83-.38,1.84-.93,3.63-1.71,5.35-.19.41-.42.66-.87.71-.37-.07-.67-.3-1-.45-1.45-.6-2.41-1.63-2.8-3.18-.12-.49-.34-.95-.67-1.35-.33-.46-.68-.93-1.12-1.28-.73-.57-.79-1.28-.65-2.09.18-1.02.28-2.04.07-3.07-.14-.7-.37-1.34-.86-1.86-.23-.38-.84-.53-.7-1.14.48-.44.76-.45,1.28-.15,1.43.84,2.04,2.12,2.04,3.74,0,.84,0,1.69,0,2.53.01.83.22,1.59.94,2.11.3.22.43.5.47.86.09,1.01.54,1.89.99,2.8.72-.76,1.51-1.44,1.45-2.64-.02-.43.16-.95.54-1.17.79-.44,1.08-1.24,1.42-1.94.57-1.19,1.42-2.18,2.11-3.28.45-.72.84-1.46.84-2.35,0-.55.27-1.05.6-1.44.73-.85.69-1.8.56-2.78-.08-.64.09-1.31-.24-1.93-.09-.18,0-.4.11-.6.37-.71.82-1.38,1.02-2.17.03-.1.08-.2.16-.27,1.3-1.07,2.38-2.38,3.99-3.11,1.47-.68,2.81-1.68,3.86-2.96.4-.49.6-1.13.8-1.71.42-1.21,1.16-2.28,1.46-3.53.04-.17.11-.33.06-.49-.17-.56-.13-1.08.23-1.56.15-.2.16-.46,0-.65-.66-.83-.83-1.91-1.67-2.7-.63-.6-1.22-1.51-1.24-2.55,0-.26-.13-.48-.23-.71-.34-.76-.82-1.46-.74-2.38.03-.39-.1-.87-.39-1.18-.69-.76-1.04-1.64-1.31-2.62-.35-1.25-1.04-2.38-1.64-3.53-.37-.71-.46-1.52-.87-2.23-.62-1.07-1.33-2.09-1.83-3.23-.18-.4-.59-.6-1-.73-.32-.11-.54-.29-.68-.61-.28-.66-.64-1.27-1.13-1.8-.28-.31-.52-.65-.73-1.03-.44-.81-1.23-.83-1.69-.05-.25.43-.58.77-.99,1.05-1.39.96-2.88,1.73-4.33,2.58-.95.55-1.92,1.11-2.72,1.9-.56.56-1.16,1.06-2,1.25-1.12.26-1.43.72-1.44,1.87,0,.56-.23,1.07-.34,1.61-.35,1.76-1.05,3.39-1.84,5-.79,1.64-1.66,3.27-1.97,5.11-.03.16-.05.34-.16.48-.99,1.3-.43,2.76-.4,4.15,0,.36.12.74.15,1.12.18,2.06-.26,4.07-.41,6.11-.03.36-.16.7-.29,1.03-.21.53-.58.6-1.09.24-.06-1.04.05-2.08.08-3.12-.11-.65,0-1.3.09-1.94.18-1.37,0-2.73.1-4.09-.18-2.51.44-4.87,1.32-7.19.72-1.08,1.24-2.27,1.82-3.42.08-.15.11-.32.23-.45.29-.34.18-.78.3-1.16.22-.29.34-.58.36-.97.07-1.15.49-2.24.62-3.38.06-.47.35-.92.79-1.18,1.89-1.14,3.6-2.51,5.38-3.8,1.03-.64,2.15-1.1,3.18-1.75.78-.56,1.65-1.01,2.31-1.74.15-.16.38-.18.56-.27.18-.38.56-.61.76-.99.12-.24.34-.15.52.02,3.37,3.24,6.59,6.59,8.32,11.09.69,1.79,1.5,3.53,2.37,5.24.97,1.92,1.49,4.02,2.43,5.95.68,1.4,1.49,2.73,1.98,4.22.12.36.22.72.28,1.09.07.77.09,1.53,0,2.3.04.18-.2.31-.11.5Z"/>
  <path d="m135.4,14.64c-.16-.53-.33-1.05-.46-1.59-.05-.23-.13-.52.07-.72.25-.23.48.01.68.12,3.31,1.78,6.56,3.67,9.49,6.04.8.65.83.85.16,1.62-.12.14-.22.3-.33.46-.01.33-.15.59-.4.81-.67.59-1.31,1.22-2.15,1.58-.97.62-1.94,1.25-2.87,1.93-1.1.82-2.33,1.44-3.46,2.21-.22.15-.48.27-.75.33-.23.05-.47.05-.64-.15-.18-.21-.11-.43-.02-.65.79-2.06.95-4.21.79-6.39-.11-1.49-.18-2.99-.29-4.48-.03-.38,0-.76.16-1.12Z"/>
  <path d="m121.86,107.46c-.34-.05-.7.03-1.01-.22-.56-.47-.59-.75-.13-1.59.15-.42.46-.61.89-.62,1.21-.55,2.55-.42,3.8-.78.09-.08.19-.12.3-.07.05.03.08.07.09.13-.24.63-.66.94-1.36.86-.31-.04-.63,0-.95-.01-.06,0-.14-.03-.19,0-.53.29-1.05.51-1.68.54-.33.01-.25.49-.11.75.2.37.53.26.74.05.4-.41.87-.47,1.39-.43.17.01.39.04.44.19.18.51.64.69,1.02.98.44.34.53,1.07.23,1.61-.18.32-.84.46-1.32.23-.24-.11-.43-.16-.71-.04-.71.33-1.17.19-1.71-.45.73-.19,1.43-.48,2.19-.46.13-.05.31-.07.29-.26-.02-.18-.19-.2-.33-.22-.27-.03-.54.03-.8.07-.39.05-.79.1-1.1-.25Z"/>
  <path d="m126.46,104.03c.58-.1,1.15-.19,1.73-.29,1.01-.17,2.02-.11,3.04-.08-.38.63-1.04.53-1.6.53-.5,0-.88.19-1.33.34-.8.26-1.73.45-2.51-.22,0,0-.02-.05-.02-.05.11-.43.49-.04.68-.23Z"/>
  <path d="m117.93,107.46c.92.29,1.78.73,2.74.93.27.06.54.03.8.09.03.01.06.02.1.03-.03.02-.05.04-.08.06-.22.36-.53.43-.92.3-.24-.08-.48-.14-.73-.17-.33-.04-.6-.16-.8-.44-.16-.23-.35-.41-.68-.37-.3.04-.39-.18-.42-.43Z"/>
  <path d="m121.93,105.82c.15.01.31.03.33.22.02.18-.12.26-.27.29-.17.04-.28-.06-.31-.23-.03-.19.09-.26.25-.28Z"/>
  <path d="m57.83,128.34c-.21.24-.4.49-.63.7-1.16,1.03-1.13,2.35-.88,3.71.13.72.03.89-.7.92-.23.01-.43.19-.67.11.17-.62.24-1.27.82-1.72.25-.2.06-.57-.08-.82-.37-.68-.2-1.21.33-1.75.65-.66.98-1.43.88-2.44-.12-1.21-.05-2.44-.05-3.66,0-.15.07-.3-.03-.43-.61-.74-.56-1.79-1.2-2.53-.31-.36.03-.6.39-.72.48.85.73,1.79,1.13,2.67.7.6.58,1.45.65,2.21.09.99,0,2,.25,2.97.07.27-.02.53-.19.76Z"/>
  <path class="cls-4" d="m37.84,71.44c.06-.23-.09-.43-.11-.64.09-.05.18-.09.27-.14.16.21.16.46.21.7.02.11.06.28-.1.31-.13.02-.2-.12-.26-.22Z"/>
  <path d="m30.25,56.7c-.33-.38-.61-.82-1.02-1.13-.73-1.64-1.46-3.28-2.18-4.92.1-.25-.12-.5.01-.75-.09-.68-.07-1.37,0-2.05.06-1.33.74-2.44,1.32-3.56.85-1.63,1.6-3.29,2.18-5.04.62-1.86,1.64-3.56,2.4-5.37.15-.37.31-.73.46-1.1.14-.14.21-.31.23-.51-.2-.27-.06-.52.03-.77,1.02-2.71,2.5-5.14,4.4-7.32,1-1.15,2.15-2.14,3.1-3.33.32-.4.77-.66,1.14-.99.19-.17.45-.24.64-.08.44.39.81.85,1.07,1.38.06.12.04.29-.07.42-.23.2-.47.16-.7,0-.78-.53-1.4-.05-1.66.54-.55,1.22-1.25,2.28-2.43,2.99-.31.18-.47.53-.69.82-1.13,1.53-1.92,3.26-2.9,4.88-.89,1.48-1.26,3.16-2.04,4.67-.61,1.18-1.13,2.4-1.61,3.63-.46,1.18-.89,2.36-1.33,3.55-.42,1.13-1.18,2.11-1.58,3.23-.52,1.44-.98,2.84-.65,4.51.33,1.7,1.26,3.09,1.8,4.67.24.71,1.05,1.28,1.78,1.71,1.85,1.08,3.49,2.44,5.09,3.86.59.52,1.13,1.06,1.66,1.64.85.94.7,2.08.77,3.17.05.78-.03,1.55-.11,2.33-.05.58.33,1.04.62,1.49.66,1.04.74,2.23.91,3.39.05.33.1.88-.56.81-.48-.59-.81-1.26-1.03-1.99-.28-.88-.74-1.69-.88-2.62-.03-.25-.06-.49-.08-.74-.1-1.27-.05-2.55-.35-3.81-.19-.78-.55-1.4-1.14-1.9-.47-.67-.81-1.43-1.55-1.87-.88-.69-1.78-1.35-2.77-1.87-.92-.48-1.55-1.28-2.28-1.97Z"/>
  <path d="m54.47,13.12c-.25.9-.64,1.75-.61,2.72.02.61-.09,1.23-.14,1.85.11.51.19,1.03.15,1.56-.09,1.14-.14,2.29,0,3.43.08.58-.09,1.15-.03,1.73.03.98.15,1.94.97,2.75-.76.11-1.23-.23-1.67-.51-.95-.6-1.86-1.28-2.91-1.73-.14-.15-.34,0-.49-.1-.68-.59-1.55-.9-2.25-1.48-1.16-.59-2.09-1.48-3-2.38-.14-.1-.24-.23-.36-.36-1.39-1.55-.68-1.95.76-2.92.14-.09.28-.04.42,0,.56-.42,1.13-.83,1.69-1.25,2.09-1.38,4.26-2.63,6.47-3.81.93-.49.92-.51.99.49Z"/>
  <path d="m142.64,107.44c-.52.37-1.04.75-1.55,1.12-.06.17-.17.23-.34.16-.14-.32-.17-.65-.06-.99.38-1.15.27-2.37.51-3.55.13-.6-.72-1.27-1.33-1.15-.61.12-1.26.07-1.84.4-.27.15-.53,0-.73-.21.31-.15.61-.31.92-.46.05-.36.36-.49.61-.67,1.25-.89,2.34-1.95,3.34-3.11.05-.08.1-.15.17-.2.3-.24.31-.6.42-.92.05-.18.09-.35.17-.52.16-.26.18-.54.2-.83.69-1.57,1.03-3.24,1.35-4.91.17-.89.37-1.77.53-2.65.04-.21.08-.42.33-.49.32-.04.51.15.51.42-.01.91.21,1.84-.16,2.73-.29.29-.4.61-.3,1.02.1.44.03.92-.2,1.27-.36.55-.41,1.12-.4,1.73,0,.39-.15.73-.37,1.05-.05.41-.17.81-.2,1.22-.02.35,0,.64.24.92.24.3.3.63-.02.96-.16.17-.33.44-.11.68.22.24.51.18.75.04.28-.17.56-.25.87-.32.44-.09.78-.27.77-.88-.01-.62.44-1.16.63-1.75.15-.45,0-1,.38-1.35.33-.3.41-.67.49-1.09.04-.23,0-.42-.07-.6-.34-.87.18-1.73.02-2.6-.03-.14-.01-.29-.04-.44-.17-.84.45-1.46,1.17-1.82.85-.42,1.27-.05,1.81.41.21.18.3.33.26.58-.27.44-.59.14-.88.03-.71-.27-1.07-.13-1.43.56-.12.57-.04,1.14-.03,1.71-.02,1.4.15,2.82-.37,4.17-.61,1.33-1.16,2.68-1.71,4.02-.61,2.28-1.88,4.19-3.44,5.92-.23.25-.47.49-.87.38Z"/>
  <path d="m99.43,157c-.05.08-.1.17-.15.25-.26.26-.24.56-.28.91-.1.98-.27,1.96-.63,2.89-.32.81-.74,1.54-.79,2.49-.03.59-.47,1.26-.75,1.88-.11.25-.29.49-.28.77.05,1.23-.82,2.14-1.12,3.25-.08.29-.33.51-.67.49-.45-.03-.84-.27-.98-.69-.23-.69-.46-1.37-.72-2.05-.21-.57-.18-1.31-.39-1.94-.64-1.89-.93-3.89-1.53-5.77-.44-1.4-.78-2.91-1.6-4.19-.25-.4-.42-.86-.38-1.32.05-.59-.1-1.09-.43-1.55-.3-.43-.48-.92-.38-1.43.2-1.11-.47-2.02-.64-3.05-.09-.52-1.25-1.08-1.79-.98-.38.06-.63-.19-.87-.42-.76-.73-1.66-1.19-2.67-1.46-.22-.06-.45-.12-.63-.27-1.17-.63-2.22-1.48-3.44-2.03-.97-.41-1.81-1.04-2.67-1.62-.61-.41-1.18-.87-1.77-1.3-.83-.82-1.66-1.64-1.86-2.87-.15-.63-.54-1.14-.92-1.64-.75-.99-.9-2.03-.46-3.21.39-1.04.71-2.12,1.36-3.04.63-.72,1.15-1.53,1.87-2.17.23-.21.45-.43.7-.62.66-.81,1.48-1.47,2.11-2.3.14-.19.34-.3.57-.35.09-.09.2-.16.26-.26.81-1.33,2.07-2.03,3.46-2.57.85-.33,1.59-.84,2.24-1.49.07-.19.08-.43.26-.56,1.14-.82,1.66-2.11,2.49-3.17.15-.19.29-.38.43-.57.41-.33.51-.91.99-1.18.38-.06.39.13.27.4-.62,1.62-1.64,3-2.56,4.44-.18.28-.32.58-.49.88-.72,1.76-.72,3.57-.33,5.4.1.45.06.9.07,1.36,0,.41.2.7.53.93.71.48,1.4.98,2.11,1.47.33.02.58.19.83.4.65.55,1.27.48,1.71-.23.59-.95,1.41-1.67,2.18-2.45.19-.19.4-.29.67-.32.5-.05,1-.16,1.5-.22.61.01,1.23.03,1.84,0,1.8-.01,2.82,1.19,3.8,2.44.03.03.05.07.07.1,1,1.31,1.55,1.33,2.68.1.71-.7,1.6-1.14,2.38-1.74.18-.17.18-.42.26-.63.35-.24.23-.63.29-.96.3-1.68.44-3.35-.13-5.01.01-.08.04-.16.05-.25.15-.85.18-.87,1.05-.8.59,0,.82.66,1.36.75.7.38,1.37.79,2.12,1.08,1.23.47,2.04,1.41,2.71,2.5,1.62,2.09,3.85,3.63,5.29,5.88.58.79.72,1.77,1.15,2.62.56,1.37.11,2.55-.67,3.67-.29.41-.57.84-.72,1.33-.2,1.3-1.13,2.1-2.01,2.94-1.45,1.12-2.93,2.18-4.58,2.99-.25.12-.51.33-.82.16-.43-.29-.84-.19-1.1.2-.5.77-1.25.97-2.07,1.01-.38.02-.71.08-.95.39-.11.14-.24.26-.42.25-.6-.04-1.01.3-1.35.71-.39.47-.91.81-1.25,1.32-.06.09-.13.19-.22.22-.99.33-1.11,1.28-1.38,2.06-.24.68-.1,1.46-.09,2.19,0,.38-.08.65-.29.98-.41.62-.82,1.27-.82,2.08,0,.48-.25.89-.46,1.3-.2.38-.32.76-.21,1.19Z"/>
  <path d="m94.23,118.59c-.36-.54.22-1.1-.01-1.64.01-.34.23-.66.14-1.02.24-.82-.02-1.71.36-2.61.28.4.11.76.18,1.09.11,1.14.23,2.28.34,3.42.02.21.03.42.04.62.13,1.15-.05,2.3.09,3.44-.19.31-.17.67-.09.98.17.65.07,1.29.1,1.94.03.51-.27.62-.72.63-.5.02-.54-.28-.54-.64,0-.59,0-1.18.01-1.77.1-1.26.01-2.51.04-3.77,0-.23-.05-.46.05-.68Z"/>
  <path class="cls-15" d="m85.51,124.82c-.01.45-.02.9-.04,1.35-.27.25-.38.03-.53-.16-1.16-1.49-1.09-3.07-.38-4.71.12-.28.4-.42.56-.67.25-.39.37-.86.86-1.19-.2,1.12-.37,2.15-.38,3.2-.12.72.04,1.46-.09,2.18Z"/>
  <path class="cls-10" d="m102.72,116.19c-.19-.61-.57-1.11-.88-1.65,0-.04,0-.07-.02-.11-.05-.28-.38-.63-.02-.82.37-.19.44.31.62.5.2.22.35.51.49.79,1.19,1.35,2.1,2.94,3.37,4.23.06.12.07.24-.01.35-.79-.14-.85-.09-.9.78-.27.13-.42-.04-.57-.22-.19-.24-.37-.5-.55-.75-.46-.83-1.03-1.6-1.45-2.46-.1-.21-.26-.4-.09-.64Z"/>
  <path class="cls-13" d="m87.64,114.27c-.02-.14-.02-.3-.24-.23-.22-.13-.12-.35-.15-.53.16-.25.33-.5.49-.75-.02.5.18,1.02-.11,1.51Z"/>
  <path class="cls-8" d="m75.09,63.71c-.48-.36-.72-.89-1.03-1.37-.1-.08-.1-.18-.08-.29.77.29.93.98,1.11,1.66Z"/>
  <path class="cls-5" d="m66.21,107.33c.65,0,1.29,0,1.94,0-.64.22-1.29.16-1.94,0Z"/>
  <path d="m121.6,125.67l-1.15-.86c.75-.11,1.02.1,1.15.86Z"/>
  <path d="m43.94,21.48s.06,0,.09.02c.27.05.51.13.73.32.7.62,1.51,1.06,2.35,1.46.47.61,1.25.68,1.84,1.08.1.07.24.07.32.18.17.32.64.36.72.77,1.27,1.05,2.55,2.09,3.98,2.93.21.12.4.29.61.44.92,1.35.91,2.94,1.16,4.46.05.29.02.6.18.86.59.96.84,2.06,1.29,3.08.7,1.58,1.36,3.17,2.01,4.77.43,1.07.76,2.11.75,3.29-.01,1.3-.07,2.6-.03,3.91.01.44,0,.89-.13,1.32-.04.12-.08.26-.04.37.3.81.21,1.75.77,2.48.04.17.06.34,0,.5-.63,1.77-.39,3.57-.19,5.37.02.22.08.44.08.66-.04,1.18.04,2.36.06,3.54.01.89-.35,1.71-.57,2.55-.03.1-.09.19-.18.24-1.44-.28-2.67.29-3.87.96-.19.11-.4.12-.6.17-1.07.29-1.85.91-2.18,1.99-.15.48-.55.62-.93.78-.87.37-1.34,1.06-1.77,1.86-.52.96-.56,1.97-.59,3,0,.32-.07.62-.29.88-.36.41-.7.81-.48,1.46.11.34-.19.59-.56.62-.44.03-.75.19-.89.66-.11.38-.49.36-.79.41-.55.09-1.05.18-.97.94.03.27-.33.53-.52.37-.48-.39-1.38.59-1.53-.42-.19-1.27-.55-2.42-1.35-3.45-.4-.51-.57-1.18-.93-1.74-.28-.44-.56-.83-1.07-.99-.02-.04-.05-.07-.07-.11.39-.3.31-.72.25-1.11-.22-1.34-.53-2.65-1.35-3.77-.23-.31-.26-.64-.2-1.02.22-1.27.17-2.56,0-3.83-.13-1.06-.91-1.82-1.69-2.44-1.08-.85-2.04-1.82-3.12-2.66-.08-.06-.16-.2-.23-.2-.88.06-1.12-.84-1.76-1.14-.65-.3-1.12-.88-1.68-1.26-.97-.66-.94-1.71-1.38-2.57-.14-.28-.21-.59-.4-.85-.37-.52-.62-1.08-.6-1.76.02-.55-.37-1.04-.33-1.64.03-.4,0-.79.17-1.17.18-.43.32-.87.32-1.35,0-.33.17-.6.33-.88,1.11-2.04,2.06-4.13,2.78-6.35.43-1.33,1.14-2.57,1.68-3.87.45-1.08,1.01-2.12,1.31-3.26.22-.86.85-1.49,1.22-2.27.18-.38.43-.73.59-1.12.41-1.03,1.15-1.85,1.7-2.79.44-.76,1.03-1.38,1.81-1.89.76-.49,1.21-1.34,1.49-2.22.21-.65.82-.86,1.3-1.21.14-.1.26.08.38.15.32.2.63.42,1.02.48Z"/>
  <path class="cls-9" d="m56.97,31.13c-.03.44.38.65.52,1,.01.6.04,1.19.4,1.73.2.31.22.67-.06.98-.24.14-.4-.02-.58-.13-.27-.13-.31-.37-.33-.64-.01-.22.07-.45-.07-.65-.11-.75-.28-1.49-.31-2.24-.02-.45.27-.16.43-.05Z"/>
  <path d="m69.51,132.68c-.34-1.03-.59-2.08-.97-3.1-.33-.88-.19-1.84-.11-2.76.05-.58.55-.87,1-1.15.77-.48,1.56-.91,2.25-1.5.99-.39,1.98-.8,3-1.13.32-.1.65-.17.97-.21.44-.06.79-.33,1.21-.43-.04.17-.07.33-.11.5-.61,1.18-1.59,2.03-2.5,2.96-.81.89-1.45,1.91-2.13,2.9-.74,1-1.6,1.93-1.91,3.19-.03.22-.02.46-.17.65-.15.18-.31.37-.54.08Z"/>
  <path d="m131.84,120.74c-.8,1.72-1.44,3.48-1.35,5.41.05,1.08.25,2.15.38,3.22-.3.82-.65,1.62-.92,2.45-.27.83-.35.78-1.19.64-.67-.11-1.32-.32-1.99-.43-.36-.06-.47-.25-.47-.59,0-.62.11-1.26-.27-1.82-.48-1.01-1.4-1.59-2.2-2.28-.19-.16-.38-.32-.57-.48.15-.22.33-.27.52-.06.49.53,1.11.79,1.8.97.52.14.84.45,1.01,1.01.2.66.65,1.22.85,1.89.07.25.31.26.53.22.65-.1,1.48-.51,1.73-1.27.29-.89.34-1.77.26-2.72-.09-1.15,0-2.31.4-3.47.27-.79.83-1.6.55-2.54-.04-.14.01-.36.1-.48.4-.57.53-1.23.7-1.88.18-.74.72-1.11,1.31-1.44.16-.09.39-.13.45-.32.31-1.01,1.07-1.77,1.55-2.71.52-1.02,1.07-2.13,2.28-2.66.59-.25.88-.88,1.25-1.39.51-.7,1.17-1.2,2.11-1.18-1.29,1.19-2.55,2.39-3.58,3.82-1.19,1.66-2.58,3.18-3.67,4.92-.63,1-1.23,2.01-1.52,3.17Z"/>
  <path d="m123,126.69c-.38-.18-.69-.47-1.01-.74.92-.21,1.16-.03,1.01.74Z"/>
  <path d="m125.28,130.13c.51,1.12.47,2.21-.11,3.3-.86,1.61-.85,3.35-.77,5.09.06,1.27-.2,2.46-.79,3.58-.22.42-.25.88-.22,1.34.09.31.19.62.16.95-.11.7-.22.8-.83.74-.15-.04-.27-.13-.34-.27-.74-1.55-2.1-2.73-2.65-4.4-.17-.51-.4-.98-.39-1.53,0-.64-.21-1.25-.3-1.88.09-.34-.14-.64-.14-.97,0-.49.06-.95.28-1.39.06-.16.18-.25.34-.32.26-.11.24-.28.08-.47-.03-.06-.04-.12-.04-.18.06-.25.13-.49.3-.69.27-.22.34-.57.45-.85.34-.92.88-1.73,1.29-2.6.19-.39.25-.81.19-1.23-.04-.25,0-.46.19-.63.26-.33.48-.08.69.07.96.68,1.89,1.41,2.62,2.34Z"/>
  <path d="m117.92,124.32c.65.42,1.3.83,1.95,1.25.24.19.48.37.72.56.23.45.3.96.28,1.42-.02.41.12.61.42.79.22.63,0,1.19-.26,1.75-.31.15-.63.25-.88.54-.28.32-.64.32-.86-.1-.48-.92-1.21-1.67-1.75-2.55-.21-.35-.48-.68-.95-.72-.86-.68-1.52-1.56-2.28-2.34-.32-.33-.61-.7-.95-1.01-.3-.28-.5-.61-.62-.99-.15-.21-.18-.42,0-.62.63.68,1.52.69,2.33.87,1.02.22,1.94.67,2.85,1.16Z"/>
  <path class="cls-16" d="m121.12,127.6c-.1.25.1.51-.04.76-.23-.02-.47-.11-.44-.35.07-.63-.41-1.25-.04-1.88.68.31.47.94.53,1.48Z"/>
  <path d="m128.85,55.59c.34-.02.53-.21.62-.53.14-.49.28-.97.25-1.49-.01-.27-.03-.56.05-.82.51-1.61.45-3.29.26-4.9-.15-1.32-.11-2.63-.24-3.94-.03-.34.05-.57.28-.78.25-.22.46-.49.44-.81-.05-.99.56-1.75.86-2.61.37-1.05.84-2.06,1.29-3.08.13-.29.33-.54.49-.81.87-1.48.96-3.21,1.47-4.8.07-.21.06-.47,0-.69-.2-.71.23-1.02.74-1.36.8-.54,1.93-.49,2.52-1.32.66-.94,1.8-1.2,2.57-2,.44-.46,1.18-.61,1.77-.93,1.09-.59,2.13-1.26,3.16-1.95.46-.31.78-.71.93-1.24.14-.47.42-.59.87-.45.62.19,1.14.39,1.4,1.11.27.72,1.08,1.14,1.35,1.88.3.81.89,1.24,1.63,1.59.32.15.44.47.58.79.35.83.87,1.56,1.34,2.32.29.47.57.98.73,1.51.29.98.77,1.85,1.22,2.76.47.95,1.12,1.87,1.13,3.02,0,.41.31.75.55,1.05.38.46.7.92.88,1.5.08.27.16.48.09.77-.16.73.41,1.25.62,1.87.04.12.2.21.2.32,0,.96.49,1.7.95,2.48.18.31.3.61.65.8.45.24.75.72.8,1.15.06.54.3.93.64,1.25.36.34.28.64.01.93-.42.44-.56.88-.18,1.41.09.13.1.29,0,.42-.65.92-.79,2.07-1.36,3.05-.33.56-.74,1.24-.76,2.02-.01.39-.49.6-.75.9-.98,1.11-2.21,1.9-3.47,2.6-.6.33-1.19.7-1.81,1.01-.38.2-.76.46-.91.93-.04.11-.13.24-.23.29-1.4.66-1.47,2.23-2.25,3.31-.06.09-.09.29-.04.36.63.74-.02,1.63.29,2.4.03.09-.07.24-.02.31.56.86-.17,1.36-.54,1.96-.39.63-.74,1.27-.7,2.06.03.57-.31,1.07-.58,1.52-.32.53-.55,1.11-1.04,1.56-.55.5-.72,1.3-1.17,1.89-.52.68-.49,1.7-1.48,2.11-.56.24-.67.94-.65,1.55.01.72-.32,1.26-.83,1.69-.34.28-.52.54-.28.96.06.11.1.25-.02.35-.12.09-.24.01-.33-.08-.36-.34-.68-.63-.87-1.2-.28-.85-.64-1.67-.75-2.57-.03-.27-.32-.32-.49-.47-.67-.59-.86-1.37-.86-2.21,0-.93.02-1.86,0-2.79-.04-1.31-.55-2.38-1.68-3.14-.41-.28-.79-.37-1.24-.2-.12.03-.19-.03-.26-.12-.08-.48-.39-.87-.57-1.31-.17-.41-.6-.52-1.01-.53-.43-.01-.77-.15-1.07-.46-.24-.25-.54-.46-.89-.45-.55.02-.92-.25-1.24-.62-.4-.46-.94-.63-1.49-.78-.72-.2-1.48-1.02-1.45-1.74.03-.84.09-1.68.22-2.52.24-1.58.45-3.18,0-4.77-.1-.34-.23-.65-.46-.91-.03-.15,0-.29.14-.37Z"/>
  <path d="m132.62,33.02c-.22.45-.23.97-.51,1.39-.86,1.25-1.37,2.66-1.91,4.06-.48,1.3-.89,2.62-1.14,3.99-.25,1.41-.44,2.83-.34,4.27-.23,1.73-.45,3.46-.68,5.18-.09,1.49-.01,2.98-.04,4.47,0,.25.04.5-.04.75-.01,2.01-.13,4.01-.5,6-.29,1.54.43,2.76,1.61,3.68,1.06.83,2.21,1.55,3.5,2,.48.17.91.44,1.33.72.38.25.2.55.05.82-.33.6-.65,1.2-.98,1.8-.64,1.4-1.31,2.78-1.8,4.23-.09.25-.27.36-.45.5-.3.25-.63.47-1,.61-.29-.54-.09-1.08.09-1.56.57-1.55,1.17-3.09,1.82-4.61.44-1.05.1-1.89-.91-2.45-.66-.36-1.36-.67-1.89-1.25-.38-.41-.87-.66-1.44-.73-.49-.06-.69-.34-.76-.84-.15-1.23-.05-2.47-.22-3.71-.12-.84,0-1.73.35-2.55.42-1.01.45-2.05.31-3.11-.06-.4-.03-.8,0-1.2.12-1.6.11-3.2-.09-4.79-.08-.62,0-1.23.15-1.82.43-1.56.61-3.14.52-4.76-.03-.61-.01-1.22.25-1.8.09-.19.12-.41.11-.62-.03-.83.21-1.54.83-2.1.08-.07.17-.16.17-.26.02-.91.62-1.64.82-2.49.03-.14.13-.31-.02-.41-.18-.11-.32.05-.43.17-.52.53-.88,1.18-1.38,1.72-1.24,1.36-2.05,3.02-3.02,4.57-.3.48-.37,1.07-.54,1.61-.4,1.24-.97,2.43-1.15,3.74-.06.44-.35.81-.49,1.23-.57,1.74-1.27,3.41-2.11,5.04-.41.79-.72,1.65-.99,2.52-.29.96-.73,1.88-1.15,2.8-.83,1.84-1.97,3.53-2.89,5.32-.59,1.14-.96,2.39-1.39,3.6-.23.65-.44,1.32-.67,1.97-.5,1.43-.4,2.85-.34,4.31.07,1.64.63,3.12,1.29,4.57.17.37.29.74.29,1.15,0,.47.14.91.32,1.35.27.63.64,1.1,1.43.95.1-.02.22,0,.31.04.69.35,1.34.22,1.99-.13.38,0,.65.18.84.49-.88.75-2,.91-3.05,1.25-.2.06-.31-.09-.42-.22-.19-.22-.44-.32-.73-.32-.12-.08-.26-.18-.4-.14-.56.13-.88-.17-1.17-.57-.06-.26.03-.53-.06-.78-.09-.47-.18-.93-.27-1.4-.17-1.4-.91-2.59-1.39-3.88-.16-.43-.26-.87-.26-1.33,0-.7.05-1.4-.02-2.09-.16-1.74.34-3.37.8-5,.23-.82.57-1.61.85-2.41.24-.09.26-.34.38-.51.69-1.13,1.31-2.29,1.77-3.53.14-.39.5-.69.52-1.14.74-1.17,1.29-2.43,1.91-3.66.82-1.55,1.5-3.16,2.03-4.83.22-.4.37-.83.49-1.27.56-1.6,1.12-3.19,1.68-4.79.75-1.79,1.49-3.57,2.24-5.36.49-.93,1.06-1.83,1.64-2.7.22-.33.44-.65.66-.97.37-.11.56-.44.76-.71.78-1.09,1.64-2.11,2.54-3.1.8-.89,1.6-1.79,2.28-2.79h.01c.43-.17.48.03.38.39-.21.44-.15.92-.26,1.38Z"/>
  <path d="m123.12,81.19c-1.09.52-2.02,1.25-2.91,2.05l-.49.24c-.3-.04-.6-.09-.9-.13-.06-.14,0-.28.12-.32,1.1-.36,1.55-1.46,2.42-2.09.88-.63,1.6-1.43,2.77-1.65.65-.12,1.16-.78,1.84-1.03.51-.18.99-.45,1.46-.74.61-.38,1.22-.18,1.43.39-.39.21-.78.41-1.17.62-.01.35-.31.43-.54.55-.76.38-1.5.77-2.18,1.27-.31.23-.67.23-1.01.31-.17.05-.34.1-.45.26-.08.15-.16.31-.38.26Z"/>
  <path class="cls-12" d="m114.02,83.47l1.51.73c-.42-.19-.84.04-1.27.01-.49-.12-.35-.43-.24-.74Z"/>
  <path d="m82.57,151.65c-.04.05-.08.1-.12.15-.57.51-1.08,1.12-1.97,1.07-.47-.03-.82-.14-.9-.67-.11-.73-.7-1.14-1.17-1.6-.51-.5-.82-1.09-1.03-1.76-.27-.9-.72-1.69-1.48-2.27-.34-.26-.46-.62-.48-1.03-.05-.83-.28-1.56-1.02-2.07-.34-.24-.25-1.54.13-1.69.43-.17.8.14,1.15.33.67.36,1.38.66,2,1.13.21.16.44.03.65-.04.5.06.8.43,1.15.72.47.39.95.76,1.45,1.12.46.25.96.39,1.46.52.5.13,1.04.19,1.37.67,0,.38.1.68.47.88.29.16.48.42.2.77-.55.7-.77,1.57-1.2,2.33-.25.45-.61.89-.68,1.45Z"/>
  <path d="m85.84,146.75c.09-.08.21-.15.27-.25.16-.25.27-.19.43,0,.26.32.57.55.99.64.51.11.54.56.59.94.05.43.1.82.4,1.17.23.27.16.65.14.98-.07.91.05,1.76.64,2.5.2.25.29.57.22.9-.08.35-.06.69.1.99.5.9.63,1.95,1.16,2.84.1.17.11.4.16.61.03.14.02.35.11.42.58.46.55,1.11.59,1.73.04.65.38,1.21.48,1.83.22,1.4.88,2.68,1.13,4.05.17.95.74,1.77.75,2.75,0,.1.03.21.07.31.13.3.39.46.7.48.32.02.4-.26.48-.5.24-.69.47-1.4.89-2.01.09-.13.1-.28.07-.43-.08-.53.06-1,.37-1.43.13-.18.11-.42.21-.58.49-.86.46-1.86.83-2.76.23-.57.6-1.06.79-1.64.2-.57.11-1.22.46-1.76.05-.07-.01-.25-.06-.35-.33-.71-.29-.79.48-.9.09.63-.14,1.23-.22,1.84-.13.98-.35,1.96-.5,2.94-.08.51-.27.97-.44,1.44-.55,1.46-1.01,2.94-1.37,4.46-.24,1.01-.93,1.73-1.75,2.33-.25.18-.42.08-.61-.07-1.01-.77-1.67-1.78-1.89-3.02-.18-1.04-.55-2.01-.91-2.98-.58-1.57-.91-3.18-1.16-4.82-.14-.88-.14-1.8-.53-2.64-.24-.86-.76-1.58-1.23-2.32-.62-1.1-.68-2.39-1.12-3.55-.03-.07-.04-.17-.01-.24.3-.89-.21-1.64-.41-2.44-.09-.37-.44-.55-.67-.82-.19-.22-.78-.06-.62-.63Z"/>
  <path d="m76.09,147.24c-.26-.35-.51-.71-.77-1.06-.29-.39-.54-.79-.64-1.29-.05-.26-.15-.56-.33-.74-.86-.87-.98-2.03-1.26-3.12.08-.09.07-.17-.04-.22-.16-.22-.17-.5-.04-.68.11-.15.26.11.4.15.99.41,1.85,1.07,2.83,1.51.62.28,1.19.64,1.79.94.1.24.47.36.33.71-.34.12-.64.09-.96-.1-.87-.52-1.74-1.06-2.76-1.38-.04.32.1.64-.15.91-.15.17,0,.32.16.4.87.43,1.01,1.25,1.06,2.07.03.56.15.98.64,1.26.67.39,1.01,1.05,1.12,1.76.18,1.14.98,1.81,1.72,2.54.27.27.51.55.63.93.25.78.65.93,1.4.58.42-.19.76-.54,1.24-.6-.38.87-.92,1.64-1.5,2.37-.33.41-.68.39-1.1.08-.26-.2-.42-.47-.55-.75-.27-.57-.54-1.13-.82-1.7-.47-.33-.73-.86-.9-1.33-.25-.7-.61-1.34-.89-2.01-.1-.24-.05-.5-.19-.72-.13-.17-.27-.33-.4-.5Z"/>
  <path d="m83.59,146.38c.69.34,1.15.96,1.76,1.4.29.26.59.52.87.79.2.2.16.45-.13.43-1.75-.17-2.42,1.13-3.2,2.28-.09.13-.21.25-.32.37-.08-.75.25-1.4.58-2.02.22-.42.55-.79.57-1.3.01-.25.14-.44.35-.56.33-.19.31-.38,0-.53-.38-.18-.52-.46-.48-.86Z"/>
  <path d="m70.41,149.02c-.1.73-.5,1.4-.5,2.15-.11.25-.31.46-.24.76-.31.54-.54,1.14-1.03,1.56-.56.47-1.21.28-1.4-.41-.12-.9-.02-1.81-.05-2.72,0-.33,0-.67,0-1,.43-1.14.33-2.38.72-3.53.13-.4.18-.85.43-1.2.48-.67.82-1.42,1.37-2.06.48-.57.94-1.17,1.41-1.76.16-.2.31-.36.57-.28.28.09.27.32.31.58.26,1.82-.25,3.51-.82,5.19-.2.59-.33,1.21-.65,1.76-.17.29-.12.62-.11.94Z"/>
  <path class="cls-7" d="m67.13,150.29s.06,0,.08,0c0,.94,0,1.87.01,2.81-.25-.92-.09-1.86-.1-2.8Z"/>
  <path d="m63.8,131.52c.02-.29,0-.58.17-.84.4-.85,1-1.54,1.75-2.1.42-.32.83-.64,1.26-.95.1-.07.22-.17.33-.05.05.05.08.18.04.23-.63,1.05.14,1.82.58,2.59.49.86,1.02,1.69,1.35,2.63.06.19.19.32.37.4.22.03.32.2.39.37.35.9.7,1.8.48,2.81-.17.8-.24,1.62-.25,2.44-.5,1.3-.87,2.65-1.83,3.72-.31.38-.53.85-.95,1.14-.4.05-.8.31-1.21.02-.08-.07-.12-.17-.15-.27-.05-.29.07-.61-.15-.86.12-.69-.42-1.17-.57-1.78-.26-1.06-.52-2.07-.36-3.2.23-1.65-.19-3.24-.89-4.74-.23-.5-.36-1.01-.36-1.56Z"/>
  <path d="m99.43,157c-.36-.33-.31-.73-.15-1.11.26-.62.44-1.22.51-1.92.06-.62.53-1.21.88-1.78.14-.23.25-.4.22-.68-.18-1.37.1-2.66.66-3.9.04-.09.1-.22.18-.25,1.16-.52,1.73-1.69,2.71-2.42.26-.2.49-.4.85-.3.16.04.3-.01.39-.15.3-.49.74-.54,1.27-.48.77.09,1.36-.27,1.68-.95.25-.53,1-.57,1.48-.08.12.32-.11.44-.33.59-.66.44-1.31.89-2,1.27-1.51.47-2.89,1.18-4.07,2.25-1.21.91-1.46,2.2-1.59,3.63-.11,1.2-.36,2.42-.89,3.54-.13.28-.22.62-.64.6-.27.35-.49.72-.63,1.14-.27.29-.3.7-.51,1.01Z"/>
  <path class="cls-3" d="m58,130.76c.39.27.5.69.59,1.12.07.32.11.65.33.92-.17.36-.55.21-.82.33-.32.14-.66.22-.99.33-.25.02-.36-.06-.37-.35-.06-.98.1-1.89.64-2.72.4-.2.46.18.63.37Z"/>
  <path class="cls-13" d="m58,130.76c-.21-.12-.42-.24-.63-.37.06-.23-.05-.67.45-.37.06.25.12.49.18.74Z"/>
  <path d="m40.42,73.59c.59-.19,1.1.08,1.32.74.09.27.18.51.42.68.03.02.08.06.09.09.09.85.93,1.33,1.13,2.02.27.9.94,1.74.56,2.96.61-.51,1.09-.38,1.65-.05-.12-.44-.36-.76,0-1.11.32-.3.65-.34,1.03-.35.38-.01.7-.09.74-.58.04-.45.41-.46.76-.48.6-.02.6-.03.41-.61-.11-.32,0-.59.23-.8.58-.52.77-1.14.73-1.92-.05-1.05.19-2.1.78-2.94.43-.61.82-1.39,1.73-1.55.42-.08.66-.36.83-.83.36-.97,1.11-1.66,2.12-1.9.61-.14,1.13-.45,1.67-.7.54-.26,1.12-.36,1.67-.55.48-.17.91-.08,1.29.27.2.47-.34.43-.46.68-.49.4-1.01.75-1.58,1.01-.18.08-.31.2-.45.33-.76.54-1.54,1.02-2.48,1.21-.68.14-1.17.64-1.7,1.05-1.35,1.13-2.13,2.51-1.99,4.35.04.59.07,1.18.18,1.76.15.83.07,1.45-.74,1.99-1.04.69-1.46,1.87-1.83,3.03-.33,1.03-.93,1.83-1.89,2.34-.27.14-.54.24-.84.12-.02,0-.04,0-.06,0-1.19.48-1.2.48-1.7-.73-.23-.55-.44-1.11-.66-1.67-.42-1.6-.83-3.2-1.25-4.8-.3-1.18-1.07-2.09-1.73-3.06Z"/>
  <path d="m75.45,66.02c.19.39.31.82.65,1.12.37,1.24.78,2.47,1.1,3.72.44,1.69.29,3.41.24,5.13-.04,1.45-.76,2.64-1.25,3.93-.42.68-.47,1.46-.58,2.22-.07.5-.08,1-.14,1.5-.03.23-.09.46-.38.5-.69-.04-1.32.01-1.98.41-.6.36-1.34-.03-1.98-.28-.91-.36-1.69-.94-2.45-1.54-.61-.48-1.23-.96-1.94-1.3-.37.04-.7-.07-1-.28-.64-.45-1.41-.73-1.88-1.41.05-.43-.12-.66-.57-.74-.39-.07-.72-.34-1.04-.55-.59-.39-1.21-.59-1.91-.6-.32-.06-.68,0-.86-.38-.26-1.92-1.2-3.62-1.78-5.44-.14-.44-.39-.83-.68-1.2-.59-.75-.37-1.59.48-2.04.41-.21.84-.38,1.24-.6.9-.35,1.71-.9,2.39-1.55.91-.85,1.58-1.88,1.42-3.27-.1-.91-.07-1.83-.19-2.74-.06-.48-.06-.96-.21-1.43.02-.81.07-1.62-.1-2.42-.02-.07-.04-.14-.06-.21-.12-1.37-.23-2.74-.14-4.12.16-.58.13-1.17.06-1.76-.3-2.61-.78-5.2-.94-7.84-.06-1-.54-1.94-.86-2.9-.36-1.08-.74-2.17-1.23-3.22-.13-.27-.13-.6-.02-.87.14-.34.29-.73.72-.81.39-.07.56.27.72.52.85,1.31,1.89,2.46,2.82,3.7,1.15,1.53,1.87,3.32,2.64,5.06.56,1.26.83,2.62,1.44,3.88.44.9.91,1.93.71,3.05-.17.91.58,1.41.99,2.04.61.93.92,1.99,1.36,2.99.36.83.66,1.7,1.36,2.34.73,1.39,1.47,2.78,2.2,4.18.39,1.14.9,2.23,1.61,3.21Z"/>
  <path d="m62.55,59.27c.05,1.17.39,2.3.29,3.49-.07.76.27,1.55-.17,2.29-.48.81-.83,1.68-1.74,2.18-.69.38-1.23,1.03-2.06,1.17-.22.11-.46.18-.67.32-.25.17-.56.34-.82-.02-.06-.25.06-.4.26-.51.79-.46,1.59-.89,2.34-1.42.5-.45.98-.89,1.3-1.52.44-.86.18-1.73.14-2.6-.07-1.65-.39-3.29-.32-4.96-.06-.92.3-1.79.23-2.71.04-.91-.29-1.79-.25-2.7,0-.23-.07-.44-.11-.67-.23-1.8-.53-3.6-.41-5.44.05-.71.08-1.41.06-2.12-.05-.73-.38-1.4-.5-2.12-.32-1.14-.68-2.27-1.13-3.37-.39-1-.83-1.97-1.36-2.91-.15-.26-.3-.59.07-.84.04-.39-.06-.71-.29-1.05-.35-.52-.32-1.1.05-1.63.58.61,1.09,1.28,1.75,1.81.58.67,1.17,1.35,1.75,2.02.43.82,1.05,1.49,1.69,2.13.83,1.12,1.54,2.32,2.2,3.55.91,1.67,1.49,3.49,2.21,5.24.25.99.64,1.94,1.03,2.88.32,1.18.75,2.32,1.26,3.43.56,1.67,1.26,3.28,2,4.88.09.19.17.38.26.57-.49-.04-.77-.3-.85-.79-.01-.06,0-.15-.05-.18-.82-.75-.88-1.86-1.34-2.79-.44-.89-.88-1.75-1.62-2.43-.17-.15-.16-.38-.16-.59,0-.49,0-.97,0-1.46,0-.43-.01-.85-.41-1.13-.05-.03-.11-.1-.11-.15.04-.68-.4-1.21-.65-1.78-.65-1.51-.69-3.24-1.77-4.59-.27-.34-.34-.81-.53-1.21-.37-.81-.75-1.61-1.36-2.25-1.05-1.1-1.89-2.35-2.74-3.6-.34-.51-.46-.49-.78.05-.14.23-.21.49-.11.73.21.53.34,1.08.56,1.61.37.86.86,1.69.96,2.65.01.1.04.21.08.3.72,1.46.65,3.05.78,4.61.06.71.21,1.42.32,2.12.24,1.54.49,3.08.43,4.65-.22.69-.47,1.35-.22,2.11.22.66.04,1.41.34,2.07.14.66.02,1.33.07,1.99.01.23-.06.46.06.67Z"/>
  <path d="m60.51,53.2c-.04,2.83.25,5.64.28,8.47.1.98.07,1.96.02,2.94-.08.64-.46,1.02-1.04,1.23.16-.73.08-1.49.44-2.21.26-.51-.04-1.12-.09-1.68-.03-.4-.03-.79,0-1.19.05-.62.07-1.25-.15-1.87-.22-.62-.12-1.29-.08-1.94.06-.86-.06-1.73.11-2.59.08-.41.51-.7.4-1.17,0,0,.02-.02.02-.02.05-.06.08-.04.09.03Z"/>
  <path class="cls-2" d="m119.7,133.81c-.35-.66.02-1.36-.1-2.03.52.18.09.61.23.89.06.18-.04.39.13.54-.09.2-.17.4-.26.6Z"/>
  <path class="cls-1" d="m119.48,134.69c.08-.3.16-.59.23-.89.42.46.4.53-.23.89Z"/>
  <path class="cls-17" d="m122.86,145.22c-.03-.09-.06-.18-.1-.26.53.07.27-.45.47-.63,0,.27.02.54.02.8,0,.12.06.29-.08.33-.17.05-.2-.17-.32-.24Z"/>
  <path class="cls-16" d="m119.18,130.89c-.29-.75-.79-1.35-1.38-1.88-.39-.68-.79-1.36-1.18-2.04.45.02.74.36.97.65.55.7,1.19,1.35,1.54,2.2.07.17.18.33.28.49.17.27.39.34.59.05.21-.29.48-.38.82-.36-.16.47-.32.93-.48,1.4-.27-.06-.47.35-.77.13-.2-.17-.27-.42-.39-.64Z"/>
  <path d="m119.57,131.53c.22-.27.45-.46.77-.13-.14.43-.25.88-.51,1.26-.08-.3-.15-.59-.23-.89-.01-.08-.02-.16-.03-.25Z"/>
  <path d="m136.81,70.06c-.58-.4-1.03-.99-1.77-1.13-.18.15-.34.14-.5-.02-1.74-.93-3.38-2.01-5-3.12-.39-.27-.71-.58-.85-1.05-.08-.68-.07-1.36,0-2.04,0-.33.02-.67.03-1,.15-.76-.03-1.54.1-2.3.01-1.14.03-2.27.04-3.41.73.45.8,1.23.84,1.94.09,1.41.02,2.81-.29,4.2-.12.55-.14,1.13-.19,1.69-.06.65.37,1.1.66,1.6.04.08.17.15.26.15,1.01-.1,1.66.53,2.31,1.15.12.12.21.26.41.23.58-.07,1.02.2,1.39.6.23.25.51.34.84.35,1.02.05,1.27.28,1.51,1.25.08.3.23.59.21.92Z"/>
  <path d="m128.86,77.92c-.57-.33-1.05-.31-1.61.12-.48.37-1.14.53-1.71.78-.19.09-.48.16-.53.3-.21.63-.69.59-1.19.61-.46.01-.79.28-1.15.57-.53.44-1.07.87-1.58,1.33-.22.2-.43.38-.6.62-.41.57-.93,1.01-1.67,1.09-.58.39-1.18.54-1.83.14-.2-.12-.45-.14-.68-.04-.5.2-.79-.02-1.04-.42-.35-.56-.73-1.14-.72-1.8.01-.96-.42-1.76-.82-2.56-.41-.82-.37-1.78-.83-2.57.13-1.79-.28-3.58.35-5.38.64-1.83,1.24-3.68,2-5.45.51-1.18,1.2-2.3,1.91-3.4.54-.84.88-1.81,1.31-2.72.29-.61.43-1.27.8-1.84.29-.45.24-1,.46-1.49.41-.94.96-1.82,1.29-2.8.03-.08.05-.16.1-.23.91-1.35,1.05-3,1.77-4.43.33-.65.29-1.47.6-2.17.59-1.34.78-2.84,1.56-4.11.34-.56.76-1.07,1.05-1.65.71-1.41,1.93-2.43,2.77-3.72.23-.35.58-.55.88-.81.15-.13.34-.19.52-.06.19.13.2.34.11.51-.32.6-.3,1.33-.78,1.86-.07.07-.13.19-.12.28.06.75-.19,1.34-.8,1.8-.14.1-.24.33-.25.5-.05,1.05-.47,2.05-.5,3.1,0,.27-.02.55,0,.82.1,1.39-.11,2.73-.47,4.06-.22.8-.19,1.6-.11,2.43.13,1.4.13,2.83.01,4.24-.07.88.14,1.72.07,2.59-.04.49-.05.96-.23,1.43-.53,1.35-.67,2.73-.33,4.15.04.18.07.4.01.56-.26.7.2,1.36.07,2.06-.05.26.22.43.47.4.53-.07.91.22,1.25.51.8.7,1.65,1.28,2.65,1.65.26.09.45.33.51.61.06.32.17.6.38.86.19.23.12.45-.02.7-.32.57-.48,1.23-.78,1.78-.38.69-.32,1.5-.86,2.16-.38.46-.64,1.19-.55,1.89.04.33-.23.48-.29.74-.24.23-.55.32-.86.42Z"/>
  <path d="m134.66,70.18c.22-.24.4-.08.6.04.64.39,1.13.96,1.69,1.45,1.22,1.33,1.02,2.96.94,4.55,0,.04-.04.08-.05.12-.08.34.16.89-.13.99-.47.16-1.09.19-1.55.02-1.28-.47-2.58-.69-3.94-.59-.17.01-.33-.04-.47-.14-.23-.17-.14-.37-.05-.57.49-1.17.95-2.34,1.54-3.46.29-.65.57-1.3.9-1.93.12-.22.21-.48.52-.47Z"/>
  <path d="m70.55,140.3c.25-.81.45-1.62.6-2.45.03-.19-.02-.64.45-.36.1.51-.2,1.02.02,1.52.47,1.06.48,2.22.75,3.31.41,1.72-.24,3.09-.89,4.52-.34.74-.71,1.46-1.07,2.19-.33-.51-.37-1,.03-1.51.35-.44.35-1.04.48-1.55.2-.8.52-1.55.7-2.35.19-.86-.15-1.72.14-2.56.03-.09-.02-.22-.13-.26-.13-.04-.19.06-.23.15-.29.65-1.12.92-1.2,1.72-.82.38-.87,1.36-1.5,1.9-.16.14-.31.39-.33.6-.11.95-.49,1.83-.62,2.77-.07.48-.08.98-.48,1.33,0-.77.02-1.54-.02-2.31-.03-.51.39-.88.37-1.37l1.14-2.4c-.13-.21-.07-.42.06-.59.48-.66.94-1.34,1.34-2.06.09-.16.22-.25.41-.24Z"/>
  <path d="m73.05,140.81s.08-.04.11-.04c.2,0,.35.1.42.29.01.04-.03.13-.06.14-.18.06-.29-.09-.43-.17-.01-.07-.03-.15-.04-.22Z"/>
  <path class="cls-14" d="m66.26,144.94c-.01-.37-.03-.75-.04-1.12.42.02.83-.02,1.2-.24-.15.33-.29.66-.44,1-.2.21-.35.5-.72.36Z"/>
  <path d="m53.43,70.76c1.15-.86,1.14-.85,1.8.41.76,1.46,1.4,2.97,2.09,4.46.12.33.72.51.28.99-.38.16-.78.18-1.16.12-1.18-.16-2.24.38-3.35.58-.48.09-.97.19-1.45-.05-.09-1.23-.08-2.46,0-3.7-.05-.57.17-1.06.54-1.47.4-.46.72-1.01,1.25-1.35Z"/>
  <path d="m57.99,74.85c-.68-1.6-1.24-3.25-2.23-4.7-.28-.41-.17-.68.26-.91.47-.24.93-.48,1.45-.62.23.17.47.17.7,0,.21-.15.44-.24.7-.23-.33.26-.7.46-1.1.6-.77.27-1.01,1.04-.48,1.66.75.88.98,1.97,1.33,3.02.09.26.15.53.31.75.65.9.68,1.95.69,3-.18.12-.27-.02-.37-.13-.16-.15-.41-.18-.51-.4-.61-.37-.53-1.05-.7-1.61-.04-.13.05-.29-.05-.42Z"/>
  <path d="m64.07,79.64c-.67-.33-1.27-.79-2-.99-.51-.35-1.13-.46-1.67-.75-.04-.01-.06-.03-.06-.06,0-.03,0-.05.02-.05.78-.18,1.5-.25,2.09.48.21.25.6.45.93.48.6.06.73.38.69.89Z"/>
  <path d="m106.65,146c.16-.08.32-.17.51-.13.58.13,1.06-.02,1.56-.35,1.12-.73,2.08-1.68,3.24-2.35.32-.18.63-.36,1-.44.32-.07.61-.21.8-.47.3-.42.75-.46,1.18-.56.31-.07.55.09.65.37.11.29.1.62-.2.79-.71.41-.89,1.04-1.04,1.81-.16.81-.52,1.63-1.13,2.26-.23.24-.47.48-.6.78-.74,1.67-1.79,3.15-2.66,4.74-.12.23-.28.36-.53.39-.13.01-.26.01-.37.06-.6.22-1.14.17-1.59-.32-.41-.52-.79-1.07-1.1-1.66-.1-.66-.5-1.21-.79-1.79-.46-.91-.5-1.72.21-2.52.24-.27.68-.24.83-.62Z"/>
  <path d="m107.49,152.58c.56.18,1.11.12,1.67,0,.3-.06.49-.16.63-.44.66-1.36,1.66-2.52,2.28-3.91.5-1.12,1.48-1.96,1.87-3.16.04-.14.19-.3.15-.4-.29-.69.28-1.13.45-1.68.08-.24.28-.29.49-.33.22-.04.35-.16.32-.39-.04-.28-.25-.29-.48-.27-.34.04-.66.04-.83.44-.12.28-.42.49-.69.51-1.37.11-2.21,1.14-3.23,1.84-.54.37-1.07.72-1.56,1.17-.44.4-.95.15-1.4-.1.46-.08.9-.21,1.28-.48.41-.14.75-.41,1.05-.69,1.42-1.29,3.09-2.18,4.77-3.07.62-.33,1.28-.64,1.73-1.23.11-.11.17-.32.39-.18.15.1.1.22.06.38-.29,1.22-.4,2.5-1.29,3.51-.28.32-.41.76-.51,1.19-.13.58-.58.96-.85,1.45l-.43.49c-.04.25-.19.4-.41.51-.81,1.33-1.31,2.81-2.02,4.18-.31.6-.55,1.23-.87,1.82-.51.95-1.23.98-1.83.09-.27-.4-.5-.83-.74-1.24Z"/>
  <path d="m106.65,146c-.06.51-.58.69-.81,1.11-.38.69-.25,1.21.04,1.82.3.63.71,1.24.52,2-.14-.18-.31-.35-.42-.54-.53-.94-1.34-1.37-2.4-1.37-.22,0-.47-.03-.52-.22-.03-.11.16-.32.29-.44.29-.27.6-.5.9-.75.52-.4,1.03-.82,1.57-1.21.25-.18.52-.34.84-.39Z"/>
  <path d="m119.45,150.67c-.13-.6-.42-1.16-.48-1.78.19-.49-.04-.88-.29-1.26-.19-.28-.31-.57-.34-.92-.09-1.07-.6-2.04-.64-3.14-.02-.69.08-1.38-.02-2.08-.05-.38.25-.61.57-.76.31-.14.51.1.71.28.22.2.36.46.59.66.15.21.3.41.44.62.63,1.22,1.19,2.47,1.8,3.7.23.47.34.98.51,1.46.24,1.16.03,2.32,0,3.48-.03.72.06,1.45-.05,2.16-.24.62-.31.66-1.23.6-.42-.2-.62-.6-.83-.99-.34-.15-.38-.45-.36-.77,0-.04,0-.08-.03-.12-.27-.33-.51-.67-.36-1.13Z"/>
  <path d="m122.21,147.24c-.5-.82-1.04-1.62-1.36-2.53-.21-.6-.44-1.18-.74-1.73-.11-.21-.31-.43-.12-.7.88.98,1.39,2.18,1.98,3.34.07.37.37.69.29,1.1.04.18.11.36-.05.52Z"/>
  <path class="cls-11" d="m105.02,122.51c0,.39.02.78.02,1.18,0,.5-.03.99-.42,1.37-.07.26-.14.51-.21.77-.06.2-.11.42-.4.33-.05-1.26-.07-2.52-.15-3.78-.06-.8-.09-1.62-.32-2.4-.04-.16-.04-.33-.05-.49.07.03.18.03.22.09.63.89,1.09,1.86,1.32,2.94Z"/>
  <path d="m119.55,141.67c-.3-.08-.47-.35-.72-.5-.18-.11-.35-.27-.57-.1-.2.15-.29.34-.28.6.04.88.05,1.75.1,2.63.04.61.41,1.15.48,1.76.08.67.11,1.36.63,1.92.29.31.13.67-.22.92-.39-1.12-1.01-2.12-1.54-3.17-.49-1.21-.65-2.46-.34-3.74.19-.78.1-1.61.47-2.35.14-.09.31-.12.46-.2.38-.2.58-.04.69.33.08.23.15.46.23.69.05.49.5.77.63,1.21Z"/>
  <path class="cls-6" d="m118.69,139.76c-.14-.14-.3-.21-.5-.1-.22.13-.44.07-.65-.03.32-.77.12-1.62.39-2.4.28.03.42.25.43.47.03.7.23,1.37.33,2.06Z"/>
  <path d="m62.43,56.6c-.36-.38-.25-.87-.31-1.32-.1-.76-.5-1.52-.09-2.31.09-.18.12-.4.27-.56-.41,1.41,0,2.79.13,4.18Z"/>
  <path d="m62.55,59.27c-.27-.88-.06-1.78-.13-2.66.27.88.06,1.78.13,2.66Z"/>
</svg>