<?xml version="1.0" encoding="UTF-8"?>
<svg id="Calque_1" data-name="Calque 1" xmlns="http://www.w3.org/2000/svg" viewBox="0 0 367.35 358.23">
  <defs>
    <style>
      .cls-1 {
        fill: #f7f3aa;
      }
    </style>
  </defs>
  <path class="cls-1" d="m266.27,101.1c35.97,4.12,72.33,35.33,75.2,79.21,2.66,40.76-28.8,82.13-74.72,90.47-57.23,10.4-107.53-30.3-106.76-83.69-.66-11.65,3.01-20.74,3.01-20.74l103.28,19.37c0-28.44,0-56.54,0-84.62Z"/>
  <path class="cls-1" d="m6.51,243.71c0,8.1,6.57,14.66,14.66,14.66h99.39c11.03,14.56,25.7,27.28,43.75,37.02,62.66,33.82,136.6,13.62,175.3-33.4,34.04-41.36,37.99-102.65,4.95-148.17,1.9-1.69,3.86-3.3,5.67-5.06,3.18-3.09,3.47-7.1.87-10.52-.87-1.15-1.84-1.93-2.87-2.37h0s-6.65-4.47-15.43,3.89c-6.75-5.5-13.46-11.14-20.65-16.42-8.79-6.45-18.76-10.96-29.57-14.96l.93-10.98-34.67-11.4-10.69,4.21v10.12c-23.01-.45-45.36,4.32-67.3,15.05-2.54-2.6-3.18-5-5.64-7.43,0,0-8.24-10.68-13.79-7.57-3.73,2.12-6.21,3.05-6.77,5.52h0s-2.44,7.68,6.15,21.46c0,0,0,0,0,0-8.49,6.27-15.95,13.03-22.4,20.18h-60.71c-8.1,0-14.66,6.56-14.66,14.66s6.57,14.66,14.66,14.66h40.66c-5.02,10.2-8.41,20.76-10.27,31.41h-51.84c-8.1,0-14.66,6.56-14.66,14.66s6.57,14.66,14.66,14.66h50.59c.94,10.71,3.39,21.27,7.31,31.41H21.17c-8.1,0-14.66,6.56-14.66,14.66Zm129.19-56.34c-.04-69.03,65.77-113.6,130.09-102.01,51.96,9.36,87.01,53.04,87.06,99.16.05,46.07-34.81,90.89-86.25,101.62-65.05,13.57-130.85-28.98-130.9-98.77Z"/>
  <path class="cls-1" d="m41.29,144.92c0-8.1-6.56-14.66-14.66-14.66h-11.97C6.57,130.25,0,136.82,0,144.92s6.57,14.66,14.66,14.66h11.97c8.1,0,14.66-6.56,14.66-14.66Z"/>
</svg>