<?xml version="1.0" encoding="utf-8"?>
<!-- Generator: Adobe Illustrator 27.5.0, SVG Export Plug-In . SVG Version: 6.00 Build 0)  -->
<svg version="1.1" id="Calque_1" xmlns="http://www.w3.org/2000/svg" xmlns:xlink="http://www.w3.org/1999/xlink" x="0px" y="0px"
	 viewBox="0 0 104.9 100" style="enable-background:new 0 0 104.9 100;" xml:space="preserve">
<style type="text/css">
	.st0{fill:#FFA800;}
</style>
<path class="st0" d="M103.2,34.2c-2.1-2-4.3-4-6.5-5.9c-0.3-0.3-0.7-0.6-1.1-0.9c-0.2-0.2-0.3-0.3-0.5-0.5c0,0,0,0,0,0
	c-2.6-2.6-2.9-0.4-4,0.6c-1,1-4.5,3.2-4.5,3.2c0.7-0.5,1.5-1.8,3.1-3.7s5.3-4.1,5.3-4.1l0,0c0.1-0.1,0.2-0.2,0.3-0.4
	c0.1-0.2,0.3-0.3,0.4-0.5c0.2-0.3,0.4-0.6,0.6-0.9c0.2-0.3,0.4-0.6,0.6-0.9v0C97,20.1,97,20,96.9,20c-0.6-0.2-1.2-0.5-1.8-0.6
	c-2.6-0.1-5.2,0.1-7.8,0c-0.8,0-1.6-0.1-2.3-0.2c0,0,0,0,0,0c-6.3-0.2-7.5,4.5-7.1,6.9c0.4,2.4,0,9.5,0,9.5c0-1.4-1-3.9-2.1-8.1
	C74.5,23.4,80,16.7,80,16.7c0-0.3,0-0.7,0.2-1.2c0.4-1.4,0.9-2.7,1.4-4.3c-0.6,0.1-1.1,0-1.6,0.2c-0.9,0.3-1.9,0.7-2.6,1.3
	c-2.5,1.9-4.9,4-7.3,6c-0.2,0.1-0.3,0.3-0.5,0.5l0,0c0,0,0,0,0,0c-0.1,0.1-0.2,0.2-0.4,0.3c-1.4,1-3.2,2.7-3,3.7
	c0.2,1.2,0.2,4.7,0.2,4.7c0-0.7-0.6-1.9-1.3-4c-0.6-1.9,1.6-5,1.9-5.5c0-0.1,0-0.2,0-0.3c0-0.6,0.3-1.3,0.3-1.9
	c0-0.4-0.2-1.1-0.5-1.3c-0.3-0.2-1,0.1-1.2,0.4c-1.1,1.2-2,2.6-3.2,3.7c-1.9,1.8-3.9,3.6-6,5.1c-1.1,0.8-2.4,1.2-3.7,1.2
	c-1.3,0-2.7-0.4-3.7-1.2c-2.1-1.6-4.1-3.3-6-5.1c-1.2-1.1-2.1-2.5-3.2-3.7c-0.3-0.3-1-0.6-1.2-0.4c-0.3,0.2-0.5,0.8-0.5,1.3
	c0,0.6,0.3,1.3,0.3,1.9c0,0.1,0,0.2,0,0.3c0.3,0.4,2.5,3.5,1.9,5.5c-0.7,2.1-1.2,3.3-1.3,4c0,0,0-3.5,0.2-4.7c0.2-1.1-1.7-2.7-3-3.7
	c-0.1-0.1-0.3-0.2-0.4-0.3c0,0,0,0,0,0l0,0c-0.2-0.1-0.3-0.3-0.5-0.5c-2.4-2-4.9-4-7.3-6c-0.8-0.6-1.7-0.9-2.6-1.3
	c-0.5-0.2-1-0.1-1.6-0.2c0.5,1.6,1,2.9,1.4,4.3c0.1,0.4,0.2,0.8,0.2,1.2c0,0,5.5,6.6,4.4,10.8c-1.1,4.2-2.1,6.7-2.1,8.1
	c0,0-0.4-7.1,0-9.5c0.4-2.4-0.8-7.1-7.1-6.9c0,0,0,0,0,0c-0.8,0.1-1.6,0.1-2.3,0.2c-2.6,0.1-5.2-0.1-7.8,0c-0.6,0-1.2,0.3-1.8,0.6
	c-0.1,0-0.2,0.1-0.3,0.1v0C8,20.4,8.2,20.7,8.4,21c0.2,0.3,0.4,0.6,0.6,0.9c0.1,0.2,0.3,0.3,0.4,0.5c0.1,0.1,0.2,0.2,0.3,0.4l0,0
	c0,0,3.7,2.2,5.3,4.1s2.5,3.2,3.1,3.7c0,0-3.5-2.2-4.5-3.2c-1-1-1.4-3.2-4-0.6c0,0,0,0,0,0c-0.1,0.2-0.3,0.3-0.5,0.5
	c-0.3,0.3-0.7,0.6-1.1,0.9c-2.2,2-4.4,3.9-6.5,5.9c-0.5,0.5-0.9,1.3-1.5,2.2c1,0.1,1.7,0.1,2.3,0.1c0.5,0,0.9,0,1.2,0.1l0,0
	c0,0,2.8-1.5,5.2-0.8c2.4,0.7,3.8,1.4,4.7,1.4c0,0-4.1,0.1-5.5-0.2c-0.9-0.2-2.5,0-3.4,1.3c-0.1,0.2-0.1,0.5-0.2,0.8
	c-0.2,0.5-0.4,1.1-0.5,1.6c0,0.1,0,0.1,0,0.2c0,0.8-0.1,1.4-0.3,1.7c-0.1,1.1-0.1,2.3-0.1,3.4c0.1,3.6,1.3,6.8,3.5,9.8
	c0,0,0.3-5,2.7-6.5c2.3-1.5,3.8-2.3,4.4-2.9c0,0-3,3.4-4.2,4.4c-1.1,0.9-1.7,2.2,0.1,4.2c0.1,0.1,0.1,0.1,0.2,0.2
	c0.2,0.2,0.4,0.4,0.6,0.6c0.1,0.1,0.2,0.2,0.3,0.3c1.8,1.8,3.6,3.6,5.2,5.5c2.9,3.4,5.2,7.1,5.9,11.6c0.6,3.4,0.8,6.8-2.4,9.4
	c-1.7,1.4-3.3,1.7-5.3,0.6c-0.8-0.4-1.6-1-2.5-1.4c-0.6-0.2-1.2-0.1-1.9-0.1c0.1,0.6,0.1,1.3,0.4,1.7c2.8,4.1,6.6,5.7,11.6,5.1
	c3.2-0.4,5.5-1.9,6.6-4.9c0.8-2,1.4-4.1,1.6-6.1c0.4-3.6,0.5-7.3-1-10.7c-1.4-3-2.7-6.1-4.2-9.1c-0.7-1.4-1.4-2.7-2.3-4
	c-1.8-2.6-2-5.5-1.4-8.5c0.4-2.1,2.1-3.1,4.3-2.6c3.8,0.9,5.5,5.2,3.5,8.6c-0.3,0.5-0.2,1.3-0.3,2c0.5-0.2,1.2-0.3,1.6-0.7
	c1.3-1.4,3.3-1.4,5-1c0.7,1.6,1.9,5-0.4,6.9c0,0-0.9,2.1,1.3,1.9c2.2-0.3,4.9-0.2,6.4,1.1c0.3,1.5,0.6,3,0.9,4.6
	c0.1,0.5,0.4,0.9,0.6,1.4c0.1,0,0.2-0.1,0.4-0.1c0.1-1.7,0.2-3.5,0.3-5.2c0.2,0,0.3,0,0.5,0c0.9,3,0,6.5,2.2,9.3
	c0.2-1.8,0.4-3.7,0.6-5.5c0.2,0,0.3,0,0.5,0c0.6,2.4,0.4,5,1.9,7.3c0.2-0.4,0.3-0.7,0.3-1c0.3-1.6,0.5-3.2,0.8-4.8
	c0.1-0.4,0.5-0.8,0.7-1.2c0.3,0.4,0.6,0.7,0.7,1.2c0.3,1.6,0.5,3.2,0.8,4.8c0,0.3,0.2,0.5,0.3,1c1.5-2.3,1.3-4.9,1.9-7.3
	c0.2,0,0.3,0,0.5,0c0.2,1.8,0.4,3.7,0.6,5.5c2.2-2.8,1.3-6.2,2.2-9.3c0.2,0,0.3,0,0.5,0c0.1,1.7,0.2,3.5,0.3,5.2
	c0.1,0,0.2,0.1,0.4,0.1c0.2-0.5,0.5-0.9,0.6-1.4c0.3-1.5,0.6-3,0.9-4.6c1.5-1.4,4.2-1.4,6.4-1.1c2.2,0.3,1.3-1.9,1.3-1.9
	c-2.3-1.8-1.1-5.3-0.4-6.9c1.7-0.4,3.7-0.3,5,1c0.4,0.4,1.1,0.4,1.6,0.7c-0.1-0.7,0-1.4-0.3-2c-2-3.4-0.3-7.7,3.5-8.6
	c2.1-0.5,3.8,0.5,4.3,2.6c0.6,3,0.4,5.8-1.4,8.5c-0.9,1.3-1.6,2.6-2.3,4c-1.4,3-2.8,6-4.2,9.1c-1.6,3.4-1.4,7.1-1,10.7
	c0.2,2.1,0.8,4.2,1.6,6.1c1.1,2.9,3.4,4.5,6.6,4.9c4.9,0.6,8.8-0.9,11.6-5.1c0.3-0.5,0.3-1.2,0.4-1.7c-0.6,0-1.3-0.1-1.9,0.1
	c-0.9,0.3-1.6,0.9-2.5,1.4c-2,1.1-3.6,0.8-5.3-0.6c-3.2-2.6-3-5.9-2.4-9.4c0.8-4.5,3-8.2,5.9-11.6c1.6-1.9,3.4-3.7,5.2-5.5
	c0.1-0.1,0.2-0.2,0.3-0.3c0.2-0.2,0.4-0.4,0.6-0.6c0.1-0.1,0.1-0.1,0.2-0.2c1.8-2,1.2-3.4,0.1-4.2c-1.2-1-4.2-4.4-4.2-4.4
	c0.6,0.7,2.1,1.4,4.4,2.9c2.3,1.5,2.7,6.5,2.7,6.5c2.2-3,3.4-6.2,3.5-9.8c0-1.2,0-2.3-0.1-3.4c-0.2-0.4-0.3-0.9-0.3-1.7
	c0-0.1,0-0.1,0-0.2c-0.1-0.6-0.3-1.1-0.5-1.6c-0.1-0.3-0.2-0.6-0.2-0.8c-0.9-1.3-2.5-1.5-3.4-1.3c-1.4,0.3-5.5,0.2-5.5,0.2
	c0.8,0,2.3-0.6,4.7-1.4c2.4-0.7,5.2,0.8,5.2,0.8l0,0c0.3-0.1,0.7-0.1,1.2-0.1c0.6,0,1.2-0.1,2.3-0.1
	C104.1,35.4,103.8,34.7,103.2,34.2z M44.9,46.5c-0.1,1.2-0.2,2.4-0.3,3.7c-0.4,0-0.5,0-0.5-0.1c-1.4-2.7-4.3-3.2-6.5-4.6
	c-2.2-1.4-3.5-3.2-3.8-5.7c-0.1-0.6-0.2-1.2-0.4-1.8c-0.3-0.9,0.1-1.4,0.9-1.2c2.2,0.6,4.5,1.1,6.5,2.1
	C43.6,40.4,45.1,43.1,44.9,46.5z M54.5,58.4c-0.2,0.1-0.6,0-0.7-0.2c-0.2-0.2-0.3-0.4-0.4-0.7c-0.2-0.5-0.4-1.1-0.6-1.6
	c0-0.1,0-0.1-0.1-0.1v-0.2c-0.1,0-0.1,0-0.2,0c-0.1,0-0.1,0-0.2,0v0.2c0,0-0.1,0.1-0.1,0.1c-0.2,0.5-0.4,1.1-0.6,1.6
	c-0.1,0.3-0.2,0.5-0.4,0.7c-0.2,0.1-0.5,0.2-0.7,0.2c-0.1,0-0.3-0.4-0.3-0.6c0-1.8,0.4-3.5,1.2-5.1c0.2-0.4,0.7-0.8,1.1-0.8
	c0.4,0.1,0.9,0.5,1.1,0.8c0.8,1.6,1.2,3.3,1.2,5.1C54.8,58,54.6,58.4,54.5,58.4z M71.6,37.9c-0.2,0.6-0.3,1.2-0.4,1.8
	c-0.3,2.5-1.6,4.4-3.8,5.7c-2.2,1.4-5.1,2-6.5,4.6c0,0-0.1,0-0.5,0.1c-0.1-1.3-0.3-2.5-0.3-3.7c-0.2-3.4,1.2-6.1,4.2-7.6
	c2-1,4.3-1.5,6.5-2.1C71.5,36.6,71.9,37.1,71.6,37.9z"/>
</svg>
