<?xml version="1.0" encoding="UTF-8"?>
<svg id="Calque_2" data-name="Calque 2" xmlns="http://www.w3.org/2000/svg" viewBox="0 0 367.35 358.23">
  <defs>
    <style>
      .cls-1 {
        fill: #ffffb4;
      }
    </style>
  </defs>
  <path class="cls-1" d="m182.09,55.3c-68.07.79-123.06,56.54-122.24,125.6.96,67.54,56.23,122.96,125.68,122.03,67.09-.9,123.38-55.85,121.96-126.47-1.35-67.49-56.47-121.96-125.4-121.16Zm112.41,125.39c-.54,59.46-50.04,109.99-112.32,109.26-59.38-.7-109.73-50.07-109.33-111.55.39-59.66,48.64-108.43,107.59-110.1,64.01-1.81,115.25,50.98,114.06,112.39Z"/>
  <path class="cls-1" d="m182.79,78.45c-54.94.42-99.42,44.99-99.78,100.02-.37,55.96,44.98,101.33,100.57,101.28,55.57.19,101.05-45.13,100.8-101.17-.25-54.4-44.32-100.57-101.59-100.13Zm83.24,141.24c1.28,5.56-1.62,10.53-7.14,11.95-4.3,1.1-8.67,1.93-13.04,2.76-6.63,1.26-13.33,1.79-18.08,1.82-12.33,0-22.49-1.33-32.27-4.78-3.5-1.23-6.8-3.04-10.29-4.28-.99-.35-2.38-.46-3.61.17-4.61,2.37-9.42,4.22-14.43,5.59-7.11,1.95-14.36,3.01-21.73,3.23-7.17.21-14.32-.11-21.4-1.36-4.97-.88-9.95-1.78-14.86-2.92-6.35-1.47-9.34-6.61-7.65-12.93,4.49-16.7,11.93-31.9,22.93-45.32,5.01-6.11,10.83-11.24,17.44-15.52,1.2-.78,1.76-1.75,1.85-3.2.6-9.81,2.92-19.22,6.98-28.15,5.24-11.54,12.04-22.09,20.56-31.49,1.7-1.88,3.43-3.73,5.22-5.52,4.16-4.15,10.18-4.14,14.34.03,9.6,9.63,17.54,20.48,23.69,32.62,5.08,10.01,8.26,20.57,8.92,31.81.12,2,.9,3.29,2.62,4.38,6.69,4.24,12.42,9.56,17.39,15.73,9.31,11.54,16.08,24.42,20.57,38.52.72,2.27,1.45,4.55,1.98,6.87Z"/>
  <path class="cls-1" d="m212.61,164.53c.24-1.18-.08-1.56-1.15-1.86-3.52-.95-6.99-2.09-10.52-2.99-5.59-1.41-11.28-2.14-16.85-2.48-1.53.09-2.87.13-4.2.26-8.35.8-16.46,2.68-24.4,5.35-.85.29-1.05.65-.83,1.47,1.44,5.25,2.7,10.56,4.31,15.76,1.74,5.61,4.12,10.98,7.46,15.83,4.57,6.66,10.14,12.43,16.3,17.66.72.61,1.22.67,1.92-.03,2.93-2.9,6-5.67,8.83-8.66,3.6-3.82,7.02-7.81,9.56-12.44,4.79-8.74,7.57-18.16,9.57-27.87Z"/>
  <path class="cls-1" d="m227.19,171.99c-1.29-1.14-2.68-2.18-4.14-3.37-.14.38-.21.51-.23.65-.8,5.54-2.38,10.85-4.48,16.03-2.35,5.8-5.65,11.05-9.07,16.26-4.33,6.6-9.14,12.77-15.39,17.69-.13.1-.2.26-.37.48.51.23.92.43,1.34.61,9.36,3.86,19.17,5.43,29.23,5.59,10.58.17,20.99-1.23,31.24-3.84.25-.06.6-.62.55-.87-.21-1.09-.52-2.16-.85-3.22-2.37-7.65-5.4-15.02-9.17-22.09-4.83-9.06-10.97-17.1-18.66-23.91Z"/>
  <path class="cls-1" d="m154.92,196.6c-5.29-8.58-9.04-17.76-10.53-27.93-.45.32-.69.47-.92.64-4.29,3.25-8.06,7.05-11.49,11.17-7.16,8.58-12.46,18.25-16.48,28.63-1.5,3.87-2.66,7.86-3.98,11.8-.22.66-.2,1.07.64,1.24,3.82.78,7.6,1.81,11.46,2.37,5.32.78,10.66,1.42,16.07,1.46,10.21.06,20.2-1.13,29.87-4.5,1.45-.51,2.87-1.12,4.48-1.76-8.17-6.43-13.86-14.6-19.12-23.13Z"/>
  <path class="cls-1" d="m213.08,151.57c-.28-1.73-.49-3.4-.82-5.05-1.53-7.6-4.25-14.79-7.81-21.65-5.18-9.96-11.81-18.88-19.72-26.84-1.07-1.08-1.09-1.09-2.16.04-7.02,7.4-13.39,15.28-18.27,24.31-4.11,7.61-7.47,15.49-9.18,24.01-.35,1.72-.58,3.46-.87,5.22,19.63-6.41,39.09-6.33,58.83-.03Z"/>
</svg>