<?xml version="1.0" encoding="utf-8"?>
<!-- Generator: Adobe Illustrator 27.5.0, SVG Export Plug-In . SVG Version: 6.00 Build 0)  -->
<svg version="1.1" id="Calque_1" xmlns="http://www.w3.org/2000/svg" xmlns:xlink="http://www.w3.org/1999/xlink" x="0px" y="0px"
	 viewBox="0 0 383.2 384" style="enable-background:new 0 0 383.2 384;" xml:space="preserve">
<style type="text/css">
	.st0{fill:#D60000;}
</style>
<g>
	<path class="st0" d="M212.9,52.6c12,1.8,23.7,4.9,34.7,10C236.6,57.5,224.9,54.4,212.9,52.6c-2.6-0.1-5,1.5-5.9,3.8
		C207.9,54.1,210.3,52.6,212.9,52.6z"/>
	<path class="st0" d="M185.5,8.7c0.1,20.5,0.1,41,0.1,61.4c0,1.7-0.1,3.5,0.1,5.2c0.3,3.3,2.8,5.6,5.9,5.6c3.1,0,5.6-2.3,5.9-5.6
		c0.1-1,0.1-2,0.1-3c0-21.2-0.1-42.5,0.1-63.7c0-3.7-0.8-6.6-3.8-8.7c-1.5,0-3,0-4.5,0C186.3,2.1,185.5,5,185.5,8.7z"/>
	<path class="st0" d="M374.6,185.9c-20.4,0.1-40.9,0.1-61.3,0.1c-1.7,0-3.5-0.1-5.2,0.1c-3.3,0.3-5.6,2.8-5.6,5.9
		c0,3.1,2.3,5.6,5.6,6c1,0.1,2,0.1,3,0.1c21.2,0,42.4-0.1,63.6,0.1c3.7,0,6.5-0.8,8.7-3.8c0-1.5,0-3,0-4.5
		C381.1,186.7,378.2,185.9,374.6,185.9z"/>
	<path class="st0" d="M197.6,375.3c-0.1-20.7-0.1-41.5-0.1-62.2c0-1.6,0.2-3.3-0.1-4.9c-0.5-3.2-2.6-5.2-5.9-5.2
		c-3.3,0-5.3,1.9-5.9,5.2c-0.2,1.1-0.1,2.2-0.1,3.4c0,21.2,0.1,42.5-0.1,63.7c0,3.7,0.8,6.6,3.8,8.7c1.5,0,3,0,4.5,0
		C196.9,381.9,197.7,379,197.6,375.3z"/>
	<path class="st0" d="M256.6,27.5c-13.8-5.9-28.4-9.3-42.7-11.1c-4.2-0.1-6.8,1.8-7.3,5c-0.4,3.2,1.6,6,5.1,6.7
		c3.5,0.7,7.2,1,10.7,1.8c64.3,14.1,106.8,52.6,127,115.3c2.7,8.3,3.7,17,5.4,25.6c0.8,4,3.4,6.4,6.8,6c3.4-0.4,5.4-3.1,5.2-7
		c-0.2-2.5-0.5-5-1-7.4C353.1,98.3,316.9,53.1,256.6,27.5z"/>
	<path class="st0" d="M170.8,355.7c-3.2-0.6-6.4-0.9-9.6-1.6C92.9,338.9,49.5,297.5,31.4,229.8c-1.5-5.6-2.1-11.5-3.2-17.3
		c-0.7-3.7-3.6-5.9-6.9-5.4c-3.2,0.5-5.2,3.1-5,6.8c0.2,2.6,0.5,5.2,1,7.8C30,285.1,65.7,330,125,355.8c14.2,6.2,29.2,9.9,44.1,11.7
		c4.4,0.2,7.1-1.9,7.4-5.2C176.9,359.1,174.6,356.3,170.8,355.7z"/>
	<path class="st0" d="M256.6,343.6c-13.8,6.3-28.4,10-43.4,11.9c-4.3,0.6-6.9,3.2-6.6,6.7c0.3,3.4,3,5.5,7.3,5.3
		c2-0.3,4.5-0.5,6.9-1c70.3-14.3,117.2-55.5,139.8-123.8c3.1-9.3,4.4-19.2,6.1-28.9c0.7-3.8-1.8-6.6-5.2-6.9
		c-3.2-0.3-5.8,1.8-6.6,5.4c-0.4,1.8-0.5,3.7-0.9,5.5C343.5,276.9,311,318.8,256.6,343.6z"/>
	<path class="st0" d="M18.4,175c1.6,1,4.4,2,5.7,1.3c1.9-1,3.5-3.5,4.1-5.6c1.5-6.2,1.9-12.6,3.7-18.7
		c18.8-66.5,62-107.3,129.4-122.1c3.5-0.8,7.2-1.1,10.7-1.9c3.3-0.8,5.2-3.8,4.5-6.7c-0.7-3.2-2.8-4.9-6.1-4.9c-0.9,0-1.8,0-2.6,0.2
		c-7,1.4-14,2.4-20.8,4.3c-57,16-96.9,51.6-119.6,106.3c-5.7,13.8-9.2,28.2-11.1,44.1C16.6,172.1,17.1,174.2,18.4,175z"/>
	<path class="st0" d="M172.1,319.6c-1.2-0.3-2.4-0.5-3.7-0.7c-25.2-4.6-47.2-15.7-65.7-33.3c-20.8-19.9-33.3-44.2-38.3-72.5
		c-0.8-4.3-3.7-6.6-7.1-5.9c-3.5,0.7-5.3,3.8-4.5,8.1c5.3,31.5,19.7,58.1,42.9,79.9c20.8,19.5,45.3,31.4,73.4,36
		c4,0.7,7.5-2.1,7.5-5.9C176.6,322.7,174.8,320.4,172.1,319.6z"/>
	<path class="st0" d="M276,289.5c-18.4,16.1-39.8,25.7-63.8,29.9c-4,0.7-6.2,3.7-5.5,7c0.7,3.4,3.9,5.4,7.7,4.7
		c50.6-9.5,86.4-38,107-85.1c4.5-10.3,6.9-21.5,10.2-32.4c-0.3-0.1-0.6-0.2-1-0.3c0.1-3.2-2.2-6-5.2-6.3c-3.3-0.3-5.5,1.3-6.5,4.4
		c-0.4,1.2-0.5,2.4-0.8,3.7C312.7,244.8,298.7,269.7,276,289.5z"/>
	<path class="st0" d="M138.8,74.5c10.1-4.6,21.3-6.7,32-9.8c3.8-1.1,5.9-3,5.8-6.2c-0.1-4-3.5-6.4-7.9-5.6
		c-44,7.9-77.1,31.5-99.7,70c-8.5,14.4-13.6,30.2-16.3,46.7c-0.6,3.6,1.6,6.7,4.8,7.3c3.1,0.6,6-1.5,6.9-4.9
		c0.3-1.1,0.4-2.2,0.7-3.3C73.8,124.9,98.3,93.2,138.8,74.5z"/>
	<path class="st0" d="M247.6,62.6c-11-5.1-22.7-8.2-34.7-10c-2.6-0.1-5,1.5-5.9,3.8c-0.1,0.3-0.2,0.7-0.3,1c-0.6,2.9,1.1,5.8,4,6.8
		c1.3,0.4,2.7,0.6,4,0.9c28.9,5.3,53.3,18.9,73,40.8c16.8,18.7,26.8,40.6,31.1,65.3c0.7,4,3.8,6.2,7.1,5.5c3.4-0.7,5.3-3.9,4.6-7.8
		C321.1,119.3,293.4,83.9,247.6,62.6z"/>
	<path class="st0" d="M40,198c11.1,0,22.2,0,33.3,0c4.7,0,7.5-2.3,7.5-6c0-3.7-2.7-6-7.5-6c-22,0-43.9,0-65.9,0
		c-4.7,0-7.5,2.2-7.5,6c0,3.7,2.7,6,7.5,6C18.3,198,29.2,198,40,198z"/>
	<polygon class="st0" points="191.6,150.4 213.9,75.4 169.3,75.4 	"/>
	<polygon class="st0" points="191.6,233.5 169.3,308.5 213.9,308.5 	"/>
	<polygon class="st0" points="191.6,150.4 213.9,75.4 169.3,75.4 	"/>
	<polygon class="st0" points="191.6,233.5 169.3,308.5 213.9,308.5 	"/>
	<polygon class="st0" points="233.1,191.9 308.1,214.2 308.1,169.7 	"/>
	<polygon class="st0" points="150.1,191.9 75.1,169.7 75.1,214.2 	"/>
	<circle class="st0" cx="191.6" cy="192" r="6"/>
</g>
</svg>
