<?xml version="1.0" encoding="UTF-8"?>
<svg id="Calque_2" data-name="Calque 2" xmlns="http://www.w3.org/2000/svg" viewBox="0 0 367.35 358.23">
  <defs>
    <style>
      .cls-1 {
        fill: #ff006b;
      }
    </style>
  </defs>
  <path class="cls-1" d="m82.09,171.35c.85-10.38,11.15-13.79,12.94-10.64,0,0-3.99-8.3-11.2-6.35-2.25.24-4.94,2.03-7.87,7.02-8.13,13.86-4.63,30.22-25.61,26.81,0,0,5.28,5.79,13.45,4.26,8.17-1.53,17.45-10.72,18.3-21.11Z"/>
  <path class="cls-1" d="m119.15,91.48c-3.04-1.58-9.53-.04-10.15.11-.42.06-.99.29-1.81.64-.74.42-1.49.84-2.23,1.27-7.71,4.48-11.53,15.17-8.5,23.94.75,2.16,1.73,4.2,3.63,5.63.32.24.63.39.94.48,2.09,1.11,7.19,3.99,10.61,7.4-3.72,4.54-.64,14.77-.64,14.77,7.94-12.35,17.79-13.26,17.79-13.26,10.14-1.99,14.3-7.22,15.94-11.9,2.73-5.45.07-11.08.07-11.08,1.4,6.77-4.72,12.13-14.94,14.68s-13.68,9.8-13.68,9.8c0,0,1.55-12.48-8.41-19.62-9.96-7.15,11.36-22.85,11.36-22.85Z"/>
  <path class="cls-1" d="m145.55,185.33c-.54-2.14-9.74-3.86-14.84-.6-5.11,3.25-18.38,2.17-16.79-4.28s-2.91-13.95-2.91-13.95c0,0-15.92,22.9,3.06,25.76,18.98,2.86,21.54-9.49,31.48-6.93Z"/>
  <path class="cls-1" d="m85.99,220.89c4.02.24,5.87-3.88,6.72-7.73.73-3.29.74-6.39.74-6.39,0-5.53,15.82-7.58,15.82-7.58-10.04,0-16.8,1.47-22.6,4.39-1.38.69-2.7,1.49-4,2.35-1.84,1.22-3.65,2.56-5.48,4.11-1.58,1.33-3.06,2.27-4.43,2.93-3.85,1.85-6.83,1.47-8.5.92-.98-.32-1.52-.69-1.52-.69,0,.22.05.4.06.61.83,10.5,11.24,6.62,11.24,6.62,3.81,6.51,8.13,3.62,8.13,3.62-3.61-2.71-3.61-3.62,3.84-3.16Z"/>
  <path class="cls-1" d="m142.26,149.05c4.85-1.79,13.28-4.72,17.11-3.96,3.34.67,14.81,4.63,18.33,6.65.62.47.99.75.99.75.15-4.22-8.44-20.79-34.8-12.35-26.36,8.44,3.77,30.88,3.77,30.88,0,0,4.3-3.46,1.62-7.8-2.68-4.34-11.87-12.38-7.02-14.17Z"/>
  <path class="cls-1" d="m171.87,135.26s5.26,2.21,9.46.17c.67.22,1.1-.08,1.55-.99.7-1.46,1.42-2.91,2-4.43,1.97-5.15,2.36-10.35-.29-15.55-.19-.42-.36-.85-.57-1.26-.23-.43-.5-.84-.75-1.26-3.46-5.86-8.09-10.33-14.39-12.8-1.37-.54-2.78-.96-4.2-1.33,0,0-10.54-2.51-15.78.94,0,0,27.06,6.64,28.85,19.53,1.79,12.89-1.79,15.57-5.87,16.98Z"/>
  <path class="cls-1" d="m262.5,275.01c10.22.07,118.78-69.98,82.89-59.84-10.53,10.62-79.77,26.82-59.64,1.51-42.89,11.07,3.67-8.8-24.88-3.49-7.73-17.06,47.43-38.52,12.35-35.46,5.81-9.12,13.31-18.02,12.67-28.97,16.89-16.34,1.2-20.14,13.43-41.72,23.37-30.6-10.94-.99-38.35,14.54,3.25-3.67,6.4-7.77,7.94-11.64,4.77-11.92,15.66-32.34,15.66-32.34,0,0-9.53-.34-17.7,16.51-6.34,13.09-24.59,16.01-32.43,16.66.93-2.45,2.3-4.86,3.88-7.07,4-6,12-10,14-16,8.78-30.25,32.8-46.21,60.9-53.47,2.54-6.23-23.19.89-42.05,7.05-23.4,7.99-72.61,32.08-37.61-5.26,3.41-4.45,30.44-26.75,20.49-21.47-32.28,14.26-46.28,17.9-71.4,39.5-20.47,14.09-5.92-6.08,3.52-12-26.88-5.14-66.08,49.1-45.18,11.57-8.08-2.81-11.92,14.72-14.08,3.89,4.88-24.51,23.49-18.94,33.06-37.92-67.4,10.89-68.04,23.11-84.81,52.87-9.36-4.03-14.06-3.89-21.27,9.18-5.8-7.65-4.44-27.9-1.47-37.09-11,8.4-11.67,32.69-13.37,52.47-2.92,5.42-4.1,22.96-8.81,6.55-6.88-5.34-24.86,29.47-9.54,53.64,0,0-.22,1.38-.52,3.87-2.49,5.15-6.62,16.45-1.47,26.97,0,8.18-17.43,6.44,19.72,30.05.52,4.39-1.83,7.35-4.26,12.72-1.89,4.18-9.77,12.23-9.81,13.77-.09,3.44.07,6.47.68,8.36,2.07,6.43,19.42,18.72,27.05,22.86,7.18,12.01,5.81,29.09,17.97,38.4,4.22,7.97,12.51,18.75,25.7,16.11.71-.14,1.4-.29,2.08-.44,5.45,2.19,18.13-3.44,24.33-1.86,1.9,4.45,4.1,14.54,13.31,15.69,1.52-3.75,1.96-6.82,1.96-6.82-1.13-2.26,0-16.04,0-16.04,0,0-12.2-11.75-16.27-12.2s-14.46,7-20.11,9.49c-4.86,2.14-7.54,3.44-10.97,3.76l-10.6-11.58-.71-7.54c-1.67.37-5,.13-6.15.04l-.88-.96c-1.94-4.68,1.83-10.83,1.83-10.83,0,0,11.75,2.03,12.37-3.84.63-5.88-6.95-11.3-6.95-11.3-6.1,2.03-16.32,0-16.32,0v-11.75c4.92-1.13-4.47-1.36-10.79-.9-6.33.45-11.52-10.17-11.52-10.17l5.42-6.1c2.26-7.23,9.49-25.01,9.49-25.01,3.84-4.22-5.2-5.95-9.72-8.25-2.72-1.39.37-9.76.86-12.37-3.16-2.53-10.33-2.86-12.82-6.5-3.82-5.59-4.81-9.71-5.41-16.42-.62-6.96.32-13.65,3.9-19.64,1.93-3.23,4.61-5.62,8.25-6.65,4.5-1.28,9.4.82,12.31,5.19.64.97,1.19,2.01,1.71,3.05.38.77.92,1.06,1.67.84.64-.19,1.29-.44,1.87-.77.74-.42.64-1.16.38-1.86-.2-.51-.41-1.02-.64-1.52-2.16-12.5-16.77-18.37-22.82-20.29,1.25-3.67,1.46-7.6,3.57-10.91,1.58-2.47,3.32-4.79,5.32-6.94,2.98-3.19,8.14-5.2,12.18-6.88,2.2-.92,4.46-1.11,6.78-.25,2.29.85,2.8,1.79,2.08,4.12-1.35,4.36-1.74,8.79-.71,13.33,1.14,5.03,3.63,9.21,7.86,12.24,1.57,1.12,3,.94,3.9-.53.63-1.03.49-1.84-.5-2.62-.37-.29-.71-.61-1.06-.92-8.14-21.64,9.76-19.92,3.14-30.23-6.89-10.72-22.45-1.63-22.45-1.63.99-1.19,1.99-2.36,3-3.54,4.92-5.77,9.49-11.41,16.5-14.23,4.98-2.01,11.43-1.93,16.82-2.13,1.33-.05,1.43-3.41,2.35-4.45,5.04-5.77,11.33-9.62,18.62-11.67,6.85-1.94,13.87-2.16,20.87-.2,1.17.33,3.31,3.76,4.42,4.39,2.52,8.02-5.86,14.96-10.34,20.96-5.23,7.02,3.29,12.94,3.29,12.94,0,0,2.3-10.22,7.02-12.62.26-.04.55-.15.99-.38,3.85-2.01,6.95-4.79,8.73-8.93,1.25-2.9,1.25-5.86-.07-8.78-1.32-2.93,2.13-6.04,4.85-6.74,8.86-2.26,17.48-1.11,25.93,2.66,5.44,2.43,10.05,6.03,13.71,10.79,3.67,4.77,2.48,12.75,1.21,18.77-.17.8-.43,1.59-.46,2.41,0,0-1.37,4.18-2.01,4.82,0,0,17.22-2.66,17.43-19.34,2.65,1.47,7.4,2.41,9.53,4.57,0,0,3.85,8.81,5.29,12.38,1.26,3.09,2.08,6.34,2.35,9.79.43,5.51-1.01,10.38-4.58,14.43-2.12,2.41-8.94,7.44-12.16,7.4-1.1-.01-2.2-.17-3.29-.29,0,0-4.1-.61-6.02-2.52,0,0,0,10.08,9.57,10.72,8.05.54,20.53-5.07,24.75-10.81,1.3,3.99,1.76,8.18,1.15,12.62-.79,5.74-3.26,10.59-7.66,14.23-3.57,2.95-7.81,3.97-12.36,3.82-2.22-.07-4.45-.4-6.66-.7-1.1-.15-1.9.08-2.53,1.02-27.01,20.6-38.77-5.19-38.77-5.19-2.05,3.45-1.44,7.15-.85,9.12.05.25.16.55.31.92.12.33.21.52.21.52,1.67,3.92,4.75,6.2,8.4,7.85.87.39,1.67.79,1.68,1.91.02,1.15-.66,1.84-1.6,2.27-4.33,1.97-8.67,3.92-13.01,5.88-.02-.03-.03-.07-.04-.1-.14.06-.28.13-.43.19,11.26-.29,20.3-6.13,20.3-6.13l3.5-1.93s13.53,3.45,21.19-6.77c0,0,9.61,4.35,17.76.2.93,2.54.89,5.21.24,7.97-.55,2.33-1.38,4.44-2.42,6.4-11.95,4.78-15.61,22.74-15.61,22.74,0,0,1.8,9.24,3.97,13.82,1.02,3.42,4.4,9,7.22,13.31,0,0-1.59,26.34-13.08,30.94-.22.09-.46.17-.7.25,3.96,1.5,13.69-1.51,17.43-6.89,1.89-2.72.03.01,3.44-4.34,2.31,3.06,26.16,19.14,38.64,29.19,2.75-1.15-3.23-12.98-.47-14.04Z"/>
</svg>