<?xml version="1.0" encoding="UTF-8"?>
<svg id="Calque_2" data-name="Calque 2" xmlns="http://www.w3.org/2000/svg" viewBox="0 0 367.35 358.23">
  <defs>
    <style>
      .cls-1 {
        fill: lime;
      }
    </style>
  </defs>
  <path class="cls-1" d="m46.88,160.71h70.45s0-70.45,0-70.45c0-5.13,4.16-9.3,9.3-9.3h60.76c5.13,0,9.3,4.16,9.3,9.3v70.45s70.45,0,70.45,0c5.13,0,9.3,4.16,9.3,9.3v60.76c0,5.13-4.16,9.3-9.3,9.3h-70.45s0,70.45,0,70.45c0,5.13-4.16,9.3-9.3,9.3h-60.76c-5.13,0-9.3-4.16-9.3-9.3v-70.45s-70.45,0-70.45,0c-5.13,0-9.3-4.16-9.3-9.3v-60.76c0-5.13,4.16-9.3,9.3-9.3Z"/>
  <path class="cls-1" d="m249.61,66.28h24.6s0-24.6,0-24.6c0-1.79,1.45-3.25,3.25-3.25h21.22c1.79,0,3.25,1.45,3.25,3.25v24.6s24.6,0,24.6,0c1.79,0,3.25,1.45,3.25,3.25v21.22c0,1.79-1.45,3.25-3.25,3.25h-24.6s0,24.6,0,24.6c0,1.79-1.45,3.25-3.25,3.25h-21.22c-1.79,0-3.25-1.45-3.25-3.25v-24.6s-24.6,0-24.6,0c-1.79,0-3.25-1.45-3.25-3.25v-21.22c0-1.79,1.45-3.25,3.25-3.25Z"/>
</svg>