<?xml version="1.0" encoding="UTF-8"?>
<svg id="Calque_1" data-name="Calque 1" xmlns="http://www.w3.org/2000/svg" viewBox="0 0 201.41 215.44">
  <defs>
    <style>
      .cls-1 {
        fill: #fff;
      }
    </style>
  </defs>
  <path class="cls-1" d="m200.12,92.32h0c-.84-5.25-1.98-10.16-3.37-14.54-.34-1.21-.74-2.35-1.08-3.31-.13-.36-.25-.71-.37-1.06-.24-.69-.48-1.38-.74-2.06-.22-.55-.44-1.1-.66-1.64-.57-1.43-1.1-2.77-1.71-4.04-2.62-5.83-5.66-11.25-9.35-16.65-2.85-3.71-6-7.06-8.98-10.13l-2.27,1.96.96,1.25c2.07,2.69,4.65,6.04,7.23,10.09,3.47,5.4,6.46,11.01,8.88,16.67,2.87,6.72,5.06,13.91,6.51,21.36.84,4.65,1.32,8.44,1.53,11.98.13,1.48.17,2.97.2,4.54.01.54.03,1.08.04,1.58,0,.67,0,1.34-.02,2.01l-.02,1.11c-.01,1.2-.05,2.17-.12,3.11-.19,4.42-.84,8.75-1.46,12.39-.77,4.13-1.78,8.2-3,12.1-2,6.31-4.62,12.45-7.81,18.3l-.14-.08c-2.46,4.28-5.46,8.64-8.92,12.95-3.28,4.09-6.68,7.76-10.09,10.92-3.51,3.29-7.03,6.17-10.52,8.61-1.28.95-2.61,1.8-3.89,2.63-.41.27-.82.53-1.19.77-1.9,1.15-3.46,2.06-4.96,2.88-5.82,3.47-11.99,6.31-18.45,8.5l-.3-.97-.15.04c-.53.11-1.25.29-2.14.51-2.97.73-7.93,1.94-14.42,2.75-4.99.6-9.65.86-14.24.77-5.66-.12-11.32-.71-16.82-1.78-12.05-2.27-24.5-7.35-35.08-14.32-5.38-3.47-10.48-7.54-15.18-12.08-.36-.34-.71-.7-1.06-1.05l-1.98-2.04c-.43-.49-.84-.96-1.21-1.43-.09-.11-.17-.21-.25-.32.49-.05.98-.11,1.49-.17l3.06-.54c1.52-.3,3-.62,4.45-.95,2.57-.59,5.22-1.27,8.11-2.09l3.47-1,.7.59c1.01.82,2.05,1.63,3.18,2.46,1.68,1.22,3.37,2.36,5.03,3.37,2.01,1.24,4.14,2.4,6.54,3.59l.28.13c2.11.97,4.29,1.97,6.51,2.74,4.62,1.68,9.42,2.91,14.28,3.63,10.08,1.43,20.41.87,30.69-1.65,7.67-1.88,13.39-4.04,17.99-6.79l.16-.08.15-.17c.18-.17,1.02-.72,1.69-1.17.9-.59,2.02-1.33,3.03-2.07,5.96-3.8,11.63-8.53,16.41-13.71,4.54-5.03,8.18-10.51,10.51-15.77l1.55-3.1c.17-.33.34-.66.52-1.01.46-.9.98-1.91,1.45-2.95l1.07-2.25.96-2.27c.62-1.37,1.11-2.78,1.59-4.14l.23-.67c1.05-2.71,1.72-5.39,2.25-7.56l.31-1.25c.38-1.78.75-4.2.54-5.2-.15-.62-.29-1.13-.4-1.56-.46-1.76-.56-2.12-.45-3.46l.24-3.19c0-.38,0-.78-.01-1.23v-.38c-.04-1.16-.09-2.55-.19-4.29-.13-1.4-.37-2.96-.66-4.76l-.2-1.24c-.14-.96-.64-2.43-1.28-4.28-.21-.61-.43-1.25-.66-1.95-.27-.72-.58-1.46-.89-2.19-.23-.55-.46-1.09-.68-1.64l-.38-.97c-.35-.9-.69-1.76-1.04-2.54-2.69-7.21-5.57-11.38-8.84-15.76l-3.22-3.87-4.08-4.17c-.42-.43-.87-.81-1.3-1.19-.23-.2-.47-.4-.74-.65-.41-.35-.83-.72-1.25-1.1-.98-.87-2.09-1.87-3.36-2.76-.51-.37-1.01-.74-1.49-1.1-.75-.56-1.48-1.1-2.27-1.66l-5.21-3.29-4.7-2.6c-.59-.29-1.17-.57-1.74-.85-1.36-.67-2.65-1.31-3.97-1.88l-4.02-1.67c-.3-.11-.6-.22-.91-.32l-.48-.16c-.43-.14-.87-.29-1.3-.44-1.33-.46-2.71-.93-4.16-1.24l-2.85-.7c-.69-.15-1.41-.26-2.14-.38l-.88-.14c-1.9-.36-3.9-.49-6.02-.62l-.8-.05c-.88-.04-1.78-.02-2.66,0-.38,0-.77.02-1.14.02-1.37-.02-2.71.13-4.19.29l-2.52.21-4.71.68c-3.58.72-8.26,1.75-12.58,3.42-1.63.53-3.15,1.19-4.61,1.82-.54.24-1.08.47-1.66.71-1.27.58-2.46,1.18-3.51,1.71-.56.28-1.09.55-1.68.84l-4.75,2.69c-.51.28-.97.62-1.32.89l-3.89,3.03,2.8,2.8c1.04,1.04,2.07,2.16,3.09,3.25l6.43,7.08c-.43.08-.86.16-1.25.29l-5.34,1.18c-8.39,1.8-17.6,3.67-28.15,5.1l-.19.04c-3.22.86-6.81,1.76-10.67,2.66l-6.27,1.43,7.23-35.97,1.76-9.04,1.06-5.86c.17.15.34.29.51.43,0,.06.02.13.04.19.03.15.07.3.13.44l-.69.85,1.13.83c-.21.49-.26.96-.15,1.43.08.34.3.86.89,1.26.09.21.19.37.26.49-.08.63-.22,1.44-.41,2.35l-.03.21c-.02.29-.11.6-.22.96l-.23.88c-.18.75-.41,1.43-.6,1.95l-.13.36.06.38c.48,3.1.94,7.66-.59,11.47l-1.46,3.66,3.53-1.76c.28-.14.57-.26.88-.37l.41-.12c.68-.19,1.33-.27,1.93-.22l2.1.16-.54-2.04c-.07-.26-.17-.53-.27-.8-.07-.18-.16-.43-.2-.58.33-.62.29-1.15.14-1.55.06-.11.12-.24.18-.38.06-.01.12-.02.18-.03.86-.16,1.93-.35,2.07-1.52l.08-1.14-.2-.09c-.02-.18-.08-.38-.19-.6.13-.57-.03-1.07-.1-1.29-.03-.08-.05-.18-.05-.21l-.02-.26v-.02c.36-.62.67-1.49-.03-2.62-.05-.21-.12-.6-.2-.99.11-.39.14-.74.16-1.02,0-.06,0-.12.01-.17,0,0,.02,0,.03-.01l1.66-.55-.89-1.53s.01-.04.02-.07c.67.66,1.36,1.34,2.06,2.05l.24.24.32.12c.35.13.91.19,1.58-.25l7.53-4.71c.08-.05.13-.08.19-.11l3.32-1.81c.64-.36,1.32-.67,2.03-1.01.4-.19.8-.38,1.17-.56,5-2.35,9.77-4.17,15.04-5.74,5.92-1.87,10.19-2.89,13.48-3.22.94-.11,2.18-.32,3.61-.57,1.34-.23,2.86-.5,4.46-.73l.84-.12,7.47-.02h.07c1.54,0,4.41.14,6.5.3.29,1.25,1.89,1.52,3.62,1.82,8.25,1.14,16.31,3.32,24.05,6.49,7.87,2.74,15.33,6.48,22.17,11.12l.33.2.33.05c.45.07.88.13,1.62.53l2.94,2.09,3.15,2.47.22.08c1.15.43,1.84.33,2.41.2.04,0,.08-.02.1,0l.96.4.36-.38c.16.04.4.12.74.26.81.31,1.88.84,3.12,1.54,2.51,1.35,4.17,2.24,5.42,1.29.29-.23.95-.89.65-2.17l-.08-.25c-.43-1-3.85-4.85-6.66-7.69-1.68-1.68-3.56-3.41-5.35-5.01l5.42,1.64-6.82-5.11c-.88-.66-1.66-1.24-2.35-1.75-.63-.47-1.22-.91-1.74-1.3l5.27,1.34-6.9-4.75c-10.67-7.34-22.64-12.8-34.62-15.78-12.58-3.19-25.68-3.84-37.84-1.87-2.73.39-6.15,1.11-9.39,1.97-3.05.81-6.42,1.89-9.46,3.03-.96.35-2.37.81-3.86,1.31-2.71.89-5.51,1.82-6.88,2.46l-.14.07c-2.43,1.45-3.03,2.26-3.57,3.17-.12.21-.22.37-.37.54l-.08.04c-1.12.5-2.38,1.06-3.65,1.73l-1.01.51c-1.11.56-2.25,1.14-3.39,1.81l-4.33,2.5h0s-7.42-6.46-7.42-6.46c-2.51-2.12-4.93-4.09-7.38-6.11l-3.69-3c-.23-.19-.45-.37-.66-.5l-1.87-1.21-.99,5.23c-.49,2.63-.92,5.05-1.28,7.18-.31,1.86-.58,3.73-.81,5.57-.36,2.91-.39,4.24-.11,4.98l-.83,4.5c-.24,1.36-.44,2.59-.61,3.75-.35,2.32-.61,4.32-.87,6.33l-.07.59c-.48,3.83-.98,7.79-2.13,14.19L0,85.24l47.21-10.14,9.05-1.98,19.4-4.16.68-1.66-8.78-10.01-4.14-4.62c-.26-.28-.52-.57-.78-.85l.29-.16c10.13-5.18,20.06-7.92,29.54-8.12,4.83-.14,9.74.3,14.56,1.33,4.46,1,8.92,2.52,13.65,4.67,4.48,1.99,8.58,4.6,12.26,7.08,3.36,2.55,7.21,5.65,10.4,9.3,3.45,3.62,6.16,7.79,8.09,10.93l1.64,3.05c.1.2.21.39.31.58.16.29.32.58.45.87l2.05,4.73,1.64,4.82,1.24,4.92c.14.7.25,1.4.37,2.1.07.43.14.85.21,1.27l.1.61c.16.92.31,1.79.35,2.71l.29,3.5c.07.65.06,1.33.05,2.06,0,.44,0,.87,0,1.27v1.76c.02.54.02,1.06-.04,1.61l-.27,3.54c-.04.96-.2,1.92-.36,2.94l-.6,3.78-1,4.17c-.2.87-.4,1.69-.69,2.54-1.33,4.45-3.12,8.76-5.32,12.8-4.52,8.28-10.93,15.7-18.53,21.47-7.95,6.05-17.34,10.34-27.17,12.41-10.22,2.17-20.86,1.8-30.78-1.05-4.82-1.37-9.69-3.43-14.48-6.12-2.39-1.34-4.65-2.77-6.72-4.24-1.08-.76-2.14-1.56-3.16-2.37l-4.53-3.9-.77.2c-.58.15-1.16.34-1.75.54-.29.1-.59.19-.89.29l-2.49.79c-1.4.44-2.67.82-4.01,1.21-2.81.81-5.42,1.5-7.97,2.1-1.45.34-2.76.62-4.01.87l-2.45.45c-.65.12-1.31.22-1.97.32l-.58.08c-3.06.42-6.45.76-10.69,1.08l-.48.04-.47.39-.47.08-.32.8c-.23.56-.12,1.13.36,1.76l1.8,2.41c.77,1.01,1.54,2.02,2.33,3,2.05,2.59,3.8,4.64,5.5,6.43.48.52,1.02,1.1,1.46,1.54l1.43,1.43c.77.75,1.55,1.5,2.34,2.22,1.73,1.6,3.51,3.13,5.29,4.56,3.71,3,7.52,5.7,11.27,8,1.4.92,2.86,1.74,4.27,2.53.56.32,1.12.63,1.75.99l3,1.53c.9.48,1.9.95,3.13,1.5,13.79,6.35,28.71,9.63,43.64,9.63,2.93,0,5.86-.13,8.78-.38,17.03-1.43,33.54-7.02,47.72-16.15,6.42-4.04,12.68-9.11,18.61-15.08,5.41-5.47,10.22-11.44,14.29-17.74,7.64-11.76,13-25.07,15.49-38.48,2.19-11.64,2.35-23.52.48-35.3Z"/>
  <path class="cls-1" d="m133.05,184.12c-.43.16-.94.35-1.36.57-.3.14-.7.34-1.1.65-.22-.02-.68-.09-1.61-.36l-.27-.08c-1.38-.4-2.21-.64-2.97-.1l-.66.51v.36c-.36,0-.78.06-1.25.17-.59.13-.95.53-1.3.92-.08.09-.22.24-.32.34-1.47.09-2.29.54-3.16,1.01-.47.26-.96.52-1.72.81-1.19.51-2,.61-2.86.71l-.5.06c-1.03.16-2.19.34-3.87,1.31-.28.12-1.37.5-2.4.82l-2.34.63c-1.09.08-2.06.2-2.96.31-.65.08-1.27.15-1.9.21-1.36.15-2.49.02-3.65-.42l-.48-.18-.49.16c-2.02.64-4.67.32-7.24,0-1.39-.17-2.83-.34-4.14-.36-1.91-.06-3.13-.32-4.11-.57-.53-.13-1.05-.27-1.6-.42-.72-.2-1.49-.4-2.39-.61l-.1-.02c-.36-.06-.68-.1-.98-.13-.37-.04-.72-.08-.92-.16-.43-.14-.92-.16-1.46-.16l-1.57-.27c-.22-.27-.57-.51-1.13-.66l-.17-.03c-1.3-.18-2.64-.37-4.14-.5-1.54-.05-2.82-.12-4-.23l-.2-.02-.2.04-1.1-.15h-.12c-.13-.02-.24-.02-.35-.01l-.22-.03c-.05-.01-.1-.03-.15-.04-.14-.05-.25-.11-.27-.12l-1.31-.69-.61,1.11-9.39-1.93,10.31,4.59,3.25,1.75c.6.32,1.21.66,1.84,1.01,2.68,1.48,5.45,3.01,8.19,3.83.84.28,2.16.54,2.91.63.16.04.62.25.82.34.16.07.3.14.4.18l.38.15.4-.06c.44-.06.77-.21,1.03-.38,1.15.43,2.62.96,3.95,1.29.98.24,1.75.36,2.37.36s1.13-.13,1.53-.39c.81.08,1.41,0,1.95-.06.55-.07,1.02-.13,1.83-.04.83.07,1.73.12,2.67.17.64.04,1.29.07,2.01.12,1.13.04,2.31.06,3.49.08l1.75.03h.07c1.04-.08,2.1-.09,3.12-.11.81-.01,1.62-.02,2.46-.06l2.01-.14c7.96-.63,13.67-1.48,19.07-2.85,6.62-1.65,12.38-4.38,17.61-8.34,5.98-4.57,11.22-9.22,15.57-13.83.67-.72,1.3-1.46,1.94-2.19.45-.52.91-1.04,1.39-1.59.18-.21.36-.42.55-.62.37-.41.75-.83,1.09-1.29l1.47-1.93c.33-.45.67-.88,1-1.31.62-.81,1.27-1.64,1.84-2.52l2.43-3.78c.13-.21.26-.41.39-.61.28-.43.55-.85.8-1.31l2.79-5.33c.54-.99.93-1.96,1.3-2.91l1.44-3.71c.1-.3.21-.59.32-.88.24-.64.48-1.31.65-1.97l.62-2.41c.4-1.63.64-2.8.79-3.58.09-.54.19-1.07.29-1.6.02-.07.03-.14.04-.21l-2.94-.59c-.01.07-.03.13-.04.2-.22,1.04-.62,2.61-1.12,4.34l-.94,3.1c-.31.87-.67,1.75-1.04,2.68l-1.69,4.07c-.2.5-.43,1-.71,1.51l-.48.91-.06-.03c-.83,1.28-1.69,2.55-2.57,3.76-.58.82-1.26,1.55-1.86,2.19-.2.22-.39.42-.57.62l-.57.82-1.49,1.12c-.59.39-2.01,1.62-3.63,3.14l-1.45,1.38c-.4.39-.78.76-1.25,1.12l-3.29,2.75c-.61.56-1.33,1.07-2.03,1.57-.42.3-.84.6-1.19.87-.43.3-.84.62-1.24.92-.62.47-1.2.92-1.81,1.28-2.24,1.42-3.78,2.6-4.17,2.91-1.02.75-1.84,1.67-2.63,2.56-.96,1.07-1.86,2.09-3.13,2.84-.23.15-.5.26-.78.38-.58.25-1.25.54-1.79,1.17l-.43.5v.1c-.49.23-1.04.42-1.57.61l-.6.21Z"/>
</svg>