<?xml version="1.0" encoding="UTF-8"?>
<svg id="Calque_1" data-name="Calque 1" xmlns="http://www.w3.org/2000/svg" xmlns:xlink="http://www.w3.org/1999/xlink" viewBox="0 0 135.32 161.17">
  <defs>
    <style>
      .cls-1 {
        fill: url(#Dégradé_sans_nom_29-3);
      }

      .cls-2 {
        fill: url(#Dégradé_sans_nom_29);
      }

      .cls-3 {
        fill: url(#Dégradé_sans_nom_29-2);
      }
    </style>
    <radialGradient id="Dégradé_sans_nom_29" data-name="Dégradé sans nom 29" cx="70.71" cy="-11.1" fx="70.71" fy="-11.1" r="169.3" gradientUnits="userSpaceOnUse">
      <stop offset="0" stop-color="#c1272d"/>
      <stop offset=".11" stop-color="#ba242a"/>
      <stop offset=".27" stop-color="#a81e23"/>
      <stop offset=".46" stop-color="#891418"/>
      <stop offset=".66" stop-color="#600708"/>
      <stop offset=".76" stop-color="#4a0000"/>
      <stop offset="1" stop-color="#000"/>
    </radialGradient>
    <radialGradient id="Dégradé_sans_nom_29-2" data-name="Dégradé sans nom 29" cx="90.92" cy="105.97" fx="90.92" fy="105.97" r="0" xlink:href="#Dégradé_sans_nom_29"/>
    <radialGradient id="Dégradé_sans_nom_29-3" data-name="Dégradé sans nom 29" r="169.3" xlink:href="#Dégradé_sans_nom_29"/>
  </defs>
  <path class="cls-2" d="m108.36,25.94c.27-.06.53-.18.75-.33,1.13-.77,2.36-1.39,3.46-2.21.93-.68,1.9-1.31,2.87-1.93.84-.36,1.48-.99,2.15-1.58.25-.22.39-.48.4-.81.11-.16.21-.32.33-.46.67-.77.64-.97-.16-1.62-2.93-2.37-6.18-4.26-9.49-6.04-.2-.11-.43-.35-.68-.12-.2.2-.12.49-.07.72.13.54.3,1.06.46,1.59h-.02c-.16.36-.19.74-.16,1.12.11,1.49.18,2.99.29,4.48.16,2.18,0,4.33-.79,6.39-.09.22-.16.44.02.65.17.2.41.2.64.15Z"/>
  <polygon class="cls-3" points="90.91 105.97 90.92 105.97 90.92 105.97 90.91 105.97"/>
  <path class="cls-1" d="m94.91,104.33c-.16.02-.28.09-.25.28.03.17.14.27.31.23.15-.03.29-.11.27-.29-.02-.19-.18-.21-.33-.22Z"/>
  <path class="cls-2" d="m17.47,19.47c.91.9,1.84,1.79,3,2.38.7.58,1.57.89,2.25,1.48.15.1.35-.05.49.1,1.05.45,1.96,1.13,2.91,1.73.44.28.91.62,1.67.51-.82-.81-.94-1.77-.97-2.75-.06-.58.11-1.15.03-1.73-.14-1.14-.09-2.29,0-3.43.04-.53-.04-1.05-.15-1.56.05-.62.16-1.24.14-1.85-.03-.97.36-1.82.61-2.72h-.01c-.07-1.01-.06-.99-.99-.5-2.21,1.18-4.38,2.43-6.47,3.81-.56.42-1.13.83-1.69,1.25-.14-.04-.28-.09-.42,0-1.44.97-2.15,1.37-.76,2.92.12.13.22.26.36.36Z"/>
  <path class="cls-2" d="m67.21,117.1h-.01c-.1.21-.05.44-.05.67-.03,1.26.06,2.51-.04,3.77,0,.59,0,1.18,0,1.77,0,.36.04.66.54.64.45-.01.75-.12.72-.63-.03-.65.07-1.29-.1-1.94-.08-.31-.1-.67.09-.98-.14-1.14.04-2.29-.09-3.44-.01-.2-.02-.41-.04-.62-.11-1.14-.23-2.28-.34-3.42-.07-.33.1-.69-.18-1.09-.38.9-.12,1.79-.36,2.61.09.36-.13.68-.14,1.02.23.54-.35,1.1.01,1.64Z"/>
  <path class="cls-2" d="m48.07,62.22c-.18-.68-.34-1.37-1.11-1.66-.02.11-.02.21.08.29.31.48.55,1.01,1.03,1.37Z"/>
  <path class="cls-2" d="m2.68,53.71c.55.37,1.02.93,1.66,1.22.63.29.87,1.16,1.74,1.1.07,0,.15.14.23.19,1.07.81,2.01,1.75,3.08,2.58.77.6,1.54,1.34,1.67,2.36.17,1.23.22,2.48,0,3.71-.06.37-.03.69.2.99.81,1.09,1.12,2.36,1.33,3.65.06.38.14.79-.25,1.08.02.04.05.07.07.11.5.16.78.53,1.06.96.36.54.52,1.19.92,1.69.79,1,1.15,2.11,1.33,3.34.15.98,1.04.03,1.51.41.19.16.54-.1.51-.36-.08-.74.41-.82.96-.91.3-.05.67-.03.78-.4.14-.46.44-.61.88-.64.37-.03.66-.27.55-.6-.22-.63.12-1.02.47-1.42.22-.25.29-.54.29-.85.03-1,.07-1.98.58-2.91.42-.78.89-1.44,1.75-1.8.38-.16.77-.29.92-.76.33-1.05,1.1-1.65,2.15-1.93.2-.05.4-.06.59-.16,1.18-.65,2.4-1.2,3.82-.93.09-.05.15-.14.18-.23.22-.81.57-1.61.56-2.47-.02-1.14-.1-2.29-.06-3.43,0-.21-.06-.43-.08-.64-.2-1.74-.43-3.49.19-5.2.06-.16.04-.32,0-.48-.55-.71-.46-1.62-.76-2.4-.04-.11,0-.24.04-.36.13-.42.14-.85.13-1.28-.04-1.27.02-2.53.03-3.79,0-1.14-.32-2.15-.74-3.19-.64-1.55-1.29-3.09-1.98-4.62-.44-.99-.69-2.05-1.27-2.99-.16-.25-.13-.55-.18-.83-.25-1.47-.24-3.01-1.15-4.32-.21-.15-.39-.31-.6-.43-1.41-.81-2.68-1.82-3.93-2.84-.08-.4-.54-.44-.71-.75-.08-.11-.22-.11-.32-.17-.58-.39-1.35-.46-1.82-1.05-.83-.39-1.63-.81-2.32-1.42-.22-.18-.45-.26-.72-.31-.03-.02-.09-.02-.09-.02h.02c-.39-.07-.69-.28-1.01-.47-.12-.07-.24-.24-.38-.15-.47.34-1.08.54-1.28,1.17-.28.85-.72,1.68-1.47,2.15-.77.49-1.35,1.1-1.79,1.83-.54.91-1.27,1.71-1.68,2.7-.16.38-.4.72-.58,1.09-.37.76-.99,1.37-1.2,2.2-.3,1.1-.85,2.11-1.29,3.16-.53,1.26-1.23,2.46-1.66,3.75-.71,2.15-1.65,4.18-2.74,6.15-.16.27-.33.53-.33.85,0,.47-.14.89-.32,1.31-.17.37-.14.75-.17,1.13-.04.58.35,1.06.33,1.59-.02.66.23,1.2.59,1.71.19.25.26.55.39.82.43.83.4,1.85,1.36,2.49Z"/>
  <path class="cls-2" d="m30.23,33.22c.18.11.34.27.58.13.28-.31.26-.67.06-.98-.36-.54-.39-1.13-.4-1.73-.14-.35-.55-.56-.52-1-.16-.11-.45-.4-.43.05.03.75.2,1.49.31,2.24.14.2.06.43.07.65.02.27.06.51.33.64Z"/>
  <path class="cls-2" d="m42.85,130.08c.13-.17.13-.39.15-.58.28-1.13,1.05-1.97,1.72-2.87.61-.89,1.19-1.81,1.92-2.61.82-.84,1.7-1.6,2.25-2.66.04-.15.06-.3.1-.45-.38.09-.69.33-1.09.39-.29.04-.58.1-.87.19-.92.3-1.81.67-2.7,1.02-.62.53-1.33.92-2.02,1.35-.4.25-.85.51-.9,1.03-.07.83-.2,1.69.1,2.48.34.92.57,1.86.87,2.79h0c.21.26.35.09.49-.07Z"/>
  <path class="cls-2" d="m99.1,129.52c-.73-.93-1.66-1.66-2.62-2.34-.21-.15-.43-.4-.69-.07-.19.17-.23.38-.19.63.06.42,0,.84-.19,1.23-.41.87-.95,1.68-1.29,2.6-.11.28-.18.63-.45.85-.17.2-.24.44-.3.69,0,.06.01.12.04.18.16.19.18.36-.08.47-.16.07-.28.16-.34.32-.22.44-.28.9-.28,1.39,0,.33.23.63.14.97.09.63.3,1.24.3,1.88,0,.55.22,1.02.39,1.53.45,1.38,1.46,2.43,2.21,3.62,0,0,0,0-.01,0,.04.08.07.17.1.26h-.01c.08.05.13.17.2.22.05.1.11.2.16.3.07.14.19.23.34.27.61.06.72-.04.83-.74.03-.33-.07-.64-.16-.95-.03-.46,0-.92.22-1.34.59-1.12.85-2.31.79-3.58-.08-1.74-.09-3.48.77-5.09.58-1.09.62-2.18.11-3.3h.01Z"/>
  <path class="cls-2" d="m94.11,126.12c-.06-.54.15-1.17-.53-1.48,0,0,0,0,0,.01,0,0,0,0,0-.01-.24-.19-.48-.37-.72-.56-.65-.42-1.3-.83-1.95-1.25h0c-.91-.48-1.83-.93-2.85-1.15-.81-.18-1.7-.19-2.33-.87-.18.2-.15.41,0,.62.12.38.32.71.62.99.34.31.63.68.95,1.01.76.78,1.42,1.66,2.28,2.34.09,0,.16.03.23.06.33.56.66,1.13.98,1.69.59.53,1.09,1.13,1.38,1.88.12.22.19.47.39.64,0,0,0,0,0,0,0,.09.02.16.03.24,0,0,0,0,0,.01,0,0,0,0,0,0,.12.67-.25,1.37.1,2.03.09-.2.17-.4.26-.6-.17-.15-.07-.36-.13-.54-.02-.04-.03-.08-.03-.12,0,.04.02.07.03.11.26-.38.37-.83.51-1.26.13-.4.27-.78.4-1.18.1-.04.19-.09.29-.13.26-.56.48-1.12.26-1.75-.07-.04-.12-.08-.17-.12.03-.2-.08-.41,0-.62h0Z"/>
  <path class="cls-2" d="m118.36,21.28c-1.03.69-2.07,1.36-3.16,1.95-.59.32-1.33.47-1.77.93-.77.8-1.91,1.06-2.57,2-.59.83-1.72.78-2.52,1.32-.51.34-.94.65-.74,1.36.06.22.07.48,0,.69-.51,1.59-.6,3.32-1.47,4.8-.16.27-.36.52-.49.81-.45,1.02-.92,2.03-1.29,3.08-.3.86-.91,1.62-.86,2.61.02.32-.19.59-.44.81-.23.21-.31.44-.28.78.13,1.31.09,2.62.24,3.94.19,1.61.25,3.29-.26,4.9-.08.26-.06.55-.05.82.03.52-.11,1-.25,1.49-.09.32-.28.51-.62.53h.02c-.14.09-.17.23-.14.38.05.06.08.13.13.2-.01,1.08-.03,2.15-.04,3.23-.13.76.05,1.54-.1,2.3-.01.33-.03.67-.03,1-.07.68-.08,1.36,0,2.04.14.47.46.78.85,1.05,1.62,1.11,3.26,2.19,5,3.12.16.16.32.17.5.02.67.13,1.11.62,1.62,1.01.01.04.03.08.03.12.07.09.14.15.26.12.45-.17.83-.08,1.24.2,1.13.76,1.64,1.83,1.68,3.14.02.93,0,1.86,0,2.79,0,.84.19,1.62.86,2.21.17.15.46.2.49.47.11.9.47,1.72.75,2.57.19.57.51.86.87,1.2.09.09.21.17.33.08.12-.1.08-.24.02-.35-.24-.42-.06-.68.28-.96.51-.43.84-.97.83-1.69-.02-.61.09-1.31.65-1.55.99-.41.96-1.43,1.48-2.11.45-.59.62-1.39,1.17-1.89.49-.45.72-1.03,1.04-1.56.27-.45.61-.95.58-1.52-.04-.79.31-1.43.7-2.06.37-.6,1.1-1.1.54-1.96-.05-.07.05-.22.02-.31-.31-.77.34-1.66-.29-2.4-.05-.07-.02-.27.04-.36.78-1.08.85-2.65,2.25-3.31.1-.05.19-.18.23-.29.15-.47.53-.73.91-.93.62-.31,1.21-.68,1.81-1.01,1.26-.7,2.49-1.49,3.47-2.6.26-.3.74-.51.75-.9.02-.78.43-1.46.76-2.02.57-.98.71-2.13,1.36-3.05.1-.13.09-.29,0-.42-.38-.53-.24-.97.18-1.41.27-.29.35-.59,0-.93-.34-.32-.58-.71-.64-1.25-.05-.43-.35-.91-.8-1.15-.35-.19-.47-.49-.65-.8-.46-.78-.95-1.52-.95-2.48,0-.11-.16-.2-.2-.32-.21-.62-.78-1.14-.62-1.87.07-.29-.01-.5-.09-.77-.18-.58-.5-1.04-.88-1.5-.24-.3-.55-.64-.55-1.05-.01-1.15-.66-2.07-1.13-3.02-.45-.91-.93-1.78-1.22-2.76-.16-.53-.44-1.04-.73-1.51-.47-.76-.99-1.49-1.34-2.32-.14-.32-.26-.64-.58-.79-.74-.35-1.33-.78-1.63-1.59-.27-.74-1.08-1.16-1.35-1.88-.26-.72-.78-.92-1.4-1.11-.45-.14-.73-.02-.87.45-.15.53-.47.93-.93,1.24Z"/>
  <path class="cls-2" d="m59.01,147.47c-.55-.4-.99-.93-1.57-1.28-.02-.08-.02-.17-.02-.27-.33-.48-.87-.54-1.37-.67-.5-.13-1-.27-1.46-.52-.5-.36-.98-.73-1.45-1.12-.34-.28-.63-.63-1.1-.71-.05-.19-.28-.3-.35-.48-.6-.3-1.17-.66-1.79-.94-.98-.44-1.84-1.1-2.83-1.51-.14-.04-.29-.3-.4-.15-.13.18-.12.46.04.68.11.05.12.13.04.22.28,1.09.4,2.25,1.26,3.12.18.18.28.48.33.74.1.5.35.9.64,1.29.26.35.51.71.77,1.06h.02c.13.18.27.34.4.51.14.22.09.48.19.72.28.67.64,1.31.89,2.01.17.47.43,1,.9,1.33.28.57.55,1.13.82,1.7.13.28.29.55.55.75.42.31.77.33,1.1-.08.58-.73,1.12-1.5,1.5-2.37-.01,0-.02,0-.03,0,0,0,.01-.01.02-.02.04-.05.08-.1.12-.15h-.02s.02-.05.02-.08c0,.03,0,.05,0,.08.11-.12.23-.24.32-.37.78-1.15,1.45-2.45,3.2-2.28.29.02.33-.23.13-.43-.28-.27-.58-.53-.87-.79Z"/>
  <path class="cls-2" d="m40.77,141.84c.96-1.07,1.33-2.42,1.83-3.72.01-.82.08-1.64.25-2.44.22-1.01-.13-1.91-.48-2.81-.07-.17-.17-.34-.39-.37-.18-.08-.31-.21-.37-.4-.33-.94-.86-1.77-1.35-2.63-.44-.77-1.21-1.54-.58-2.59.04-.05.01-.18-.04-.23-.11-.12-.23-.02-.33.05-.43.31-.84.63-1.26.95-.75.56-1.35,1.25-1.75,2.1-.17.26-.15.55-.17.84,0,.55.13,1.06.36,1.56.7,1.5,1.12,3.09.89,4.74-.16,1.13.1,2.14.36,3.2.15.61.69,1.09.57,1.78.22.25.1.57.15.86.03.1.07.2.15.27.21.15.41.15.62.12,0,.11,0,.23.01.34.37.14.52-.15.72-.36.06-.14.12-.27.18-.4.23-.26.41-.58.63-.85Z"/>
  <path class="cls-2" d="m76.69,145.6c1.18-1.07,2.56-1.78,4.07-2.25.69-.38,1.34-.83,2-1.27.18-.12.35-.23.35-.44.24.05.46-.1.67-.2,1.65-.81,3.13-1.87,4.58-2.99.88-.84,1.81-1.64,2.01-2.94.15-.49.43-.92.72-1.33.78-1.12,1.23-2.3.67-3.67-.43-.85-.57-1.83-1.15-2.62-1.44-2.25-3.67-3.79-5.29-5.88-.67-1.09-1.48-2.03-2.71-2.5-.75-.29-1.42-.7-2.12-1.08-.49-.08-.73-.63-1.21-.73,0-.02,0-.04-.02-.06-1.27-1.29-2.18-2.88-3.37-4.23-.14-.28-.29-.57-.49-.79-.18-.19-.25-.69-.62-.5-.36.19-.03.54.02.82.02.04.02.07.02.11.31.54.69,1.04.88,1.65h-.01c-.17.24,0,.43.09.64.42.86.99,1.63,1.45,2.46.18.25.36.51.55.75.08.1.16.19.27.23.55,1.64.41,3.29.11,4.96-.06.33.06.72-.29.96-.08.21-.08.46-.26.63-.78.6-1.67,1.04-2.38,1.74-1.13,1.23-1.68,1.21-2.68-.1-.02-.03-.04-.07-.07-.1-.98-1.25-2-2.45-3.8-2.44-.61.03-1.23.01-1.84,0-.5.06-1,.17-1.5.22-.27.03-.48.13-.67.32-.77.78-1.59,1.5-2.18,2.45-.44.71-1.06.78-1.71.23-.25-.21-.5-.38-.83-.4-.71-.49-1.4-.99-2.11-1.47-.33-.23-.53-.52-.53-.93-.01-.46.03-.91-.07-1.36-.04-.2-.08-.39-.11-.58.13.55.38,1.09.79,1.61.15.19.26.41.53.16.02-.45.03-.9.04-1.35.13-.72-.03-1.46.09-2.18.01-1.05.18-2.08.38-3.2-.49.33-.61.8-.86,1.19-.16.25-.44.39-.56.67-.35.8-.54,1.58-.51,2.35-.14-1.38,0-2.74.54-4.07.17-.3.31-.6.49-.88.92-1.44,1.94-2.81,2.56-4.43h0s0,0,0,0c0,0,0,0,0,0,.03-.07.05-.13.06-.19.15-.43.02-.88.04-1.31-.16.25-.33.5-.49.75.02.14-.03.29.04.42-.4.29-.53.8-.91,1.11-.14.19-.28.38-.43.57-.83,1.06-1.35,2.35-2.49,3.17-.18.13-.19.37-.26.56-.65.65-1.39,1.16-2.24,1.49-1.39.54-2.65,1.24-3.46,2.57-.06.1-.17.17-.26.26-.23.05-.43.16-.57.35-.63.83-1.45,1.49-2.11,2.3-.25.19-.47.41-.7.62-.72.64-1.24,1.45-1.87,2.17-.65.92-.97,2-1.36,3.04-.44,1.18-.29,2.22.46,3.21.38.5.77,1.01.92,1.64.2,1.23,1.03,2.05,1.86,2.87.59.43,1.16.89,1.77,1.3.86.58,1.7,1.21,2.67,1.62,1.22.55,2.27,1.4,3.44,2.03.18.15.41.21.63.27,1.01.27,1.91.73,2.67,1.46.22.21.45.42.78.42.02.33.48.24.64.43.23.27.58.45.67.82.2.8.71,1.55.41,2.44-.03.07-.02.17.01.24.16.42.23-.38.3-1.51.07.19.13.39.18.6.27,1.13.03,2.27,1.05,3.04.52.39,1.17.58,1.72.92.18.99.39,1.92.63,2.56.36.97.73,1.94.91,2.98.22,1.24.88,2.25,1.89,3.02.19.15.36.25.61.07.82-.6,1.51-1.32,1.75-2.33.36-1.52.82-3,1.37-4.46.14-.38.22-1.88.3-2.71.37-.31.8-.54,1.28-.59.27-.03.56-.01.81-.14.34-.18.48-.59.69-.91.26-.39.66-.68.96-1.03.05.4.1.58.12.33.02-.2.04-.4.07-.59.02-.03.04-.05.05-.08.19-.37.22-.8.24-1.21,0-.02,0-.04,0-.05.23-.64.59-1.22,1.22-1.69Z"/>
  <path class="cls-2" d="m24.97,69.75c.53-.41,1.02-.91,1.7-1.05.94-.19,1.72-.67,2.48-1.21.14-.13.27-.25.45-.33.57-.26,1.09-.61,1.58-1.01.12-.25.66-.21.46-.68-.38-.35-.81-.44-1.29-.27-.55.19-1.13.29-1.67.55-.54.25-1.06.56-1.67.7-1.01.24-1.76.93-2.12,1.9-.17.47-.41.75-.83.83-.91.16-1.3.94-1.73,1.55-.59.84-.83,1.89-.78,2.94.04.78-.15,1.4-.73,1.92-.23.21-.34.48-.23.8.19.58.19.59-.41.61-.35.02-.72.03-.76.48-.04.49-.36.57-.74.58s-.71.05-1.03.35c-.36.35-.12.67,0,1.11-.56-.33-1.04-.46-1.65.05.38-1.22-.29-2.06-.56-2.96-.2-.69-1.04-1.17-1.13-2.02-.01-.03-.06-.07-.09-.09-.24-.17-.33-.41-.42-.68-.22-.66-.73-.93-1.32-.74h-.02c.66.97,1.43,1.88,1.73,3.06.42,1.6.83,3.2,1.25,4.8.22.56.43,1.12.66,1.67.5,1.21.51,1.21,1.7.73h.06c.3.12.57.02.84-.12.96-.51,1.56-1.31,1.89-2.34.37-1.16.79-2.34,1.83-3.03.81-.54.89-1.16.74-1.99-.11-.58-.14-1.17-.18-1.76-.14-1.84.64-3.22,1.99-4.35Z"/>
  <path class="cls-2" d="m40.26,47.16c-.61-1.26-.88-2.62-1.44-3.88-.77-1.74-1.49-3.53-2.64-5.06-.93-1.24-1.97-2.39-2.82-3.7-.16-.25-.33-.59-.72-.52-.43.08-.58.47-.72.81-.11.27-.11.6.02.87.49,1.05.87,2.14,1.23,3.22.32.96.8,1.9.86,2.9.16,2.64.64,5.23.94,7.84.07.59.1,1.18-.06,1.76,0,.12,0,.24-.01.35-.11.34-.08.68-.01,1.02.01.92.08,1.83.16,2.75.02.07.04.14.06.21.17.8.12,1.61.1,2.42.15.47.15.95.21,1.43.12.91.09,1.83.19,2.74.16,1.39-.51,2.42-1.42,3.27-.68.65-1.49,1.2-2.39,1.55-.4.22-.83.39-1.24.6-.21.11-.38.25-.51.4.1-.28.34-.51.7-.64.4-.14.77-.34,1.1-.6-.26,0-.49.08-.7.23-.23.17-.47.17-.7,0-.52.14-.98.38-1.45.62-.43.23-.54.5-.26.91.99,1.45,1.55,3.1,2.23,4.7h0c.1.14.01.3.05.43.17.56.09,1.24.7,1.61.1.22.35.25.51.4.07.08.14.17.23.17.03.15.06.3.08.45.18.38.54.32.86.38.7.01,1.32.21,1.91.6.32.21.65.48,1.04.55.45.08.62.31.57.74.47.68,1.24.96,1.88,1.41.3.21.63.32,1,.28.71.34,1.33.82,1.94,1.3.76.6,1.54,1.18,2.45,1.54.64.25,1.38.64,1.98.28.66-.4,1.29-.45,1.98-.41.29-.04.35-.27.38-.5.06-.5.07-1,.14-1.5.11-.76.16-1.54.58-2.22.49-1.29,1.21-2.48,1.25-3.93.05-1.72.2-3.44-.24-5.13-.32-1.25-.73-2.48-1.1-3.72-.34-.3-.46-.73-.65-1.12h-.02c-.71-.98-1.22-2.07-1.61-3.21-.73-1.4-1.47-2.79-2.2-4.18-.7-.64-1-1.51-1.36-2.34-.44-1-.75-2.06-1.36-2.99-.41-.63-1.16-1.13-.99-2.04.2-1.12-.27-2.15-.71-3.05Z"/>
  <path class="cls-2" d="m92.46,133.2c.63-.36.65-.43.23-.89-.07.3-.15.59-.23.89Z"/>
  <path class="cls-2" d="m102.69,76.03s.01-.02.01-.03c.37-.14.7-.36,1-.61.18-.14.36-.25.45-.5.49-1.45,1.16-2.83,1.8-4.23.33-.6.65-1.2.98-1.8.15-.27.33-.57-.05-.82-.42-.28-.85-.55-1.33-.72-1.29-.45-2.44-1.17-3.5-2-1.18-.92-1.9-2.14-1.61-3.68.37-1.99.49-3.99.5-6,.08-.25.04-.5.04-.75.03-1.49-.05-2.98.04-4.47.23-1.72.45-3.45.68-5.18-.1-1.44.09-2.86.34-4.27.25-1.37.66-2.69,1.14-3.99.54-1.4,1.05-2.81,1.91-4.06.28-.42.29-.94.51-1.39l.02-.05c.11-.46.05-.94.26-1.38.1-.36.05-.56-.38-.39h0c-.68,1-1.48,1.9-2.28,2.79-.9.99-1.76,2.01-2.54,3.1-.2.27-.39.6-.76.71-.22.32-.44.64-.66.97-.58.87-1.15,1.77-1.64,2.7-.75,1.79-1.49,3.57-2.24,5.36-.56,1.6-1.12,3.19-1.68,4.79-.12.44-.27.87-.49,1.27-.53,1.67-1.21,3.28-2.03,4.83-.62,1.23-1.17,2.49-1.91,3.66-.02.45-.38.75-.52,1.14-.46,1.24-1.08,2.4-1.77,3.53-.12.17-.14.42-.38.51-.28.8-.62,1.59-.85,2.41-.46,1.63-.96,3.26-.8,5,.07.69.02,1.39.02,2.09,0,.46.1.9.26,1.33.48,1.29,1.22,2.48,1.39,3.88.09.47.18.93.27,1.4.09.25,0,.52.06.78.01.02.03.04.05.06-.11.3-.22.59.25.7.43.03.85-.2,1.27-.01l-.36-.18c.13-.01.25.06.36.14.29,0,.54.1.73.32.11.13.22.28.42.22,1.04-.34,2.14-.5,3.01-1.22,0,0,.02,0,.03,0l.49-.24c.89-.8,1.82-1.53,2.91-2.05h0c.22.04.3-.12.38-.27.11-.16.28-.21.45-.26.34-.08.7-.08,1.01-.31.68-.5,1.42-.89,2.18-1.27.23-.12.53-.2.54-.55.39-.21.77-.41,1.16-.61,0,0,0,0,.01,0v.02c.3-.1.61-.19.85-.42Z"/>
  <path class="cls-2" d="m110.87,74.73c.08-1.59.28-3.22-.94-4.55-.56-.49-1.05-1.06-1.69-1.45-.2-.12-.38-.28-.6-.04h0c-.31,0-.4.26-.52.48-.33.63-.61,1.28-.9,1.93-.59,1.12-1.05,2.29-1.54,3.46-.09.2-.18.4.05.57.14.1.3.15.47.14,1.36-.1,2.66.12,3.94.59.46.17,1.08.14,1.55-.02.29-.1.05-.65.13-.99.01-.04.05-.08.05-.12Z"/>
  <path class="cls-2" d="m44.6,137.52c-.22-.5.08-1.01-.02-1.52-.47-.28-.42.17-.45.36-.15.83-.35,1.64-.6,2.45h.02c-.19,0-.32.08-.41.24-.4.72-.86,1.4-1.34,2.06-.13.17-.19.38-.06.59l-1.14,2.4c.02.49-.4.86-.37,1.37.04.7.02,1.4.02,2.11-.03.1-.04.2-.08.29v.93h-.07c.01.95-.15,1.89.1,2.81,0-.09,0-.19,0-.28,0,.09,0,.18.02.26.19.69.84.88,1.4.41.49-.42.72-1.02,1.03-1.56-.07-.3.13-.51.24-.76,0-.75.4-1.42.5-2.14,0,0,0,0,0,0,.36-.73.73-1.45,1.07-2.19.65-1.43,1.3-2.8.89-4.52-.27-1.09-.28-2.25-.75-3.31Z"/>
  <path class="cls-2" d="m46.14,139.28s-.11.04-.11.04c.01.07.03.15.04.22.14.08.25.23.43.17.03-.01.07-.1.06-.14-.07-.19-.22-.29-.42-.29Z"/>
  <path class="cls-2" d="m25.84,77.06c1.11-.2,2.17-.74,3.35-.58.38.06.78.04,1.16-.12.44-.48-.16-.66-.28-.99-.69-1.49-1.33-3-2.09-4.46-.66-1.26-.65-1.27-1.8-.41h0c-.53.33-.85.88-1.25,1.34-.37.41-.59.9-.54,1.47-.08,1.24-.09,2.47,0,3.7.48.24.97.14,1.45.05Z"/>
  <path class="cls-2" d="m88.97,138.9c-.45.59-1.11.9-1.73,1.23-1.68.89-3.35,1.78-4.77,3.07-.3.28-.64.55-1.05.69-.38.27-.82.4-1.28.48,0,0,.02,0,.02.01,0,0-.02,0-.02,0-.19-.04-.35.05-.51.13h-.03s-.02.02-.03.03c-.29.06-.54.2-.77.37-.54.39-1.05.81-1.57,1.21-.3.25-.61.48-.9.75-.13.12-.32.33-.29.44.05.19.3.22.52.22,1.06,0,1.87.43,2.4,1.37.1.17.25.33.38.49,0,.01,0,.02,0,.04.31.59.69,1.14,1.1,1.66,0,0,.02.01.03.02.24.41.47.83.73,1.23.6.89,1.32.86,1.83-.09.32-.59.56-1.22.87-1.82.71-1.37,1.21-2.85,2.02-4.18.22-.11.37-.26.41-.51l.43-.49c.27-.49.72-.87.85-1.45.1-.43.23-.87.51-1.19.89-1.01,1-2.29,1.29-3.51.04-.16.09-.28-.06-.38-.22-.14-.28.07-.39.18Z"/>
  <path class="cls-2" d="m95.28,145.96c-.03-.08-.05-.16-.07-.23.13-.15.07-.32.03-.5.08-.41-.22-.73-.29-1.1-.59-1.16-1.1-2.36-1.98-3.34,0,0,0,0,0,0-.14-.21-.29-.41-.44-.62h.02c-.13-.44-.58-.72-.63-1.21-.08-.23-.15-.46-.23-.69,0-.03-.02-.05-.03-.07-.1-.67-.29-1.32-.32-2-.01-.22-.15-.44-.43-.47-.27.78-.07,1.63-.39,2.4,0,0,.01,0,.02,0,0,0,0,0,0,0-.37.74-.28,1.57-.47,2.35-.31,1.28-.15,2.53.34,3.74.53,1.05,1.15,2.05,1.54,3.17,0,0,0,0,0,0,.06.62.35,1.17.48,1.77h-.01c-.15.47.09.81.36,1.14.03.04.03.08.03.12-.02.32.02.62.36.77.21.39.41.79.83.99.92.06.99.02,1.23-.6.11-.71.02-1.44.05-2.16.03-1.16.24-2.32,0-3.48Z"/>
  <path class="cls-2" d="m76.69,118.09c-.04-.06-.15-.06-.22-.09,0,.16,0,.33.05.49.23.78.26,1.6.32,2.4.08,1.26.1,2.52.15,3.78.29.09.34-.13.4-.33.07-.26.14-.51.21-.77.39-.38.42-.87.42-1.37,0-.4-.02-.79-.02-1.18h.01c-.23-1.07-.69-2.04-1.32-2.93Z"/>
  <path class="cls-2" d="m29.6,127.08c-.04-.89.03-1.81-.26-2.64-.24-.68-.7-1.25-1.15-1.81-4.45-5.55-8.71-11.27-12.76-17.12-1.55-2.25-2.86-5.79-.57-7.27-.4-2.77-.81-5.54-1.21-8.31-.89-6.1-1.78-12.2-2.66-18.31-.38-3.01-2.4-11.73-7.14-10.03-4.12,1.48-2.25,12.46-2.26,15.73,0,1.05,0,2.15.43,3.1.69,1.53,2.3,2.38,3.47,3.58,3.22,3.29,2.8,8.55,2.29,13.12-.51,4.57-.59,9.95,2.97,12.86.94.77,2.07,1.29,3.01,2.08,1.09.92,1.86,2.17,2.61,3.39,1.92,3.13,3.83,6.25,5.75,9.38.77,1.26,1.56,2.58,1.68,4.05.13,1.61-.56,3.15-1.23,4.62,2.85,1.26,5.46,3.08,7.63,5.32,1.94,2,3.61,4.73,2.96,7.44,1.46-3,.65-6.59-.57-9.7-1.22-3.1-2.85-6.16-2.98-9.49Z"/>
  <path class="cls-2" d="m132.65,60.74c-4.74-1.7-6.76,7.01-7.14,10.03-.83,5.74-1.67,11.47-2.5,17.21-.21,0-.44.04-.72.18-.72.36-1.34.98-1.17,1.82.03.15.01.3.04.44.16.87-.36,1.73-.02,2.6.07.18.11.37.07.6-.08.42-.16.79-.49,1.09-.38.35-.23.9-.38,1.35-.19.59-.64,1.13-.63,1.75.01.61-.33.79-.77.88-.31.07-.59.15-.87.32-.24.14-.53.2-.75-.04-.22-.24-.05-.51.11-.68.32-.33.26-.66.02-.96-.24-.28-.26-.57-.24-.92.03-.41.15-.81.2-1.22.22-.32.37-.66.37-1.05-.01-.61.04-1.18.4-1.73.23-.35.3-.83.2-1.27-.1-.41.01-.73.3-1.02.37-.89.15-1.82.16-2.73,0-.27-.19-.46-.51-.42-.25.07-.29.28-.33.49-.16.88-.36,1.76-.53,2.65-.32,1.67-.66,3.34-1.35,4.91-.02.29-.04.57-.2.83-.08.17-.12.34-.17.52-.11.32-.12.68-.42.92-.07.05-.12.12-.17.2-1,1.16-2.09,2.22-3.34,3.11-.25.18-.56.31-.61.67-.31.15-.61.31-.92.46-.15.05-.31.09-.47.14-.06-.05-.11-.1-.16-.18-.42-.05-.8.12-1.2.21-.21.12-.46.06-.68.12-.19.05-.33.27-.57.13-.35-.2-.76-.18-1.15-.2-.45.01-.9-.05-1.35.08-.28.35-.63.51-1,.58.19-.08.37-.21.51-.44-1.02-.03-2.03-.09-3.04.08-.58.1-1.15.19-1.73.29h-.01c-.19.19-.57-.2-.68.23v.02s-.02-.07-.06-.1c-.11-.05-.21-.01-.3.07-1.25.36-2.59.23-3.8.78-.43.01-.74.2-.89.62-.46.84-.43,1.12.13,1.59.31.25.67.17,1.01.22h-.02c.31.36.71.31,1.1.26.26-.04.53-.1.8-.07.14.02.31.04.33.22.02.19-.16.21-.29.26-.76-.02-1.46.27-2.19.46.15.17.29.3.43.41-.12,0-.24,0-.36,0-.24,0-.46-.03-.69-.07.2-.02.38-.12.52-.35.03-.02.05-.04.08-.06-.04-.01-.07-.02-.1-.03-.26-.06-.53-.03-.8-.09-.96-.2-1.81-.64-2.73-.93.03.25.12.47.42.43.33-.04.52.14.68.37,0,0,0,0,0,0-.85-.29-1.67-.68-2.49-1.05-.75-.35-1.31-.9-1.96-1.35-.84-.58-1.77-1.06-2.42-1.9-.36-.46-.7-.97-1.17-1.33-1.32-1.02-2.58-2.11-3.57-3.46-.39-.52-1.04-.85-1.02-1.67.01-.35-.36-.63-.82-.64-.41-.01-.79.11-1.18.17-.93.14-1.56-.55-1.34-1.46.13-.51.32-.98.5-1.47.23-.66.49-1.29.85-1.89-.09-.59.38-.88.68-1.27.06-.13.14-.24.26-.32.33-.4.73-.63,1.26-.48.59-.29.92-.91,1.49-1.24.88-.52,1.6-1.21,2.15-2.08.1-.17.23-.31.42-.36.36-.11.48-.35.56-.69.15-.64.4-1.21.98-1.63.45-.32.53-.8.36-1.35-.26-.84-.76-1.62-.82-2.51-.04-.64-.19-1.22-.57-1.73-.33-.51-.88-.92-.76-1.63-.18-.43-.26-.9-.2-1.36.12-.88.15-1.79.04-2.64-.19-1.56.42-2.92.85-4.28.58-1.84,1.84-3.41,2.51-5.25.5-1.39,1.47-2.55,1.98-3.93.18-.47.34-.95.52-1.42.2-.53.66-.94.68-1.55.01-.45.15-.9.42-1.24.44-.55.62-1.19.75-1.85.12-.63.35-1.17.89-1.54.13-.09.16-.24.19-.39.31-1.34.86-2.59,1.34-3.87.24-.62.62-1.18.49-1.9-.04-.25.06-.51.23-.71.42-.5.56-1.13.75-1.72.49-1.53,1.12-2.95,2.32-4.07.57-.53,1.11-1.14,1.46-1.81.75-1.44,1.93-2.49,3-3.64.44-.47,1.11-.74,1.31-1.42.2-.7.61-1.28,1.13-1.73,1.02-.89,1.66-2.05,2.39-3.15.09-.13.18-.26.16-.41-.08-.61.21-1.15.29-1.73.16-1.23.33-2.46.59-3.68.13-.61.13-1.26-.05-1.88-.3-1-.36-2.04-.42-3.05-.05-.9-.01-1.81-.25-2.69-.15-.55-.27-1.1-.27-1.68,0-.21-.04-.45-.26-.54-.7-.3-1.22-.88-1.94-1.17-.53-.22-1.13-.28-1.61-.6-.66-.44-1.37-.75-2.1-1.04-.3-.12-.65-.21-.84-.53,0,0,0,0-.01,0,0,0,0,0,.01-.01h-.01c-.38-.24-.82-.36-1.25-.49,0,0,0,0,0,0-.17-.06-.32-.11-.49-.16l.02.04s-.09,0-.13,0c.02-.03.05-.04.07-.07-1.31-.52-2.63-1.03-3.94-1.54-.5-.66-1.09-.86-1.9-.63-.79-.29-1.59-.58-2.41-.76-.59-.21-1.18-.42-1.77-.63-.48-.03-.91-.24-1.37-.36-1.69-.44-3.37-.88-5.09-1.18-3.55-.69-7.13-1.12-10.76-1.12-.2-.09-.41-.05-.62-.05h-5.06c-.64.02-1.29-.05-1.93.04-2.6.09-5.16.5-7.73.79-.45-.08-.84.22-1.27.24-.84.17-1.69.35-2.53.52-1.39.37-2.79.75-4.18,1.12-.58.2-1.15.47-1.77.54-.16-.09-.33-.16-.53-.09-.73.24-1.51.36-2.19.74-.62.26-1.32.28-1.91.64-1.01.42-2.04.78-3.06,1.16-1.14.42-2.33.72-3.43,1.24-.22.16-.49.23-.74.34-1.49.62-2.95,1.31-4.41,2.02-.64.31-1.01.75-1.18,1.45-.14.59-.14,1.21-.34,1.79-.04,1.57-.61,3.07-.57,4.65.13,1.42.2,2.85,0,4.27,0,.04.02.08.03.12-.04,1.32.38,2.55.72,3.8.08.29.12.67.57.68,0,0,0,.02-.02.03-.03.1-.03.2.02.3.39.22.86.4.97.9.15.72.66,1.17,1.18,1.59.42.34.75.73,1.07,1.15.82,1.08,1.58,2.19,2.49,3.19.84.92,1.81,1.73,2.33,2.89.41.91,1.06,1.59,1.9,2.05.97.54,1.32,1.42,1.6,2.39.09.28.14.57.17.87.12.97.56,1.85.84,2.77.21.72.6,1.39.93,2.07.37.76.36,1.65.89,2.35.11.15.12.36.12.55.02.28.13.52.28.76.73,1.21,1.39,2.49,1.58,3.9.19,1.36.91,2.49,1.37,3.73.37.99,1.1,1.79,1.5,2.77.52,1.27,1.11,2.51,1.75,3.72.28.54.8.95.86,1.6.06.65.36,1.25.67,1.75.64,1.02.76,2.17,1.09,3.26.4,1.31.1,2.68-.06,4.02-.15,1.18-.38,2.36-1.01,3.37-.54.86-.93,1.77-1.19,2.74.03.71.02,1.41.08,2.12.57.51.71,1.28,1.15,1.88.6.83,1.38,1.47,2.08,2.19.29.3.47.7.88.92.64.33,1.22.76,1.77,1.23.36.12.74.23,1.05.41.06.04.13.09.19.13.27.22.46.53.47,1.03.21.85.73,1.56,1.16,2.29.34.57.55,1.14.3,1.73-.25.59-.86.68-1.46.67h-.51c-.48-.02-.82.12-1.04.62-.65,1.45-1.86,2.52-2.68,3.86-.07.12-.19.23-.31.31-1.66,1.07-2.96,2.59-4.56,3.74-.35.25-.54.65-.91.92-1.07.77-2.31,1.14-3.48,1.64-1.05.45-2.14,1.03-3.38.9v-.3c-.71-.21-1.45.02-2.16-.12-.07,0-.14,0-.19-.02-.24-.11-.71.08-.67-.43.03-.46.23-.79.79-.71.23.03.46.02.69.02.05,0,.11,0,.16.01h-.16c.65.16,1.3.22,1.94,0h-.16c.05,0,.11,0,.16-.01.97-.25,1.2-.97.53-1.7-.19-.2-.4-.37-.66-.48-.54-.22-1.11-.39-1.69-.49-1.63-.27-3.25-.55-4.88-.83-.06-.07-.13-.14-.17-.24-.2-.07-.4-.09-.6-.04-.06.04-.12.08-.18.11-.08-.02-.16-.01-.23-.04-.66.02-1.33-.02-1.98.11-.1-.05-.2-.11-.3-.18-.24-.04-.48-.04-.72.02-.07.07-.14.15-.21.22h-.77s-.12-.03-.19,0h-1.1c-.05-.06-.11-.11-.16-.18-.13-.06-.26-.07-.39-.03-.08.03-.15.1-.21.16-.54-.13-1.08-.27-1.62-.4-.07-.05-.14-.1-.19-.17-.05,0-.1.01-.15.02.04-.28-.21-.34-.39-.44-.3-.17-.68-.18-.93-.46-1.47-.86-2.54-2.17-3.76-3.31-.16-.17-.26-.37-.31-.59-.02-.11-.03-.23-.11-.33-.3-.29-.23-.72-.38-1.07-.11-.17-.11-.36-.11-.55-.5-1.41-1.05-2.82-1.25-4.32-.21-.65-.17-1.36-.46-2-.14-.37.1-.93-.53-1.05-.35.16-.38.41-.3.78.13.57.2,1.16.24,1.74.06.84-.12,1.67.03,2.54.12.7.37,1.22.79,1.72.15.18.34.33.3.6-.09.64.2,1.23.33,1.82.2.94.02,1.83-.03,2.73-.02.37-.09.7.13,1.02.07.1.27.27-.01.32-.37.07-.31.34-.35.58-.02.14-.01.34-.21.32-.19-.02-.15-.23-.15-.37.01-.21.03-.42.06-.63.04-.25-.03-.46-.2-.64-.64-.7-1.49-1.2-1.99-2.06-.1-.17-.33-.18-.52-.2-.28.23-.14.49-.06.74.15.49.4.95.56,1.44.64,2.26,1.94,4.12,3.55,5.78.16.17.36.3.62.18.93.63,1.9,1.22,2.74,1.97,0,.08-.02.16-.05.25.13.38.42.61.75.8.14-.04.26-.04.36-.02.16.16.32.32.48.49.03.08.05.17.07.27.05.04.11.07.17.09.52-.05.69.45,1,.69,1.04.81,2,1.68,2.49,3.01.31.85.74,1.8,1.58,2.28.65.36,1.04.86,1.3,1.48.24.58.38,1.2.61,1.79.4,1.02.59,2.09.79,3.17.25,1.32.64,2.62.3,3.98-.25,1,.02,1.97.24,2.93.05.21.22.36.42.45,1.09.49,2.29-.24,2.4-1.45.12-1.33.93-2.29,2.25-2.63.46-.11.88-.28,1.2-.64.51-.24,1.04-.43,1.53-.71.04-.03.09-.07.14-.1.19-.24.48-.18.73-.22.09.02.16.02.18-.06.02-.01.05-.02.07-.03.02.01.02.03.04.04.15.05.3.03.42-.06.66-.49,1.32-.99,1.99-1.46.16-.12.24-.29.28-.48.59-.51,1.34-.73,2.02-1.08.05.05.09.07.14.13.28.14.53.01.77-.12.09-.07.11-.18.14-.29.65-.22,1.3-.41,1.99-.42.27-.09.55-.19.82-.28.08.03.16.06.24.11.1-.01.19-.04.26-.1.13-.23.29-.43.47-.63.35-.4.94-.54,1.11-1.09.38-1.24,1.07-2.22,2.29-2.76.14-.05.25-.14.35-.26.57-.68,1.09-1.39,1.41-2.23.42-1.12,1.04-2.15,1.63-3.18.47-.81.89-1.6,1.19-2.48.16-.46.18-1.04.59-1.37.43-.34.57-.75.6-1.26.02-.36.2-.68.37-1,.27-.52.59-1.01.82-1.56.65-1.55,2.08-1.9,3.51-2.24.14-.04.32-.02.43.07.39.32.79.6,1.24.83.28.15.24.48.03.72-.21.25-.51.38-.84.35-.79-.07-1.42.31-2.02.73-.32.21-.59.56-.33.97.25.4.64.25.96.08.35-.18.68-.25,1.02-.04.59.35,1.26.54,1.82.98.43.34.88.29,1.24-.23.38-.55.61-.53,1.05,0,.09.04.19.04.28,0,.35-.41.77-.83,1.33-.57.48.23.51.8.45,1.29-.15,1.15.36,2.06,1.03,2.92.24.3.53.47.87.22.38-.28.67-.63.38-1.13-.42-.71-.44-1.55-.81-2.3-.75-1.51-1.47-2.97-3.48-2.99-.41,0-.8-.13-1.04-.5-.2-.31-.21-.71.17-.77.49-.07.91-.29,1.36-.44.65-.22,1.12.13,1.64.37,1.02.46,1.89,1.06,2.2,2.22.1.4.27.75.55,1.05.17.18.33.38.4.63.66,2.28,1.81,4.35,2.89,6.44.59,1.14,1.35,2.19,1.9,3.35.45.94,1.04,1.78,2.1,2.15.3.1.54.34.69.63.35.66.76,1.26,1.25,1.82.53.6,1.12.89,1.91.82.47-.04.95-.11,1.32.26.22.22.47.36.76.42.76.15,1.49.42,2.17.79.55.31,1.27.05,1.71.55s1.04.83,1.42,1.39c.16.24.38.41.63.54-.09,0-.16,0-.26.01l1.15.86c-.02-.09-.04-.15-.06-.23.08.14.14.3.17.48.06.08.15.13.25.13.04,0,.08,0,.12,0,0,0,.02,0,.03,0,.24.21.49.41.77.57.01.07.03.13.03.23.09.11.2.17.34.17.11-.02.22-.09.31-.02.67.52,1.37.98,2.18,1.26.22.08.37.29.44.52.23.7.71,1.29.93,2,.11.36.38.5.79.47,1.45-.11,2.64-1.68,2.45-3.27-.18-1.53-.27-3.03.28-4.52.2-.54.57-1.14.55-1.61-.05-1.05.52-1.85.7-2.79.14-.72.54-1.28,1.19-1.63.23-.13.45-.29.55-.51.43-.95,1.14-1.73,1.64-2.64.44-.79.82-1.67,1.63-2.21.78-.52,1.37-1.22,1.96-1.93.49-.58,1.05-1.13,1.9-1.15.09-.06.14-.15.16-.25.08-.02.15-.06.18-.17.51-.37,1.03-.75,1.55-1.12h0c.4.1.64-.14.87-.39,1.56-1.73,2.83-3.64,3.44-5.92.55-1.34,1.1-2.69,1.71-4.02.52-1.35.35-2.77.37-4.17,0-.57-.09-1.14.03-1.71.23-.45.47-.64.8-.67,0,0,0,0,0,0-.4,2.77-.81,5.54-1.21,8.31,2.3,1.48.99,5.03-.57,7.27-4.05,5.86-8.3,11.57-12.76,17.12-.45.56-.91,1.13-1.15,1.81-.3.84-.23,1.76-.26,2.64-.13,3.33-1.76,6.39-2.98,9.49-1.22,3.1-2.03,6.7-.57,9.7-.65-2.71,1.02-5.44,2.96-7.44,2.17-2.24,4.78-4.06,7.63-5.32-.67-1.47-1.36-3.01-1.23-4.62.12-1.47.91-2.79,1.68-4.05,1.92-3.13,3.83-6.25,5.75-9.38.75-1.22,1.51-2.46,2.61-3.39.93-.79,2.06-1.31,3.01-2.08,3.56-2.91,3.48-8.29,2.97-12.86-.51-4.57-.93-9.83,2.29-13.12,1.17-1.2,2.78-2.05,3.47-3.58.43-.96.44-2.05.43-3.11-.02-3.28,1.86-14.25-2.26-15.73Zm-34.6,44.87c.22.06.3.18.26.39-.06-.1-.13-.19-.22-.26-.12-.09-.25-.18-.38-.26.1.06.22.1.34.13Zm.74-2.79c.13.11.27.19.4.26-.19.01-.39.04-.58.07.06-.1.12-.2.17-.33Zm-3.55,2.18c-.21.21-.54.32-.74-.05-.14-.26-.22-.74.11-.75.43-.02.8-.13,1.17-.29-.03.07-.05.15-.05.23,0,.24.18.32.39.32.14,0,.25.05.36.11-.46-.02-.88.06-1.24.43Zm1.55,2.5c-.13,0-.27,0-.4,0,.15-.05.28-.04.4,0Z"/>
</svg>