<?xml version="1.0" encoding="UTF-8"?>
<svg id="Calque_1" data-name="Calque 1" xmlns="http://www.w3.org/2000/svg" viewBox="0 0 734.93 619.5">
  <defs>
    <style>
      .cls-1 {
        fill: #fff;
      }
    </style>
  </defs>
  <path class="cls-1" d="m359.26,490.23c-5.38,0-9.18-2.01-12.67-6.38-11.57-14.47-23.46-28.67-35.25-42.96-5.66-6.86-8.11-9.82-11.79-9.82-2.79,0-6.29,1.7-12.43,4.68-.15.07-.27.23-.7.62,17.54,25.94,35.08,51.95,52.76,77.86.69,1.01,2.58,1.82,3.96,1.82.14,0,.28,0,.4-.03,30.93-4.27,61.84-8.7,93.45-13.2-1.52-3.94-3.05-7.16-3.99-10.53-1.07-3.87-2.91-5.39-6.8-5.39-.34,0-.69.01-1.06.03-21.48,1.31-43,1.97-64.49,3.25-.48.03-.94.04-1.39.04Z"/>
  <path class="cls-1" d="m302.42,585.6c-2.07,0-4.17.38-6.21,1.19-8.59,3.41-12.88,13.25-9.54,21.91,2.56,6.65,9.1,10.79,15.91,10.79,1.98,0,3.98-.35,5.92-1.09,8.67-3.33,13.09-13.06,9.87-21.75-2.52-6.82-9.07-11.05-15.96-11.05Z"/>
  <path class="cls-1" d="m13.53,440.32c-2.49-.66-4.89-1.29-6.64-1.66-.38,1.85-.77,4.43-1.11,6.67-1.48,9.76-2.81,19.74-4.1,29.4-.56,4.17-1.11,8.34-1.68,12.51v45.65c.1.55.21,1.1.32,1.64.36,1.85.73,3.76,1,5.78.32,2.35.64,4.7.96,7.05,1.08,7.89,2.2,16.04,3.05,24.16.16,0,.33,0,.51,0,.63,0,1.33-.01,2.07-.04,0-.4,0-.83.03-1.26.34-6.67.59-13.49.83-20.09.6-16.52,1.23-33.61,3.34-50.41,1.91-15.22,5.94-30.15,9.84-44.58.99-3.65,2-7.42,2.96-11.11.07-.26.12-.49.17-.7-2.82-.57-5.49-1.33-8.08-2.06-1.16-.33-2.31-.65-3.47-.96Z"/>
  <path class="cls-1" d="m694.69,374.68c.18-.07.37-.16.57-.26-1.69-3.54-3.18-6.63-4.74-9.75-26.59-53.03-63.69-98.5-110.28-135.14l-.41-.33c-.23-.18-.5-.39-.77-.6-18.86,23.02-39.01,47.39-63.29,76.56,6.19,6.3,11.93,12.6,17.06,18.75,22.83,27.34,40.27,58.54,51.84,92.73.21.61.44,1.29.67,1.96.73-.28,1.49-.59,2.19-.87,7.47-2.98,14.93-5.96,22.39-8.95l16.36-6.57c22.43-9,45.63-18.3,68.4-27.54Z"/>
  <path class="cls-1" d="m714.87,424.06c-.76.21-1.54.43-2.16.6-38.23,10.91-76.47,21.83-114.7,32.75-.73.21-1.79.51-2.73.81.14.96.33,2.03.46,2.83,4.53,26.41,5.44,50.78,2.78,74.5-1.16,10.3-2.73,20.7-4.25,30.76-.26,1.69-.52,3.41-.77,5.13,2.6,0,5.19,0,7.79,0,9.57,0,19.14,0,28.71,0,9.57,0,19.15,0,28.72,0,21.97,0,48.03.02,74.77.18h.11c.4,0,.72-.01.99-.03.05-.41.1-.98.12-1.75,1.51-49.41-4.91-97.65-19.08-143.37-.2-.65-.48-1.54-.76-2.39Z"/>
  <path class="cls-1" d="m312.23,188.91c-.22-3.1-.44-6.2-.67-9.3-.62-8.49-1.25-17.26-1.75-25.94-29.46,3.9-57.94,11.22-84.65,21.76-27.22,10.74-53.41,25.15-77.86,42.83-.02.02-.04.03-.07.05,9.63,13.84,18.96,27.58,27.75,40.85,43.47-24.16,90.32-36.6,139.26-36.98-.57-7.81-1.02-15.7-1.45-23.34-.19-3.31-.37-6.62-.57-9.93Z"/>
  <path class="cls-1" d="m109.58,250.15c-4.88,5.79-9.92,11.56-14.8,17.15-10.48,12-21.31,24.4-30.81,37.26-18.26,24.73-33.06,53.97-43.99,86.92-.03.09-.05.21-.08.35,6.18,2.75,12.63,5.3,19.39,7.97.87.35,1.75.69,2.64,1.04.08-.12.15-.23.19-.33,23.41-47.28,55.61-86.67,95.71-117.09-11.61-13.16-20.32-23.41-28.2-33.18-.02-.03-.04-.05-.06-.08Z"/>
  <path class="cls-1" d="m481.63,279.17c2,1.6,4.81,3.54,8.15,5.81,14.28-21.78,32.7-49.85,51.32-78.15-1.95-.96-8.97-5.16-14.59-7.23-3.86,6.4-7.64,12.4-11.17,17.91-12.42,19.38-23.62,39.86-33.71,61.65Z"/>
  <path class="cls-1" d="m452.12,167.18c-16.76-5.79-32-10.04-45.49-12.68-.8-.16-1.64-.3-2.65-.45l-.46-.07c-18.77-2.53-26.96-3.3-34.83-3.3-4.03,0-8.05.2-13.61.47l-1.24.06c-1.05,17.89-1.88,36.09-2.68,53.71-.31,6.75-.61,13.51-.93,20.26,3.4.45,6.75.99,10.27,1.54,1.75.28,3.54.56,5.37.84l.29.04.29.07c1.38.32,25.69,6,58.95,20.86,9.77-23.69,17.99-48.23,24.56-73.47.69-2.64,1.41-5.26,2.15-7.88Z"/>
  <path class="cls-1" d="m567.63,2.01c-46.15,45.61-79.03,98.9-97.66,160.5-.39,1.28-.77,2.56-1.14,3.84-.37,1.28-.74,2.56-1.11,3.85-.66,2.36-1.31,4.73-1.93,7.12-6.68,25.69-15.02,50.69-25.06,74.98-.51,1.23-1.02,2.46-1.54,3.69-.52,1.23-1.05,2.46-1.58,3.69-9.88,22.96-21.29,45.28-34.33,66.9-22.3,36.95-44.96,73.67-67.6,110.4-1.77,2.87-1.92,4.67.32,7.29,7.23,8.44,14.07,17.23,21.39,25.6,1.44,1.64,4.3,2.89,6.51,2.89.03,0,.06,0,.1,0,11.12-.19,22.23-1.01,33.35-1.29,3.5-.09,4.7-1.48,5.62-4.68,9.56-33.13,19.66-66.11,28.92-99.33,8.95-32.09,19.86-63.31,33.37-93.39.55-1.22,1.11-2.44,1.66-3.66.56-1.22,1.12-2.43,1.68-3.64,9.81-21.03,20.94-41.49,33.62-61.27,3.58-5.58,7.09-11.19,10.52-16.85.7-1.15,1.39-2.3,2.08-3.45.69-1.15,1.38-2.31,2.06-3.46,10.52-17.88,20.03-36.28,27.6-55.74,15.64-40.25,23.76-81.99,25.41-126.02-1.24,1.1-1.78,1.53-2.26,2.01Z"/>
  <path class="cls-1" d="m340.08,533.78c-1.04.22-2.01.32-2.93.32-3.91,0-6.78-1.95-9.07-5.71-2.31-3.77-5.01-7.3-8.15-11.83-4.38,18.06-8.49,34.98-12.12,49.94l-2.24,10.25s10.53,1.02,13.85,6.13l6.09-8.25c8.91-13.12,18.71-27.55,29.08-42.82-5.78.76-10.21,1.08-14.51,1.98Z"/>
</svg>