<?xml version="1.0" encoding="UTF-8"?>
<svg id="Calque_2" data-name="Calque 2" xmlns="http://www.w3.org/2000/svg" viewBox="0 0 185.82 185.82">
  <defs>
    <style>
      .cls-1 {
        fill: #ff9b00;
      }

      .cls-2 {
        fill: #f7a72c;
      }
    </style>
  </defs>
  <g>
    <path class="cls-1" d="m84.62,100.28c1.22-1.49,2.91-1.88,4.63-1.08.9.42,1.76,1.05,2.46,1.77,1.55,1.58,2.21,1.65,3.74.13,1.12-1.11,2.35-2.06,3.99-2.23,1.09-.12,2.1.02,2.85,1.26-.45.06-.76.17-1.04.13-1.94-.28-3.36.44-4.56,1.99-.64.82-1.63,1.51-2.6,1.89-.93.37-1.91-.04-2.61-.91-.56-.7-1.21-1.34-1.85-1.96-1-.97-2.17-1.43-3.59-1.07-.37.09-.77.06-1.42.1Z"/>
    <path class="cls-1" d="m84.81,89.31c-1.73.4-3.27,1.57-5.44.62.52-.37.85-.81,1.18-.81,2.06-.01,3.8-.77,5.26-2.29.1.06.19.12.29.18.02.39.18.85.03,1.16-.53,1.14-.98,2.4-1.8,3.3-2.52,2.78-5.53,4.85-9.33,5.53-1.04.18-2.06.23-3.23-.58,5.79-.09,9.79-2.95,13.04-7.1Z"/>
    <path class="cls-1" d="m100.7,86.87c2.2,1.15,4.13,2.15,6.07,3.17-1.25.66-2.53-.3-4.12-.34,3.54,4.29,7.81,6.61,13.21,6.79l.03.36c-.9.1-1.83.4-2.69.26-5.43-.84-9.43-3.77-12.08-8.55-.24-.42-.25-.97-.42-1.7Z"/>
    <path class="cls-1" d="m92.19,117.31c-.14-.09-.75-.32-.74-.54,0-.36.37-.97.66-1.02.93-.15,1.9-.15,2.84-.08.19.01.45.55.47.86.01.14-.45.42-.72.47-.72.14-1.46.18-2.5.3Z"/>
    <path class="cls-1" d="m113.88,78.1c-4.47-1.88-9.58-.61-13.29,2.84-.21.2-.23.99-.03,1.19.78.78,1.61,1.54,2.55,2.1,3.86,2.32,7.95,2.31,12.09.91,1.55-.52,3.03-1.06,4.43.31.06.06.22.03.47.05-.99-3.28-3.54-6.28-6.21-7.4Zm-6.68,4.75c-.18-.47.07-1.11.14-1.67.41.1.98.07,1.21.33,1.49,1.68,1.93,1.73,3.99-.15.12.74.41,1.34.23,1.74-.16.38-.8.73-1.26.76-1.01.06-2.05,0-3.05-.18-.48-.08-1.11-.45-1.27-.84Z"/>
    <path class="cls-1" d="m84.85,80.62c-3.78-3.88-10.72-4.43-15.03-1.15-2.03,1.55-3.2,3.71-4.1,6.18,2.07-2.1,4.14-.84,6.19-.3.04.01.08.03.12.04,3.14,1.06,6.22.73,9.27-.4,1.5-.56,2.78-1.4,3.69-2.75.4-.59.4-1.08-.14-1.63Zm-6.47,2.58c-.64.43-1.51.58-2.3.69-.63.09-1.34.04-1.94-.15-.43-.14-.95-.56-1.07-.96-.12-.41.19-.96.28-1.32.86.47,1.49,1.04,2.16,1.11.5.05,1.07-.54,1.6-.88.38-.25.71-.63,1.12-.78.14-.05.69.45.68.67-.04.57-.14,1.37-.51,1.62Z"/>
    <path class="cls-1" d="m102.71,110.81c-1.08-1.06-2.07-2.24-3.27-3.13-1.48-1.09-3.19-1.3-4.83-.23-.73.48-1.31.29-1.89-.19-1.31-1.08-2.77-1.05-4.3-.66-1.71.44-2.95,1.52-4.05,2.84-1.14,1.36-2.35,2.66-3.76,4.25.7-.04,1.4.12,1.88-.14.66-.36,1.14-1.04,1.72-1.55.33-.29.65-.59.97-.89l.71.19c1.56.73,3.01,1.43,4.47,2.08,2.19.98,4.34.95,6.49-.23.96-.52,2.04-.81,3.06-1.22.2-.08.38-.22.74-.43l.41-.34c.61.61,1.2,1.23,1.84,1.81.74.68,1.57,1.26,2.47.45-.91-.91-1.77-1.76-2.63-2.61Z"/>
  </g>
  <path class="cls-2" d="m185.39,56.53c-.36-.64-1.01-1.01-1.59-1.42-.4-.35-.84-.66-1.31-.93-2.03-1.33-4.36-1.82-6.8-1.6-4.27.32-7.38,3.18-10.55,5.73-1.21.89-2.5,1.66-3.86,2.29-1.84.74-4.01.83-6.1.43-1.08-.32-2.22-.37-3.33-.47-.43-.06-.85-.11-1.28-.16-1.22-.19-2.44-.41-3.68-.32-.35-.02-.7-.05-1.05-.06-.35,0-.69.01-1.03.01-.26-.02-.52,0-.77,0-.7,0-1.39.04-2.06.14-1.48.15-2.82.96-4.1,1.64-1.58.82-3.12,1.72-4.6,2.71-.43.29-.72.5-.89.7-.32-.45-.64-.91-.97-1.35.19-.12.36-.33.54-.59,1.29-1.85,2.59-3.7,3.89-5.54,5.61-7.88,11.25-15.76,16.79-23.67.18-.25.36-.5.54-.74.28-.26.5-.58.67-.92.81-1.13,1.62-2.26,2.44-3.38.34-.46.53-.88.17-1.45-1.24.81-2.44,1.59-3.66,2.39,0,0-.01,0-.02,0h-.02c-6.51,4.24-12.84,8.89-19.45,12.92-.08.06-.16.12-.24.18-2.32,2.01-6.18,4.22-8.86,6-.66.41-1.53.64-1.92,1.45-.08.07-.16.14-.25.21h-.01c-.07.21-.21.28-.42.27-.01,0-.06.04-.06.04-.17.86-.8,1.6-.81,2.49-.84-.59-1.7-1.17-2.58-1.71.01-.02.02-.04.03-.06.15-.32.09-.68,0-1.03-.02-.03-.03-.06-.05-.09,0-.17,0-.35,0-.52.01-.02.02-.04.03-.06.03-.74.04-1.47.07-2.21.34-2.47.35-5.09,1.42-7.39.25-.46.5-.92.8-1.35.81-1.21,1.73-2.34,2.68-3.44.2-.21.4-.43.6-.63h0c.04-.08.09-.15.13-.22.59-.69,1.17-1.38,1.72-2.1,2.7-3.37,4.31-7.32,4.45-11.64.05-3.14-.73-6.24-1.01-9.38.01-.09.03-.18.04-.27-.01-.79-.03-1.57-.04-2.36.13-1.18.54-2.22,1.32-3.18.12-.15.25-.29.38-.43.65-.71,1.32-1.41,2-2.1.32-.28.92-.52.73-.99-.07-.17-.18-.29-.31-.39-.22-.29-.64-.26-.99-.27-.09,0-.17-.01-.26,0-5.61.05-10.66,4.27-11.59,9.91-.46,1.87-.68,3.78-.9,5.69-.07.44-.15.88-.21,1.32-.06.25-.11.5-.17.76-.04.11-.07.23-.11.34-.23,1.72-.99,3.36-2.23,4.57-1.65,1.48-3.43,2.81-5.14,4.22-.94.69-1.88,1.36-2.81,2.05-1.04,1.06-2.28,1.94-3.22,3.07-.19.21-.38.42-.55.64-.02.02-.03.04-.05.06-2.19,2.97-2.96,6.76-3.67,10.33-.05.27-.04.54.04.77-.59-.1-1.18-.2-1.78-.28.02-.17,0-.4-.05-.73-.18-1.07-.37-2.14-.56-3.2-.74-4.99-1.63-9.93-2.45-14.91-.01-.05-.03-.1-.04-.15-.81-5.45-1.75-10.87-2.74-16.28-.32-1.63-.3-3.34-.9-4.9-.21-1.01.07-2.18-.9-2.96-.44.34-.49.83-.56,1.24-.16.83-.33,1.66-.49,2.49-.4,1.45-.54,2.95-.88,4.42,0,0,.01,0,.02,0-.75,3.8-1.56,7.58-2.34,11.37-.02.03-.04.05-.06.08,0,.19-.04.38-.07.57-.43,2.1-.82,4.22-1.21,6.33-.29,1.18-.65,2.34-.72,3.56,0,0,0,0,.02,0,0,.01,0,.02,0,.03,0,0,0,0,.01,0-1.06,4.38-1.61,8.85-2.72,13.2-.06.19-.07.33-.06.45-.35.07-.69.16-1.03.24-.02-.02-.02-.03-.04-.05,0,0,0,0,0,0-3.11-3.65-7.12-6.92-7.71-12.04-.55-3.57-.44-7.29-1.42-10.78-1.34-5.73-6.23-9.52-10.78-12.77-2.96-2.17-4.48-4.82-4.21-8.5.05-.62.39-1.54-.21-1.82-.27-.13-.48-.04-.67.13-3.17,2.4-4.6,6.68-4.11,10.6.35,2.39,1.52,4.39,2.66,6.43l-.02.04c.24.12.41.29.39.59.21.46.87.47,1,.99,2.38,2.75,4.89,5.88,4.46,9.77-.24,1.66-.46,3.33-.52,5.02-.1.77-.2,1.53-.28,2.3-.34,2.64-.95,5.43-.29,8.03.76,2.68,2.19,5.1,3.6,7.5.73,1.24,1.11,1.87,1.59,2.04-.46.32-.91.65-1.36.98-.02-.02-.05-.04-.07-.06-9.84-7.27-19.96-14.33-29.97-21.36-.1-.06-.2-.13-.3-.19-.4-.46-.92-.78-1.48-1.04-.07.01-.12.03-.19.04-.77-.52-1.54-1.05-2.3-1.57-.44-.3-.85-1.13-1.41-.6-.5.5.35,1.31.61,1.85,5.18,8.08,10.67,15.95,16.09,23.85,2.37,3.72,4.96,7.29,7.3,11.03.1.16.2.27.31.35-.2.31-.4.61-.59.92-.1-.02-.21-.03-.36-.03-2.39.06-4.74-.24-7.11-.49-4.98-.2-8.2-4.32-11.89-7.09-1.75-1.32-3.59-2.38-5.54-3.12-.88-.36-1.79-.64-2.76-.81-.39-.09-.78-.18-1.17-.27-.2,0-.4,0-.6,0-3.09-.36-6.16.38-9.23.74-2.12.15-4.45.45-6.43-.53-1.3-.76-2.36-1.9-3.42-2.96-.43-.58-.82-1.22-1.42-.41-.39.1-.31.51-.29.78.06,1.34-.04,2.65.43,4.01,1.89,5.93,7.23,8.25,13.04,8.57,1.16.19,2.33.38,3.49.56.25.06.5.11.76.17.11.04.23.07.34.11.21.03.42.07.62.11,1.63.57,3.09,1.47,4.34,2.9,4.52,4.71,7.35,11.6,14.28,13.18,1.85.6,3.73,1.03,5.67,1.25.36.09.65.11.89.08-.11.61-.21,1.23-.29,1.85-.25-.07-.56-.05-.82,0-1.63.29-3.26.6-4.89.93-2.18.35-4.36.67-6.54,1.05-.81.1-1.61.21-2.4.41-1.12.2-2.23.39-3.35.57-7.31.9-14.48,2.56-21.79,3.53-1.36.18-3.02.04-4.01,1.21h0c0,.06,0,.12,0,.18.35.03.7.09,1.04.14.26.13.55.17.8.22.92.17,1.83.36,2.74.54.82.21,1.66.35,2.5.49,1.52.34,3.06.63,4.59.91,2.84.57,5.68,1.19,8.52,1.77.02.01.03.03.05.04.12,0,.23.03.34.04,1.91.39,3.82.75,5.74,1.1.43.26.95.18,1.43.29.97.25,1.94.51,2.96.56,0,0,0,0,0-.01,3.16.61,6.27,1.43,9.46,1.88.25.05.5.09.75.13,1.01.19,2,.4,2.98.71.21.06.37.07.5.05.03.15.07.3.1.45-.47.56-.57,1.38-1.22,1.81,0,.06.02.11.02.16-2.46,2.24-4.93,4.81-8.08,6.01-.22,0-.43-.01-.65-.02-.62.08-1.22.19-1.77.49-.02.02-.03.03-.05.05-.11.01-.23.02-.35.02-.03-.02-.05-.04-.08-.07-.09,0-.18,0-.26-.01-.03.05-.07.08-.11.11-4.92.39-10.48.31-14.6,3.31,0,0-.02,0-.03,0-.57-.06-.75.61-1.2.77,0,.07-.03.11-.05.16-.23.19-.47.37-.7.57-.08,0-.17.02-.26.01-.09.07-.17.14-.26.21,0,.08,0,.16,0,.24-1.79,1.59-3.29,3.48-4.69,5.42-.1.03-.19.06-.28.1,0,.11-.02.22-.03.33-.29.39-.59.77-.89,1.14-.09.02-.18.03-.29.03-.23.15-.44.31-.52.58-.03.06-.07.1-.13.13h0c-1.17,1.34-2.46,2.44-4.13,2.98-1.01.23-2.05.26-3.06.32-.64-.09-1.27-.11-1.91.03,0,.06,0,.11,0,.16-.14.08-.25.32-.22.48-.03.03-.06.06-.1.09,2.51,3.13,6.74,4.65,10.74,4.14,2.39-.35,4.39-1.52,6.43-2.66l.04.02c.12-.24.29-.41.59-.39.46-.21.48-.87.99-1,2.32-2.02,4.93-4.11,8.05-4.46.54-.02,1.07-.02,1.61,0,1.39.14,2.75.45,4.16.46,3.74.09,7.57,1.53,11.29.63,2.68-.76,5.1-2.19,7.5-3.6,1.28-.75,1.91-1.14,2.05-1.65.31.44.62.88.94,1.31-1.4,1.35-2.54,3.48-3.7,5.04-6.93,10.07-14.38,19.79-21.23,29.92-.23.33-1.12.48-.5,1.1.38.38.7.16,1-.09.49-.01,1.06-.52,1.52-.77,4.55-3.01,9.13-5.98,13.66-9.03,6.98-4.93,14.06-9.7,21.23-14.36.17-.11.29-.22.36-.33.31.2.61.4.92.59-.02.1-.04.22-.04.38.05,1.79-.12,3.55-.3,5.31-.28,2.77-.48,5.58-2.3,7.89-.98,1.24-1.98,2.47-2.98,3.69-.07-.02-.13-.04-.2-.07-4.72,4.58-7.16,11.17-5.91,17.66.44,3.02.74,6.04.55,9.08-.11.41-.25.8-.44,1.19-1.01,1.4-2.17,2.68-3.57,3.71-.06.22-.14.44-.11.66.01.19.09.38.3.54.02,0,.04,0,.06,0,.17.28.48.21.73.19,1.34-.06,2.65.04,4.01-.43,7.22-2.43,8.29-8.58,8.83-15.29.39-2.84,1.32-5.34,3.59-7.31,4.81-4.59,11.9-7.52,13.27-14.69.22-.78.39-1.59.54-2.4.03-.13.06-.26.08-.38.06-.08.11-.16.17-.24,0-.17,0-.33,0-.5,0,0,0,0,0,0,.11-.78.55-1.86.44-2.63.6.11,1.21.21,1.82.29,0,.05.01.1.02.15,0,0,0,0,0,0,.04,1.58.54,3.14.78,4.71.84,4.63,1.37,9.31,2.27,13.93,1.03,7.02,2.5,13.97,3.47,21,.18,1.36.04,3.02,1.21,4.01.06,0,.12,0,.18,0,.02-.23.06-.46.09-.69.47-1.23.39-2.68.73-3.97,1.43-6.21,2.44-12.49,3.81-18.72.2-.97.39-1.94.57-2.91.4-.8.27-1.77.5-2.64.2-1.06.4-2.12.61-3.18.25-1.21.51-2.41.73-3.62.18-.84.35-1.68.52-2.53.24-1.04.46-2.08.59-3.14.15-.82.3-1.65.43-2.48.03-.19.04-.35.02-.47.24-.05.47-.11.71-.16.3.25.67.38,1.01.57,2.71,2.87,5.86,5.6,6.98,9.55.05.42.13.83.3,1.22.06.29.1.58.15.87,0,.07,0,.14,0,.2.02.01.03.03.05.05.48,7.05.79,14.22,6.9,18.92,1.3,1.04,2.61,2.06,3.92,3.09.01.04.02.07.04.1.04,0,.07,0,.11.01.46.37.93.73,1.39,1.1,0,.03.01.06.01.09.15.22.31.44.58.52.06.03.1.07.13.13,1.32,1.15,2.41,2.42,2.95,4.05.45,1.2,0,2.75.19,4.1.05.06.07.13.1.19.01.25.04.5.09.76h0c0,.08,0,.17,0,.25h0c.2-.02.38-.06.54-.12.06.05.13.1.18.19,1.41-1.01,2.35-2.43,3.03-4.01.99-1.85,1.36-3.91,1.16-6.06-.44-6.22-6.36-9.69-8.37-15.25-.35-1.7-.16-3.49-.09-5.21.33-1.07.38-2.19.47-3.29.14-1.7.62-3.38.49-5.1.2-1.66.28-3.34-.1-4.96-.16-1.36-.9-2.62-1.52-3.81-.92-1.8-2.04-3.5-3.18-5.18-.15-.23-.31-.39-.46-.49.47-.33.94-.66,1.4-1,1.35,1.39,3.46,2.52,5.02,3.67,10.07,6.93,19.79,14.38,29.92,21.23.33.23.48,1.13,1.1.5.11-.11.16-.22.19-.32.05-.02.09-.03.14-.06-.06-.1-.12-.19-.19-.29-.04-.09-.11-.18-.18-.27-.68-1.04-1.35-2.07-2.03-3.11h0s0-.01,0-.02v-.02c-4.24-6.51-8.89-12.84-12.92-19.45-.06-.08-.12-.16-.18-.24-2.01-2.32-4.22-6.17-6-8.86-.38-.61-.62-1.38-1.29-1.8-.62-.96-1.25-1.91-1.88-2.87-.1-.15-.19-.25-.27-.34.23-.35.45-.69.67-1.04.34.17.73.16,1.11.05.22-.17.45-.17.67-.01,3.07.18,6.39-.06,9.22,1.27,2.14,1.13,4.09,2.57,5.81,4.29h0s0,0,0,0c.12.06.23.14.35.21,0,0,0,0,0,0,4.58,4.72,11.17,7.16,17.66,5.91,3.17-.4,6.41-.9,9.56-.44.16.06.32.13.47.2.05.03.1.05.15.08.03.01.05.03.07.04,1.4,1.01,2.68,2.17,3.72,3.57.22.06.44.14.66.11.19-.01.38-.09.54-.3,0-.02,0-.04,0-.06.47-1.61-.02-3.41-.56-5-1.24-3.34-3.43-5.7-6.76-7-2.9-1.14-5.97-1.41-9.03-1.76-2.51-.28-4.82-1.01-6.49-3.04-2.98-3.46-5.58-7.29-8.75-10.57-2.98-2.85-7.31-3.66-11.24-4.46-.27-.05-.54-.05-.78.03.1-.56.19-1.12.27-1.69.03,0,.07,0,.1-.01,7.21-1.24,14.47-2.23,21.67-3.6,5.36-.82,10.67-1.83,16.03-2.66.34-.05.68-.1,1.01-.17,1.18-.19,2.36-.38,3.53-.58.39-.06.93-.09.95-.57.02-.56-.55-.62-.98-.67-.75-.09-1.49-.21-2.23-.34-1.65-.55-3.38-.67-5.07-1.07,0,.01,0,.03,0,.05-1.98-.45-3.98-.79-5.97-1.17,0,0,0,0,0,0-.16-.04-.33-.08-.49-.12-.02,0-.04.01-.06.02-1.57-.31-3.13-.64-4.7-.97,0,0,0,0,0,0-.07-.06-.15-.12-.22-.18-1.91-.11-3.72-.78-5.61-1.01-.24-.05-.48-.09-.72-.14-1.37-.3-2.71-.77-4.13-.85,0,.02-.01.04-.01.07-1.18-.22-2.36-.45-3.54-.69-.2-.18-.47-.2-.72-.15-2.97-.61-5.93-1.26-8.93-1.7-.17-.03-.31-.03-.42-.03-.08-.4-.18-.79-.27-1.18.12-.06.26-.17.42-.33,1.98-1.9,3.89-3.9,6.16-5.46,2.53-1.78,5.81-2.27,8.89-2.47,5.6-.18,11.39-1.45,15.23-5.78,3.73-3.48,5.99-9.89,11.64-10.22.74.02,1.5.19,2.25.04.53.09,1.1.17,1.31-.28.18-.38-.05-.64-.36-.88Zm-52.32,56.08c-1.32,1.49-2.78-.15-4.37.42.65.8,1.25,1.46,1.73,2.2.24.37.26.89.37,1.35-.44.02-.9.14-1.31.04-.79-.19-1.56-.51-2.33-.77-.09.09-.18.18-.27.27.2.41.35.85.6,1.22.33.5.78.94,1.09,1.45.14.24.2.7.06.87-.15.18-.6.25-.87.18-.63-.16-1.22-.46-1.84-.65-.39-.12-.81-.16-1.22-.24-.07.11-.14.23-.2.34.53.72,1.12,1.41,1.57,2.18.2.34.14.83.2,1.26-.43,0-.9.11-1.29-.02-.84-.28-1.64-.69-2.46-1.05-.08.11-.17.22-.25.34.43.75.9,1.48,1.26,2.26.15.33.08.77.11,1.16-.43.01-.91.15-1.28,0-.59-.24-1.1-.7-1.66-1.02-.21-.12-.5-.1-.76-.14-.03.29-.17.62-.08.87.21.56.6,1.06.78,1.63.12.39.01.86,0,1.29-.41-.08-.88-.07-1.23-.26-.74-.42-1.43-.95-2.13-1.44-.13.08-.26.16-.39.23.13.63.32,1.26.39,1.9.07.6.03,1.21.04,1.81-.59-.25-1.22-.44-1.77-.76-.5-.29-.91-.72-1.37-1.09-.14.06-.28.12-.42.18.13.76.3,1.52.36,2.29.04.47-.07.95-.11,1.43-.49-.16-1.04-.23-1.45-.51-.62-.43-1.15-1-1.71-1.51-.14.05-.28.11-.43.16.07.79.18,1.58.18,2.37,0,.42-.21.83-.33,1.25-.39-.16-.85-.25-1.16-.51-.42-.36-.69-.88-1.09-1.27-.2-.2-.53-.28-.8-.41-.11.28-.32.55-.32.83-.01.56.16,1.12.1,1.67-.05.4-.35.77-.54,1.15-.38-.2-.87-.32-1.13-.63-.54-.63-.97-1.36-1.44-2.06-.17.05-.33.1-.49.15-.04.7,0,1.42-.13,2.11-.09.5-.39.97-.59,1.46-.41-.31-.89-.56-1.21-.95-.29-.34-.37-.85-.62-1.24-.16-.24-.45-.39-.69-.58-.18.25-.45.47-.52.74-.13.54-.06,1.13-.22,1.66-.13.39-.5.7-.76,1.05-.34-.27-.79-.47-.99-.82-.4-.69-.67-1.47-1-2.2-.14,0-.27,0-.41.01-.28.8-.52,1.62-.85,2.4-.15.35-.49.61-.74.92-.28-.28-.64-.52-.81-.85-.37-.73-.64-1.51-1.13-2.67-.5,1.17-.8,1.98-1.19,2.74-.17.33-.53.55-.81.83-.26-.29-.61-.54-.75-.88-.31-.78-.51-1.61-.75-2.42-.16-.02-.32-.03-.48-.05-.36.76-.69,1.54-1.11,2.26-.18.32-.57.51-.87.76-.24-.3-.58-.57-.69-.91-.18-.57-.16-1.2-.3-1.79-.07-.27-.31-.51-.47-.76-.24.18-.51.34-.71.55-.18.2-.25.51-.43.71-.45.52-.94,1.01-1.41,1.5-.21-.67-.45-1.33-.62-2.01-.12-.51-.16-1.04-.23-1.56-.14-.05-.27-.1-.41-.15-.47.64-.89,1.32-1.42,1.91-.31.34-.79.51-1.2.76-.16-.44-.42-.88-.46-1.33-.08-.75-.02-1.52-.02-2.28l-.53-.22c-.46.57-.86,1.2-1.39,1.69-.36.34-.89.51-1.35.76-.12-.5-.32-1-.35-1.51-.03-.72.07-1.44.14-2.53-1.29.99-2.28,1.75-3.26,2.5-.15-.07-.29-.14-.44-.22.12-1.25.24-2.51.36-3.76-.12-.07-.25-.14-.37-.21-.61.52-1.18,1.08-1.84,1.53-.33.23-.81.25-1.22.36-.04-.38-.13-.77-.1-1.15.07-.87.19-1.74.29-2.61-.74.41-1.47.85-2.22,1.23-.34.17-.74.23-1.11.34-.05-.43-.21-.88-.12-1.27.13-.58.49-1.11.67-1.68.08-.25-.05-.57-.08-.86-.25.04-.55,0-.75.12-.61.34-1.15.8-1.78,1.1-.28.13-.88.13-.98-.03-.17-.28-.2-.79-.05-1.1.35-.75.84-1.44,1.27-2.16-.05-.14-.1-.28-.15-.41-.48.12-.97.21-1.44.38-.77.28-1.5,1.39-2.29.47-.22-.26.55-1.39.89-2.11.1-.21.3-.37.39-.57.1-.22.22-.65.14-.7-.23-.15-.59-.27-.83-.19-.66.22-1.27.6-1.94.79-.33.09-.74-.11-1.11-.19.07-.34.05-.73.22-1,.35-.54.85-1,1.2-1.54.18-.27.18-.65.26-.98-.33-.02-.67-.12-.98-.05-.59.13-1.14.42-1.73.53-.32.06-.94-.02-.99-.17-.1-.34-.06-.85.14-1.14.51-.71,1.14-1.33,1.81-2.08-1.33-1.26-3.02,1-4.33-.64.86-.91,1.72-1.81,2.58-2.71-.05-.13-.09-.26-.14-.39h-3.77c-.13-.22-.26-.43-.39-.65,1.06-.72,2.12-1.43,3.19-2.15-.11-.2-.22-.39-.33-.59l-3.76-.42c-.06-.18-.12-.35-.18-.53.98-.77,1.95-1.53,3.18-2.5-.66-.22-1.09-.4-1.53-.5-.45-.1-.94-.08-1.38-.2-.32-.09-.6-.35-.9-.54.19-.29.33-.66.59-.84.75-.53,1.55-.98,2.71-1.71-1.59-.48-2.81-.85-4.03-1.22-.04-.18-.08-.35-.13-.53,1.15-.66,2.3-1.31,3.79-2.16-1.26-.39-2.11-.61-2.92-.93-.33-.13-.79-.52-.78-.77.02-.3.43-.68.76-.83.76-.33,1.57-.54,2.51-1.19-.58-.31-1.18-.58-1.73-.94-.52-.33-.99-.75-1.49-1.13.56-.34,1.1-.74,1.7-.99.56-.24,1.19-.32,2.18-.57-1.38-.94-2.41-1.64-3.45-2.35,0-.18,0-.35,0-.53,1.23-.32,2.46-.63,3.95-1.01-1.12-.91-2.09-1.69-3.11-2.53,1.08-1.5,2.65-.53,4.12-1.21-.77-.71-1.45-1.27-2.04-1.91-.29-.31-.44-.77-.65-1.16.45-.17.89-.45,1.35-.48.59-.04,1.2.16,1.8.15.26,0,.58-.21.76-.43.06-.08-.17-.48-.35-.66-.72-.76-1.46-1.49-2.22-2.25,1.13-1.17,2.2-.47,3.21-.44.33,0,.66-.09.99-.14-.1-.32-.16-.68-.32-.96-.19-.32-.55-.53-.71-.86-.25-.5-.39-1.05-.58-1.57.57-.06,1.14-.17,1.71-.16.7.01,1.41.13,2.11.2-.32-.66-.62-1.34-.97-1.99-.17-.32-.44-.6-.69-.93.27-.97.88-1.2,1.77-.89.48.17.95.39,1.44.53.22.06.61.03.69-.09.13-.23.19-.61.08-.84-.21-.46-.62-.84-.79-1.31-.15-.43-.29-1.21-.1-1.34.43-.29,1.09-.4,1.62-.34.48.05.89.49,1.37.65.31.1.81.14,1-.04.21-.18.27-.68.2-1-.13-.59-.47-1.13-.58-1.72-.06-.35.04-.89.27-1.09.22-.19.74-.09,1.1,0,.31.07.56.36.86.45.58.16,1.18.25,1.77.37-.05-.56-.08-1.12-.17-1.68-.05-.31-.3-.6-.32-.91-.03-.33,0-.86.19-.97.29-.17.83-.19,1.13-.02.52.28.91.8,1.41,1.13.27.18.66.19.99.28.08-.33.26-.67.22-.99-.05-.55-.3-1.09-.34-1.64-.02-.36.1-.84.34-1.08.13-.13.71.02.97.2.71.5,1.36,1.09,2.42,1.55-.04-.83-.15-1.66-.1-2.48.03-.44.32-.86.5-1.29.38.2.84.33,1.13.63.54.55.99,1.2,1.73,2.12.21-.76.4-1.18.44-1.62.04-.41-.16-.84-.1-1.25.06-.47.28-.92.44-1.38.44.27.96.46,1.3.82.54.58.97,1.26,1.44,1.9.16-.05.31-.09.47-.14.07-.85.08-1.71.23-2.54.07-.39.4-.74.61-1.11.34.24.77.42,1.01.74.49.65.87,1.38,1.29,2.08.15,0,.31-.02.46-.02.14-.63.22-1.28.44-1.88.2-.56.55-1.06.83-1.59.37.43.78.82,1.09,1.29.37.56.66,1.18.98,1.78.13,0,.27-.02.4-.02.26-.86.48-1.74.8-2.58.13-.34.49-.6.74-.89.27.27.62.51.78.83.37.78.65,1.6.96,2.41l.43.02c.26-.71.47-1.44.8-2.11.22-.45.61-.82.93-1.22.3.4.69.77.89,1.22.31.69.5,1.44.74,2.16.14,0,.27,0,.41-.01.36-.78.68-1.58,1.1-2.32.18-.31.58-.5.89-.74.24.31.58.58.69.93.25.87.4,1.77.58,2.65.14.02.28.04.43.06.38-.66.7-1.37,1.15-1.98.27-.37.72-.61,1.08-.9.24.42.6.8.69,1.25.16.75.16,1.54.26,2.72.57-.56.92-.85,1.2-1.2.32-.4.51-.91.86-1.27.22-.22.68-.41.94-.33.23.07.48.52.5.82.06.95.02,1.9.02,2.85.14.06.29.13.43.19.5-.6.96-1.26,1.53-1.79.32-.31.83-.42,1.25-.62.13.45.37.9.36,1.34,0,.78-.17,1.55-.27,2.32.16.06.33.12.49.18.67-.61,1.32-1.25,2.02-1.8.25-.2.81-.37.95-.24.25.22.43.7.39,1.04-.09.87-.33,1.73-.5,2.59.15.08.3.16.44.24.65-.54,1.27-1.13,1.98-1.59.32-.21.81-.15,1.23-.21.04.38.18.79.1,1.14-.19.86-.48,1.71-.73,2.56.15.1.29.21.44.31.58-.39,1.12-.85,1.74-1.16.48-.24,1.04-.29,1.57-.43-.02.56.03,1.13-.08,1.67-.14.67-.42,1.31-.63,1.96.13.08.25.16.38.25.66-.4,1.28-.87,1.98-1.17.4-.18.92-.1,1.38-.14-.03.46.02.95-.13,1.38-.17.47-.55.86-.77,1.32-.1.2,0,.49,0,.74.25,0,.53.07.74-.03.46-.22.86-.59,1.33-.77.43-.16.93-.13,1.39-.18-.05.5,0,1.04-.19,1.49-.18.46-.63.81-.89,1.25-.14.24-.12.57-.17.86.29.03.6.16.86.08.67-.19,1.3-.54,1.97-.69.3-.07.79.06.97.28.15.18.08.69-.07.95-.46.78-1,1.5-1.51,2.25.08.13.16.26.23.39.62-.17,1.23-.44,1.85-.5.6-.06,1.21.1,1.82.16-.23.51-.46,1.03-.7,1.54-.02.04-.07.06-.09.1-.35.56-.69,1.11-1.04,1.67.65,0,1.3.01,1.95-.01.28-.01.57-.19.82-.14.37.08.82.22,1.03.5.12.15-.08.73-.31.93-.71.63-1.5,1.16-2.26,1.73.14.23.28.47.42.7h3.82c.07.16.15.33.22.49-.93.91-1.87,1.82-3.02,2.95,1.65.2,2.96.36,4.27.52.04.19.09.38.14.57-1.04.77-2.08,1.54-3.44,2.55.98.19,1.65.26,2.28.47.65.21,1.26.56,1.89.84-.5.42-.98.88-1.51,1.26-.5.36-1.07.64-1.6.96.01.14.02.28.03.42.86.21,1.74.38,2.58.65.35.11.63.44.94.67-.27.33-.48.78-.83.96-.78.41-1.64.68-2.47,1.01.01.16.03.32.04.48.67.23,1.36.39,1.99.7.5.25.92.68,1.38,1.02-.44.34-.85.75-1.34.99-.65.31-1.36.47-2.35.79,1.39.86,2.5,1.55,3.62,2.23-.04.17-.09.34-.13.52-1.21.33-2.42.66-4.04,1.1,1.05.6,1.79.94,2.44,1.42.36.27.55.76.82,1.15-.38.22-.73.53-1.14.63-.79.18-1.61.24-2.41.36-.04.14-.08.27-.12.41.5.34,1.05.64,1.49,1.04.49.44.88.99,1.32,1.49-.65.23-1.29.54-1.95.68-.52.11-1.09.02-2.04.02,1.11,1.16,2,2.09,2.89,3.01-.04.12-.09.25-.13.37h-3.79c-.06.13-.11.26-.17.39.82.89,1.64,1.78,2.51,2.74Z"/>
</svg>